%TF.GenerationSoftware,KiCad,Pcbnew,9.0.1*%
%TF.CreationDate,2025-05-12T23:40:56+02:00*%
%TF.ProjectId,knit_yarn,6b6e6974-5f79-4617-926e-2e6b69636164,rev?*%
%TF.SameCoordinates,Original*%
%TF.FileFunction,Soldermask,Bot*%
%TF.FilePolarity,Negative*%
%FSLAX46Y46*%
G04 Gerber Fmt 4.6, Leading zero omitted, Abs format (unit mm)*
G04 Created by KiCad (PCBNEW 9.0.1) date 2025-05-12 23:40:56*
%MOMM*%
%LPD*%
G01*
G04 APERTURE LIST*
G04 Aperture macros list*
%AMRoundRect*
0 Rectangle with rounded corners*
0 $1 Rounding radius*
0 $2 $3 $4 $5 $6 $7 $8 $9 X,Y pos of 4 corners*
0 Add a 4 corners polygon primitive as box body*
4,1,4,$2,$3,$4,$5,$6,$7,$8,$9,$2,$3,0*
0 Add four circle primitives for the rounded corners*
1,1,$1+$1,$2,$3*
1,1,$1+$1,$4,$5*
1,1,$1+$1,$6,$7*
1,1,$1+$1,$8,$9*
0 Add four rect primitives between the rounded corners*
20,1,$1+$1,$2,$3,$4,$5,0*
20,1,$1+$1,$4,$5,$6,$7,0*
20,1,$1+$1,$6,$7,$8,$9,0*
20,1,$1+$1,$8,$9,$2,$3,0*%
G04 Aperture macros list end*
%ADD10C,0.100000*%
%ADD11RoundRect,0.237500X0.237500X-0.250000X0.237500X0.250000X-0.237500X0.250000X-0.237500X-0.250000X0*%
%ADD12RoundRect,0.237500X0.287500X0.237500X-0.287500X0.237500X-0.287500X-0.237500X0.287500X-0.237500X0*%
%ADD13RoundRect,0.237500X-0.287500X-0.237500X0.287500X-0.237500X0.287500X0.237500X-0.287500X0.237500X0*%
%ADD14RoundRect,0.237500X0.035355X0.371231X-0.371231X-0.035355X-0.035355X-0.371231X0.371231X0.035355X0*%
%ADD15RoundRect,0.750000X1.750000X1.750000X-1.750000X1.750000X-1.750000X-1.750000X1.750000X-1.750000X0*%
%ADD16C,2.000000*%
%ADD17R,2.000000X2.000000*%
%ADD18RoundRect,0.237500X-0.237500X0.250000X-0.237500X-0.250000X0.237500X-0.250000X0.237500X0.250000X0*%
%ADD19RoundRect,0.237500X-0.371231X0.035355X0.035355X-0.371231X0.371231X-0.035355X-0.035355X0.371231X0*%
%ADD20RoundRect,0.237500X-0.035355X-0.371231X0.371231X0.035355X0.035355X0.371231X-0.371231X-0.035355X0*%
%ADD21RoundRect,0.237500X0.371231X-0.035355X-0.035355X0.371231X-0.371231X0.035355X0.035355X-0.371231X0*%
G04 APERTURE END LIST*
D10*
X88500000Y-73500000D02*
X88519383Y-73500893D01*
X88538290Y-73502375D01*
X88556766Y-73504433D01*
X88574861Y-73507057D01*
X88592620Y-73510235D01*
X88610090Y-73513954D01*
X88627319Y-73518203D01*
X88644353Y-73522971D01*
X88661240Y-73528245D01*
X88678027Y-73534014D01*
X88694745Y-73540271D01*
X88711375Y-73547023D01*
X88727880Y-73554282D01*
X88744226Y-73562059D01*
X88760377Y-73570366D01*
X88776298Y-73579215D01*
X88791955Y-73588618D01*
X88807310Y-73598586D01*
X88822331Y-73609131D01*
X88836980Y-73620265D01*
X88851223Y-73632000D01*
X88865026Y-73644348D01*
X88878351Y-73657320D01*
X88891165Y-73670927D01*
X88903432Y-73685183D01*
X88915117Y-73700098D01*
X88926189Y-73715679D01*
X88936634Y-73731917D01*
X88946441Y-73748801D01*
X88955600Y-73766314D01*
X88964102Y-73784446D01*
X88971936Y-73803181D01*
X88979092Y-73822507D01*
X88985560Y-73842410D01*
X88991330Y-73862877D01*
X88996392Y-73883894D01*
X89000736Y-73905449D01*
X89004352Y-73927527D01*
X89007229Y-73950115D01*
X89009358Y-73973200D01*
X89010729Y-73996768D01*
X89011332Y-74020806D01*
X89011140Y-74045311D01*
X89010159Y-74070326D01*
X89008372Y-74095905D01*
X89005765Y-74122101D01*
X89002321Y-74148969D01*
X88998025Y-74176561D01*
X88992862Y-74204931D01*
X88986816Y-74234134D01*
X88979872Y-74264222D01*
X88972014Y-74295250D01*
X88963227Y-74327272D01*
X88953495Y-74360340D01*
X88942803Y-74394510D01*
X88931135Y-74429833D01*
X88904810Y-74504159D01*
X88874394Y-74583596D01*
X88839737Y-74667824D01*
X88800677Y-74756374D01*
X88757054Y-74848776D01*
X88708707Y-74944561D01*
X88655473Y-75043258D01*
X88597193Y-75144398D01*
X88533704Y-75247512D01*
X88464846Y-75352165D01*
X88390458Y-75458065D01*
X88310380Y-75564958D01*
X88224450Y-75672590D01*
X88132506Y-75780705D01*
X88084229Y-75834864D01*
X88034388Y-75889048D01*
X87982963Y-75943226D01*
X87929934Y-75997365D01*
X87875281Y-76051434D01*
X87818983Y-76105401D01*
X87701507Y-76212860D01*
X87578005Y-76319285D01*
X87449107Y-76424179D01*
X87315445Y-76527046D01*
X87177649Y-76627389D01*
X87036349Y-76724713D01*
X86892177Y-76818521D01*
X86745762Y-76908316D01*
X86597948Y-76993538D01*
X86450431Y-77073377D01*
X86305115Y-77146961D01*
X86163907Y-77213417D01*
X86028713Y-77271873D01*
X85901437Y-77321457D01*
X85783987Y-77361296D01*
X85729541Y-77377288D01*
X85678267Y-77390517D01*
X85630341Y-77400929D01*
X85585699Y-77408693D01*
X85544214Y-77414030D01*
X85505762Y-77417164D01*
X85470215Y-77418319D01*
X85437448Y-77417717D01*
X85407336Y-77415582D01*
X85379753Y-77412136D01*
X85354572Y-77407602D01*
X85331667Y-77402205D01*
X85310914Y-77396166D01*
X85292186Y-77389710D01*
X85260302Y-77376435D01*
X85235008Y-77364166D01*
X85215310Y-77354223D01*
X85207266Y-77349974D01*
X85200270Y-77346037D01*
X85194207Y-77342280D01*
X85188962Y-77338575D01*
X85186609Y-77336701D01*
X85184417Y-77334793D01*
X85182372Y-77332832D01*
X85180458Y-77330804D01*
X85178662Y-77328692D01*
X85176969Y-77326480D01*
X85175365Y-77324152D01*
X85173835Y-77321691D01*
X85170938Y-77316308D01*
X85168164Y-77310203D01*
X85165397Y-77303244D01*
X85162520Y-77295305D01*
X85155977Y-77275965D01*
X85155980Y-77275961D01*
X85117035Y-77158702D01*
X85095738Y-77093790D01*
X85078091Y-77038863D01*
X85074670Y-77027871D01*
X85071717Y-77017927D01*
X85069244Y-77008793D01*
X85067263Y-77000227D01*
X85065785Y-76991991D01*
X85064822Y-76983844D01*
X85064386Y-76975545D01*
X85064488Y-76966856D01*
X85065141Y-76957536D01*
X85066356Y-76947345D01*
X85068145Y-76936043D01*
X85070519Y-76923390D01*
X85073491Y-76909147D01*
X85077072Y-76893072D01*
X85086107Y-76854471D01*
X85112325Y-76748377D01*
X85130139Y-76682043D01*
X85151536Y-76607924D01*
X85176853Y-76526825D01*
X85206425Y-76439552D01*
X85222911Y-76393852D01*
X85240587Y-76346910D01*
X85259495Y-76298827D01*
X85279676Y-76249704D01*
X85324073Y-76148598D01*
X85374350Y-76043694D01*
X85431122Y-75934953D01*
X85495008Y-75822332D01*
X85529812Y-75764555D01*
X85566626Y-75705793D01*
X85605527Y-75646040D01*
X85646593Y-75585293D01*
X85689901Y-75523546D01*
X85735527Y-75460794D01*
X85783549Y-75397031D01*
X85834045Y-75332253D01*
X85942411Y-75199915D01*
X86059488Y-75065162D01*
X86183787Y-74929659D01*
X86313816Y-74795068D01*
X86448087Y-74663055D01*
X86585110Y-74535283D01*
X86723395Y-74413417D01*
X86861453Y-74299120D01*
X86929943Y-74245290D01*
X86997893Y-74193734D01*
X87131728Y-74097300D01*
X87262073Y-74009538D01*
X87388042Y-73930164D01*
X87508749Y-73858898D01*
X87623309Y-73795457D01*
X87730836Y-73739558D01*
X87830445Y-73690921D01*
X87921512Y-73649222D01*
X88004472Y-73613966D01*
X88080022Y-73584616D01*
X88148861Y-73560635D01*
X88211686Y-73541486D01*
X88269197Y-73526632D01*
X88322091Y-73515537D01*
X88371065Y-73507663D01*
X88394294Y-73504777D01*
X88416764Y-73502551D01*
X88438523Y-73500971D01*
X88459617Y-73500028D01*
X88480094Y-73499708D01*
X88500000Y-73500000D01*
G36*
X88500000Y-73500000D02*
G01*
X88519383Y-73500893D01*
X88538290Y-73502375D01*
X88556766Y-73504433D01*
X88574861Y-73507057D01*
X88592620Y-73510235D01*
X88610090Y-73513954D01*
X88627319Y-73518203D01*
X88644353Y-73522971D01*
X88661240Y-73528245D01*
X88678027Y-73534014D01*
X88694745Y-73540271D01*
X88711375Y-73547023D01*
X88727880Y-73554282D01*
X88744226Y-73562059D01*
X88760377Y-73570366D01*
X88776298Y-73579215D01*
X88791955Y-73588618D01*
X88807310Y-73598586D01*
X88822331Y-73609131D01*
X88836980Y-73620265D01*
X88851223Y-73632000D01*
X88865026Y-73644348D01*
X88878351Y-73657320D01*
X88891165Y-73670927D01*
X88903432Y-73685183D01*
X88915117Y-73700098D01*
X88926189Y-73715679D01*
X88936634Y-73731917D01*
X88946441Y-73748801D01*
X88955600Y-73766314D01*
X88964102Y-73784446D01*
X88971936Y-73803181D01*
X88979092Y-73822507D01*
X88985560Y-73842410D01*
X88991330Y-73862877D01*
X88996392Y-73883894D01*
X89000736Y-73905449D01*
X89004352Y-73927527D01*
X89007229Y-73950115D01*
X89009358Y-73973200D01*
X89010729Y-73996768D01*
X89011332Y-74020806D01*
X89011140Y-74045311D01*
X89010159Y-74070326D01*
X89008372Y-74095905D01*
X89005765Y-74122101D01*
X89002321Y-74148969D01*
X88998025Y-74176561D01*
X88992862Y-74204931D01*
X88986816Y-74234134D01*
X88979872Y-74264222D01*
X88972014Y-74295250D01*
X88963227Y-74327272D01*
X88953495Y-74360340D01*
X88942803Y-74394510D01*
X88931135Y-74429833D01*
X88904810Y-74504159D01*
X88874394Y-74583596D01*
X88839737Y-74667824D01*
X88800677Y-74756374D01*
X88757054Y-74848776D01*
X88708707Y-74944561D01*
X88655473Y-75043258D01*
X88597193Y-75144398D01*
X88533704Y-75247512D01*
X88464846Y-75352165D01*
X88390458Y-75458065D01*
X88310380Y-75564958D01*
X88224450Y-75672590D01*
X88132506Y-75780705D01*
X88084229Y-75834864D01*
X88034388Y-75889048D01*
X87982963Y-75943226D01*
X87929934Y-75997365D01*
X87875281Y-76051434D01*
X87818983Y-76105401D01*
X87701507Y-76212860D01*
X87578005Y-76319285D01*
X87449107Y-76424179D01*
X87315445Y-76527046D01*
X87177649Y-76627389D01*
X87036349Y-76724713D01*
X86892177Y-76818521D01*
X86745762Y-76908316D01*
X86597948Y-76993538D01*
X86450431Y-77073377D01*
X86305115Y-77146961D01*
X86163907Y-77213417D01*
X86028713Y-77271873D01*
X85901437Y-77321457D01*
X85783987Y-77361296D01*
X85729541Y-77377288D01*
X85678267Y-77390517D01*
X85630341Y-77400929D01*
X85585699Y-77408693D01*
X85544214Y-77414030D01*
X85505762Y-77417164D01*
X85470215Y-77418319D01*
X85437448Y-77417717D01*
X85407336Y-77415582D01*
X85379753Y-77412136D01*
X85354572Y-77407602D01*
X85331667Y-77402205D01*
X85310914Y-77396166D01*
X85292186Y-77389710D01*
X85260302Y-77376435D01*
X85235008Y-77364166D01*
X85215310Y-77354223D01*
X85207266Y-77349974D01*
X85200270Y-77346037D01*
X85194207Y-77342280D01*
X85188962Y-77338575D01*
X85186609Y-77336701D01*
X85184417Y-77334793D01*
X85182372Y-77332832D01*
X85180458Y-77330804D01*
X85178662Y-77328692D01*
X85176969Y-77326480D01*
X85175365Y-77324152D01*
X85173835Y-77321691D01*
X85170938Y-77316308D01*
X85168164Y-77310203D01*
X85165397Y-77303244D01*
X85162520Y-77295305D01*
X85155977Y-77275965D01*
X85155980Y-77275961D01*
X85117035Y-77158702D01*
X85095738Y-77093790D01*
X85078091Y-77038863D01*
X85074670Y-77027871D01*
X85071717Y-77017927D01*
X85069244Y-77008793D01*
X85067263Y-77000227D01*
X85065785Y-76991991D01*
X85064822Y-76983844D01*
X85064386Y-76975545D01*
X85064488Y-76966856D01*
X85065141Y-76957536D01*
X85066356Y-76947345D01*
X85068145Y-76936043D01*
X85070519Y-76923390D01*
X85073491Y-76909147D01*
X85077072Y-76893072D01*
X85086107Y-76854471D01*
X85112325Y-76748377D01*
X85130139Y-76682043D01*
X85151536Y-76607924D01*
X85176853Y-76526825D01*
X85206425Y-76439552D01*
X85222911Y-76393852D01*
X85240587Y-76346910D01*
X85259495Y-76298827D01*
X85279676Y-76249704D01*
X85324073Y-76148598D01*
X85374350Y-76043694D01*
X85431122Y-75934953D01*
X85495008Y-75822332D01*
X85529812Y-75764555D01*
X85566626Y-75705793D01*
X85605527Y-75646040D01*
X85646593Y-75585293D01*
X85689901Y-75523546D01*
X85735527Y-75460794D01*
X85783549Y-75397031D01*
X85834045Y-75332253D01*
X85942411Y-75199915D01*
X86059488Y-75065162D01*
X86183787Y-74929659D01*
X86313816Y-74795068D01*
X86448087Y-74663055D01*
X86585110Y-74535283D01*
X86723395Y-74413417D01*
X86861453Y-74299120D01*
X86929943Y-74245290D01*
X86997893Y-74193734D01*
X87131728Y-74097300D01*
X87262073Y-74009538D01*
X87388042Y-73930164D01*
X87508749Y-73858898D01*
X87623309Y-73795457D01*
X87730836Y-73739558D01*
X87830445Y-73690921D01*
X87921512Y-73649222D01*
X88004472Y-73613966D01*
X88080022Y-73584616D01*
X88148861Y-73560635D01*
X88211686Y-73541486D01*
X88269197Y-73526632D01*
X88322091Y-73515537D01*
X88371065Y-73507663D01*
X88394294Y-73504777D01*
X88416764Y-73502551D01*
X88438523Y-73500971D01*
X88459617Y-73500028D01*
X88480094Y-73499708D01*
X88500000Y-73500000D01*
G37*
X88888774Y-76268025D02*
X88907385Y-76271926D01*
X88919250Y-76277386D01*
X88934143Y-76286565D01*
X88976981Y-76320210D01*
X89043831Y-76381130D01*
X89142627Y-76477592D01*
X89281301Y-76617865D01*
X89467785Y-76810218D01*
X89710013Y-77062917D01*
X91137436Y-78572518D01*
X91908917Y-79398083D01*
X92545967Y-80089004D01*
X92669496Y-80225288D01*
X92777314Y-80345939D01*
X92870224Y-80452265D01*
X92911338Y-80500464D01*
X92949024Y-80545572D01*
X92983384Y-80587752D01*
X93014516Y-80627168D01*
X93042521Y-80663982D01*
X93067500Y-80698359D01*
X93089551Y-80730461D01*
X93108775Y-80760453D01*
X93125272Y-80788497D01*
X93139143Y-80814757D01*
X93150487Y-80839395D01*
X93159404Y-80862577D01*
X93165994Y-80884465D01*
X93170357Y-80905221D01*
X93172594Y-80925011D01*
X93172804Y-80943997D01*
X93171088Y-80962342D01*
X93167545Y-80980210D01*
X93162276Y-80997764D01*
X93155380Y-81015168D01*
X93146958Y-81032586D01*
X93137110Y-81050179D01*
X93125935Y-81068112D01*
X93113534Y-81086549D01*
X93085453Y-81125585D01*
X93018493Y-81214414D01*
X92940205Y-81314771D01*
X92854079Y-81422296D01*
X92763604Y-81532626D01*
X92672270Y-81641398D01*
X92583566Y-81744252D01*
X92500982Y-81836824D01*
X92428008Y-81914752D01*
X92395934Y-81946821D01*
X92365882Y-81973343D01*
X92336599Y-81993523D01*
X92321853Y-82000986D01*
X92306830Y-82006565D01*
X92291372Y-82010161D01*
X92275324Y-82011675D01*
X92258527Y-82011006D01*
X92240825Y-82008056D01*
X92222063Y-82002726D01*
X92202082Y-81994914D01*
X92180727Y-81984524D01*
X92157841Y-81971454D01*
X92106848Y-81936880D01*
X92047851Y-81890396D01*
X91979595Y-81831209D01*
X91900828Y-81758521D01*
X91810296Y-81671538D01*
X91706746Y-81569466D01*
X91455579Y-81316868D01*
X89967870Y-79799235D01*
X88494765Y-78288476D01*
X88494761Y-78288476D01*
X88252014Y-78039274D01*
X88069426Y-77851640D01*
X87997949Y-77778038D01*
X87938221Y-77716381D01*
X87889143Y-77665518D01*
X87849619Y-77624301D01*
X87833097Y-77606950D01*
X87818552Y-77591580D01*
X87805846Y-77578046D01*
X87794843Y-77566206D01*
X87785406Y-77555915D01*
X87777396Y-77547030D01*
X87770678Y-77539407D01*
X87765114Y-77532902D01*
X87760567Y-77527373D01*
X87756899Y-77522674D01*
X87753974Y-77518663D01*
X87751654Y-77515195D01*
X87749803Y-77512128D01*
X87748282Y-77509317D01*
X87746955Y-77506619D01*
X87745685Y-77503890D01*
X87739976Y-77491410D01*
X87733478Y-77476635D01*
X87726687Y-77460061D01*
X87720094Y-77442185D01*
X87717027Y-77432914D01*
X87714195Y-77423503D01*
X87711660Y-77414016D01*
X87709484Y-77404513D01*
X87707727Y-77395057D01*
X87706453Y-77385709D01*
X87705723Y-77376533D01*
X87705598Y-77367590D01*
X87706178Y-77358896D01*
X87707607Y-77350274D01*
X87710063Y-77341501D01*
X87713723Y-77332353D01*
X87718766Y-77322608D01*
X87725369Y-77312043D01*
X87733710Y-77300434D01*
X87743967Y-77287558D01*
X87756319Y-77273192D01*
X87770942Y-77257113D01*
X87807714Y-77218924D01*
X87855708Y-77171205D01*
X87916347Y-77112171D01*
X88074766Y-76959853D01*
X88261963Y-76781873D01*
X88450449Y-76604966D01*
X88612737Y-76455868D01*
X88646101Y-76425974D01*
X88676322Y-76399314D01*
X88703614Y-76375715D01*
X88728189Y-76355002D01*
X88750261Y-76337000D01*
X88770042Y-76321535D01*
X88787746Y-76308432D01*
X88795886Y-76302712D01*
X88803587Y-76297517D01*
X88810874Y-76292825D01*
X88817776Y-76288615D01*
X88824318Y-76284865D01*
X88830527Y-76281553D01*
X88836430Y-76278657D01*
X88842053Y-76276155D01*
X88847424Y-76274025D01*
X88852568Y-76272247D01*
X88857513Y-76270797D01*
X88862285Y-76269654D01*
X88866910Y-76268797D01*
X88871416Y-76268203D01*
X88875828Y-76267850D01*
X88880174Y-76267718D01*
X88888774Y-76268025D01*
G36*
X88888774Y-76268025D02*
G01*
X88907385Y-76271926D01*
X88919250Y-76277386D01*
X88934143Y-76286565D01*
X88976981Y-76320210D01*
X89043831Y-76381130D01*
X89142627Y-76477592D01*
X89281301Y-76617865D01*
X89467785Y-76810218D01*
X89710013Y-77062917D01*
X91137436Y-78572518D01*
X91908917Y-79398083D01*
X92545967Y-80089004D01*
X92669496Y-80225288D01*
X92777314Y-80345939D01*
X92870224Y-80452265D01*
X92911338Y-80500464D01*
X92949024Y-80545572D01*
X92983384Y-80587752D01*
X93014516Y-80627168D01*
X93042521Y-80663982D01*
X93067500Y-80698359D01*
X93089551Y-80730461D01*
X93108775Y-80760453D01*
X93125272Y-80788497D01*
X93139143Y-80814757D01*
X93150487Y-80839395D01*
X93159404Y-80862577D01*
X93165994Y-80884465D01*
X93170357Y-80905221D01*
X93172594Y-80925011D01*
X93172804Y-80943997D01*
X93171088Y-80962342D01*
X93167545Y-80980210D01*
X93162276Y-80997764D01*
X93155380Y-81015168D01*
X93146958Y-81032586D01*
X93137110Y-81050179D01*
X93125935Y-81068112D01*
X93113534Y-81086549D01*
X93085453Y-81125585D01*
X93018493Y-81214414D01*
X92940205Y-81314771D01*
X92854079Y-81422296D01*
X92763604Y-81532626D01*
X92672270Y-81641398D01*
X92583566Y-81744252D01*
X92500982Y-81836824D01*
X92428008Y-81914752D01*
X92395934Y-81946821D01*
X92365882Y-81973343D01*
X92336599Y-81993523D01*
X92321853Y-82000986D01*
X92306830Y-82006565D01*
X92291372Y-82010161D01*
X92275324Y-82011675D01*
X92258527Y-82011006D01*
X92240825Y-82008056D01*
X92222063Y-82002726D01*
X92202082Y-81994914D01*
X92180727Y-81984524D01*
X92157841Y-81971454D01*
X92106848Y-81936880D01*
X92047851Y-81890396D01*
X91979595Y-81831209D01*
X91900828Y-81758521D01*
X91810296Y-81671538D01*
X91706746Y-81569466D01*
X91455579Y-81316868D01*
X89967870Y-79799235D01*
X88494765Y-78288476D01*
X88494761Y-78288476D01*
X88252014Y-78039274D01*
X88069426Y-77851640D01*
X87997949Y-77778038D01*
X87938221Y-77716381D01*
X87889143Y-77665518D01*
X87849619Y-77624301D01*
X87833097Y-77606950D01*
X87818552Y-77591580D01*
X87805846Y-77578046D01*
X87794843Y-77566206D01*
X87785406Y-77555915D01*
X87777396Y-77547030D01*
X87770678Y-77539407D01*
X87765114Y-77532902D01*
X87760567Y-77527373D01*
X87756899Y-77522674D01*
X87753974Y-77518663D01*
X87751654Y-77515195D01*
X87749803Y-77512128D01*
X87748282Y-77509317D01*
X87746955Y-77506619D01*
X87745685Y-77503890D01*
X87739976Y-77491410D01*
X87733478Y-77476635D01*
X87726687Y-77460061D01*
X87720094Y-77442185D01*
X87717027Y-77432914D01*
X87714195Y-77423503D01*
X87711660Y-77414016D01*
X87709484Y-77404513D01*
X87707727Y-77395057D01*
X87706453Y-77385709D01*
X87705723Y-77376533D01*
X87705598Y-77367590D01*
X87706178Y-77358896D01*
X87707607Y-77350274D01*
X87710063Y-77341501D01*
X87713723Y-77332353D01*
X87718766Y-77322608D01*
X87725369Y-77312043D01*
X87733710Y-77300434D01*
X87743967Y-77287558D01*
X87756319Y-77273192D01*
X87770942Y-77257113D01*
X87807714Y-77218924D01*
X87855708Y-77171205D01*
X87916347Y-77112171D01*
X88074766Y-76959853D01*
X88261963Y-76781873D01*
X88450449Y-76604966D01*
X88612737Y-76455868D01*
X88646101Y-76425974D01*
X88676322Y-76399314D01*
X88703614Y-76375715D01*
X88728189Y-76355002D01*
X88750261Y-76337000D01*
X88770042Y-76321535D01*
X88787746Y-76308432D01*
X88795886Y-76302712D01*
X88803587Y-76297517D01*
X88810874Y-76292825D01*
X88817776Y-76288615D01*
X88824318Y-76284865D01*
X88830527Y-76281553D01*
X88836430Y-76278657D01*
X88842053Y-76276155D01*
X88847424Y-76274025D01*
X88852568Y-76272247D01*
X88857513Y-76270797D01*
X88862285Y-76269654D01*
X88866910Y-76268797D01*
X88871416Y-76268203D01*
X88875828Y-76267850D01*
X88880174Y-76267718D01*
X88888774Y-76268025D01*
G37*
X110100690Y-72352355D02*
X110117010Y-72352504D01*
X110167687Y-72353099D01*
X110167691Y-72353107D01*
X110247490Y-72354449D01*
X110296243Y-72355868D01*
X110349089Y-72358087D01*
X110404674Y-72361331D01*
X110461642Y-72365824D01*
X110518637Y-72371791D01*
X110574303Y-72379458D01*
X110601255Y-72383995D01*
X110627609Y-72389011D01*
X110653439Y-72394504D01*
X110678820Y-72400470D01*
X110703825Y-72406906D01*
X110728528Y-72413808D01*
X110777323Y-72428997D01*
X110825796Y-72446012D01*
X110874538Y-72464825D01*
X110924139Y-72485410D01*
X110975191Y-72507741D01*
X111028275Y-72531865D01*
X111083948Y-72558137D01*
X111142763Y-72586986D01*
X111205269Y-72618842D01*
X111272017Y-72654134D01*
X111343556Y-72693292D01*
X111420437Y-72736746D01*
X111503210Y-72784924D01*
X111592115Y-72838062D01*
X111686133Y-72895616D01*
X111783935Y-72956847D01*
X111884194Y-73021017D01*
X111985580Y-73087388D01*
X112086764Y-73155223D01*
X112186419Y-73223783D01*
X112283215Y-73292330D01*
X112376120Y-73360318D01*
X112465279Y-73427970D01*
X112551135Y-73495701D01*
X112634132Y-73563930D01*
X112714713Y-73633071D01*
X112793321Y-73703541D01*
X112870398Y-73775756D01*
X112946389Y-73850133D01*
X113021600Y-73926955D01*
X113095790Y-74005978D01*
X113168585Y-74086826D01*
X113239607Y-74169123D01*
X113308482Y-74252494D01*
X113374833Y-74336563D01*
X113438285Y-74420955D01*
X113498463Y-74505293D01*
X113555027Y-74589227D01*
X113607793Y-74672502D01*
X113656612Y-74754891D01*
X113701338Y-74836165D01*
X113741822Y-74916097D01*
X113777918Y-74994459D01*
X113809476Y-75071023D01*
X113823508Y-75108559D01*
X113836350Y-75145560D01*
X113847994Y-75181994D01*
X113858464Y-75217816D01*
X113867798Y-75252976D01*
X113876028Y-75287427D01*
X113883192Y-75321119D01*
X113889323Y-75354004D01*
X113894458Y-75386033D01*
X113898632Y-75417158D01*
X113901879Y-75447331D01*
X113904235Y-75476501D01*
X113905735Y-75504621D01*
X113906415Y-75531643D01*
X113906310Y-75557516D01*
X113905454Y-75582194D01*
X113903884Y-75605626D01*
X113901635Y-75627766D01*
X113898738Y-75648586D01*
X113895226Y-75668152D01*
X113891128Y-75686554D01*
X113886471Y-75703881D01*
X113881284Y-75720221D01*
X113875596Y-75735663D01*
X113869435Y-75750296D01*
X113862830Y-75764210D01*
X113855809Y-75777493D01*
X113848400Y-75790234D01*
X113840633Y-75802522D01*
X113832535Y-75814445D01*
X113815460Y-75837556D01*
X113797406Y-75860277D01*
X113778530Y-75883134D01*
X113758714Y-75905896D01*
X113748395Y-75917112D01*
X113737771Y-75928148D01*
X113726818Y-75938952D01*
X113715513Y-75949473D01*
X113703832Y-75959658D01*
X113691751Y-75969456D01*
X113679248Y-75978814D01*
X113666298Y-75987681D01*
X113652878Y-75996004D01*
X113638965Y-76003731D01*
X113624536Y-76010812D01*
X113609566Y-76017192D01*
X113594033Y-76022834D01*
X113577922Y-76027747D01*
X113561216Y-76031955D01*
X113543902Y-76035483D01*
X113525964Y-76038352D01*
X113507386Y-76040588D01*
X113488154Y-76042212D01*
X113468253Y-76043250D01*
X113447667Y-76043723D01*
X113426382Y-76043656D01*
X113404381Y-76043073D01*
X113381651Y-76041996D01*
X113358176Y-76040449D01*
X113333941Y-76038456D01*
X113283129Y-76033224D01*
X113229113Y-76026413D01*
X113171849Y-76017816D01*
X113111310Y-76007152D01*
X113047469Y-75994138D01*
X112980299Y-75978494D01*
X112909773Y-75959937D01*
X112835864Y-75938186D01*
X112758545Y-75912959D01*
X112677814Y-75883993D01*
X112593769Y-75851108D01*
X112506530Y-75814143D01*
X112416218Y-75772936D01*
X112322953Y-75727327D01*
X112226855Y-75677154D01*
X112128045Y-75622256D01*
X112026644Y-75562472D01*
X111922773Y-75497654D01*
X111816555Y-75427710D01*
X111708108Y-75352558D01*
X111597555Y-75272117D01*
X111485014Y-75186308D01*
X111370608Y-75095049D01*
X111254456Y-74998259D01*
X111136679Y-74895858D01*
X111017602Y-74788086D01*
X110898351Y-74676462D01*
X110780255Y-74562825D01*
X110664641Y-74449014D01*
X110446179Y-74228225D01*
X110253594Y-74028804D01*
X110170043Y-73941115D01*
X110095245Y-73860755D01*
X110028822Y-73786033D01*
X109998634Y-73750257D01*
X109970399Y-73715257D01*
X109944070Y-73680820D01*
X109919600Y-73646736D01*
X109896942Y-73612792D01*
X109876049Y-73578778D01*
X109856875Y-73544482D01*
X109839371Y-73509692D01*
X109823491Y-73474198D01*
X109809189Y-73437787D01*
X109796414Y-73400314D01*
X109785104Y-73361887D01*
X109775198Y-73322682D01*
X109766631Y-73282873D01*
X109759339Y-73242635D01*
X109753258Y-73202142D01*
X109748325Y-73161569D01*
X109744476Y-73121089D01*
X109741647Y-73080878D01*
X109739774Y-73041110D01*
X109738643Y-72963600D01*
X109740572Y-72889956D01*
X109745051Y-72821574D01*
X109748093Y-72789755D01*
X109751614Y-72759551D01*
X109755580Y-72730915D01*
X109759961Y-72703797D01*
X109764724Y-72678148D01*
X109769837Y-72653921D01*
X109775269Y-72631066D01*
X109780988Y-72609535D01*
X109786962Y-72589279D01*
X109793158Y-72570250D01*
X109806094Y-72535676D01*
X109819541Y-72505424D01*
X109833243Y-72479105D01*
X109840116Y-72467300D01*
X109846997Y-72456345D01*
X109853890Y-72446202D01*
X109860804Y-72436833D01*
X109867744Y-72428203D01*
X109874718Y-72420275D01*
X109881733Y-72413010D01*
X109888794Y-72406373D01*
X109895909Y-72400327D01*
X109903084Y-72394834D01*
X109910327Y-72389858D01*
X109917644Y-72385362D01*
X109925041Y-72381308D01*
X109932525Y-72377661D01*
X109940104Y-72374382D01*
X109947783Y-72371436D01*
X109955562Y-72368788D01*
X109963407Y-72366419D01*
X109971280Y-72364312D01*
X109979139Y-72362450D01*
X109986944Y-72360817D01*
X109994655Y-72359395D01*
X110009634Y-72357119D01*
X110023753Y-72355486D01*
X110036691Y-72354361D01*
X110057736Y-72353099D01*
X110065469Y-72352752D01*
X110072342Y-72352504D01*
X110079645Y-72352355D01*
X110088664Y-72352306D01*
X110100690Y-72352355D01*
G36*
X110100690Y-72352355D02*
G01*
X110117010Y-72352504D01*
X110167687Y-72353099D01*
X110167691Y-72353107D01*
X110247490Y-72354449D01*
X110296243Y-72355868D01*
X110349089Y-72358087D01*
X110404674Y-72361331D01*
X110461642Y-72365824D01*
X110518637Y-72371791D01*
X110574303Y-72379458D01*
X110601255Y-72383995D01*
X110627609Y-72389011D01*
X110653439Y-72394504D01*
X110678820Y-72400470D01*
X110703825Y-72406906D01*
X110728528Y-72413808D01*
X110777323Y-72428997D01*
X110825796Y-72446012D01*
X110874538Y-72464825D01*
X110924139Y-72485410D01*
X110975191Y-72507741D01*
X111028275Y-72531865D01*
X111083948Y-72558137D01*
X111142763Y-72586986D01*
X111205269Y-72618842D01*
X111272017Y-72654134D01*
X111343556Y-72693292D01*
X111420437Y-72736746D01*
X111503210Y-72784924D01*
X111592115Y-72838062D01*
X111686133Y-72895616D01*
X111783935Y-72956847D01*
X111884194Y-73021017D01*
X111985580Y-73087388D01*
X112086764Y-73155223D01*
X112186419Y-73223783D01*
X112283215Y-73292330D01*
X112376120Y-73360318D01*
X112465279Y-73427970D01*
X112551135Y-73495701D01*
X112634132Y-73563930D01*
X112714713Y-73633071D01*
X112793321Y-73703541D01*
X112870398Y-73775756D01*
X112946389Y-73850133D01*
X113021600Y-73926955D01*
X113095790Y-74005978D01*
X113168585Y-74086826D01*
X113239607Y-74169123D01*
X113308482Y-74252494D01*
X113374833Y-74336563D01*
X113438285Y-74420955D01*
X113498463Y-74505293D01*
X113555027Y-74589227D01*
X113607793Y-74672502D01*
X113656612Y-74754891D01*
X113701338Y-74836165D01*
X113741822Y-74916097D01*
X113777918Y-74994459D01*
X113809476Y-75071023D01*
X113823508Y-75108559D01*
X113836350Y-75145560D01*
X113847994Y-75181994D01*
X113858464Y-75217816D01*
X113867798Y-75252976D01*
X113876028Y-75287427D01*
X113883192Y-75321119D01*
X113889323Y-75354004D01*
X113894458Y-75386033D01*
X113898632Y-75417158D01*
X113901879Y-75447331D01*
X113904235Y-75476501D01*
X113905735Y-75504621D01*
X113906415Y-75531643D01*
X113906310Y-75557516D01*
X113905454Y-75582194D01*
X113903884Y-75605626D01*
X113901635Y-75627766D01*
X113898738Y-75648586D01*
X113895226Y-75668152D01*
X113891128Y-75686554D01*
X113886471Y-75703881D01*
X113881284Y-75720221D01*
X113875596Y-75735663D01*
X113869435Y-75750296D01*
X113862830Y-75764210D01*
X113855809Y-75777493D01*
X113848400Y-75790234D01*
X113840633Y-75802522D01*
X113832535Y-75814445D01*
X113815460Y-75837556D01*
X113797406Y-75860277D01*
X113778530Y-75883134D01*
X113758714Y-75905896D01*
X113748395Y-75917112D01*
X113737771Y-75928148D01*
X113726818Y-75938952D01*
X113715513Y-75949473D01*
X113703832Y-75959658D01*
X113691751Y-75969456D01*
X113679248Y-75978814D01*
X113666298Y-75987681D01*
X113652878Y-75996004D01*
X113638965Y-76003731D01*
X113624536Y-76010812D01*
X113609566Y-76017192D01*
X113594033Y-76022834D01*
X113577922Y-76027747D01*
X113561216Y-76031955D01*
X113543902Y-76035483D01*
X113525964Y-76038352D01*
X113507386Y-76040588D01*
X113488154Y-76042212D01*
X113468253Y-76043250D01*
X113447667Y-76043723D01*
X113426382Y-76043656D01*
X113404381Y-76043073D01*
X113381651Y-76041996D01*
X113358176Y-76040449D01*
X113333941Y-76038456D01*
X113283129Y-76033224D01*
X113229113Y-76026413D01*
X113171849Y-76017816D01*
X113111310Y-76007152D01*
X113047469Y-75994138D01*
X112980299Y-75978494D01*
X112909773Y-75959937D01*
X112835864Y-75938186D01*
X112758545Y-75912959D01*
X112677814Y-75883993D01*
X112593769Y-75851108D01*
X112506530Y-75814143D01*
X112416218Y-75772936D01*
X112322953Y-75727327D01*
X112226855Y-75677154D01*
X112128045Y-75622256D01*
X112026644Y-75562472D01*
X111922773Y-75497654D01*
X111816555Y-75427710D01*
X111708108Y-75352558D01*
X111597555Y-75272117D01*
X111485014Y-75186308D01*
X111370608Y-75095049D01*
X111254456Y-74998259D01*
X111136679Y-74895858D01*
X111017602Y-74788086D01*
X110898351Y-74676462D01*
X110780255Y-74562825D01*
X110664641Y-74449014D01*
X110446179Y-74228225D01*
X110253594Y-74028804D01*
X110170043Y-73941115D01*
X110095245Y-73860755D01*
X110028822Y-73786033D01*
X109998634Y-73750257D01*
X109970399Y-73715257D01*
X109944070Y-73680820D01*
X109919600Y-73646736D01*
X109896942Y-73612792D01*
X109876049Y-73578778D01*
X109856875Y-73544482D01*
X109839371Y-73509692D01*
X109823491Y-73474198D01*
X109809189Y-73437787D01*
X109796414Y-73400314D01*
X109785104Y-73361887D01*
X109775198Y-73322682D01*
X109766631Y-73282873D01*
X109759339Y-73242635D01*
X109753258Y-73202142D01*
X109748325Y-73161569D01*
X109744476Y-73121089D01*
X109741647Y-73080878D01*
X109739774Y-73041110D01*
X109738643Y-72963600D01*
X109740572Y-72889956D01*
X109745051Y-72821574D01*
X109748093Y-72789755D01*
X109751614Y-72759551D01*
X109755580Y-72730915D01*
X109759961Y-72703797D01*
X109764724Y-72678148D01*
X109769837Y-72653921D01*
X109775269Y-72631066D01*
X109780988Y-72609535D01*
X109786962Y-72589279D01*
X109793158Y-72570250D01*
X109806094Y-72535676D01*
X109819541Y-72505424D01*
X109833243Y-72479105D01*
X109840116Y-72467300D01*
X109846997Y-72456345D01*
X109853890Y-72446202D01*
X109860804Y-72436833D01*
X109867744Y-72428203D01*
X109874718Y-72420275D01*
X109881733Y-72413010D01*
X109888794Y-72406373D01*
X109895909Y-72400327D01*
X109903084Y-72394834D01*
X109910327Y-72389858D01*
X109917644Y-72385362D01*
X109925041Y-72381308D01*
X109932525Y-72377661D01*
X109940104Y-72374382D01*
X109947783Y-72371436D01*
X109955562Y-72368788D01*
X109963407Y-72366419D01*
X109971280Y-72364312D01*
X109979139Y-72362450D01*
X109986944Y-72360817D01*
X109994655Y-72359395D01*
X110009634Y-72357119D01*
X110023753Y-72355486D01*
X110036691Y-72354361D01*
X110057736Y-72353099D01*
X110065469Y-72352752D01*
X110072342Y-72352504D01*
X110079645Y-72352355D01*
X110088664Y-72352306D01*
X110100690Y-72352355D01*
G37*
X110105410Y-75180172D02*
X110112725Y-75180681D01*
X110119907Y-75181608D01*
X110133938Y-75184654D01*
X110147641Y-75189184D01*
X110161153Y-75195076D01*
X110174612Y-75202205D01*
X110188158Y-75210447D01*
X110201926Y-75219678D01*
X110230687Y-75240612D01*
X110295085Y-75289887D01*
X110367254Y-75347026D01*
X110444766Y-75410017D01*
X110525190Y-75476847D01*
X110606097Y-75545503D01*
X110685059Y-75613970D01*
X110759646Y-75680237D01*
X110827429Y-75742289D01*
X110858073Y-75771157D01*
X110886485Y-75798524D01*
X110912743Y-75824443D01*
X110936923Y-75848972D01*
X110959104Y-75872166D01*
X110979362Y-75894079D01*
X110997774Y-75914767D01*
X111014418Y-75934286D01*
X111029371Y-75952690D01*
X111042709Y-75970036D01*
X111054510Y-75986379D01*
X111064851Y-76001774D01*
X111073809Y-76016276D01*
X111081462Y-76029941D01*
X111087886Y-76042824D01*
X111093159Y-76054980D01*
X111097206Y-76066649D01*
X111099335Y-76078799D01*
X111098702Y-76092583D01*
X111094464Y-76109154D01*
X111085777Y-76129665D01*
X111071796Y-76155268D01*
X111051678Y-76187115D01*
X111024578Y-76226360D01*
X110946060Y-76331653D01*
X110829488Y-76480368D01*
X110455181Y-76944945D01*
X107905571Y-80076404D01*
X107692132Y-80337309D01*
X107604224Y-80443095D01*
X107527228Y-80533585D01*
X107492441Y-80573362D01*
X107459924Y-80609638D01*
X107429524Y-80642520D01*
X107401090Y-80672116D01*
X107374467Y-80698533D01*
X107349503Y-80721879D01*
X107326047Y-80742261D01*
X107303944Y-80759788D01*
X107283043Y-80774566D01*
X107263190Y-80786704D01*
X107244233Y-80796308D01*
X107226020Y-80803487D01*
X107217145Y-80806201D01*
X107208397Y-80808348D01*
X107199760Y-80809943D01*
X107191213Y-80810999D01*
X107182737Y-80811529D01*
X107174313Y-80811546D01*
X107157547Y-80810099D01*
X107140760Y-80806764D01*
X107123800Y-80801649D01*
X107106515Y-80794861D01*
X107088752Y-80786509D01*
X107070358Y-80776699D01*
X107051181Y-80765540D01*
X107009865Y-80739602D01*
X106913590Y-80675779D01*
X106802536Y-80599486D01*
X106556441Y-80425333D01*
X106110743Y-80101620D01*
X106110728Y-80101616D01*
X106037355Y-80047905D01*
X106007665Y-80026126D01*
X105982204Y-80007389D01*
X105960644Y-79991437D01*
X105951224Y-79984425D01*
X105942658Y-79978013D01*
X105934903Y-79972169D01*
X105927918Y-79966862D01*
X105921664Y-79962057D01*
X105916098Y-79957725D01*
X105911181Y-79953832D01*
X105906871Y-79950347D01*
X105903127Y-79947237D01*
X105899909Y-79944470D01*
X105897175Y-79942015D01*
X105895978Y-79940894D01*
X105894885Y-79939839D01*
X105893894Y-79938846D01*
X105892998Y-79937910D01*
X105892193Y-79937028D01*
X105891473Y-79936196D01*
X105890833Y-79935410D01*
X105890268Y-79934665D01*
X105889773Y-79933958D01*
X105889344Y-79933284D01*
X105888974Y-79932641D01*
X105888658Y-79932023D01*
X105888393Y-79931427D01*
X105888171Y-79930848D01*
X105887990Y-79930283D01*
X105887842Y-79929727D01*
X105887629Y-79928629D01*
X105887491Y-79927522D01*
X105887389Y-79926372D01*
X105886935Y-79921068D01*
X105886536Y-79914649D01*
X105886351Y-79907184D01*
X105886542Y-79898738D01*
X105886828Y-79894169D01*
X105887268Y-79889380D01*
X105887883Y-79884380D01*
X105888691Y-79879176D01*
X105889714Y-79873778D01*
X105890971Y-79868194D01*
X105892482Y-79862432D01*
X105894268Y-79856501D01*
X105899987Y-79842690D01*
X105914456Y-79819456D01*
X105945247Y-79778022D01*
X105999929Y-79709608D01*
X106211251Y-79456729D01*
X106608984Y-78990593D01*
X107962244Y-77423583D01*
X108703839Y-76575380D01*
X109325821Y-75876317D01*
X109448810Y-75741213D01*
X109557788Y-75623452D01*
X109607369Y-75570766D01*
X109653861Y-75522044D01*
X109697402Y-75477163D01*
X109738131Y-75435997D01*
X109776186Y-75398424D01*
X109811704Y-75364319D01*
X109844824Y-75333558D01*
X109875683Y-75306018D01*
X109904419Y-75281574D01*
X109931171Y-75260103D01*
X109956077Y-75241480D01*
X109979274Y-75225582D01*
X110000901Y-75212284D01*
X110021095Y-75201464D01*
X110039995Y-75192996D01*
X110049003Y-75189605D01*
X110057739Y-75186756D01*
X110066220Y-75184434D01*
X110074463Y-75182622D01*
X110082487Y-75181305D01*
X110090308Y-75180468D01*
X110097943Y-75180096D01*
X110105410Y-75180172D01*
G36*
X110105410Y-75180172D02*
G01*
X110112725Y-75180681D01*
X110119907Y-75181608D01*
X110133938Y-75184654D01*
X110147641Y-75189184D01*
X110161153Y-75195076D01*
X110174612Y-75202205D01*
X110188158Y-75210447D01*
X110201926Y-75219678D01*
X110230687Y-75240612D01*
X110295085Y-75289887D01*
X110367254Y-75347026D01*
X110444766Y-75410017D01*
X110525190Y-75476847D01*
X110606097Y-75545503D01*
X110685059Y-75613970D01*
X110759646Y-75680237D01*
X110827429Y-75742289D01*
X110858073Y-75771157D01*
X110886485Y-75798524D01*
X110912743Y-75824443D01*
X110936923Y-75848972D01*
X110959104Y-75872166D01*
X110979362Y-75894079D01*
X110997774Y-75914767D01*
X111014418Y-75934286D01*
X111029371Y-75952690D01*
X111042709Y-75970036D01*
X111054510Y-75986379D01*
X111064851Y-76001774D01*
X111073809Y-76016276D01*
X111081462Y-76029941D01*
X111087886Y-76042824D01*
X111093159Y-76054980D01*
X111097206Y-76066649D01*
X111099335Y-76078799D01*
X111098702Y-76092583D01*
X111094464Y-76109154D01*
X111085777Y-76129665D01*
X111071796Y-76155268D01*
X111051678Y-76187115D01*
X111024578Y-76226360D01*
X110946060Y-76331653D01*
X110829488Y-76480368D01*
X110455181Y-76944945D01*
X107905571Y-80076404D01*
X107692132Y-80337309D01*
X107604224Y-80443095D01*
X107527228Y-80533585D01*
X107492441Y-80573362D01*
X107459924Y-80609638D01*
X107429524Y-80642520D01*
X107401090Y-80672116D01*
X107374467Y-80698533D01*
X107349503Y-80721879D01*
X107326047Y-80742261D01*
X107303944Y-80759788D01*
X107283043Y-80774566D01*
X107263190Y-80786704D01*
X107244233Y-80796308D01*
X107226020Y-80803487D01*
X107217145Y-80806201D01*
X107208397Y-80808348D01*
X107199760Y-80809943D01*
X107191213Y-80810999D01*
X107182737Y-80811529D01*
X107174313Y-80811546D01*
X107157547Y-80810099D01*
X107140760Y-80806764D01*
X107123800Y-80801649D01*
X107106515Y-80794861D01*
X107088752Y-80786509D01*
X107070358Y-80776699D01*
X107051181Y-80765540D01*
X107009865Y-80739602D01*
X106913590Y-80675779D01*
X106802536Y-80599486D01*
X106556441Y-80425333D01*
X106110743Y-80101620D01*
X106110728Y-80101616D01*
X106037355Y-80047905D01*
X106007665Y-80026126D01*
X105982204Y-80007389D01*
X105960644Y-79991437D01*
X105951224Y-79984425D01*
X105942658Y-79978013D01*
X105934903Y-79972169D01*
X105927918Y-79966862D01*
X105921664Y-79962057D01*
X105916098Y-79957725D01*
X105911181Y-79953832D01*
X105906871Y-79950347D01*
X105903127Y-79947237D01*
X105899909Y-79944470D01*
X105897175Y-79942015D01*
X105895978Y-79940894D01*
X105894885Y-79939839D01*
X105893894Y-79938846D01*
X105892998Y-79937910D01*
X105892193Y-79937028D01*
X105891473Y-79936196D01*
X105890833Y-79935410D01*
X105890268Y-79934665D01*
X105889773Y-79933958D01*
X105889344Y-79933284D01*
X105888974Y-79932641D01*
X105888658Y-79932023D01*
X105888393Y-79931427D01*
X105888171Y-79930848D01*
X105887990Y-79930283D01*
X105887842Y-79929727D01*
X105887629Y-79928629D01*
X105887491Y-79927522D01*
X105887389Y-79926372D01*
X105886935Y-79921068D01*
X105886536Y-79914649D01*
X105886351Y-79907184D01*
X105886542Y-79898738D01*
X105886828Y-79894169D01*
X105887268Y-79889380D01*
X105887883Y-79884380D01*
X105888691Y-79879176D01*
X105889714Y-79873778D01*
X105890971Y-79868194D01*
X105892482Y-79862432D01*
X105894268Y-79856501D01*
X105899987Y-79842690D01*
X105914456Y-79819456D01*
X105945247Y-79778022D01*
X105999929Y-79709608D01*
X106211251Y-79456729D01*
X106608984Y-78990593D01*
X107962244Y-77423583D01*
X108703839Y-76575380D01*
X109325821Y-75876317D01*
X109448810Y-75741213D01*
X109557788Y-75623452D01*
X109607369Y-75570766D01*
X109653861Y-75522044D01*
X109697402Y-75477163D01*
X109738131Y-75435997D01*
X109776186Y-75398424D01*
X109811704Y-75364319D01*
X109844824Y-75333558D01*
X109875683Y-75306018D01*
X109904419Y-75281574D01*
X109931171Y-75260103D01*
X109956077Y-75241480D01*
X109979274Y-75225582D01*
X110000901Y-75212284D01*
X110021095Y-75201464D01*
X110039995Y-75192996D01*
X110049003Y-75189605D01*
X110057739Y-75186756D01*
X110066220Y-75184434D01*
X110074463Y-75182622D01*
X110082487Y-75181305D01*
X110090308Y-75180468D01*
X110097943Y-75180096D01*
X110105410Y-75180172D01*
G37*
X112305252Y-101343925D02*
X112312597Y-101344798D01*
X112326979Y-101348123D01*
X112341225Y-101353390D01*
X112355667Y-101360402D01*
X112370632Y-101368959D01*
X112386409Y-101378905D01*
X112403105Y-101390248D01*
X112420789Y-101403039D01*
X112439526Y-101417326D01*
X112459383Y-101433161D01*
X112480426Y-101450593D01*
X112502722Y-101469671D01*
X112526337Y-101490446D01*
X112577792Y-101537285D01*
X112635321Y-101591508D01*
X112699456Y-101653514D01*
X112770729Y-101723701D01*
X112934039Y-101887645D01*
X113115647Y-102073682D01*
X113303177Y-102269590D01*
X113484255Y-102463142D01*
X113568861Y-102555595D01*
X113649337Y-102645144D01*
X113726264Y-102732527D01*
X113800219Y-102818487D01*
X113871783Y-102903764D01*
X113941535Y-102989097D01*
X114010053Y-103075228D01*
X114077917Y-103162897D01*
X114145576Y-103252650D01*
X114212969Y-103344243D01*
X114279906Y-103437241D01*
X114346198Y-103531205D01*
X114476087Y-103720293D01*
X114601116Y-103908016D01*
X114719857Y-104091319D01*
X114831233Y-104268929D01*
X114883850Y-104355338D01*
X114934256Y-104440010D01*
X114982327Y-104522839D01*
X115027939Y-104603723D01*
X115070978Y-104682521D01*
X115111359Y-104758947D01*
X115149007Y-104832677D01*
X115183845Y-104903388D01*
X115215799Y-104970759D01*
X115244791Y-105034466D01*
X115270746Y-105094187D01*
X115293589Y-105149599D01*
X115313290Y-105200487D01*
X115330020Y-105247077D01*
X115343998Y-105289700D01*
X115355443Y-105328688D01*
X115364572Y-105364372D01*
X115371604Y-105397086D01*
X115376758Y-105427162D01*
X115380251Y-105454931D01*
X115381434Y-105468047D01*
X115382246Y-105480668D01*
X115382676Y-105492791D01*
X115382715Y-105504412D01*
X115382351Y-105515531D01*
X115381573Y-105526145D01*
X115380371Y-105536250D01*
X115378733Y-105545845D01*
X115376649Y-105554928D01*
X115374109Y-105563496D01*
X115371101Y-105571547D01*
X115367614Y-105579077D01*
X115363638Y-105586086D01*
X115359163Y-105592570D01*
X115354176Y-105598528D01*
X115348667Y-105603956D01*
X115345708Y-105606466D01*
X115342570Y-105608816D01*
X115339207Y-105610979D01*
X115335573Y-105612927D01*
X115331623Y-105614633D01*
X115327310Y-105616070D01*
X115322588Y-105617210D01*
X115317411Y-105618026D01*
X115311734Y-105618492D01*
X115305510Y-105618578D01*
X115298693Y-105618259D01*
X115291238Y-105617507D01*
X115283098Y-105616295D01*
X115274228Y-105614595D01*
X115264581Y-105612380D01*
X115254112Y-105609623D01*
X115242774Y-105606296D01*
X115230522Y-105602373D01*
X115217310Y-105597826D01*
X115203091Y-105592627D01*
X115187820Y-105586750D01*
X115171451Y-105580167D01*
X115153937Y-105572850D01*
X115135233Y-105564773D01*
X115115293Y-105555909D01*
X115094070Y-105546229D01*
X115071520Y-105535707D01*
X115047595Y-105524315D01*
X115022250Y-105512027D01*
X114995439Y-105498814D01*
X114967116Y-105484650D01*
X114937235Y-105469507D01*
X114802613Y-105399403D01*
X114647805Y-105316269D01*
X114299534Y-105123170D01*
X113936229Y-104914734D01*
X113762629Y-104812427D01*
X113601698Y-104715482D01*
X113457251Y-104625972D01*
X113326444Y-104541985D01*
X113204766Y-104460618D01*
X113087711Y-104378967D01*
X112970770Y-104294126D01*
X112849433Y-104203192D01*
X112575541Y-103991424D01*
X112243439Y-103730152D01*
X111884386Y-103444738D01*
X111543102Y-103170258D01*
X111264305Y-102941787D01*
X111160858Y-102854631D01*
X111081052Y-102785299D01*
X111021728Y-102731342D01*
X110979724Y-102690312D01*
X110964230Y-102673879D01*
X110951882Y-102659759D01*
X110942283Y-102647646D01*
X110935039Y-102637235D01*
X110929755Y-102628219D01*
X110926036Y-102620291D01*
X110921713Y-102606479D01*
X110920380Y-102600037D01*
X110919397Y-102593774D01*
X110918734Y-102587702D01*
X110918362Y-102581829D01*
X110918250Y-102576164D01*
X110918369Y-102570718D01*
X110918690Y-102565500D01*
X110919183Y-102560519D01*
X110919818Y-102555784D01*
X110920566Y-102551306D01*
X110922282Y-102543155D01*
X110924093Y-102536143D01*
X110925762Y-102530345D01*
X110926527Y-102527875D01*
X110926972Y-102526664D01*
X110927512Y-102525418D01*
X110928186Y-102524099D01*
X110929033Y-102522667D01*
X110930094Y-102521084D01*
X110931406Y-102519312D01*
X110933011Y-102517312D01*
X110934947Y-102515046D01*
X110937254Y-102512474D01*
X110939970Y-102509559D01*
X110943137Y-102506262D01*
X110946793Y-102502545D01*
X110950977Y-102498368D01*
X110955729Y-102493693D01*
X110961088Y-102488482D01*
X110967095Y-102482697D01*
X110973788Y-102476298D01*
X110981206Y-102469247D01*
X110998378Y-102453035D01*
X111018927Y-102433753D01*
X111043168Y-102411092D01*
X111071416Y-102384745D01*
X111141198Y-102319755D01*
X111141197Y-102319757D01*
X111141197Y-102319758D01*
X111141197Y-102319760D01*
X111141197Y-102319762D01*
X111141197Y-102319763D01*
X111141196Y-102319765D01*
X111141196Y-102319768D01*
X111141195Y-102319771D01*
X111141194Y-102319774D01*
X111141194Y-102319775D01*
X111141194Y-102319777D01*
X111141194Y-102319778D01*
X111141194Y-102319780D01*
X111566799Y-101925660D01*
X111804735Y-101709200D01*
X111913576Y-101612098D01*
X112009415Y-101528501D01*
X112051145Y-101493066D01*
X112088782Y-101461951D01*
X112122656Y-101434957D01*
X112153096Y-101411887D01*
X112180433Y-101392543D01*
X112204996Y-101376725D01*
X112227115Y-101364237D01*
X112247120Y-101354880D01*
X112265341Y-101348455D01*
X112273886Y-101346281D01*
X112282108Y-101344766D01*
X112290049Y-101343884D01*
X112297750Y-101343612D01*
X112305252Y-101343925D01*
G36*
X112305252Y-101343925D02*
G01*
X112312597Y-101344798D01*
X112326979Y-101348123D01*
X112341225Y-101353390D01*
X112355667Y-101360402D01*
X112370632Y-101368959D01*
X112386409Y-101378905D01*
X112403105Y-101390248D01*
X112420789Y-101403039D01*
X112439526Y-101417326D01*
X112459383Y-101433161D01*
X112480426Y-101450593D01*
X112502722Y-101469671D01*
X112526337Y-101490446D01*
X112577792Y-101537285D01*
X112635321Y-101591508D01*
X112699456Y-101653514D01*
X112770729Y-101723701D01*
X112934039Y-101887645D01*
X113115647Y-102073682D01*
X113303177Y-102269590D01*
X113484255Y-102463142D01*
X113568861Y-102555595D01*
X113649337Y-102645144D01*
X113726264Y-102732527D01*
X113800219Y-102818487D01*
X113871783Y-102903764D01*
X113941535Y-102989097D01*
X114010053Y-103075228D01*
X114077917Y-103162897D01*
X114145576Y-103252650D01*
X114212969Y-103344243D01*
X114279906Y-103437241D01*
X114346198Y-103531205D01*
X114476087Y-103720293D01*
X114601116Y-103908016D01*
X114719857Y-104091319D01*
X114831233Y-104268929D01*
X114883850Y-104355338D01*
X114934256Y-104440010D01*
X114982327Y-104522839D01*
X115027939Y-104603723D01*
X115070978Y-104682521D01*
X115111359Y-104758947D01*
X115149007Y-104832677D01*
X115183845Y-104903388D01*
X115215799Y-104970759D01*
X115244791Y-105034466D01*
X115270746Y-105094187D01*
X115293589Y-105149599D01*
X115313290Y-105200487D01*
X115330020Y-105247077D01*
X115343998Y-105289700D01*
X115355443Y-105328688D01*
X115364572Y-105364372D01*
X115371604Y-105397086D01*
X115376758Y-105427162D01*
X115380251Y-105454931D01*
X115381434Y-105468047D01*
X115382246Y-105480668D01*
X115382676Y-105492791D01*
X115382715Y-105504412D01*
X115382351Y-105515531D01*
X115381573Y-105526145D01*
X115380371Y-105536250D01*
X115378733Y-105545845D01*
X115376649Y-105554928D01*
X115374109Y-105563496D01*
X115371101Y-105571547D01*
X115367614Y-105579077D01*
X115363638Y-105586086D01*
X115359163Y-105592570D01*
X115354176Y-105598528D01*
X115348667Y-105603956D01*
X115345708Y-105606466D01*
X115342570Y-105608816D01*
X115339207Y-105610979D01*
X115335573Y-105612927D01*
X115331623Y-105614633D01*
X115327310Y-105616070D01*
X115322588Y-105617210D01*
X115317411Y-105618026D01*
X115311734Y-105618492D01*
X115305510Y-105618578D01*
X115298693Y-105618259D01*
X115291238Y-105617507D01*
X115283098Y-105616295D01*
X115274228Y-105614595D01*
X115264581Y-105612380D01*
X115254112Y-105609623D01*
X115242774Y-105606296D01*
X115230522Y-105602373D01*
X115217310Y-105597826D01*
X115203091Y-105592627D01*
X115187820Y-105586750D01*
X115171451Y-105580167D01*
X115153937Y-105572850D01*
X115135233Y-105564773D01*
X115115293Y-105555909D01*
X115094070Y-105546229D01*
X115071520Y-105535707D01*
X115047595Y-105524315D01*
X115022250Y-105512027D01*
X114995439Y-105498814D01*
X114967116Y-105484650D01*
X114937235Y-105469507D01*
X114802613Y-105399403D01*
X114647805Y-105316269D01*
X114299534Y-105123170D01*
X113936229Y-104914734D01*
X113762629Y-104812427D01*
X113601698Y-104715482D01*
X113457251Y-104625972D01*
X113326444Y-104541985D01*
X113204766Y-104460618D01*
X113087711Y-104378967D01*
X112970770Y-104294126D01*
X112849433Y-104203192D01*
X112575541Y-103991424D01*
X112243439Y-103730152D01*
X111884386Y-103444738D01*
X111543102Y-103170258D01*
X111264305Y-102941787D01*
X111160858Y-102854631D01*
X111081052Y-102785299D01*
X111021728Y-102731342D01*
X110979724Y-102690312D01*
X110964230Y-102673879D01*
X110951882Y-102659759D01*
X110942283Y-102647646D01*
X110935039Y-102637235D01*
X110929755Y-102628219D01*
X110926036Y-102620291D01*
X110921713Y-102606479D01*
X110920380Y-102600037D01*
X110919397Y-102593774D01*
X110918734Y-102587702D01*
X110918362Y-102581829D01*
X110918250Y-102576164D01*
X110918369Y-102570718D01*
X110918690Y-102565500D01*
X110919183Y-102560519D01*
X110919818Y-102555784D01*
X110920566Y-102551306D01*
X110922282Y-102543155D01*
X110924093Y-102536143D01*
X110925762Y-102530345D01*
X110926527Y-102527875D01*
X110926972Y-102526664D01*
X110927512Y-102525418D01*
X110928186Y-102524099D01*
X110929033Y-102522667D01*
X110930094Y-102521084D01*
X110931406Y-102519312D01*
X110933011Y-102517312D01*
X110934947Y-102515046D01*
X110937254Y-102512474D01*
X110939970Y-102509559D01*
X110943137Y-102506262D01*
X110946793Y-102502545D01*
X110950977Y-102498368D01*
X110955729Y-102493693D01*
X110961088Y-102488482D01*
X110967095Y-102482697D01*
X110973788Y-102476298D01*
X110981206Y-102469247D01*
X110998378Y-102453035D01*
X111018927Y-102433753D01*
X111043168Y-102411092D01*
X111071416Y-102384745D01*
X111141198Y-102319755D01*
X111141197Y-102319757D01*
X111141197Y-102319758D01*
X111141197Y-102319760D01*
X111141197Y-102319762D01*
X111141197Y-102319763D01*
X111141196Y-102319765D01*
X111141196Y-102319768D01*
X111141195Y-102319771D01*
X111141194Y-102319774D01*
X111141194Y-102319775D01*
X111141194Y-102319777D01*
X111141194Y-102319778D01*
X111141194Y-102319780D01*
X111566799Y-101925660D01*
X111804735Y-101709200D01*
X111913576Y-101612098D01*
X112009415Y-101528501D01*
X112051145Y-101493066D01*
X112088782Y-101461951D01*
X112122656Y-101434957D01*
X112153096Y-101411887D01*
X112180433Y-101392543D01*
X112204996Y-101376725D01*
X112227115Y-101364237D01*
X112247120Y-101354880D01*
X112265341Y-101348455D01*
X112273886Y-101346281D01*
X112282108Y-101344766D01*
X112290049Y-101343884D01*
X112297750Y-101343612D01*
X112305252Y-101343925D01*
G37*
X88749252Y-102281286D02*
X88762026Y-102282409D01*
X88775040Y-102284616D01*
X88788357Y-102287896D01*
X88802042Y-102292240D01*
X88816159Y-102297637D01*
X88830772Y-102304077D01*
X88845945Y-102311548D01*
X88861742Y-102320041D01*
X88895464Y-102340052D01*
X88932451Y-102364025D01*
X88973216Y-102391878D01*
X89066708Y-102458439D01*
X89172935Y-102536826D01*
X89287476Y-102623680D01*
X89405907Y-102715639D01*
X89523807Y-102809344D01*
X89636753Y-102901435D01*
X89740322Y-102988553D01*
X89830092Y-103067336D01*
X89868508Y-103102704D01*
X89902344Y-103135622D01*
X89917538Y-103151312D01*
X89931577Y-103166567D01*
X89944460Y-103181447D01*
X89956184Y-103196011D01*
X89966744Y-103210320D01*
X89976139Y-103224431D01*
X89984366Y-103238405D01*
X89991420Y-103252300D01*
X89997301Y-103266177D01*
X90002004Y-103280094D01*
X90005526Y-103294110D01*
X90007865Y-103308286D01*
X90009017Y-103322679D01*
X90008981Y-103337351D01*
X90007752Y-103352359D01*
X90005327Y-103367764D01*
X90001705Y-103383624D01*
X89996881Y-103399999D01*
X89990853Y-103416948D01*
X89983617Y-103434531D01*
X89975172Y-103452807D01*
X89965514Y-103471834D01*
X89954639Y-103491674D01*
X89942546Y-103512384D01*
X89914690Y-103556654D01*
X89881922Y-103605119D01*
X89802159Y-103715241D01*
X89706071Y-103840093D01*
X89597075Y-103975726D01*
X89478589Y-104118192D01*
X89354029Y-104263544D01*
X89226811Y-104407832D01*
X89100352Y-104547109D01*
X88978069Y-104677427D01*
X88862289Y-104795974D01*
X88750990Y-104904479D01*
X88641058Y-105005809D01*
X88529379Y-105102831D01*
X88412841Y-105198410D01*
X88288329Y-105295413D01*
X88152732Y-105396705D01*
X88002935Y-105505155D01*
X87659711Y-105746382D01*
X87290826Y-105998996D01*
X86939860Y-106234299D01*
X86650395Y-106423589D01*
X86540922Y-106492958D01*
X86454626Y-106545735D01*
X86388413Y-106584010D01*
X86339189Y-106609869D01*
X86319980Y-106618796D01*
X86303859Y-106625403D01*
X86290438Y-106629949D01*
X86279330Y-106632697D01*
X86270150Y-106633908D01*
X86262509Y-106633842D01*
X86256021Y-106632761D01*
X86250301Y-106630926D01*
X86247614Y-106629801D01*
X86245021Y-106628560D01*
X86242519Y-106627209D01*
X86240107Y-106625755D01*
X86237783Y-106624206D01*
X86235544Y-106622567D01*
X86233390Y-106620846D01*
X86231318Y-106619050D01*
X86229327Y-106617185D01*
X86227415Y-106615258D01*
X86225580Y-106613276D01*
X86223821Y-106611246D01*
X86220520Y-106607067D01*
X86217500Y-106602778D01*
X86214745Y-106598432D01*
X86212242Y-106594083D01*
X86209976Y-106589787D01*
X86207933Y-106585597D01*
X86206099Y-106581569D01*
X86204459Y-106577756D01*
X86201707Y-106570997D01*
X86201122Y-106569514D01*
X86200597Y-106568056D01*
X86200156Y-106566549D01*
X86199973Y-106565756D01*
X86199820Y-106564924D01*
X86199699Y-106564044D01*
X86199613Y-106563109D01*
X86199564Y-106562108D01*
X86199556Y-106561032D01*
X86199591Y-106559874D01*
X86199672Y-106558624D01*
X86199802Y-106557272D01*
X86199984Y-106555811D01*
X86200221Y-106554232D01*
X86200515Y-106552524D01*
X86200869Y-106550681D01*
X86201286Y-106548692D01*
X86202320Y-106544242D01*
X86203641Y-106539104D01*
X86205270Y-106533207D01*
X86207230Y-106526479D01*
X86209544Y-106518849D01*
X86212233Y-106510247D01*
X86215322Y-106500601D01*
X86218831Y-106489839D01*
X86222785Y-106477891D01*
X86227204Y-106464686D01*
X86232112Y-106450152D01*
X86237532Y-106434218D01*
X86249996Y-106397866D01*
X86264775Y-106355060D01*
X86282050Y-106305232D01*
X86324812Y-106182229D01*
X86443666Y-105842626D01*
X86595322Y-105421322D01*
X86678515Y-105198161D01*
X86763986Y-104976328D01*
X86849761Y-104763074D01*
X86933865Y-104565652D01*
X86974748Y-104474911D01*
X87014922Y-104389441D01*
X87054589Y-104308745D01*
X87093949Y-104232326D01*
X87133205Y-104159683D01*
X87172557Y-104090320D01*
X87212209Y-104023737D01*
X87252362Y-103959438D01*
X87334976Y-103835692D01*
X87422012Y-103715098D01*
X87515086Y-103593668D01*
X87615810Y-103467416D01*
X87840358Y-103194705D01*
X88077052Y-102916073D01*
X88300990Y-102660830D01*
X88400393Y-102551137D01*
X88487268Y-102458282D01*
X88525185Y-102419222D01*
X88559705Y-102385205D01*
X88591338Y-102356147D01*
X88606234Y-102343451D01*
X88620600Y-102331964D01*
X88634501Y-102321676D01*
X88648000Y-102312575D01*
X88661163Y-102304652D01*
X88674054Y-102297895D01*
X88686735Y-102292296D01*
X88699272Y-102287843D01*
X88711728Y-102284526D01*
X88724167Y-102282334D01*
X88736654Y-102281258D01*
X88749252Y-102281286D01*
G36*
X88749252Y-102281286D02*
G01*
X88762026Y-102282409D01*
X88775040Y-102284616D01*
X88788357Y-102287896D01*
X88802042Y-102292240D01*
X88816159Y-102297637D01*
X88830772Y-102304077D01*
X88845945Y-102311548D01*
X88861742Y-102320041D01*
X88895464Y-102340052D01*
X88932451Y-102364025D01*
X88973216Y-102391878D01*
X89066708Y-102458439D01*
X89172935Y-102536826D01*
X89287476Y-102623680D01*
X89405907Y-102715639D01*
X89523807Y-102809344D01*
X89636753Y-102901435D01*
X89740322Y-102988553D01*
X89830092Y-103067336D01*
X89868508Y-103102704D01*
X89902344Y-103135622D01*
X89917538Y-103151312D01*
X89931577Y-103166567D01*
X89944460Y-103181447D01*
X89956184Y-103196011D01*
X89966744Y-103210320D01*
X89976139Y-103224431D01*
X89984366Y-103238405D01*
X89991420Y-103252300D01*
X89997301Y-103266177D01*
X90002004Y-103280094D01*
X90005526Y-103294110D01*
X90007865Y-103308286D01*
X90009017Y-103322679D01*
X90008981Y-103337351D01*
X90007752Y-103352359D01*
X90005327Y-103367764D01*
X90001705Y-103383624D01*
X89996881Y-103399999D01*
X89990853Y-103416948D01*
X89983617Y-103434531D01*
X89975172Y-103452807D01*
X89965514Y-103471834D01*
X89954639Y-103491674D01*
X89942546Y-103512384D01*
X89914690Y-103556654D01*
X89881922Y-103605119D01*
X89802159Y-103715241D01*
X89706071Y-103840093D01*
X89597075Y-103975726D01*
X89478589Y-104118192D01*
X89354029Y-104263544D01*
X89226811Y-104407832D01*
X89100352Y-104547109D01*
X88978069Y-104677427D01*
X88862289Y-104795974D01*
X88750990Y-104904479D01*
X88641058Y-105005809D01*
X88529379Y-105102831D01*
X88412841Y-105198410D01*
X88288329Y-105295413D01*
X88152732Y-105396705D01*
X88002935Y-105505155D01*
X87659711Y-105746382D01*
X87290826Y-105998996D01*
X86939860Y-106234299D01*
X86650395Y-106423589D01*
X86540922Y-106492958D01*
X86454626Y-106545735D01*
X86388413Y-106584010D01*
X86339189Y-106609869D01*
X86319980Y-106618796D01*
X86303859Y-106625403D01*
X86290438Y-106629949D01*
X86279330Y-106632697D01*
X86270150Y-106633908D01*
X86262509Y-106633842D01*
X86256021Y-106632761D01*
X86250301Y-106630926D01*
X86247614Y-106629801D01*
X86245021Y-106628560D01*
X86242519Y-106627209D01*
X86240107Y-106625755D01*
X86237783Y-106624206D01*
X86235544Y-106622567D01*
X86233390Y-106620846D01*
X86231318Y-106619050D01*
X86229327Y-106617185D01*
X86227415Y-106615258D01*
X86225580Y-106613276D01*
X86223821Y-106611246D01*
X86220520Y-106607067D01*
X86217500Y-106602778D01*
X86214745Y-106598432D01*
X86212242Y-106594083D01*
X86209976Y-106589787D01*
X86207933Y-106585597D01*
X86206099Y-106581569D01*
X86204459Y-106577756D01*
X86201707Y-106570997D01*
X86201122Y-106569514D01*
X86200597Y-106568056D01*
X86200156Y-106566549D01*
X86199973Y-106565756D01*
X86199820Y-106564924D01*
X86199699Y-106564044D01*
X86199613Y-106563109D01*
X86199564Y-106562108D01*
X86199556Y-106561032D01*
X86199591Y-106559874D01*
X86199672Y-106558624D01*
X86199802Y-106557272D01*
X86199984Y-106555811D01*
X86200221Y-106554232D01*
X86200515Y-106552524D01*
X86200869Y-106550681D01*
X86201286Y-106548692D01*
X86202320Y-106544242D01*
X86203641Y-106539104D01*
X86205270Y-106533207D01*
X86207230Y-106526479D01*
X86209544Y-106518849D01*
X86212233Y-106510247D01*
X86215322Y-106500601D01*
X86218831Y-106489839D01*
X86222785Y-106477891D01*
X86227204Y-106464686D01*
X86232112Y-106450152D01*
X86237532Y-106434218D01*
X86249996Y-106397866D01*
X86264775Y-106355060D01*
X86282050Y-106305232D01*
X86324812Y-106182229D01*
X86443666Y-105842626D01*
X86595322Y-105421322D01*
X86678515Y-105198161D01*
X86763986Y-104976328D01*
X86849761Y-104763074D01*
X86933865Y-104565652D01*
X86974748Y-104474911D01*
X87014922Y-104389441D01*
X87054589Y-104308745D01*
X87093949Y-104232326D01*
X87133205Y-104159683D01*
X87172557Y-104090320D01*
X87212209Y-104023737D01*
X87252362Y-103959438D01*
X87334976Y-103835692D01*
X87422012Y-103715098D01*
X87515086Y-103593668D01*
X87615810Y-103467416D01*
X87840358Y-103194705D01*
X88077052Y-102916073D01*
X88300990Y-102660830D01*
X88400393Y-102551137D01*
X88487268Y-102458282D01*
X88525185Y-102419222D01*
X88559705Y-102385205D01*
X88591338Y-102356147D01*
X88606234Y-102343451D01*
X88620600Y-102331964D01*
X88634501Y-102321676D01*
X88648000Y-102312575D01*
X88661163Y-102304652D01*
X88674054Y-102297895D01*
X88686735Y-102292296D01*
X88699272Y-102287843D01*
X88711728Y-102284526D01*
X88724167Y-102282334D01*
X88736654Y-102281258D01*
X88749252Y-102281286D01*
G37*
D11*
%TO.C,R6*%
X89000000Y-82412500D03*
X89000000Y-80587500D03*
%TD*%
%TO.C,R5*%
X110000000Y-82162500D03*
X110000000Y-80337500D03*
%TD*%
D12*
%TO.C,D6*%
X92500000Y-80500000D03*
X90750000Y-80500000D03*
%TD*%
D13*
%TO.C,D5*%
X106500000Y-80250000D03*
X108250000Y-80250000D03*
%TD*%
D14*
%TO.C,D4*%
X86381282Y-76118718D03*
X87618718Y-74881282D03*
%TD*%
D15*
%TO.C,SW1*%
X103000000Y-77000000D03*
X96000000Y-77000000D03*
%TD*%
D16*
%TO.C,BT1*%
X91057455Y-93750000D03*
D17*
X111857455Y-93750000D03*
%TD*%
D11*
%TO.C,R4*%
X85000000Y-87412500D03*
X85000000Y-85587500D03*
%TD*%
%TO.C,R3*%
X114500000Y-85662500D03*
X114500000Y-83837500D03*
%TD*%
D18*
%TO.C,R2*%
X85000000Y-89087500D03*
X85000000Y-90912500D03*
%TD*%
%TO.C,R1*%
X114500000Y-87337500D03*
X114500000Y-89162500D03*
%TD*%
D19*
%TO.C,D3*%
X111262564Y-73512564D03*
X112500000Y-74750000D03*
%TD*%
D20*
%TO.C,D2*%
X87631282Y-104618718D03*
X88868718Y-103381282D03*
%TD*%
D21*
%TO.C,D1*%
X113243718Y-103618718D03*
X112006282Y-102381282D03*
%TD*%
M02*
