<?xml version="1.0" encoding="UTF-8" standalone="no"?>
<!-- Created with Inkscape (http://www.inkscape.org/) -->

<svg
   version="1.1"
   id="svg1"
   width="128.0327"
   height="136.79431"
   viewBox="0 0 128.0327 136.79431"
   sodipodi:docname="test1.svg"
   inkscape:version="1.4 (e7c3feb1, 2024-10-09)"
   inkscape:export-filename="knitting_pcb_option1_edge.svg"
   inkscape:export-xdpi="96"
   inkscape:export-ydpi="96"
   xmlns:inkscape="http://www.inkscape.org/namespaces/inkscape"
   xmlns:sodipodi="http://sodipodi.sourceforge.net/DTD/sodipodi-0.dtd"
   xmlns="http://www.w3.org/2000/svg"
   xmlns:svg="http://www.w3.org/2000/svg">
  <defs
     id="defs1" />
  <sodipodi:namedview
     id="namedview1"
     pagecolor="#ffffff"
     bordercolor="#000000"
     borderopacity="0.25"
     inkscape:showpageshadow="2"
     inkscape:pageopacity="0.0"
     inkscape:pagecheckerboard="0"
     inkscape:deskcolor="#d1d1d1"
     showgrid="false"
     inkscape:zoom="6.8059028"
     inkscape:cx="186.67619"
     inkscape:cy="259.7745"
     inkscape:window-width="2560"
     inkscape:window-height="1387"
     inkscape:window-x="1512"
     inkscape:window-y="25"
     inkscape:window-maximized="0"
     inkscape:current-layer="layer2">
    <inkscape:page
       x="0"
       y="0"
       width="128.0327"
       height="136.79431"
       id="page2"
       margin="0"
       bleed="0" />
  </sodipodi:namedview>
  <g
     inkscape:groupmode="layer"
     id="layer2"
     inkscape:label="gold_edge"
     inkscape:highlight-color="#275ff2"
     transform="translate(-110.19107,-194.25638)">
    <path
       id="path44"
       style="fill:#ffeeaa;fill-opacity:0.943794;fill-rule:evenodd;stroke:#ffeeaa;stroke-width:0.377953;stroke-dasharray:none"
       d="m 212.70312,194.44727 c -0.45006,-0.0119 -0.88289,0.0314 -1.33593,0.13476 -0.90609,0.20665 -1.89222,0.65226 -2.59961,1.34375 -0.70739,0.69149 -1.13688,1.62851 -1.35547,2.68164 -0.21859,1.05314 -0.22524,2.22266 0.041,3.25196 0.26626,1.02929 0.80653,1.91796 1.15626,2.49023 0.34972,0.57227 0.5077,0.82752 0.28515,1.32031 -0.22255,0.49279 -0.82666,1.22428 -1.25586,1.70117 -0.4292,0.47689 -0.68305,0.69802 -1.28711,0.53907 -0.60406,-0.15896 -1.55712,-0.69933 -3.13086,-1.49414 -1.57373,-0.79482 -3.76773,-1.84369 -6.39062,-2.87696 -2.6229,-1.03326 -5.67436,-2.04974 -9.64844,-2.79687 -3.97408,-0.74713 -8.8715,-1.22493 -13.19531,-1.32031 -4.32381,-0.0954 -8.07361,0.19091 -12,0.90624 -3.9264,0.71534 -8.02901,1.86084 -11.47852,3.14844 -3.44951,1.2876 -6.24743,2.71663 -8.45703,4.09961 -2.2096,1.38299 -3.82941,2.71955 -4.7832,3.24414 -0.95379,0.52459 -1.24121,0.23899 -1.52735,-0.0312 -0.28613,-0.27024 -0.57237,-0.52468 -0.79492,-0.79492 -0.22255,-0.27024 -0.38167,-0.55653 -0.33398,-0.90625 0.0477,-0.34972 0.30284,-0.76307 0.52539,-1.25586 0.22255,-0.49278 0.41384,-1.06526 0.54101,-1.58984 0.12718,-0.52458 0.18973,-1.00201 0.17383,-1.68555 -0.0159,-0.68354 -0.11089,-1.57432 -0.36523,-2.36914 -0.25434,-0.79482 -0.6671,-1.49246 -1.17578,-2.04883 -0.50869,-0.55637 -1.11312,-0.97026 -1.92383,-1.22461 -0.81071,-0.25434 -1.82899,-0.35091 -3.03711,-0.16015 -1.20812,0.19075 -2.60655,0.66927 -4.25977,1.62304 -1.65321,0.95378 -3.56026,2.38314 -5.29296,4.19532 -1.73271,1.81217 -3.2909,4.00617 -4.2129,5.81835 -0.92199,1.81219 -1.2073,3.24224 -1.1914,4.49805 0.0159,1.25582 0.33317,2.33664 0.95312,3.21094 0.61996,0.8743 1.5421,1.54253 2.62305,1.79687 1.08095,0.25435 2.32025,0.095 3.35352,-0.20703 1.03326,-0.30203 1.86029,-0.74739 2.60742,-0.55664 0.74713,0.19075 1.41471,1.01812 1.60547,1.5586 0.19076,0.54047 -0.0947,0.79541 -0.95313,1.79687 -0.8584,1.00146 -2.28927,2.75005 -3.87891,5.15039 -1.58963,2.40034 -3.33858,5.45099 -4.78515,8.55078 -1.44657,3.09979 -2.59027,6.24717 -3.48047,9.61719 -0.8902,3.37003 -1.52582,6.96369 -1.84375,10.92188 -0.31793,3.95818 -0.31836,8.28079 0.25391,13.11328 0.57226,4.83248 1.71614,10.17358 3.24218,14.8789 1.52605,4.70533 3.43283,8.77472 5.88086,12.58985 2.44803,3.81512 5.43737,7.37698 6.93164,9.20507 1.49428,1.8281 1.49392,1.92274 0.47657,3.13086 -1.01736,1.20812 -3.05137,3.52967 -4.84766,6.59766 -1.79629,3.06799 -3.3539,6.88152 -4.13281,8.78906 -0.77892,1.90755 -0.77936,1.90905 -0.77539,2.20313 0.004,0.29408 0.0124,0.88066 0.0879,1.34961 0.0755,0.46894 0.21893,0.81892 0.4375,1.1289 0.21857,0.30998 0.51133,0.58033 0.87695,0.79493 0.36562,0.2146 0.8028,0.37345 1.37109,0.34961 0.5683,-0.0238 1.26732,-0.22942 2.88477,-1.20704 1.61745,-0.97761 4.15447,-2.72653 5.97461,-3.98632 1.82014,-1.25979 2.92405,-2.03103 3.82617,-2.73047 0.90212,-0.69944 1.6021,-1.32792 2.14258,-1.91211 0.54048,-0.58419 0.92087,-1.12318 1.4375,-1.6875 0.51663,-0.56432 1.16898,-1.15404 1.68164,-1.62696 0.51266,-0.47291 0.88621,-0.82972 1.14453,-0.96484 0.25832,-0.13512 0.40074,-0.0468 0.95313,0.29492 0.55239,0.34177 1.51548,0.93739 3.24023,1.85938 1.72475,0.92198 4.21262,2.16957 6.97461,3.33398 2.76199,1.16441 5.79725,2.24451 8.75,3.02344 2.95275,0.77892 5.8218,1.25731 9.05273,1.51562 3.23093,0.25832 6.82336,0.29805 9.9629,0.11524 3.13953,-0.18281 5.82636,-0.58794 8.67578,-1.27149 2.84942,-0.68354 5.86194,-1.64596 8.45703,-2.59179 2.59508,-0.94584 4.77266,-1.87563 6.64843,-2.75391 1.87578,-0.87827 3.44862,-1.70455 5.08594,-2.76562 1.63733,-1.06108 3.33945,-2.35794 4.27735,-3.01368 0.93789,-0.65573 1.1125,-0.67128 1.38671,-0.47656 0.27422,0.19473 0.64671,0.60018 1.66407,1.48242 1.01736,0.88224 2.67852,2.24136 4.46289,3.54883 1.78436,1.30748 3.6913,2.56302 5.64258,3.79102 1.95127,1.22799 3.9475,2.42805 5.1914,3.0957 1.2439,0.66765 1.73701,0.80381 2.26953,0.85547 0.53253,0.0517 1.10326,0.0201 1.57618,-0.12695 0.47291,-0.14705 0.84742,-0.40925 1.08984,-0.69141 0.24242,-0.28216 0.3527,-0.58554 0.40039,-1.06641 0.0477,-0.48086 0.0317,-1.14006 -0.10742,-1.85937 -0.1391,-0.71931 -0.40123,-1.49822 -0.69531,-2.28906 -0.29409,-0.79085 -0.61936,-1.59351 -1.06446,-2.52344 -0.44509,-0.92994 -1.00868,-1.98647 -1.64453,-3.00781 -0.63585,-1.02134 -1.34331,-2.00762 -2.16992,-3.04883 -0.82661,-1.04121 -1.773,-2.13829 -2.59961,-3.07617 -0.82661,-0.93789 -1.53453,-1.71691 -2.25781,-2.51172 -0.72328,-0.79482 -1.46137,-1.60528 -1.7793,-2.07422 -0.31793,-0.46895 -0.21475,-0.59613 0.12305,-1.0293 0.33779,-0.43317 0.90946,-1.17263 1.63672,-2.1582 0.72725,-0.98557 1.61014,-2.21778 2.48047,-3.5332 0.87032,-1.31543 1.72848,-2.71333 2.53124,-4.06055 0.80277,-1.34722 1.55051,-2.64223 2.13868,-3.80664 0.58816,-1.16441 1.01663,-2.19882 1.64453,-3.82422 0.6279,-1.6254 1.45479,-3.84192 2.1582,-6.12305 0.70342,-2.28113 1.28262,-4.62524 1.66016,-7.01367 0.37754,-2.38842 0.55306,-4.8216 0.64843,-6.91992 0.0954,-2.09832 0.1108,-3.8619 0.0273,-5.77344 -0.0834,-1.91153 -0.26594,-3.97067 -0.47656,-5.80273 -0.21063,-1.83206 -0.44843,-3.43654 -0.83789,-5.20899 -0.38946,-1.77244 -0.93003,-3.71287 -1.48243,-5.54492 -0.55239,-1.83205 -1.11744,-3.55683 -1.78906,-5.26172 -0.67162,-1.70488 -1.44977,-3.38878 -2.44726,-5.21289 -0.9975,-1.8241 -2.21384,-3.78879 -3.30274,-5.40625 -1.0889,-1.61746 -2.05113,-2.88845 -3.06055,-4.16015 -1.00941,-1.27171 -2.06592,-2.54363 -3.23828,-3.76368 -1.17235,-1.22004 -2.45923,-2.38865 -3.13086,-3.07617 -0.67162,-0.68752 -0.72798,-0.89437 -0.64453,-1.13281 0.0835,-0.23844 0.30687,-0.50736 0.63672,-0.87695 0.32985,-0.3696 0.76626,-0.83907 1.07227,-1.11329 0.306,-0.27421 0.4813,-0.35318 0.77539,-0.25781 0.29408,0.0954 0.70643,0.36602 1.19922,0.54883 0.49278,0.18281 1.0647,0.27659 1.73632,0.32031 0.67163,0.0437 1.44253,0.0364 2.17774,-0.0391 0.73521,-0.0755 1.43581,-0.21939 1.99219,-0.52539 0.55637,-0.306 0.96877,-0.77452 1.31054,-1.2832 0.34177,-0.50868 0.61285,-1.05744 0.75196,-1.69727 0.1391,-0.63982 0.14587,-1.36999 0.0664,-2.12109 -0.0795,-0.75111 -0.24503,-1.52299 -0.65039,-2.46485 -0.40535,-0.94185 -1.04896,-2.0539 -1.61328,-2.90039 -0.56432,-0.84648 -1.04906,-1.4273 -1.95117,-2.2539 -0.90211,-0.82661 -2.22213,-1.8997 -3.16797,-2.62696 -0.94584,-0.72726 -1.51838,-1.10872 -2.1582,-1.49023 -0.63983,-0.38151 -1.34653,-0.76248 -2.32813,-1.17578 -0.98159,-0.41331 -2.23808,-0.85725 -3.2793,-1.09571 -0.5206,-0.11922 -0.98743,-0.18729 -1.4375,-0.19921 z m -0.80273,3.6582 c 0.15956,-0.0126 0.35578,-0.002 0.63281,0.0254 0.55406,0.0551 1.43636,0.17832 2.37305,0.50586 0.93669,0.32754 1.92728,0.85959 2.91602,1.46875 0.98873,0.60916 1.97421,1.29486 2.98437,2.11523 1.01016,0.82038 2.04591,1.77436 2.8418,2.75391 0.79588,0.97955 1.3532,1.98508 1.65625,2.67383 0.30305,0.68875 0.35098,1.06078 0.34179,1.46484 -0.009,0.40407 -0.0761,0.83836 -0.16796,1.12305 -0.0918,0.28468 -0.20818,0.41962 -0.43164,0.51758 -0.22347,0.0979 -0.55448,0.1601 -1.10547,0.13867 -0.551,-0.0214 -1.32204,-0.12557 -2.07813,-0.33985 -0.75609,-0.21427 -1.49706,-0.53801 -2.17969,-0.88085 -0.68262,-0.34285 -1.30699,-0.70566 -2.07226,-1.23829 -0.76528,-0.53263 -1.67039,-1.23645 -2.47852,-1.91601 -0.80813,-0.67956 -1.51948,-1.33405 -2.13476,-1.99219 -0.61529,-0.65814 -1.13585,-1.3191 -1.54297,-1.91601 -0.40713,-0.59692 -0.70067,-1.13082 -0.82617,-1.7461 -0.12551,-0.61528 -0.082,-1.31315 -0.0605,-1.66211 0.0214,-0.34896 0.0216,-0.34715 0.17773,-0.47265 0.15612,-0.12551 0.46696,-0.37815 0.73633,-0.50977 0.13469,-0.0658 0.25841,-0.10066 0.41797,-0.11328 z m -38.83984,4.11719 c 1.60169,-0.009 3.19858,0.029 4.64648,0.12695 2.8958,0.19591 5.19873,0.63545 7.75781,1.21094 2.55909,0.57548 5.37425,1.28618 7.6211,1.99023 2.24684,0.70405 3.92536,1.40251 5.3457,1.99024 1.42035,0.58772 2.58336,1.06389 3.50781,1.48632 0.92445,0.42244 1.60868,0.79012 2.08008,1.08399 0.47141,0.29386 0.72837,0.51371 0.77735,0.74023 0.049,0.22652 -0.10969,0.46024 -1.28516,1.88672 -1.17548,1.42649 -3.36673,4.04752 -4.87891,5.76172 -1.51217,1.7142 -2.34402,2.52172 -2.97461,3.24414 -0.63058,0.72242 -1.05927,1.35942 -1.3164,1.9043 -0.25713,0.54487 -0.34428,0.99752 -0.33203,1.32812 0.0122,0.3306 0.12402,0.53941 0.2832,0.66797 0.15918,0.12857 0.36681,0.17578 0.64844,0.17578 0.28162,0 0.63564,-0.0474 2.98047,-2.58203 2.34482,-2.53461 6.68016,-7.55539 9.17187,-10.45117 2.49171,-2.89578 3.14086,-3.66727 3.54492,-4.13867 0.40407,-0.47141 0.56359,-0.64243 0.76563,-0.69141 0.20204,-0.049 0.44539,0.024 1.21679,0.64844 0.7714,0.62447 2.07034,1.7996 2.70703,2.50976 0.6367,0.71017 0.61256,0.95596 -1.78124,3.9375 -2.39381,2.98154 -7.15714,8.69979 -9.59376,11.64454 -2.43661,2.94474 -2.54767,3.11642 -2.55468,3.24804 -0.007,0.13163 0.0892,0.22232 0.35156,0.44141 0.26239,0.21909 0.69149,0.56522 0.9707,0.77734 0.27922,0.21212 0.40819,0.29023 0.56836,0.23828 0.16018,-0.052 0.35149,-0.23314 2.25196,-2.52539 1.90046,-2.29225 5.51023,-6.69582 7.36523,-8.89062 1.855,-2.1948 1.95527,-2.18182 2.11328,-2.08008 0.15801,0.10174 0.37471,0.29309 1.4375,1.43164 1.06279,1.13855 2.97086,3.22473 5.20899,6.20313 2.23812,2.97839 4.80613,6.84842 6.53125,9.90039 1.72511,3.05197 2.60787,5.28493 3.2832,7.20703 0.67533,1.92209 1.14379,3.5338 1.61133,5.1875 0.46753,1.65369 0.93492,3.34952 1.28125,5.41015 0.34632,2.06063 0.5702,4.48471 0.6914,6.70118 0.12121,2.21647 0.13874,4.22607 0.0781,6.13085 -0.0606,1.90479 -0.19918,3.70585 -0.51953,5.75782 -0.32035,2.05197 -0.82153,4.35517 -1.28907,6.07812 -0.46753,1.72296 -0.90095,2.86517 -1.45507,4.34571 -0.55412,1.48054 -1.22939,3.29777 -2.32032,5.48828 -1.09092,2.1905 -2.59666,4.75331 -3.88671,6.77929 -1.29006,2.02599 -2.36394,3.51671 -3.95704,5.52539 -1.59309,2.00869 -3.7062,4.53551 -6.23437,7.01172 -2.52817,2.47622 -5.471,4.90189 -8.84766,7.06641 -3.37666,2.16452 -7.18769,4.069 -10.10547,5.40234 -2.91777,1.33334 -4.94281,2.09499 -7.74804,2.82227 -2.80524,0.72728 -6.39006,1.41969 -10.35547,1.66211 -3.96541,0.24242 -8.31086,0.0344 -12.52735,-0.59766 -4.21649,-0.63204 -8.30257,-1.68763 -12.42382,-3.24609 -4.12125,-1.55846 -8.27763,-3.61995 -12.1836,-6.11133 -3.90596,-2.49138 -7.56262,-5.41396 -9.39062,-6.875 -1.82801,-1.46104 -1.82815,-1.46119 -2.78321,-2.50195 -0.95505,-1.04077 -2.86522,-3.12102 -4.54882,-5.30664 -1.6836,-2.18563 -3.14076,-4.47544 -4.45703,-7.00391 -1.31628,-2.52847 -2.49146,-5.29485 -3.37305,-7.79883 -0.8816,-2.50397 -1.46874,-4.74609 -1.99219,-7.0664 -0.52345,-2.32032 -0.98305,-4.72028 -1.21875,-7.9375 -0.2357,-3.21722 -0.24658,-7.25043 -0.008,-10.99415 0.23877,-3.74371 0.72721,-7.19686 1.39453,-10.20898 0.66732,-3.01211 1.51258,-5.58284 2.4707,-7.99805 0.95813,-2.4152 2.02997,-4.67425 3.12891,-6.73437 1.09893,-2.06012 2.22508,-3.92123 3.35156,-5.57422 1.12648,-1.65299 2.25235,-3.09771 2.92578,-3.96094 0.67344,-0.86322 0.89367,-1.14551 1.09571,-1.30468 0.20203,-0.15918 0.38719,-0.19549 2.78711,2.17382 2.39991,2.36932 7.01455,7.14362 9.45117,9.53125 2.43661,2.38764 2.69321,2.38815 3.06054,2.08203 0.36734,-0.30611 0.84631,-0.91921 0.96875,-1.39062 0.12245,-0.47141 -0.1115,-0.80182 -2.92773,-3.73438 -2.81623,-2.93255 -8.21416,-8.46634 -11.00586,-11.34375 -2.7917,-2.8774 -2.97589,-3.09781 -3.03711,-3.36718 -0.0612,-0.26938 -3e-5,-0.58787 0.72852,-1.31641 0.72854,-0.72854 2.12377,-1.86709 2.92578,-2.46094 0.802,-0.59384 1.01123,-0.64224 1.25,-0.51367 0.23876,0.12857 0.507,0.43414 3.16406,3.28711 2.65706,2.85297 7.70172,8.25311 10.32812,11.00195 2.62641,2.74885 2.83554,2.84646 3.20899,2.60157 0.37345,-0.24489 0.91163,-0.83302 1.15039,-1.31055 0.23876,-0.47753 0.17761,-0.84534 -1.77539,-3.03711 -1.953,-2.19177 -5.79768,-6.20659 -7.78125,-8.35547 -1.98358,-2.14887 -2.106,-2.43153 -2.09375,-2.70703 0.0122,-0.2755 0.15956,-0.54448 1.31055,-1.32812 1.15098,-0.78365 3.30434,-2.08063 5.81445,-3.3418 2.51011,-1.26118 5.37658,-2.48567 7.97851,-3.50196 2.60194,-1.01628 4.93957,-1.82595 7.30274,-2.37695 2.36317,-0.55099 4.75079,-0.8442 7.68945,-1.01562 1.46933,-0.0857 3.07604,-0.14121 4.67774,-0.15039 z m -43.68164,0.0684 c 0.37804,-0.0329 0.7075,-0.006 0.99218,0.0644 0.56937,0.14081 0.96188,0.4579 1.21289,0.89258 0.25101,0.43467 0.35994,0.9857 0.25586,1.59179 -0.10407,0.6061 -0.42274,1.26715 -0.85742,2.05078 -0.43467,0.78364 -0.98461,1.69132 -1.70703,2.60352 -0.72241,0.91221 -1.61694,1.82938 -2.57812,2.61914 -0.96119,0.78977 -1.98958,1.45223 -3.00586,2.06445 -1.01629,0.61223 -2.01932,1.17433 -2.88868,1.57227 -0.86935,0.39794 -1.60475,0.6303 -2.07617,0.73438 -0.47141,0.10407 -0.67976,0.0797 -0.81445,-0.0488 -0.13469,-0.12857 -0.19621,-0.36171 -0.2207,-0.7168 -0.0245,-0.35509 -0.0121,-0.83117 0.043,-1.35156 0.0551,-0.52039 0.15291,-1.08373 0.36718,-1.72657 0.21428,-0.64283 0.54632,-1.36558 0.96875,-2.13085 0.42243,-0.76528 0.93623,-1.57446 1.19336,-1.97852 0.25713,-0.40406 0.2573,-0.40325 0.58789,-0.74609 0.3306,-0.34284 0.991,-1.02826 1.70117,-1.68946 0.71018,-0.66119 1.4702,-1.29715 2.4375,-1.92773 0.96731,-0.63059 2.14234,-1.25534 3.10352,-1.58594 0.48059,-0.1653 0.90711,-0.25811 1.28516,-0.29101 z m 90.76757,105.20703 c 0.19048,-0.0173 0.37353,0.0595 1.14844,0.83007 0.77491,0.77058 2.14205,2.23415 3.10742,3.31641 0.96538,1.08226 1.52842,1.78424 2.27735,2.85352 0.74892,1.06928 1.68409,2.50662 2.45898,3.71875 0.7749,1.21213 1.38959,2.19792 1.74024,2.95117 0.35065,0.75325 0.43791,1.27415 0.43359,1.54687 -0.004,0.27272 -0.10041,0.29748 -1.25195,-0.30859 -1.15154,-0.60607 -3.3599,-1.84445 -4.81446,-2.69727 -1.45455,-0.85282 -2.15581,-1.31975 -3.58007,-2.44531 -1.42427,-1.12556 -3.57003,-2.9092 -4.7129,-3.8789 -1.14286,-0.9697 -1.28209,-1.1245 -1.27343,-1.34961 0.009,-0.22512 0.16426,-0.52079 0.24219,-0.66797 0.0779,-0.14719 0.0788,-0.14648 0.67187,-0.72657 0.59307,-0.58008 1.77806,-1.74058 2.4707,-2.37695 0.69265,-0.63636 0.89156,-0.74831 1.08203,-0.76562 z m -89.20312,3.71875 c 0.11526,-0.0292 0.18702,0.003 0.25195,0.0352 0.12988,0.0649 0.23314,0.13344 0.92578,0.62696 0.69265,0.49351 1.9748,1.4104 2.63282,2.00781 0.65802,0.59741 0.69117,0.87516 -0.0664,1.85351 -0.75758,0.97836 -2.30719,2.6586 -3.44141,3.81446 -1.13421,1.15586 -1.85302,1.78659 -2.91797,2.59179 -1.06494,0.8052 -2.4759,1.78513 -3.5625,2.5254 -1.08659,0.74026 -1.84792,1.24136 -2.28515,1.50976 -0.43723,0.2684 -0.54899,0.30324 -0.52735,0.0781 0.0217,-0.22512 0.17597,-0.70954 0.41407,-1.42383 0.23809,-0.71429 0.55976,-1.65868 0.92773,-2.59375 0.36797,-0.93508 0.78315,-1.86106 1.26367,-2.84375 0.48053,-0.98269 1.02532,-2.02265 1.66602,-2.97071 0.64069,-0.94806 1.37787,-1.80479 2.14844,-2.68359 0.77057,-0.87879 1.57417,-1.7793 2.05468,-2.19922 0.24026,-0.20996 0.40037,-0.2989 0.51563,-0.32812 z"
       inkscape:label="copper" />
  </g>
</svg>
