%TF.GenerationSoftware,KiCad,Pcbnew,10.0.4*%
%TF.CreationDate,2026-06-29T14:55:21+02:00*%
%TF.ProjectId,knit_yarn_badge_v3,6b6e6974-5f79-4617-926e-5f6261646765,rev?*%
%TF.SameCoordinates,Original*%
%TF.FileFunction,Legend,Bot*%
%TF.FilePolarity,Positive*%
%FSLAX46Y46*%
G04 Gerber Fmt 4.6, Leading zero omitted, Abs format (unit mm)*
G04 Created by KiCad (PCBNEW 10.0.4) date 2026-06-29 14:55:21*
%MOMM*%
%LPD*%
G01*
G04 APERTURE LIST*
%ADD10C,0.212500*%
%ADD11C,0.120000*%
G04 APERTURE END LIST*
D10*
X100998293Y-79980903D02*
X100431626Y-81680903D01*
X100431626Y-81680903D02*
X99864959Y-79980903D01*
X99460197Y-79980903D02*
X98407816Y-79980903D01*
X98407816Y-79980903D02*
X98974483Y-80628522D01*
X98974483Y-80628522D02*
X98731626Y-80628522D01*
X98731626Y-80628522D02*
X98569721Y-80709474D01*
X98569721Y-80709474D02*
X98488769Y-80790427D01*
X98488769Y-80790427D02*
X98407816Y-80952331D01*
X98407816Y-80952331D02*
X98407816Y-81357093D01*
X98407816Y-81357093D02*
X98488769Y-81518998D01*
X98488769Y-81518998D02*
X98569721Y-81599951D01*
X98569721Y-81599951D02*
X98731626Y-81680903D01*
X98731626Y-81680903D02*
X99217340Y-81680903D01*
X99217340Y-81680903D02*
X99379245Y-81599951D01*
X99379245Y-81599951D02*
X99460197Y-81518998D01*
%TO.C,R2*%
D11*
X86865000Y-96772936D02*
X86865000Y-97227064D01*
X88335000Y-96772936D02*
X88335000Y-97227064D01*
%TO.C,R4*%
X85265000Y-85427064D02*
X85265000Y-84972936D01*
X86735000Y-85427064D02*
X86735000Y-84972936D01*
%TO.C,D5*%
X105515000Y-79290000D02*
X105515000Y-81210000D01*
X105515000Y-81210000D02*
X108375000Y-81210000D01*
X108375000Y-79290000D02*
X105515000Y-79290000D01*
%TO.C,R6*%
X89135000Y-81827064D02*
X89135000Y-81372936D01*
X87665000Y-81827064D02*
X87665000Y-81372936D01*
%TO.C,D4*%
X86971716Y-76885929D02*
X88994041Y-74863604D01*
X87636396Y-73505959D02*
X85614071Y-75528284D01*
X88994041Y-74863604D02*
X87636396Y-73505959D01*
%TO.C,R3*%
X112465000Y-85427064D02*
X112465000Y-84972936D01*
X113935000Y-85427064D02*
X113935000Y-84972936D01*
%TO.C,D1*%
X111239071Y-102971716D02*
X113261396Y-104994041D01*
X113261396Y-104994041D02*
X114619041Y-103636396D01*
X114619041Y-103636396D02*
X112596716Y-101614071D01*
%TO.C,R5*%
X109865000Y-81827064D02*
X109865000Y-81372936D01*
X111335000Y-81827064D02*
X111335000Y-81372936D01*
%TO.C,D3*%
X109887241Y-73494886D02*
X111909566Y-75517211D01*
X111244886Y-72137241D02*
X109887241Y-73494886D01*
X113267211Y-74159566D02*
X111244886Y-72137241D01*
%TO.C,D2*%
X86255959Y-104636396D02*
X87613604Y-105994041D01*
X87613604Y-105994041D02*
X89635929Y-103971716D01*
X88278284Y-102614071D02*
X86255959Y-104636396D01*
%TO.C,D6*%
X90625000Y-81460000D02*
X93485000Y-81460000D01*
X93485000Y-79540000D02*
X90625000Y-79540000D01*
X93485000Y-81460000D02*
X93485000Y-79540000D01*
%TO.C,BT1*%
X84450000Y-88250000D02*
X89250000Y-88250000D01*
X84450000Y-93750000D02*
X84450000Y-88250000D01*
X89250000Y-93750000D02*
X84450000Y-93750000D01*
X110750000Y-88250000D02*
X115550000Y-88250000D01*
X115550000Y-88250000D02*
X115550000Y-93750000D01*
X115550000Y-93750000D02*
X110750000Y-93750000D01*
%TO.C,R1*%
X112935000Y-96772936D02*
X112935000Y-97227064D01*
X111465000Y-96772936D02*
X111465000Y-97227064D01*
%TD*%
M02*
