%TF.GenerationSoftware,KiCad,Pcbnew,9.0.6*%
%TF.CreationDate,2025-12-04T01:13:43+01:00*%
%TF.ProjectId,knit_yarn_badge_v2,6b6e6974-5f79-4617-926e-5f6261646765,rev?*%
%TF.SameCoordinates,Original*%
%TF.FileFunction,Soldermask,Bot*%
%TF.FilePolarity,Negative*%
%FSLAX46Y46*%
G04 Gerber Fmt 4.6, Leading zero omitted, Abs format (unit mm)*
G04 Created by KiCad (PCBNEW 9.0.6) date 2025-12-04 01:13:43*
%MOMM*%
%LPD*%
G01*
G04 APERTURE LIST*
G04 Aperture macros list*
%AMRoundRect*
0 Rectangle with rounded corners*
0 $1 Rounding radius*
0 $2 $3 $4 $5 $6 $7 $8 $9 X,Y pos of 4 corners*
0 Add a 4 corners polygon primitive as box body*
4,1,4,$2,$3,$4,$5,$6,$7,$8,$9,$2,$3,0*
0 Add four circle primitives for the rounded corners*
1,1,$1+$1,$2,$3*
1,1,$1+$1,$4,$5*
1,1,$1+$1,$6,$7*
1,1,$1+$1,$8,$9*
0 Add four rect primitives between the rounded corners*
20,1,$1+$1,$2,$3,$4,$5,0*
20,1,$1+$1,$4,$5,$6,$7,0*
20,1,$1+$1,$6,$7,$8,$9,0*
20,1,$1+$1,$8,$9,$2,$3,0*%
G04 Aperture macros list end*
%ADD10C,0.100000*%
%ADD11C,0.000000*%
%ADD12C,0.156250*%
%ADD13RoundRect,0.750000X1.750000X1.750000X-1.750000X1.750000X-1.750000X-1.750000X1.750000X-1.750000X0*%
%ADD14RoundRect,0.237500X0.344715X-0.008839X-0.008839X0.344715X-0.344715X0.008839X0.008839X-0.344715X0*%
%ADD15RoundRect,0.237500X-0.287500X-0.237500X0.287500X-0.237500X0.287500X0.237500X-0.287500X0.237500X0*%
%ADD16RoundRect,0.237500X0.035355X0.371231X-0.371231X-0.035355X-0.035355X-0.371231X0.371231X0.035355X0*%
%ADD17RoundRect,0.237500X-0.008839X-0.344715X0.344715X0.008839X0.008839X0.344715X-0.344715X-0.008839X0*%
%ADD18RoundRect,0.237500X0.371231X-0.035355X-0.035355X0.371231X-0.371231X0.035355X0.035355X-0.371231X0*%
%ADD19RoundRect,0.237500X-0.371231X0.035355X0.035355X-0.371231X0.371231X-0.035355X-0.035355X0.371231X0*%
%ADD20RoundRect,0.237500X-0.035355X-0.371231X0.371231X0.035355X0.035355X0.371231X-0.371231X-0.035355X0*%
%ADD21RoundRect,0.237500X0.287500X0.237500X-0.287500X0.237500X-0.287500X-0.237500X0.287500X-0.237500X0*%
%ADD22R,5.100000X5.100000*%
%ADD23C,17.800000*%
G04 APERTURE END LIST*
D10*
X112305252Y-101343925D02*
X112312597Y-101344798D01*
X112326979Y-101348123D01*
X112341225Y-101353390D01*
X112355667Y-101360402D01*
X112370632Y-101368959D01*
X112386409Y-101378905D01*
X112403105Y-101390248D01*
X112420789Y-101403039D01*
X112439526Y-101417326D01*
X112459383Y-101433161D01*
X112480426Y-101450593D01*
X112502722Y-101469671D01*
X112526337Y-101490446D01*
X112577792Y-101537285D01*
X112635321Y-101591508D01*
X112699456Y-101653514D01*
X112770729Y-101723701D01*
X112934039Y-101887645D01*
X113115647Y-102073682D01*
X113303177Y-102269590D01*
X113484255Y-102463142D01*
X113568861Y-102555595D01*
X113649337Y-102645144D01*
X113726264Y-102732527D01*
X113800219Y-102818487D01*
X113871783Y-102903764D01*
X113941535Y-102989097D01*
X114010053Y-103075228D01*
X114077917Y-103162897D01*
X114145576Y-103252650D01*
X114212969Y-103344243D01*
X114279906Y-103437241D01*
X114346198Y-103531205D01*
X114476087Y-103720293D01*
X114601116Y-103908016D01*
X114719857Y-104091319D01*
X114831233Y-104268929D01*
X114883850Y-104355338D01*
X114934256Y-104440010D01*
X114982327Y-104522839D01*
X115027939Y-104603723D01*
X115070978Y-104682521D01*
X115111359Y-104758947D01*
X115149007Y-104832677D01*
X115183845Y-104903388D01*
X115215799Y-104970759D01*
X115244791Y-105034466D01*
X115270746Y-105094187D01*
X115293589Y-105149599D01*
X115313290Y-105200487D01*
X115330020Y-105247077D01*
X115343998Y-105289700D01*
X115355443Y-105328688D01*
X115364572Y-105364372D01*
X115371604Y-105397086D01*
X115376758Y-105427162D01*
X115380251Y-105454931D01*
X115381434Y-105468047D01*
X115382246Y-105480668D01*
X115382676Y-105492791D01*
X115382715Y-105504412D01*
X115382351Y-105515531D01*
X115381573Y-105526145D01*
X115380371Y-105536250D01*
X115378733Y-105545845D01*
X115376649Y-105554928D01*
X115374109Y-105563496D01*
X115371101Y-105571547D01*
X115367614Y-105579077D01*
X115363638Y-105586086D01*
X115359163Y-105592570D01*
X115354176Y-105598528D01*
X115348667Y-105603956D01*
X115345708Y-105606466D01*
X115342570Y-105608816D01*
X115339207Y-105610979D01*
X115335573Y-105612927D01*
X115331623Y-105614633D01*
X115327310Y-105616070D01*
X115322588Y-105617210D01*
X115317411Y-105618026D01*
X115311734Y-105618492D01*
X115305510Y-105618578D01*
X115298693Y-105618259D01*
X115291238Y-105617507D01*
X115283098Y-105616295D01*
X115274228Y-105614595D01*
X115264581Y-105612380D01*
X115254112Y-105609623D01*
X115242774Y-105606296D01*
X115230522Y-105602373D01*
X115217310Y-105597826D01*
X115203091Y-105592627D01*
X115187820Y-105586750D01*
X115171451Y-105580167D01*
X115153937Y-105572850D01*
X115135233Y-105564773D01*
X115115293Y-105555909D01*
X115094070Y-105546229D01*
X115071520Y-105535707D01*
X115047595Y-105524315D01*
X115022250Y-105512027D01*
X114995439Y-105498814D01*
X114967116Y-105484650D01*
X114937235Y-105469507D01*
X114802613Y-105399403D01*
X114647805Y-105316269D01*
X114299534Y-105123170D01*
X113936229Y-104914734D01*
X113762629Y-104812427D01*
X113601698Y-104715482D01*
X113457251Y-104625972D01*
X113326444Y-104541985D01*
X113204766Y-104460618D01*
X113087711Y-104378967D01*
X112970770Y-104294126D01*
X112849433Y-104203192D01*
X112575541Y-103991424D01*
X112243439Y-103730152D01*
X111884386Y-103444738D01*
X111543102Y-103170258D01*
X111264305Y-102941787D01*
X111160858Y-102854631D01*
X111081052Y-102785299D01*
X111021728Y-102731342D01*
X110979724Y-102690312D01*
X110964230Y-102673879D01*
X110951882Y-102659759D01*
X110942283Y-102647646D01*
X110935039Y-102637235D01*
X110929755Y-102628219D01*
X110926036Y-102620291D01*
X110921713Y-102606479D01*
X110920380Y-102600037D01*
X110919397Y-102593774D01*
X110918734Y-102587702D01*
X110918362Y-102581829D01*
X110918250Y-102576164D01*
X110918369Y-102570718D01*
X110918690Y-102565500D01*
X110919183Y-102560519D01*
X110919818Y-102555784D01*
X110920566Y-102551306D01*
X110922282Y-102543155D01*
X110924093Y-102536143D01*
X110925762Y-102530345D01*
X110926527Y-102527875D01*
X110926972Y-102526664D01*
X110927512Y-102525418D01*
X110928186Y-102524099D01*
X110929033Y-102522667D01*
X110930094Y-102521084D01*
X110931406Y-102519312D01*
X110933011Y-102517312D01*
X110934947Y-102515046D01*
X110937254Y-102512474D01*
X110939970Y-102509559D01*
X110943137Y-102506262D01*
X110946793Y-102502545D01*
X110950977Y-102498368D01*
X110955729Y-102493693D01*
X110961088Y-102488482D01*
X110967095Y-102482697D01*
X110973788Y-102476298D01*
X110981206Y-102469247D01*
X110998378Y-102453035D01*
X111018927Y-102433753D01*
X111043168Y-102411092D01*
X111071416Y-102384745D01*
X111141198Y-102319755D01*
X111141197Y-102319757D01*
X111141197Y-102319758D01*
X111141197Y-102319760D01*
X111141197Y-102319762D01*
X111141197Y-102319763D01*
X111141196Y-102319765D01*
X111141196Y-102319768D01*
X111141195Y-102319771D01*
X111141194Y-102319774D01*
X111141194Y-102319775D01*
X111141194Y-102319777D01*
X111141194Y-102319778D01*
X111141194Y-102319780D01*
X111566799Y-101925660D01*
X111804735Y-101709200D01*
X111913576Y-101612098D01*
X112009415Y-101528501D01*
X112051145Y-101493066D01*
X112088782Y-101461951D01*
X112122656Y-101434957D01*
X112153096Y-101411887D01*
X112180433Y-101392543D01*
X112204996Y-101376725D01*
X112227115Y-101364237D01*
X112247120Y-101354880D01*
X112265341Y-101348455D01*
X112273886Y-101346281D01*
X112282108Y-101344766D01*
X112290049Y-101343884D01*
X112297750Y-101343612D01*
X112305252Y-101343925D01*
G36*
X112305252Y-101343925D02*
G01*
X112312597Y-101344798D01*
X112326979Y-101348123D01*
X112341225Y-101353390D01*
X112355667Y-101360402D01*
X112370632Y-101368959D01*
X112386409Y-101378905D01*
X112403105Y-101390248D01*
X112420789Y-101403039D01*
X112439526Y-101417326D01*
X112459383Y-101433161D01*
X112480426Y-101450593D01*
X112502722Y-101469671D01*
X112526337Y-101490446D01*
X112577792Y-101537285D01*
X112635321Y-101591508D01*
X112699456Y-101653514D01*
X112770729Y-101723701D01*
X112934039Y-101887645D01*
X113115647Y-102073682D01*
X113303177Y-102269590D01*
X113484255Y-102463142D01*
X113568861Y-102555595D01*
X113649337Y-102645144D01*
X113726264Y-102732527D01*
X113800219Y-102818487D01*
X113871783Y-102903764D01*
X113941535Y-102989097D01*
X114010053Y-103075228D01*
X114077917Y-103162897D01*
X114145576Y-103252650D01*
X114212969Y-103344243D01*
X114279906Y-103437241D01*
X114346198Y-103531205D01*
X114476087Y-103720293D01*
X114601116Y-103908016D01*
X114719857Y-104091319D01*
X114831233Y-104268929D01*
X114883850Y-104355338D01*
X114934256Y-104440010D01*
X114982327Y-104522839D01*
X115027939Y-104603723D01*
X115070978Y-104682521D01*
X115111359Y-104758947D01*
X115149007Y-104832677D01*
X115183845Y-104903388D01*
X115215799Y-104970759D01*
X115244791Y-105034466D01*
X115270746Y-105094187D01*
X115293589Y-105149599D01*
X115313290Y-105200487D01*
X115330020Y-105247077D01*
X115343998Y-105289700D01*
X115355443Y-105328688D01*
X115364572Y-105364372D01*
X115371604Y-105397086D01*
X115376758Y-105427162D01*
X115380251Y-105454931D01*
X115381434Y-105468047D01*
X115382246Y-105480668D01*
X115382676Y-105492791D01*
X115382715Y-105504412D01*
X115382351Y-105515531D01*
X115381573Y-105526145D01*
X115380371Y-105536250D01*
X115378733Y-105545845D01*
X115376649Y-105554928D01*
X115374109Y-105563496D01*
X115371101Y-105571547D01*
X115367614Y-105579077D01*
X115363638Y-105586086D01*
X115359163Y-105592570D01*
X115354176Y-105598528D01*
X115348667Y-105603956D01*
X115345708Y-105606466D01*
X115342570Y-105608816D01*
X115339207Y-105610979D01*
X115335573Y-105612927D01*
X115331623Y-105614633D01*
X115327310Y-105616070D01*
X115322588Y-105617210D01*
X115317411Y-105618026D01*
X115311734Y-105618492D01*
X115305510Y-105618578D01*
X115298693Y-105618259D01*
X115291238Y-105617507D01*
X115283098Y-105616295D01*
X115274228Y-105614595D01*
X115264581Y-105612380D01*
X115254112Y-105609623D01*
X115242774Y-105606296D01*
X115230522Y-105602373D01*
X115217310Y-105597826D01*
X115203091Y-105592627D01*
X115187820Y-105586750D01*
X115171451Y-105580167D01*
X115153937Y-105572850D01*
X115135233Y-105564773D01*
X115115293Y-105555909D01*
X115094070Y-105546229D01*
X115071520Y-105535707D01*
X115047595Y-105524315D01*
X115022250Y-105512027D01*
X114995439Y-105498814D01*
X114967116Y-105484650D01*
X114937235Y-105469507D01*
X114802613Y-105399403D01*
X114647805Y-105316269D01*
X114299534Y-105123170D01*
X113936229Y-104914734D01*
X113762629Y-104812427D01*
X113601698Y-104715482D01*
X113457251Y-104625972D01*
X113326444Y-104541985D01*
X113204766Y-104460618D01*
X113087711Y-104378967D01*
X112970770Y-104294126D01*
X112849433Y-104203192D01*
X112575541Y-103991424D01*
X112243439Y-103730152D01*
X111884386Y-103444738D01*
X111543102Y-103170258D01*
X111264305Y-102941787D01*
X111160858Y-102854631D01*
X111081052Y-102785299D01*
X111021728Y-102731342D01*
X110979724Y-102690312D01*
X110964230Y-102673879D01*
X110951882Y-102659759D01*
X110942283Y-102647646D01*
X110935039Y-102637235D01*
X110929755Y-102628219D01*
X110926036Y-102620291D01*
X110921713Y-102606479D01*
X110920380Y-102600037D01*
X110919397Y-102593774D01*
X110918734Y-102587702D01*
X110918362Y-102581829D01*
X110918250Y-102576164D01*
X110918369Y-102570718D01*
X110918690Y-102565500D01*
X110919183Y-102560519D01*
X110919818Y-102555784D01*
X110920566Y-102551306D01*
X110922282Y-102543155D01*
X110924093Y-102536143D01*
X110925762Y-102530345D01*
X110926527Y-102527875D01*
X110926972Y-102526664D01*
X110927512Y-102525418D01*
X110928186Y-102524099D01*
X110929033Y-102522667D01*
X110930094Y-102521084D01*
X110931406Y-102519312D01*
X110933011Y-102517312D01*
X110934947Y-102515046D01*
X110937254Y-102512474D01*
X110939970Y-102509559D01*
X110943137Y-102506262D01*
X110946793Y-102502545D01*
X110950977Y-102498368D01*
X110955729Y-102493693D01*
X110961088Y-102488482D01*
X110967095Y-102482697D01*
X110973788Y-102476298D01*
X110981206Y-102469247D01*
X110998378Y-102453035D01*
X111018927Y-102433753D01*
X111043168Y-102411092D01*
X111071416Y-102384745D01*
X111141198Y-102319755D01*
X111141197Y-102319757D01*
X111141197Y-102319758D01*
X111141197Y-102319760D01*
X111141197Y-102319762D01*
X111141197Y-102319763D01*
X111141196Y-102319765D01*
X111141196Y-102319768D01*
X111141195Y-102319771D01*
X111141194Y-102319774D01*
X111141194Y-102319775D01*
X111141194Y-102319777D01*
X111141194Y-102319778D01*
X111141194Y-102319780D01*
X111566799Y-101925660D01*
X111804735Y-101709200D01*
X111913576Y-101612098D01*
X112009415Y-101528501D01*
X112051145Y-101493066D01*
X112088782Y-101461951D01*
X112122656Y-101434957D01*
X112153096Y-101411887D01*
X112180433Y-101392543D01*
X112204996Y-101376725D01*
X112227115Y-101364237D01*
X112247120Y-101354880D01*
X112265341Y-101348455D01*
X112273886Y-101346281D01*
X112282108Y-101344766D01*
X112290049Y-101343884D01*
X112297750Y-101343612D01*
X112305252Y-101343925D01*
G37*
X88749252Y-102281286D02*
X88762026Y-102282409D01*
X88775040Y-102284616D01*
X88788357Y-102287896D01*
X88802042Y-102292240D01*
X88816159Y-102297637D01*
X88830772Y-102304077D01*
X88845945Y-102311548D01*
X88861742Y-102320041D01*
X88895464Y-102340052D01*
X88932451Y-102364025D01*
X88973216Y-102391878D01*
X89066708Y-102458439D01*
X89172935Y-102536826D01*
X89287476Y-102623680D01*
X89405907Y-102715639D01*
X89523807Y-102809344D01*
X89636753Y-102901435D01*
X89740322Y-102988553D01*
X89830092Y-103067336D01*
X89868508Y-103102704D01*
X89902344Y-103135622D01*
X89917538Y-103151312D01*
X89931577Y-103166567D01*
X89944460Y-103181447D01*
X89956184Y-103196011D01*
X89966744Y-103210320D01*
X89976139Y-103224431D01*
X89984366Y-103238405D01*
X89991420Y-103252300D01*
X89997301Y-103266177D01*
X90002004Y-103280094D01*
X90005526Y-103294110D01*
X90007865Y-103308286D01*
X90009017Y-103322679D01*
X90008981Y-103337351D01*
X90007752Y-103352359D01*
X90005327Y-103367764D01*
X90001705Y-103383624D01*
X89996881Y-103399999D01*
X89990853Y-103416948D01*
X89983617Y-103434531D01*
X89975172Y-103452807D01*
X89965514Y-103471834D01*
X89954639Y-103491674D01*
X89942546Y-103512384D01*
X89914690Y-103556654D01*
X89881922Y-103605119D01*
X89802159Y-103715241D01*
X89706071Y-103840093D01*
X89597075Y-103975726D01*
X89478589Y-104118192D01*
X89354029Y-104263544D01*
X89226811Y-104407832D01*
X89100352Y-104547109D01*
X88978069Y-104677427D01*
X88862289Y-104795974D01*
X88750990Y-104904479D01*
X88641058Y-105005809D01*
X88529379Y-105102831D01*
X88412841Y-105198410D01*
X88288329Y-105295413D01*
X88152732Y-105396705D01*
X88002935Y-105505155D01*
X87659711Y-105746382D01*
X87290826Y-105998996D01*
X86939860Y-106234299D01*
X86650395Y-106423589D01*
X86540922Y-106492958D01*
X86454626Y-106545735D01*
X86388413Y-106584010D01*
X86339189Y-106609869D01*
X86319980Y-106618796D01*
X86303859Y-106625403D01*
X86290438Y-106629949D01*
X86279330Y-106632697D01*
X86270150Y-106633908D01*
X86262509Y-106633842D01*
X86256021Y-106632761D01*
X86250301Y-106630926D01*
X86247614Y-106629801D01*
X86245021Y-106628560D01*
X86242519Y-106627209D01*
X86240107Y-106625755D01*
X86237783Y-106624206D01*
X86235544Y-106622567D01*
X86233390Y-106620846D01*
X86231318Y-106619050D01*
X86229327Y-106617185D01*
X86227415Y-106615258D01*
X86225580Y-106613276D01*
X86223821Y-106611246D01*
X86220520Y-106607067D01*
X86217500Y-106602778D01*
X86214745Y-106598432D01*
X86212242Y-106594083D01*
X86209976Y-106589787D01*
X86207933Y-106585597D01*
X86206099Y-106581569D01*
X86204459Y-106577756D01*
X86201707Y-106570997D01*
X86201122Y-106569514D01*
X86200597Y-106568056D01*
X86200156Y-106566549D01*
X86199973Y-106565756D01*
X86199820Y-106564924D01*
X86199699Y-106564044D01*
X86199613Y-106563109D01*
X86199564Y-106562108D01*
X86199556Y-106561032D01*
X86199591Y-106559874D01*
X86199672Y-106558624D01*
X86199802Y-106557272D01*
X86199984Y-106555811D01*
X86200221Y-106554232D01*
X86200515Y-106552524D01*
X86200869Y-106550681D01*
X86201286Y-106548692D01*
X86202320Y-106544242D01*
X86203641Y-106539104D01*
X86205270Y-106533207D01*
X86207230Y-106526479D01*
X86209544Y-106518849D01*
X86212233Y-106510247D01*
X86215322Y-106500601D01*
X86218831Y-106489839D01*
X86222785Y-106477891D01*
X86227204Y-106464686D01*
X86232112Y-106450152D01*
X86237532Y-106434218D01*
X86249996Y-106397866D01*
X86264775Y-106355060D01*
X86282050Y-106305232D01*
X86324812Y-106182229D01*
X86443666Y-105842626D01*
X86595322Y-105421322D01*
X86678515Y-105198161D01*
X86763986Y-104976328D01*
X86849761Y-104763074D01*
X86933865Y-104565652D01*
X86974748Y-104474911D01*
X87014922Y-104389441D01*
X87054589Y-104308745D01*
X87093949Y-104232326D01*
X87133205Y-104159683D01*
X87172557Y-104090320D01*
X87212209Y-104023737D01*
X87252362Y-103959438D01*
X87334976Y-103835692D01*
X87422012Y-103715098D01*
X87515086Y-103593668D01*
X87615810Y-103467416D01*
X87840358Y-103194705D01*
X88077052Y-102916073D01*
X88300990Y-102660830D01*
X88400393Y-102551137D01*
X88487268Y-102458282D01*
X88525185Y-102419222D01*
X88559705Y-102385205D01*
X88591338Y-102356147D01*
X88606234Y-102343451D01*
X88620600Y-102331964D01*
X88634501Y-102321676D01*
X88648000Y-102312575D01*
X88661163Y-102304652D01*
X88674054Y-102297895D01*
X88686735Y-102292296D01*
X88699272Y-102287843D01*
X88711728Y-102284526D01*
X88724167Y-102282334D01*
X88736654Y-102281258D01*
X88749252Y-102281286D01*
G36*
X88749252Y-102281286D02*
G01*
X88762026Y-102282409D01*
X88775040Y-102284616D01*
X88788357Y-102287896D01*
X88802042Y-102292240D01*
X88816159Y-102297637D01*
X88830772Y-102304077D01*
X88845945Y-102311548D01*
X88861742Y-102320041D01*
X88895464Y-102340052D01*
X88932451Y-102364025D01*
X88973216Y-102391878D01*
X89066708Y-102458439D01*
X89172935Y-102536826D01*
X89287476Y-102623680D01*
X89405907Y-102715639D01*
X89523807Y-102809344D01*
X89636753Y-102901435D01*
X89740322Y-102988553D01*
X89830092Y-103067336D01*
X89868508Y-103102704D01*
X89902344Y-103135622D01*
X89917538Y-103151312D01*
X89931577Y-103166567D01*
X89944460Y-103181447D01*
X89956184Y-103196011D01*
X89966744Y-103210320D01*
X89976139Y-103224431D01*
X89984366Y-103238405D01*
X89991420Y-103252300D01*
X89997301Y-103266177D01*
X90002004Y-103280094D01*
X90005526Y-103294110D01*
X90007865Y-103308286D01*
X90009017Y-103322679D01*
X90008981Y-103337351D01*
X90007752Y-103352359D01*
X90005327Y-103367764D01*
X90001705Y-103383624D01*
X89996881Y-103399999D01*
X89990853Y-103416948D01*
X89983617Y-103434531D01*
X89975172Y-103452807D01*
X89965514Y-103471834D01*
X89954639Y-103491674D01*
X89942546Y-103512384D01*
X89914690Y-103556654D01*
X89881922Y-103605119D01*
X89802159Y-103715241D01*
X89706071Y-103840093D01*
X89597075Y-103975726D01*
X89478589Y-104118192D01*
X89354029Y-104263544D01*
X89226811Y-104407832D01*
X89100352Y-104547109D01*
X88978069Y-104677427D01*
X88862289Y-104795974D01*
X88750990Y-104904479D01*
X88641058Y-105005809D01*
X88529379Y-105102831D01*
X88412841Y-105198410D01*
X88288329Y-105295413D01*
X88152732Y-105396705D01*
X88002935Y-105505155D01*
X87659711Y-105746382D01*
X87290826Y-105998996D01*
X86939860Y-106234299D01*
X86650395Y-106423589D01*
X86540922Y-106492958D01*
X86454626Y-106545735D01*
X86388413Y-106584010D01*
X86339189Y-106609869D01*
X86319980Y-106618796D01*
X86303859Y-106625403D01*
X86290438Y-106629949D01*
X86279330Y-106632697D01*
X86270150Y-106633908D01*
X86262509Y-106633842D01*
X86256021Y-106632761D01*
X86250301Y-106630926D01*
X86247614Y-106629801D01*
X86245021Y-106628560D01*
X86242519Y-106627209D01*
X86240107Y-106625755D01*
X86237783Y-106624206D01*
X86235544Y-106622567D01*
X86233390Y-106620846D01*
X86231318Y-106619050D01*
X86229327Y-106617185D01*
X86227415Y-106615258D01*
X86225580Y-106613276D01*
X86223821Y-106611246D01*
X86220520Y-106607067D01*
X86217500Y-106602778D01*
X86214745Y-106598432D01*
X86212242Y-106594083D01*
X86209976Y-106589787D01*
X86207933Y-106585597D01*
X86206099Y-106581569D01*
X86204459Y-106577756D01*
X86201707Y-106570997D01*
X86201122Y-106569514D01*
X86200597Y-106568056D01*
X86200156Y-106566549D01*
X86199973Y-106565756D01*
X86199820Y-106564924D01*
X86199699Y-106564044D01*
X86199613Y-106563109D01*
X86199564Y-106562108D01*
X86199556Y-106561032D01*
X86199591Y-106559874D01*
X86199672Y-106558624D01*
X86199802Y-106557272D01*
X86199984Y-106555811D01*
X86200221Y-106554232D01*
X86200515Y-106552524D01*
X86200869Y-106550681D01*
X86201286Y-106548692D01*
X86202320Y-106544242D01*
X86203641Y-106539104D01*
X86205270Y-106533207D01*
X86207230Y-106526479D01*
X86209544Y-106518849D01*
X86212233Y-106510247D01*
X86215322Y-106500601D01*
X86218831Y-106489839D01*
X86222785Y-106477891D01*
X86227204Y-106464686D01*
X86232112Y-106450152D01*
X86237532Y-106434218D01*
X86249996Y-106397866D01*
X86264775Y-106355060D01*
X86282050Y-106305232D01*
X86324812Y-106182229D01*
X86443666Y-105842626D01*
X86595322Y-105421322D01*
X86678515Y-105198161D01*
X86763986Y-104976328D01*
X86849761Y-104763074D01*
X86933865Y-104565652D01*
X86974748Y-104474911D01*
X87014922Y-104389441D01*
X87054589Y-104308745D01*
X87093949Y-104232326D01*
X87133205Y-104159683D01*
X87172557Y-104090320D01*
X87212209Y-104023737D01*
X87252362Y-103959438D01*
X87334976Y-103835692D01*
X87422012Y-103715098D01*
X87515086Y-103593668D01*
X87615810Y-103467416D01*
X87840358Y-103194705D01*
X88077052Y-102916073D01*
X88300990Y-102660830D01*
X88400393Y-102551137D01*
X88487268Y-102458282D01*
X88525185Y-102419222D01*
X88559705Y-102385205D01*
X88591338Y-102356147D01*
X88606234Y-102343451D01*
X88620600Y-102331964D01*
X88634501Y-102321676D01*
X88648000Y-102312575D01*
X88661163Y-102304652D01*
X88674054Y-102297895D01*
X88686735Y-102292296D01*
X88699272Y-102287843D01*
X88711728Y-102284526D01*
X88724167Y-102282334D01*
X88736654Y-102281258D01*
X88749252Y-102281286D01*
G37*
X110100690Y-72352355D02*
X110117010Y-72352504D01*
X110167687Y-72353099D01*
X110167691Y-72353107D01*
X110247490Y-72354449D01*
X110296243Y-72355868D01*
X110349089Y-72358087D01*
X110404674Y-72361331D01*
X110461642Y-72365824D01*
X110518637Y-72371791D01*
X110574303Y-72379458D01*
X110601255Y-72383995D01*
X110627609Y-72389011D01*
X110653439Y-72394504D01*
X110678820Y-72400470D01*
X110703825Y-72406906D01*
X110728528Y-72413808D01*
X110777323Y-72428997D01*
X110825796Y-72446012D01*
X110874538Y-72464825D01*
X110924139Y-72485410D01*
X110975191Y-72507741D01*
X111028275Y-72531865D01*
X111083948Y-72558137D01*
X111142763Y-72586986D01*
X111205269Y-72618842D01*
X111272017Y-72654134D01*
X111343556Y-72693292D01*
X111420437Y-72736746D01*
X111503210Y-72784924D01*
X111592115Y-72838062D01*
X111686133Y-72895616D01*
X111783935Y-72956847D01*
X111884194Y-73021017D01*
X111985580Y-73087388D01*
X112086764Y-73155223D01*
X112186419Y-73223783D01*
X112283215Y-73292330D01*
X112376120Y-73360318D01*
X112465279Y-73427970D01*
X112551135Y-73495701D01*
X112634132Y-73563930D01*
X112714713Y-73633071D01*
X112793321Y-73703541D01*
X112870398Y-73775756D01*
X112946389Y-73850133D01*
X113021600Y-73926955D01*
X113095790Y-74005978D01*
X113168585Y-74086826D01*
X113239607Y-74169123D01*
X113308482Y-74252494D01*
X113374833Y-74336563D01*
X113438285Y-74420955D01*
X113498463Y-74505293D01*
X113555027Y-74589227D01*
X113607793Y-74672502D01*
X113656612Y-74754891D01*
X113701338Y-74836165D01*
X113741822Y-74916097D01*
X113777918Y-74994459D01*
X113809476Y-75071023D01*
X113823508Y-75108559D01*
X113836350Y-75145560D01*
X113847994Y-75181994D01*
X113858464Y-75217816D01*
X113867798Y-75252976D01*
X113876028Y-75287427D01*
X113883192Y-75321119D01*
X113889323Y-75354004D01*
X113894458Y-75386033D01*
X113898632Y-75417158D01*
X113901879Y-75447331D01*
X113904235Y-75476501D01*
X113905735Y-75504621D01*
X113906415Y-75531643D01*
X113906310Y-75557516D01*
X113905454Y-75582194D01*
X113903884Y-75605626D01*
X113901635Y-75627766D01*
X113898738Y-75648586D01*
X113895226Y-75668152D01*
X113891128Y-75686554D01*
X113886471Y-75703881D01*
X113881284Y-75720221D01*
X113875596Y-75735663D01*
X113869435Y-75750296D01*
X113862830Y-75764210D01*
X113855809Y-75777493D01*
X113848400Y-75790234D01*
X113840633Y-75802522D01*
X113832535Y-75814445D01*
X113815460Y-75837556D01*
X113797406Y-75860277D01*
X113778530Y-75883134D01*
X113758714Y-75905896D01*
X113748395Y-75917112D01*
X113737771Y-75928148D01*
X113726818Y-75938952D01*
X113715513Y-75949473D01*
X113703832Y-75959658D01*
X113691751Y-75969456D01*
X113679248Y-75978814D01*
X113666298Y-75987681D01*
X113652878Y-75996004D01*
X113638965Y-76003731D01*
X113624536Y-76010812D01*
X113609566Y-76017192D01*
X113594033Y-76022834D01*
X113577922Y-76027747D01*
X113561216Y-76031955D01*
X113543902Y-76035483D01*
X113525964Y-76038352D01*
X113507386Y-76040588D01*
X113488154Y-76042212D01*
X113468253Y-76043250D01*
X113447667Y-76043723D01*
X113426382Y-76043656D01*
X113404381Y-76043073D01*
X113381651Y-76041996D01*
X113358176Y-76040449D01*
X113333941Y-76038456D01*
X113283129Y-76033224D01*
X113229113Y-76026413D01*
X113171849Y-76017816D01*
X113111310Y-76007152D01*
X113047469Y-75994138D01*
X112980299Y-75978494D01*
X112909773Y-75959937D01*
X112835864Y-75938186D01*
X112758545Y-75912959D01*
X112677814Y-75883993D01*
X112593769Y-75851108D01*
X112506530Y-75814143D01*
X112416218Y-75772936D01*
X112322953Y-75727327D01*
X112226855Y-75677154D01*
X112128045Y-75622256D01*
X112026644Y-75562472D01*
X111922773Y-75497654D01*
X111816555Y-75427710D01*
X111708108Y-75352558D01*
X111597555Y-75272117D01*
X111485014Y-75186308D01*
X111370608Y-75095049D01*
X111254456Y-74998259D01*
X111136679Y-74895858D01*
X111017602Y-74788086D01*
X110898351Y-74676462D01*
X110780255Y-74562825D01*
X110664641Y-74449014D01*
X110446179Y-74228225D01*
X110253594Y-74028804D01*
X110170043Y-73941115D01*
X110095245Y-73860755D01*
X110028822Y-73786033D01*
X109998634Y-73750257D01*
X109970399Y-73715257D01*
X109944070Y-73680820D01*
X109919600Y-73646736D01*
X109896942Y-73612792D01*
X109876049Y-73578778D01*
X109856875Y-73544482D01*
X109839371Y-73509692D01*
X109823491Y-73474198D01*
X109809189Y-73437787D01*
X109796414Y-73400314D01*
X109785104Y-73361887D01*
X109775198Y-73322682D01*
X109766631Y-73282873D01*
X109759339Y-73242635D01*
X109753258Y-73202142D01*
X109748325Y-73161569D01*
X109744476Y-73121089D01*
X109741647Y-73080878D01*
X109739774Y-73041110D01*
X109738643Y-72963600D01*
X109740572Y-72889956D01*
X109745051Y-72821574D01*
X109748093Y-72789755D01*
X109751614Y-72759551D01*
X109755580Y-72730915D01*
X109759961Y-72703797D01*
X109764724Y-72678148D01*
X109769837Y-72653921D01*
X109775269Y-72631066D01*
X109780988Y-72609535D01*
X109786962Y-72589279D01*
X109793158Y-72570250D01*
X109806094Y-72535676D01*
X109819541Y-72505424D01*
X109833243Y-72479105D01*
X109840116Y-72467300D01*
X109846997Y-72456345D01*
X109853890Y-72446202D01*
X109860804Y-72436833D01*
X109867744Y-72428203D01*
X109874718Y-72420275D01*
X109881733Y-72413010D01*
X109888794Y-72406373D01*
X109895909Y-72400327D01*
X109903084Y-72394834D01*
X109910327Y-72389858D01*
X109917644Y-72385362D01*
X109925041Y-72381308D01*
X109932525Y-72377661D01*
X109940104Y-72374382D01*
X109947783Y-72371436D01*
X109955562Y-72368788D01*
X109963407Y-72366419D01*
X109971280Y-72364312D01*
X109979139Y-72362450D01*
X109986944Y-72360817D01*
X109994655Y-72359395D01*
X110009634Y-72357119D01*
X110023753Y-72355486D01*
X110036691Y-72354361D01*
X110057736Y-72353099D01*
X110065469Y-72352752D01*
X110072342Y-72352504D01*
X110079645Y-72352355D01*
X110088664Y-72352306D01*
X110100690Y-72352355D01*
G36*
X110100690Y-72352355D02*
G01*
X110117010Y-72352504D01*
X110167687Y-72353099D01*
X110167691Y-72353107D01*
X110247490Y-72354449D01*
X110296243Y-72355868D01*
X110349089Y-72358087D01*
X110404674Y-72361331D01*
X110461642Y-72365824D01*
X110518637Y-72371791D01*
X110574303Y-72379458D01*
X110601255Y-72383995D01*
X110627609Y-72389011D01*
X110653439Y-72394504D01*
X110678820Y-72400470D01*
X110703825Y-72406906D01*
X110728528Y-72413808D01*
X110777323Y-72428997D01*
X110825796Y-72446012D01*
X110874538Y-72464825D01*
X110924139Y-72485410D01*
X110975191Y-72507741D01*
X111028275Y-72531865D01*
X111083948Y-72558137D01*
X111142763Y-72586986D01*
X111205269Y-72618842D01*
X111272017Y-72654134D01*
X111343556Y-72693292D01*
X111420437Y-72736746D01*
X111503210Y-72784924D01*
X111592115Y-72838062D01*
X111686133Y-72895616D01*
X111783935Y-72956847D01*
X111884194Y-73021017D01*
X111985580Y-73087388D01*
X112086764Y-73155223D01*
X112186419Y-73223783D01*
X112283215Y-73292330D01*
X112376120Y-73360318D01*
X112465279Y-73427970D01*
X112551135Y-73495701D01*
X112634132Y-73563930D01*
X112714713Y-73633071D01*
X112793321Y-73703541D01*
X112870398Y-73775756D01*
X112946389Y-73850133D01*
X113021600Y-73926955D01*
X113095790Y-74005978D01*
X113168585Y-74086826D01*
X113239607Y-74169123D01*
X113308482Y-74252494D01*
X113374833Y-74336563D01*
X113438285Y-74420955D01*
X113498463Y-74505293D01*
X113555027Y-74589227D01*
X113607793Y-74672502D01*
X113656612Y-74754891D01*
X113701338Y-74836165D01*
X113741822Y-74916097D01*
X113777918Y-74994459D01*
X113809476Y-75071023D01*
X113823508Y-75108559D01*
X113836350Y-75145560D01*
X113847994Y-75181994D01*
X113858464Y-75217816D01*
X113867798Y-75252976D01*
X113876028Y-75287427D01*
X113883192Y-75321119D01*
X113889323Y-75354004D01*
X113894458Y-75386033D01*
X113898632Y-75417158D01*
X113901879Y-75447331D01*
X113904235Y-75476501D01*
X113905735Y-75504621D01*
X113906415Y-75531643D01*
X113906310Y-75557516D01*
X113905454Y-75582194D01*
X113903884Y-75605626D01*
X113901635Y-75627766D01*
X113898738Y-75648586D01*
X113895226Y-75668152D01*
X113891128Y-75686554D01*
X113886471Y-75703881D01*
X113881284Y-75720221D01*
X113875596Y-75735663D01*
X113869435Y-75750296D01*
X113862830Y-75764210D01*
X113855809Y-75777493D01*
X113848400Y-75790234D01*
X113840633Y-75802522D01*
X113832535Y-75814445D01*
X113815460Y-75837556D01*
X113797406Y-75860277D01*
X113778530Y-75883134D01*
X113758714Y-75905896D01*
X113748395Y-75917112D01*
X113737771Y-75928148D01*
X113726818Y-75938952D01*
X113715513Y-75949473D01*
X113703832Y-75959658D01*
X113691751Y-75969456D01*
X113679248Y-75978814D01*
X113666298Y-75987681D01*
X113652878Y-75996004D01*
X113638965Y-76003731D01*
X113624536Y-76010812D01*
X113609566Y-76017192D01*
X113594033Y-76022834D01*
X113577922Y-76027747D01*
X113561216Y-76031955D01*
X113543902Y-76035483D01*
X113525964Y-76038352D01*
X113507386Y-76040588D01*
X113488154Y-76042212D01*
X113468253Y-76043250D01*
X113447667Y-76043723D01*
X113426382Y-76043656D01*
X113404381Y-76043073D01*
X113381651Y-76041996D01*
X113358176Y-76040449D01*
X113333941Y-76038456D01*
X113283129Y-76033224D01*
X113229113Y-76026413D01*
X113171849Y-76017816D01*
X113111310Y-76007152D01*
X113047469Y-75994138D01*
X112980299Y-75978494D01*
X112909773Y-75959937D01*
X112835864Y-75938186D01*
X112758545Y-75912959D01*
X112677814Y-75883993D01*
X112593769Y-75851108D01*
X112506530Y-75814143D01*
X112416218Y-75772936D01*
X112322953Y-75727327D01*
X112226855Y-75677154D01*
X112128045Y-75622256D01*
X112026644Y-75562472D01*
X111922773Y-75497654D01*
X111816555Y-75427710D01*
X111708108Y-75352558D01*
X111597555Y-75272117D01*
X111485014Y-75186308D01*
X111370608Y-75095049D01*
X111254456Y-74998259D01*
X111136679Y-74895858D01*
X111017602Y-74788086D01*
X110898351Y-74676462D01*
X110780255Y-74562825D01*
X110664641Y-74449014D01*
X110446179Y-74228225D01*
X110253594Y-74028804D01*
X110170043Y-73941115D01*
X110095245Y-73860755D01*
X110028822Y-73786033D01*
X109998634Y-73750257D01*
X109970399Y-73715257D01*
X109944070Y-73680820D01*
X109919600Y-73646736D01*
X109896942Y-73612792D01*
X109876049Y-73578778D01*
X109856875Y-73544482D01*
X109839371Y-73509692D01*
X109823491Y-73474198D01*
X109809189Y-73437787D01*
X109796414Y-73400314D01*
X109785104Y-73361887D01*
X109775198Y-73322682D01*
X109766631Y-73282873D01*
X109759339Y-73242635D01*
X109753258Y-73202142D01*
X109748325Y-73161569D01*
X109744476Y-73121089D01*
X109741647Y-73080878D01*
X109739774Y-73041110D01*
X109738643Y-72963600D01*
X109740572Y-72889956D01*
X109745051Y-72821574D01*
X109748093Y-72789755D01*
X109751614Y-72759551D01*
X109755580Y-72730915D01*
X109759961Y-72703797D01*
X109764724Y-72678148D01*
X109769837Y-72653921D01*
X109775269Y-72631066D01*
X109780988Y-72609535D01*
X109786962Y-72589279D01*
X109793158Y-72570250D01*
X109806094Y-72535676D01*
X109819541Y-72505424D01*
X109833243Y-72479105D01*
X109840116Y-72467300D01*
X109846997Y-72456345D01*
X109853890Y-72446202D01*
X109860804Y-72436833D01*
X109867744Y-72428203D01*
X109874718Y-72420275D01*
X109881733Y-72413010D01*
X109888794Y-72406373D01*
X109895909Y-72400327D01*
X109903084Y-72394834D01*
X109910327Y-72389858D01*
X109917644Y-72385362D01*
X109925041Y-72381308D01*
X109932525Y-72377661D01*
X109940104Y-72374382D01*
X109947783Y-72371436D01*
X109955562Y-72368788D01*
X109963407Y-72366419D01*
X109971280Y-72364312D01*
X109979139Y-72362450D01*
X109986944Y-72360817D01*
X109994655Y-72359395D01*
X110009634Y-72357119D01*
X110023753Y-72355486D01*
X110036691Y-72354361D01*
X110057736Y-72353099D01*
X110065469Y-72352752D01*
X110072342Y-72352504D01*
X110079645Y-72352355D01*
X110088664Y-72352306D01*
X110100690Y-72352355D01*
G37*
D11*
G36*
X105768898Y-102367656D02*
G01*
X105778438Y-102368381D01*
X105787839Y-102369576D01*
X105797090Y-102371228D01*
X105806179Y-102373326D01*
X105815094Y-102375857D01*
X105823822Y-102378810D01*
X105832353Y-102382174D01*
X105840674Y-102385936D01*
X105848774Y-102390084D01*
X105856641Y-102394607D01*
X105864263Y-102399493D01*
X105871628Y-102404731D01*
X105878724Y-102410307D01*
X105885540Y-102416212D01*
X105892064Y-102422432D01*
X105898284Y-102428956D01*
X105904189Y-102435772D01*
X105909765Y-102442868D01*
X105915003Y-102450233D01*
X105919889Y-102457855D01*
X105924412Y-102465722D01*
X105928561Y-102473822D01*
X105932322Y-102482143D01*
X105935686Y-102490674D01*
X105938639Y-102499403D01*
X105941170Y-102508317D01*
X105943268Y-102517406D01*
X105944920Y-102526657D01*
X105946115Y-102536058D01*
X105946840Y-102545599D01*
X105947084Y-102555266D01*
X105946840Y-102564933D01*
X105946115Y-102574473D01*
X105944920Y-102583875D01*
X105943268Y-102593126D01*
X105941170Y-102602214D01*
X105938639Y-102611129D01*
X105935686Y-102619857D01*
X105932322Y-102628388D01*
X105928561Y-102636710D01*
X105924412Y-102644809D01*
X105919889Y-102652676D01*
X105915003Y-102660298D01*
X105909765Y-102667663D01*
X105904189Y-102674760D01*
X105898284Y-102681576D01*
X105892064Y-102688100D01*
X105885540Y-102694320D01*
X105878724Y-102700224D01*
X105871628Y-102705801D01*
X105864263Y-102711038D01*
X105856641Y-102715924D01*
X105848774Y-102720447D01*
X105840674Y-102724596D01*
X105832353Y-102728358D01*
X105823822Y-102731721D01*
X105815094Y-102734674D01*
X105806179Y-102737206D01*
X105797090Y-102739303D01*
X105787839Y-102740955D01*
X105778438Y-102742150D01*
X105768898Y-102742875D01*
X105759230Y-102743120D01*
X105749563Y-102742875D01*
X105740023Y-102742150D01*
X105730621Y-102740955D01*
X105721370Y-102739303D01*
X105712282Y-102737206D01*
X105703367Y-102734674D01*
X105694639Y-102731721D01*
X105686108Y-102728358D01*
X105677787Y-102724596D01*
X105669687Y-102720447D01*
X105661820Y-102715924D01*
X105654198Y-102711038D01*
X105646833Y-102705801D01*
X105639736Y-102700224D01*
X105632920Y-102694320D01*
X105626396Y-102688100D01*
X105620176Y-102681576D01*
X105614272Y-102674760D01*
X105608695Y-102667663D01*
X105603458Y-102660298D01*
X105598572Y-102652676D01*
X105594049Y-102644809D01*
X105589900Y-102636710D01*
X105586138Y-102628388D01*
X105582775Y-102619857D01*
X105579822Y-102611129D01*
X105577290Y-102602214D01*
X105575193Y-102593126D01*
X105573541Y-102583875D01*
X105572346Y-102574473D01*
X105571621Y-102564933D01*
X105571376Y-102555266D01*
X105571621Y-102545599D01*
X105572346Y-102536058D01*
X105573541Y-102526657D01*
X105575193Y-102517406D01*
X105577290Y-102508317D01*
X105579822Y-102499403D01*
X105582775Y-102490674D01*
X105586138Y-102482143D01*
X105589900Y-102473822D01*
X105594049Y-102465722D01*
X105598572Y-102457855D01*
X105603458Y-102450233D01*
X105608695Y-102442868D01*
X105614272Y-102435772D01*
X105620176Y-102428956D01*
X105626396Y-102422432D01*
X105632920Y-102416212D01*
X105639736Y-102410307D01*
X105646833Y-102404731D01*
X105654198Y-102399493D01*
X105661820Y-102394607D01*
X105669687Y-102390084D01*
X105677787Y-102385936D01*
X105686108Y-102382174D01*
X105694639Y-102378810D01*
X105703367Y-102375857D01*
X105712282Y-102373326D01*
X105721370Y-102371228D01*
X105730621Y-102369576D01*
X105740023Y-102368381D01*
X105749563Y-102367656D01*
X105759230Y-102367412D01*
X105768898Y-102367656D01*
G37*
G36*
X107433478Y-101409662D02*
G01*
X107448711Y-101410824D01*
X107463726Y-101412738D01*
X107478502Y-101415383D01*
X107493021Y-101418742D01*
X107507263Y-101422795D01*
X107521210Y-101427524D01*
X107534843Y-101432909D01*
X107548143Y-101438931D01*
X107561091Y-101445571D01*
X107573667Y-101452810D01*
X107585853Y-101460630D01*
X107597630Y-101469010D01*
X107608978Y-101477933D01*
X107619879Y-101487379D01*
X107630314Y-101497329D01*
X107640264Y-101507763D01*
X107649710Y-101518664D01*
X107658632Y-101530012D01*
X107667012Y-101541788D01*
X107674831Y-101553973D01*
X107682069Y-101566548D01*
X107688709Y-101579493D01*
X107694730Y-101592791D01*
X107700114Y-101606421D01*
X107704841Y-101620365D01*
X107708894Y-101634604D01*
X107712252Y-101649119D01*
X107714897Y-101663890D01*
X107716810Y-101678900D01*
X107717972Y-101694128D01*
X107718363Y-101709555D01*
X107717972Y-101724989D01*
X107716810Y-101740223D01*
X107714897Y-101755237D01*
X107712252Y-101770013D01*
X107708894Y-101784532D01*
X107704841Y-101798775D01*
X107700114Y-101812722D01*
X107694730Y-101826355D01*
X107688709Y-101839655D01*
X107682069Y-101852602D01*
X107674831Y-101865178D01*
X107667012Y-101877364D01*
X107658632Y-101889141D01*
X107649710Y-101900490D01*
X107640264Y-101911391D01*
X107630314Y-101921826D01*
X107619879Y-101931776D01*
X107608978Y-101941221D01*
X107597630Y-101950143D01*
X107585853Y-101958524D01*
X107573667Y-101966342D01*
X107561091Y-101973581D01*
X107548143Y-101980220D01*
X107534843Y-101986241D01*
X107521210Y-101991625D01*
X107507263Y-101996353D01*
X107493021Y-102000406D01*
X107478502Y-102003764D01*
X107463726Y-102006409D01*
X107448711Y-102008322D01*
X107433478Y-102009483D01*
X107418044Y-102009875D01*
X107402610Y-102009483D01*
X107387376Y-102008322D01*
X107372361Y-102006409D01*
X107357584Y-102003764D01*
X107343065Y-102000406D01*
X107328821Y-101996353D01*
X107314873Y-101991625D01*
X107301239Y-101986241D01*
X107287938Y-101980220D01*
X107274989Y-101973581D01*
X107262411Y-101966342D01*
X107250223Y-101958524D01*
X107238445Y-101950143D01*
X107227095Y-101941221D01*
X107216192Y-101931776D01*
X107205755Y-101921826D01*
X107195804Y-101911391D01*
X107186357Y-101900490D01*
X107177433Y-101889141D01*
X107169051Y-101877364D01*
X107161231Y-101865178D01*
X107153991Y-101852602D01*
X107147350Y-101839655D01*
X107141328Y-101826355D01*
X107135943Y-101812722D01*
X107131214Y-101798775D01*
X107127160Y-101784532D01*
X107123801Y-101770013D01*
X107121156Y-101755237D01*
X107119242Y-101740223D01*
X107118080Y-101724989D01*
X107117689Y-101709555D01*
X107118080Y-101694128D01*
X107119242Y-101678900D01*
X107121156Y-101663890D01*
X107123801Y-101649119D01*
X107127160Y-101634604D01*
X107131214Y-101620365D01*
X107135943Y-101606421D01*
X107141328Y-101592791D01*
X107147350Y-101579493D01*
X107153991Y-101566548D01*
X107161231Y-101553973D01*
X107169051Y-101541788D01*
X107177433Y-101530012D01*
X107186357Y-101518664D01*
X107195804Y-101507763D01*
X107205755Y-101497329D01*
X107216192Y-101487379D01*
X107227095Y-101477933D01*
X107238445Y-101469010D01*
X107250223Y-101460630D01*
X107262411Y-101452810D01*
X107274989Y-101445571D01*
X107287938Y-101438931D01*
X107301239Y-101432909D01*
X107314873Y-101427524D01*
X107328821Y-101422795D01*
X107343065Y-101418742D01*
X107357584Y-101415383D01*
X107372361Y-101412738D01*
X107387376Y-101410824D01*
X107402610Y-101409662D01*
X107418044Y-101409271D01*
X107433478Y-101409662D01*
G37*
G36*
X104089407Y-102094841D02*
G01*
X104104640Y-102096003D01*
X104119655Y-102097916D01*
X104134431Y-102100561D01*
X104148950Y-102103919D01*
X104163192Y-102107971D01*
X104177139Y-102112699D01*
X104190772Y-102118083D01*
X104204072Y-102124104D01*
X104217020Y-102130744D01*
X104229596Y-102137982D01*
X104241782Y-102145801D01*
X104253559Y-102154181D01*
X104264907Y-102163103D01*
X104275808Y-102172549D01*
X104286243Y-102182499D01*
X104296193Y-102192934D01*
X104305639Y-102203835D01*
X104314561Y-102215183D01*
X104322941Y-102226960D01*
X104330760Y-102239146D01*
X104337999Y-102251722D01*
X104344638Y-102264670D01*
X104350659Y-102277970D01*
X104356043Y-102291603D01*
X104360771Y-102305550D01*
X104364823Y-102319793D01*
X104368181Y-102334311D01*
X104370826Y-102349087D01*
X104372739Y-102364102D01*
X104373901Y-102379335D01*
X104374292Y-102394769D01*
X104373901Y-102410203D01*
X104372739Y-102425437D01*
X104370826Y-102440451D01*
X104368181Y-102455227D01*
X104364823Y-102469746D01*
X104360771Y-102483989D01*
X104356043Y-102497936D01*
X104350659Y-102511569D01*
X104344638Y-102524869D01*
X104337999Y-102537816D01*
X104330760Y-102550393D01*
X104322941Y-102562579D01*
X104314561Y-102574355D01*
X104305639Y-102585704D01*
X104296193Y-102596605D01*
X104286243Y-102607040D01*
X104275808Y-102616990D01*
X104264907Y-102626435D01*
X104253559Y-102635358D01*
X104241782Y-102643738D01*
X104229596Y-102651557D01*
X104217020Y-102658795D01*
X104204072Y-102665434D01*
X104190772Y-102671456D01*
X104177139Y-102676840D01*
X104163192Y-102681567D01*
X104148950Y-102685620D01*
X104134431Y-102688978D01*
X104119655Y-102691623D01*
X104104640Y-102693536D01*
X104089407Y-102694697D01*
X104073973Y-102695089D01*
X104058542Y-102694697D01*
X104043311Y-102693536D01*
X104028300Y-102691623D01*
X104013526Y-102688978D01*
X103999010Y-102685620D01*
X103984770Y-102681567D01*
X103970824Y-102676840D01*
X103957193Y-102671456D01*
X103943895Y-102665434D01*
X103930949Y-102658795D01*
X103918375Y-102651557D01*
X103906190Y-102643738D01*
X103894415Y-102635358D01*
X103883067Y-102626435D01*
X103872167Y-102616990D01*
X103861733Y-102607040D01*
X103851784Y-102596605D01*
X103842339Y-102585704D01*
X103833417Y-102574355D01*
X103825038Y-102562579D01*
X103817219Y-102550393D01*
X103809981Y-102537816D01*
X103803342Y-102524869D01*
X103797321Y-102511569D01*
X103791937Y-102497936D01*
X103787210Y-102483989D01*
X103783157Y-102469746D01*
X103779799Y-102455227D01*
X103777154Y-102440451D01*
X103775241Y-102425437D01*
X103774080Y-102410203D01*
X103773688Y-102394769D01*
X103774080Y-102379335D01*
X103775241Y-102364102D01*
X103777154Y-102349087D01*
X103779799Y-102334311D01*
X103783157Y-102319793D01*
X103787210Y-102305550D01*
X103791937Y-102291603D01*
X103797321Y-102277970D01*
X103803342Y-102264670D01*
X103809981Y-102251722D01*
X103817219Y-102239146D01*
X103825038Y-102226960D01*
X103833417Y-102215183D01*
X103842339Y-102203835D01*
X103851784Y-102192934D01*
X103861733Y-102182499D01*
X103872167Y-102172549D01*
X103883067Y-102163103D01*
X103894415Y-102154181D01*
X103906190Y-102145801D01*
X103918375Y-102137982D01*
X103930949Y-102130744D01*
X103943895Y-102124104D01*
X103957193Y-102118083D01*
X103970824Y-102112699D01*
X103984770Y-102107971D01*
X103999010Y-102103919D01*
X104013526Y-102100561D01*
X104028300Y-102097916D01*
X104043311Y-102096003D01*
X104058542Y-102094841D01*
X104073973Y-102094450D01*
X104089407Y-102094841D01*
G37*
D10*
X88888774Y-76268025D02*
X88907385Y-76271926D01*
X88919250Y-76277386D01*
X88934143Y-76286565D01*
X88976981Y-76320210D01*
X89043831Y-76381130D01*
X89142627Y-76477592D01*
X89281301Y-76617865D01*
X89467785Y-76810218D01*
X89710013Y-77062917D01*
X91137436Y-78572518D01*
X91908917Y-79398083D01*
X92545967Y-80089004D01*
X92669496Y-80225288D01*
X92777314Y-80345939D01*
X92870224Y-80452265D01*
X92911338Y-80500464D01*
X92949024Y-80545572D01*
X92983384Y-80587752D01*
X93014516Y-80627168D01*
X93042521Y-80663982D01*
X93067500Y-80698359D01*
X93089551Y-80730461D01*
X93108775Y-80760453D01*
X93125272Y-80788497D01*
X93139143Y-80814757D01*
X93150487Y-80839395D01*
X93159404Y-80862577D01*
X93165994Y-80884465D01*
X93170357Y-80905221D01*
X93172594Y-80925011D01*
X93172804Y-80943997D01*
X93171088Y-80962342D01*
X93167545Y-80980210D01*
X93162276Y-80997764D01*
X93155380Y-81015168D01*
X93146958Y-81032586D01*
X93137110Y-81050179D01*
X93125935Y-81068112D01*
X93113534Y-81086549D01*
X93085453Y-81125585D01*
X93018493Y-81214414D01*
X92940205Y-81314771D01*
X92854079Y-81422296D01*
X92763604Y-81532626D01*
X92672270Y-81641398D01*
X92583566Y-81744252D01*
X92500982Y-81836824D01*
X92428008Y-81914752D01*
X92395934Y-81946821D01*
X92365882Y-81973343D01*
X92336599Y-81993523D01*
X92321853Y-82000986D01*
X92306830Y-82006565D01*
X92291372Y-82010161D01*
X92275324Y-82011675D01*
X92258527Y-82011006D01*
X92240825Y-82008056D01*
X92222063Y-82002726D01*
X92202082Y-81994914D01*
X92180727Y-81984524D01*
X92157841Y-81971454D01*
X92106848Y-81936880D01*
X92047851Y-81890396D01*
X91979595Y-81831209D01*
X91900828Y-81758521D01*
X91810296Y-81671538D01*
X91706746Y-81569466D01*
X91455579Y-81316868D01*
X89967870Y-79799235D01*
X88494765Y-78288476D01*
X88494761Y-78288476D01*
X88252014Y-78039274D01*
X88069426Y-77851640D01*
X87997949Y-77778038D01*
X87938221Y-77716381D01*
X87889143Y-77665518D01*
X87849619Y-77624301D01*
X87833097Y-77606950D01*
X87818552Y-77591580D01*
X87805846Y-77578046D01*
X87794843Y-77566206D01*
X87785406Y-77555915D01*
X87777396Y-77547030D01*
X87770678Y-77539407D01*
X87765114Y-77532902D01*
X87760567Y-77527373D01*
X87756899Y-77522674D01*
X87753974Y-77518663D01*
X87751654Y-77515195D01*
X87749803Y-77512128D01*
X87748282Y-77509317D01*
X87746955Y-77506619D01*
X87745685Y-77503890D01*
X87739976Y-77491410D01*
X87733478Y-77476635D01*
X87726687Y-77460061D01*
X87720094Y-77442185D01*
X87717027Y-77432914D01*
X87714195Y-77423503D01*
X87711660Y-77414016D01*
X87709484Y-77404513D01*
X87707727Y-77395057D01*
X87706453Y-77385709D01*
X87705723Y-77376533D01*
X87705598Y-77367590D01*
X87706178Y-77358896D01*
X87707607Y-77350274D01*
X87710063Y-77341501D01*
X87713723Y-77332353D01*
X87718766Y-77322608D01*
X87725369Y-77312043D01*
X87733710Y-77300434D01*
X87743967Y-77287558D01*
X87756319Y-77273192D01*
X87770942Y-77257113D01*
X87807714Y-77218924D01*
X87855708Y-77171205D01*
X87916347Y-77112171D01*
X88074766Y-76959853D01*
X88261963Y-76781873D01*
X88450449Y-76604966D01*
X88612737Y-76455868D01*
X88646101Y-76425974D01*
X88676322Y-76399314D01*
X88703614Y-76375715D01*
X88728189Y-76355002D01*
X88750261Y-76337000D01*
X88770042Y-76321535D01*
X88787746Y-76308432D01*
X88795886Y-76302712D01*
X88803587Y-76297517D01*
X88810874Y-76292825D01*
X88817776Y-76288615D01*
X88824318Y-76284865D01*
X88830527Y-76281553D01*
X88836430Y-76278657D01*
X88842053Y-76276155D01*
X88847424Y-76274025D01*
X88852568Y-76272247D01*
X88857513Y-76270797D01*
X88862285Y-76269654D01*
X88866910Y-76268797D01*
X88871416Y-76268203D01*
X88875828Y-76267850D01*
X88880174Y-76267718D01*
X88888774Y-76268025D01*
G36*
X88888774Y-76268025D02*
G01*
X88907385Y-76271926D01*
X88919250Y-76277386D01*
X88934143Y-76286565D01*
X88976981Y-76320210D01*
X89043831Y-76381130D01*
X89142627Y-76477592D01*
X89281301Y-76617865D01*
X89467785Y-76810218D01*
X89710013Y-77062917D01*
X91137436Y-78572518D01*
X91908917Y-79398083D01*
X92545967Y-80089004D01*
X92669496Y-80225288D01*
X92777314Y-80345939D01*
X92870224Y-80452265D01*
X92911338Y-80500464D01*
X92949024Y-80545572D01*
X92983384Y-80587752D01*
X93014516Y-80627168D01*
X93042521Y-80663982D01*
X93067500Y-80698359D01*
X93089551Y-80730461D01*
X93108775Y-80760453D01*
X93125272Y-80788497D01*
X93139143Y-80814757D01*
X93150487Y-80839395D01*
X93159404Y-80862577D01*
X93165994Y-80884465D01*
X93170357Y-80905221D01*
X93172594Y-80925011D01*
X93172804Y-80943997D01*
X93171088Y-80962342D01*
X93167545Y-80980210D01*
X93162276Y-80997764D01*
X93155380Y-81015168D01*
X93146958Y-81032586D01*
X93137110Y-81050179D01*
X93125935Y-81068112D01*
X93113534Y-81086549D01*
X93085453Y-81125585D01*
X93018493Y-81214414D01*
X92940205Y-81314771D01*
X92854079Y-81422296D01*
X92763604Y-81532626D01*
X92672270Y-81641398D01*
X92583566Y-81744252D01*
X92500982Y-81836824D01*
X92428008Y-81914752D01*
X92395934Y-81946821D01*
X92365882Y-81973343D01*
X92336599Y-81993523D01*
X92321853Y-82000986D01*
X92306830Y-82006565D01*
X92291372Y-82010161D01*
X92275324Y-82011675D01*
X92258527Y-82011006D01*
X92240825Y-82008056D01*
X92222063Y-82002726D01*
X92202082Y-81994914D01*
X92180727Y-81984524D01*
X92157841Y-81971454D01*
X92106848Y-81936880D01*
X92047851Y-81890396D01*
X91979595Y-81831209D01*
X91900828Y-81758521D01*
X91810296Y-81671538D01*
X91706746Y-81569466D01*
X91455579Y-81316868D01*
X89967870Y-79799235D01*
X88494765Y-78288476D01*
X88494761Y-78288476D01*
X88252014Y-78039274D01*
X88069426Y-77851640D01*
X87997949Y-77778038D01*
X87938221Y-77716381D01*
X87889143Y-77665518D01*
X87849619Y-77624301D01*
X87833097Y-77606950D01*
X87818552Y-77591580D01*
X87805846Y-77578046D01*
X87794843Y-77566206D01*
X87785406Y-77555915D01*
X87777396Y-77547030D01*
X87770678Y-77539407D01*
X87765114Y-77532902D01*
X87760567Y-77527373D01*
X87756899Y-77522674D01*
X87753974Y-77518663D01*
X87751654Y-77515195D01*
X87749803Y-77512128D01*
X87748282Y-77509317D01*
X87746955Y-77506619D01*
X87745685Y-77503890D01*
X87739976Y-77491410D01*
X87733478Y-77476635D01*
X87726687Y-77460061D01*
X87720094Y-77442185D01*
X87717027Y-77432914D01*
X87714195Y-77423503D01*
X87711660Y-77414016D01*
X87709484Y-77404513D01*
X87707727Y-77395057D01*
X87706453Y-77385709D01*
X87705723Y-77376533D01*
X87705598Y-77367590D01*
X87706178Y-77358896D01*
X87707607Y-77350274D01*
X87710063Y-77341501D01*
X87713723Y-77332353D01*
X87718766Y-77322608D01*
X87725369Y-77312043D01*
X87733710Y-77300434D01*
X87743967Y-77287558D01*
X87756319Y-77273192D01*
X87770942Y-77257113D01*
X87807714Y-77218924D01*
X87855708Y-77171205D01*
X87916347Y-77112171D01*
X88074766Y-76959853D01*
X88261963Y-76781873D01*
X88450449Y-76604966D01*
X88612737Y-76455868D01*
X88646101Y-76425974D01*
X88676322Y-76399314D01*
X88703614Y-76375715D01*
X88728189Y-76355002D01*
X88750261Y-76337000D01*
X88770042Y-76321535D01*
X88787746Y-76308432D01*
X88795886Y-76302712D01*
X88803587Y-76297517D01*
X88810874Y-76292825D01*
X88817776Y-76288615D01*
X88824318Y-76284865D01*
X88830527Y-76281553D01*
X88836430Y-76278657D01*
X88842053Y-76276155D01*
X88847424Y-76274025D01*
X88852568Y-76272247D01*
X88857513Y-76270797D01*
X88862285Y-76269654D01*
X88866910Y-76268797D01*
X88871416Y-76268203D01*
X88875828Y-76267850D01*
X88880174Y-76267718D01*
X88888774Y-76268025D01*
G37*
X110105410Y-75180172D02*
X110112725Y-75180681D01*
X110119907Y-75181608D01*
X110133938Y-75184654D01*
X110147641Y-75189184D01*
X110161153Y-75195076D01*
X110174612Y-75202205D01*
X110188158Y-75210447D01*
X110201926Y-75219678D01*
X110230687Y-75240612D01*
X110295085Y-75289887D01*
X110367254Y-75347026D01*
X110444766Y-75410017D01*
X110525190Y-75476847D01*
X110606097Y-75545503D01*
X110685059Y-75613970D01*
X110759646Y-75680237D01*
X110827429Y-75742289D01*
X110858073Y-75771157D01*
X110886485Y-75798524D01*
X110912743Y-75824443D01*
X110936923Y-75848972D01*
X110959104Y-75872166D01*
X110979362Y-75894079D01*
X110997774Y-75914767D01*
X111014418Y-75934286D01*
X111029371Y-75952690D01*
X111042709Y-75970036D01*
X111054510Y-75986379D01*
X111064851Y-76001774D01*
X111073809Y-76016276D01*
X111081462Y-76029941D01*
X111087886Y-76042824D01*
X111093159Y-76054980D01*
X111097206Y-76066649D01*
X111099335Y-76078799D01*
X111098702Y-76092583D01*
X111094464Y-76109154D01*
X111085777Y-76129665D01*
X111071796Y-76155268D01*
X111051678Y-76187115D01*
X111024578Y-76226360D01*
X110946060Y-76331653D01*
X110829488Y-76480368D01*
X110455181Y-76944945D01*
X107905571Y-80076404D01*
X107692132Y-80337309D01*
X107604224Y-80443095D01*
X107527228Y-80533585D01*
X107492441Y-80573362D01*
X107459924Y-80609638D01*
X107429524Y-80642520D01*
X107401090Y-80672116D01*
X107374467Y-80698533D01*
X107349503Y-80721879D01*
X107326047Y-80742261D01*
X107303944Y-80759788D01*
X107283043Y-80774566D01*
X107263190Y-80786704D01*
X107244233Y-80796308D01*
X107226020Y-80803487D01*
X107217145Y-80806201D01*
X107208397Y-80808348D01*
X107199760Y-80809943D01*
X107191213Y-80810999D01*
X107182737Y-80811529D01*
X107174313Y-80811546D01*
X107157547Y-80810099D01*
X107140760Y-80806764D01*
X107123800Y-80801649D01*
X107106515Y-80794861D01*
X107088752Y-80786509D01*
X107070358Y-80776699D01*
X107051181Y-80765540D01*
X107009865Y-80739602D01*
X106913590Y-80675779D01*
X106802536Y-80599486D01*
X106556441Y-80425333D01*
X106110743Y-80101620D01*
X106110728Y-80101616D01*
X106037355Y-80047905D01*
X106007665Y-80026126D01*
X105982204Y-80007389D01*
X105960644Y-79991437D01*
X105951224Y-79984425D01*
X105942658Y-79978013D01*
X105934903Y-79972169D01*
X105927918Y-79966862D01*
X105921664Y-79962057D01*
X105916098Y-79957725D01*
X105911181Y-79953832D01*
X105906871Y-79950347D01*
X105903127Y-79947237D01*
X105899909Y-79944470D01*
X105897175Y-79942015D01*
X105895978Y-79940894D01*
X105894885Y-79939839D01*
X105893894Y-79938846D01*
X105892998Y-79937910D01*
X105892193Y-79937028D01*
X105891473Y-79936196D01*
X105890833Y-79935410D01*
X105890268Y-79934665D01*
X105889773Y-79933958D01*
X105889344Y-79933284D01*
X105888974Y-79932641D01*
X105888658Y-79932023D01*
X105888393Y-79931427D01*
X105888171Y-79930848D01*
X105887990Y-79930283D01*
X105887842Y-79929727D01*
X105887629Y-79928629D01*
X105887491Y-79927522D01*
X105887389Y-79926372D01*
X105886935Y-79921068D01*
X105886536Y-79914649D01*
X105886351Y-79907184D01*
X105886542Y-79898738D01*
X105886828Y-79894169D01*
X105887268Y-79889380D01*
X105887883Y-79884380D01*
X105888691Y-79879176D01*
X105889714Y-79873778D01*
X105890971Y-79868194D01*
X105892482Y-79862432D01*
X105894268Y-79856501D01*
X105899987Y-79842690D01*
X105914456Y-79819456D01*
X105945247Y-79778022D01*
X105999929Y-79709608D01*
X106211251Y-79456729D01*
X106608984Y-78990593D01*
X107962244Y-77423583D01*
X108703839Y-76575380D01*
X109325821Y-75876317D01*
X109448810Y-75741213D01*
X109557788Y-75623452D01*
X109607369Y-75570766D01*
X109653861Y-75522044D01*
X109697402Y-75477163D01*
X109738131Y-75435997D01*
X109776186Y-75398424D01*
X109811704Y-75364319D01*
X109844824Y-75333558D01*
X109875683Y-75306018D01*
X109904419Y-75281574D01*
X109931171Y-75260103D01*
X109956077Y-75241480D01*
X109979274Y-75225582D01*
X110000901Y-75212284D01*
X110021095Y-75201464D01*
X110039995Y-75192996D01*
X110049003Y-75189605D01*
X110057739Y-75186756D01*
X110066220Y-75184434D01*
X110074463Y-75182622D01*
X110082487Y-75181305D01*
X110090308Y-75180468D01*
X110097943Y-75180096D01*
X110105410Y-75180172D01*
G36*
X110105410Y-75180172D02*
G01*
X110112725Y-75180681D01*
X110119907Y-75181608D01*
X110133938Y-75184654D01*
X110147641Y-75189184D01*
X110161153Y-75195076D01*
X110174612Y-75202205D01*
X110188158Y-75210447D01*
X110201926Y-75219678D01*
X110230687Y-75240612D01*
X110295085Y-75289887D01*
X110367254Y-75347026D01*
X110444766Y-75410017D01*
X110525190Y-75476847D01*
X110606097Y-75545503D01*
X110685059Y-75613970D01*
X110759646Y-75680237D01*
X110827429Y-75742289D01*
X110858073Y-75771157D01*
X110886485Y-75798524D01*
X110912743Y-75824443D01*
X110936923Y-75848972D01*
X110959104Y-75872166D01*
X110979362Y-75894079D01*
X110997774Y-75914767D01*
X111014418Y-75934286D01*
X111029371Y-75952690D01*
X111042709Y-75970036D01*
X111054510Y-75986379D01*
X111064851Y-76001774D01*
X111073809Y-76016276D01*
X111081462Y-76029941D01*
X111087886Y-76042824D01*
X111093159Y-76054980D01*
X111097206Y-76066649D01*
X111099335Y-76078799D01*
X111098702Y-76092583D01*
X111094464Y-76109154D01*
X111085777Y-76129665D01*
X111071796Y-76155268D01*
X111051678Y-76187115D01*
X111024578Y-76226360D01*
X110946060Y-76331653D01*
X110829488Y-76480368D01*
X110455181Y-76944945D01*
X107905571Y-80076404D01*
X107692132Y-80337309D01*
X107604224Y-80443095D01*
X107527228Y-80533585D01*
X107492441Y-80573362D01*
X107459924Y-80609638D01*
X107429524Y-80642520D01*
X107401090Y-80672116D01*
X107374467Y-80698533D01*
X107349503Y-80721879D01*
X107326047Y-80742261D01*
X107303944Y-80759788D01*
X107283043Y-80774566D01*
X107263190Y-80786704D01*
X107244233Y-80796308D01*
X107226020Y-80803487D01*
X107217145Y-80806201D01*
X107208397Y-80808348D01*
X107199760Y-80809943D01*
X107191213Y-80810999D01*
X107182737Y-80811529D01*
X107174313Y-80811546D01*
X107157547Y-80810099D01*
X107140760Y-80806764D01*
X107123800Y-80801649D01*
X107106515Y-80794861D01*
X107088752Y-80786509D01*
X107070358Y-80776699D01*
X107051181Y-80765540D01*
X107009865Y-80739602D01*
X106913590Y-80675779D01*
X106802536Y-80599486D01*
X106556441Y-80425333D01*
X106110743Y-80101620D01*
X106110728Y-80101616D01*
X106037355Y-80047905D01*
X106007665Y-80026126D01*
X105982204Y-80007389D01*
X105960644Y-79991437D01*
X105951224Y-79984425D01*
X105942658Y-79978013D01*
X105934903Y-79972169D01*
X105927918Y-79966862D01*
X105921664Y-79962057D01*
X105916098Y-79957725D01*
X105911181Y-79953832D01*
X105906871Y-79950347D01*
X105903127Y-79947237D01*
X105899909Y-79944470D01*
X105897175Y-79942015D01*
X105895978Y-79940894D01*
X105894885Y-79939839D01*
X105893894Y-79938846D01*
X105892998Y-79937910D01*
X105892193Y-79937028D01*
X105891473Y-79936196D01*
X105890833Y-79935410D01*
X105890268Y-79934665D01*
X105889773Y-79933958D01*
X105889344Y-79933284D01*
X105888974Y-79932641D01*
X105888658Y-79932023D01*
X105888393Y-79931427D01*
X105888171Y-79930848D01*
X105887990Y-79930283D01*
X105887842Y-79929727D01*
X105887629Y-79928629D01*
X105887491Y-79927522D01*
X105887389Y-79926372D01*
X105886935Y-79921068D01*
X105886536Y-79914649D01*
X105886351Y-79907184D01*
X105886542Y-79898738D01*
X105886828Y-79894169D01*
X105887268Y-79889380D01*
X105887883Y-79884380D01*
X105888691Y-79879176D01*
X105889714Y-79873778D01*
X105890971Y-79868194D01*
X105892482Y-79862432D01*
X105894268Y-79856501D01*
X105899987Y-79842690D01*
X105914456Y-79819456D01*
X105945247Y-79778022D01*
X105999929Y-79709608D01*
X106211251Y-79456729D01*
X106608984Y-78990593D01*
X107962244Y-77423583D01*
X108703839Y-76575380D01*
X109325821Y-75876317D01*
X109448810Y-75741213D01*
X109557788Y-75623452D01*
X109607369Y-75570766D01*
X109653861Y-75522044D01*
X109697402Y-75477163D01*
X109738131Y-75435997D01*
X109776186Y-75398424D01*
X109811704Y-75364319D01*
X109844824Y-75333558D01*
X109875683Y-75306018D01*
X109904419Y-75281574D01*
X109931171Y-75260103D01*
X109956077Y-75241480D01*
X109979274Y-75225582D01*
X110000901Y-75212284D01*
X110021095Y-75201464D01*
X110039995Y-75192996D01*
X110049003Y-75189605D01*
X110057739Y-75186756D01*
X110066220Y-75184434D01*
X110074463Y-75182622D01*
X110082487Y-75181305D01*
X110090308Y-75180468D01*
X110097943Y-75180096D01*
X110105410Y-75180172D01*
G37*
D11*
G36*
X105244611Y-100395211D02*
G01*
X105249011Y-100395547D01*
X105253347Y-100396099D01*
X105257614Y-100396864D01*
X105261807Y-100397834D01*
X105265919Y-100399004D01*
X105269947Y-100400370D01*
X105273883Y-100401926D01*
X105277724Y-100403665D01*
X105281462Y-100405583D01*
X105285094Y-100407674D01*
X105288612Y-100409933D01*
X105292012Y-100412353D01*
X105295289Y-100414931D01*
X105298436Y-100417659D01*
X105301449Y-100420533D01*
X105304321Y-100423548D01*
X105307048Y-100426697D01*
X105309624Y-100429975D01*
X105312043Y-100433377D01*
X105314300Y-100436897D01*
X105316390Y-100440529D01*
X105318306Y-100444269D01*
X105320045Y-100448111D01*
X105321599Y-100452049D01*
X105322963Y-100456077D01*
X105324133Y-100460191D01*
X105325102Y-100464384D01*
X105325866Y-100468652D01*
X105326418Y-100472989D01*
X105326753Y-100477389D01*
X105326866Y-100481846D01*
X105326753Y-100486301D01*
X105326418Y-100490698D01*
X105325866Y-100495031D01*
X105325102Y-100499296D01*
X105324133Y-100503488D01*
X105322963Y-100507599D01*
X105321599Y-100511625D01*
X105320045Y-100515561D01*
X105318306Y-100519401D01*
X105316390Y-100523139D01*
X105314300Y-100526771D01*
X105312043Y-100530289D01*
X105309624Y-100533690D01*
X105307048Y-100536967D01*
X105304321Y-100540115D01*
X105301449Y-100543128D01*
X105298436Y-100546002D01*
X105295289Y-100548729D01*
X105292012Y-100551306D01*
X105288612Y-100553726D01*
X105285094Y-100555985D01*
X105281462Y-100558075D01*
X105277724Y-100559993D01*
X105273883Y-100561732D01*
X105269947Y-100563287D01*
X105265919Y-100564653D01*
X105261807Y-100565824D01*
X105257614Y-100566794D01*
X105253347Y-100567558D01*
X105249011Y-100568110D01*
X105244611Y-100568446D01*
X105240154Y-100568559D01*
X105235696Y-100568446D01*
X105231296Y-100568110D01*
X105226960Y-100567558D01*
X105222693Y-100566794D01*
X105218501Y-100565824D01*
X105214388Y-100564653D01*
X105210360Y-100563287D01*
X105206424Y-100561732D01*
X105202583Y-100559993D01*
X105198845Y-100558075D01*
X105195214Y-100555985D01*
X105191695Y-100553726D01*
X105188295Y-100551306D01*
X105185018Y-100548729D01*
X105181871Y-100546002D01*
X105178858Y-100543128D01*
X105175986Y-100540115D01*
X105173259Y-100536967D01*
X105170683Y-100533690D01*
X105168264Y-100530289D01*
X105166007Y-100526771D01*
X105163917Y-100523139D01*
X105162001Y-100519401D01*
X105160263Y-100515561D01*
X105158708Y-100511625D01*
X105157344Y-100507599D01*
X105156174Y-100503488D01*
X105155205Y-100499296D01*
X105154441Y-100495031D01*
X105153889Y-100490698D01*
X105153554Y-100486301D01*
X105153441Y-100481846D01*
X105153554Y-100477389D01*
X105153889Y-100472989D01*
X105154441Y-100468652D01*
X105155205Y-100464384D01*
X105156174Y-100460191D01*
X105157344Y-100456077D01*
X105158708Y-100452049D01*
X105160263Y-100448111D01*
X105162001Y-100444269D01*
X105163917Y-100440529D01*
X105166007Y-100436897D01*
X105168264Y-100433377D01*
X105170683Y-100429975D01*
X105173259Y-100426697D01*
X105175986Y-100423548D01*
X105178858Y-100420533D01*
X105181871Y-100417659D01*
X105185018Y-100414931D01*
X105188295Y-100412353D01*
X105191695Y-100409933D01*
X105195214Y-100407674D01*
X105198845Y-100405583D01*
X105202583Y-100403665D01*
X105206424Y-100401926D01*
X105210360Y-100400370D01*
X105214388Y-100399004D01*
X105218501Y-100397834D01*
X105222693Y-100396864D01*
X105226960Y-100396099D01*
X105231296Y-100395547D01*
X105235696Y-100395211D01*
X105240154Y-100395098D01*
X105244611Y-100395211D01*
G37*
G36*
X105764481Y-99808308D02*
G01*
X105769533Y-99808693D01*
X105774511Y-99809327D01*
X105779411Y-99810203D01*
X105784225Y-99811316D01*
X105788947Y-99812659D01*
X105793571Y-99814225D01*
X105798091Y-99816009D01*
X105802500Y-99818005D01*
X105806792Y-99820205D01*
X105810961Y-99822604D01*
X105815000Y-99825195D01*
X105818904Y-99827972D01*
X105822666Y-99830929D01*
X105826279Y-99834060D01*
X105829738Y-99837357D01*
X105833035Y-99840816D01*
X105836166Y-99844429D01*
X105839123Y-99848191D01*
X105841900Y-99852095D01*
X105844491Y-99856134D01*
X105846890Y-99860303D01*
X105849090Y-99864595D01*
X105851086Y-99869004D01*
X105852870Y-99873524D01*
X105854436Y-99878148D01*
X105855779Y-99882870D01*
X105856892Y-99887684D01*
X105857768Y-99892584D01*
X105858402Y-99897562D01*
X105858787Y-99902614D01*
X105858917Y-99907732D01*
X105858787Y-99912850D01*
X105858402Y-99917902D01*
X105857768Y-99922881D01*
X105856892Y-99927780D01*
X105855779Y-99932594D01*
X105854436Y-99937316D01*
X105852870Y-99941940D01*
X105851086Y-99946460D01*
X105849090Y-99950869D01*
X105846890Y-99955161D01*
X105844491Y-99959330D01*
X105841900Y-99963370D01*
X105839123Y-99967273D01*
X105836166Y-99971035D01*
X105833035Y-99974648D01*
X105829738Y-99978107D01*
X105826279Y-99981405D01*
X105822666Y-99984535D01*
X105818904Y-99987492D01*
X105815000Y-99990269D01*
X105810961Y-99992860D01*
X105806792Y-99995259D01*
X105802500Y-99997460D01*
X105798091Y-99999455D01*
X105793571Y-100001239D01*
X105788947Y-100002806D01*
X105784225Y-100004148D01*
X105779411Y-100005261D01*
X105774511Y-100006138D01*
X105769533Y-100006771D01*
X105764481Y-100007156D01*
X105759363Y-100007286D01*
X105754248Y-100007156D01*
X105749199Y-100006771D01*
X105744223Y-100006138D01*
X105739327Y-100005261D01*
X105734515Y-100004148D01*
X105729795Y-100002806D01*
X105725173Y-100001239D01*
X105720655Y-99999455D01*
X105716248Y-99997460D01*
X105711957Y-99995259D01*
X105707790Y-99992860D01*
X105703752Y-99990269D01*
X105699849Y-99987492D01*
X105696089Y-99984535D01*
X105692477Y-99981405D01*
X105689019Y-99978107D01*
X105685722Y-99974648D01*
X105682592Y-99971035D01*
X105679636Y-99967273D01*
X105676859Y-99963370D01*
X105674268Y-99959330D01*
X105671870Y-99955161D01*
X105669670Y-99950869D01*
X105667675Y-99946460D01*
X105665891Y-99941940D01*
X105664324Y-99937316D01*
X105662982Y-99932594D01*
X105661869Y-99927780D01*
X105660993Y-99922881D01*
X105660359Y-99917902D01*
X105659974Y-99912850D01*
X105659844Y-99907732D01*
X105659974Y-99902614D01*
X105660359Y-99897562D01*
X105660993Y-99892584D01*
X105661869Y-99887684D01*
X105662982Y-99882870D01*
X105664324Y-99878148D01*
X105665891Y-99873524D01*
X105667675Y-99869004D01*
X105669670Y-99864595D01*
X105671870Y-99860303D01*
X105674268Y-99856134D01*
X105676859Y-99852095D01*
X105679636Y-99848191D01*
X105682592Y-99844429D01*
X105685722Y-99840816D01*
X105689019Y-99837357D01*
X105692477Y-99834060D01*
X105696089Y-99830929D01*
X105699849Y-99827972D01*
X105703752Y-99825195D01*
X105707790Y-99822604D01*
X105711957Y-99820205D01*
X105716248Y-99818005D01*
X105720655Y-99816009D01*
X105725173Y-99814225D01*
X105729795Y-99812659D01*
X105734515Y-99811316D01*
X105739327Y-99810203D01*
X105744223Y-99809327D01*
X105749199Y-99808693D01*
X105754248Y-99808308D01*
X105759363Y-99808178D01*
X105764481Y-99808308D01*
G37*
D10*
X88500000Y-73500000D02*
X88519383Y-73500893D01*
X88538290Y-73502375D01*
X88556766Y-73504433D01*
X88574861Y-73507057D01*
X88592620Y-73510235D01*
X88610090Y-73513954D01*
X88627319Y-73518203D01*
X88644353Y-73522971D01*
X88661240Y-73528245D01*
X88678027Y-73534014D01*
X88694745Y-73540271D01*
X88711375Y-73547023D01*
X88727880Y-73554282D01*
X88744226Y-73562059D01*
X88760377Y-73570366D01*
X88776298Y-73579215D01*
X88791955Y-73588618D01*
X88807310Y-73598586D01*
X88822331Y-73609131D01*
X88836980Y-73620265D01*
X88851223Y-73632000D01*
X88865026Y-73644348D01*
X88878351Y-73657320D01*
X88891165Y-73670927D01*
X88903432Y-73685183D01*
X88915117Y-73700098D01*
X88926189Y-73715679D01*
X88936634Y-73731917D01*
X88946441Y-73748801D01*
X88955600Y-73766314D01*
X88964102Y-73784446D01*
X88971936Y-73803181D01*
X88979092Y-73822507D01*
X88985560Y-73842410D01*
X88991330Y-73862877D01*
X88996392Y-73883894D01*
X89000736Y-73905449D01*
X89004352Y-73927527D01*
X89007229Y-73950115D01*
X89009358Y-73973200D01*
X89010729Y-73996768D01*
X89011332Y-74020806D01*
X89011140Y-74045311D01*
X89010159Y-74070326D01*
X89008372Y-74095905D01*
X89005765Y-74122101D01*
X89002321Y-74148969D01*
X88998025Y-74176561D01*
X88992862Y-74204931D01*
X88986816Y-74234134D01*
X88979872Y-74264222D01*
X88972014Y-74295250D01*
X88963227Y-74327272D01*
X88953495Y-74360340D01*
X88942803Y-74394510D01*
X88931135Y-74429833D01*
X88904810Y-74504159D01*
X88874394Y-74583596D01*
X88839737Y-74667824D01*
X88800677Y-74756374D01*
X88757054Y-74848776D01*
X88708707Y-74944561D01*
X88655473Y-75043258D01*
X88597193Y-75144398D01*
X88533704Y-75247512D01*
X88464846Y-75352165D01*
X88390458Y-75458065D01*
X88310380Y-75564958D01*
X88224450Y-75672590D01*
X88132506Y-75780705D01*
X88084229Y-75834864D01*
X88034388Y-75889048D01*
X87982963Y-75943226D01*
X87929934Y-75997365D01*
X87875281Y-76051434D01*
X87818983Y-76105401D01*
X87701507Y-76212860D01*
X87578005Y-76319285D01*
X87449107Y-76424179D01*
X87315445Y-76527046D01*
X87177649Y-76627389D01*
X87036349Y-76724713D01*
X86892177Y-76818521D01*
X86745762Y-76908316D01*
X86597948Y-76993538D01*
X86450431Y-77073377D01*
X86305115Y-77146961D01*
X86163907Y-77213417D01*
X86028713Y-77271873D01*
X85901437Y-77321457D01*
X85783987Y-77361296D01*
X85729541Y-77377288D01*
X85678267Y-77390517D01*
X85630341Y-77400929D01*
X85585699Y-77408693D01*
X85544214Y-77414030D01*
X85505762Y-77417164D01*
X85470215Y-77418319D01*
X85437448Y-77417717D01*
X85407336Y-77415582D01*
X85379753Y-77412136D01*
X85354572Y-77407602D01*
X85331667Y-77402205D01*
X85310914Y-77396166D01*
X85292186Y-77389710D01*
X85260302Y-77376435D01*
X85235008Y-77364166D01*
X85215310Y-77354223D01*
X85207266Y-77349974D01*
X85200270Y-77346037D01*
X85194207Y-77342280D01*
X85188962Y-77338575D01*
X85186609Y-77336701D01*
X85184417Y-77334793D01*
X85182372Y-77332832D01*
X85180458Y-77330804D01*
X85178662Y-77328692D01*
X85176969Y-77326480D01*
X85175365Y-77324152D01*
X85173835Y-77321691D01*
X85170938Y-77316308D01*
X85168164Y-77310203D01*
X85165397Y-77303244D01*
X85162520Y-77295305D01*
X85155977Y-77275965D01*
X85155980Y-77275961D01*
X85117035Y-77158702D01*
X85095738Y-77093790D01*
X85078091Y-77038863D01*
X85074670Y-77027871D01*
X85071717Y-77017927D01*
X85069244Y-77008793D01*
X85067263Y-77000227D01*
X85065785Y-76991991D01*
X85064822Y-76983844D01*
X85064386Y-76975545D01*
X85064488Y-76966856D01*
X85065141Y-76957536D01*
X85066356Y-76947345D01*
X85068145Y-76936043D01*
X85070519Y-76923390D01*
X85073491Y-76909147D01*
X85077072Y-76893072D01*
X85086107Y-76854471D01*
X85112325Y-76748377D01*
X85130139Y-76682043D01*
X85151536Y-76607924D01*
X85176853Y-76526825D01*
X85206425Y-76439552D01*
X85222911Y-76393852D01*
X85240587Y-76346910D01*
X85259495Y-76298827D01*
X85279676Y-76249704D01*
X85324073Y-76148598D01*
X85374350Y-76043694D01*
X85431122Y-75934953D01*
X85495008Y-75822332D01*
X85529812Y-75764555D01*
X85566626Y-75705793D01*
X85605527Y-75646040D01*
X85646593Y-75585293D01*
X85689901Y-75523546D01*
X85735527Y-75460794D01*
X85783549Y-75397031D01*
X85834045Y-75332253D01*
X85942411Y-75199915D01*
X86059488Y-75065162D01*
X86183787Y-74929659D01*
X86313816Y-74795068D01*
X86448087Y-74663055D01*
X86585110Y-74535283D01*
X86723395Y-74413417D01*
X86861453Y-74299120D01*
X86929943Y-74245290D01*
X86997893Y-74193734D01*
X87131728Y-74097300D01*
X87262073Y-74009538D01*
X87388042Y-73930164D01*
X87508749Y-73858898D01*
X87623309Y-73795457D01*
X87730836Y-73739558D01*
X87830445Y-73690921D01*
X87921512Y-73649222D01*
X88004472Y-73613966D01*
X88080022Y-73584616D01*
X88148861Y-73560635D01*
X88211686Y-73541486D01*
X88269197Y-73526632D01*
X88322091Y-73515537D01*
X88371065Y-73507663D01*
X88394294Y-73504777D01*
X88416764Y-73502551D01*
X88438523Y-73500971D01*
X88459617Y-73500028D01*
X88480094Y-73499708D01*
X88500000Y-73500000D01*
G36*
X88500000Y-73500000D02*
G01*
X88519383Y-73500893D01*
X88538290Y-73502375D01*
X88556766Y-73504433D01*
X88574861Y-73507057D01*
X88592620Y-73510235D01*
X88610090Y-73513954D01*
X88627319Y-73518203D01*
X88644353Y-73522971D01*
X88661240Y-73528245D01*
X88678027Y-73534014D01*
X88694745Y-73540271D01*
X88711375Y-73547023D01*
X88727880Y-73554282D01*
X88744226Y-73562059D01*
X88760377Y-73570366D01*
X88776298Y-73579215D01*
X88791955Y-73588618D01*
X88807310Y-73598586D01*
X88822331Y-73609131D01*
X88836980Y-73620265D01*
X88851223Y-73632000D01*
X88865026Y-73644348D01*
X88878351Y-73657320D01*
X88891165Y-73670927D01*
X88903432Y-73685183D01*
X88915117Y-73700098D01*
X88926189Y-73715679D01*
X88936634Y-73731917D01*
X88946441Y-73748801D01*
X88955600Y-73766314D01*
X88964102Y-73784446D01*
X88971936Y-73803181D01*
X88979092Y-73822507D01*
X88985560Y-73842410D01*
X88991330Y-73862877D01*
X88996392Y-73883894D01*
X89000736Y-73905449D01*
X89004352Y-73927527D01*
X89007229Y-73950115D01*
X89009358Y-73973200D01*
X89010729Y-73996768D01*
X89011332Y-74020806D01*
X89011140Y-74045311D01*
X89010159Y-74070326D01*
X89008372Y-74095905D01*
X89005765Y-74122101D01*
X89002321Y-74148969D01*
X88998025Y-74176561D01*
X88992862Y-74204931D01*
X88986816Y-74234134D01*
X88979872Y-74264222D01*
X88972014Y-74295250D01*
X88963227Y-74327272D01*
X88953495Y-74360340D01*
X88942803Y-74394510D01*
X88931135Y-74429833D01*
X88904810Y-74504159D01*
X88874394Y-74583596D01*
X88839737Y-74667824D01*
X88800677Y-74756374D01*
X88757054Y-74848776D01*
X88708707Y-74944561D01*
X88655473Y-75043258D01*
X88597193Y-75144398D01*
X88533704Y-75247512D01*
X88464846Y-75352165D01*
X88390458Y-75458065D01*
X88310380Y-75564958D01*
X88224450Y-75672590D01*
X88132506Y-75780705D01*
X88084229Y-75834864D01*
X88034388Y-75889048D01*
X87982963Y-75943226D01*
X87929934Y-75997365D01*
X87875281Y-76051434D01*
X87818983Y-76105401D01*
X87701507Y-76212860D01*
X87578005Y-76319285D01*
X87449107Y-76424179D01*
X87315445Y-76527046D01*
X87177649Y-76627389D01*
X87036349Y-76724713D01*
X86892177Y-76818521D01*
X86745762Y-76908316D01*
X86597948Y-76993538D01*
X86450431Y-77073377D01*
X86305115Y-77146961D01*
X86163907Y-77213417D01*
X86028713Y-77271873D01*
X85901437Y-77321457D01*
X85783987Y-77361296D01*
X85729541Y-77377288D01*
X85678267Y-77390517D01*
X85630341Y-77400929D01*
X85585699Y-77408693D01*
X85544214Y-77414030D01*
X85505762Y-77417164D01*
X85470215Y-77418319D01*
X85437448Y-77417717D01*
X85407336Y-77415582D01*
X85379753Y-77412136D01*
X85354572Y-77407602D01*
X85331667Y-77402205D01*
X85310914Y-77396166D01*
X85292186Y-77389710D01*
X85260302Y-77376435D01*
X85235008Y-77364166D01*
X85215310Y-77354223D01*
X85207266Y-77349974D01*
X85200270Y-77346037D01*
X85194207Y-77342280D01*
X85188962Y-77338575D01*
X85186609Y-77336701D01*
X85184417Y-77334793D01*
X85182372Y-77332832D01*
X85180458Y-77330804D01*
X85178662Y-77328692D01*
X85176969Y-77326480D01*
X85175365Y-77324152D01*
X85173835Y-77321691D01*
X85170938Y-77316308D01*
X85168164Y-77310203D01*
X85165397Y-77303244D01*
X85162520Y-77295305D01*
X85155977Y-77275965D01*
X85155980Y-77275961D01*
X85117035Y-77158702D01*
X85095738Y-77093790D01*
X85078091Y-77038863D01*
X85074670Y-77027871D01*
X85071717Y-77017927D01*
X85069244Y-77008793D01*
X85067263Y-77000227D01*
X85065785Y-76991991D01*
X85064822Y-76983844D01*
X85064386Y-76975545D01*
X85064488Y-76966856D01*
X85065141Y-76957536D01*
X85066356Y-76947345D01*
X85068145Y-76936043D01*
X85070519Y-76923390D01*
X85073491Y-76909147D01*
X85077072Y-76893072D01*
X85086107Y-76854471D01*
X85112325Y-76748377D01*
X85130139Y-76682043D01*
X85151536Y-76607924D01*
X85176853Y-76526825D01*
X85206425Y-76439552D01*
X85222911Y-76393852D01*
X85240587Y-76346910D01*
X85259495Y-76298827D01*
X85279676Y-76249704D01*
X85324073Y-76148598D01*
X85374350Y-76043694D01*
X85431122Y-75934953D01*
X85495008Y-75822332D01*
X85529812Y-75764555D01*
X85566626Y-75705793D01*
X85605527Y-75646040D01*
X85646593Y-75585293D01*
X85689901Y-75523546D01*
X85735527Y-75460794D01*
X85783549Y-75397031D01*
X85834045Y-75332253D01*
X85942411Y-75199915D01*
X86059488Y-75065162D01*
X86183787Y-74929659D01*
X86313816Y-74795068D01*
X86448087Y-74663055D01*
X86585110Y-74535283D01*
X86723395Y-74413417D01*
X86861453Y-74299120D01*
X86929943Y-74245290D01*
X86997893Y-74193734D01*
X87131728Y-74097300D01*
X87262073Y-74009538D01*
X87388042Y-73930164D01*
X87508749Y-73858898D01*
X87623309Y-73795457D01*
X87730836Y-73739558D01*
X87830445Y-73690921D01*
X87921512Y-73649222D01*
X88004472Y-73613966D01*
X88080022Y-73584616D01*
X88148861Y-73560635D01*
X88211686Y-73541486D01*
X88269197Y-73526632D01*
X88322091Y-73515537D01*
X88371065Y-73507663D01*
X88394294Y-73504777D01*
X88416764Y-73502551D01*
X88438523Y-73500971D01*
X88459617Y-73500028D01*
X88480094Y-73499708D01*
X88500000Y-73500000D01*
G37*
D11*
G36*
X105892316Y-99649441D02*
G01*
X106015513Y-99658809D01*
X106136919Y-99674236D01*
X106256381Y-99695570D01*
X106373748Y-99722658D01*
X106488866Y-99755347D01*
X106601584Y-99793486D01*
X106711748Y-99836922D01*
X106819206Y-99885503D01*
X106923807Y-99939075D01*
X107025397Y-99997487D01*
X107123824Y-100060587D01*
X107218935Y-100128221D01*
X107310579Y-100200238D01*
X107398602Y-100276485D01*
X107482853Y-100356810D01*
X107563178Y-100441060D01*
X107639426Y-100529083D01*
X107711444Y-100620726D01*
X107779080Y-100715837D01*
X107842181Y-100814264D01*
X107900594Y-100915854D01*
X107954168Y-101020454D01*
X108002749Y-101127914D01*
X108046186Y-101238078D01*
X108084326Y-101350797D01*
X108117016Y-101465917D01*
X108144105Y-101583285D01*
X108165439Y-101702749D01*
X108180867Y-101824158D01*
X108190235Y-101947358D01*
X108193391Y-102072197D01*
X108191309Y-102173624D01*
X108185117Y-102273991D01*
X108174897Y-102373216D01*
X108160730Y-102471217D01*
X108142697Y-102567914D01*
X108120880Y-102663224D01*
X108095361Y-102757066D01*
X108066221Y-102849359D01*
X108033541Y-102940021D01*
X107997403Y-103028971D01*
X107957889Y-103116127D01*
X107915079Y-103201408D01*
X107869056Y-103284733D01*
X107819901Y-103366019D01*
X107767695Y-103445186D01*
X107712520Y-103522153D01*
X107654457Y-103596836D01*
X107593588Y-103669157D01*
X107529995Y-103739031D01*
X107463758Y-103806380D01*
X107394959Y-103871120D01*
X107323681Y-103933170D01*
X107250003Y-103992450D01*
X107174008Y-104048877D01*
X107095777Y-104102370D01*
X107015392Y-104152847D01*
X106932934Y-104200228D01*
X106848485Y-104244431D01*
X106762125Y-104285373D01*
X106673938Y-104322975D01*
X106584003Y-104357154D01*
X106492403Y-104387829D01*
X106492403Y-104196835D01*
X105987260Y-104196835D01*
X105987260Y-104371178D01*
X105531224Y-104371178D01*
X105531224Y-104196835D01*
X105026082Y-104196835D01*
X105026082Y-104382291D01*
X104846145Y-104316583D01*
X104673169Y-104237401D01*
X104507796Y-104145384D01*
X104350668Y-104041172D01*
X104346625Y-104038015D01*
X104937676Y-104038015D01*
X104992040Y-104038015D01*
X105531225Y-104038015D01*
X105531522Y-104026280D01*
X105532402Y-104014700D01*
X105533852Y-104003288D01*
X105535858Y-103992059D01*
X105538404Y-103981027D01*
X105541477Y-103970207D01*
X105545061Y-103959613D01*
X105549144Y-103949258D01*
X105553711Y-103939159D01*
X105558746Y-103929327D01*
X105564237Y-103919779D01*
X105570168Y-103910529D01*
X105576525Y-103901590D01*
X105583294Y-103892977D01*
X105590460Y-103884705D01*
X105598010Y-103876787D01*
X105605929Y-103869238D01*
X105614202Y-103862072D01*
X105622815Y-103855304D01*
X105631754Y-103848948D01*
X105641005Y-103843018D01*
X105650553Y-103837529D01*
X105660384Y-103832495D01*
X105670483Y-103827929D01*
X105680837Y-103823848D01*
X105691430Y-103820264D01*
X105702249Y-103817192D01*
X105713279Y-103814646D01*
X105724506Y-103812641D01*
X105735916Y-103811192D01*
X105747494Y-103810311D01*
X105759225Y-103810015D01*
X105770960Y-103810311D01*
X105782541Y-103811192D01*
X105793953Y-103812641D01*
X105805183Y-103814646D01*
X105816215Y-103817192D01*
X105827036Y-103820264D01*
X105837632Y-103823848D01*
X105847987Y-103827929D01*
X105858088Y-103832495D01*
X105867921Y-103837529D01*
X105877470Y-103843018D01*
X105886722Y-103848948D01*
X105895663Y-103855304D01*
X105904277Y-103862072D01*
X105912552Y-103869238D01*
X105920471Y-103876787D01*
X105928022Y-103884705D01*
X105935189Y-103892977D01*
X105941958Y-103901590D01*
X105948316Y-103910529D01*
X105954247Y-103919779D01*
X105959738Y-103929327D01*
X105964774Y-103939159D01*
X105969341Y-103949258D01*
X105973424Y-103959613D01*
X105977009Y-103970207D01*
X105980082Y-103981027D01*
X105982628Y-103992059D01*
X105984633Y-104003288D01*
X105986083Y-104014700D01*
X105986964Y-104026280D01*
X105987261Y-104038015D01*
X106526411Y-104038015D01*
X106580809Y-104038015D01*
X106526411Y-103953984D01*
X106526411Y-103908640D01*
X106705704Y-103908640D01*
X106705802Y-103911431D01*
X106706036Y-103914224D01*
X106706408Y-103917013D01*
X106706919Y-103919794D01*
X106707572Y-103922562D01*
X106708366Y-103925311D01*
X106709304Y-103928038D01*
X106710388Y-103930736D01*
X106711617Y-103933400D01*
X106712995Y-103936027D01*
X106715083Y-103939476D01*
X106717370Y-103942728D01*
X106719845Y-103945780D01*
X106722494Y-103948629D01*
X106725305Y-103951271D01*
X106728267Y-103953702D01*
X106731365Y-103955918D01*
X106734589Y-103957917D01*
X106737926Y-103959694D01*
X106741364Y-103961246D01*
X106744889Y-103962569D01*
X106748490Y-103963660D01*
X106752155Y-103964514D01*
X106755871Y-103965129D01*
X106759626Y-103965501D01*
X106763407Y-103965626D01*
X106765188Y-103965598D01*
X106766973Y-103965514D01*
X106768760Y-103965375D01*
X106770547Y-103965179D01*
X106772332Y-103964927D01*
X106774114Y-103964617D01*
X106775892Y-103964250D01*
X106777664Y-103963826D01*
X106779427Y-103963344D01*
X106781181Y-103962804D01*
X106782924Y-103962205D01*
X106784655Y-103961547D01*
X106786371Y-103960831D01*
X106788071Y-103960055D01*
X106789754Y-103959219D01*
X106791417Y-103958323D01*
X106842490Y-103928888D01*
X106892756Y-103898043D01*
X106942176Y-103865818D01*
X106990706Y-103832240D01*
X107038305Y-103797340D01*
X107084931Y-103761145D01*
X107130543Y-103723686D01*
X107175098Y-103684990D01*
X107177261Y-103682956D01*
X107179295Y-103680837D01*
X107181203Y-103678640D01*
X107182982Y-103676368D01*
X107184633Y-103674028D01*
X107186155Y-103671625D01*
X107187549Y-103669163D01*
X107188813Y-103666648D01*
X107189948Y-103664084D01*
X107190954Y-103661478D01*
X107191830Y-103658833D01*
X107192575Y-103656156D01*
X107193190Y-103653451D01*
X107193675Y-103650723D01*
X107194028Y-103647977D01*
X107194250Y-103645219D01*
X107194340Y-103642454D01*
X107194299Y-103639687D01*
X107194125Y-103636922D01*
X107193819Y-103634166D01*
X107193381Y-103631422D01*
X107192809Y-103628697D01*
X107192105Y-103625995D01*
X107191266Y-103623321D01*
X107190294Y-103620681D01*
X107189188Y-103618080D01*
X107187947Y-103615522D01*
X107186572Y-103613014D01*
X107185062Y-103610559D01*
X107183417Y-103608163D01*
X107181636Y-103605832D01*
X107179720Y-103603570D01*
X107177685Y-103601404D01*
X107175567Y-103599367D01*
X107173370Y-103597457D01*
X107171099Y-103595676D01*
X107168760Y-103594024D01*
X107166357Y-103592500D01*
X107163896Y-103591105D01*
X107161382Y-103589840D01*
X107158820Y-103588704D01*
X107156214Y-103587698D01*
X107153571Y-103586823D01*
X107150894Y-103586077D01*
X107148190Y-103585462D01*
X107145463Y-103584979D01*
X107142719Y-103584626D01*
X107139962Y-103584405D01*
X107137197Y-103584315D01*
X107134431Y-103584358D01*
X107131667Y-103584532D01*
X107128910Y-103584839D01*
X107126167Y-103585279D01*
X107123442Y-103585852D01*
X107120739Y-103586557D01*
X107118065Y-103587397D01*
X107115425Y-103588370D01*
X107112822Y-103589477D01*
X107110263Y-103590718D01*
X107107753Y-103592094D01*
X107105296Y-103593605D01*
X107102898Y-103595251D01*
X107100564Y-103597032D01*
X107098299Y-103598948D01*
X107056141Y-103635583D01*
X107012984Y-103671044D01*
X106968868Y-103705302D01*
X106923833Y-103738331D01*
X106877917Y-103770102D01*
X106831162Y-103800590D01*
X106783606Y-103829767D01*
X106735290Y-103857605D01*
X106732736Y-103859113D01*
X106730289Y-103860732D01*
X106727948Y-103862456D01*
X106725716Y-103864281D01*
X106723594Y-103866200D01*
X106721583Y-103868211D01*
X106719685Y-103870306D01*
X106717901Y-103872483D01*
X106716233Y-103874734D01*
X106714682Y-103877057D01*
X106713249Y-103879445D01*
X106711936Y-103881894D01*
X106710744Y-103884399D01*
X106709675Y-103886955D01*
X106708730Y-103889556D01*
X106707910Y-103892199D01*
X106707218Y-103894878D01*
X106706653Y-103897588D01*
X106706218Y-103900324D01*
X106705914Y-103903081D01*
X106705742Y-103905855D01*
X106705704Y-103908640D01*
X106526411Y-103908640D01*
X106526411Y-103617186D01*
X106395424Y-103466233D01*
X105848196Y-103466233D01*
X105670255Y-103466233D01*
X105123061Y-103466233D01*
X104992040Y-103617186D01*
X104992040Y-103953984D01*
X104937676Y-104038015D01*
X104346625Y-104038015D01*
X104202424Y-103925405D01*
X104063707Y-103798721D01*
X103935157Y-103661760D01*
X103886014Y-103600572D01*
X104267851Y-103600572D01*
X104267889Y-103603340D01*
X104268058Y-103606103D01*
X104268358Y-103608856D01*
X104268791Y-103611594D01*
X104269354Y-103614312D01*
X104270048Y-103617004D01*
X104270873Y-103619665D01*
X104271829Y-103622291D01*
X104272915Y-103624876D01*
X104274131Y-103627415D01*
X104275477Y-103629903D01*
X104276953Y-103632334D01*
X104278559Y-103634704D01*
X104280294Y-103637008D01*
X104282158Y-103639240D01*
X104284151Y-103641395D01*
X104286272Y-103643469D01*
X104336603Y-103688750D01*
X104388292Y-103732416D01*
X104441291Y-103774435D01*
X104495554Y-103814773D01*
X104551031Y-103853396D01*
X104607677Y-103890270D01*
X104665443Y-103925363D01*
X104724282Y-103958640D01*
X104725936Y-103959504D01*
X104727605Y-103960311D01*
X104729288Y-103961060D01*
X104730983Y-103961752D01*
X104732688Y-103962387D01*
X104734404Y-103962966D01*
X104736128Y-103963488D01*
X104737859Y-103963954D01*
X104739597Y-103964364D01*
X104741339Y-103964719D01*
X104743086Y-103965019D01*
X104744835Y-103965263D01*
X104746585Y-103965453D01*
X104748336Y-103965588D01*
X104750086Y-103965669D01*
X104751833Y-103965696D01*
X104753746Y-103965664D01*
X104755653Y-103965569D01*
X104757553Y-103965410D01*
X104759445Y-103965190D01*
X104761326Y-103964907D01*
X104763196Y-103964563D01*
X104765052Y-103964158D01*
X104766893Y-103963693D01*
X104768718Y-103963167D01*
X104770525Y-103962582D01*
X104772312Y-103961937D01*
X104774078Y-103961235D01*
X104775821Y-103960474D01*
X104777539Y-103959655D01*
X104779232Y-103958779D01*
X104780898Y-103957846D01*
X104782534Y-103956858D01*
X104784140Y-103955813D01*
X104785714Y-103954713D01*
X104787253Y-103953559D01*
X104788758Y-103952350D01*
X104790225Y-103951087D01*
X104791655Y-103949771D01*
X104793044Y-103948402D01*
X104794391Y-103946981D01*
X104795696Y-103945507D01*
X104796955Y-103943982D01*
X104798169Y-103942407D01*
X104799334Y-103940781D01*
X104800450Y-103939104D01*
X104801515Y-103937379D01*
X104802527Y-103935604D01*
X104803875Y-103932961D01*
X104805075Y-103930283D01*
X104806129Y-103927573D01*
X104807039Y-103924836D01*
X104807804Y-103922078D01*
X104808428Y-103919304D01*
X104808912Y-103916517D01*
X104809256Y-103913724D01*
X104809462Y-103910929D01*
X104809533Y-103908137D01*
X104809468Y-103905353D01*
X104809270Y-103902582D01*
X104808940Y-103899828D01*
X104808479Y-103897097D01*
X104807889Y-103894394D01*
X104807171Y-103891723D01*
X104806326Y-103889089D01*
X104805357Y-103886497D01*
X104804264Y-103883953D01*
X104803049Y-103881460D01*
X104801713Y-103879025D01*
X104800258Y-103876651D01*
X104798685Y-103874344D01*
X104796996Y-103872109D01*
X104795191Y-103869950D01*
X104793273Y-103867873D01*
X104791243Y-103865882D01*
X104789101Y-103863982D01*
X104786850Y-103862178D01*
X104784492Y-103860476D01*
X104782026Y-103858879D01*
X104779456Y-103857393D01*
X104723749Y-103825883D01*
X104669055Y-103792652D01*
X104615419Y-103757732D01*
X104562890Y-103721155D01*
X104511513Y-103682952D01*
X104461336Y-103643155D01*
X104412404Y-103601796D01*
X104364766Y-103558908D01*
X104362539Y-103556951D01*
X104360241Y-103555127D01*
X104357876Y-103553438D01*
X104355450Y-103551882D01*
X104352968Y-103550459D01*
X104350435Y-103549169D01*
X104347856Y-103548013D01*
X104345236Y-103546989D01*
X104342580Y-103546099D01*
X104339893Y-103545341D01*
X104337180Y-103544715D01*
X104334446Y-103544222D01*
X104331697Y-103543861D01*
X104328938Y-103543633D01*
X104326173Y-103543536D01*
X104323407Y-103543571D01*
X104320646Y-103543737D01*
X104317895Y-103544036D01*
X104315159Y-103544465D01*
X104312442Y-103545026D01*
X104309750Y-103545718D01*
X104307089Y-103546541D01*
X104304462Y-103547495D01*
X104301876Y-103548579D01*
X104299335Y-103549794D01*
X104296844Y-103551139D01*
X104294409Y-103552615D01*
X104292033Y-103554221D01*
X104289724Y-103555956D01*
X104287485Y-103557822D01*
X104285322Y-103559817D01*
X104283239Y-103561942D01*
X104281276Y-103564169D01*
X104279447Y-103566468D01*
X104277753Y-103568834D01*
X104276194Y-103571261D01*
X104274769Y-103573746D01*
X104273477Y-103576281D01*
X104272320Y-103578863D01*
X104271296Y-103581487D01*
X104270405Y-103584146D01*
X104269648Y-103586836D01*
X104269023Y-103589552D01*
X104268531Y-103592289D01*
X104268172Y-103595041D01*
X104267946Y-103597804D01*
X104267851Y-103600572D01*
X103886014Y-103600572D01*
X103817417Y-103515163D01*
X103711127Y-103359568D01*
X103616928Y-103195615D01*
X103588706Y-103136143D01*
X103891698Y-103136143D01*
X103891742Y-103138928D01*
X103891923Y-103141715D01*
X103892239Y-103144499D01*
X103892694Y-103147276D01*
X103893288Y-103150041D01*
X103894022Y-103152788D01*
X103894897Y-103155513D01*
X103895916Y-103158211D01*
X103897078Y-103160876D01*
X103898386Y-103163504D01*
X103899840Y-103166090D01*
X103914648Y-103190504D01*
X103929824Y-103214787D01*
X103945354Y-103238920D01*
X103961223Y-103262883D01*
X103977417Y-103286658D01*
X103993919Y-103310225D01*
X104010716Y-103333565D01*
X104027793Y-103356660D01*
X104029991Y-103359408D01*
X104032320Y-103361987D01*
X104034773Y-103364396D01*
X104037340Y-103366635D01*
X104040012Y-103368702D01*
X104042782Y-103370596D01*
X104045641Y-103372315D01*
X104048580Y-103373858D01*
X104051591Y-103375225D01*
X104054665Y-103376413D01*
X104057795Y-103377422D01*
X104060971Y-103378250D01*
X104064185Y-103378897D01*
X104067429Y-103379360D01*
X104070694Y-103379639D01*
X104073971Y-103379732D01*
X104076228Y-103379688D01*
X104078486Y-103379556D01*
X104080743Y-103379335D01*
X104082994Y-103379026D01*
X104085237Y-103378627D01*
X104087469Y-103378138D01*
X104089687Y-103377558D01*
X104091888Y-103376888D01*
X104094068Y-103376126D01*
X104096225Y-103375272D01*
X104098356Y-103374326D01*
X104100457Y-103373288D01*
X104102526Y-103372156D01*
X104104560Y-103370930D01*
X104106555Y-103369610D01*
X104108508Y-103368196D01*
X104110836Y-103366354D01*
X104113045Y-103364418D01*
X104115133Y-103362392D01*
X104117099Y-103360281D01*
X104118944Y-103358091D01*
X104120666Y-103355827D01*
X104122265Y-103353493D01*
X104123740Y-103351095D01*
X104125090Y-103348637D01*
X104126315Y-103346126D01*
X104127414Y-103343565D01*
X104128385Y-103340961D01*
X104129229Y-103338318D01*
X104129945Y-103335641D01*
X104130532Y-103332935D01*
X104130989Y-103330206D01*
X104131315Y-103327459D01*
X104131511Y-103324698D01*
X104131574Y-103321928D01*
X104131505Y-103319156D01*
X104131303Y-103316385D01*
X104130967Y-103313621D01*
X104130496Y-103310869D01*
X104129890Y-103308134D01*
X104129147Y-103305421D01*
X104128268Y-103302736D01*
X104127251Y-103300083D01*
X104126096Y-103297467D01*
X104124802Y-103294894D01*
X104123368Y-103292369D01*
X104121794Y-103289896D01*
X104120079Y-103287481D01*
X104103884Y-103265606D01*
X104087959Y-103243494D01*
X104072318Y-103221165D01*
X104056976Y-103198638D01*
X104041948Y-103175934D01*
X104027250Y-103153074D01*
X104012895Y-103130077D01*
X103998900Y-103106964D01*
X103997314Y-103104459D01*
X103995621Y-103102062D01*
X103993826Y-103099777D01*
X103991935Y-103097603D01*
X103989952Y-103095542D01*
X103987881Y-103093595D01*
X103985730Y-103091763D01*
X103983501Y-103090048D01*
X103981200Y-103088451D01*
X103978832Y-103086973D01*
X103976402Y-103085614D01*
X103973915Y-103084378D01*
X103971376Y-103083264D01*
X103968789Y-103082273D01*
X103966160Y-103081408D01*
X103963494Y-103080669D01*
X103960796Y-103080057D01*
X103958070Y-103079574D01*
X103955322Y-103079221D01*
X103952556Y-103078999D01*
X103949778Y-103078910D01*
X103946992Y-103078953D01*
X103944204Y-103079132D01*
X103941418Y-103079446D01*
X103938639Y-103079897D01*
X103935872Y-103080487D01*
X103933123Y-103081216D01*
X103930396Y-103082086D01*
X103927696Y-103083098D01*
X103925028Y-103084253D01*
X103922397Y-103085552D01*
X103919807Y-103086997D01*
X103917298Y-103088586D01*
X103914899Y-103090282D01*
X103912609Y-103092080D01*
X103910431Y-103093974D01*
X103908366Y-103095959D01*
X103906416Y-103098032D01*
X103904580Y-103100185D01*
X103902861Y-103102416D01*
X103901260Y-103104719D01*
X103899779Y-103107088D01*
X103898417Y-103109519D01*
X103897177Y-103112007D01*
X103896060Y-103114547D01*
X103895068Y-103117134D01*
X103894200Y-103119763D01*
X103893459Y-103122429D01*
X103892846Y-103125127D01*
X103892362Y-103127853D01*
X103892009Y-103130601D01*
X103891787Y-103133366D01*
X103891698Y-103136143D01*
X103588706Y-103136143D01*
X103535462Y-103023944D01*
X103467371Y-102845194D01*
X103413294Y-102660005D01*
X103373874Y-102469016D01*
X103363200Y-102394776D01*
X103658328Y-102394776D01*
X103658870Y-102416131D01*
X103660478Y-102437209D01*
X103663126Y-102457985D01*
X103666788Y-102478431D01*
X103671438Y-102498522D01*
X103677048Y-102518232D01*
X103683593Y-102537533D01*
X103691046Y-102556399D01*
X103699381Y-102574805D01*
X103708572Y-102592724D01*
X103718592Y-102610130D01*
X103729416Y-102626995D01*
X103741016Y-102643295D01*
X103753366Y-102659002D01*
X103766441Y-102674091D01*
X103780213Y-102688535D01*
X103794656Y-102702307D01*
X103809745Y-102715381D01*
X103825452Y-102727731D01*
X103841752Y-102739331D01*
X103858618Y-102750155D01*
X103876023Y-102760175D01*
X103893942Y-102769366D01*
X103912348Y-102777701D01*
X103931215Y-102785155D01*
X103950516Y-102791699D01*
X103970225Y-102797310D01*
X103990316Y-102801959D01*
X104010762Y-102805621D01*
X104031538Y-102808269D01*
X104052616Y-102809877D01*
X104073971Y-102810419D01*
X104083021Y-102810318D01*
X104092020Y-102810015D01*
X104100967Y-102809514D01*
X104109860Y-102808819D01*
X104118698Y-102807932D01*
X104127479Y-102806857D01*
X104136202Y-102805596D01*
X104144866Y-102804153D01*
X104153469Y-102802531D01*
X104162010Y-102800733D01*
X104170487Y-102798763D01*
X104178899Y-102796623D01*
X104195524Y-102791847D01*
X104211871Y-102786430D01*
X104237918Y-102839365D01*
X104265678Y-102891253D01*
X104295123Y-102942058D01*
X104326230Y-102991745D01*
X104358970Y-103040277D01*
X104393319Y-103087618D01*
X104429249Y-103133732D01*
X104466736Y-103178582D01*
X104505751Y-103222134D01*
X104546271Y-103264349D01*
X104588268Y-103305193D01*
X104631715Y-103344630D01*
X104676588Y-103382622D01*
X104722860Y-103419135D01*
X104770505Y-103454132D01*
X104819496Y-103487576D01*
X104821342Y-103488741D01*
X104823215Y-103489827D01*
X104825114Y-103490836D01*
X104827035Y-103491767D01*
X104828977Y-103492622D01*
X104830938Y-103493400D01*
X104832915Y-103494102D01*
X104834908Y-103494728D01*
X104836913Y-103495280D01*
X104838929Y-103495756D01*
X104840954Y-103496158D01*
X104842986Y-103496486D01*
X104845022Y-103496740D01*
X104847062Y-103496921D01*
X104849101Y-103497029D01*
X104851140Y-103497065D01*
X104854647Y-103496958D01*
X104858135Y-103496639D01*
X104861595Y-103496108D01*
X104865016Y-103495369D01*
X104868388Y-103494425D01*
X104871702Y-103493276D01*
X104874948Y-103491926D01*
X104878114Y-103490376D01*
X104881192Y-103488629D01*
X104884170Y-103486687D01*
X104887040Y-103484553D01*
X104889791Y-103482228D01*
X104892412Y-103479714D01*
X104894894Y-103477015D01*
X104897227Y-103474131D01*
X104898334Y-103472621D01*
X104899400Y-103471066D01*
X104900965Y-103468546D01*
X104902384Y-103465978D01*
X104903660Y-103463367D01*
X104904794Y-103460716D01*
X104905786Y-103458033D01*
X104906637Y-103455320D01*
X104907349Y-103452585D01*
X104907922Y-103449830D01*
X104908359Y-103447063D01*
X104908658Y-103444287D01*
X104908823Y-103441507D01*
X104908840Y-103439926D01*
X106624888Y-103439926D01*
X106624985Y-103442703D01*
X106625217Y-103445479D01*
X106625584Y-103448249D01*
X106626088Y-103451007D01*
X106626729Y-103453748D01*
X106627508Y-103456468D01*
X106628426Y-103459162D01*
X106629485Y-103461824D01*
X106630684Y-103464449D01*
X106632025Y-103467032D01*
X106633509Y-103469569D01*
X106635137Y-103472054D01*
X106637312Y-103475008D01*
X106639637Y-103477783D01*
X106642102Y-103480378D01*
X106644699Y-103482791D01*
X106647417Y-103485021D01*
X106650246Y-103487066D01*
X106653178Y-103488923D01*
X106656202Y-103490592D01*
X106659310Y-103492071D01*
X106662491Y-103493358D01*
X106665736Y-103494452D01*
X106669035Y-103495350D01*
X106672379Y-103496052D01*
X106675759Y-103496555D01*
X106679164Y-103496858D01*
X106682586Y-103496960D01*
X106684703Y-103496920D01*
X106686822Y-103496802D01*
X106688940Y-103496605D01*
X106691054Y-103496328D01*
X106693163Y-103495972D01*
X106695263Y-103495535D01*
X106697353Y-103495018D01*
X106699431Y-103494420D01*
X106701493Y-103493741D01*
X106703539Y-103492981D01*
X106705565Y-103492139D01*
X106707569Y-103491215D01*
X106709549Y-103490209D01*
X106711503Y-103489120D01*
X106713429Y-103487949D01*
X106715324Y-103486694D01*
X106760708Y-103454205D01*
X106804937Y-103420301D01*
X106847980Y-103385019D01*
X106889806Y-103348396D01*
X106896513Y-103342126D01*
X107355050Y-103342126D01*
X107355102Y-103344895D01*
X107355286Y-103347655D01*
X107355602Y-103350403D01*
X107356048Y-103353132D01*
X107356625Y-103355838D01*
X107357330Y-103358516D01*
X107358165Y-103361161D01*
X107359127Y-103363767D01*
X107360216Y-103366330D01*
X107361432Y-103368844D01*
X107362774Y-103371304D01*
X107364240Y-103373706D01*
X107365831Y-103376044D01*
X107367545Y-103378313D01*
X107369383Y-103380508D01*
X107371342Y-103382623D01*
X107373423Y-103384655D01*
X107375624Y-103386597D01*
X107377946Y-103388445D01*
X107379918Y-103389873D01*
X107381929Y-103391206D01*
X107383977Y-103392444D01*
X107386059Y-103393589D01*
X107388171Y-103394640D01*
X107390312Y-103395597D01*
X107392479Y-103396462D01*
X107394668Y-103397234D01*
X107396876Y-103397914D01*
X107399102Y-103398502D01*
X107401342Y-103398999D01*
X107403594Y-103399404D01*
X107405854Y-103399719D01*
X107408120Y-103399943D01*
X107410390Y-103400077D01*
X107412659Y-103400122D01*
X107415929Y-103400030D01*
X107419185Y-103399755D01*
X107422418Y-103399297D01*
X107425621Y-103398658D01*
X107428786Y-103397838D01*
X107431903Y-103396839D01*
X107434964Y-103395661D01*
X107437962Y-103394306D01*
X107440888Y-103392774D01*
X107443734Y-103391067D01*
X107446491Y-103389185D01*
X107449152Y-103387130D01*
X107451707Y-103384902D01*
X107454150Y-103382502D01*
X107456470Y-103379932D01*
X107458661Y-103377192D01*
X107482734Y-103344733D01*
X107506202Y-103311801D01*
X107529048Y-103278428D01*
X107551252Y-103244645D01*
X107572797Y-103210480D01*
X107593663Y-103175966D01*
X107613833Y-103141133D01*
X107633286Y-103106011D01*
X107633286Y-103106012D01*
X107634634Y-103103372D01*
X107635833Y-103100696D01*
X107636885Y-103097989D01*
X107637792Y-103095255D01*
X107638554Y-103092498D01*
X107639174Y-103089726D01*
X107639653Y-103086941D01*
X107639992Y-103084149D01*
X107640194Y-103081355D01*
X107640258Y-103078564D01*
X107640187Y-103075781D01*
X107639982Y-103073011D01*
X107639645Y-103070259D01*
X107639177Y-103067529D01*
X107638580Y-103064827D01*
X107637855Y-103062157D01*
X107637003Y-103059525D01*
X107636026Y-103056935D01*
X107634926Y-103054393D01*
X107633703Y-103051903D01*
X107632360Y-103049471D01*
X107630898Y-103047100D01*
X107629317Y-103044797D01*
X107627621Y-103042566D01*
X107625810Y-103040412D01*
X107623885Y-103038340D01*
X107621849Y-103036355D01*
X107619702Y-103034462D01*
X107617446Y-103032665D01*
X107615082Y-103030971D01*
X107612613Y-103029383D01*
X107610038Y-103027907D01*
X107607405Y-103026565D01*
X107604735Y-103025372D01*
X107602032Y-103024324D01*
X107599301Y-103023422D01*
X107596549Y-103022662D01*
X107593778Y-103022045D01*
X107590996Y-103021568D01*
X107588205Y-103021230D01*
X107585412Y-103021030D01*
X107582622Y-103020966D01*
X107579839Y-103021037D01*
X107577069Y-103021242D01*
X107574315Y-103021578D01*
X107571585Y-103022045D01*
X107568881Y-103022641D01*
X107566210Y-103023365D01*
X107563576Y-103024215D01*
X107560985Y-103025190D01*
X107558440Y-103026288D01*
X107555949Y-103027508D01*
X107553514Y-103028849D01*
X107551141Y-103030310D01*
X107548836Y-103031888D01*
X107546603Y-103033582D01*
X107544447Y-103035391D01*
X107542373Y-103037314D01*
X107540386Y-103039349D01*
X107538491Y-103041495D01*
X107536694Y-103043749D01*
X107534998Y-103046112D01*
X107533410Y-103048581D01*
X107531933Y-103051155D01*
X107513530Y-103084376D01*
X107494447Y-103117319D01*
X107474703Y-103149960D01*
X107454318Y-103182273D01*
X107433309Y-103214232D01*
X107411695Y-103245812D01*
X107389495Y-103276986D01*
X107366727Y-103307730D01*
X107364996Y-103310139D01*
X107363406Y-103312605D01*
X107361957Y-103315125D01*
X107360648Y-103317693D01*
X107359478Y-103320304D01*
X107358447Y-103322953D01*
X107357553Y-103325635D01*
X107356797Y-103328344D01*
X107356178Y-103331075D01*
X107355694Y-103333825D01*
X107355345Y-103336586D01*
X107355131Y-103339355D01*
X107355050Y-103342126D01*
X106896513Y-103342126D01*
X106930382Y-103310468D01*
X106969678Y-103271271D01*
X107007661Y-103230843D01*
X107044302Y-103189219D01*
X107079568Y-103146436D01*
X107113428Y-103102531D01*
X107145851Y-103057541D01*
X107176805Y-103011501D01*
X107206259Y-102964449D01*
X107234181Y-102916420D01*
X107260541Y-102867452D01*
X107285307Y-102817581D01*
X107286514Y-102814870D01*
X107287572Y-102812130D01*
X107288481Y-102809367D01*
X107289244Y-102806586D01*
X107289862Y-102803791D01*
X107290336Y-102800986D01*
X107290670Y-102798178D01*
X107290863Y-102795371D01*
X107290919Y-102792569D01*
X107290838Y-102789777D01*
X107290622Y-102787000D01*
X107290274Y-102784244D01*
X107289795Y-102781512D01*
X107289186Y-102778810D01*
X107288449Y-102776143D01*
X107287586Y-102773514D01*
X107286599Y-102770930D01*
X107285489Y-102768395D01*
X107284259Y-102765914D01*
X107282909Y-102763491D01*
X107281442Y-102761132D01*
X107279859Y-102758841D01*
X107278161Y-102756623D01*
X107276352Y-102754483D01*
X107274432Y-102752425D01*
X107272403Y-102750455D01*
X107270266Y-102748578D01*
X107268024Y-102746798D01*
X107265679Y-102745120D01*
X107263231Y-102743548D01*
X107260683Y-102742089D01*
X107258036Y-102740746D01*
X107255325Y-102739535D01*
X107252586Y-102738474D01*
X107249824Y-102737561D01*
X107247043Y-102736795D01*
X107244249Y-102736174D01*
X107241445Y-102735696D01*
X107238638Y-102735360D01*
X107235831Y-102735164D01*
X107233030Y-102735106D01*
X107230240Y-102735184D01*
X107227464Y-102735397D01*
X107224709Y-102735744D01*
X107221978Y-102736221D01*
X107219277Y-102736829D01*
X107216611Y-102737564D01*
X107213983Y-102738426D01*
X107211400Y-102739413D01*
X107208866Y-102740522D01*
X107206385Y-102741753D01*
X107203962Y-102743103D01*
X107201603Y-102744571D01*
X107199312Y-102746155D01*
X107197094Y-102747854D01*
X107194953Y-102749665D01*
X107192895Y-102751588D01*
X107190924Y-102753620D01*
X107189046Y-102755760D01*
X107187264Y-102758006D01*
X107185584Y-102760356D01*
X107184010Y-102762809D01*
X107182548Y-102765362D01*
X107181202Y-102768015D01*
X107158111Y-102814510D01*
X107133534Y-102860164D01*
X107107501Y-102904942D01*
X107080039Y-102948811D01*
X107051178Y-102991736D01*
X107020948Y-103033684D01*
X106989377Y-103074620D01*
X106956495Y-103114509D01*
X106922332Y-103153319D01*
X106886915Y-103191013D01*
X106850275Y-103227560D01*
X106812440Y-103262923D01*
X106773441Y-103297070D01*
X106733305Y-103329966D01*
X106692062Y-103361576D01*
X106649742Y-103391868D01*
X106647346Y-103393612D01*
X106645065Y-103395457D01*
X106642901Y-103397396D01*
X106640855Y-103399424D01*
X106638928Y-103401537D01*
X106637120Y-103403729D01*
X106635433Y-103405995D01*
X106633867Y-103408331D01*
X106632424Y-103410731D01*
X106631103Y-103413190D01*
X106629907Y-103415703D01*
X106628837Y-103418265D01*
X106627892Y-103420872D01*
X106627074Y-103423517D01*
X106626385Y-103426196D01*
X106625824Y-103428905D01*
X106625393Y-103431637D01*
X106625092Y-103434388D01*
X106624924Y-103437153D01*
X106624888Y-103439926D01*
X104908840Y-103439926D01*
X104908853Y-103438729D01*
X104908749Y-103435957D01*
X104908514Y-103433197D01*
X104908147Y-103430454D01*
X104907651Y-103427732D01*
X104907025Y-103425036D01*
X104906271Y-103422373D01*
X104905390Y-103419745D01*
X104904383Y-103417160D01*
X104903252Y-103414621D01*
X104901996Y-103412133D01*
X104900618Y-103409702D01*
X104899117Y-103407333D01*
X104897496Y-103405030D01*
X104895756Y-103402799D01*
X104893896Y-103400645D01*
X104891919Y-103398572D01*
X104889825Y-103396586D01*
X104887616Y-103394691D01*
X104885292Y-103392893D01*
X104882855Y-103391197D01*
X104849616Y-103368514D01*
X104836928Y-103359855D01*
X104792270Y-103327050D01*
X104748906Y-103292816D01*
X104706862Y-103257187D01*
X104690664Y-103242466D01*
X105228612Y-103242466D01*
X105228612Y-103368514D01*
X106289802Y-103368514D01*
X106289802Y-103242466D01*
X105228612Y-103242466D01*
X104690664Y-103242466D01*
X104666161Y-103220197D01*
X104626829Y-103181882D01*
X104591328Y-103144817D01*
X104588892Y-103142274D01*
X104552372Y-103101408D01*
X104517297Y-103059318D01*
X104485811Y-103018770D01*
X105228647Y-103018770D01*
X105228647Y-103144817D01*
X106289837Y-103144817D01*
X106289837Y-103018770D01*
X105228647Y-103018770D01*
X104485811Y-103018770D01*
X104483690Y-103016039D01*
X104451577Y-102971605D01*
X104420981Y-102926050D01*
X104417889Y-102921085D01*
X105178658Y-102921085D01*
X105619525Y-102921085D01*
X105898960Y-102921085D01*
X106339791Y-102921085D01*
X106255230Y-102756303D01*
X106255230Y-102700000D01*
X106484642Y-102700000D01*
X106484717Y-102702965D01*
X106484940Y-102705891D01*
X106485307Y-102708776D01*
X106485815Y-102711614D01*
X106486460Y-102714403D01*
X106487238Y-102717139D01*
X106488146Y-102719818D01*
X106489180Y-102722436D01*
X106490336Y-102724991D01*
X106491611Y-102727478D01*
X106493001Y-102729893D01*
X106494502Y-102732233D01*
X106496111Y-102734495D01*
X106497824Y-102736674D01*
X106499638Y-102738768D01*
X106501549Y-102740772D01*
X106503553Y-102742683D01*
X106505646Y-102744496D01*
X106507826Y-102746210D01*
X106510088Y-102747819D01*
X106512428Y-102749320D01*
X106514843Y-102750710D01*
X106517330Y-102751985D01*
X106519885Y-102753141D01*
X106522503Y-102754175D01*
X106525182Y-102755083D01*
X106527918Y-102755861D01*
X106530707Y-102756505D01*
X106533545Y-102757013D01*
X106536430Y-102757381D01*
X106539356Y-102757604D01*
X106542321Y-102757679D01*
X106545290Y-102757604D01*
X106548219Y-102757381D01*
X106551105Y-102757013D01*
X106553946Y-102756505D01*
X106556736Y-102755861D01*
X106559473Y-102755083D01*
X106562153Y-102754175D01*
X106564773Y-102753141D01*
X106567328Y-102751985D01*
X106569815Y-102750710D01*
X106572230Y-102749320D01*
X106574570Y-102747819D01*
X106576832Y-102746210D01*
X106579011Y-102744496D01*
X106581104Y-102742683D01*
X106583107Y-102740772D01*
X106585016Y-102738768D01*
X106586829Y-102736674D01*
X106588542Y-102734495D01*
X106590150Y-102732233D01*
X106591650Y-102729893D01*
X106593039Y-102727478D01*
X106594313Y-102724991D01*
X106595468Y-102722436D01*
X106596500Y-102719818D01*
X106597407Y-102717139D01*
X106598185Y-102714403D01*
X106598829Y-102711614D01*
X106599336Y-102708776D01*
X106599703Y-102705891D01*
X106599925Y-102702965D01*
X106600000Y-102700000D01*
X106600000Y-102462827D01*
X107838638Y-102462827D01*
X107841603Y-102462752D01*
X107844529Y-102462529D01*
X107847412Y-102462162D01*
X107850250Y-102461654D01*
X107853037Y-102461009D01*
X107855771Y-102460231D01*
X107858448Y-102459323D01*
X107861064Y-102458290D01*
X107863616Y-102457134D01*
X107866100Y-102455859D01*
X107868512Y-102454469D01*
X107870850Y-102452967D01*
X107873108Y-102451358D01*
X107875284Y-102449645D01*
X107877375Y-102447831D01*
X107879375Y-102445920D01*
X107881283Y-102443916D01*
X107883093Y-102441823D01*
X107884803Y-102439643D01*
X107886409Y-102437382D01*
X107887908Y-102435041D01*
X107889295Y-102432626D01*
X107890567Y-102430139D01*
X107891720Y-102427585D01*
X107892752Y-102424966D01*
X107893657Y-102422287D01*
X107894434Y-102419551D01*
X107895077Y-102416762D01*
X107895583Y-102413924D01*
X107895950Y-102411040D01*
X107896172Y-102408113D01*
X107896247Y-102405148D01*
X107896172Y-102402183D01*
X107895950Y-102399256D01*
X107895583Y-102396372D01*
X107895077Y-102393534D01*
X107894434Y-102390745D01*
X107893657Y-102388009D01*
X107892752Y-102385330D01*
X107891720Y-102382711D01*
X107890567Y-102380157D01*
X107889295Y-102377670D01*
X107887908Y-102375255D01*
X107886409Y-102372914D01*
X107884803Y-102370653D01*
X107883093Y-102368473D01*
X107881283Y-102366380D01*
X107879375Y-102364376D01*
X107877375Y-102362465D01*
X107875284Y-102360651D01*
X107873108Y-102358938D01*
X107870850Y-102357329D01*
X107868512Y-102355827D01*
X107866100Y-102354437D01*
X107863616Y-102353163D01*
X107861064Y-102352007D01*
X107858448Y-102350973D01*
X107855771Y-102350065D01*
X107853037Y-102349287D01*
X107850250Y-102348642D01*
X107847412Y-102348134D01*
X107844529Y-102347767D01*
X107841603Y-102347544D01*
X107838638Y-102347469D01*
X106542321Y-102347469D01*
X106539356Y-102347544D01*
X106536430Y-102347767D01*
X106533545Y-102348134D01*
X106530707Y-102348642D01*
X106527918Y-102349287D01*
X106525182Y-102350065D01*
X106522503Y-102350973D01*
X106519885Y-102352007D01*
X106517330Y-102353163D01*
X106514843Y-102354437D01*
X106512428Y-102355827D01*
X106510088Y-102357329D01*
X106507826Y-102358938D01*
X106505646Y-102360651D01*
X106503553Y-102362465D01*
X106501549Y-102364376D01*
X106499638Y-102366380D01*
X106497824Y-102368473D01*
X106496111Y-102370653D01*
X106494502Y-102372914D01*
X106493001Y-102375255D01*
X106491611Y-102377670D01*
X106490336Y-102380157D01*
X106489180Y-102382711D01*
X106488146Y-102385330D01*
X106487238Y-102388009D01*
X106486460Y-102390745D01*
X106485815Y-102393534D01*
X106485307Y-102396372D01*
X106484940Y-102399256D01*
X106484717Y-102402183D01*
X106484642Y-102405148D01*
X106484642Y-102700000D01*
X106255230Y-102700000D01*
X106255230Y-102405148D01*
X106255230Y-102261956D01*
X106054993Y-101929110D01*
X106003398Y-101709577D01*
X106247328Y-101709577D01*
X106247403Y-101712542D01*
X106247626Y-101715468D01*
X106247993Y-101718352D01*
X106248501Y-101721191D01*
X106249146Y-101723980D01*
X106249924Y-101726716D01*
X106250832Y-101729395D01*
X106251866Y-101732013D01*
X106253022Y-101734568D01*
X106254296Y-101737054D01*
X106255686Y-101739470D01*
X106257188Y-101741810D01*
X106258797Y-101744072D01*
X106260510Y-101746251D01*
X106262324Y-101748345D01*
X106264235Y-101750349D01*
X106266239Y-101752260D01*
X106268332Y-101754073D01*
X106270512Y-101755787D01*
X106272773Y-101757396D01*
X106275114Y-101758897D01*
X106277529Y-101760287D01*
X106280016Y-101761562D01*
X106282570Y-101762718D01*
X106285189Y-101763752D01*
X106287868Y-101764660D01*
X106290604Y-101765438D01*
X106293393Y-101766082D01*
X106296231Y-101766590D01*
X106299115Y-101766958D01*
X106302042Y-101767181D01*
X106305007Y-101767256D01*
X107006823Y-101767256D01*
X107009891Y-101786046D01*
X107013789Y-101804547D01*
X107018498Y-101822739D01*
X107023998Y-101840603D01*
X107030269Y-101858117D01*
X107037291Y-101875262D01*
X107045043Y-101892017D01*
X107053507Y-101908362D01*
X107062661Y-101924277D01*
X107072487Y-101939742D01*
X107082963Y-101954737D01*
X107094071Y-101969241D01*
X107105790Y-101983234D01*
X107118101Y-101996697D01*
X107130982Y-102009608D01*
X107144415Y-102021948D01*
X107158380Y-102033697D01*
X107172856Y-102044833D01*
X107187823Y-102055338D01*
X107203263Y-102065191D01*
X107219153Y-102074372D01*
X107235476Y-102082860D01*
X107252210Y-102090636D01*
X107269336Y-102097679D01*
X107286834Y-102103969D01*
X107304684Y-102109486D01*
X107322866Y-102114209D01*
X107341359Y-102118119D01*
X107360145Y-102121195D01*
X107379203Y-102123417D01*
X107398513Y-102124765D01*
X107418056Y-102125219D01*
X107439410Y-102124677D01*
X107460488Y-102123069D01*
X107481263Y-102120421D01*
X107501709Y-102116759D01*
X107521799Y-102112110D01*
X107541508Y-102106500D01*
X107560808Y-102099955D01*
X107579673Y-102092501D01*
X107598078Y-102084166D01*
X107615996Y-102074975D01*
X107633400Y-102064955D01*
X107650264Y-102054132D01*
X107666562Y-102042532D01*
X107682268Y-102030181D01*
X107697355Y-102017107D01*
X107711796Y-102003335D01*
X107725567Y-101988891D01*
X107738640Y-101973803D01*
X107750989Y-101958095D01*
X107762587Y-101941796D01*
X107773409Y-101924930D01*
X107783428Y-101907524D01*
X107792617Y-101889605D01*
X107800951Y-101871200D01*
X107808403Y-101852333D01*
X107814947Y-101833032D01*
X107820556Y-101813322D01*
X107825205Y-101793231D01*
X107828866Y-101772785D01*
X107831514Y-101752010D01*
X107833122Y-101730931D01*
X107833664Y-101709577D01*
X107833122Y-101688219D01*
X107831514Y-101667138D01*
X107828866Y-101646361D01*
X107825205Y-101625913D01*
X107820556Y-101605821D01*
X107814947Y-101586112D01*
X107808403Y-101566810D01*
X107800951Y-101547944D01*
X107792617Y-101529539D01*
X107783428Y-101511621D01*
X107773409Y-101494217D01*
X107762587Y-101477353D01*
X107750989Y-101461055D01*
X107738640Y-101445350D01*
X107725567Y-101430264D01*
X107711796Y-101415823D01*
X107697355Y-101402053D01*
X107682268Y-101388981D01*
X107666562Y-101376634D01*
X107650264Y-101365036D01*
X107633400Y-101354216D01*
X107615996Y-101344198D01*
X107598078Y-101335009D01*
X107579673Y-101326677D01*
X107560808Y-101319225D01*
X107541508Y-101312683D01*
X107521799Y-101307074D01*
X107501709Y-101302426D01*
X107481263Y-101298766D01*
X107460488Y-101296118D01*
X107439410Y-101294511D01*
X107418056Y-101293969D01*
X107409032Y-101294070D01*
X107400059Y-101294372D01*
X107391139Y-101294870D01*
X107382272Y-101295562D01*
X107373460Y-101296445D01*
X107364705Y-101297515D01*
X107356007Y-101298769D01*
X107347368Y-101300204D01*
X107338790Y-101301817D01*
X107330273Y-101303605D01*
X107321819Y-101305564D01*
X107313430Y-101307691D01*
X107296850Y-101312437D01*
X107280543Y-101317817D01*
X107248042Y-101254119D01*
X107212949Y-101191967D01*
X107175337Y-101131437D01*
X107135280Y-101072604D01*
X107092851Y-101015543D01*
X107048123Y-100960330D01*
X107001169Y-100907040D01*
X106952063Y-100855748D01*
X106900877Y-100806530D01*
X106896067Y-100802274D01*
X107355047Y-100802274D01*
X107355128Y-100805046D01*
X107355343Y-100807817D01*
X107355692Y-100810580D01*
X107356176Y-100813331D01*
X107356796Y-100816064D01*
X107357552Y-100818775D01*
X107358446Y-100821459D01*
X107359477Y-100824110D01*
X107360647Y-100826723D01*
X107361956Y-100829294D01*
X107363405Y-100831816D01*
X107364995Y-100834286D01*
X107366727Y-100836698D01*
X107389460Y-100867362D01*
X107411635Y-100898482D01*
X107433234Y-100930030D01*
X107454238Y-100961978D01*
X107474628Y-100994301D01*
X107494387Y-101026970D01*
X107513494Y-101059958D01*
X107531932Y-101093238D01*
X107533992Y-101096751D01*
X107536260Y-101100064D01*
X107538722Y-101103174D01*
X107541367Y-101106077D01*
X107544182Y-101108769D01*
X107547153Y-101111246D01*
X107550268Y-101113505D01*
X107553514Y-101115543D01*
X107556878Y-101117354D01*
X107560348Y-101118936D01*
X107563910Y-101120285D01*
X107567552Y-101121396D01*
X107571261Y-101122268D01*
X107575025Y-101122895D01*
X107578829Y-101123274D01*
X107582662Y-101123401D01*
X107584403Y-101123375D01*
X107586147Y-101123296D01*
X107587891Y-101123164D01*
X107589635Y-101122980D01*
X107591377Y-101122741D01*
X107593117Y-101122448D01*
X107594853Y-101122101D01*
X107596584Y-101121699D01*
X107598309Y-101121241D01*
X107600026Y-101120727D01*
X107601735Y-101120158D01*
X107603434Y-101119531D01*
X107605122Y-101118848D01*
X107606798Y-101118107D01*
X107608460Y-101117308D01*
X107610108Y-101116451D01*
X107612676Y-101114972D01*
X107615140Y-101113381D01*
X107617497Y-101111684D01*
X107619748Y-101109885D01*
X107621890Y-101107991D01*
X107623922Y-101106004D01*
X107625843Y-101103931D01*
X107627650Y-101101776D01*
X107629343Y-101099544D01*
X107630920Y-101097240D01*
X107632379Y-101094870D01*
X107633720Y-101092437D01*
X107634940Y-101089947D01*
X107636038Y-101087405D01*
X107637013Y-101084815D01*
X107637863Y-101082183D01*
X107638587Y-101079513D01*
X107639183Y-101076811D01*
X107639649Y-101074081D01*
X107639985Y-101071329D01*
X107640189Y-101068558D01*
X107640259Y-101065775D01*
X107640195Y-101062984D01*
X107639993Y-101060189D01*
X107639653Y-101057396D01*
X107639174Y-101054610D01*
X107638554Y-101051836D01*
X107637791Y-101049078D01*
X107636884Y-101046342D01*
X107635832Y-101043632D01*
X107634633Y-101040953D01*
X107633286Y-101038311D01*
X107613796Y-101003133D01*
X107593598Y-100968262D01*
X107572713Y-100933729D01*
X107551159Y-100899563D01*
X107528957Y-100865794D01*
X107506127Y-100832452D01*
X107482688Y-100799566D01*
X107458661Y-100767166D01*
X107456819Y-100764850D01*
X107454884Y-100762654D01*
X107452859Y-100760577D01*
X107450750Y-100758621D01*
X107448562Y-100756787D01*
X107446300Y-100755074D01*
X107443969Y-100753484D01*
X107441574Y-100752018D01*
X107439119Y-100750677D01*
X107436611Y-100749460D01*
X107434053Y-100748370D01*
X107431452Y-100747406D01*
X107428811Y-100746570D01*
X107426137Y-100745862D01*
X107423434Y-100745284D01*
X107420706Y-100744835D01*
X107417960Y-100744517D01*
X107415200Y-100744330D01*
X107412431Y-100744275D01*
X107409658Y-100744354D01*
X107406886Y-100744566D01*
X107404121Y-100744912D01*
X107401367Y-100745394D01*
X107398628Y-100746012D01*
X107395912Y-100746767D01*
X107393221Y-100747659D01*
X107390562Y-100748690D01*
X107387939Y-100749860D01*
X107385357Y-100751170D01*
X107382822Y-100752621D01*
X107380338Y-100754213D01*
X107377910Y-100755947D01*
X107375592Y-100757795D01*
X107373393Y-100759738D01*
X107371315Y-100761769D01*
X107369358Y-100763885D01*
X107367524Y-100766080D01*
X107365811Y-100768349D01*
X107364223Y-100770687D01*
X107362758Y-100773089D01*
X107361418Y-100775550D01*
X107360204Y-100778064D01*
X107359116Y-100780627D01*
X107358155Y-100783234D01*
X107357322Y-100785879D01*
X107356618Y-100788557D01*
X107356042Y-100791264D01*
X107355597Y-100793994D01*
X107355282Y-100796743D01*
X107355098Y-100799504D01*
X107355047Y-100802274D01*
X106896067Y-100802274D01*
X106847685Y-100759461D01*
X106792560Y-100714616D01*
X106735574Y-100672071D01*
X106676802Y-100631901D01*
X106616317Y-100594182D01*
X106554191Y-100558988D01*
X106490497Y-100526395D01*
X106487789Y-100525168D01*
X106485053Y-100524090D01*
X106482292Y-100523161D01*
X106479512Y-100522379D01*
X106476718Y-100521741D01*
X106473915Y-100521247D01*
X106471107Y-100520894D01*
X106468300Y-100520681D01*
X106465497Y-100520607D01*
X106462704Y-100520668D01*
X106459926Y-100520865D01*
X106457167Y-100521195D01*
X106454432Y-100521656D01*
X106451727Y-100522247D01*
X106449055Y-100522966D01*
X106446422Y-100523811D01*
X106443833Y-100524781D01*
X106441292Y-100525874D01*
X106438804Y-100527088D01*
X106436374Y-100528422D01*
X106434007Y-100529873D01*
X106431707Y-100531441D01*
X106429480Y-100533123D01*
X106427330Y-100534918D01*
X106425262Y-100536824D01*
X106423281Y-100538840D01*
X106421391Y-100540963D01*
X106419598Y-100543192D01*
X106417906Y-100545526D01*
X106416320Y-100547962D01*
X106414846Y-100550499D01*
X106413486Y-100553136D01*
X106412255Y-100555837D01*
X106411175Y-100558569D01*
X106410242Y-100561324D01*
X106409457Y-100564099D01*
X106408816Y-100566889D01*
X106408318Y-100569689D01*
X106407962Y-100572494D01*
X106407746Y-100575299D01*
X106407669Y-100578100D01*
X106407728Y-100580891D01*
X106407921Y-100583668D01*
X106408248Y-100586426D01*
X106408706Y-100589160D01*
X106409295Y-100591866D01*
X106410011Y-100594538D01*
X106410854Y-100597171D01*
X106411821Y-100599761D01*
X106412912Y-100602304D01*
X106414123Y-100604793D01*
X106415455Y-100607225D01*
X106416905Y-100609594D01*
X106418471Y-100611896D01*
X106420151Y-100614126D01*
X106421945Y-100616278D01*
X106423849Y-100618349D01*
X106425864Y-100620333D01*
X106427986Y-100622226D01*
X106430214Y-100624022D01*
X106432547Y-100625717D01*
X106434983Y-100627306D01*
X106437520Y-100628785D01*
X106440156Y-100630147D01*
X106499711Y-100660626D01*
X106557798Y-100693541D01*
X106614349Y-100728823D01*
X106669295Y-100766401D01*
X106722565Y-100806205D01*
X106774091Y-100848162D01*
X106823804Y-100892204D01*
X106871634Y-100938259D01*
X106917513Y-100986256D01*
X106961370Y-101036126D01*
X107003138Y-101087796D01*
X107042746Y-101141198D01*
X107080126Y-101196259D01*
X107115208Y-101252910D01*
X107147923Y-101311080D01*
X107178202Y-101370698D01*
X107161404Y-101383263D01*
X107145280Y-101396635D01*
X107129858Y-101410785D01*
X107115170Y-101425683D01*
X107101244Y-101441299D01*
X107088109Y-101457603D01*
X107075796Y-101474565D01*
X107064335Y-101492155D01*
X107053753Y-101510343D01*
X107044082Y-101529100D01*
X107035351Y-101548395D01*
X107027588Y-101568198D01*
X107020825Y-101588480D01*
X107015090Y-101609210D01*
X107010413Y-101630359D01*
X107006823Y-101651897D01*
X106305007Y-101651897D01*
X106302042Y-101651972D01*
X106299115Y-101652195D01*
X106296231Y-101652562D01*
X106293393Y-101653069D01*
X106290604Y-101653713D01*
X106287868Y-101654490D01*
X106285189Y-101655397D01*
X106282570Y-101656430D01*
X106280016Y-101657585D01*
X106277529Y-101658859D01*
X106275114Y-101660248D01*
X106272773Y-101661748D01*
X106270512Y-101663356D01*
X106268332Y-101665068D01*
X106266239Y-101666881D01*
X106264235Y-101668791D01*
X106262324Y-101670794D01*
X106260510Y-101672887D01*
X106258797Y-101675066D01*
X106257188Y-101677327D01*
X106255686Y-101679668D01*
X106254297Y-101682083D01*
X106253022Y-101684570D01*
X106251866Y-101687125D01*
X106250832Y-101689744D01*
X106249924Y-101692424D01*
X106249146Y-101695161D01*
X106248501Y-101697952D01*
X106247993Y-101700792D01*
X106247626Y-101703679D01*
X106247403Y-101706608D01*
X106247328Y-101709577D01*
X106003398Y-101709577D01*
X106003100Y-101708307D01*
X105829992Y-100206249D01*
X105829992Y-100181070D01*
X106599869Y-100181070D01*
X106599929Y-100183863D01*
X106600124Y-100186642D01*
X106600452Y-100189401D01*
X106600912Y-100192137D01*
X106601502Y-100194843D01*
X106602220Y-100197516D01*
X106603064Y-100200151D01*
X106604034Y-100202742D01*
X106605126Y-100205285D01*
X106606339Y-100207775D01*
X106607672Y-100210207D01*
X106609124Y-100212577D01*
X106610691Y-100214879D01*
X106612373Y-100217109D01*
X106614168Y-100219262D01*
X106616074Y-100221333D01*
X106618089Y-100223317D01*
X106620212Y-100225210D01*
X106622441Y-100227006D01*
X106624775Y-100228701D01*
X106627211Y-100230290D01*
X106629748Y-100231768D01*
X106632385Y-100233131D01*
X106663881Y-100248748D01*
X106695091Y-100264905D01*
X106726007Y-100281598D01*
X106756624Y-100298821D01*
X106786934Y-100316572D01*
X106816932Y-100334846D01*
X106846611Y-100353639D01*
X106875965Y-100372946D01*
X106904986Y-100392763D01*
X106933669Y-100413085D01*
X106962007Y-100433910D01*
X106989994Y-100455232D01*
X107017623Y-100477047D01*
X107044887Y-100499351D01*
X107071781Y-100522140D01*
X107098298Y-100545410D01*
X107100393Y-100547196D01*
X107102548Y-100548865D01*
X107104758Y-100550416D01*
X107107020Y-100551850D01*
X107109329Y-100553167D01*
X107111682Y-100554367D01*
X107114074Y-100555452D01*
X107116501Y-100556421D01*
X107118961Y-100557274D01*
X107121447Y-100558013D01*
X107123957Y-100558637D01*
X107126486Y-100559147D01*
X107129031Y-100559542D01*
X107131586Y-100559825D01*
X107134149Y-100559994D01*
X107136716Y-100560050D01*
X107139678Y-100559974D01*
X107142634Y-100559746D01*
X107145577Y-100559367D01*
X107148500Y-100558836D01*
X107151398Y-100558155D01*
X107154263Y-100557323D01*
X107157090Y-100556340D01*
X107159871Y-100555208D01*
X107162601Y-100553926D01*
X107165272Y-100552495D01*
X107167879Y-100550915D01*
X107170415Y-100549186D01*
X107172874Y-100547308D01*
X107175248Y-100545283D01*
X107177532Y-100543109D01*
X107179719Y-100540789D01*
X107181636Y-100538526D01*
X107183416Y-100536195D01*
X107185062Y-100533799D01*
X107186572Y-100531344D01*
X107187947Y-100528836D01*
X107189187Y-100526278D01*
X107190294Y-100523677D01*
X107191266Y-100521037D01*
X107192104Y-100518364D01*
X107192809Y-100515662D01*
X107193380Y-100512937D01*
X107193819Y-100510194D01*
X107194125Y-100507438D01*
X107194298Y-100504674D01*
X107194340Y-100501907D01*
X107194249Y-100499143D01*
X107194027Y-100496386D01*
X107193674Y-100493642D01*
X107193190Y-100490915D01*
X107192575Y-100488211D01*
X107191829Y-100485535D01*
X107190954Y-100482892D01*
X107189948Y-100480287D01*
X107188813Y-100477725D01*
X107187548Y-100475212D01*
X107186155Y-100472752D01*
X107184632Y-100470351D01*
X107182981Y-100468013D01*
X107181202Y-100465744D01*
X107179295Y-100463550D01*
X107177260Y-100461434D01*
X107175098Y-100459403D01*
X107118643Y-100410727D01*
X107060625Y-100364101D01*
X107001097Y-100319560D01*
X106940113Y-100277140D01*
X106877726Y-100236876D01*
X106813991Y-100198805D01*
X106748962Y-100162960D01*
X106682691Y-100129379D01*
X106679983Y-100128152D01*
X106677246Y-100127074D01*
X106674485Y-100126145D01*
X106671706Y-100125362D01*
X106668912Y-100124725D01*
X106666108Y-100124231D01*
X106663300Y-100123878D01*
X106660493Y-100123665D01*
X106657690Y-100123590D01*
X106654897Y-100123651D01*
X106652119Y-100123848D01*
X106649360Y-100124177D01*
X106646625Y-100124638D01*
X106643920Y-100125228D01*
X106641248Y-100125946D01*
X106638616Y-100126791D01*
X106636026Y-100127760D01*
X106633485Y-100128852D01*
X106630997Y-100130065D01*
X106628567Y-100131397D01*
X106626200Y-100132847D01*
X106623900Y-100134413D01*
X106621673Y-100136094D01*
X106619523Y-100137887D01*
X106617455Y-100139791D01*
X106615474Y-100141805D01*
X106613584Y-100143926D01*
X106611791Y-100146153D01*
X106610099Y-100148484D01*
X106608513Y-100150917D01*
X106607039Y-100153451D01*
X106605679Y-100156084D01*
X106604449Y-100158789D01*
X106603368Y-100161523D01*
X106602436Y-100164281D01*
X106601651Y-100167059D01*
X106601011Y-100169852D01*
X106600515Y-100172654D01*
X106600160Y-100175461D01*
X106599945Y-100178268D01*
X106599869Y-100181070D01*
X105829992Y-100181070D01*
X105829992Y-100082989D01*
X105842759Y-100077265D01*
X105855011Y-100070650D01*
X105866705Y-100063186D01*
X105877798Y-100054915D01*
X105888248Y-100045877D01*
X105898013Y-100036115D01*
X105907050Y-100025669D01*
X105915315Y-100014581D01*
X105922768Y-100002892D01*
X105929365Y-99990644D01*
X105935064Y-99977878D01*
X105939822Y-99964636D01*
X105943597Y-99950958D01*
X105946345Y-99936887D01*
X105948026Y-99922463D01*
X105948596Y-99907729D01*
X105948349Y-99898008D01*
X105947617Y-99888413D01*
X105946411Y-99878956D01*
X105944743Y-99869649D01*
X105942626Y-99860504D01*
X105940072Y-99851532D01*
X105937092Y-99842747D01*
X105933698Y-99834159D01*
X105929903Y-99825780D01*
X105925718Y-99817624D01*
X105921155Y-99809701D01*
X105916227Y-99802024D01*
X105910946Y-99794605D01*
X105905323Y-99787455D01*
X105899370Y-99780587D01*
X105893099Y-99774013D01*
X105886523Y-99767744D01*
X105879654Y-99761793D01*
X105872502Y-99756171D01*
X105865081Y-99750891D01*
X105857403Y-99745965D01*
X105849479Y-99741404D01*
X105841321Y-99737220D01*
X105832941Y-99733426D01*
X105824352Y-99730034D01*
X105815565Y-99727055D01*
X105806593Y-99724501D01*
X105797447Y-99722385D01*
X105788139Y-99720718D01*
X105778682Y-99719513D01*
X105769086Y-99718781D01*
X105759366Y-99718534D01*
X105749648Y-99718781D01*
X105740056Y-99719513D01*
X105730602Y-99720718D01*
X105721298Y-99722385D01*
X105712155Y-99724501D01*
X105703185Y-99727055D01*
X105694402Y-99730034D01*
X105685816Y-99733426D01*
X105677439Y-99737220D01*
X105669285Y-99741404D01*
X105661363Y-99745965D01*
X105653688Y-99750891D01*
X105646270Y-99756171D01*
X105639121Y-99761793D01*
X105632254Y-99767744D01*
X105625681Y-99774013D01*
X105619412Y-99780587D01*
X105613462Y-99787455D01*
X105607841Y-99794605D01*
X105602561Y-99802024D01*
X105597635Y-99809701D01*
X105593075Y-99817624D01*
X105588892Y-99825780D01*
X105585098Y-99834159D01*
X105581706Y-99842747D01*
X105578727Y-99851532D01*
X105576173Y-99860504D01*
X105574057Y-99869649D01*
X105572390Y-99878956D01*
X105571185Y-99888413D01*
X105570453Y-99898008D01*
X105570206Y-99907729D01*
X105570349Y-99915123D01*
X105570774Y-99922444D01*
X105571475Y-99929689D01*
X105572449Y-99936850D01*
X105573688Y-99943925D01*
X105575188Y-99950906D01*
X105576944Y-99957789D01*
X105578950Y-99964569D01*
X105581202Y-99971241D01*
X105583693Y-99977799D01*
X105586418Y-99984239D01*
X105589373Y-99990555D01*
X105592552Y-99996741D01*
X105595950Y-100002794D01*
X105599561Y-100008707D01*
X105603381Y-100014475D01*
X105607403Y-100020093D01*
X105611623Y-100025557D01*
X105616035Y-100030861D01*
X105620634Y-100035999D01*
X105625415Y-100040967D01*
X105630372Y-100045759D01*
X105635501Y-100050370D01*
X105640795Y-100054796D01*
X105646251Y-100059030D01*
X105651861Y-100063068D01*
X105657622Y-100066904D01*
X105663528Y-100070534D01*
X105669573Y-100073952D01*
X105675752Y-100077153D01*
X105682060Y-100080132D01*
X105688493Y-100082883D01*
X105688493Y-100206320D01*
X105515349Y-101708306D01*
X105463456Y-101929110D01*
X105263254Y-102261956D01*
X105263254Y-102756303D01*
X105178658Y-102921085D01*
X104417889Y-102921085D01*
X104391930Y-102879408D01*
X104364446Y-102831713D01*
X104338555Y-102783000D01*
X104314283Y-102733302D01*
X104331029Y-102720739D01*
X104347105Y-102707371D01*
X104362480Y-102693229D01*
X104377124Y-102678342D01*
X104391009Y-102662740D01*
X104404105Y-102646453D01*
X104416382Y-102629510D01*
X104427811Y-102611942D01*
X104438363Y-102593778D01*
X104448007Y-102575048D01*
X104456714Y-102555783D01*
X104464455Y-102536010D01*
X104471201Y-102515762D01*
X104476921Y-102495067D01*
X104481587Y-102473955D01*
X104485168Y-102452456D01*
X105028446Y-102452456D01*
X105031414Y-102452381D01*
X105034344Y-102452157D01*
X105037230Y-102451790D01*
X105040071Y-102451282D01*
X105042861Y-102450638D01*
X105045598Y-102449860D01*
X105048278Y-102448952D01*
X105050898Y-102447918D01*
X105053453Y-102446762D01*
X105055940Y-102445487D01*
X105058355Y-102444097D01*
X105060695Y-102442596D01*
X105062957Y-102440987D01*
X105065136Y-102439273D01*
X105067229Y-102437459D01*
X105069232Y-102435549D01*
X105071142Y-102433545D01*
X105072954Y-102431451D01*
X105074667Y-102429272D01*
X105076275Y-102427010D01*
X105077775Y-102424670D01*
X105079164Y-102422254D01*
X105080438Y-102419768D01*
X105081593Y-102417213D01*
X105082625Y-102414595D01*
X105083532Y-102411916D01*
X105084310Y-102409180D01*
X105084954Y-102406391D01*
X105085461Y-102403552D01*
X105085828Y-102400668D01*
X105086050Y-102397742D01*
X105086125Y-102394776D01*
X105086050Y-102391808D01*
X105085828Y-102388879D01*
X105085461Y-102385992D01*
X105084954Y-102383152D01*
X105084310Y-102380361D01*
X105083532Y-102377624D01*
X105082625Y-102374944D01*
X105081593Y-102372325D01*
X105080438Y-102369770D01*
X105079164Y-102367283D01*
X105077775Y-102364868D01*
X105076275Y-102362527D01*
X105074667Y-102360266D01*
X105072954Y-102358087D01*
X105071142Y-102355994D01*
X105069232Y-102353991D01*
X105067229Y-102352081D01*
X105065136Y-102350268D01*
X105062957Y-102348556D01*
X105060695Y-102346948D01*
X105058355Y-102345448D01*
X105055940Y-102344059D01*
X105053453Y-102342785D01*
X105050898Y-102341630D01*
X105048278Y-102340597D01*
X105045598Y-102339690D01*
X105042861Y-102338913D01*
X105040071Y-102338269D01*
X105037230Y-102337762D01*
X105034344Y-102337395D01*
X105031414Y-102337172D01*
X105028446Y-102337097D01*
X104485168Y-102337097D01*
X104482101Y-102318304D01*
X104478202Y-102299800D01*
X104473493Y-102281605D01*
X104467993Y-102263739D01*
X104461723Y-102246222D01*
X104454701Y-102229075D01*
X104446949Y-102212318D01*
X104438486Y-102195971D01*
X104429331Y-102180054D01*
X104419506Y-102164587D01*
X104409030Y-102149591D01*
X104397922Y-102135086D01*
X104386204Y-102121091D01*
X104373894Y-102107627D01*
X104361013Y-102094715D01*
X104347581Y-102082374D01*
X104333617Y-102070625D01*
X104319142Y-102059487D01*
X104304176Y-102048982D01*
X104288738Y-102039128D01*
X104272848Y-102029947D01*
X104256527Y-102021459D01*
X104239795Y-102013683D01*
X104222671Y-102006639D01*
X104205175Y-102000349D01*
X104187327Y-101994832D01*
X104169147Y-101990109D01*
X104150656Y-101986199D01*
X104131873Y-101983123D01*
X104112817Y-101980900D01*
X104093510Y-101979552D01*
X104073971Y-101979098D01*
X104052616Y-101979640D01*
X104031538Y-101981249D01*
X104010762Y-101983897D01*
X103990316Y-101987559D01*
X103970225Y-101992208D01*
X103950516Y-101997818D01*
X103931215Y-102004364D01*
X103912348Y-102011817D01*
X103893942Y-102020152D01*
X103876023Y-102029344D01*
X103858618Y-102039364D01*
X103841752Y-102050188D01*
X103825452Y-102061789D01*
X103809745Y-102074140D01*
X103794656Y-102087215D01*
X103780213Y-102100988D01*
X103766441Y-102115432D01*
X103753366Y-102130521D01*
X103741016Y-102146230D01*
X103729416Y-102162531D01*
X103718592Y-102179398D01*
X103708572Y-102196805D01*
X103699381Y-102214725D01*
X103691046Y-102233133D01*
X103683593Y-102252002D01*
X103677048Y-102271305D01*
X103671438Y-102291016D01*
X103666788Y-102311110D01*
X103663126Y-102331559D01*
X103660478Y-102352337D01*
X103658870Y-102373419D01*
X103658328Y-102394776D01*
X103363200Y-102394776D01*
X103359861Y-102371546D01*
X103349752Y-102272866D01*
X103343628Y-102173056D01*
X103341568Y-102072196D01*
X103344725Y-101947357D01*
X103354093Y-101824157D01*
X103369520Y-101702749D01*
X103373397Y-101681037D01*
X103514148Y-101681037D01*
X103514223Y-101684002D01*
X103514446Y-101686928D01*
X103514813Y-101689812D01*
X103515321Y-101692651D01*
X103515966Y-101695440D01*
X103516744Y-101698176D01*
X103517652Y-101700855D01*
X103518686Y-101703473D01*
X103519842Y-101706028D01*
X103521117Y-101708514D01*
X103522506Y-101710930D01*
X103524008Y-101713270D01*
X103525617Y-101715532D01*
X103527330Y-101717711D01*
X103529144Y-101719805D01*
X103531055Y-101721809D01*
X103533059Y-101723720D01*
X103535152Y-101725533D01*
X103537332Y-101727247D01*
X103539594Y-101728856D01*
X103541934Y-101730357D01*
X103544349Y-101731747D01*
X103546836Y-101733022D01*
X103549391Y-101734178D01*
X103552009Y-101735212D01*
X103554688Y-101736120D01*
X103557424Y-101736898D01*
X103560213Y-101737542D01*
X103563051Y-101738050D01*
X103565936Y-101738418D01*
X103568862Y-101738641D01*
X103571827Y-101738716D01*
X105129306Y-101738716D01*
X105132271Y-101738641D01*
X105135197Y-101738418D01*
X105138082Y-101738050D01*
X105140920Y-101737542D01*
X105143709Y-101736898D01*
X105146445Y-101736120D01*
X105149124Y-101735212D01*
X105151742Y-101734178D01*
X105154297Y-101733022D01*
X105156784Y-101731747D01*
X105159199Y-101730357D01*
X105161539Y-101728856D01*
X105163801Y-101727247D01*
X105165980Y-101725533D01*
X105168074Y-101723720D01*
X105170078Y-101721809D01*
X105171989Y-101719805D01*
X105173802Y-101717711D01*
X105175516Y-101715532D01*
X105177125Y-101713270D01*
X105178626Y-101710930D01*
X105180016Y-101708514D01*
X105181291Y-101706028D01*
X105182447Y-101703473D01*
X105183481Y-101700855D01*
X105184389Y-101698176D01*
X105185167Y-101695440D01*
X105185812Y-101692651D01*
X105186319Y-101689812D01*
X105186687Y-101686928D01*
X105186910Y-101684002D01*
X105186985Y-101681037D01*
X105186985Y-101174659D01*
X105186910Y-101171694D01*
X105186687Y-101168768D01*
X105186319Y-101165884D01*
X105185812Y-101163046D01*
X105185167Y-101160258D01*
X105184389Y-101157523D01*
X105183481Y-101154846D01*
X105182447Y-101152228D01*
X105181291Y-101149675D01*
X105180016Y-101147190D01*
X105178626Y-101144776D01*
X105177125Y-101142437D01*
X105175516Y-101140177D01*
X105173802Y-101137999D01*
X105171989Y-101135907D01*
X105170078Y-101133905D01*
X105168074Y-101131996D01*
X105165980Y-101130183D01*
X105163801Y-101128472D01*
X105161539Y-101126864D01*
X105159199Y-101125364D01*
X105156784Y-101123976D01*
X105154297Y-101122702D01*
X105151742Y-101121548D01*
X105149124Y-101120515D01*
X105146445Y-101119608D01*
X105143709Y-101118831D01*
X105140920Y-101118187D01*
X105138082Y-101117680D01*
X105135197Y-101117313D01*
X105132271Y-101117091D01*
X105129306Y-101117015D01*
X105126341Y-101117091D01*
X105123414Y-101117313D01*
X105120530Y-101117680D01*
X105117691Y-101118187D01*
X105114902Y-101118831D01*
X105112167Y-101119608D01*
X105109488Y-101120515D01*
X105106869Y-101121548D01*
X105104314Y-101122702D01*
X105101828Y-101123976D01*
X105099412Y-101125364D01*
X105097072Y-101126864D01*
X105094810Y-101128472D01*
X105092631Y-101130183D01*
X105090537Y-101131996D01*
X105088533Y-101133905D01*
X105086623Y-101135907D01*
X105084809Y-101137999D01*
X105083095Y-101140177D01*
X105081486Y-101142437D01*
X105079985Y-101144776D01*
X105078595Y-101147190D01*
X105077320Y-101149675D01*
X105076164Y-101152228D01*
X105075130Y-101154846D01*
X105074223Y-101157523D01*
X105073445Y-101160258D01*
X105072800Y-101163046D01*
X105072292Y-101165884D01*
X105071925Y-101168768D01*
X105071702Y-101171694D01*
X105071626Y-101174659D01*
X105071626Y-101623357D01*
X103571827Y-101623357D01*
X103568862Y-101623432D01*
X103565936Y-101623655D01*
X103563051Y-101624022D01*
X103560213Y-101624529D01*
X103557424Y-101625173D01*
X103554688Y-101625950D01*
X103552009Y-101626857D01*
X103549391Y-101627890D01*
X103546836Y-101629045D01*
X103544349Y-101630319D01*
X103541934Y-101631708D01*
X103539594Y-101633208D01*
X103537332Y-101634816D01*
X103535152Y-101636528D01*
X103533059Y-101638341D01*
X103531055Y-101640251D01*
X103529144Y-101642254D01*
X103527330Y-101644347D01*
X103525617Y-101646526D01*
X103524008Y-101648787D01*
X103522506Y-101651128D01*
X103521117Y-101653543D01*
X103519842Y-101656030D01*
X103518686Y-101658585D01*
X103517652Y-101661204D01*
X103516744Y-101663884D01*
X103515966Y-101666621D01*
X103515321Y-101669412D01*
X103514813Y-101672252D01*
X103514446Y-101675139D01*
X103514223Y-101678068D01*
X103514148Y-101681037D01*
X103373397Y-101681037D01*
X103390853Y-101583285D01*
X103417941Y-101465916D01*
X103450631Y-101350797D01*
X103464608Y-101309488D01*
X104219287Y-101309488D01*
X104219296Y-101312282D01*
X104219439Y-101315064D01*
X104219716Y-101317830D01*
X104220126Y-101320574D01*
X104220665Y-101323292D01*
X104221333Y-101325979D01*
X104222128Y-101328629D01*
X104223049Y-101331239D01*
X104224094Y-101333803D01*
X104225260Y-101336316D01*
X104226548Y-101338774D01*
X104227954Y-101341171D01*
X104229478Y-101343503D01*
X104231118Y-101345765D01*
X104232871Y-101347952D01*
X104234738Y-101350059D01*
X104236715Y-101352081D01*
X104238802Y-101354013D01*
X104240996Y-101355851D01*
X104243296Y-101357590D01*
X104245701Y-101359224D01*
X104248209Y-101360750D01*
X104250818Y-101362161D01*
X104252398Y-101362929D01*
X104253989Y-101363645D01*
X104255589Y-101364309D01*
X104257198Y-101364922D01*
X104258816Y-101365485D01*
X104260440Y-101365997D01*
X104262071Y-101366459D01*
X104263708Y-101366870D01*
X104265349Y-101367233D01*
X104266993Y-101367545D01*
X104268641Y-101367809D01*
X104270290Y-101368025D01*
X104271940Y-101368191D01*
X104273591Y-101368310D01*
X104275240Y-101368381D01*
X104276888Y-101368405D01*
X104278857Y-101368371D01*
X104280819Y-101368270D01*
X104282774Y-101368103D01*
X104284718Y-101367870D01*
X104286652Y-101367572D01*
X104288572Y-101367208D01*
X104290477Y-101366781D01*
X104292366Y-101366290D01*
X104294237Y-101365736D01*
X104296088Y-101365119D01*
X104297918Y-101364440D01*
X104299724Y-101363700D01*
X104301505Y-101362899D01*
X104303259Y-101362038D01*
X104304985Y-101361117D01*
X104306680Y-101360137D01*
X104308344Y-101359098D01*
X104309975Y-101358001D01*
X104311570Y-101356847D01*
X104313128Y-101355636D01*
X104314647Y-101354368D01*
X104316127Y-101353045D01*
X104317564Y-101351666D01*
X104318957Y-101350233D01*
X104320305Y-101348746D01*
X104321606Y-101347205D01*
X104322857Y-101345611D01*
X104324059Y-101343965D01*
X104325207Y-101342266D01*
X104326302Y-101340517D01*
X104327342Y-101338717D01*
X104328323Y-101336867D01*
X104360099Y-101277507D01*
X104394275Y-101219723D01*
X104430781Y-101163574D01*
X104469546Y-101109123D01*
X104510502Y-101056430D01*
X104553578Y-101005557D01*
X104598704Y-100956563D01*
X104645810Y-100909512D01*
X104694826Y-100864463D01*
X104745684Y-100821477D01*
X104798311Y-100780616D01*
X104852640Y-100741941D01*
X104908598Y-100705513D01*
X104966118Y-100671393D01*
X105025129Y-100639642D01*
X105085560Y-100610321D01*
X105092722Y-100618490D01*
X105100291Y-100626274D01*
X105108253Y-100633654D01*
X105116591Y-100640611D01*
X105125288Y-100647124D01*
X105134330Y-100653174D01*
X105143700Y-100658741D01*
X105153382Y-100663806D01*
X105163360Y-100668349D01*
X105173618Y-100672350D01*
X105184140Y-100675790D01*
X105194910Y-100678648D01*
X105205911Y-100680905D01*
X105217129Y-100682542D01*
X105228546Y-100683538D01*
X105240148Y-100683875D01*
X105250529Y-100683612D01*
X105260776Y-100682830D01*
X105270876Y-100681543D01*
X105280817Y-100679763D01*
X105290584Y-100677504D01*
X105300166Y-100674777D01*
X105309549Y-100671596D01*
X105318721Y-100667974D01*
X105327670Y-100663922D01*
X105336381Y-100659455D01*
X105344843Y-100654585D01*
X105353043Y-100649325D01*
X105360967Y-100643687D01*
X105368603Y-100637684D01*
X105375939Y-100631329D01*
X105382961Y-100624635D01*
X105389657Y-100617614D01*
X105396013Y-100610280D01*
X105402018Y-100602646D01*
X105407657Y-100594723D01*
X105412919Y-100586525D01*
X105417791Y-100578064D01*
X105422259Y-100569354D01*
X105426312Y-100560407D01*
X105429935Y-100551236D01*
X105433117Y-100541854D01*
X105435845Y-100532273D01*
X105438105Y-100522507D01*
X105439886Y-100512567D01*
X105441173Y-100502468D01*
X105441955Y-100492221D01*
X105442219Y-100481839D01*
X105441955Y-100471458D01*
X105441173Y-100461211D01*
X105439886Y-100451111D01*
X105438105Y-100441172D01*
X105435845Y-100431405D01*
X105433117Y-100421825D01*
X105429935Y-100412442D01*
X105426312Y-100403271D01*
X105422259Y-100394324D01*
X105417791Y-100385614D01*
X105412919Y-100377154D01*
X105407657Y-100368955D01*
X105402018Y-100361033D01*
X105396013Y-100353398D01*
X105389657Y-100346064D01*
X105382961Y-100339043D01*
X105375939Y-100332350D01*
X105368603Y-100325995D01*
X105360967Y-100319992D01*
X105353043Y-100314354D01*
X105344843Y-100309093D01*
X105336381Y-100304223D01*
X105327670Y-100299756D01*
X105318721Y-100295705D01*
X105309549Y-100292082D01*
X105300166Y-100288901D01*
X105290584Y-100286175D01*
X105280817Y-100283915D01*
X105270876Y-100282135D01*
X105260776Y-100280848D01*
X105250529Y-100280067D01*
X105240148Y-100279803D01*
X105240148Y-100279804D01*
X105229769Y-100280067D01*
X105219525Y-100280849D01*
X105209428Y-100282136D01*
X105199490Y-100283915D01*
X105189726Y-100286175D01*
X105180146Y-100288902D01*
X105170765Y-100292082D01*
X105161595Y-100295705D01*
X105152648Y-100299756D01*
X105143938Y-100304223D01*
X105135478Y-100309093D01*
X105127280Y-100314354D01*
X105119356Y-100319992D01*
X105111721Y-100325995D01*
X105104386Y-100332350D01*
X105097365Y-100339044D01*
X105090670Y-100346064D01*
X105084315Y-100353398D01*
X105078311Y-100361033D01*
X105072672Y-100368956D01*
X105067410Y-100377154D01*
X105062539Y-100385614D01*
X105058071Y-100394324D01*
X105054018Y-100403271D01*
X105050395Y-100412442D01*
X105047213Y-100421825D01*
X105044485Y-100431406D01*
X105042225Y-100441172D01*
X105040445Y-100451112D01*
X105039157Y-100461211D01*
X105038375Y-100471458D01*
X105038112Y-100481839D01*
X105038128Y-100483270D01*
X105038174Y-100484693D01*
X105038346Y-100487517D01*
X105038603Y-100490319D01*
X105038923Y-100493106D01*
X105040370Y-100504241D01*
X104975333Y-100535645D01*
X104911825Y-100569675D01*
X104849921Y-100606263D01*
X104789697Y-100645344D01*
X104731228Y-100686851D01*
X104674590Y-100730719D01*
X104619859Y-100776880D01*
X104567110Y-100825268D01*
X104516419Y-100875818D01*
X104467861Y-100928463D01*
X104421513Y-100983137D01*
X104377450Y-101039774D01*
X104335747Y-101098307D01*
X104296481Y-101158669D01*
X104259726Y-101220796D01*
X104225559Y-101284620D01*
X104224279Y-101287300D01*
X104223148Y-101290012D01*
X104222165Y-101292752D01*
X104221328Y-101295514D01*
X104220637Y-101298293D01*
X104220089Y-101301085D01*
X104219682Y-101303885D01*
X104219415Y-101306688D01*
X104219287Y-101309488D01*
X103464608Y-101309488D01*
X103488770Y-101238078D01*
X103532206Y-101127913D01*
X103552391Y-101083264D01*
X103826921Y-101083264D01*
X103827029Y-101086046D01*
X103827271Y-101088814D01*
X103827645Y-101091561D01*
X103828150Y-101094284D01*
X103828783Y-101096978D01*
X103829544Y-101099637D01*
X103830431Y-101102256D01*
X103831443Y-101104832D01*
X103832577Y-101107358D01*
X103833833Y-101109830D01*
X103835209Y-101112243D01*
X103836703Y-101114592D01*
X103838315Y-101116872D01*
X103840041Y-101119079D01*
X103841881Y-101121207D01*
X103843834Y-101123251D01*
X103845898Y-101125207D01*
X103848070Y-101127070D01*
X103850351Y-101128835D01*
X103852738Y-101130496D01*
X103855229Y-101132050D01*
X103857824Y-101133490D01*
X103859432Y-101134303D01*
X103861054Y-101135060D01*
X103862688Y-101135763D01*
X103864333Y-101136411D01*
X103865989Y-101137006D01*
X103867653Y-101137546D01*
X103869326Y-101138034D01*
X103871005Y-101138469D01*
X103872689Y-101138851D01*
X103874377Y-101139181D01*
X103876069Y-101139460D01*
X103877762Y-101139686D01*
X103879456Y-101139862D01*
X103881149Y-101139987D01*
X103882841Y-101140062D01*
X103884529Y-101140087D01*
X103886475Y-101140054D01*
X103888415Y-101139956D01*
X103890347Y-101139794D01*
X103892270Y-101139567D01*
X103894183Y-101139276D01*
X103896083Y-101138922D01*
X103897969Y-101138506D01*
X103899839Y-101138027D01*
X103901691Y-101137486D01*
X103903525Y-101136884D01*
X103905337Y-101136222D01*
X103907128Y-101135500D01*
X103908894Y-101134717D01*
X103910634Y-101133876D01*
X103912347Y-101132976D01*
X103914030Y-101132017D01*
X103915683Y-101131001D01*
X103917303Y-101129928D01*
X103918890Y-101128798D01*
X103920440Y-101127612D01*
X103921953Y-101126371D01*
X103923427Y-101125074D01*
X103924860Y-101123723D01*
X103926251Y-101122317D01*
X103927597Y-101120858D01*
X103928898Y-101119345D01*
X103930151Y-101117781D01*
X103931355Y-101116163D01*
X103932508Y-101114495D01*
X103933609Y-101112775D01*
X103934656Y-101111004D01*
X103935647Y-101109184D01*
X103951705Y-101079152D01*
X103968257Y-101049398D01*
X103985301Y-101019928D01*
X104002832Y-100990749D01*
X104020845Y-100961866D01*
X104039336Y-100933285D01*
X104077737Y-100877056D01*
X104117999Y-100822110D01*
X104160089Y-100768496D01*
X104181810Y-100742204D01*
X104203974Y-100716263D01*
X104226579Y-100690680D01*
X104249619Y-100665460D01*
X104251582Y-100663236D01*
X104253411Y-100660940D01*
X104255104Y-100658577D01*
X104256664Y-100656152D01*
X104258089Y-100653670D01*
X104259381Y-100651137D01*
X104260538Y-100648557D01*
X104261562Y-100645935D01*
X104262453Y-100643278D01*
X104263210Y-100640589D01*
X104263835Y-100637875D01*
X104264326Y-100635139D01*
X104264685Y-100632388D01*
X104264912Y-100629627D01*
X104265007Y-100626860D01*
X104264969Y-100624092D01*
X104264800Y-100621330D01*
X104264499Y-100618577D01*
X104264067Y-100615840D01*
X104263504Y-100613123D01*
X104262810Y-100610431D01*
X104261984Y-100607770D01*
X104261029Y-100605145D01*
X104259943Y-100602560D01*
X104258727Y-100600022D01*
X104257380Y-100597534D01*
X104255904Y-100595103D01*
X104254299Y-100592732D01*
X104252564Y-100590429D01*
X104250700Y-100588197D01*
X104248707Y-100586042D01*
X104246585Y-100583968D01*
X104244358Y-100582008D01*
X104242060Y-100580183D01*
X104239695Y-100578492D01*
X104237268Y-100576935D01*
X104234785Y-100575512D01*
X104232252Y-100574223D01*
X104229672Y-100573067D01*
X104227051Y-100572044D01*
X104224394Y-100571155D01*
X104221706Y-100570399D01*
X104218992Y-100569775D01*
X104216258Y-100569284D01*
X104213509Y-100568925D01*
X104210749Y-100568698D01*
X104207983Y-100568603D01*
X104205218Y-100568640D01*
X104202457Y-100568808D01*
X104199706Y-100569108D01*
X104196970Y-100569538D01*
X104194255Y-100570100D01*
X104191564Y-100570792D01*
X104188904Y-100571614D01*
X104186280Y-100572567D01*
X104183695Y-100573650D01*
X104181157Y-100574862D01*
X104178669Y-100576204D01*
X104176237Y-100577676D01*
X104173866Y-100579276D01*
X104171561Y-100581006D01*
X104169328Y-100582865D01*
X104167170Y-100584852D01*
X104165094Y-100586967D01*
X104116891Y-100640629D01*
X104070546Y-100695802D01*
X104026096Y-100752433D01*
X103983576Y-100810474D01*
X103943022Y-100869872D01*
X103904471Y-100930576D01*
X103867957Y-100992537D01*
X103833518Y-101055703D01*
X103832207Y-101058364D01*
X103831045Y-101061059D01*
X103830030Y-101063784D01*
X103829160Y-101066533D01*
X103828436Y-101069301D01*
X103827853Y-101072085D01*
X103827412Y-101074877D01*
X103827111Y-101077675D01*
X103826947Y-101080472D01*
X103826921Y-101083264D01*
X103552391Y-101083264D01*
X103580786Y-101020454D01*
X103634359Y-100915854D01*
X103692771Y-100814264D01*
X103755870Y-100715837D01*
X103823505Y-100620726D01*
X103895522Y-100529083D01*
X103971769Y-100441060D01*
X104034932Y-100374810D01*
X104428824Y-100374810D01*
X104428899Y-100377582D01*
X104429107Y-100380353D01*
X104429449Y-100383117D01*
X104429926Y-100385869D01*
X104430538Y-100388604D01*
X104431287Y-100391318D01*
X104432173Y-100394004D01*
X104433196Y-100396659D01*
X104434358Y-100399276D01*
X104435658Y-100401851D01*
X104437098Y-100404379D01*
X104438679Y-100406855D01*
X104440401Y-100409273D01*
X104442592Y-100412013D01*
X104444916Y-100414586D01*
X104447362Y-100416989D01*
X104449922Y-100419222D01*
X104452588Y-100421282D01*
X104455352Y-100423170D01*
X104458206Y-100424884D01*
X104461140Y-100426422D01*
X104464146Y-100427784D01*
X104467216Y-100428968D01*
X104470342Y-100429973D01*
X104473515Y-100430798D01*
X104476726Y-100431442D01*
X104479968Y-100431904D01*
X104483232Y-100432181D01*
X104486509Y-100432274D01*
X104488766Y-100432230D01*
X104491024Y-100432098D01*
X104493281Y-100431877D01*
X104495533Y-100431567D01*
X104497777Y-100431168D01*
X104500011Y-100430678D01*
X104502231Y-100430097D01*
X104504434Y-100429425D01*
X104506619Y-100428662D01*
X104508780Y-100427806D01*
X104510917Y-100426857D01*
X104513025Y-100425815D01*
X104515102Y-100424679D01*
X104517145Y-100423449D01*
X104519151Y-100422123D01*
X104521116Y-100420703D01*
X104542898Y-100404557D01*
X104564943Y-100388672D01*
X104587230Y-100373059D01*
X104609738Y-100357732D01*
X104632447Y-100342702D01*
X104655334Y-100327983D01*
X104678380Y-100313586D01*
X104701562Y-100299524D01*
X104704071Y-100297941D01*
X104706471Y-100296250D01*
X104708760Y-100294458D01*
X104710938Y-100292569D01*
X104713003Y-100290587D01*
X104714954Y-100288519D01*
X104716789Y-100286368D01*
X104718508Y-100284140D01*
X104720109Y-100281840D01*
X104721591Y-100279472D01*
X104722952Y-100277043D01*
X104724192Y-100274556D01*
X104725309Y-100272017D01*
X104726302Y-100269430D01*
X104727169Y-100266802D01*
X104727910Y-100264136D01*
X104728523Y-100261437D01*
X104729007Y-100258711D01*
X104729361Y-100255963D01*
X104729583Y-100253198D01*
X104729672Y-100250420D01*
X104729627Y-100247634D01*
X104729447Y-100244846D01*
X104729130Y-100242061D01*
X104728675Y-100239283D01*
X104728082Y-100236518D01*
X104727348Y-100233770D01*
X104726472Y-100231044D01*
X104725454Y-100228346D01*
X104724291Y-100225680D01*
X104722984Y-100223052D01*
X104721529Y-100220466D01*
X104719946Y-100217954D01*
X104718256Y-100215551D01*
X104716465Y-100213259D01*
X104714576Y-100211078D01*
X104712595Y-100209011D01*
X104710527Y-100207058D01*
X104708377Y-100205221D01*
X104706150Y-100203501D01*
X104703851Y-100201899D01*
X104701484Y-100200416D01*
X104699055Y-100199054D01*
X104696569Y-100197813D01*
X104694031Y-100196696D01*
X104691445Y-100195703D01*
X104688816Y-100194836D01*
X104686150Y-100194096D01*
X104683452Y-100193484D01*
X104680726Y-100193001D01*
X104677977Y-100192649D01*
X104675211Y-100192429D01*
X104672431Y-100192342D01*
X104669644Y-100192390D01*
X104666855Y-100192573D01*
X104664067Y-100192893D01*
X104661286Y-100193352D01*
X104658518Y-100193949D01*
X104655766Y-100194688D01*
X104653037Y-100195568D01*
X104650334Y-100196592D01*
X104647663Y-100197760D01*
X104645029Y-100199074D01*
X104642437Y-100200534D01*
X104617961Y-100215377D01*
X104593629Y-100230579D01*
X104569462Y-100246126D01*
X104545480Y-100262006D01*
X104521705Y-100278202D01*
X104498158Y-100294703D01*
X104474859Y-100311492D01*
X104451831Y-100328557D01*
X104449503Y-100330399D01*
X104447295Y-100332335D01*
X104445208Y-100334360D01*
X104443243Y-100336470D01*
X104441399Y-100338660D01*
X104439679Y-100340924D01*
X104438083Y-100343257D01*
X104436611Y-100345654D01*
X104435264Y-100348110D01*
X104434042Y-100350620D01*
X104432947Y-100353180D01*
X104431980Y-100355783D01*
X104431140Y-100358425D01*
X104430428Y-100361101D01*
X104429846Y-100363806D01*
X104429394Y-100366534D01*
X104429073Y-100369281D01*
X104428882Y-100372041D01*
X104428824Y-100374810D01*
X104034932Y-100374810D01*
X104052093Y-100356810D01*
X104136343Y-100276485D01*
X104224366Y-100200238D01*
X104316009Y-100128221D01*
X104411120Y-100060587D01*
X104509547Y-99997487D01*
X104611137Y-99939075D01*
X104715738Y-99885503D01*
X104823197Y-99836922D01*
X104933362Y-99793486D01*
X105046080Y-99755347D01*
X105161200Y-99722658D01*
X105278568Y-99695570D01*
X105398032Y-99674236D01*
X105519441Y-99658809D01*
X105642641Y-99649441D01*
X105767480Y-99646285D01*
X105892316Y-99649441D01*
G37*
D12*
X101725775Y-102143660D02*
X101785299Y-102084136D01*
X101785299Y-102084136D02*
X101904346Y-102024613D01*
X101904346Y-102024613D02*
X102023394Y-102024613D01*
X102023394Y-102024613D02*
X102142442Y-102084136D01*
X102142442Y-102084136D02*
X102201965Y-102143660D01*
X102201965Y-102143660D02*
X102261489Y-102262708D01*
X102261489Y-102262708D02*
X102261489Y-102381755D01*
X102261489Y-102381755D02*
X102201965Y-102500803D01*
X102201965Y-102500803D02*
X102142442Y-102560327D01*
X102142442Y-102560327D02*
X102023394Y-102619851D01*
X102023394Y-102619851D02*
X101904346Y-102619851D01*
X101904346Y-102619851D02*
X101785299Y-102560327D01*
X101785299Y-102560327D02*
X101725775Y-102500803D01*
X101725775Y-102024613D02*
X101725775Y-102500803D01*
X101725775Y-102500803D02*
X101666251Y-102560327D01*
X101666251Y-102560327D02*
X101606727Y-102560327D01*
X101606727Y-102560327D02*
X101487680Y-102500803D01*
X101487680Y-102500803D02*
X101428156Y-102381755D01*
X101428156Y-102381755D02*
X101428156Y-102084136D01*
X101428156Y-102084136D02*
X101547204Y-101905565D01*
X101547204Y-101905565D02*
X101725775Y-101786517D01*
X101725775Y-101786517D02*
X101963870Y-101726994D01*
X101963870Y-101726994D02*
X102201965Y-101786517D01*
X102201965Y-101786517D02*
X102380537Y-101905565D01*
X102380537Y-101905565D02*
X102499584Y-102084136D01*
X102499584Y-102084136D02*
X102559108Y-102322232D01*
X102559108Y-102322232D02*
X102499584Y-102560327D01*
X102499584Y-102560327D02*
X102380537Y-102738898D01*
X102380537Y-102738898D02*
X102201965Y-102857946D01*
X102201965Y-102857946D02*
X101963870Y-102917470D01*
X101963870Y-102917470D02*
X101725775Y-102857946D01*
X101725775Y-102857946D02*
X101547204Y-102738898D01*
X100892441Y-102738898D02*
X100892441Y-101488898D01*
X100892441Y-101965089D02*
X100773394Y-101905565D01*
X100773394Y-101905565D02*
X100535299Y-101905565D01*
X100535299Y-101905565D02*
X100416251Y-101965089D01*
X100416251Y-101965089D02*
X100356727Y-102024613D01*
X100356727Y-102024613D02*
X100297203Y-102143660D01*
X100297203Y-102143660D02*
X100297203Y-102500803D01*
X100297203Y-102500803D02*
X100356727Y-102619851D01*
X100356727Y-102619851D02*
X100416251Y-102679375D01*
X100416251Y-102679375D02*
X100535299Y-102738898D01*
X100535299Y-102738898D02*
X100773394Y-102738898D01*
X100773394Y-102738898D02*
X100892441Y-102679375D01*
X99582918Y-102738898D02*
X99701966Y-102679375D01*
X99701966Y-102679375D02*
X99761489Y-102619851D01*
X99761489Y-102619851D02*
X99821013Y-102500803D01*
X99821013Y-102500803D02*
X99821013Y-102143660D01*
X99821013Y-102143660D02*
X99761489Y-102024613D01*
X99761489Y-102024613D02*
X99701966Y-101965089D01*
X99701966Y-101965089D02*
X99582918Y-101905565D01*
X99582918Y-101905565D02*
X99404347Y-101905565D01*
X99404347Y-101905565D02*
X99285299Y-101965089D01*
X99285299Y-101965089D02*
X99225775Y-102024613D01*
X99225775Y-102024613D02*
X99166251Y-102143660D01*
X99166251Y-102143660D02*
X99166251Y-102500803D01*
X99166251Y-102500803D02*
X99225775Y-102619851D01*
X99225775Y-102619851D02*
X99285299Y-102679375D01*
X99285299Y-102679375D02*
X99404347Y-102738898D01*
X99404347Y-102738898D02*
X99582918Y-102738898D01*
X98630537Y-102738898D02*
X98630537Y-101905565D01*
X98630537Y-102143660D02*
X98571014Y-102024613D01*
X98571014Y-102024613D02*
X98511490Y-101965089D01*
X98511490Y-101965089D02*
X98392442Y-101905565D01*
X98392442Y-101905565D02*
X98273395Y-101905565D01*
X97856727Y-102738898D02*
X97856727Y-101905565D01*
X97856727Y-101488898D02*
X97916251Y-101548422D01*
X97916251Y-101548422D02*
X97856727Y-101607946D01*
X97856727Y-101607946D02*
X97797204Y-101548422D01*
X97797204Y-101548422D02*
X97856727Y-101488898D01*
X97856727Y-101488898D02*
X97856727Y-101607946D01*
X97321013Y-102679375D02*
X97201966Y-102738898D01*
X97201966Y-102738898D02*
X96963870Y-102738898D01*
X96963870Y-102738898D02*
X96844823Y-102679375D01*
X96844823Y-102679375D02*
X96785299Y-102560327D01*
X96785299Y-102560327D02*
X96785299Y-102500803D01*
X96785299Y-102500803D02*
X96844823Y-102381755D01*
X96844823Y-102381755D02*
X96963870Y-102322232D01*
X96963870Y-102322232D02*
X97142442Y-102322232D01*
X97142442Y-102322232D02*
X97261489Y-102262708D01*
X97261489Y-102262708D02*
X97321013Y-102143660D01*
X97321013Y-102143660D02*
X97321013Y-102084136D01*
X97321013Y-102084136D02*
X97261489Y-101965089D01*
X97261489Y-101965089D02*
X97142442Y-101905565D01*
X97142442Y-101905565D02*
X96963870Y-101905565D01*
X96963870Y-101905565D02*
X96844823Y-101965089D01*
X96249584Y-101905565D02*
X96249584Y-102738898D01*
X96249584Y-102024613D02*
X96190061Y-101965089D01*
X96190061Y-101965089D02*
X96071013Y-101905565D01*
X96071013Y-101905565D02*
X95892442Y-101905565D01*
X95892442Y-101905565D02*
X95773394Y-101965089D01*
X95773394Y-101965089D02*
X95713870Y-102084136D01*
X95713870Y-102084136D02*
X95713870Y-102738898D01*
X94940061Y-102738898D02*
X95059109Y-102679375D01*
X95059109Y-102679375D02*
X95118632Y-102619851D01*
X95118632Y-102619851D02*
X95178156Y-102500803D01*
X95178156Y-102500803D02*
X95178156Y-102143660D01*
X95178156Y-102143660D02*
X95118632Y-102024613D01*
X95118632Y-102024613D02*
X95059109Y-101965089D01*
X95059109Y-101965089D02*
X94940061Y-101905565D01*
X94940061Y-101905565D02*
X94761490Y-101905565D01*
X94761490Y-101905565D02*
X94642442Y-101965089D01*
X94642442Y-101965089D02*
X94582918Y-102024613D01*
X94582918Y-102024613D02*
X94523394Y-102143660D01*
X94523394Y-102143660D02*
X94523394Y-102500803D01*
X94523394Y-102500803D02*
X94582918Y-102619851D01*
X94582918Y-102619851D02*
X94642442Y-102679375D01*
X94642442Y-102679375D02*
X94761490Y-102738898D01*
X94761490Y-102738898D02*
X94940061Y-102738898D01*
X94166252Y-101905565D02*
X93690061Y-101905565D01*
X93987680Y-101488898D02*
X93987680Y-102560327D01*
X93987680Y-102560327D02*
X93928157Y-102679375D01*
X93928157Y-102679375D02*
X93809109Y-102738898D01*
X93809109Y-102738898D02*
X93690061Y-102738898D01*
X92797204Y-102679375D02*
X92916252Y-102738898D01*
X92916252Y-102738898D02*
X93154347Y-102738898D01*
X93154347Y-102738898D02*
X93273394Y-102679375D01*
X93273394Y-102679375D02*
X93332918Y-102560327D01*
X93332918Y-102560327D02*
X93332918Y-102084136D01*
X93332918Y-102084136D02*
X93273394Y-101965089D01*
X93273394Y-101965089D02*
X93154347Y-101905565D01*
X93154347Y-101905565D02*
X92916252Y-101905565D01*
X92916252Y-101905565D02*
X92797204Y-101965089D01*
X92797204Y-101965089D02*
X92737680Y-102084136D01*
X92737680Y-102084136D02*
X92737680Y-102203184D01*
X92737680Y-102203184D02*
X93332918Y-102322232D01*
X92261489Y-102679375D02*
X92142442Y-102738898D01*
X92142442Y-102738898D02*
X91904346Y-102738898D01*
X91904346Y-102738898D02*
X91785299Y-102679375D01*
X91785299Y-102679375D02*
X91725775Y-102560327D01*
X91725775Y-102560327D02*
X91725775Y-102500803D01*
X91725775Y-102500803D02*
X91785299Y-102381755D01*
X91785299Y-102381755D02*
X91904346Y-102322232D01*
X91904346Y-102322232D02*
X92082918Y-102322232D01*
X92082918Y-102322232D02*
X92201965Y-102262708D01*
X92201965Y-102262708D02*
X92261489Y-102143660D01*
X92261489Y-102143660D02*
X92261489Y-102084136D01*
X92261489Y-102084136D02*
X92201965Y-101965089D01*
X92201965Y-101965089D02*
X92082918Y-101905565D01*
X92082918Y-101905565D02*
X91904346Y-101905565D01*
X91904346Y-101905565D02*
X91785299Y-101965089D01*
D13*
%TO.C,SW1*%
X103000000Y-77000000D03*
X96000000Y-77000000D03*
%TD*%
D14*
%TO.C,R4*%
X87645235Y-83895235D03*
X86354765Y-82604765D03*
%TD*%
D15*
%TO.C,D5*%
X106500000Y-80250000D03*
X108250000Y-80250000D03*
%TD*%
D14*
%TO.C,R6*%
X89395235Y-82395235D03*
X88104765Y-81104765D03*
%TD*%
D16*
%TO.C,D4*%
X87618718Y-74881282D03*
X86381282Y-76118718D03*
%TD*%
D17*
%TO.C,R3*%
X112354765Y-83895235D03*
X113645235Y-82604765D03*
%TD*%
D18*
%TO.C,D1*%
X113243718Y-103618718D03*
X112006282Y-102381282D03*
%TD*%
D14*
%TO.C,R2*%
X86645235Y-86145235D03*
X85354765Y-84854765D03*
%TD*%
D17*
%TO.C,R5*%
X110604765Y-82395235D03*
X111895235Y-81104765D03*
%TD*%
D19*
%TO.C,D3*%
X111262564Y-73512564D03*
X112500000Y-74750000D03*
%TD*%
D20*
%TO.C,D2*%
X87631282Y-104618718D03*
X88868718Y-103381282D03*
%TD*%
D21*
%TO.C,D6*%
X92500000Y-80500000D03*
X90750000Y-80500000D03*
%TD*%
D22*
%TO.C,BT1*%
X87200000Y-91000000D03*
X112800000Y-91000000D03*
D23*
X100000000Y-91000000D03*
%TD*%
D17*
%TO.C,R1*%
X113354765Y-86145235D03*
X114645235Y-84854765D03*
%TD*%
M02*
