%TF.GenerationSoftware,KiCad,Pcbnew,9.0.6*%
%TF.CreationDate,2025-12-04T01:13:43+01:00*%
%TF.ProjectId,knit_yarn_badge_v2,6b6e6974-5f79-4617-926e-5f6261646765,rev?*%
%TF.SameCoordinates,Original*%
%TF.FileFunction,Legend,Bot*%
%TF.FilePolarity,Positive*%
%FSLAX46Y46*%
G04 Gerber Fmt 4.6, Leading zero omitted, Abs format (unit mm)*
G04 Created by KiCad (PCBNEW 9.0.6) date 2025-12-04 01:13:43*
%MOMM*%
%LPD*%
G01*
G04 APERTURE LIST*
%ADD10C,0.100000*%
%ADD11C,0.120000*%
G04 APERTURE END LIST*
D10*
X104143734Y-80167657D02*
X104096115Y-80120038D01*
X104096115Y-80120038D02*
X104000877Y-80072419D01*
X104000877Y-80072419D02*
X103762782Y-80072419D01*
X103762782Y-80072419D02*
X103667544Y-80120038D01*
X103667544Y-80120038D02*
X103619925Y-80167657D01*
X103619925Y-80167657D02*
X103572306Y-80262895D01*
X103572306Y-80262895D02*
X103572306Y-80358133D01*
X103572306Y-80358133D02*
X103619925Y-80500990D01*
X103619925Y-80500990D02*
X104191353Y-81072419D01*
X104191353Y-81072419D02*
X103572306Y-81072419D01*
X102953258Y-80072419D02*
X102858020Y-80072419D01*
X102858020Y-80072419D02*
X102762782Y-80120038D01*
X102762782Y-80120038D02*
X102715163Y-80167657D01*
X102715163Y-80167657D02*
X102667544Y-80262895D01*
X102667544Y-80262895D02*
X102619925Y-80453371D01*
X102619925Y-80453371D02*
X102619925Y-80691466D01*
X102619925Y-80691466D02*
X102667544Y-80881942D01*
X102667544Y-80881942D02*
X102715163Y-80977180D01*
X102715163Y-80977180D02*
X102762782Y-81024800D01*
X102762782Y-81024800D02*
X102858020Y-81072419D01*
X102858020Y-81072419D02*
X102953258Y-81072419D01*
X102953258Y-81072419D02*
X103048496Y-81024800D01*
X103048496Y-81024800D02*
X103096115Y-80977180D01*
X103096115Y-80977180D02*
X103143734Y-80881942D01*
X103143734Y-80881942D02*
X103191353Y-80691466D01*
X103191353Y-80691466D02*
X103191353Y-80453371D01*
X103191353Y-80453371D02*
X103143734Y-80262895D01*
X103143734Y-80262895D02*
X103096115Y-80167657D01*
X103096115Y-80167657D02*
X103048496Y-80120038D01*
X103048496Y-80120038D02*
X102953258Y-80072419D01*
X102238972Y-80167657D02*
X102191353Y-80120038D01*
X102191353Y-80120038D02*
X102096115Y-80072419D01*
X102096115Y-80072419D02*
X101858020Y-80072419D01*
X101858020Y-80072419D02*
X101762782Y-80120038D01*
X101762782Y-80120038D02*
X101715163Y-80167657D01*
X101715163Y-80167657D02*
X101667544Y-80262895D01*
X101667544Y-80262895D02*
X101667544Y-80358133D01*
X101667544Y-80358133D02*
X101715163Y-80500990D01*
X101715163Y-80500990D02*
X102286591Y-81072419D01*
X102286591Y-81072419D02*
X101667544Y-81072419D01*
X100762782Y-80072419D02*
X101238972Y-80072419D01*
X101238972Y-80072419D02*
X101286591Y-80548609D01*
X101286591Y-80548609D02*
X101238972Y-80500990D01*
X101238972Y-80500990D02*
X101143734Y-80453371D01*
X101143734Y-80453371D02*
X100905639Y-80453371D01*
X100905639Y-80453371D02*
X100810401Y-80500990D01*
X100810401Y-80500990D02*
X100762782Y-80548609D01*
X100762782Y-80548609D02*
X100715163Y-80643847D01*
X100715163Y-80643847D02*
X100715163Y-80881942D01*
X100715163Y-80881942D02*
X100762782Y-80977180D01*
X100762782Y-80977180D02*
X100810401Y-81024800D01*
X100810401Y-81024800D02*
X100905639Y-81072419D01*
X100905639Y-81072419D02*
X101143734Y-81072419D01*
X101143734Y-81072419D02*
X101238972Y-81024800D01*
X101238972Y-81024800D02*
X101286591Y-80977180D01*
X99572306Y-80024800D02*
X100429448Y-81310514D01*
X98715163Y-81072419D02*
X99286591Y-81072419D01*
X99000877Y-81072419D02*
X99000877Y-80072419D01*
X99000877Y-80072419D02*
X99096115Y-80215276D01*
X99096115Y-80215276D02*
X99191353Y-80310514D01*
X99191353Y-80310514D02*
X99286591Y-80358133D01*
X98334210Y-80167657D02*
X98286591Y-80120038D01*
X98286591Y-80120038D02*
X98191353Y-80072419D01*
X98191353Y-80072419D02*
X97953258Y-80072419D01*
X97953258Y-80072419D02*
X97858020Y-80120038D01*
X97858020Y-80120038D02*
X97810401Y-80167657D01*
X97810401Y-80167657D02*
X97762782Y-80262895D01*
X97762782Y-80262895D02*
X97762782Y-80358133D01*
X97762782Y-80358133D02*
X97810401Y-80500990D01*
X97810401Y-80500990D02*
X98381829Y-81072419D01*
X98381829Y-81072419D02*
X97762782Y-81072419D01*
X96619925Y-80024800D02*
X97477067Y-81310514D01*
X96096115Y-80072419D02*
X96000877Y-80072419D01*
X96000877Y-80072419D02*
X95905639Y-80120038D01*
X95905639Y-80120038D02*
X95858020Y-80167657D01*
X95858020Y-80167657D02*
X95810401Y-80262895D01*
X95810401Y-80262895D02*
X95762782Y-80453371D01*
X95762782Y-80453371D02*
X95762782Y-80691466D01*
X95762782Y-80691466D02*
X95810401Y-80881942D01*
X95810401Y-80881942D02*
X95858020Y-80977180D01*
X95858020Y-80977180D02*
X95905639Y-81024800D01*
X95905639Y-81024800D02*
X96000877Y-81072419D01*
X96000877Y-81072419D02*
X96096115Y-81072419D01*
X96096115Y-81072419D02*
X96191353Y-81024800D01*
X96191353Y-81024800D02*
X96238972Y-80977180D01*
X96238972Y-80977180D02*
X96286591Y-80881942D01*
X96286591Y-80881942D02*
X96334210Y-80691466D01*
X96334210Y-80691466D02*
X96334210Y-80453371D01*
X96334210Y-80453371D02*
X96286591Y-80262895D01*
X96286591Y-80262895D02*
X96238972Y-80167657D01*
X96238972Y-80167657D02*
X96191353Y-80120038D01*
X96191353Y-80120038D02*
X96096115Y-80072419D01*
X95381829Y-80167657D02*
X95334210Y-80120038D01*
X95334210Y-80120038D02*
X95238972Y-80072419D01*
X95238972Y-80072419D02*
X95000877Y-80072419D01*
X95000877Y-80072419D02*
X94905639Y-80120038D01*
X94905639Y-80120038D02*
X94858020Y-80167657D01*
X94858020Y-80167657D02*
X94810401Y-80262895D01*
X94810401Y-80262895D02*
X94810401Y-80358133D01*
X94810401Y-80358133D02*
X94858020Y-80500990D01*
X94858020Y-80500990D02*
X95429448Y-81072419D01*
X95429448Y-81072419D02*
X94810401Y-81072419D01*
D11*
%TO.C,R4*%
X86810654Y-83799580D02*
X86450420Y-83439346D01*
X87549580Y-83060654D02*
X87189346Y-82700420D01*
%TO.C,D5*%
X105715000Y-79515000D02*
X108175000Y-79515000D01*
X105715000Y-80985000D02*
X105715000Y-79515000D01*
X108175000Y-80985000D02*
X105715000Y-80985000D01*
%TO.C,R6*%
X88560654Y-82299580D02*
X88200420Y-81939346D01*
X89299580Y-81560654D02*
X88939346Y-81200420D01*
%TO.C,D4*%
X85914591Y-75545962D02*
X87654074Y-73806479D01*
X87654074Y-73806479D02*
X88693521Y-74845926D01*
X88693521Y-74845926D02*
X86954038Y-76585409D01*
%TO.C,R3*%
X112450420Y-83060654D02*
X112810654Y-82700420D01*
X113189346Y-83799580D02*
X113549580Y-83439346D01*
%TO.C,D1*%
X112579038Y-101914591D02*
X114318521Y-103654074D01*
X113279074Y-104693521D02*
X111539591Y-102954038D01*
X114318521Y-103654074D02*
X113279074Y-104693521D01*
%TO.C,R2*%
X85810654Y-86049580D02*
X85450420Y-85689346D01*
X86549580Y-85310654D02*
X86189346Y-84950420D01*
%TO.C,R5*%
X110700420Y-81560654D02*
X111060654Y-81200420D01*
X111439346Y-82299580D02*
X111799580Y-81939346D01*
%TO.C,D3*%
X110187761Y-73477208D02*
X111227208Y-72437761D01*
X111227208Y-72437761D02*
X112966691Y-74177244D01*
X111927244Y-75216691D02*
X110187761Y-73477208D01*
%TO.C,D2*%
X86556479Y-104654074D02*
X88295962Y-102914591D01*
X87595926Y-105693521D02*
X86556479Y-104654074D01*
X89335409Y-103954038D02*
X87595926Y-105693521D01*
%TO.C,D6*%
X90825000Y-79765000D02*
X93285000Y-79765000D01*
X93285000Y-79765000D02*
X93285000Y-81235000D01*
X93285000Y-81235000D02*
X90825000Y-81235000D01*
%TO.C,BT1*%
X84450000Y-88250000D02*
X89250000Y-88250000D01*
X84450000Y-93750000D02*
X84450000Y-88250000D01*
X89250000Y-93750000D02*
X84450000Y-93750000D01*
X110750000Y-88250000D02*
X115550000Y-88250000D01*
X115550000Y-88250000D02*
X115550000Y-93750000D01*
X115550000Y-93750000D02*
X110750000Y-93750000D01*
%TO.C,R1*%
X113450420Y-85310654D02*
X113810653Y-84950420D01*
X114189347Y-86049580D02*
X114549580Y-85689346D01*
%TD*%
M02*
