%TF.GenerationSoftware,KiCad,Pcbnew,9.0.6*%
%TF.CreationDate,2025-12-04T01:13:43+01:00*%
%TF.ProjectId,knit_yarn_badge_v2,6b6e6974-5f79-4617-926e-5f6261646765,rev?*%
%TF.SameCoordinates,Original*%
%TF.FileFunction,Copper,L2,Bot*%
%TF.FilePolarity,Positive*%
%FSLAX46Y46*%
G04 Gerber Fmt 4.6, Leading zero omitted, Abs format (unit mm)*
G04 Created by KiCad (PCBNEW 9.0.6) date 2025-12-04 01:13:43*
%MOMM*%
%LPD*%
G01*
G04 APERTURE LIST*
G04 Aperture macros list*
%AMRoundRect*
0 Rectangle with rounded corners*
0 $1 Rounding radius*
0 $2 $3 $4 $5 $6 $7 $8 $9 X,Y pos of 4 corners*
0 Add a 4 corners polygon primitive as box body*
4,1,4,$2,$3,$4,$5,$6,$7,$8,$9,$2,$3,0*
0 Add four circle primitives for the rounded corners*
1,1,$1+$1,$2,$3*
1,1,$1+$1,$4,$5*
1,1,$1+$1,$6,$7*
1,1,$1+$1,$8,$9*
0 Add four rect primitives between the rounded corners*
20,1,$1+$1,$2,$3,$4,$5,0*
20,1,$1+$1,$4,$5,$6,$7,0*
20,1,$1+$1,$6,$7,$8,$9,0*
20,1,$1+$1,$8,$9,$2,$3,0*%
G04 Aperture macros list end*
%TA.AperFunction,SMDPad,CuDef*%
%ADD10RoundRect,0.750000X1.750000X1.750000X-1.750000X1.750000X-1.750000X-1.750000X1.750000X-1.750000X0*%
%TD*%
%TA.AperFunction,SMDPad,CuDef*%
%ADD11RoundRect,0.237500X0.344715X-0.008839X-0.008839X0.344715X-0.344715X0.008839X0.008839X-0.344715X0*%
%TD*%
%TA.AperFunction,SMDPad,CuDef*%
%ADD12RoundRect,0.237500X-0.287500X-0.237500X0.287500X-0.237500X0.287500X0.237500X-0.287500X0.237500X0*%
%TD*%
%TA.AperFunction,SMDPad,CuDef*%
%ADD13RoundRect,0.237500X0.035355X0.371231X-0.371231X-0.035355X-0.035355X-0.371231X0.371231X0.035355X0*%
%TD*%
%TA.AperFunction,SMDPad,CuDef*%
%ADD14RoundRect,0.237500X-0.008839X-0.344715X0.344715X0.008839X0.008839X0.344715X-0.344715X-0.008839X0*%
%TD*%
%TA.AperFunction,SMDPad,CuDef*%
%ADD15RoundRect,0.237500X0.371231X-0.035355X-0.035355X0.371231X-0.371231X0.035355X0.035355X-0.371231X0*%
%TD*%
%TA.AperFunction,SMDPad,CuDef*%
%ADD16RoundRect,0.237500X-0.371231X0.035355X0.035355X-0.371231X0.371231X-0.035355X-0.035355X0.371231X0*%
%TD*%
%TA.AperFunction,SMDPad,CuDef*%
%ADD17RoundRect,0.237500X-0.035355X-0.371231X0.371231X0.035355X0.035355X0.371231X-0.371231X-0.035355X0*%
%TD*%
%TA.AperFunction,SMDPad,CuDef*%
%ADD18RoundRect,0.237500X0.287500X0.237500X-0.287500X0.237500X-0.287500X-0.237500X0.287500X-0.237500X0*%
%TD*%
%TA.AperFunction,SMDPad,CuDef*%
%ADD19R,5.100000X5.100000*%
%TD*%
%TA.AperFunction,SMDPad,CuDef*%
%ADD20C,17.800000*%
%TD*%
%TA.AperFunction,ViaPad*%
%ADD21C,0.600000*%
%TD*%
%TA.AperFunction,Conductor*%
%ADD22C,0.200000*%
%TD*%
G04 APERTURE END LIST*
D10*
%TO.P,SW1,1,A*%
%TO.N,Net-(BT1-+)*%
X103000000Y-77000000D03*
%TO.P,SW1,2,B*%
%TO.N,+3V0*%
X96000000Y-77000000D03*
%TD*%
D11*
%TO.P,R4,1*%
%TO.N,+3V0*%
X87645235Y-83895235D03*
%TO.P,R4,2*%
%TO.N,Net-(D4-A)*%
X86354765Y-82604765D03*
%TD*%
D12*
%TO.P,D5,1,K*%
%TO.N,GND*%
X106500000Y-80250000D03*
%TO.P,D5,2,A*%
%TO.N,Net-(D5-A)*%
X108250000Y-80250000D03*
%TD*%
D11*
%TO.P,R6,1*%
%TO.N,+3V0*%
X89395235Y-82395235D03*
%TO.P,R6,2*%
%TO.N,Net-(D6-A)*%
X88104765Y-81104765D03*
%TD*%
D13*
%TO.P,D4,1,K*%
%TO.N,GND*%
X87618718Y-74881282D03*
%TO.P,D4,2,A*%
%TO.N,Net-(D4-A)*%
X86381282Y-76118718D03*
%TD*%
D14*
%TO.P,R3,1*%
%TO.N,+3V0*%
X112354765Y-83895235D03*
%TO.P,R3,2*%
%TO.N,Net-(D3-A)*%
X113645235Y-82604765D03*
%TD*%
D15*
%TO.P,D1,1,K*%
%TO.N,GND*%
X113243718Y-103618718D03*
%TO.P,D1,2,A*%
%TO.N,Net-(D1-A)*%
X112006282Y-102381282D03*
%TD*%
D11*
%TO.P,R2,1*%
%TO.N,+3V0*%
X86645235Y-86145235D03*
%TO.P,R2,2*%
%TO.N,Net-(D2-A)*%
X85354765Y-84854765D03*
%TD*%
D14*
%TO.P,R5,1*%
%TO.N,+3V0*%
X110604765Y-82395235D03*
%TO.P,R5,2*%
%TO.N,Net-(D5-A)*%
X111895235Y-81104765D03*
%TD*%
D16*
%TO.P,D3,1,K*%
%TO.N,GND*%
X111262564Y-73512564D03*
%TO.P,D3,2,A*%
%TO.N,Net-(D3-A)*%
X112500000Y-74750000D03*
%TD*%
D17*
%TO.P,D2,1,K*%
%TO.N,GND*%
X87631282Y-104618718D03*
%TO.P,D2,2,A*%
%TO.N,Net-(D2-A)*%
X88868718Y-103381282D03*
%TD*%
D18*
%TO.P,D6,1,K*%
%TO.N,GND*%
X92500000Y-80500000D03*
%TO.P,D6,2,A*%
%TO.N,Net-(D6-A)*%
X90750000Y-80500000D03*
%TD*%
D19*
%TO.P,BT1,1,+*%
%TO.N,Net-(BT1-+)*%
X87200000Y-91000000D03*
X112800000Y-91000000D03*
D20*
%TO.P,BT1,2,-*%
%TO.N,GND*%
X100000000Y-91000000D03*
%TD*%
D14*
%TO.P,R1,1*%
%TO.N,+3V0*%
X113354765Y-86145235D03*
%TO.P,R1,2*%
%TO.N,Net-(D1-A)*%
X114645235Y-84854765D03*
%TD*%
D21*
%TO.N,GND*%
X91700000Y-103300000D03*
X108000000Y-75900000D03*
X91220576Y-76077907D03*
X92200000Y-75500000D03*
X106900000Y-75300000D03*
X109500000Y-102500000D03*
%TD*%
D22*
%TO.N,+3V0*%
X104350000Y-80350000D02*
X104899000Y-79801000D01*
X104960002Y-74127515D02*
X104670034Y-74036559D01*
X105315828Y-74250000D02*
X105236340Y-74250000D01*
X96000000Y-80250000D02*
X96000000Y-77000000D01*
X104034560Y-73863657D02*
X103688471Y-73784005D01*
X86645235Y-84895235D02*
X87645235Y-83895235D01*
X93000000Y-83250000D02*
X96000000Y-80250000D01*
X110604765Y-82395235D02*
X112104765Y-83895235D01*
X103520039Y-73750000D02*
X97000000Y-73750000D01*
X89395235Y-82395235D02*
X91145235Y-82395235D01*
X105700000Y-74713660D02*
X105700000Y-74634172D01*
X105192821Y-74206481D02*
X105170788Y-74199000D01*
X104670034Y-74036559D02*
X104361131Y-73948066D01*
X105801000Y-74814660D02*
X105700000Y-74713660D01*
X104350000Y-80982900D02*
X104350000Y-80350000D01*
X96000000Y-78750000D02*
X96000000Y-77000000D01*
X105700000Y-74634172D02*
X105315828Y-74250000D01*
X105031487Y-74199000D02*
X104960002Y-74127515D01*
X97000000Y-73750000D02*
X96000000Y-74750000D01*
X91145235Y-82395235D02*
X92000000Y-83250000D01*
X96000000Y-74750000D02*
X96000000Y-77000000D01*
X105762335Y-82395235D02*
X104350000Y-80982900D01*
X112104765Y-83895235D02*
X112354765Y-83895235D01*
X105801000Y-79185340D02*
X105801000Y-74814660D01*
X105170788Y-74199000D02*
X105031487Y-74199000D01*
X105185340Y-79801000D02*
X105801000Y-79185340D01*
X104899000Y-79801000D02*
X105185340Y-79801000D01*
X92000000Y-83250000D02*
X93000000Y-83250000D01*
X113354765Y-86145235D02*
X113354765Y-84895235D01*
X110604765Y-82395235D02*
X105762335Y-82395235D01*
X103688471Y-73784005D02*
X103520039Y-73750000D01*
X87645235Y-83895235D02*
X89145235Y-82395235D01*
X105236340Y-74250000D02*
X105192821Y-74206481D01*
X104361131Y-73948066D02*
X104034560Y-73863657D01*
X113354765Y-84895235D02*
X112354765Y-83895235D01*
X89145235Y-82395235D02*
X89395235Y-82395235D01*
X86645235Y-86145235D02*
X86645235Y-84895235D01*
%TO.N,GND*%
X106200000Y-79600000D02*
X106202000Y-79598000D01*
X109500000Y-102500000D02*
X109600000Y-102500000D01*
X112870452Y-103991984D02*
X113243718Y-103618718D01*
X91700000Y-103300000D02*
X91400000Y-103300000D01*
X109600000Y-102500000D02*
X109800000Y-102300000D01*
X108875128Y-75900000D02*
X108000000Y-75900000D01*
X88499476Y-105161839D02*
X88174403Y-105161839D01*
X106202000Y-75998000D02*
X106900000Y-75300000D01*
X112305796Y-103991984D02*
X112870452Y-103991984D01*
X111262564Y-73512564D02*
X108875128Y-75900000D01*
X88174403Y-105161839D02*
X87631282Y-104618718D01*
X91400000Y-103300000D02*
X91283541Y-103183541D01*
X88037436Y-75300000D02*
X87618718Y-74881282D01*
X106500000Y-79900000D02*
X106200000Y-79600000D01*
X92200000Y-79000000D02*
X93100000Y-79900000D01*
X88488205Y-75300000D02*
X88037436Y-75300000D01*
X110613812Y-102300000D02*
X112305796Y-103991984D01*
X92200000Y-75500000D02*
X92200000Y-79000000D01*
X89661032Y-76472827D02*
X88488205Y-75300000D01*
X106202000Y-79598000D02*
X106202000Y-75998000D01*
X91220576Y-76077907D02*
X90825656Y-76472827D01*
X109800000Y-102300000D02*
X110613812Y-102300000D01*
X90477774Y-103183541D02*
X88499476Y-105161839D01*
X106500000Y-80250000D02*
X106500000Y-79900000D01*
X93100000Y-79900000D02*
X92500000Y-80500000D01*
X90825656Y-76472827D02*
X89661032Y-76472827D01*
X91283541Y-103183541D02*
X90477774Y-103183541D01*
%TO.N,Net-(D1-A)*%
X114166589Y-97414858D02*
X114007360Y-97679793D01*
X114813820Y-96234438D02*
X114764360Y-96338694D01*
X111800626Y-102057532D02*
X111833504Y-102136916D01*
X114861812Y-96128785D02*
X114813820Y-96234438D01*
X115975828Y-87648253D02*
X115991620Y-87838808D01*
X114645235Y-84854765D02*
X114712488Y-84922717D01*
X115808564Y-93468046D02*
X115746202Y-93687656D01*
X115298699Y-85675879D02*
X115396577Y-85840137D01*
X113344646Y-98713669D02*
X113179655Y-98950866D01*
X113844285Y-97945631D02*
X113678768Y-98208581D01*
X115717876Y-86533310D02*
X115779962Y-86714158D01*
X111870962Y-100416247D02*
X111830872Y-100659060D01*
X112873379Y-99375005D02*
X112868670Y-99381330D01*
X113021182Y-99172686D02*
X112873379Y-99375005D01*
X114712095Y-96444273D02*
X114655840Y-96553581D01*
X115083011Y-85360191D02*
X115194118Y-85515806D01*
X112868670Y-99381330D02*
X111870962Y-100379038D01*
X115541227Y-94337927D02*
X115395872Y-94756480D01*
X114712488Y-84922717D02*
X114841990Y-85063393D01*
X115779962Y-86714158D02*
X115834522Y-86897417D01*
X114655840Y-96553581D02*
X114595522Y-96666974D01*
X111775686Y-101975308D02*
X111800626Y-102057532D01*
X115746202Y-93687656D02*
X115680525Y-93906293D01*
X111833504Y-102136916D02*
X111874005Y-102212695D01*
X111830872Y-100659060D02*
X111798749Y-100903055D01*
X116000000Y-88125457D02*
X116000000Y-92678229D01*
X114531351Y-96784321D02*
X114464361Y-96904012D01*
X114965568Y-85209301D02*
X115083011Y-85360191D01*
X115395872Y-94756480D02*
X115254053Y-95143558D01*
X115254053Y-95143558D02*
X115123354Y-95486914D01*
X111750508Y-101805525D02*
X111758927Y-101891035D01*
X114841990Y-85063393D02*
X114965568Y-85209301D01*
X113511909Y-98465388D02*
X113344646Y-98713669D01*
X115881462Y-87082774D02*
X115920702Y-87269912D01*
X113678768Y-98208581D02*
X113511909Y-98465388D01*
X111758927Y-101891035D02*
X111775686Y-101975308D01*
X115991620Y-87838808D02*
X115999523Y-88029853D01*
X111758528Y-101393544D02*
X111750475Y-101639513D01*
X111750475Y-101639513D02*
X111750000Y-101762563D01*
X115487582Y-86008299D02*
X115571561Y-86180079D01*
X114909730Y-96018793D02*
X114861812Y-96128785D01*
X115194118Y-85515806D02*
X115298699Y-85675879D01*
X115920702Y-87269912D02*
X115952176Y-87458513D01*
X115571561Y-86180079D02*
X115648369Y-86355182D01*
X114007360Y-97679793D02*
X113844285Y-97945631D01*
X115680525Y-93906293D02*
X115611758Y-94124006D01*
X115985540Y-92746958D02*
X115982258Y-92750240D01*
X115922466Y-93026093D02*
X115867393Y-93247497D01*
X115648369Y-86355182D02*
X115717876Y-86533310D01*
X116000000Y-92678229D02*
X115985540Y-92746958D01*
X115009580Y-95776827D02*
X114958691Y-95902078D01*
X111921740Y-102284139D02*
X111976247Y-102350560D01*
X115867393Y-93247497D02*
X115808564Y-93468046D01*
X111750000Y-101762563D02*
X111750508Y-101805525D01*
X114464361Y-96904012D02*
X114319825Y-97155286D01*
X115123354Y-95486914D02*
X115009580Y-95776827D01*
X115952176Y-87458513D02*
X115975828Y-87648253D01*
X111798749Y-100903055D02*
X111774625Y-101147971D01*
X115982258Y-92750240D02*
X115982258Y-92762558D01*
X114764360Y-96338694D02*
X114712095Y-96444273D01*
X115396577Y-85840137D02*
X115487582Y-86008299D01*
X111874005Y-102212695D02*
X111921740Y-102284139D01*
X113179655Y-98950866D02*
X113021182Y-99172686D01*
X115973550Y-92803947D02*
X115922466Y-93026093D01*
X114595522Y-96666974D02*
X114531351Y-96784321D01*
X115834522Y-86897417D02*
X115881462Y-87082774D01*
X111976247Y-102350560D02*
X112006282Y-102381282D01*
X111870962Y-100379038D02*
X111870962Y-100416247D01*
X115999523Y-88029853D02*
X116000000Y-88125457D01*
X115611758Y-94124006D02*
X115541227Y-94337927D01*
X111774625Y-101147971D02*
X111758528Y-101393544D01*
X115982258Y-92762558D02*
X115973550Y-92803947D01*
X114958691Y-95902078D02*
X114909730Y-96018793D01*
X114319825Y-97155286D02*
X114166589Y-97414858D01*
%TO.N,Net-(D2-A)*%
X85515024Y-97227939D02*
X85716539Y-97608209D01*
X85253841Y-84862852D02*
X85210493Y-84876928D01*
X86878764Y-99378764D02*
X87500000Y-100000000D01*
X84047124Y-86009695D02*
X84047123Y-92710681D01*
X84157403Y-93255525D02*
X84268897Y-93741957D01*
X85169880Y-84897611D02*
X85133003Y-84924393D01*
X88868718Y-103304378D02*
X88868718Y-103381282D01*
X86157062Y-98347326D02*
X86273660Y-98525916D01*
X85324757Y-96837947D02*
X85515024Y-97227939D01*
X85321645Y-84855286D02*
X85298857Y-84855729D01*
X86393444Y-98703592D02*
X86641882Y-99057066D01*
X84815975Y-95595830D02*
X84975764Y-96023301D01*
X85716539Y-97608209D02*
X85929914Y-97980186D01*
X86273660Y-98525916D02*
X86393444Y-98703592D01*
X86641882Y-99057066D02*
X86878764Y-99378764D01*
X85145178Y-96436854D02*
X85324757Y-96837947D01*
X84523589Y-94694562D02*
X84665366Y-95153169D01*
X84391205Y-94222950D02*
X84523589Y-94694562D01*
X85133003Y-84924393D02*
X85116601Y-84940218D01*
X85354765Y-84854765D02*
X85321645Y-84855286D01*
X84268897Y-93741957D02*
X84391205Y-94222950D01*
X84047123Y-92710681D02*
X84057394Y-92767468D01*
X84057394Y-92767468D02*
X84157403Y-93255525D01*
X84665366Y-95153169D02*
X84815975Y-95595830D01*
X85298857Y-84855729D02*
X85253841Y-84862852D01*
X84975764Y-96023301D02*
X85145178Y-96436854D01*
X85929914Y-97980186D02*
X86157062Y-98347326D01*
X85210493Y-84876928D02*
X85169880Y-84897611D01*
X85116601Y-84940218D02*
X84047124Y-86009695D01*
X87500000Y-100000000D02*
G75*
G02*
X88868727Y-103304378I-3304400J-3304400D01*
G01*
%TO.N,Net-(D3-A)*%
X110800000Y-77900000D02*
X110800000Y-76849701D01*
X112100000Y-75150000D02*
X112500000Y-74750000D01*
X113645235Y-82604765D02*
X113750000Y-82500000D01*
X110948883Y-76666171D02*
X112100000Y-75515054D01*
X113645235Y-82604765D02*
X113645235Y-80745235D01*
X112100000Y-75515054D02*
X112100000Y-75150000D01*
X110800000Y-76849701D02*
X110948883Y-76700818D01*
X113645235Y-80745235D02*
X110800000Y-77900000D01*
X110948883Y-76700818D02*
X110948883Y-76666171D01*
%TO.N,Net-(D4-A)*%
X87750000Y-79250000D02*
X86354765Y-80645235D01*
X86992358Y-76729794D02*
X86992358Y-77334443D01*
X86354765Y-80645235D02*
X86354765Y-82604765D01*
X86992358Y-77334443D02*
X87750000Y-78092085D01*
X87750000Y-78092085D02*
X87750000Y-79250000D01*
X86381282Y-76118718D02*
X86992358Y-76729794D01*
%TO.N,Net-(BT1-+)*%
X103100000Y-80300000D02*
X103000000Y-80200000D01*
X91400000Y-84200000D02*
X93000000Y-84200000D01*
X110700000Y-86900000D02*
X107600000Y-83800000D01*
X103000000Y-80200000D02*
X103000000Y-77000000D01*
X93000000Y-84200000D02*
X96900000Y-80300000D01*
X96900000Y-80300000D02*
X103100000Y-80300000D01*
X112800000Y-91000000D02*
X110700000Y-88900000D01*
X110700000Y-88900000D02*
X110700000Y-86900000D01*
X87200000Y-91000000D02*
X87200000Y-88400000D01*
X107600000Y-83800000D02*
X106600000Y-83800000D01*
X106600000Y-83800000D02*
X103100000Y-80300000D01*
X87200000Y-88400000D02*
X91400000Y-84200000D01*
%TO.N,Net-(D5-A)*%
X111895235Y-81104765D02*
X111040470Y-80250000D01*
X111040470Y-80250000D02*
X108250000Y-80250000D01*
%TO.N,Net-(D6-A)*%
X88104765Y-81104765D02*
X88709530Y-80500000D01*
X88709530Y-80500000D02*
X90750000Y-80500000D01*
%TD*%
%TA.AperFunction,Conductor*%
%TO.N,GND*%
G36*
X107366942Y-84420185D02*
G01*
X107387584Y-84436819D01*
X110063181Y-87112416D01*
X110096666Y-87173739D01*
X110099500Y-87200097D01*
X110099500Y-87885858D01*
X110079815Y-87952897D01*
X110027011Y-87998652D01*
X110018847Y-88002034D01*
X110007669Y-88006204D01*
X110007664Y-88006206D01*
X109892455Y-88092452D01*
X109892452Y-88092455D01*
X109806206Y-88207664D01*
X109806202Y-88207671D01*
X109755908Y-88342517D01*
X109753335Y-88366454D01*
X109749501Y-88402123D01*
X109749500Y-88402135D01*
X109749500Y-93597870D01*
X109749501Y-93597876D01*
X109755908Y-93657483D01*
X109806202Y-93792328D01*
X109806206Y-93792335D01*
X109892452Y-93907544D01*
X109892455Y-93907547D01*
X110007664Y-93993793D01*
X110007671Y-93993797D01*
X110142517Y-94044091D01*
X110142516Y-94044091D01*
X110149444Y-94044835D01*
X110202127Y-94050500D01*
X114831036Y-94050499D01*
X114898075Y-94070184D01*
X114943830Y-94122988D01*
X114953774Y-94192146D01*
X114948173Y-94215179D01*
X114830623Y-94553666D01*
X114829917Y-94555645D01*
X114691777Y-94932680D01*
X114691234Y-94934134D01*
X114563410Y-95269939D01*
X114562962Y-95271099D01*
X114452145Y-95553476D01*
X114451635Y-95554754D01*
X114403893Y-95672257D01*
X114403360Y-95673548D01*
X114357894Y-95781932D01*
X114357227Y-95783490D01*
X114313545Y-95883758D01*
X114312764Y-95885515D01*
X114269558Y-95980634D01*
X114268691Y-95982501D01*
X114224416Y-96075828D01*
X114223513Y-96077692D01*
X114176422Y-96172818D01*
X114175548Y-96174548D01*
X114124121Y-96274474D01*
X114123341Y-96275964D01*
X114067342Y-96381239D01*
X114066662Y-96382500D01*
X114006205Y-96493056D01*
X114005615Y-96494123D01*
X113942448Y-96606984D01*
X113941729Y-96608251D01*
X113801336Y-96852322D01*
X113800631Y-96853532D01*
X113650947Y-97107086D01*
X113650467Y-97107891D01*
X113634377Y-97134665D01*
X113494349Y-97367652D01*
X113493764Y-97368614D01*
X113334585Y-97628100D01*
X113333829Y-97629317D01*
X113173325Y-97884303D01*
X113172363Y-97885807D01*
X113011645Y-98133161D01*
X113010506Y-98134882D01*
X112849659Y-98373641D01*
X112848614Y-98375168D01*
X112689286Y-98604222D01*
X112688388Y-98605496D01*
X112534804Y-98820475D01*
X112534034Y-98821540D01*
X112417179Y-98981496D01*
X112404733Y-98996030D01*
X111502248Y-99898516D01*
X111390443Y-100010320D01*
X111390439Y-100010325D01*
X111343642Y-100091382D01*
X111343642Y-100091383D01*
X111311385Y-100147252D01*
X111311385Y-100147253D01*
X111270461Y-100299981D01*
X111270461Y-100299983D01*
X111270461Y-100356843D01*
X111268804Y-100377044D01*
X111251967Y-100479014D01*
X111247588Y-100494355D01*
X111247932Y-100494448D01*
X111245830Y-100502293D01*
X111237056Y-100568923D01*
X111236461Y-100572930D01*
X111225514Y-100639240D01*
X111225248Y-100647365D01*
X111224892Y-100647353D01*
X111224630Y-100663307D01*
X111214264Y-100742042D01*
X111210389Y-100757518D01*
X111210736Y-100757599D01*
X111208890Y-100765515D01*
X111202300Y-100832398D01*
X111202301Y-100832399D01*
X111202101Y-100834428D01*
X111193067Y-100903054D01*
X111194368Y-100912938D01*
X111192970Y-100927137D01*
X111192970Y-100927138D01*
X111185186Y-101006166D01*
X111181817Y-101021765D01*
X111182167Y-101021835D01*
X111180581Y-101029807D01*
X111176187Y-101096836D01*
X111175856Y-101100876D01*
X111169267Y-101167781D01*
X111169533Y-101175907D01*
X111169177Y-101175918D01*
X111169959Y-101191860D01*
X111164764Y-101271103D01*
X111161908Y-101286802D01*
X111162260Y-101286861D01*
X111160937Y-101294874D01*
X111158737Y-101362035D01*
X111158538Y-101366083D01*
X111154143Y-101433154D01*
X111154674Y-101441260D01*
X111154317Y-101441283D01*
X111155622Y-101457191D01*
X111153069Y-101535153D01*
X111150837Y-101550016D01*
X111151376Y-101550089D01*
X111150284Y-101558142D01*
X111150019Y-101626729D01*
X111149954Y-101630303D01*
X111149346Y-101648890D01*
X111127480Y-101715250D01*
X111107793Y-101737515D01*
X110221065Y-102525719D01*
X110157882Y-102555545D01*
X110143664Y-102556940D01*
X110132246Y-102557398D01*
X110119348Y-102558653D01*
X110119317Y-102558339D01*
X110110272Y-102559224D01*
X110110328Y-102559792D01*
X110100919Y-102560719D01*
X110094753Y-102561887D01*
X110088198Y-102562845D01*
X110083301Y-102563035D01*
X110080078Y-102564033D01*
X110070827Y-102565386D01*
X110066994Y-102565969D01*
X110065367Y-102566440D01*
X110044207Y-102570607D01*
X110041209Y-102570930D01*
X110038030Y-102571701D01*
X110034808Y-102572747D01*
X110034391Y-102572775D01*
X110027565Y-102575099D01*
X110026674Y-102575389D01*
X110026100Y-102575405D01*
X110009507Y-102579636D01*
X110001645Y-102580995D01*
X110001639Y-102580996D01*
X110001638Y-102580997D01*
X110001636Y-102580997D01*
X109998800Y-102581881D01*
X109984753Y-102587053D01*
X109977039Y-102589211D01*
X109975964Y-102589367D01*
X109974994Y-102589783D01*
X109967050Y-102592006D01*
X109966588Y-102592000D01*
X109960680Y-102594224D01*
X109955551Y-102596572D01*
X109950317Y-102598587D01*
X109949482Y-102598736D01*
X109947381Y-102599718D01*
X109943329Y-102601279D01*
X109941982Y-102601389D01*
X109933248Y-102604673D01*
X109930967Y-102605333D01*
X109929267Y-102606076D01*
X109926142Y-102607801D01*
X109922276Y-102609740D01*
X109906676Y-102616274D01*
X109899694Y-102618652D01*
X109896261Y-102620350D01*
X109887153Y-102625554D01*
X109882737Y-102627678D01*
X109870711Y-102632337D01*
X109866207Y-102635628D01*
X109855958Y-102640559D01*
X109855092Y-102640701D01*
X109847275Y-102644636D01*
X109843774Y-102646140D01*
X109836792Y-102650293D01*
X109836494Y-102649792D01*
X109824460Y-102657206D01*
X109818372Y-102660053D01*
X109811518Y-102664431D01*
X109811382Y-102664219D01*
X109807222Y-102667159D01*
X109803653Y-102669258D01*
X109794315Y-102673944D01*
X109791636Y-102676325D01*
X109787705Y-102678637D01*
X109787268Y-102678779D01*
X109785295Y-102680054D01*
X109781917Y-102682042D01*
X109781355Y-102682183D01*
X109777318Y-102684617D01*
X109771209Y-102687868D01*
X109767381Y-102690601D01*
X109755881Y-102697891D01*
X109748786Y-102701859D01*
X109746487Y-102703574D01*
X109739688Y-102708299D01*
X109737287Y-102709851D01*
X109726799Y-102715969D01*
X109724967Y-102717816D01*
X109717174Y-102722855D01*
X109716679Y-102723001D01*
X109714003Y-102724838D01*
X109704755Y-102730428D01*
X109698690Y-102734940D01*
X109697011Y-102736100D01*
X109692124Y-102739308D01*
X109683198Y-102744871D01*
X109681532Y-102746242D01*
X109670154Y-102754559D01*
X109651132Y-102766868D01*
X109647300Y-102769129D01*
X109646574Y-102769650D01*
X109641708Y-102772967D01*
X109639769Y-102774221D01*
X109634961Y-102777981D01*
X109618683Y-102789661D01*
X109615586Y-102791813D01*
X109594062Y-102806286D01*
X109583123Y-102814844D01*
X109545208Y-102841060D01*
X109543395Y-102842702D01*
X109532467Y-102851522D01*
X109431635Y-102923871D01*
X109424182Y-102929218D01*
X109422945Y-102929693D01*
X109370792Y-102967525D01*
X109370504Y-102967733D01*
X109370474Y-102967755D01*
X109314356Y-103008022D01*
X109309922Y-103011684D01*
X109095534Y-103167211D01*
X109094895Y-103167672D01*
X108946534Y-103273867D01*
X108945657Y-103274489D01*
X108792560Y-103382080D01*
X108791380Y-103382899D01*
X108709937Y-103438681D01*
X108636776Y-103488790D01*
X108635133Y-103489895D01*
X108481711Y-103591415D01*
X108479636Y-103592759D01*
X108328489Y-103688497D01*
X108326294Y-103689856D01*
X108175900Y-103780786D01*
X108173724Y-103782071D01*
X108022384Y-103869411D01*
X108020322Y-103870574D01*
X107910300Y-103931246D01*
X107866658Y-103955312D01*
X107864684Y-103956377D01*
X107707291Y-104039494D01*
X107705493Y-104040425D01*
X107543111Y-104122813D01*
X107541526Y-104123603D01*
X107372645Y-104206277D01*
X107371295Y-104206928D01*
X107195104Y-104290556D01*
X107193949Y-104291097D01*
X107009793Y-104376197D01*
X107008632Y-104376726D01*
X106816850Y-104462967D01*
X106815642Y-104463503D01*
X106615854Y-104550795D01*
X106614602Y-104551333D01*
X106406512Y-104639543D01*
X106405228Y-104640079D01*
X106188249Y-104729198D01*
X106186939Y-104729727D01*
X105960891Y-104819574D01*
X105959564Y-104820093D01*
X105723944Y-104910624D01*
X105722602Y-104911131D01*
X105476924Y-105002278D01*
X105475573Y-105002770D01*
X105220167Y-105094171D01*
X105218792Y-105094654D01*
X104954904Y-105185608D01*
X104953478Y-105186090D01*
X104683294Y-105275558D01*
X104681790Y-105276045D01*
X104406892Y-105363201D01*
X104405387Y-105363667D01*
X104128015Y-105447479D01*
X104126304Y-105447983D01*
X103848328Y-105527548D01*
X103846413Y-105528079D01*
X103569997Y-105602426D01*
X103567868Y-105602979D01*
X103294745Y-105671269D01*
X103292365Y-105671839D01*
X103023893Y-105733363D01*
X103021306Y-105733927D01*
X102755798Y-105788833D01*
X102753059Y-105789367D01*
X102488447Y-105837905D01*
X102485613Y-105838391D01*
X102219629Y-105880831D01*
X102216761Y-105881254D01*
X101947182Y-105917828D01*
X101944341Y-105918180D01*
X101669064Y-105949072D01*
X101666309Y-105949350D01*
X101382883Y-105974764D01*
X101380264Y-105974971D01*
X101086827Y-105995025D01*
X101084387Y-105995168D01*
X100779543Y-106009974D01*
X100777288Y-106010063D01*
X100462860Y-106019602D01*
X100460736Y-106019648D01*
X100139631Y-106023885D01*
X100137585Y-106023895D01*
X99812619Y-106022821D01*
X99810604Y-106022798D01*
X99484378Y-106016418D01*
X99482350Y-106016362D01*
X99157716Y-106004697D01*
X99155630Y-106004604D01*
X98835375Y-105987692D01*
X98833183Y-105987557D01*
X98519986Y-105965449D01*
X98517635Y-105965261D01*
X98213541Y-105937974D01*
X98211023Y-105937722D01*
X97915374Y-105905100D01*
X97912719Y-105904778D01*
X97623814Y-105866576D01*
X97621051Y-105866179D01*
X97337476Y-105822166D01*
X97334649Y-105821694D01*
X97054694Y-105771592D01*
X97051845Y-105771047D01*
X96773986Y-105714581D01*
X96771157Y-105713972D01*
X96493773Y-105650830D01*
X96491013Y-105650168D01*
X96212431Y-105580008D01*
X96209821Y-105579320D01*
X96030842Y-105530030D01*
X95928815Y-105501932D01*
X95926368Y-105501231D01*
X95643487Y-105417042D01*
X95641217Y-105416343D01*
X95357613Y-105325989D01*
X95355490Y-105325291D01*
X95072555Y-105229500D01*
X95070551Y-105228803D01*
X94789345Y-105128202D01*
X94787437Y-105127502D01*
X94509296Y-105022826D01*
X94507463Y-105022119D01*
X94271019Y-104928833D01*
X94233657Y-104914092D01*
X94231895Y-104913381D01*
X94226441Y-104911131D01*
X94023134Y-104827256D01*
X93963464Y-104802639D01*
X93961739Y-104801912D01*
X93699689Y-104689144D01*
X93698097Y-104688446D01*
X93443689Y-104574714D01*
X93442234Y-104574052D01*
X93197054Y-104460631D01*
X93195761Y-104460024D01*
X92962784Y-104348848D01*
X92960983Y-104347971D01*
X92559077Y-104148133D01*
X92529368Y-104133361D01*
X92527189Y-104132250D01*
X92158447Y-103939699D01*
X92156886Y-103938870D01*
X92029464Y-103870003D01*
X92001600Y-103854943D01*
X92000611Y-103854403D01*
X91979420Y-103842689D01*
X91862969Y-103778315D01*
X91861466Y-103777470D01*
X91631405Y-103646012D01*
X91629438Y-103644864D01*
X91457189Y-103542199D01*
X91455755Y-103541331D01*
X91340963Y-103470791D01*
X91329325Y-103462688D01*
X91327684Y-103461400D01*
X91327679Y-103461397D01*
X91327678Y-103461396D01*
X91292211Y-103440394D01*
X91281327Y-103432103D01*
X91280916Y-103432661D01*
X91274375Y-103427830D01*
X91261804Y-103420877D01*
X91250308Y-103412667D01*
X91249974Y-103413151D01*
X91243289Y-103408535D01*
X91243287Y-103408534D01*
X91243286Y-103408533D01*
X91228851Y-103401137D01*
X91215096Y-103392079D01*
X91215055Y-103392145D01*
X91208175Y-103387828D01*
X91203492Y-103385684D01*
X91193250Y-103380995D01*
X91181700Y-103374953D01*
X91176965Y-103372149D01*
X91167578Y-103365952D01*
X91167302Y-103365801D01*
X91158043Y-103362205D01*
X91150158Y-103358824D01*
X91146484Y-103357096D01*
X91141009Y-103354068D01*
X91138972Y-103353562D01*
X91131502Y-103350048D01*
X91130133Y-103348835D01*
X91118849Y-103343172D01*
X91118809Y-103343147D01*
X91118800Y-103343143D01*
X91118654Y-103343099D01*
X91118003Y-103342900D01*
X91110873Y-103340696D01*
X91109471Y-103339978D01*
X91106441Y-103339326D01*
X91101213Y-103337711D01*
X91098966Y-103336221D01*
X91086212Y-103331987D01*
X91069694Y-103324425D01*
X91069117Y-103324195D01*
X91069103Y-103324238D01*
X91061420Y-103321598D01*
X91055184Y-103320334D01*
X91034944Y-103314400D01*
X91030374Y-103312625D01*
X91030359Y-103312622D01*
X91029349Y-103312512D01*
X91011299Y-103309176D01*
X91005633Y-103307687D01*
X90995274Y-103303892D01*
X90989061Y-103303334D01*
X90980633Y-103301121D01*
X90979510Y-103300936D01*
X90966050Y-103300499D01*
X90945445Y-103298093D01*
X90939199Y-103296827D01*
X90935526Y-103296024D01*
X90922938Y-103293072D01*
X90921536Y-103292954D01*
X90919376Y-103292738D01*
X90916848Y-103292690D01*
X90914053Y-103292498D01*
X90848520Y-103268266D01*
X90806492Y-103212450D01*
X90804723Y-103203978D01*
X90799999Y-103200000D01*
X90800000Y-103200000D01*
X90063318Y-102579636D01*
X89319597Y-101953344D01*
X89280997Y-101895104D01*
X89278901Y-101887461D01*
X89275142Y-101871804D01*
X89147084Y-101477687D01*
X88988499Y-101094831D01*
X88800364Y-100725598D01*
X88800361Y-100725592D01*
X88800354Y-100725581D01*
X88583846Y-100372273D01*
X88583842Y-100372268D01*
X88583840Y-100372264D01*
X88340262Y-100037007D01*
X88340257Y-100037000D01*
X88071129Y-99721894D01*
X87983204Y-99633970D01*
X87983204Y-99633969D01*
X87924617Y-99575382D01*
X87924618Y-99575382D01*
X87888332Y-99539097D01*
X87342058Y-98992823D01*
X87329888Y-98978667D01*
X87130163Y-98707429D01*
X87128565Y-98705207D01*
X87015363Y-98544145D01*
X86888768Y-98364027D01*
X86887450Y-98362113D01*
X86812879Y-98251502D01*
X86774566Y-98194672D01*
X86773553Y-98193145D01*
X86664702Y-98026422D01*
X86663083Y-98023874D01*
X86599945Y-97921824D01*
X86539161Y-97823579D01*
X93529972Y-97823579D01*
X93570793Y-97864400D01*
X94033514Y-98270196D01*
X94521774Y-98644851D01*
X95033486Y-98986766D01*
X95033511Y-98986782D01*
X95566496Y-99294501D01*
X96118472Y-99566705D01*
X96687067Y-99802225D01*
X96687078Y-99802229D01*
X97269852Y-100000055D01*
X97269860Y-100000057D01*
X97864345Y-100159349D01*
X97864363Y-100159353D01*
X98467952Y-100279414D01*
X98467963Y-100279416D01*
X99078139Y-100359747D01*
X99692287Y-100400000D01*
X100307713Y-100400000D01*
X100921860Y-100359747D01*
X101532036Y-100279416D01*
X101532047Y-100279414D01*
X102135636Y-100159353D01*
X102135654Y-100159349D01*
X102730139Y-100000057D01*
X102730147Y-100000055D01*
X103312921Y-99802229D01*
X103312932Y-99802225D01*
X103881527Y-99566705D01*
X104433503Y-99294501D01*
X104966488Y-98986782D01*
X104966513Y-98986766D01*
X105478225Y-98644851D01*
X105966485Y-98270196D01*
X106429207Y-97864400D01*
X106470027Y-97823579D01*
X100000000Y-91353553D01*
X93529972Y-97823579D01*
X86539161Y-97823579D01*
X86446906Y-97674467D01*
X86444797Y-97670928D01*
X86443310Y-97668335D01*
X86243441Y-97319905D01*
X86241462Y-97316316D01*
X86051285Y-96957441D01*
X86049419Y-96953773D01*
X86043015Y-96940647D01*
X85869678Y-96585355D01*
X85867948Y-96581655D01*
X85779057Y-96383116D01*
X85698009Y-96202093D01*
X85696448Y-96198451D01*
X85686656Y-96174548D01*
X85535715Y-95806087D01*
X85534314Y-95802507D01*
X85382235Y-95395664D01*
X85380994Y-95392188D01*
X85339586Y-95270485D01*
X85237140Y-94969382D01*
X85236066Y-94966073D01*
X85100107Y-94526285D01*
X85099189Y-94523173D01*
X85010721Y-94208011D01*
X85011555Y-94138147D01*
X85050029Y-94079824D01*
X85113926Y-94051559D01*
X85130107Y-94050499D01*
X89797871Y-94050499D01*
X89797872Y-94050499D01*
X89857483Y-94044091D01*
X89992331Y-93993796D01*
X90107546Y-93907546D01*
X90193796Y-93792331D01*
X90244091Y-93657483D01*
X90250500Y-93597873D01*
X90250499Y-88402128D01*
X90244091Y-88342517D01*
X90206084Y-88240616D01*
X90193797Y-88207671D01*
X90193793Y-88207664D01*
X90107547Y-88092455D01*
X90107544Y-88092452D01*
X89992335Y-88006206D01*
X89992328Y-88006202D01*
X89857482Y-87955908D01*
X89857483Y-87955908D01*
X89797883Y-87949501D01*
X89797881Y-87949500D01*
X89797873Y-87949500D01*
X89797865Y-87949500D01*
X88799096Y-87949500D01*
X88732057Y-87929815D01*
X88686302Y-87877011D01*
X88676358Y-87807853D01*
X88705383Y-87744297D01*
X88711415Y-87737819D01*
X90104390Y-86344845D01*
X91612416Y-84836819D01*
X91673739Y-84803334D01*
X91700097Y-84800500D01*
X92660478Y-84800500D01*
X92727517Y-84820185D01*
X92773272Y-84872989D01*
X92783216Y-84942147D01*
X92754191Y-85005703D01*
X92753706Y-85006259D01*
X92729803Y-85033514D01*
X92355148Y-85521774D01*
X92013233Y-86033486D01*
X92013217Y-86033511D01*
X91705498Y-86566496D01*
X91433294Y-87118472D01*
X91197774Y-87687067D01*
X91197770Y-87687078D01*
X90999944Y-88269852D01*
X90999942Y-88269860D01*
X90840650Y-88864345D01*
X90840646Y-88864363D01*
X90720585Y-89467952D01*
X90720583Y-89467963D01*
X90640252Y-90078139D01*
X90600000Y-90692287D01*
X90600000Y-91307712D01*
X90640252Y-91921860D01*
X90720583Y-92532036D01*
X90720585Y-92532047D01*
X90840646Y-93135636D01*
X90840650Y-93135654D01*
X90999942Y-93730139D01*
X90999944Y-93730147D01*
X91197770Y-94312921D01*
X91197774Y-94312932D01*
X91433294Y-94881527D01*
X91705498Y-95433503D01*
X92013217Y-95966488D01*
X92013233Y-95966513D01*
X92355148Y-96478225D01*
X92729803Y-96966485D01*
X93135606Y-97429214D01*
X93176419Y-97470027D01*
X99735542Y-90910904D01*
X99796865Y-90877419D01*
X99866557Y-90882403D01*
X99910904Y-90910904D01*
X99999999Y-90999999D01*
X100089094Y-90910904D01*
X100150417Y-90877419D01*
X100220109Y-90882403D01*
X100264457Y-90910904D01*
X106823579Y-97470027D01*
X106823580Y-97470027D01*
X106864400Y-97429207D01*
X107270196Y-96966485D01*
X107644851Y-96478225D01*
X107986766Y-95966513D01*
X107986782Y-95966488D01*
X108294501Y-95433503D01*
X108566705Y-94881527D01*
X108802225Y-94312932D01*
X108802229Y-94312921D01*
X109000055Y-93730147D01*
X109000057Y-93730139D01*
X109159349Y-93135654D01*
X109159353Y-93135636D01*
X109279414Y-92532047D01*
X109279416Y-92532036D01*
X109359747Y-91921860D01*
X109400000Y-91307712D01*
X109400000Y-90692287D01*
X109359747Y-90078139D01*
X109279416Y-89467963D01*
X109279414Y-89467952D01*
X109159353Y-88864363D01*
X109159349Y-88864345D01*
X109000057Y-88269860D01*
X109000055Y-88269852D01*
X108802229Y-87687078D01*
X108802225Y-87687067D01*
X108566705Y-87118472D01*
X108294501Y-86566496D01*
X107986782Y-86033511D01*
X107986766Y-86033486D01*
X107644851Y-85521774D01*
X107270196Y-85033514D01*
X106895503Y-84606259D01*
X106866100Y-84542877D01*
X106875632Y-84473661D01*
X106921072Y-84420585D01*
X106987993Y-84400502D01*
X106988731Y-84400500D01*
X107299903Y-84400500D01*
X107366942Y-84420185D01*
G37*
%TD.AperFunction*%
%TA.AperFunction,Conductor*%
G36*
X93011580Y-74760822D02*
G01*
X93050276Y-74818997D01*
X93052107Y-74886102D01*
X93009904Y-75053588D01*
X92999500Y-75185777D01*
X92999500Y-78814208D01*
X92999501Y-78814223D01*
X93009904Y-78946413D01*
X93009905Y-78946420D01*
X93064902Y-79164678D01*
X93064903Y-79164681D01*
X93157991Y-79369622D01*
X93157997Y-79369632D01*
X93286174Y-79554645D01*
X93286178Y-79554650D01*
X93286181Y-79554654D01*
X93445346Y-79713819D01*
X93445350Y-79713822D01*
X93445354Y-79713825D01*
X93558836Y-79792445D01*
X93630374Y-79842007D01*
X93835317Y-79935096D01*
X93835321Y-79935097D01*
X94053579Y-79990094D01*
X94053581Y-79990094D01*
X94053588Y-79990096D01*
X94185783Y-80000500D01*
X95100902Y-80000499D01*
X95167941Y-80020183D01*
X95213696Y-80072987D01*
X95223640Y-80142146D01*
X95194615Y-80205702D01*
X95188583Y-80212180D01*
X92787584Y-82613181D01*
X92726261Y-82646666D01*
X92699903Y-82649500D01*
X92391461Y-82649500D01*
X92324422Y-82629815D01*
X92278667Y-82577011D01*
X92268723Y-82507853D01*
X92297313Y-82444802D01*
X92673337Y-82006107D01*
X93750000Y-80750000D01*
X93749999Y-80749998D01*
X90454288Y-77271193D01*
X89788768Y-76568700D01*
X89776227Y-76544181D01*
X89760746Y-76521399D01*
X89760543Y-76513516D01*
X89756953Y-76506496D01*
X89759659Y-76479086D01*
X89758952Y-76451552D01*
X89763043Y-76444811D01*
X89763818Y-76436964D01*
X89780914Y-76415367D01*
X89795205Y-76391824D01*
X89802290Y-76388365D01*
X89807186Y-76382182D01*
X89833246Y-76373256D01*
X89857995Y-76361177D01*
X89868727Y-76361104D01*
X89873286Y-76359543D01*
X89893277Y-76360271D01*
X89901655Y-76361256D01*
X89903340Y-76361752D01*
X89906509Y-76361827D01*
X89912255Y-76362504D01*
X89913878Y-76363195D01*
X89916088Y-76363448D01*
X89920801Y-76363793D01*
X89920802Y-76363794D01*
X89920802Y-76363793D01*
X89926241Y-76364193D01*
X89931539Y-76364233D01*
X89941224Y-76364940D01*
X89944341Y-76365668D01*
X89949066Y-76365513D01*
X89955599Y-76365991D01*
X89957036Y-76366529D01*
X89960745Y-76366734D01*
X89963094Y-76366762D01*
X89963098Y-76366763D01*
X89963101Y-76366762D01*
X89968997Y-76366834D01*
X89971635Y-76366682D01*
X89982279Y-76366722D01*
X89984876Y-76367182D01*
X89989817Y-76366751D01*
X89995444Y-76366773D01*
X89996926Y-76367214D01*
X90005236Y-76367198D01*
X90005489Y-76367219D01*
X90005494Y-76367217D01*
X90011196Y-76366945D01*
X90013111Y-76366714D01*
X90022233Y-76366155D01*
X90024608Y-76366451D01*
X90030280Y-76365662D01*
X90035045Y-76365371D01*
X90036470Y-76365696D01*
X90045612Y-76365175D01*
X90047721Y-76365226D01*
X90047726Y-76365224D01*
X90053242Y-76364634D01*
X90053837Y-76364524D01*
X90061666Y-76363523D01*
X90063553Y-76363666D01*
X90069877Y-76362473D01*
X90073514Y-76362009D01*
X90074809Y-76362216D01*
X90085194Y-76361074D01*
X90089304Y-76360941D01*
X90089307Y-76360940D01*
X90089308Y-76360940D01*
X90096294Y-76359788D01*
X90100803Y-76359189D01*
X90101567Y-76359008D01*
X90101571Y-76359009D01*
X90106141Y-76357931D01*
X90123842Y-76355090D01*
X90130059Y-76354550D01*
X90130072Y-76354545D01*
X90132163Y-76354083D01*
X90137751Y-76352669D01*
X90138650Y-76352659D01*
X90146525Y-76350449D01*
X90148061Y-76350061D01*
X90148784Y-76350088D01*
X90161420Y-76347451D01*
X90169715Y-76346300D01*
X90169721Y-76346297D01*
X90170809Y-76345998D01*
X90171738Y-76345785D01*
X90173482Y-76345222D01*
X90173482Y-76345221D01*
X90174883Y-76344768D01*
X90174888Y-76344768D01*
X90182924Y-76342171D01*
X90198075Y-76338311D01*
X90208343Y-76336377D01*
X90208345Y-76336375D01*
X90208349Y-76336375D01*
X90210957Y-76335519D01*
X90215667Y-76333535D01*
X90219932Y-76331985D01*
X90233830Y-76327836D01*
X90245870Y-76325000D01*
X90245874Y-76324997D01*
X90245877Y-76324997D01*
X90248214Y-76324111D01*
X90255457Y-76320723D01*
X90256095Y-76320467D01*
X90268773Y-76316159D01*
X90282343Y-76312354D01*
X90282345Y-76312352D01*
X90282347Y-76312352D01*
X90287425Y-76310178D01*
X90295845Y-76306014D01*
X90299881Y-76304387D01*
X90317906Y-76298565D01*
X90321969Y-76295935D01*
X90328409Y-76292894D01*
X90334832Y-76290307D01*
X90335975Y-76290195D01*
X90338814Y-76288782D01*
X90345903Y-76286206D01*
X90347543Y-76285624D01*
X90352128Y-76284031D01*
X90359890Y-76279995D01*
X90360130Y-76280458D01*
X90372803Y-76273594D01*
X90378805Y-76271184D01*
X90380890Y-76270371D01*
X90385705Y-76268543D01*
X90386229Y-76268296D01*
X90386803Y-76267972D01*
X90386805Y-76267972D01*
X90386806Y-76267970D01*
X90393895Y-76263980D01*
X90394207Y-76264535D01*
X90406261Y-76257493D01*
X90420481Y-76251268D01*
X90420488Y-76251262D01*
X90422371Y-76250125D01*
X90445897Y-76239086D01*
X90452078Y-76236943D01*
X90469346Y-76225238D01*
X90475265Y-76221469D01*
X90479051Y-76219206D01*
X90486991Y-76215200D01*
X90489489Y-76212967D01*
X90498950Y-76207313D01*
X90499537Y-76207160D01*
X90504027Y-76204439D01*
X90520131Y-76195820D01*
X90532217Y-76184484D01*
X90547450Y-76172304D01*
X91759838Y-75350620D01*
X91764948Y-75347339D01*
X91971533Y-75221771D01*
X91974097Y-75220258D01*
X92201634Y-75089869D01*
X92204340Y-75088364D01*
X92425990Y-74968773D01*
X92446694Y-74957602D01*
X92449457Y-74956155D01*
X92706963Y-74825548D01*
X92709652Y-74824227D01*
X92878583Y-74743835D01*
X92947574Y-74732803D01*
X93011580Y-74760822D01*
G37*
%TD.AperFunction*%
%TA.AperFunction,Conductor*%
G36*
X105388755Y-80388557D02*
G01*
X105446618Y-80427718D01*
X105474123Y-80491947D01*
X105475000Y-80506665D01*
X105475000Y-80536637D01*
X105475001Y-80536655D01*
X105485319Y-80637652D01*
X105539546Y-80801300D01*
X105539551Y-80801311D01*
X105630052Y-80948034D01*
X105630055Y-80948038D01*
X105751961Y-81069944D01*
X105751965Y-81069947D01*
X105898688Y-81160448D01*
X105898699Y-81160453D01*
X106062347Y-81214680D01*
X106163351Y-81224999D01*
X106250000Y-81224998D01*
X106250000Y-80625000D01*
X106750000Y-80937500D01*
X106750000Y-81224999D01*
X106836640Y-81224999D01*
X106836654Y-81224998D01*
X106937652Y-81214680D01*
X107049534Y-81177607D01*
X107119363Y-81175205D01*
X107154256Y-81190160D01*
X107250000Y-81250000D01*
X107368768Y-81111436D01*
X107427339Y-81073349D01*
X107497208Y-81072974D01*
X107528010Y-81086599D01*
X107648475Y-81160903D01*
X107648478Y-81160904D01*
X107648484Y-81160908D01*
X107812247Y-81215174D01*
X107913323Y-81225500D01*
X108586676Y-81225499D01*
X108586684Y-81225498D01*
X108586687Y-81225498D01*
X108642030Y-81219844D01*
X108687753Y-81215174D01*
X108851516Y-81160908D01*
X108998350Y-81070340D01*
X109120340Y-80948350D01*
X109144362Y-80909404D01*
X109196310Y-80862679D01*
X109249901Y-80850500D01*
X110697609Y-80850500D01*
X110764648Y-80870185D01*
X110810403Y-80922989D01*
X110821497Y-80979761D01*
X110820994Y-80991585D01*
X110812520Y-81027344D01*
X110812520Y-81191143D01*
X110812408Y-81193781D01*
X110801965Y-81224463D01*
X110792835Y-81255559D01*
X110790775Y-81257343D01*
X110789897Y-81259925D01*
X110764519Y-81280094D01*
X110740031Y-81301314D01*
X110736988Y-81301975D01*
X110735199Y-81303398D01*
X110726359Y-81304288D01*
X110688520Y-81312520D01*
X110527344Y-81312520D01*
X110401442Y-81342359D01*
X110359474Y-81352306D01*
X110205300Y-81429735D01*
X110126543Y-81493892D01*
X110126525Y-81493908D01*
X109862019Y-81758416D01*
X109800696Y-81791901D01*
X109774338Y-81794735D01*
X106062432Y-81794735D01*
X105995393Y-81775050D01*
X105974751Y-81758416D01*
X104986819Y-80770484D01*
X104972115Y-80743556D01*
X104955523Y-80717738D01*
X104954631Y-80711537D01*
X104953334Y-80709161D01*
X104950500Y-80682803D01*
X104950500Y-80650097D01*
X104970185Y-80583058D01*
X104986819Y-80562416D01*
X105111415Y-80437820D01*
X105172738Y-80404335D01*
X105199096Y-80401501D01*
X105264395Y-80401501D01*
X105264397Y-80401501D01*
X105318906Y-80386895D01*
X105388755Y-80388557D01*
G37*
%TD.AperFunction*%
%TA.AperFunction,Conductor*%
G36*
X106576398Y-74651259D02*
G01*
X106678659Y-74697292D01*
X106724441Y-74717901D01*
X106726328Y-74718769D01*
X107115175Y-74901728D01*
X107117281Y-74902745D01*
X107388710Y-75036949D01*
X107450528Y-75067514D01*
X107451976Y-75068242D01*
X107887041Y-75290478D01*
X107904471Y-75299381D01*
X107908177Y-75302598D01*
X107963042Y-75329300D01*
X107964091Y-75329836D01*
X108005775Y-75351129D01*
X108014850Y-75356257D01*
X108015345Y-75356564D01*
X108015347Y-75356566D01*
X108067538Y-75380212D01*
X108070608Y-75381654D01*
X108104927Y-75398356D01*
X108112192Y-75402785D01*
X108112360Y-75402486D01*
X108119449Y-75406457D01*
X108119452Y-75406460D01*
X108167417Y-75425604D01*
X108172606Y-75427814D01*
X108204790Y-75442395D01*
X108208714Y-75444585D01*
X108208832Y-75444349D01*
X108216116Y-75447955D01*
X108216119Y-75447957D01*
X108247557Y-75458684D01*
X108251367Y-75460055D01*
X108262054Y-75464099D01*
X108270081Y-75468971D01*
X108291217Y-75475134D01*
X108295748Y-75476849D01*
X108295970Y-75477016D01*
X108297815Y-75477652D01*
X108315770Y-75484819D01*
X108315772Y-75484819D01*
X108317703Y-75485590D01*
X108326016Y-75488197D01*
X108327166Y-75488628D01*
X108327172Y-75488631D01*
X108327405Y-75488685D01*
X108346563Y-75493132D01*
X108357330Y-75496148D01*
X108357951Y-75496352D01*
X108374184Y-75501892D01*
X108374914Y-75501940D01*
X108379209Y-75503355D01*
X108379396Y-75503444D01*
X108388232Y-75505044D01*
X108402507Y-75509338D01*
X108402619Y-75508941D01*
X108410439Y-75511139D01*
X108410447Y-75511143D01*
X108410455Y-75511144D01*
X108410533Y-75511166D01*
X108419092Y-75512720D01*
X108423193Y-75513619D01*
X108427665Y-75514924D01*
X108429301Y-75514959D01*
X108436418Y-75516521D01*
X108436641Y-75516643D01*
X108438785Y-75517065D01*
X108442595Y-75517978D01*
X108442601Y-75517981D01*
X108452206Y-75518989D01*
X108467792Y-75522390D01*
X108467828Y-75522208D01*
X108475812Y-75523776D01*
X108475817Y-75523778D01*
X108475821Y-75523778D01*
X108477622Y-75524132D01*
X108482246Y-75524624D01*
X108484461Y-75525139D01*
X108486445Y-75525072D01*
X108495072Y-75525991D01*
X108500383Y-75528184D01*
X108501925Y-75528376D01*
X108502109Y-75527161D01*
X108510146Y-75528374D01*
X108510147Y-75528375D01*
X108510148Y-75528375D01*
X108510724Y-75528462D01*
X108514579Y-75528640D01*
X108521155Y-75529120D01*
X108522777Y-75529415D01*
X108523901Y-75529321D01*
X108531355Y-75529867D01*
X108532429Y-75530269D01*
X108537320Y-75530965D01*
X108537345Y-75530732D01*
X108545427Y-75531570D01*
X108545428Y-75531571D01*
X108545428Y-75531570D01*
X108546441Y-75531676D01*
X108552982Y-75531711D01*
X108554123Y-75531876D01*
X108555394Y-75531724D01*
X108563088Y-75531766D01*
X108568304Y-75533328D01*
X108573433Y-75533499D01*
X108573474Y-75532752D01*
X108581591Y-75533195D01*
X108581597Y-75533197D01*
X108581602Y-75533196D01*
X108581793Y-75533207D01*
X108585343Y-75532965D01*
X108586466Y-75533084D01*
X108588607Y-75532744D01*
X108594136Y-75532369D01*
X108598981Y-75533441D01*
X108610172Y-75533318D01*
X108610174Y-75533050D01*
X108618294Y-75533084D01*
X108618302Y-75533086D01*
X108627409Y-75531927D01*
X108645441Y-75530957D01*
X108651709Y-75531077D01*
X108654688Y-75531231D01*
X108654937Y-75531211D01*
X108655409Y-75531125D01*
X108655411Y-75531126D01*
X108663009Y-75529756D01*
X108677747Y-75528003D01*
X108679672Y-75527890D01*
X108688795Y-75527640D01*
X108689986Y-75527285D01*
X108691269Y-75527209D01*
X108692528Y-75527249D01*
X108693167Y-75527098D01*
X108695225Y-75526978D01*
X108700632Y-75526437D01*
X108700739Y-75527509D01*
X108713316Y-75530414D01*
X108755258Y-75532693D01*
X108811901Y-75573600D01*
X108837435Y-75638637D01*
X108823755Y-75707154D01*
X108809180Y-75728983D01*
X106620759Y-78355089D01*
X106562720Y-78393988D01*
X106492863Y-78395334D01*
X106433368Y-78358698D01*
X106403125Y-78295714D01*
X106401500Y-78275706D01*
X106401500Y-74903719D01*
X106401500Y-74893720D01*
X106401501Y-74893718D01*
X106401501Y-74764331D01*
X106421186Y-74697292D01*
X106473990Y-74651537D01*
X106534454Y-74642843D01*
X106543148Y-74641594D01*
X106543150Y-74641594D01*
X106576398Y-74651259D01*
G37*
%TD.AperFunction*%
%TD*%
%TA.AperFunction,NonConductor*%
G36*
X100182171Y-74370185D02*
G01*
X100227926Y-74422989D01*
X100237870Y-74492147D01*
X100217060Y-74545116D01*
X100157996Y-74630367D01*
X100157991Y-74630377D01*
X100064903Y-74835318D01*
X100064902Y-74835321D01*
X100009905Y-75053579D01*
X100009904Y-75053586D01*
X99999500Y-75185777D01*
X99999500Y-78814208D01*
X99999501Y-78814223D01*
X100009904Y-78946413D01*
X100009905Y-78946420D01*
X100064902Y-79164678D01*
X100064903Y-79164681D01*
X100157991Y-79369622D01*
X100157997Y-79369632D01*
X100251700Y-79504884D01*
X100273697Y-79571200D01*
X100256349Y-79638882D01*
X100205164Y-79686440D01*
X100149772Y-79699500D01*
X98850228Y-79699500D01*
X98783189Y-79679815D01*
X98737434Y-79627011D01*
X98727490Y-79557853D01*
X98748300Y-79504884D01*
X98781036Y-79457632D01*
X98842007Y-79369626D01*
X98935096Y-79164683D01*
X98990096Y-78946412D01*
X99000500Y-78814217D01*
X99000499Y-75185784D01*
X98990096Y-75053588D01*
X98985903Y-75036949D01*
X98935097Y-74835321D01*
X98935096Y-74835318D01*
X98934637Y-74834308D01*
X98842007Y-74630374D01*
X98842005Y-74630371D01*
X98842003Y-74630367D01*
X98782940Y-74545116D01*
X98760943Y-74478800D01*
X98778291Y-74411118D01*
X98829476Y-74363560D01*
X98884868Y-74350500D01*
X100115132Y-74350500D01*
X100182171Y-74370185D01*
G37*
%TD.AperFunction*%
%TA.AperFunction,NonConductor*%
G36*
X110115477Y-77989666D02*
G01*
X110140157Y-77989534D01*
X110149327Y-77995358D01*
X110160042Y-77997160D01*
X110178304Y-78013761D01*
X110199137Y-78026992D01*
X110205062Y-78038085D01*
X110211743Y-78044158D01*
X110225635Y-78076599D01*
X110229607Y-78091419D01*
X110240424Y-78131787D01*
X110260956Y-78167350D01*
X110264488Y-78173467D01*
X110319480Y-78268716D01*
X110319482Y-78268718D01*
X110438349Y-78387585D01*
X110438355Y-78387590D01*
X111866856Y-79816091D01*
X111870640Y-79823021D01*
X111877050Y-79827637D01*
X111887148Y-79853253D01*
X111900341Y-79877414D01*
X111899777Y-79885290D01*
X111902674Y-79892638D01*
X111897321Y-79919641D01*
X111895357Y-79947106D01*
X111890623Y-79953429D01*
X111889088Y-79961174D01*
X111869985Y-79980997D01*
X111853485Y-80003039D01*
X111844853Y-80007077D01*
X111840606Y-80011486D01*
X111807771Y-80024430D01*
X111758995Y-80035990D01*
X111689223Y-80032296D01*
X111642718Y-80003013D01*
X111528060Y-79888355D01*
X111528058Y-79888352D01*
X111409187Y-79769481D01*
X111409186Y-79769480D01*
X111313538Y-79714258D01*
X111313537Y-79714257D01*
X111272260Y-79690425D01*
X111272257Y-79690423D01*
X111197951Y-79670513D01*
X111119527Y-79649499D01*
X110961413Y-79649499D01*
X110953817Y-79649499D01*
X110953801Y-79649500D01*
X109249901Y-79649500D01*
X109182862Y-79629815D01*
X109144362Y-79590596D01*
X109120340Y-79551650D01*
X108998350Y-79429660D01*
X108992683Y-79425179D01*
X108993532Y-79424104D01*
X108952029Y-79377955D01*
X108940812Y-79308992D01*
X108968659Y-79244912D01*
X108969557Y-79243849D01*
X110011716Y-78027997D01*
X110020823Y-78022075D01*
X110026912Y-78013079D01*
X110049597Y-78003364D01*
X110070289Y-77989909D01*
X110081153Y-77989850D01*
X110091140Y-77985574D01*
X110115477Y-77989666D01*
G37*
%TD.AperFunction*%
%TA.AperFunction,NonConductor*%
G36*
X88555703Y-78621811D02*
G01*
X88564286Y-78630000D01*
X88865638Y-78946420D01*
X89573793Y-79689983D01*
X89605773Y-79752104D01*
X89599091Y-79821654D01*
X89555868Y-79876550D01*
X89489828Y-79899363D01*
X89484000Y-79899500D01*
X88796199Y-79899500D01*
X88796183Y-79899499D01*
X88788587Y-79899499D01*
X88630473Y-79899499D01*
X88555303Y-79919641D01*
X88477746Y-79940422D01*
X88438078Y-79963325D01*
X88334153Y-80023325D01*
X88303000Y-80030882D01*
X88272261Y-80039937D01*
X88267811Y-80039418D01*
X88266253Y-80039797D01*
X88263816Y-80038953D01*
X88243559Y-80036595D01*
X88182186Y-80022050D01*
X88126546Y-80022050D01*
X88059507Y-80002365D01*
X88013752Y-79949561D01*
X88003808Y-79880403D01*
X88032833Y-79816847D01*
X88038850Y-79810383D01*
X88108509Y-79740724D01*
X88108514Y-79740721D01*
X88118714Y-79730520D01*
X88118716Y-79730520D01*
X88230520Y-79618716D01*
X88293719Y-79509251D01*
X88309577Y-79481785D01*
X88350500Y-79329058D01*
X88350500Y-79170943D01*
X88350500Y-78715524D01*
X88370185Y-78648485D01*
X88422989Y-78602730D01*
X88492147Y-78592786D01*
X88555703Y-78621811D01*
G37*
%TD.AperFunction*%
%TA.AperFunction,NonConductor*%
G36*
X90111461Y-81388275D02*
G01*
X90117106Y-81391554D01*
X90148484Y-81410908D01*
X90312247Y-81465174D01*
X90413323Y-81475500D01*
X91086676Y-81475499D01*
X91086684Y-81475498D01*
X91086687Y-81475498D01*
X91194489Y-81464486D01*
X91194701Y-81466568D01*
X91203713Y-81463456D01*
X91228156Y-81469401D01*
X91253245Y-81471276D01*
X91263331Y-81477956D01*
X91271603Y-81479968D01*
X91299334Y-81501801D01*
X91304210Y-81506921D01*
X91392857Y-81600000D01*
X91395350Y-81602617D01*
X91427330Y-81664739D01*
X91420648Y-81734288D01*
X91377425Y-81789184D01*
X91311385Y-81811998D01*
X91273465Y-81807910D01*
X91224292Y-81794734D01*
X91066178Y-81794734D01*
X91058582Y-81794734D01*
X91058566Y-81794735D01*
X90225662Y-81794735D01*
X90158623Y-81775050D01*
X90137981Y-81758416D01*
X89964353Y-81584788D01*
X89930868Y-81523465D01*
X89935852Y-81453773D01*
X89977724Y-81397840D01*
X90043188Y-81373423D01*
X90111461Y-81388275D01*
G37*
%TD.AperFunction*%
%TA.AperFunction,NonConductor*%
G36*
X102866942Y-80920185D02*
G01*
X102887584Y-80936819D01*
X104341922Y-82391157D01*
X104375407Y-82452480D01*
X104370423Y-82522172D01*
X104328551Y-82578105D01*
X104263087Y-82602522D01*
X104199397Y-82590050D01*
X103881527Y-82433294D01*
X103312932Y-82197774D01*
X103312921Y-82197770D01*
X102730147Y-81999944D01*
X102730139Y-81999942D01*
X102135654Y-81840650D01*
X102135636Y-81840646D01*
X101532047Y-81720585D01*
X101532036Y-81720583D01*
X100921860Y-81640252D01*
X100307713Y-81600000D01*
X99692287Y-81600000D01*
X99078139Y-81640252D01*
X98467963Y-81720583D01*
X98467952Y-81720585D01*
X97864363Y-81840646D01*
X97864345Y-81840650D01*
X97269860Y-81999942D01*
X97269852Y-81999944D01*
X96687078Y-82197770D01*
X96687067Y-82197774D01*
X96118466Y-82433296D01*
X95800598Y-82590051D01*
X95731766Y-82602047D01*
X95667375Y-82574926D01*
X95627870Y-82517297D01*
X95625791Y-82447458D01*
X95658070Y-82391164D01*
X97112416Y-80936819D01*
X97173739Y-80903334D01*
X97200097Y-80900500D01*
X102799903Y-80900500D01*
X102866942Y-80920185D01*
G37*
%TD.AperFunction*%
%TA.AperFunction,NonConductor*%
G36*
X87160468Y-81533193D02*
G01*
X87175404Y-81548591D01*
X87203424Y-81582989D01*
X87203429Y-81582994D01*
X87203432Y-81582998D01*
X87626532Y-82006096D01*
X87626540Y-82006102D01*
X87626545Y-82006107D01*
X87705298Y-82070262D01*
X87705301Y-82070264D01*
X87705306Y-82070268D01*
X87859475Y-82147694D01*
X88027344Y-82187480D01*
X88027347Y-82187480D01*
X88188520Y-82187480D01*
X88197205Y-82190030D01*
X88206167Y-82188742D01*
X88230207Y-82199720D01*
X88255559Y-82207165D01*
X88261486Y-82214005D01*
X88269723Y-82217767D01*
X88284012Y-82240001D01*
X88301314Y-82259969D01*
X88303601Y-82270483D01*
X88307497Y-82276545D01*
X88312520Y-82311480D01*
X88312520Y-82327352D01*
X88292835Y-82394391D01*
X88276201Y-82415033D01*
X87897750Y-82793483D01*
X87836427Y-82826968D01*
X87781473Y-82826460D01*
X87722656Y-82812520D01*
X87561480Y-82812520D01*
X87494441Y-82792835D01*
X87448686Y-82740031D01*
X87437480Y-82688520D01*
X87437480Y-82527346D01*
X87436254Y-82522172D01*
X87397694Y-82359475D01*
X87320268Y-82205306D01*
X87320265Y-82205302D01*
X87320264Y-82205300D01*
X87256107Y-82126543D01*
X87256106Y-82126542D01*
X87256098Y-82126532D01*
X87129508Y-81999942D01*
X86991584Y-81862018D01*
X86976880Y-81835090D01*
X86960288Y-81809272D01*
X86959396Y-81803071D01*
X86958099Y-81800695D01*
X86955265Y-81774337D01*
X86955265Y-81626906D01*
X86974950Y-81559867D01*
X87027754Y-81514112D01*
X87096912Y-81504168D01*
X87160468Y-81533193D01*
G37*
%TD.AperFunction*%
%TA.AperFunction,NonConductor*%
G36*
X113011937Y-81542892D02*
G01*
X113042880Y-81605536D01*
X113044735Y-81626905D01*
X113044735Y-81774336D01*
X113025050Y-81841375D01*
X113008417Y-81862017D01*
X112743902Y-82126534D01*
X112743892Y-82126545D01*
X112679737Y-82205298D01*
X112679733Y-82205304D01*
X112602306Y-82359474D01*
X112602306Y-82359475D01*
X112564902Y-82517297D01*
X112562520Y-82527346D01*
X112562520Y-82688520D01*
X112542835Y-82755559D01*
X112490031Y-82801314D01*
X112438520Y-82812520D01*
X112277344Y-82812520D01*
X112109475Y-82852306D01*
X112109471Y-82852307D01*
X112057415Y-82878450D01*
X111988672Y-82890946D01*
X111924086Y-82864292D01*
X111914085Y-82855320D01*
X111706515Y-82647750D01*
X111673030Y-82586427D01*
X111670495Y-82551468D01*
X111671198Y-82541351D01*
X111687480Y-82472656D01*
X111687480Y-82307179D01*
X111687779Y-82302879D01*
X111698486Y-82273996D01*
X111707165Y-82244441D01*
X111710521Y-82241532D01*
X111712066Y-82237367D01*
X111736694Y-82218853D01*
X111759969Y-82198686D01*
X111764970Y-82197597D01*
X111767916Y-82195384D01*
X111778837Y-82194581D01*
X111811480Y-82187480D01*
X111972653Y-82187480D01*
X111972656Y-82187480D01*
X112140525Y-82147694D01*
X112294694Y-82070268D01*
X112373468Y-82006098D01*
X112796566Y-81582998D01*
X112824598Y-81548587D01*
X112882200Y-81509045D01*
X112952038Y-81506921D01*
X113011937Y-81542892D01*
G37*
%TD.AperFunction*%
%TA.AperFunction,NonConductor*%
G36*
X85225865Y-82630925D02*
G01*
X85270625Y-82684575D01*
X85277544Y-82705372D01*
X85311834Y-82850052D01*
X85321304Y-82868908D01*
X85385016Y-82995770D01*
X85389265Y-83004229D01*
X85453422Y-83082986D01*
X85453432Y-83082998D01*
X85876532Y-83506096D01*
X85876540Y-83506102D01*
X85876545Y-83506107D01*
X85955298Y-83570262D01*
X85955301Y-83570264D01*
X85955306Y-83570268D01*
X86109475Y-83647694D01*
X86277344Y-83687480D01*
X86277347Y-83687480D01*
X86438520Y-83687480D01*
X86443023Y-83688802D01*
X86447612Y-83687814D01*
X86476232Y-83698553D01*
X86505559Y-83707165D01*
X86508631Y-83710711D01*
X86513028Y-83712361D01*
X86531302Y-83736874D01*
X86551314Y-83759969D01*
X86552759Y-83765657D01*
X86554788Y-83768378D01*
X86557994Y-83786249D01*
X86562221Y-83802880D01*
X86562520Y-83807180D01*
X86562520Y-83972656D01*
X86578799Y-84041342D01*
X86579503Y-84051469D01*
X86574098Y-84076078D01*
X86572766Y-84101245D01*
X86566325Y-84111473D01*
X86564516Y-84119712D01*
X86555455Y-84128736D01*
X86543483Y-84147750D01*
X86373081Y-84318152D01*
X86311758Y-84351637D01*
X86242066Y-84346653D01*
X86197719Y-84318153D01*
X86027315Y-84147750D01*
X85832998Y-83953434D01*
X85832990Y-83953427D01*
X85832984Y-83953422D01*
X85754231Y-83889267D01*
X85754225Y-83889263D01*
X85754224Y-83889262D01*
X85600055Y-83811836D01*
X85432186Y-83772050D01*
X85259666Y-83772050D01*
X85259665Y-83772050D01*
X85091800Y-83811834D01*
X84937626Y-83889263D01*
X84858868Y-83953420D01*
X84858852Y-83953434D01*
X84719426Y-84092861D01*
X84712613Y-84096581D01*
X84708090Y-84102891D01*
X84682377Y-84113091D01*
X84658103Y-84126346D01*
X84650360Y-84125792D01*
X84643144Y-84128655D01*
X84615999Y-84123334D01*
X84588411Y-84121362D01*
X84582196Y-84116710D01*
X84574579Y-84115217D01*
X84554620Y-84096066D01*
X84532478Y-84079490D01*
X84529765Y-84072216D01*
X84524164Y-84066842D01*
X84517727Y-84039943D01*
X84508061Y-84014026D01*
X84509300Y-84004723D01*
X84507905Y-83998891D01*
X84514693Y-83964256D01*
X84515092Y-83963117D01*
X84531719Y-83915556D01*
X84532667Y-83912941D01*
X84537726Y-83899460D01*
X84645973Y-83610985D01*
X84646929Y-83608524D01*
X84767048Y-83309122D01*
X84768037Y-83306735D01*
X84895105Y-83009393D01*
X84896155Y-83007009D01*
X85030451Y-82710919D01*
X85031483Y-82708706D01*
X85045078Y-82680354D01*
X85091810Y-82628418D01*
X85159205Y-82609991D01*
X85225865Y-82630925D01*
G37*
%TD.AperFunction*%
%TA.AperFunction,NonConductor*%
G36*
X114882688Y-82643507D02*
G01*
X114937837Y-82686407D01*
X114949948Y-82707230D01*
X114989206Y-82792940D01*
X114990008Y-82794730D01*
X115004157Y-82826968D01*
X115060436Y-82955200D01*
X115061202Y-82956984D01*
X115128468Y-83117016D01*
X115129186Y-83118762D01*
X115193776Y-83279222D01*
X115194439Y-83280902D01*
X115256608Y-83442086D01*
X115257207Y-83443673D01*
X115317331Y-83606141D01*
X115317867Y-83607616D01*
X115333829Y-83652485D01*
X115371719Y-83758997D01*
X115376282Y-83771822D01*
X115376707Y-83773040D01*
X115416546Y-83889265D01*
X115420041Y-83899460D01*
X115423157Y-83969260D01*
X115388042Y-84029665D01*
X115325844Y-84061496D01*
X115256311Y-84054647D01*
X115215059Y-84027348D01*
X115141148Y-83953437D01*
X115141142Y-83953432D01*
X115141130Y-83953422D01*
X115099594Y-83919585D01*
X115062372Y-83889262D01*
X115034842Y-83875436D01*
X114908199Y-83811834D01*
X114740335Y-83772050D01*
X114740334Y-83772050D01*
X114567814Y-83772050D01*
X114449311Y-83800136D01*
X114399944Y-83811836D01*
X114245770Y-83889265D01*
X114167013Y-83953422D01*
X114166995Y-83953438D01*
X113802281Y-84318154D01*
X113794335Y-84322492D01*
X113788910Y-84329740D01*
X113764150Y-84338974D01*
X113740958Y-84351639D01*
X113731928Y-84350993D01*
X113723446Y-84354157D01*
X113697625Y-84348540D01*
X113671267Y-84346655D01*
X113662213Y-84340836D01*
X113655173Y-84339305D01*
X113626921Y-84318156D01*
X113456514Y-84147749D01*
X113423030Y-84086427D01*
X113423538Y-84031476D01*
X113437480Y-83972656D01*
X113437480Y-83811480D01*
X113457165Y-83744441D01*
X113509969Y-83698686D01*
X113561480Y-83687480D01*
X113722653Y-83687480D01*
X113722656Y-83687480D01*
X113890525Y-83647694D01*
X114044694Y-83570268D01*
X114123468Y-83506098D01*
X114546566Y-83082998D01*
X114610738Y-83004224D01*
X114688164Y-82850055D01*
X114716553Y-82730269D01*
X114751168Y-82669578D01*
X114813100Y-82637234D01*
X114882688Y-82643507D01*
G37*
%TD.AperFunction*%
%TA.AperFunction,NonConductor*%
G36*
X109823700Y-83015420D02*
G01*
X109844342Y-83032054D01*
X109995541Y-83183252D01*
X110108855Y-83296566D01*
X110187628Y-83360738D01*
X110328099Y-83431284D01*
X110341800Y-83438165D01*
X110509665Y-83477950D01*
X110509666Y-83477950D01*
X110682183Y-83477950D01*
X110682186Y-83477950D01*
X110741004Y-83464009D01*
X110810771Y-83467701D01*
X110857280Y-83496985D01*
X111235731Y-83875436D01*
X111269216Y-83936759D01*
X111272050Y-83963117D01*
X111272050Y-83990335D01*
X111311834Y-84158199D01*
X111317116Y-84168716D01*
X111389262Y-84312372D01*
X111393971Y-84318153D01*
X111453420Y-84391131D01*
X111453426Y-84391138D01*
X111453432Y-84391145D01*
X111858855Y-84796566D01*
X111937628Y-84860738D01*
X112079895Y-84932186D01*
X112091800Y-84938165D01*
X112259665Y-84977950D01*
X112259666Y-84977950D01*
X112432183Y-84977950D01*
X112432186Y-84977950D01*
X112491004Y-84964009D01*
X112501191Y-84964548D01*
X112510753Y-84960982D01*
X112535490Y-84966363D01*
X112560771Y-84967701D01*
X112570870Y-84974059D01*
X112579026Y-84975834D01*
X112607280Y-84996985D01*
X112717946Y-85107651D01*
X112751431Y-85168974D01*
X112754265Y-85195332D01*
X112754265Y-85314806D01*
X112734580Y-85381845D01*
X112717947Y-85402487D01*
X112453432Y-85667004D01*
X112453422Y-85667015D01*
X112389267Y-85745768D01*
X112389263Y-85745774D01*
X112311836Y-85899944D01*
X112311836Y-85899945D01*
X112273552Y-86061480D01*
X112272050Y-86067816D01*
X112272050Y-86240335D01*
X112311834Y-86408199D01*
X112330852Y-86446067D01*
X112389262Y-86562372D01*
X112404497Y-86581074D01*
X112453420Y-86641131D01*
X112453426Y-86641138D01*
X112453432Y-86641145D01*
X112858855Y-87046566D01*
X112858859Y-87046569D01*
X112858861Y-87046571D01*
X112858871Y-87046579D01*
X112937628Y-87110738D01*
X113039679Y-87161989D01*
X113091800Y-87188165D01*
X113259665Y-87227950D01*
X113259666Y-87227950D01*
X113432183Y-87227950D01*
X113432186Y-87227950D01*
X113600055Y-87188164D01*
X113754224Y-87110738D01*
X113832998Y-87046568D01*
X114256096Y-86623468D01*
X114320268Y-86544694D01*
X114397694Y-86390525D01*
X114437480Y-86222656D01*
X114437480Y-86061480D01*
X114440030Y-86052794D01*
X114438742Y-86043833D01*
X114449720Y-86019792D01*
X114457165Y-85994441D01*
X114464005Y-85988513D01*
X114467767Y-85980277D01*
X114490001Y-85965987D01*
X114509969Y-85948686D01*
X114520483Y-85946398D01*
X114526545Y-85942503D01*
X114561480Y-85937480D01*
X114685098Y-85937480D01*
X114752137Y-85957165D01*
X114791620Y-85998006D01*
X114873043Y-86134650D01*
X114875576Y-86139107D01*
X114952331Y-86280938D01*
X114954676Y-86285494D01*
X114990086Y-86357926D01*
X115018061Y-86415149D01*
X115025497Y-86430358D01*
X115027653Y-86435009D01*
X115092440Y-86582708D01*
X115094401Y-86587442D01*
X115109311Y-86625651D01*
X115153018Y-86737662D01*
X115154773Y-86742451D01*
X115207135Y-86894974D01*
X115208699Y-86899855D01*
X115254716Y-87054421D01*
X115256076Y-87059362D01*
X115295656Y-87215654D01*
X115296812Y-87220648D01*
X115329907Y-87378482D01*
X115330855Y-87383517D01*
X115357403Y-87542596D01*
X115358142Y-87547670D01*
X115378087Y-87707681D01*
X115378615Y-87712777D01*
X115387109Y-87815258D01*
X115373029Y-87883694D01*
X115324185Y-87933654D01*
X115263533Y-87949500D01*
X111424500Y-87949500D01*
X111357461Y-87929815D01*
X111311706Y-87877011D01*
X111300500Y-87825500D01*
X111300500Y-86989059D01*
X111300501Y-86989046D01*
X111300501Y-86820945D01*
X111300501Y-86820943D01*
X111259577Y-86668215D01*
X111216698Y-86593947D01*
X111180520Y-86531284D01*
X111068716Y-86419480D01*
X111064385Y-86415149D01*
X111064374Y-86415139D01*
X108087590Y-83438355D01*
X108087588Y-83438352D01*
X107968717Y-83319481D01*
X107968716Y-83319480D01*
X107872969Y-83264201D01*
X107831785Y-83240423D01*
X107816359Y-83236289D01*
X107805219Y-83230745D01*
X107788353Y-83215114D01*
X107768717Y-83203146D01*
X107763212Y-83191814D01*
X107753973Y-83183252D01*
X107748234Y-83160982D01*
X107738187Y-83140299D01*
X107739682Y-83127791D01*
X107736539Y-83115592D01*
X107743751Y-83093757D01*
X107746481Y-83070923D01*
X107754502Y-83061207D01*
X107758453Y-83049248D01*
X107776322Y-83034780D01*
X107790966Y-83017045D01*
X107802966Y-83013208D01*
X107812756Y-83005283D01*
X107835612Y-83002772D01*
X107857518Y-82995770D01*
X107860470Y-82995735D01*
X109756661Y-82995735D01*
X109823700Y-83015420D01*
G37*
%TD.AperFunction*%
%TA.AperFunction,NonConductor*%
G36*
X90912177Y-83015420D02*
G01*
X90932819Y-83032054D01*
X91310501Y-83409736D01*
X91343986Y-83471059D01*
X91339002Y-83540751D01*
X91297130Y-83596684D01*
X91254915Y-83617191D01*
X91239806Y-83621240D01*
X91168216Y-83640422D01*
X91128328Y-83663452D01*
X91128327Y-83663451D01*
X91031287Y-83719477D01*
X91031282Y-83719481D01*
X86837583Y-87913181D01*
X86776260Y-87946666D01*
X86749902Y-87949500D01*
X84771623Y-87949500D01*
X84704584Y-87929815D01*
X84658829Y-87877011D01*
X84647623Y-87825500D01*
X84647623Y-86309792D01*
X84667308Y-86242753D01*
X84683942Y-86222111D01*
X84815802Y-86090251D01*
X84979484Y-85926568D01*
X85040805Y-85893085D01*
X85102162Y-85897231D01*
X85102448Y-85896028D01*
X85109472Y-85897692D01*
X85109475Y-85897694D01*
X85277344Y-85937480D01*
X85277347Y-85937480D01*
X85438520Y-85937480D01*
X85505559Y-85957165D01*
X85551314Y-86009969D01*
X85562520Y-86061480D01*
X85562520Y-86222656D01*
X85602306Y-86390525D01*
X85672997Y-86531284D01*
X85679735Y-86544699D01*
X85743892Y-86623456D01*
X85743902Y-86623468D01*
X86167002Y-87046566D01*
X86167008Y-87046571D01*
X86167015Y-87046577D01*
X86245768Y-87110732D01*
X86245771Y-87110734D01*
X86245776Y-87110738D01*
X86399945Y-87188164D01*
X86567814Y-87227950D01*
X86567817Y-87227950D01*
X86740335Y-87227950D01*
X86908199Y-87188165D01*
X86908200Y-87188164D01*
X86908202Y-87188164D01*
X87062372Y-87110738D01*
X87141145Y-87046568D01*
X87546566Y-86641145D01*
X87610738Y-86562372D01*
X87688164Y-86408202D01*
X87693722Y-86384754D01*
X87727950Y-86240335D01*
X87727950Y-86067816D01*
X87727950Y-86067814D01*
X87688164Y-85899945D01*
X87610738Y-85745776D01*
X87610735Y-85745772D01*
X87610734Y-85745770D01*
X87546577Y-85667013D01*
X87546576Y-85667012D01*
X87546568Y-85667002D01*
X87401340Y-85521774D01*
X87282054Y-85402488D01*
X87267350Y-85375560D01*
X87250758Y-85349742D01*
X87249866Y-85343541D01*
X87248569Y-85341165D01*
X87245735Y-85314807D01*
X87245735Y-85195331D01*
X87265420Y-85128292D01*
X87282045Y-85107659D01*
X87392721Y-84996982D01*
X87454040Y-84963500D01*
X87508993Y-84964008D01*
X87567814Y-84977950D01*
X87740335Y-84977950D01*
X87908199Y-84938165D01*
X87908200Y-84938164D01*
X87908202Y-84938164D01*
X88062372Y-84860738D01*
X88141145Y-84796568D01*
X88546566Y-84391145D01*
X88610738Y-84312372D01*
X88688164Y-84158202D01*
X88695846Y-84125792D01*
X88727950Y-83990335D01*
X88727950Y-83817814D01*
X88723760Y-83800136D01*
X88714009Y-83758994D01*
X88717701Y-83689225D01*
X88746983Y-83642720D01*
X88954556Y-83435147D01*
X89015877Y-83401664D01*
X89085569Y-83406648D01*
X89097882Y-83412017D01*
X89149945Y-83438164D01*
X89317814Y-83477950D01*
X89317817Y-83477950D01*
X89490335Y-83477950D01*
X89658199Y-83438165D01*
X89658200Y-83438164D01*
X89658202Y-83438164D01*
X89812372Y-83360738D01*
X89891145Y-83296568D01*
X90155658Y-83032053D01*
X90216981Y-82998569D01*
X90243339Y-82995735D01*
X90845138Y-82995735D01*
X90912177Y-83015420D01*
G37*
%TD.AperFunction*%
M02*
