%TF.GenerationSoftware,KiCad,Pcbnew,9.0.6*%
%TF.CreationDate,2025-12-03T22:20:56+01:00*%
%TF.ProjectId,knit_yarn_SAO,6b6e6974-5f79-4617-926e-5f53414f2e6b,rev?*%
%TF.SameCoordinates,Original*%
%TF.FileFunction,Legend,Bot*%
%TF.FilePolarity,Positive*%
%FSLAX46Y46*%
G04 Gerber Fmt 4.6, Leading zero omitted, Abs format (unit mm)*
G04 Created by KiCad (PCBNEW 9.0.6) date 2025-12-03 22:20:56*
%MOMM*%
%LPD*%
G01*
G04 APERTURE LIST*
%ADD10C,0.200000*%
%ADD11C,0.100000*%
%ADD12C,0.120000*%
G04 APERTURE END LIST*
D10*
X103921428Y-79207275D02*
X103683333Y-80207275D01*
X103683333Y-80207275D02*
X103492857Y-79492989D01*
X103492857Y-79492989D02*
X103302381Y-80207275D01*
X103302381Y-80207275D02*
X103064286Y-79207275D01*
X102683333Y-80207275D02*
X102683333Y-79207275D01*
X102254762Y-80207275D02*
X102254762Y-79683465D01*
X102254762Y-79683465D02*
X102302381Y-79588227D01*
X102302381Y-79588227D02*
X102397619Y-79540608D01*
X102397619Y-79540608D02*
X102540476Y-79540608D01*
X102540476Y-79540608D02*
X102635714Y-79588227D01*
X102635714Y-79588227D02*
X102683333Y-79635846D01*
X101350000Y-80207275D02*
X101350000Y-79683465D01*
X101350000Y-79683465D02*
X101397619Y-79588227D01*
X101397619Y-79588227D02*
X101492857Y-79540608D01*
X101492857Y-79540608D02*
X101683333Y-79540608D01*
X101683333Y-79540608D02*
X101778571Y-79588227D01*
X101350000Y-80159656D02*
X101445238Y-80207275D01*
X101445238Y-80207275D02*
X101683333Y-80207275D01*
X101683333Y-80207275D02*
X101778571Y-80159656D01*
X101778571Y-80159656D02*
X101826190Y-80064417D01*
X101826190Y-80064417D02*
X101826190Y-79969179D01*
X101826190Y-79969179D02*
X101778571Y-79873941D01*
X101778571Y-79873941D02*
X101683333Y-79826322D01*
X101683333Y-79826322D02*
X101445238Y-79826322D01*
X101445238Y-79826322D02*
X101350000Y-79778703D01*
X101016666Y-79540608D02*
X100635714Y-79540608D01*
X100873809Y-79207275D02*
X100873809Y-80064417D01*
X100873809Y-80064417D02*
X100826190Y-80159656D01*
X100826190Y-80159656D02*
X100730952Y-80207275D01*
X100730952Y-80207275D02*
X100635714Y-80207275D01*
X99540475Y-80207275D02*
X99540475Y-79540608D01*
X99540475Y-79207275D02*
X99588094Y-79254894D01*
X99588094Y-79254894D02*
X99540475Y-79302513D01*
X99540475Y-79302513D02*
X99492856Y-79254894D01*
X99492856Y-79254894D02*
X99540475Y-79207275D01*
X99540475Y-79207275D02*
X99540475Y-79302513D01*
X99207142Y-79540608D02*
X98826190Y-79540608D01*
X99064285Y-80207275D02*
X99064285Y-79350132D01*
X99064285Y-79350132D02*
X99016666Y-79254894D01*
X99016666Y-79254894D02*
X98921428Y-79207275D01*
X98921428Y-79207275D02*
X98826190Y-79207275D01*
X97826189Y-79540608D02*
X97588094Y-80207275D01*
X97349999Y-79540608D02*
X97588094Y-80207275D01*
X97588094Y-80207275D02*
X97683332Y-80445370D01*
X97683332Y-80445370D02*
X97730951Y-80492989D01*
X97730951Y-80492989D02*
X97826189Y-80540608D01*
X96826189Y-80207275D02*
X96921427Y-80159656D01*
X96921427Y-80159656D02*
X96969046Y-80112036D01*
X96969046Y-80112036D02*
X97016665Y-80016798D01*
X97016665Y-80016798D02*
X97016665Y-79731084D01*
X97016665Y-79731084D02*
X96969046Y-79635846D01*
X96969046Y-79635846D02*
X96921427Y-79588227D01*
X96921427Y-79588227D02*
X96826189Y-79540608D01*
X96826189Y-79540608D02*
X96683332Y-79540608D01*
X96683332Y-79540608D02*
X96588094Y-79588227D01*
X96588094Y-79588227D02*
X96540475Y-79635846D01*
X96540475Y-79635846D02*
X96492856Y-79731084D01*
X96492856Y-79731084D02*
X96492856Y-80016798D01*
X96492856Y-80016798D02*
X96540475Y-80112036D01*
X96540475Y-80112036D02*
X96588094Y-80159656D01*
X96588094Y-80159656D02*
X96683332Y-80207275D01*
X96683332Y-80207275D02*
X96826189Y-80207275D01*
X95635713Y-79540608D02*
X95635713Y-80207275D01*
X96064284Y-79540608D02*
X96064284Y-80064417D01*
X96064284Y-80064417D02*
X96016665Y-80159656D01*
X96016665Y-80159656D02*
X95921427Y-80207275D01*
X95921427Y-80207275D02*
X95778570Y-80207275D01*
X95778570Y-80207275D02*
X95683332Y-80159656D01*
X95683332Y-80159656D02*
X95635713Y-80112036D01*
X102969048Y-81817219D02*
X102969048Y-80817219D01*
X102969048Y-81769600D02*
X103064286Y-81817219D01*
X103064286Y-81817219D02*
X103254762Y-81817219D01*
X103254762Y-81817219D02*
X103350000Y-81769600D01*
X103350000Y-81769600D02*
X103397619Y-81721980D01*
X103397619Y-81721980D02*
X103445238Y-81626742D01*
X103445238Y-81626742D02*
X103445238Y-81341028D01*
X103445238Y-81341028D02*
X103397619Y-81245790D01*
X103397619Y-81245790D02*
X103350000Y-81198171D01*
X103350000Y-81198171D02*
X103254762Y-81150552D01*
X103254762Y-81150552D02*
X103064286Y-81150552D01*
X103064286Y-81150552D02*
X102969048Y-81198171D01*
X102350000Y-81817219D02*
X102445238Y-81769600D01*
X102445238Y-81769600D02*
X102492857Y-81721980D01*
X102492857Y-81721980D02*
X102540476Y-81626742D01*
X102540476Y-81626742D02*
X102540476Y-81341028D01*
X102540476Y-81341028D02*
X102492857Y-81245790D01*
X102492857Y-81245790D02*
X102445238Y-81198171D01*
X102445238Y-81198171D02*
X102350000Y-81150552D01*
X102350000Y-81150552D02*
X102207143Y-81150552D01*
X102207143Y-81150552D02*
X102111905Y-81198171D01*
X102111905Y-81198171D02*
X102064286Y-81245790D01*
X102064286Y-81245790D02*
X102016667Y-81341028D01*
X102016667Y-81341028D02*
X102016667Y-81626742D01*
X102016667Y-81626742D02*
X102064286Y-81721980D01*
X102064286Y-81721980D02*
X102111905Y-81769600D01*
X102111905Y-81769600D02*
X102207143Y-81817219D01*
X102207143Y-81817219D02*
X102350000Y-81817219D01*
X101588095Y-81150552D02*
X101588095Y-81817219D01*
X101588095Y-81245790D02*
X101540476Y-81198171D01*
X101540476Y-81198171D02*
X101445238Y-81150552D01*
X101445238Y-81150552D02*
X101302381Y-81150552D01*
X101302381Y-81150552D02*
X101207143Y-81198171D01*
X101207143Y-81198171D02*
X101159524Y-81293409D01*
X101159524Y-81293409D02*
X101159524Y-81817219D01*
X100635714Y-80817219D02*
X100730952Y-81007695D01*
X100350000Y-81150552D02*
X99969048Y-81150552D01*
X100207143Y-80817219D02*
X100207143Y-81674361D01*
X100207143Y-81674361D02*
X100159524Y-81769600D01*
X100159524Y-81769600D02*
X100064286Y-81817219D01*
X100064286Y-81817219D02*
X99969048Y-81817219D01*
X98921428Y-81769600D02*
X98826190Y-81817219D01*
X98826190Y-81817219D02*
X98635714Y-81817219D01*
X98635714Y-81817219D02*
X98540476Y-81769600D01*
X98540476Y-81769600D02*
X98492857Y-81674361D01*
X98492857Y-81674361D02*
X98492857Y-81626742D01*
X98492857Y-81626742D02*
X98540476Y-81531504D01*
X98540476Y-81531504D02*
X98635714Y-81483885D01*
X98635714Y-81483885D02*
X98778571Y-81483885D01*
X98778571Y-81483885D02*
X98873809Y-81436266D01*
X98873809Y-81436266D02*
X98921428Y-81341028D01*
X98921428Y-81341028D02*
X98921428Y-81293409D01*
X98921428Y-81293409D02*
X98873809Y-81198171D01*
X98873809Y-81198171D02*
X98778571Y-81150552D01*
X98778571Y-81150552D02*
X98635714Y-81150552D01*
X98635714Y-81150552D02*
X98540476Y-81198171D01*
X98207142Y-81150552D02*
X97826190Y-81150552D01*
X98064285Y-80817219D02*
X98064285Y-81674361D01*
X98064285Y-81674361D02*
X98016666Y-81769600D01*
X98016666Y-81769600D02*
X97921428Y-81817219D01*
X97921428Y-81817219D02*
X97826190Y-81817219D01*
X97349999Y-81817219D02*
X97445237Y-81769600D01*
X97445237Y-81769600D02*
X97492856Y-81721980D01*
X97492856Y-81721980D02*
X97540475Y-81626742D01*
X97540475Y-81626742D02*
X97540475Y-81341028D01*
X97540475Y-81341028D02*
X97492856Y-81245790D01*
X97492856Y-81245790D02*
X97445237Y-81198171D01*
X97445237Y-81198171D02*
X97349999Y-81150552D01*
X97349999Y-81150552D02*
X97207142Y-81150552D01*
X97207142Y-81150552D02*
X97111904Y-81198171D01*
X97111904Y-81198171D02*
X97064285Y-81245790D01*
X97064285Y-81245790D02*
X97016666Y-81341028D01*
X97016666Y-81341028D02*
X97016666Y-81626742D01*
X97016666Y-81626742D02*
X97064285Y-81721980D01*
X97064285Y-81721980D02*
X97111904Y-81769600D01*
X97111904Y-81769600D02*
X97207142Y-81817219D01*
X97207142Y-81817219D02*
X97349999Y-81817219D01*
X96588094Y-81150552D02*
X96588094Y-82150552D01*
X96588094Y-81198171D02*
X96492856Y-81150552D01*
X96492856Y-81150552D02*
X96302380Y-81150552D01*
X96302380Y-81150552D02*
X96207142Y-81198171D01*
X96207142Y-81198171D02*
X96159523Y-81245790D01*
X96159523Y-81245790D02*
X96111904Y-81341028D01*
X96111904Y-81341028D02*
X96111904Y-81626742D01*
X96111904Y-81626742D02*
X96159523Y-81721980D01*
X96159523Y-81721980D02*
X96207142Y-81769600D01*
X96207142Y-81769600D02*
X96302380Y-81817219D01*
X96302380Y-81817219D02*
X96492856Y-81817219D01*
X96492856Y-81817219D02*
X96588094Y-81769600D01*
X95540475Y-81721980D02*
X95492856Y-81769600D01*
X95492856Y-81769600D02*
X95540475Y-81817219D01*
X95540475Y-81817219D02*
X95588094Y-81769600D01*
X95588094Y-81769600D02*
X95540475Y-81721980D01*
X95540475Y-81721980D02*
X95540475Y-81817219D01*
X95730951Y-80864838D02*
X95635713Y-80817219D01*
X95635713Y-80817219D02*
X95397618Y-80817219D01*
X95397618Y-80817219D02*
X95302380Y-80864838D01*
X95302380Y-80864838D02*
X95254761Y-80960076D01*
X95254761Y-80960076D02*
X95254761Y-81055314D01*
X95254761Y-81055314D02*
X95302380Y-81150552D01*
X95302380Y-81150552D02*
X95349999Y-81198171D01*
X95349999Y-81198171D02*
X95445237Y-81245790D01*
X95445237Y-81245790D02*
X95492856Y-81293409D01*
X95492856Y-81293409D02*
X95540475Y-81388647D01*
X95540475Y-81388647D02*
X95540475Y-81436266D01*
D11*
X104243734Y-74317657D02*
X104196115Y-74270038D01*
X104196115Y-74270038D02*
X104100877Y-74222419D01*
X104100877Y-74222419D02*
X103862782Y-74222419D01*
X103862782Y-74222419D02*
X103767544Y-74270038D01*
X103767544Y-74270038D02*
X103719925Y-74317657D01*
X103719925Y-74317657D02*
X103672306Y-74412895D01*
X103672306Y-74412895D02*
X103672306Y-74508133D01*
X103672306Y-74508133D02*
X103719925Y-74650990D01*
X103719925Y-74650990D02*
X104291353Y-75222419D01*
X104291353Y-75222419D02*
X103672306Y-75222419D01*
X103053258Y-74222419D02*
X102958020Y-74222419D01*
X102958020Y-74222419D02*
X102862782Y-74270038D01*
X102862782Y-74270038D02*
X102815163Y-74317657D01*
X102815163Y-74317657D02*
X102767544Y-74412895D01*
X102767544Y-74412895D02*
X102719925Y-74603371D01*
X102719925Y-74603371D02*
X102719925Y-74841466D01*
X102719925Y-74841466D02*
X102767544Y-75031942D01*
X102767544Y-75031942D02*
X102815163Y-75127180D01*
X102815163Y-75127180D02*
X102862782Y-75174800D01*
X102862782Y-75174800D02*
X102958020Y-75222419D01*
X102958020Y-75222419D02*
X103053258Y-75222419D01*
X103053258Y-75222419D02*
X103148496Y-75174800D01*
X103148496Y-75174800D02*
X103196115Y-75127180D01*
X103196115Y-75127180D02*
X103243734Y-75031942D01*
X103243734Y-75031942D02*
X103291353Y-74841466D01*
X103291353Y-74841466D02*
X103291353Y-74603371D01*
X103291353Y-74603371D02*
X103243734Y-74412895D01*
X103243734Y-74412895D02*
X103196115Y-74317657D01*
X103196115Y-74317657D02*
X103148496Y-74270038D01*
X103148496Y-74270038D02*
X103053258Y-74222419D01*
X102338972Y-74317657D02*
X102291353Y-74270038D01*
X102291353Y-74270038D02*
X102196115Y-74222419D01*
X102196115Y-74222419D02*
X101958020Y-74222419D01*
X101958020Y-74222419D02*
X101862782Y-74270038D01*
X101862782Y-74270038D02*
X101815163Y-74317657D01*
X101815163Y-74317657D02*
X101767544Y-74412895D01*
X101767544Y-74412895D02*
X101767544Y-74508133D01*
X101767544Y-74508133D02*
X101815163Y-74650990D01*
X101815163Y-74650990D02*
X102386591Y-75222419D01*
X102386591Y-75222419D02*
X101767544Y-75222419D01*
X100862782Y-74222419D02*
X101338972Y-74222419D01*
X101338972Y-74222419D02*
X101386591Y-74698609D01*
X101386591Y-74698609D02*
X101338972Y-74650990D01*
X101338972Y-74650990D02*
X101243734Y-74603371D01*
X101243734Y-74603371D02*
X101005639Y-74603371D01*
X101005639Y-74603371D02*
X100910401Y-74650990D01*
X100910401Y-74650990D02*
X100862782Y-74698609D01*
X100862782Y-74698609D02*
X100815163Y-74793847D01*
X100815163Y-74793847D02*
X100815163Y-75031942D01*
X100815163Y-75031942D02*
X100862782Y-75127180D01*
X100862782Y-75127180D02*
X100910401Y-75174800D01*
X100910401Y-75174800D02*
X101005639Y-75222419D01*
X101005639Y-75222419D02*
X101243734Y-75222419D01*
X101243734Y-75222419D02*
X101338972Y-75174800D01*
X101338972Y-75174800D02*
X101386591Y-75127180D01*
X99672306Y-74174800D02*
X100529448Y-75460514D01*
X98815163Y-75222419D02*
X99386591Y-75222419D01*
X99100877Y-75222419D02*
X99100877Y-74222419D01*
X99100877Y-74222419D02*
X99196115Y-74365276D01*
X99196115Y-74365276D02*
X99291353Y-74460514D01*
X99291353Y-74460514D02*
X99386591Y-74508133D01*
X98434210Y-74317657D02*
X98386591Y-74270038D01*
X98386591Y-74270038D02*
X98291353Y-74222419D01*
X98291353Y-74222419D02*
X98053258Y-74222419D01*
X98053258Y-74222419D02*
X97958020Y-74270038D01*
X97958020Y-74270038D02*
X97910401Y-74317657D01*
X97910401Y-74317657D02*
X97862782Y-74412895D01*
X97862782Y-74412895D02*
X97862782Y-74508133D01*
X97862782Y-74508133D02*
X97910401Y-74650990D01*
X97910401Y-74650990D02*
X98481829Y-75222419D01*
X98481829Y-75222419D02*
X97862782Y-75222419D01*
X96719925Y-74174800D02*
X97577067Y-75460514D01*
X96196115Y-74222419D02*
X96100877Y-74222419D01*
X96100877Y-74222419D02*
X96005639Y-74270038D01*
X96005639Y-74270038D02*
X95958020Y-74317657D01*
X95958020Y-74317657D02*
X95910401Y-74412895D01*
X95910401Y-74412895D02*
X95862782Y-74603371D01*
X95862782Y-74603371D02*
X95862782Y-74841466D01*
X95862782Y-74841466D02*
X95910401Y-75031942D01*
X95910401Y-75031942D02*
X95958020Y-75127180D01*
X95958020Y-75127180D02*
X96005639Y-75174800D01*
X96005639Y-75174800D02*
X96100877Y-75222419D01*
X96100877Y-75222419D02*
X96196115Y-75222419D01*
X96196115Y-75222419D02*
X96291353Y-75174800D01*
X96291353Y-75174800D02*
X96338972Y-75127180D01*
X96338972Y-75127180D02*
X96386591Y-75031942D01*
X96386591Y-75031942D02*
X96434210Y-74841466D01*
X96434210Y-74841466D02*
X96434210Y-74603371D01*
X96434210Y-74603371D02*
X96386591Y-74412895D01*
X96386591Y-74412895D02*
X96338972Y-74317657D01*
X96338972Y-74317657D02*
X96291353Y-74270038D01*
X96291353Y-74270038D02*
X96196115Y-74222419D01*
X95529448Y-74222419D02*
X94910401Y-74222419D01*
X94910401Y-74222419D02*
X95243734Y-74603371D01*
X95243734Y-74603371D02*
X95100877Y-74603371D01*
X95100877Y-74603371D02*
X95005639Y-74650990D01*
X95005639Y-74650990D02*
X94958020Y-74698609D01*
X94958020Y-74698609D02*
X94910401Y-74793847D01*
X94910401Y-74793847D02*
X94910401Y-75031942D01*
X94910401Y-75031942D02*
X94958020Y-75127180D01*
X94958020Y-75127180D02*
X95005639Y-75174800D01*
X95005639Y-75174800D02*
X95100877Y-75222419D01*
X95100877Y-75222419D02*
X95386591Y-75222419D01*
X95386591Y-75222419D02*
X95481829Y-75174800D01*
X95481829Y-75174800D02*
X95529448Y-75127180D01*
D12*
%TO.C,J1*%
X92570000Y-92615000D02*
X92570000Y-101785000D01*
X92570000Y-101785000D02*
X96750000Y-101785000D01*
X96750000Y-92615000D02*
X92570000Y-92615000D01*
X96750000Y-92615000D02*
X96750000Y-91115000D01*
X103850000Y-92615000D02*
X108030000Y-92615000D01*
X108030000Y-92615000D02*
X108030000Y-101785000D01*
X108030000Y-101785000D02*
X103850000Y-101785000D01*
%TO.C,R4*%
X92510654Y-77749580D02*
X92150420Y-77389346D01*
X93249580Y-77010654D02*
X92889346Y-76650420D01*
%TO.C,D5*%
X109035000Y-80985000D02*
X106575000Y-80985000D01*
X109035000Y-79515000D02*
X109035000Y-80985000D01*
X106575000Y-79515000D02*
X109035000Y-79515000D01*
%TO.C,R6*%
X91904724Y-82822500D02*
X91395276Y-82822500D01*
X91904724Y-81777500D02*
X91395276Y-81777500D01*
%TO.C,D4*%
X88085409Y-75454038D02*
X86345926Y-77193521D01*
X86345926Y-77193521D02*
X85306479Y-76154074D01*
X85306479Y-76154074D02*
X87045962Y-74414591D01*
%TO.C,R3*%
X105550420Y-76610654D02*
X105910654Y-76250420D01*
X106289346Y-77349580D02*
X106649580Y-76989346D01*
%TO.C,D1*%
X112579038Y-101914591D02*
X114318521Y-103654074D01*
X113279074Y-104693521D02*
X111539591Y-102954038D01*
X114318521Y-103654074D02*
X113279074Y-104693521D01*
%TO.C,R2*%
X90972500Y-99745276D02*
X90972500Y-100254724D01*
X89927500Y-99745276D02*
X89927500Y-100254724D01*
%TO.C,R5*%
X107095276Y-81427500D02*
X107604724Y-81427500D01*
X107095276Y-82472500D02*
X107604724Y-82472500D01*
%TO.C,D3*%
X113574803Y-74785356D02*
X112535356Y-75824803D01*
X112535356Y-75824803D02*
X110795873Y-74085320D01*
X111835320Y-73045873D02*
X113574803Y-74785356D01*
%TO.C,D2*%
X86556479Y-104654074D02*
X88295962Y-102914591D01*
X87595926Y-105693521D02*
X86556479Y-104654074D01*
X89335409Y-103954038D02*
X87595926Y-105693521D01*
%TO.C,D6*%
X92425000Y-81235000D02*
X89965000Y-81235000D01*
X89965000Y-81235000D02*
X89965000Y-79765000D01*
X89965000Y-79765000D02*
X92425000Y-79765000D01*
%TO.C,R1*%
X110522500Y-99745276D02*
X110522500Y-100254723D01*
X109477500Y-99745277D02*
X109477500Y-100254724D01*
%TD*%
M02*
