%TF.GenerationSoftware,KiCad,Pcbnew,9.0.6*%
%TF.CreationDate,2025-12-03T22:20:56+01:00*%
%TF.ProjectId,knit_yarn_SAO,6b6e6974-5f79-4617-926e-5f53414f2e6b,rev?*%
%TF.SameCoordinates,Original*%
%TF.FileFunction,Soldermask,Bot*%
%TF.FilePolarity,Negative*%
%FSLAX46Y46*%
G04 Gerber Fmt 4.6, Leading zero omitted, Abs format (unit mm)*
G04 Created by KiCad (PCBNEW 9.0.6) date 2025-12-03 22:20:56*
%MOMM*%
%LPD*%
G01*
G04 APERTURE LIST*
G04 Aperture macros list*
%AMRoundRect*
0 Rectangle with rounded corners*
0 $1 Rounding radius*
0 $2 $3 $4 $5 $6 $7 $8 $9 X,Y pos of 4 corners*
0 Add a 4 corners polygon primitive as box body*
4,1,4,$2,$3,$4,$5,$6,$7,$8,$9,$2,$3,0*
0 Add four circle primitives for the rounded corners*
1,1,$1+$1,$2,$3*
1,1,$1+$1,$4,$5*
1,1,$1+$1,$6,$7*
1,1,$1+$1,$8,$9*
0 Add four rect primitives between the rounded corners*
20,1,$1+$1,$2,$3,$4,$5,0*
20,1,$1+$1,$4,$5,$6,$7,0*
20,1,$1+$1,$6,$7,$8,$9,0*
20,1,$1+$1,$8,$9,$2,$3,0*%
G04 Aperture macros list end*
%ADD10C,0.000000*%
%ADD11C,0.100000*%
%ADD12C,0.250000*%
%ADD13RoundRect,0.250000X-0.260000X2.250000X-0.260000X-2.250000X0.260000X-2.250000X0.260000X2.250000X0*%
%ADD14RoundRect,0.237500X0.344715X-0.008839X-0.008839X0.344715X-0.344715X0.008839X0.008839X-0.344715X0*%
%ADD15RoundRect,0.237500X0.287500X0.237500X-0.287500X0.237500X-0.287500X-0.237500X0.287500X-0.237500X0*%
%ADD16RoundRect,0.237500X0.250000X0.237500X-0.250000X0.237500X-0.250000X-0.237500X0.250000X-0.237500X0*%
%ADD17RoundRect,0.237500X-0.035355X-0.371231X0.371231X0.035355X0.035355X0.371231X-0.371231X-0.035355X0*%
%ADD18RoundRect,0.237500X-0.008839X-0.344715X0.344715X0.008839X0.008839X0.344715X-0.344715X-0.008839X0*%
%ADD19RoundRect,0.237500X0.371231X-0.035355X-0.035355X0.371231X-0.371231X0.035355X0.035355X-0.371231X0*%
%ADD20RoundRect,0.237500X-0.237500X0.250000X-0.237500X-0.250000X0.237500X-0.250000X0.237500X0.250000X0*%
%ADD21RoundRect,0.237500X-0.250000X-0.237500X0.250000X-0.237500X0.250000X0.237500X-0.250000X0.237500X0*%
%ADD22RoundRect,0.237500X-0.287500X-0.237500X0.287500X-0.237500X0.287500X0.237500X-0.287500X0.237500X0*%
G04 APERTURE END LIST*
D10*
G36*
X109878735Y-83930833D02*
G01*
X109886312Y-83931411D01*
X109893780Y-83932361D01*
X109901129Y-83933676D01*
X109908350Y-83935345D01*
X109915433Y-83937359D01*
X109922369Y-83939709D01*
X109929149Y-83942385D01*
X109935763Y-83945378D01*
X109942201Y-83948679D01*
X109948454Y-83952277D01*
X109954513Y-83956164D01*
X109960369Y-83960330D01*
X109966011Y-83964765D01*
X109971431Y-83969461D01*
X109976619Y-83974407D01*
X109981566Y-83979595D01*
X109986262Y-83985015D01*
X109990697Y-83990658D01*
X109994863Y-83996513D01*
X109998750Y-84002572D01*
X110002348Y-84008826D01*
X110005648Y-84015264D01*
X110008641Y-84021878D01*
X110011317Y-84028657D01*
X110013667Y-84035594D01*
X110015682Y-84042677D01*
X110017351Y-84049898D01*
X110018665Y-84057247D01*
X110019616Y-84064715D01*
X110020193Y-84072292D01*
X110020388Y-84079970D01*
X110020193Y-84087647D01*
X110019616Y-84095224D01*
X110018665Y-84102692D01*
X110017351Y-84110041D01*
X110015682Y-84117262D01*
X110013667Y-84124346D01*
X110011317Y-84131282D01*
X110008641Y-84138061D01*
X110005648Y-84144675D01*
X110002348Y-84151113D01*
X109998750Y-84157367D01*
X109994863Y-84163426D01*
X109990697Y-84169281D01*
X109986262Y-84174924D01*
X109981566Y-84180344D01*
X109976619Y-84185532D01*
X109971431Y-84190478D01*
X109966011Y-84195174D01*
X109960369Y-84199610D01*
X109954513Y-84203775D01*
X109948454Y-84207662D01*
X109942201Y-84211260D01*
X109935763Y-84214561D01*
X109929149Y-84217554D01*
X109922369Y-84220230D01*
X109915433Y-84222580D01*
X109908350Y-84224594D01*
X109901129Y-84226263D01*
X109893780Y-84227578D01*
X109886312Y-84228529D01*
X109878735Y-84229106D01*
X109871057Y-84229300D01*
X109863385Y-84229106D01*
X109855812Y-84228529D01*
X109848348Y-84227578D01*
X109841003Y-84226263D01*
X109833785Y-84224594D01*
X109826706Y-84222580D01*
X109819773Y-84220230D01*
X109812996Y-84217554D01*
X109806385Y-84214561D01*
X109799949Y-84211260D01*
X109793698Y-84207662D01*
X109787641Y-84203775D01*
X109781787Y-84199610D01*
X109776146Y-84195174D01*
X109770728Y-84190478D01*
X109765541Y-84185532D01*
X109760596Y-84180344D01*
X109755901Y-84174924D01*
X109751467Y-84169281D01*
X109747301Y-84163426D01*
X109743415Y-84157367D01*
X109739818Y-84151113D01*
X109736518Y-84144675D01*
X109733525Y-84138061D01*
X109730849Y-84131282D01*
X109728500Y-84124346D01*
X109726485Y-84117262D01*
X109724816Y-84110041D01*
X109723502Y-84102692D01*
X109722551Y-84095224D01*
X109721974Y-84087647D01*
X109721779Y-84079970D01*
X109721974Y-84072292D01*
X109722551Y-84064715D01*
X109723502Y-84057247D01*
X109724816Y-84049898D01*
X109726485Y-84042677D01*
X109728500Y-84035594D01*
X109730849Y-84028657D01*
X109733525Y-84021878D01*
X109736518Y-84015264D01*
X109739818Y-84008826D01*
X109743415Y-84002572D01*
X109747301Y-83996513D01*
X109751467Y-83990658D01*
X109755901Y-83985015D01*
X109760596Y-83979595D01*
X109765541Y-83974407D01*
X109770728Y-83969461D01*
X109776146Y-83964765D01*
X109781787Y-83960330D01*
X109787641Y-83956164D01*
X109793698Y-83952277D01*
X109799949Y-83948679D01*
X109806385Y-83945378D01*
X109812996Y-83942385D01*
X109819773Y-83939709D01*
X109826706Y-83937359D01*
X109833785Y-83935345D01*
X109841003Y-83933676D01*
X109848348Y-83932361D01*
X109855812Y-83931411D01*
X109863385Y-83930833D01*
X109871057Y-83930639D01*
X109878735Y-83930833D01*
G37*
G36*
X112382230Y-86332865D02*
G01*
X112405080Y-86334608D01*
X112427602Y-86337478D01*
X112449766Y-86341446D01*
X112471544Y-86346485D01*
X112492908Y-86352564D01*
X112513829Y-86359657D01*
X112534278Y-86367734D01*
X112554228Y-86376767D01*
X112573649Y-86386728D01*
X112592513Y-86397587D01*
X112610792Y-86409316D01*
X112628457Y-86421887D01*
X112645480Y-86435271D01*
X112661832Y-86449439D01*
X112677485Y-86464364D01*
X112692409Y-86480017D01*
X112706577Y-86496368D01*
X112719961Y-86513390D01*
X112732531Y-86531054D01*
X112744259Y-86549331D01*
X112755117Y-86568193D01*
X112765076Y-86587611D01*
X112774108Y-86607558D01*
X112782184Y-86628003D01*
X112789275Y-86648919D01*
X112795354Y-86670278D01*
X112800391Y-86692050D01*
X112804359Y-86714207D01*
X112807228Y-86736721D01*
X112808971Y-86759563D01*
X112809558Y-86782704D01*
X112808971Y-86805855D01*
X112807228Y-86828706D01*
X112804359Y-86851227D01*
X112800391Y-86873391D01*
X112795354Y-86895170D01*
X112789275Y-86916533D01*
X112782184Y-86937454D01*
X112774108Y-86957904D01*
X112765076Y-86977853D01*
X112755117Y-86997275D01*
X112744259Y-87016139D01*
X112732531Y-87034418D01*
X112719961Y-87052083D01*
X112706577Y-87069106D01*
X112692409Y-87085458D01*
X112677485Y-87101110D01*
X112661832Y-87116035D01*
X112645480Y-87130203D01*
X112628457Y-87143587D01*
X112610792Y-87156157D01*
X112592513Y-87167885D01*
X112573649Y-87178743D01*
X112554228Y-87188702D01*
X112534278Y-87197734D01*
X112513829Y-87205810D01*
X112492908Y-87212901D01*
X112471544Y-87218980D01*
X112449766Y-87224017D01*
X112427602Y-87227985D01*
X112405080Y-87230854D01*
X112382230Y-87232597D01*
X112359079Y-87233184D01*
X112335928Y-87232597D01*
X112313077Y-87230854D01*
X112290555Y-87227985D01*
X112268389Y-87224017D01*
X112246610Y-87218980D01*
X112225245Y-87212901D01*
X112204322Y-87205810D01*
X112183871Y-87197734D01*
X112163919Y-87188702D01*
X112144496Y-87178743D01*
X112125629Y-87167885D01*
X112107348Y-87156157D01*
X112089681Y-87143587D01*
X112072655Y-87130203D01*
X112056301Y-87116035D01*
X112040646Y-87101110D01*
X112025719Y-87085458D01*
X112011548Y-87069106D01*
X111998162Y-87052083D01*
X111985590Y-87034418D01*
X111973859Y-87016139D01*
X111962999Y-86997275D01*
X111953038Y-86977853D01*
X111944004Y-86957904D01*
X111935927Y-86937454D01*
X111928834Y-86916533D01*
X111922753Y-86895170D01*
X111917715Y-86873391D01*
X111913746Y-86851227D01*
X111910876Y-86828706D01*
X111909133Y-86805855D01*
X111908546Y-86782704D01*
X111909133Y-86759563D01*
X111910876Y-86736721D01*
X111913746Y-86714207D01*
X111917715Y-86692050D01*
X111922753Y-86670278D01*
X111928834Y-86648919D01*
X111935927Y-86628003D01*
X111944004Y-86607558D01*
X111953038Y-86587611D01*
X111962999Y-86568193D01*
X111973859Y-86549331D01*
X111985590Y-86531054D01*
X111998162Y-86513390D01*
X112011548Y-86496368D01*
X112025719Y-86480017D01*
X112040646Y-86464364D01*
X112056301Y-86449439D01*
X112072655Y-86435271D01*
X112089681Y-86421887D01*
X112107348Y-86409316D01*
X112125629Y-86397587D01*
X112144496Y-86386728D01*
X112163919Y-86376767D01*
X112183871Y-86367734D01*
X112204322Y-86359657D01*
X112225245Y-86352564D01*
X112246610Y-86346485D01*
X112268389Y-86341446D01*
X112290555Y-86337478D01*
X112313077Y-86334608D01*
X112335928Y-86332865D01*
X112359079Y-86332278D01*
X112382230Y-86332865D01*
G37*
G36*
X107366123Y-87360633D02*
G01*
X107388973Y-87362376D01*
X107411495Y-87365245D01*
X107433659Y-87369213D01*
X107455437Y-87374250D01*
X107476801Y-87380329D01*
X107497722Y-87387420D01*
X107518172Y-87395496D01*
X107538121Y-87404528D01*
X107557543Y-87414487D01*
X107576407Y-87425345D01*
X107594686Y-87437073D01*
X107612351Y-87449643D01*
X107629374Y-87463027D01*
X107645726Y-87477195D01*
X107661378Y-87492119D01*
X107676303Y-87507772D01*
X107690471Y-87524124D01*
X107703855Y-87541147D01*
X107716425Y-87558812D01*
X107728153Y-87577091D01*
X107739011Y-87595955D01*
X107748970Y-87615376D01*
X107758002Y-87635326D01*
X107766077Y-87655776D01*
X107773169Y-87676696D01*
X107779248Y-87698060D01*
X107784285Y-87719839D01*
X107788253Y-87742003D01*
X107791122Y-87764524D01*
X107792864Y-87787375D01*
X107793452Y-87810526D01*
X107792864Y-87833677D01*
X107791122Y-87856527D01*
X107788253Y-87879049D01*
X107784285Y-87901213D01*
X107779248Y-87922991D01*
X107773169Y-87944355D01*
X107766077Y-87965276D01*
X107758002Y-87985725D01*
X107748970Y-88005675D01*
X107739011Y-88025096D01*
X107728153Y-88043960D01*
X107716425Y-88062239D01*
X107703855Y-88079905D01*
X107690471Y-88096927D01*
X107676303Y-88113279D01*
X107661378Y-88128932D01*
X107645726Y-88143856D01*
X107629374Y-88158025D01*
X107612351Y-88171408D01*
X107594686Y-88183978D01*
X107576407Y-88195706D01*
X107557543Y-88206564D01*
X107538121Y-88216523D01*
X107518172Y-88225555D01*
X107497722Y-88233631D01*
X107476801Y-88240722D01*
X107455437Y-88246801D01*
X107433659Y-88251838D01*
X107411495Y-88255806D01*
X107388973Y-88258675D01*
X107366123Y-88260418D01*
X107342972Y-88261005D01*
X107319826Y-88260418D01*
X107296980Y-88258675D01*
X107274463Y-88255806D01*
X107252302Y-88251838D01*
X107230528Y-88246801D01*
X107209167Y-88240722D01*
X107188250Y-88233631D01*
X107167803Y-88225555D01*
X107147856Y-88216523D01*
X107128437Y-88206564D01*
X107109575Y-88195706D01*
X107091298Y-88183978D01*
X107073635Y-88171408D01*
X107056614Y-88158025D01*
X107040263Y-88143856D01*
X107024612Y-88128932D01*
X107009689Y-88113279D01*
X106995521Y-88096927D01*
X106982139Y-88079905D01*
X106969570Y-88062239D01*
X106957842Y-88043960D01*
X106946985Y-88025096D01*
X106937026Y-88005675D01*
X106927995Y-87985725D01*
X106919919Y-87965276D01*
X106912828Y-87944355D01*
X106906749Y-87922991D01*
X106901712Y-87901213D01*
X106897744Y-87879049D01*
X106894875Y-87856527D01*
X106893133Y-87833677D01*
X106892545Y-87810526D01*
X106893133Y-87787375D01*
X106894875Y-87764524D01*
X106897744Y-87742003D01*
X106901712Y-87719839D01*
X106906749Y-87698060D01*
X106912828Y-87676696D01*
X106919919Y-87655776D01*
X106927995Y-87635326D01*
X106937026Y-87615376D01*
X106946985Y-87595955D01*
X106957842Y-87577091D01*
X106969570Y-87558812D01*
X106982139Y-87541147D01*
X106995521Y-87524124D01*
X107009689Y-87507772D01*
X107024612Y-87492119D01*
X107040263Y-87477195D01*
X107056614Y-87463027D01*
X107073635Y-87449643D01*
X107091298Y-87437073D01*
X107109575Y-87425345D01*
X107128437Y-87414487D01*
X107147856Y-87404528D01*
X107167803Y-87395496D01*
X107188250Y-87387420D01*
X107209167Y-87380329D01*
X107230528Y-87374250D01*
X107252302Y-87369213D01*
X107274463Y-87365245D01*
X107296980Y-87362376D01*
X107319826Y-87360633D01*
X107342972Y-87360046D01*
X107366123Y-87360633D01*
G37*
G36*
X110070487Y-83692533D02*
G01*
X110255282Y-83706585D01*
X110437391Y-83729726D01*
X110616585Y-83761726D01*
X110792635Y-83802358D01*
X110965312Y-83851392D01*
X111134389Y-83908601D01*
X111299635Y-83973755D01*
X111460823Y-84046625D01*
X111617723Y-84126984D01*
X111770108Y-84214603D01*
X111917748Y-84309252D01*
X112060416Y-84410704D01*
X112197881Y-84518729D01*
X112329916Y-84633100D01*
X112456292Y-84753587D01*
X112576781Y-84879962D01*
X112691153Y-85011996D01*
X112799180Y-85149460D01*
X112900633Y-85292127D01*
X112995284Y-85439767D01*
X113082904Y-85592152D01*
X113163265Y-85749053D01*
X113236137Y-85910242D01*
X113301292Y-86075489D01*
X113358502Y-86244567D01*
X113407538Y-86417246D01*
X113448170Y-86593299D01*
X113480172Y-86772495D01*
X113503313Y-86954608D01*
X113517365Y-87139408D01*
X113522100Y-87326666D01*
X113518977Y-87478808D01*
X113509689Y-87629358D01*
X113494358Y-87778195D01*
X113473107Y-87925197D01*
X113446058Y-88070242D01*
X113413333Y-88213207D01*
X113375054Y-88353970D01*
X113331344Y-88492410D01*
X113282324Y-88628403D01*
X113228117Y-88761827D01*
X113168846Y-88892562D01*
X113104632Y-89020484D01*
X113035597Y-89145470D01*
X112961864Y-89267400D01*
X112883556Y-89386151D01*
X112800793Y-89501600D01*
X112713699Y-89613626D01*
X112622396Y-89722106D01*
X112527005Y-89826919D01*
X112427650Y-89927941D01*
X112324452Y-90025051D01*
X112217534Y-90118127D01*
X112107017Y-90207046D01*
X111993025Y-90291686D01*
X111875679Y-90371926D01*
X111755101Y-90447642D01*
X111631414Y-90518714D01*
X111504740Y-90585017D01*
X111375201Y-90646432D01*
X111242919Y-90702834D01*
X111108017Y-90754103D01*
X110970617Y-90800115D01*
X110970617Y-90513625D01*
X110212903Y-90513625D01*
X110212903Y-90775139D01*
X109528850Y-90775139D01*
X109528850Y-90513625D01*
X108771136Y-90513625D01*
X108771136Y-90791808D01*
X108501230Y-90693246D01*
X108241767Y-90574473D01*
X107993708Y-90436448D01*
X107758014Y-90280130D01*
X107751950Y-90275394D01*
X108638528Y-90275394D01*
X108720073Y-90275394D01*
X109528850Y-90275394D01*
X109529295Y-90257792D01*
X109530616Y-90240421D01*
X109532791Y-90223304D01*
X109535799Y-90206460D01*
X109539619Y-90189913D01*
X109544228Y-90173682D01*
X109549605Y-90157790D01*
X109555729Y-90142259D01*
X109562579Y-90127109D01*
X109570132Y-90112363D01*
X109578368Y-90098041D01*
X109587264Y-90084165D01*
X109596800Y-90070756D01*
X109606954Y-90057837D01*
X109617703Y-90045428D01*
X109629028Y-90033552D01*
X109640906Y-90022228D01*
X109653316Y-90011480D01*
X109666236Y-90001328D01*
X109679645Y-89991794D01*
X109693521Y-89982899D01*
X109707843Y-89974665D01*
X109722589Y-89967113D01*
X109737738Y-89960265D01*
X109753268Y-89954143D01*
X109769158Y-89948767D01*
X109785387Y-89944159D01*
X109801932Y-89940341D01*
X109818772Y-89937334D01*
X109835887Y-89935159D01*
X109853253Y-89933839D01*
X109870851Y-89933394D01*
X109888453Y-89933839D01*
X109905824Y-89935159D01*
X109922942Y-89937334D01*
X109939787Y-89940341D01*
X109956336Y-89944159D01*
X109972568Y-89948767D01*
X109988461Y-89954143D01*
X110003994Y-89960265D01*
X110019146Y-89967113D01*
X110033894Y-89974665D01*
X110048219Y-89982899D01*
X110062097Y-89991794D01*
X110075507Y-90001328D01*
X110088429Y-90011480D01*
X110100840Y-90022228D01*
X110112720Y-90033552D01*
X110124045Y-90045428D01*
X110134796Y-90057837D01*
X110144951Y-90070756D01*
X110154487Y-90084165D01*
X110163384Y-90098041D01*
X110171620Y-90112363D01*
X110179174Y-90127109D01*
X110186024Y-90142259D01*
X110192148Y-90157790D01*
X110197526Y-90173682D01*
X110202135Y-90189913D01*
X110205955Y-90206460D01*
X110208963Y-90223304D01*
X110211138Y-90240421D01*
X110212459Y-90257792D01*
X110212904Y-90275394D01*
X111021630Y-90275394D01*
X111103227Y-90275394D01*
X111021630Y-90149347D01*
X111021630Y-90081331D01*
X111290569Y-90081331D01*
X111290716Y-90085518D01*
X111291067Y-90089707D01*
X111291625Y-90093892D01*
X111292392Y-90098063D01*
X111293370Y-90102215D01*
X111294562Y-90106339D01*
X111295970Y-90110428D01*
X111297594Y-90114475D01*
X111299439Y-90118472D01*
X111301505Y-90122412D01*
X111304637Y-90127585D01*
X111308069Y-90132463D01*
X111311780Y-90137042D01*
X111315754Y-90141315D01*
X111319971Y-90145278D01*
X111324413Y-90148924D01*
X111329061Y-90152249D01*
X111333897Y-90155247D01*
X111338902Y-90157913D01*
X111344058Y-90160241D01*
X111349347Y-90162225D01*
X111354749Y-90163861D01*
X111360246Y-90165143D01*
X111365820Y-90166065D01*
X111371452Y-90166623D01*
X111377123Y-90166810D01*
X111379795Y-90166768D01*
X111382473Y-90166643D01*
X111385153Y-90166434D01*
X111387833Y-90166140D01*
X111390511Y-90165761D01*
X111393185Y-90165297D01*
X111395851Y-90164747D01*
X111398508Y-90164111D01*
X111401154Y-90163388D01*
X111403785Y-90162577D01*
X111406399Y-90161679D01*
X111408995Y-90160693D01*
X111411569Y-90159618D01*
X111414119Y-90158454D01*
X111416643Y-90157200D01*
X111419139Y-90155856D01*
X111495748Y-90111703D01*
X111571148Y-90065436D01*
X111645277Y-90017098D01*
X111718072Y-89966732D01*
X111789470Y-89914381D01*
X111859410Y-89860089D01*
X111927827Y-89803900D01*
X111994661Y-89745857D01*
X111997904Y-89742805D01*
X112000956Y-89739627D01*
X112003817Y-89736331D01*
X112006486Y-89732924D01*
X112008962Y-89729414D01*
X112011246Y-89725809D01*
X112013336Y-89722116D01*
X112015233Y-89718343D01*
X112016936Y-89714498D01*
X112018444Y-89710588D01*
X112019758Y-89706621D01*
X112020876Y-89702605D01*
X112021798Y-89698547D01*
X112022525Y-89694456D01*
X112023055Y-89690337D01*
X112023388Y-89686201D01*
X112023523Y-89682053D01*
X112023461Y-89677902D01*
X112023201Y-89673755D01*
X112022742Y-89669620D01*
X112022084Y-89665505D01*
X112021227Y-89661417D01*
X112020170Y-89657364D01*
X112018912Y-89653353D01*
X112017454Y-89649393D01*
X112015795Y-89645491D01*
X112013934Y-89641655D01*
X112011871Y-89637892D01*
X112009606Y-89634210D01*
X112007139Y-89630616D01*
X112004468Y-89627119D01*
X112001593Y-89623726D01*
X111998541Y-89620478D01*
X111995363Y-89617422D01*
X111992068Y-89614557D01*
X111988662Y-89611886D01*
X111985153Y-89609407D01*
X111981549Y-89607121D01*
X111977858Y-89605029D01*
X111974086Y-89603131D01*
X111970243Y-89601428D01*
X111966334Y-89599919D01*
X111962369Y-89598605D01*
X111958355Y-89597487D01*
X111954298Y-89596565D01*
X111950208Y-89595840D01*
X111946091Y-89595311D01*
X111941956Y-89594979D01*
X111937809Y-89594844D01*
X111933659Y-89594908D01*
X111929513Y-89595170D01*
X111925378Y-89595630D01*
X111921263Y-89596290D01*
X111917175Y-89597149D01*
X111913122Y-89598208D01*
X111909111Y-89599467D01*
X111905150Y-89600926D01*
X111901246Y-89602587D01*
X111897408Y-89604449D01*
X111893642Y-89606513D01*
X111889957Y-89608779D01*
X111886360Y-89611247D01*
X111882859Y-89613919D01*
X111879461Y-89616794D01*
X111816224Y-89671747D01*
X111751489Y-89724937D01*
X111685315Y-89776324D01*
X111617762Y-89825867D01*
X111548889Y-89873525D01*
X111478756Y-89919257D01*
X111407423Y-89963022D01*
X111334948Y-90004779D01*
X111331118Y-90007042D01*
X111327446Y-90009470D01*
X111323935Y-90012056D01*
X111320587Y-90014793D01*
X111317403Y-90017672D01*
X111314387Y-90020688D01*
X111311540Y-90023831D01*
X111308865Y-90027095D01*
X111306363Y-90030473D01*
X111304036Y-90033957D01*
X111301887Y-90037539D01*
X111299917Y-90041213D01*
X111298130Y-90044970D01*
X111296526Y-90048804D01*
X111295108Y-90052706D01*
X111293879Y-90056670D01*
X111292839Y-90060688D01*
X111291992Y-90064753D01*
X111291340Y-90068857D01*
X111290884Y-90072993D01*
X111290626Y-90077154D01*
X111290569Y-90081331D01*
X111021630Y-90081331D01*
X111021630Y-89644151D01*
X110825150Y-89417721D01*
X110004307Y-89417721D01*
X109737395Y-89417721D01*
X108916604Y-89417721D01*
X108720073Y-89644151D01*
X108720073Y-90149347D01*
X108638528Y-90275394D01*
X107751950Y-90275394D01*
X107535649Y-90106478D01*
X107327573Y-89916453D01*
X107134749Y-89711012D01*
X107061033Y-89619229D01*
X107633790Y-89619229D01*
X107633846Y-89623381D01*
X107634100Y-89627526D01*
X107634551Y-89631656D01*
X107635199Y-89635763D01*
X107636044Y-89639839D01*
X107637085Y-89643877D01*
X107638323Y-89647870D01*
X107639756Y-89651808D01*
X107641385Y-89655686D01*
X107643210Y-89659494D01*
X107645229Y-89663226D01*
X107647443Y-89666873D01*
X107649851Y-89670428D01*
X107652453Y-89673884D01*
X107655249Y-89677232D01*
X107658239Y-89680464D01*
X107661422Y-89683574D01*
X107736918Y-89751496D01*
X107814451Y-89816996D01*
X107893950Y-89880025D01*
X107975343Y-89940531D01*
X108058560Y-89998465D01*
X108143528Y-90053777D01*
X108230177Y-90106416D01*
X108318435Y-90156332D01*
X108320917Y-90157628D01*
X108323421Y-90158838D01*
X108325945Y-90159961D01*
X108328487Y-90160999D01*
X108331045Y-90161952D01*
X108333619Y-90162820D01*
X108336204Y-90163603D01*
X108338802Y-90164302D01*
X108341408Y-90164918D01*
X108344022Y-90165450D01*
X108346641Y-90165899D01*
X108349265Y-90166266D01*
X108351891Y-90166551D01*
X108354517Y-90166753D01*
X108357141Y-90166875D01*
X108359763Y-90166915D01*
X108362632Y-90166867D01*
X108365493Y-90166724D01*
X108368343Y-90166487D01*
X108371180Y-90166156D01*
X108374002Y-90165732D01*
X108376806Y-90165216D01*
X108379591Y-90164609D01*
X108382353Y-90163910D01*
X108385090Y-90163122D01*
X108387800Y-90162244D01*
X108390480Y-90161278D01*
X108393129Y-90160223D01*
X108395744Y-90159082D01*
X108398322Y-90157854D01*
X108400862Y-90156540D01*
X108403360Y-90155141D01*
X108405814Y-90153658D01*
X108408223Y-90152091D01*
X108410583Y-90150441D01*
X108412893Y-90148709D01*
X108415150Y-90146896D01*
X108417351Y-90145002D01*
X108419495Y-90143028D01*
X108421579Y-90140974D01*
X108423600Y-90138842D01*
X108425556Y-90136632D01*
X108427446Y-90134345D01*
X108429266Y-90131982D01*
X108431014Y-90129542D01*
X108432688Y-90127028D01*
X108434285Y-90124439D01*
X108435804Y-90121777D01*
X108437826Y-90117814D01*
X108439626Y-90113796D01*
X108441207Y-90109731D01*
X108442571Y-90105626D01*
X108443720Y-90101489D01*
X108444656Y-90097327D01*
X108445381Y-90093148D01*
X108445897Y-90088958D01*
X108446207Y-90084765D01*
X108446312Y-90080577D01*
X108446215Y-90076401D01*
X108445918Y-90072244D01*
X108445422Y-90068114D01*
X108444731Y-90064017D01*
X108443846Y-90059962D01*
X108442769Y-90055955D01*
X108441503Y-90052005D01*
X108440049Y-90048117D01*
X108438409Y-90044301D01*
X108436587Y-90040562D01*
X108434583Y-90036909D01*
X108432401Y-90033348D01*
X108430041Y-90029888D01*
X108427507Y-90026535D01*
X108424800Y-90023297D01*
X108421923Y-90020181D01*
X108418877Y-90017194D01*
X108415665Y-90014344D01*
X108412289Y-90011639D01*
X108408751Y-90009085D01*
X108405052Y-90006690D01*
X108401197Y-90004462D01*
X108317636Y-89957197D01*
X108235595Y-89907350D01*
X108155142Y-89854970D01*
X108076348Y-89800104D01*
X107999283Y-89742799D01*
X107924017Y-89683104D01*
X107850620Y-89621066D01*
X107779162Y-89556733D01*
X107775821Y-89553798D01*
X107772374Y-89551063D01*
X107768827Y-89548528D01*
X107765189Y-89546194D01*
X107761465Y-89544060D01*
X107757666Y-89542125D01*
X107753797Y-89540391D01*
X107749867Y-89538856D01*
X107745882Y-89537520D01*
X107741852Y-89536383D01*
X107737783Y-89535444D01*
X107733683Y-89534705D01*
X107729559Y-89534163D01*
X107725420Y-89533820D01*
X107721272Y-89533675D01*
X107717124Y-89533728D01*
X107712982Y-89533978D01*
X107708855Y-89534425D01*
X107704751Y-89535069D01*
X107700676Y-89535911D01*
X107696639Y-89536949D01*
X107692646Y-89538183D01*
X107688707Y-89539614D01*
X107684827Y-89541240D01*
X107681015Y-89543063D01*
X107677279Y-89545081D01*
X107673626Y-89547294D01*
X107670063Y-89549702D01*
X107666599Y-89552306D01*
X107663240Y-89555104D01*
X107659995Y-89558097D01*
X107656871Y-89561284D01*
X107653927Y-89564625D01*
X107651184Y-89568073D01*
X107648643Y-89571622D01*
X107646304Y-89575264D01*
X107644166Y-89578990D01*
X107642229Y-89582793D01*
X107640492Y-89586666D01*
X107638957Y-89590601D01*
X107637621Y-89594590D01*
X107636484Y-89598626D01*
X107635548Y-89602700D01*
X107634810Y-89606805D01*
X107634272Y-89610933D01*
X107633931Y-89615077D01*
X107633790Y-89619229D01*
X107061033Y-89619229D01*
X106958139Y-89491116D01*
X106798703Y-89257724D01*
X106657405Y-89011794D01*
X106615072Y-88922586D01*
X107069559Y-88922586D01*
X107069627Y-88926763D01*
X107069897Y-88930943D01*
X107070372Y-88935120D01*
X107071054Y-88939286D01*
X107071945Y-88943433D01*
X107073046Y-88947554D01*
X107074359Y-88951641D01*
X107075887Y-88955687D01*
X107077630Y-88959685D01*
X107079592Y-88963627D01*
X107081773Y-88967506D01*
X107103985Y-89004128D01*
X107126749Y-89040553D01*
X107150044Y-89076751D01*
X107173848Y-89112696D01*
X107198138Y-89148358D01*
X107222892Y-89183709D01*
X107248087Y-89218719D01*
X107273702Y-89253362D01*
X107276999Y-89257483D01*
X107280494Y-89261351D01*
X107284172Y-89264966D01*
X107288022Y-89268324D01*
X107292031Y-89271424D01*
X107296186Y-89274265D01*
X107300474Y-89276844D01*
X107304883Y-89279159D01*
X107309399Y-89281209D01*
X107314011Y-89282991D01*
X107318706Y-89284504D01*
X107323470Y-89285747D01*
X107328291Y-89286716D01*
X107333156Y-89287411D01*
X107338054Y-89287829D01*
X107342970Y-89287969D01*
X107346355Y-89287903D01*
X107349743Y-89287705D01*
X107353127Y-89287375D01*
X107356504Y-89286910D01*
X107359868Y-89286312D01*
X107363216Y-89285578D01*
X107366543Y-89284709D01*
X107369844Y-89283703D01*
X107373115Y-89282560D01*
X107376351Y-89281280D01*
X107379547Y-89279861D01*
X107382699Y-89278303D01*
X107385802Y-89276605D01*
X107388853Y-89274767D01*
X107391845Y-89272787D01*
X107394775Y-89270665D01*
X107398267Y-89267903D01*
X107401580Y-89264998D01*
X107404712Y-89261959D01*
X107407662Y-89258793D01*
X107410429Y-89255508D01*
X107413013Y-89252111D01*
X107415411Y-89248610D01*
X107417623Y-89245013D01*
X107419649Y-89241327D01*
X107421486Y-89237560D01*
X107423133Y-89233720D01*
X107424591Y-89229813D01*
X107425857Y-89225848D01*
X107426930Y-89221833D01*
X107427811Y-89217775D01*
X107428496Y-89213681D01*
X107428986Y-89209560D01*
X107429279Y-89205418D01*
X107429374Y-89201264D01*
X107429271Y-89197105D01*
X107428968Y-89192949D01*
X107428463Y-89188803D01*
X107427757Y-89184675D01*
X107426847Y-89180573D01*
X107425734Y-89176504D01*
X107424415Y-89172476D01*
X107422890Y-89168496D01*
X107421157Y-89164573D01*
X107419216Y-89160713D01*
X107417065Y-89156925D01*
X107414704Y-89153215D01*
X107412132Y-89149593D01*
X107387839Y-89116781D01*
X107363951Y-89083613D01*
X107340489Y-89050118D01*
X107317477Y-89016328D01*
X107294935Y-88982273D01*
X107272888Y-88947982D01*
X107251356Y-88913487D01*
X107230363Y-88878818D01*
X107227983Y-88875060D01*
X107225444Y-88871465D01*
X107222752Y-88868036D01*
X107219915Y-88864775D01*
X107216940Y-88861684D01*
X107213835Y-88858763D01*
X107210607Y-88856016D01*
X107207264Y-88853444D01*
X107203813Y-88851048D01*
X107200261Y-88848830D01*
X107196616Y-88846793D01*
X107192885Y-88844938D01*
X107189077Y-88843267D01*
X107185197Y-88841782D01*
X107181254Y-88840484D01*
X107177255Y-88839375D01*
X107173207Y-88838458D01*
X107169118Y-88837733D01*
X107164996Y-88837204D01*
X107160848Y-88836870D01*
X107156680Y-88836736D01*
X107152502Y-88836801D01*
X107148319Y-88837069D01*
X107144140Y-88837540D01*
X107139972Y-88838217D01*
X107135822Y-88839102D01*
X107131698Y-88840196D01*
X107127607Y-88841500D01*
X107123557Y-88843018D01*
X107119554Y-88844751D01*
X107115608Y-88846700D01*
X107111724Y-88848867D01*
X107107961Y-88851251D01*
X107104361Y-88853795D01*
X107100927Y-88856491D01*
X107097660Y-88859332D01*
X107094563Y-88862311D01*
X107091636Y-88865419D01*
X107088883Y-88868650D01*
X107086305Y-88871996D01*
X107083904Y-88875449D01*
X107081681Y-88879003D01*
X107079639Y-88882650D01*
X107077779Y-88886382D01*
X107076104Y-88890192D01*
X107074614Y-88894072D01*
X107073313Y-88898016D01*
X107072202Y-88902015D01*
X107071282Y-88906063D01*
X107070556Y-88910151D01*
X107070026Y-88914272D01*
X107069693Y-88918420D01*
X107069559Y-88922586D01*
X106615072Y-88922586D01*
X106535207Y-88754288D01*
X106433069Y-88486163D01*
X106351954Y-88208378D01*
X106292824Y-87921895D01*
X106276814Y-87810536D01*
X106719505Y-87810536D01*
X106720318Y-87842568D01*
X106722730Y-87874186D01*
X106726703Y-87905349D01*
X106732195Y-87936019D01*
X106739169Y-87966155D01*
X106747585Y-87995719D01*
X106757402Y-88024671D01*
X106768582Y-88052971D01*
X106781085Y-88080580D01*
X106794871Y-88107458D01*
X106809902Y-88133566D01*
X106826137Y-88158865D01*
X106843537Y-88183314D01*
X106862062Y-88206875D01*
X106881674Y-88229508D01*
X106902332Y-88251173D01*
X106923997Y-88271832D01*
X106946630Y-88291443D01*
X106970191Y-88309969D01*
X106994641Y-88327369D01*
X107019939Y-88343604D01*
X107046048Y-88358634D01*
X107072926Y-88372421D01*
X107100535Y-88384923D01*
X107128835Y-88396103D01*
X107157787Y-88405921D01*
X107187350Y-88414336D01*
X107217487Y-88421310D01*
X107248156Y-88426803D01*
X107279320Y-88430775D01*
X107310937Y-88433187D01*
X107342969Y-88434000D01*
X107356544Y-88433848D01*
X107370043Y-88433394D01*
X107383463Y-88432643D01*
X107396803Y-88431600D01*
X107410059Y-88430270D01*
X107423231Y-88428656D01*
X107436316Y-88426765D01*
X107449312Y-88424601D01*
X107462216Y-88422168D01*
X107475028Y-88419471D01*
X107487744Y-88416516D01*
X107500362Y-88413306D01*
X107525298Y-88406142D01*
X107549820Y-88398017D01*
X107588890Y-88477419D01*
X107630529Y-88555251D01*
X107674698Y-88631459D01*
X107721358Y-88705989D01*
X107770468Y-88778787D01*
X107821991Y-88849798D01*
X107875887Y-88918969D01*
X107932116Y-88986245D01*
X107990640Y-89051572D01*
X108051419Y-89114895D01*
X108114414Y-89176162D01*
X108179586Y-89235316D01*
X108246895Y-89292305D01*
X108316303Y-89347074D01*
X108387770Y-89399569D01*
X108461257Y-89449736D01*
X108464026Y-89451483D01*
X108466836Y-89453112D01*
X108469683Y-89454625D01*
X108472565Y-89456023D01*
X108475478Y-89457304D01*
X108478419Y-89458472D01*
X108481386Y-89459525D01*
X108484375Y-89460464D01*
X108487383Y-89461291D01*
X108490407Y-89462005D01*
X108493444Y-89462608D01*
X108496492Y-89463100D01*
X108499547Y-89463481D01*
X108502605Y-89463753D01*
X108505665Y-89463916D01*
X108508723Y-89463970D01*
X108513983Y-89463809D01*
X108519215Y-89463329D01*
X108524405Y-89462534D01*
X108529537Y-89461426D01*
X108534596Y-89460008D01*
X108539567Y-89458286D01*
X108544435Y-89456260D01*
X108549184Y-89453936D01*
X108553801Y-89451315D01*
X108558269Y-89448402D01*
X108562573Y-89445200D01*
X108566699Y-89441713D01*
X108570631Y-89437943D01*
X108574354Y-89433893D01*
X108577853Y-89429568D01*
X108579514Y-89427303D01*
X108581113Y-89424971D01*
X108583460Y-89421191D01*
X108585590Y-89417339D01*
X108587504Y-89413421D01*
X108589204Y-89409446D01*
X108590692Y-89405420D01*
X108591969Y-89401352D01*
X108593037Y-89397249D01*
X108593897Y-89393117D01*
X108594551Y-89388966D01*
X108595000Y-89384801D01*
X108595247Y-89380632D01*
X108595272Y-89378261D01*
X111169344Y-89378261D01*
X111169491Y-89382427D01*
X111169839Y-89386590D01*
X111170390Y-89390745D01*
X111171145Y-89394882D01*
X111172107Y-89398994D01*
X111173275Y-89403074D01*
X111174653Y-89407114D01*
X111176240Y-89411107D01*
X111178039Y-89415045D01*
X111180051Y-89418920D01*
X111182277Y-89422725D01*
X111184718Y-89426452D01*
X111187981Y-89430883D01*
X111191468Y-89435046D01*
X111195167Y-89438939D01*
X111199061Y-89442559D01*
X111203138Y-89445903D01*
X111207382Y-89448970D01*
X111211780Y-89451756D01*
X111216316Y-89454260D01*
X111220977Y-89456478D01*
X111225749Y-89458409D01*
X111230616Y-89460049D01*
X111235565Y-89461397D01*
X111240582Y-89462449D01*
X111245651Y-89463204D01*
X111250759Y-89463659D01*
X111255891Y-89463811D01*
X111259068Y-89463752D01*
X111262247Y-89463575D01*
X111265423Y-89463279D01*
X111268595Y-89462864D01*
X111271757Y-89462329D01*
X111274908Y-89461674D01*
X111278043Y-89460898D01*
X111281159Y-89460001D01*
X111284253Y-89458983D01*
X111287321Y-89457843D01*
X111290360Y-89456580D01*
X111293366Y-89455194D01*
X111296337Y-89453685D01*
X111299268Y-89452052D01*
X111302156Y-89450295D01*
X111304998Y-89448413D01*
X111373075Y-89399679D01*
X111439419Y-89348823D01*
X111503984Y-89295900D01*
X111566722Y-89240965D01*
X111576782Y-89231561D01*
X112264588Y-89231561D01*
X112264666Y-89235714D01*
X112264942Y-89239854D01*
X112265416Y-89243976D01*
X112266085Y-89248070D01*
X112266950Y-89252129D01*
X112268009Y-89256146D01*
X112269260Y-89260113D01*
X112270703Y-89264022D01*
X112272337Y-89267866D01*
X112274161Y-89271637D01*
X112276173Y-89275328D01*
X112278373Y-89278930D01*
X112280759Y-89282437D01*
X112283331Y-89285841D01*
X112286087Y-89289133D01*
X112289026Y-89292307D01*
X112292147Y-89295354D01*
X112295449Y-89298268D01*
X112298932Y-89301040D01*
X112301890Y-89303181D01*
X112304907Y-89305180D01*
X112307978Y-89307038D01*
X112311101Y-89308755D01*
X112314270Y-89310331D01*
X112317481Y-89311767D01*
X112320731Y-89313064D01*
X112324014Y-89314222D01*
X112327327Y-89315242D01*
X112330666Y-89316124D01*
X112334026Y-89316869D01*
X112337404Y-89317478D01*
X112340794Y-89317950D01*
X112344193Y-89318286D01*
X112347597Y-89318488D01*
X112351002Y-89318555D01*
X112355907Y-89318417D01*
X112360790Y-89318004D01*
X112365641Y-89317317D01*
X112370445Y-89316358D01*
X112375191Y-89315128D01*
X112379867Y-89313630D01*
X112384459Y-89311863D01*
X112388956Y-89309830D01*
X112393345Y-89307533D01*
X112397614Y-89304972D01*
X112401750Y-89302149D01*
X112405740Y-89299066D01*
X112409574Y-89295724D01*
X112413237Y-89292125D01*
X112416718Y-89288269D01*
X112420005Y-89284160D01*
X112456113Y-89235471D01*
X112491316Y-89186073D01*
X112525585Y-89136014D01*
X112558891Y-89085338D01*
X112591208Y-89034092D01*
X112622508Y-88982321D01*
X112652762Y-88930071D01*
X112681942Y-88877388D01*
X112681942Y-88877389D01*
X112683964Y-88873430D01*
X112685762Y-88869416D01*
X112687340Y-88865355D01*
X112688700Y-88861253D01*
X112689844Y-88857119D01*
X112690774Y-88852960D01*
X112691493Y-88848783D01*
X112692002Y-88844595D01*
X112692303Y-88840404D01*
X112692400Y-88836218D01*
X112692294Y-88832043D01*
X112691987Y-88827888D01*
X112691481Y-88823759D01*
X112690779Y-88819665D01*
X112689883Y-88815611D01*
X112688795Y-88811607D01*
X112687518Y-88807659D01*
X112686052Y-88803775D01*
X112684402Y-88799961D01*
X112682568Y-88796227D01*
X112680553Y-88792578D01*
X112678359Y-88789022D01*
X112675989Y-88785567D01*
X112673445Y-88782221D01*
X112670728Y-88778990D01*
X112667841Y-88775882D01*
X112664786Y-88772904D01*
X112661565Y-88770064D01*
X112658181Y-88767370D01*
X112654636Y-88764828D01*
X112650932Y-88762446D01*
X112647071Y-88760231D01*
X112643121Y-88758219D01*
X112639115Y-88756429D01*
X112635061Y-88754858D01*
X112630965Y-88753504D01*
X112626836Y-88752365D01*
X112622681Y-88751439D01*
X112618506Y-88750724D01*
X112614321Y-88750217D01*
X112610132Y-88749917D01*
X112605946Y-88749821D01*
X112601772Y-88749927D01*
X112597616Y-88750234D01*
X112593486Y-88750738D01*
X112589390Y-88751439D01*
X112585335Y-88752333D01*
X112581328Y-88753418D01*
X112577377Y-88754694D01*
X112573490Y-88756156D01*
X112569674Y-88757804D01*
X112565936Y-88759634D01*
X112562284Y-88761646D01*
X112558725Y-88763836D01*
X112555267Y-88766203D01*
X112551917Y-88768745D01*
X112548683Y-88771458D01*
X112545572Y-88774343D01*
X112542592Y-88777395D01*
X112539750Y-88780613D01*
X112537054Y-88783995D01*
X112534510Y-88787539D01*
X112532128Y-88791243D01*
X112529913Y-88795104D01*
X112502307Y-88844935D01*
X112473683Y-88894350D01*
X112444068Y-88943312D01*
X112413490Y-88991781D01*
X112381976Y-89039720D01*
X112349555Y-89087089D01*
X112316255Y-89133851D01*
X112282104Y-89179966D01*
X112279507Y-89183579D01*
X112277122Y-89187280D01*
X112274948Y-89191060D01*
X112272984Y-89194912D01*
X112271230Y-89198828D01*
X112269683Y-89202801D01*
X112268343Y-89206823D01*
X112267209Y-89210887D01*
X112266280Y-89214985D01*
X112265554Y-89219108D01*
X112265031Y-89223251D01*
X112264709Y-89227404D01*
X112264588Y-89231561D01*
X111576782Y-89231561D01*
X111627586Y-89184073D01*
X111686529Y-89125278D01*
X111743505Y-89064635D01*
X111798466Y-89002200D01*
X111851365Y-88938026D01*
X111902155Y-88872168D01*
X111950789Y-88804683D01*
X111997220Y-88735623D01*
X112041401Y-88665044D01*
X112083285Y-88593001D01*
X112122824Y-88519549D01*
X112159973Y-88444743D01*
X112161784Y-88440676D01*
X112163371Y-88436567D01*
X112164735Y-88432422D01*
X112165879Y-88428250D01*
X112166806Y-88424057D01*
X112167518Y-88419851D01*
X112168018Y-88415639D01*
X112168308Y-88411427D01*
X112168391Y-88407224D01*
X112168270Y-88403037D01*
X112167947Y-88398872D01*
X112167424Y-88394737D01*
X112166705Y-88390640D01*
X112165792Y-88386587D01*
X112164686Y-88382585D01*
X112163392Y-88378643D01*
X112161912Y-88374767D01*
X112160247Y-88370964D01*
X112158401Y-88367242D01*
X112156376Y-88363608D01*
X112154175Y-88360069D01*
X112151801Y-88356632D01*
X112149255Y-88353305D01*
X112146541Y-88350095D01*
X112143661Y-88347009D01*
X112140617Y-88344055D01*
X112137412Y-88341239D01*
X112134050Y-88338568D01*
X112130531Y-88336051D01*
X112126860Y-88333694D01*
X112123038Y-88331505D01*
X112119068Y-88329490D01*
X112115001Y-88327674D01*
X112110892Y-88326082D01*
X112106749Y-88324713D01*
X112102578Y-88323564D01*
X112098386Y-88322633D01*
X112094181Y-88321916D01*
X112089970Y-88321412D01*
X112085760Y-88321118D01*
X112081558Y-88321030D01*
X112077373Y-88321148D01*
X112073209Y-88321468D01*
X112069076Y-88321987D01*
X112064980Y-88322704D01*
X112060929Y-88323615D01*
X112056929Y-88324718D01*
X112052988Y-88326011D01*
X112049113Y-88327490D01*
X112045311Y-88329154D01*
X112041590Y-88331000D01*
X112037956Y-88333026D01*
X112034418Y-88335228D01*
X112030981Y-88337604D01*
X112027654Y-88340152D01*
X112024443Y-88342870D01*
X112021356Y-88345754D01*
X112018400Y-88348802D01*
X112015581Y-88352011D01*
X112012909Y-88355380D01*
X112010389Y-88358905D01*
X112008028Y-88362584D01*
X112005835Y-88366415D01*
X112003815Y-88370394D01*
X111969180Y-88440137D01*
X111932315Y-88508617D01*
X111893264Y-88575785D01*
X111852071Y-88641588D01*
X111808780Y-88705976D01*
X111763435Y-88768898D01*
X111716079Y-88830301D01*
X111666756Y-88890135D01*
X111615511Y-88948349D01*
X111562386Y-89004892D01*
X111507425Y-89059711D01*
X111450674Y-89112757D01*
X111392174Y-89163977D01*
X111331970Y-89213320D01*
X111270106Y-89260736D01*
X111206626Y-89306173D01*
X111203032Y-89308790D01*
X111199611Y-89311557D01*
X111196365Y-89314465D01*
X111193296Y-89317507D01*
X111190405Y-89320676D01*
X111187693Y-89323964D01*
X111185162Y-89327364D01*
X111182814Y-89330868D01*
X111180648Y-89334467D01*
X111178668Y-89338156D01*
X111176874Y-89341926D01*
X111175268Y-89345769D01*
X111173851Y-89349679D01*
X111172624Y-89353647D01*
X111171590Y-89357666D01*
X111170748Y-89361729D01*
X111170102Y-89365827D01*
X111169651Y-89369953D01*
X111169398Y-89374101D01*
X111169344Y-89378261D01*
X108595272Y-89378261D01*
X108595292Y-89376465D01*
X108595137Y-89372307D01*
X108594784Y-89368167D01*
X108594234Y-89364052D01*
X108593489Y-89359969D01*
X108592550Y-89355926D01*
X108591420Y-89351930D01*
X108590098Y-89347989D01*
X108588588Y-89344111D01*
X108586891Y-89340302D01*
X108585007Y-89336571D01*
X108582939Y-89332925D01*
X108580689Y-89329371D01*
X108578257Y-89325917D01*
X108575646Y-89322570D01*
X108572857Y-89319339D01*
X108569891Y-89316229D01*
X108566751Y-89313250D01*
X108563437Y-89310408D01*
X108559951Y-89307711D01*
X108556295Y-89305167D01*
X108506437Y-89271142D01*
X108487405Y-89258154D01*
X108420418Y-89208946D01*
X108355372Y-89157595D01*
X108292306Y-89104152D01*
X108268009Y-89082071D01*
X109074930Y-89082071D01*
X109074930Y-89271142D01*
X110666717Y-89271142D01*
X110666717Y-89082071D01*
X109074930Y-89082071D01*
X108268009Y-89082071D01*
X108231255Y-89048668D01*
X108172257Y-88991194D01*
X108119005Y-88935597D01*
X108115350Y-88931782D01*
X108060572Y-88870483D01*
X108007958Y-88807349D01*
X107960728Y-88746526D01*
X109074983Y-88746526D01*
X109074983Y-88935597D01*
X110666769Y-88935597D01*
X110666769Y-88746526D01*
X109074983Y-88746526D01*
X107960728Y-88746526D01*
X107957548Y-88742431D01*
X107909378Y-88675779D01*
X107863485Y-88607446D01*
X107858847Y-88600000D01*
X109000000Y-88600000D01*
X109661300Y-88600000D01*
X110080453Y-88600000D01*
X110741699Y-88600000D01*
X110614858Y-88352826D01*
X110614858Y-88268371D01*
X110958976Y-88268371D01*
X110959089Y-88272819D01*
X110959423Y-88277208D01*
X110959974Y-88281535D01*
X110960736Y-88285792D01*
X110961703Y-88289976D01*
X110962870Y-88294080D01*
X110964232Y-88298098D01*
X110965782Y-88302026D01*
X110967517Y-88305858D01*
X110969429Y-88309588D01*
X110971514Y-88313211D01*
X110973766Y-88316721D01*
X110976180Y-88320114D01*
X110978750Y-88323383D01*
X110981470Y-88326523D01*
X110984336Y-88329529D01*
X110987342Y-88332395D01*
X110990483Y-88335116D01*
X110993752Y-88337686D01*
X110997144Y-88340100D01*
X111000655Y-88342352D01*
X111004278Y-88344437D01*
X111008008Y-88346349D01*
X111011840Y-88348083D01*
X111015768Y-88349634D01*
X111019786Y-88350995D01*
X111023890Y-88352163D01*
X111028073Y-88353130D01*
X111032331Y-88353891D01*
X111036658Y-88354442D01*
X111041047Y-88354777D01*
X111045495Y-88354890D01*
X111049947Y-88354777D01*
X111054341Y-88354442D01*
X111058671Y-88353891D01*
X111062932Y-88353130D01*
X111067118Y-88352163D01*
X111071223Y-88350995D01*
X111075243Y-88349634D01*
X111079172Y-88348083D01*
X111083005Y-88346349D01*
X111086735Y-88344437D01*
X111090358Y-88342352D01*
X111093869Y-88340100D01*
X111097261Y-88337686D01*
X111100529Y-88335116D01*
X111103668Y-88332395D01*
X111106673Y-88329529D01*
X111109538Y-88326523D01*
X111112257Y-88323383D01*
X111114825Y-88320114D01*
X111117238Y-88316721D01*
X111119488Y-88313211D01*
X111121571Y-88309588D01*
X111123482Y-88305858D01*
X111125215Y-88302026D01*
X111126764Y-88298098D01*
X111128124Y-88294080D01*
X111129290Y-88289976D01*
X111130256Y-88285792D01*
X111131017Y-88281535D01*
X111131567Y-88277208D01*
X111131901Y-88272819D01*
X111132014Y-88268371D01*
X111132014Y-87912612D01*
X112989970Y-87912612D01*
X112994418Y-87912500D01*
X112998807Y-87912165D01*
X113003132Y-87911614D01*
X113007387Y-87910852D01*
X113011568Y-87909885D01*
X113015669Y-87908718D01*
X113019685Y-87907357D01*
X113023609Y-87905806D01*
X113027437Y-87904072D01*
X113031163Y-87902159D01*
X113034781Y-87900075D01*
X113038287Y-87897823D01*
X113041675Y-87895409D01*
X113044940Y-87892839D01*
X113048075Y-87890118D01*
X113051076Y-87887252D01*
X113053937Y-87884246D01*
X113056653Y-87881106D01*
X113059218Y-87877837D01*
X113061627Y-87874444D01*
X113063875Y-87870934D01*
X113065955Y-87867310D01*
X113067863Y-87863580D01*
X113069594Y-87859749D01*
X113071141Y-87855821D01*
X113072499Y-87851802D01*
X113073664Y-87847699D01*
X113074628Y-87843515D01*
X113075388Y-87839257D01*
X113075938Y-87834931D01*
X113076271Y-87830541D01*
X113076384Y-87826094D01*
X113076271Y-87821646D01*
X113075938Y-87817256D01*
X113075388Y-87812930D01*
X113074628Y-87808672D01*
X113073664Y-87804489D01*
X113072499Y-87800385D01*
X113071141Y-87796366D01*
X113069594Y-87792439D01*
X113067863Y-87788607D01*
X113065955Y-87784877D01*
X113063875Y-87781254D01*
X113061627Y-87777743D01*
X113059218Y-87774350D01*
X113056653Y-87771081D01*
X113053937Y-87767941D01*
X113051076Y-87764935D01*
X113048075Y-87762069D01*
X113044940Y-87759348D01*
X113041675Y-87756778D01*
X113038287Y-87754365D01*
X113034781Y-87752113D01*
X113031163Y-87750028D01*
X113027437Y-87748115D01*
X113023609Y-87746381D01*
X113019685Y-87744831D01*
X113015669Y-87743469D01*
X113011568Y-87742302D01*
X113007387Y-87741335D01*
X113003132Y-87740573D01*
X112998807Y-87740022D01*
X112994418Y-87739688D01*
X112989970Y-87739575D01*
X111045495Y-87739575D01*
X111041047Y-87739688D01*
X111036658Y-87740022D01*
X111032331Y-87740573D01*
X111028073Y-87741335D01*
X111023890Y-87742302D01*
X111019786Y-87743469D01*
X111015768Y-87744831D01*
X111011840Y-87746381D01*
X111008008Y-87748115D01*
X111004278Y-87750028D01*
X111000655Y-87752113D01*
X110997144Y-87754365D01*
X110993752Y-87756778D01*
X110990483Y-87759348D01*
X110987342Y-87762069D01*
X110984336Y-87764935D01*
X110981470Y-87767941D01*
X110978750Y-87771081D01*
X110976180Y-87774350D01*
X110973766Y-87777743D01*
X110971514Y-87781254D01*
X110969429Y-87784877D01*
X110967517Y-87788607D01*
X110965782Y-87792439D01*
X110964232Y-87796366D01*
X110962870Y-87800385D01*
X110961703Y-87804489D01*
X110960736Y-87808672D01*
X110959974Y-87812930D01*
X110959423Y-87817256D01*
X110959089Y-87821646D01*
X110958976Y-87826094D01*
X110958976Y-88268371D01*
X110614858Y-88268371D01*
X110614858Y-87826094D01*
X110614858Y-87611305D01*
X110314503Y-87112037D01*
X110237110Y-86782736D01*
X110603005Y-86782736D01*
X110603118Y-86787184D01*
X110603452Y-86791574D01*
X110604003Y-86795900D01*
X110604765Y-86800158D01*
X110605732Y-86804341D01*
X110606899Y-86808445D01*
X110608261Y-86812463D01*
X110609811Y-86816391D01*
X110611546Y-86820223D01*
X110613458Y-86823953D01*
X110615543Y-86827576D01*
X110617795Y-86831087D01*
X110620208Y-86834479D01*
X110622778Y-86837749D01*
X110625499Y-86840889D01*
X110628365Y-86843895D01*
X110631371Y-86846761D01*
X110634511Y-86849482D01*
X110637780Y-86852052D01*
X110641173Y-86854465D01*
X110644684Y-86856717D01*
X110648307Y-86858802D01*
X110652037Y-86860714D01*
X110655868Y-86862449D01*
X110659796Y-86863999D01*
X110663815Y-86865361D01*
X110667918Y-86866528D01*
X110672102Y-86867495D01*
X110676360Y-86868257D01*
X110680686Y-86868808D01*
X110685076Y-86869142D01*
X110689523Y-86869255D01*
X111742247Y-86869255D01*
X111746849Y-86897440D01*
X111752697Y-86925192D01*
X111759761Y-86952481D01*
X111768011Y-86979276D01*
X111777417Y-87005547D01*
X111787949Y-87031264D01*
X111799578Y-87056396D01*
X111812273Y-87080914D01*
X111826005Y-87104787D01*
X111840743Y-87127985D01*
X111856458Y-87150477D01*
X111873120Y-87172233D01*
X111890698Y-87193223D01*
X111909164Y-87213417D01*
X111928486Y-87232784D01*
X111948636Y-87251294D01*
X111969583Y-87268916D01*
X111991297Y-87285622D01*
X112013748Y-87301379D01*
X112036907Y-87316159D01*
X112060743Y-87329930D01*
X112085227Y-87342662D01*
X112110328Y-87354326D01*
X112136017Y-87364890D01*
X112162264Y-87374325D01*
X112189039Y-87382600D01*
X112216311Y-87389685D01*
X112244052Y-87395550D01*
X112272231Y-87400164D01*
X112300818Y-87403497D01*
X112329783Y-87405520D01*
X112359097Y-87406200D01*
X112391129Y-87405388D01*
X112422746Y-87402975D01*
X112453908Y-87399003D01*
X112484577Y-87393510D01*
X112514712Y-87386536D01*
X112544275Y-87378121D01*
X112573225Y-87368303D01*
X112601523Y-87357124D01*
X112629130Y-87344621D01*
X112656006Y-87330834D01*
X112682112Y-87315804D01*
X112707409Y-87299569D01*
X112731856Y-87282169D01*
X112755415Y-87263643D01*
X112778045Y-87244032D01*
X112799708Y-87223373D01*
X112820363Y-87201708D01*
X112839973Y-87179075D01*
X112858496Y-87155514D01*
X112875893Y-87131065D01*
X112892126Y-87105766D01*
X112907154Y-87079658D01*
X112920939Y-87052780D01*
X112933440Y-87025171D01*
X112944618Y-86996871D01*
X112954434Y-86967919D01*
X112962847Y-86938355D01*
X112969820Y-86908219D01*
X112975312Y-86877549D01*
X112979284Y-86846386D01*
X112981696Y-86814768D01*
X112982508Y-86782736D01*
X112981696Y-86750700D01*
X112979284Y-86719079D01*
X112975312Y-86687913D01*
X112969820Y-86657241D01*
X112962847Y-86627103D01*
X112954434Y-86597539D01*
X112944618Y-86568587D01*
X112933440Y-86540288D01*
X112920939Y-86512680D01*
X112907154Y-86485803D01*
X112892126Y-86459697D01*
X112875893Y-86434401D01*
X112858496Y-86409955D01*
X112839973Y-86386397D01*
X112820363Y-86363767D01*
X112799708Y-86342106D01*
X112778045Y-86321451D01*
X112755415Y-86301844D01*
X112731856Y-86283322D01*
X112707409Y-86265926D01*
X112682112Y-86249695D01*
X112656006Y-86234668D01*
X112629130Y-86220886D01*
X112601523Y-86208386D01*
X112573225Y-86197210D01*
X112544275Y-86187395D01*
X112514712Y-86178983D01*
X112484577Y-86172011D01*
X112453908Y-86166520D01*
X112422746Y-86162549D01*
X112391129Y-86160138D01*
X112359097Y-86159325D01*
X112345561Y-86159477D01*
X112332102Y-86159929D01*
X112318721Y-86160676D01*
X112305421Y-86161715D01*
X112292203Y-86163039D01*
X112279070Y-86164644D01*
X112266023Y-86166525D01*
X112253065Y-86168678D01*
X112240197Y-86171098D01*
X112227422Y-86173779D01*
X112214742Y-86176717D01*
X112202158Y-86179908D01*
X112177287Y-86187027D01*
X112152828Y-86195097D01*
X112104076Y-86099550D01*
X112051436Y-86006322D01*
X111995019Y-85915527D01*
X111934933Y-85827278D01*
X111871290Y-85741687D01*
X111804198Y-85658867D01*
X111733767Y-85578932D01*
X111660108Y-85501994D01*
X111583329Y-85428167D01*
X111576113Y-85421782D01*
X112264583Y-85421782D01*
X112264705Y-85425941D01*
X112265028Y-85430096D01*
X112265551Y-85434241D01*
X112266278Y-85438367D01*
X112267207Y-85442468D01*
X112268342Y-85446534D01*
X112269682Y-85450560D01*
X112271229Y-85454536D01*
X112272983Y-85458456D01*
X112274947Y-85462312D01*
X112277121Y-85466096D01*
X112279506Y-85469801D01*
X112282103Y-85473419D01*
X112316202Y-85519415D01*
X112349465Y-85566094D01*
X112381864Y-85613416D01*
X112413370Y-85661339D01*
X112443955Y-85709823D01*
X112473593Y-85758826D01*
X112502254Y-85808309D01*
X112529912Y-85858229D01*
X112533001Y-85863498D01*
X112536402Y-85868468D01*
X112540096Y-85873133D01*
X112544064Y-85877487D01*
X112548286Y-85881525D01*
X112552742Y-85885241D01*
X112557415Y-85888630D01*
X112562284Y-85891685D01*
X112567330Y-85894402D01*
X112572535Y-85896775D01*
X112577878Y-85898798D01*
X112583341Y-85900466D01*
X112588905Y-85901773D01*
X112594550Y-85902713D01*
X112600257Y-85903282D01*
X112606006Y-85903472D01*
X112608618Y-85903433D01*
X112611233Y-85903315D01*
X112613849Y-85903118D01*
X112616465Y-85902841D01*
X112619079Y-85902483D01*
X112621688Y-85902044D01*
X112624292Y-85901523D01*
X112626889Y-85900919D01*
X112629476Y-85900233D01*
X112632052Y-85899462D01*
X112634615Y-85898608D01*
X112637163Y-85897668D01*
X112639696Y-85896643D01*
X112642209Y-85895532D01*
X112644703Y-85894333D01*
X112647175Y-85893048D01*
X112651027Y-85890829D01*
X112654722Y-85888443D01*
X112658259Y-85885897D01*
X112661635Y-85883200D01*
X112664848Y-85880357D01*
X112667896Y-85877378D01*
X112670777Y-85874268D01*
X112673488Y-85871035D01*
X112676027Y-85867688D01*
X112678393Y-85864232D01*
X112680582Y-85860676D01*
X112682593Y-85857027D01*
X112684423Y-85853292D01*
X112686070Y-85849478D01*
X112687532Y-85845594D01*
X112688807Y-85841646D01*
X112689893Y-85837642D01*
X112690787Y-85833588D01*
X112691487Y-85829494D01*
X112691991Y-85825365D01*
X112692297Y-85821209D01*
X112692402Y-85817034D01*
X112692305Y-85812847D01*
X112692002Y-85808655D01*
X112691493Y-85804466D01*
X112690774Y-85800287D01*
X112689844Y-85796125D01*
X112688700Y-85791989D01*
X112687340Y-85787884D01*
X112685762Y-85783819D01*
X112683963Y-85779801D01*
X112681942Y-85775838D01*
X112652707Y-85723071D01*
X112622410Y-85670765D01*
X112591082Y-85618965D01*
X112558751Y-85567716D01*
X112525449Y-85517063D01*
X112491203Y-85467049D01*
X112456045Y-85417720D01*
X112420004Y-85369120D01*
X112417242Y-85365647D01*
X112414339Y-85362352D01*
X112411302Y-85359237D01*
X112408138Y-85356303D01*
X112404856Y-85353551D01*
X112401463Y-85350983D01*
X112397966Y-85348598D01*
X112394373Y-85346399D01*
X112390692Y-85344387D01*
X112386929Y-85342562D01*
X112383093Y-85340926D01*
X112379191Y-85339481D01*
X112375230Y-85338227D01*
X112371219Y-85337165D01*
X112367163Y-85336297D01*
X112363072Y-85335624D01*
X112358953Y-85335146D01*
X112354813Y-85334866D01*
X112350659Y-85334784D01*
X112346500Y-85334902D01*
X112342343Y-85335220D01*
X112338194Y-85335740D01*
X112334063Y-85336463D01*
X112329956Y-85337390D01*
X112325880Y-85338522D01*
X112321844Y-85339861D01*
X112317855Y-85341407D01*
X112313921Y-85343162D01*
X112310048Y-85345127D01*
X112306245Y-85347303D01*
X112302519Y-85349691D01*
X112298878Y-85352293D01*
X112295400Y-85355065D01*
X112292103Y-85357978D01*
X112288986Y-85361026D01*
X112286050Y-85364199D01*
X112283298Y-85367492D01*
X112280730Y-85370895D01*
X112278347Y-85374402D01*
X112276150Y-85378005D01*
X112274141Y-85381696D01*
X112272319Y-85385468D01*
X112270687Y-85389312D01*
X112269246Y-85393222D01*
X112267997Y-85397190D01*
X112266940Y-85401208D01*
X112266076Y-85405268D01*
X112265408Y-85409363D01*
X112264936Y-85413486D01*
X112264660Y-85417628D01*
X112264583Y-85421782D01*
X111576113Y-85421782D01*
X111503540Y-85357563D01*
X111420852Y-85290296D01*
X111335375Y-85226479D01*
X111247217Y-85166224D01*
X111156488Y-85109644D01*
X111063299Y-85056853D01*
X110967759Y-85007964D01*
X110963697Y-85006123D01*
X110959592Y-85004507D01*
X110955451Y-85003113D01*
X110951282Y-85001939D01*
X110947091Y-85000983D01*
X110942886Y-85000242D01*
X110938674Y-84999713D01*
X110934462Y-84999393D01*
X110930258Y-84999281D01*
X110926069Y-84999374D01*
X110921902Y-84999669D01*
X110917763Y-85000164D01*
X110913662Y-85000856D01*
X110909603Y-85001742D01*
X110905596Y-85002820D01*
X110901647Y-85004088D01*
X110897763Y-85005543D01*
X110893951Y-85007182D01*
X110890219Y-85009003D01*
X110886574Y-85011004D01*
X110883023Y-85013181D01*
X110879574Y-85015533D01*
X110876233Y-85018056D01*
X110873008Y-85020749D01*
X110869906Y-85023608D01*
X110866934Y-85026631D01*
X110864100Y-85029816D01*
X110861410Y-85033160D01*
X110858872Y-85036660D01*
X110856494Y-85040315D01*
X110854281Y-85044120D01*
X110852242Y-85048075D01*
X110850396Y-85052128D01*
X110848775Y-85056224D01*
X110847376Y-85060357D01*
X110846198Y-85064520D01*
X110845237Y-85068705D01*
X110844490Y-85072905D01*
X110843957Y-85077112D01*
X110843633Y-85081320D01*
X110843516Y-85085521D01*
X110843604Y-85089708D01*
X110843895Y-85093873D01*
X110844385Y-85098010D01*
X110845073Y-85102112D01*
X110845955Y-85106170D01*
X110847029Y-85110178D01*
X110848293Y-85114128D01*
X110849745Y-85118014D01*
X110851380Y-85121827D01*
X110853198Y-85125561D01*
X110855196Y-85129209D01*
X110857370Y-85132763D01*
X110859719Y-85136216D01*
X110862240Y-85139560D01*
X110864930Y-85142789D01*
X110867787Y-85145895D01*
X110870808Y-85148872D01*
X110873992Y-85151710D01*
X110877334Y-85154405D01*
X110880834Y-85156947D01*
X110884487Y-85159331D01*
X110888293Y-85161548D01*
X110892247Y-85163592D01*
X110981580Y-85209310D01*
X111068711Y-85258683D01*
X111153537Y-85311607D01*
X111235955Y-85367974D01*
X111315860Y-85427678D01*
X111393150Y-85490615D01*
X111467719Y-85556677D01*
X111539464Y-85625760D01*
X111608282Y-85697756D01*
X111674069Y-85772560D01*
X111736720Y-85850066D01*
X111796132Y-85930168D01*
X111852202Y-86012761D01*
X111904825Y-86097737D01*
X111953898Y-86184992D01*
X111999317Y-86274418D01*
X111974119Y-86293266D01*
X111949933Y-86313324D01*
X111926801Y-86334550D01*
X111904768Y-86356897D01*
X111883879Y-86380321D01*
X111864177Y-86404776D01*
X111845708Y-86430219D01*
X111828515Y-86456604D01*
X111812643Y-86483887D01*
X111798136Y-86512021D01*
X111785039Y-86540964D01*
X111773396Y-86570669D01*
X111763250Y-86601091D01*
X111754648Y-86632187D01*
X111747632Y-86663911D01*
X111742247Y-86696218D01*
X110689523Y-86696218D01*
X110685076Y-86696330D01*
X110680686Y-86696664D01*
X110676360Y-86697214D01*
X110672102Y-86697975D01*
X110667919Y-86698941D01*
X110663815Y-86700107D01*
X110659796Y-86701467D01*
X110655869Y-86703016D01*
X110652037Y-86704749D01*
X110648307Y-86706660D01*
X110644684Y-86708743D01*
X110641173Y-86710993D01*
X110637780Y-86713405D01*
X110634511Y-86715974D01*
X110631371Y-86718693D01*
X110628365Y-86721558D01*
X110625499Y-86724563D01*
X110622778Y-86727702D01*
X110620208Y-86730970D01*
X110617795Y-86734362D01*
X110615543Y-86737873D01*
X110613458Y-86741496D01*
X110611546Y-86745226D01*
X110609811Y-86749059D01*
X110608261Y-86752988D01*
X110606899Y-86757008D01*
X110605732Y-86761114D01*
X110604765Y-86765300D01*
X110604003Y-86769560D01*
X110603452Y-86773890D01*
X110603118Y-86778284D01*
X110603005Y-86782736D01*
X110237110Y-86782736D01*
X110236662Y-86780831D01*
X109977001Y-84527746D01*
X109977001Y-84489977D01*
X111131816Y-84489977D01*
X111131906Y-84494166D01*
X111132199Y-84498334D01*
X111132692Y-84502473D01*
X111133382Y-84506576D01*
X111134266Y-84510636D01*
X111135343Y-84514646D01*
X111136610Y-84518597D01*
X111138063Y-84522484D01*
X111139702Y-84526299D01*
X111141522Y-84530034D01*
X111143522Y-84533682D01*
X111145698Y-84537236D01*
X111148049Y-84540690D01*
X111150572Y-84544035D01*
X111153264Y-84547264D01*
X111156123Y-84550371D01*
X111159147Y-84553347D01*
X111162331Y-84556186D01*
X111165675Y-84558880D01*
X111169175Y-84561423D01*
X111172830Y-84563807D01*
X111176636Y-84566024D01*
X111180590Y-84568068D01*
X111227835Y-84591494D01*
X111274649Y-84615729D01*
X111321024Y-84640768D01*
X111366949Y-84666604D01*
X111412414Y-84693230D01*
X111457411Y-84720641D01*
X111501930Y-84748830D01*
X111545960Y-84777790D01*
X111589492Y-84807515D01*
X111632516Y-84838000D01*
X111675024Y-84869237D01*
X111717004Y-84901220D01*
X111758447Y-84933942D01*
X111799344Y-84967399D01*
X111839685Y-85001582D01*
X111879460Y-85036486D01*
X111882603Y-85039166D01*
X111885835Y-85041669D01*
X111889150Y-85043995D01*
X111892542Y-85046146D01*
X111896006Y-85048122D01*
X111899535Y-85049923D01*
X111903124Y-85051549D01*
X111906765Y-85053003D01*
X111910454Y-85054283D01*
X111914184Y-85055391D01*
X111917948Y-85056327D01*
X111921742Y-85057091D01*
X111925559Y-85057685D01*
X111929393Y-85058109D01*
X111933237Y-85058362D01*
X111937087Y-85058447D01*
X111941530Y-85058333D01*
X111945964Y-85057991D01*
X111950378Y-85057422D01*
X111954763Y-85056626D01*
X111959110Y-85055604D01*
X111963408Y-85054356D01*
X111967648Y-85052882D01*
X111971820Y-85051184D01*
X111975914Y-85049261D01*
X111979922Y-85047114D01*
X111983832Y-85044744D01*
X111987636Y-85042150D01*
X111991324Y-85039334D01*
X111994885Y-85036295D01*
X111998311Y-85033035D01*
X112001592Y-85029554D01*
X112004466Y-85026161D01*
X112007137Y-85022664D01*
X112009605Y-85019070D01*
X112011870Y-85015388D01*
X112013933Y-85011625D01*
X112015794Y-85007789D01*
X112017453Y-85003887D01*
X112018911Y-84999927D01*
X112020169Y-84995917D01*
X112021226Y-84991865D01*
X112022084Y-84987778D01*
X112022741Y-84983663D01*
X112023200Y-84979529D01*
X112023461Y-84975383D01*
X112023523Y-84971233D01*
X112023387Y-84967086D01*
X112023054Y-84962950D01*
X112022524Y-84958834D01*
X112021798Y-84954744D01*
X112020875Y-84950688D01*
X112019757Y-84946673D01*
X112018443Y-84942709D01*
X112016935Y-84938801D01*
X112015232Y-84934959D01*
X112013335Y-84931189D01*
X112011245Y-84927499D01*
X112008961Y-84923897D01*
X112006485Y-84920391D01*
X112003816Y-84916988D01*
X112000956Y-84913696D01*
X111997903Y-84910522D01*
X111994660Y-84907475D01*
X111909978Y-84834462D01*
X111822951Y-84764523D01*
X111733658Y-84697711D01*
X111642182Y-84634082D01*
X111548603Y-84573686D01*
X111453000Y-84516578D01*
X111355455Y-84462812D01*
X111256049Y-84412440D01*
X111251987Y-84410599D01*
X111247882Y-84408983D01*
X111243741Y-84407589D01*
X111239571Y-84406415D01*
X111235381Y-84405459D01*
X111231176Y-84404717D01*
X111226964Y-84404188D01*
X111222752Y-84403869D01*
X111218548Y-84403756D01*
X111214359Y-84403849D01*
X111210191Y-84404143D01*
X111206053Y-84404637D01*
X111201951Y-84405328D01*
X111197893Y-84406213D01*
X111193886Y-84407291D01*
X111189936Y-84408558D01*
X111186052Y-84410011D01*
X111182241Y-84411649D01*
X111178509Y-84413468D01*
X111174864Y-84415467D01*
X111171313Y-84417642D01*
X111167864Y-84419992D01*
X111164523Y-84422513D01*
X111161298Y-84425202D01*
X111158196Y-84428059D01*
X111155224Y-84431079D01*
X111152389Y-84434260D01*
X111149700Y-84437600D01*
X111147162Y-84441097D01*
X111144783Y-84444747D01*
X111142571Y-84448548D01*
X111140532Y-84452498D01*
X111138686Y-84456555D01*
X111137065Y-84460656D01*
X111135667Y-84464794D01*
X111134490Y-84468960D01*
X111133530Y-84473149D01*
X111132785Y-84477352D01*
X111132253Y-84481563D01*
X111131931Y-84485773D01*
X111131816Y-84489977D01*
X109977001Y-84489977D01*
X109977001Y-84342855D01*
X109996152Y-84334269D01*
X110014529Y-84324347D01*
X110032070Y-84313151D01*
X110048710Y-84300744D01*
X110064386Y-84287187D01*
X110079033Y-84272544D01*
X110092587Y-84256875D01*
X110104986Y-84240243D01*
X110116165Y-84222710D01*
X110126061Y-84204338D01*
X110134609Y-84185189D01*
X110141746Y-84165325D01*
X110147408Y-84144809D01*
X110151531Y-84123702D01*
X110154052Y-84102067D01*
X110154906Y-84079965D01*
X110154536Y-84065384D01*
X110153438Y-84050991D01*
X110151629Y-84036806D01*
X110149128Y-84022845D01*
X110145952Y-84009127D01*
X110142121Y-83995670D01*
X110137650Y-83982491D01*
X110132560Y-83969609D01*
X110126867Y-83957042D01*
X110120590Y-83944808D01*
X110113746Y-83932923D01*
X110106354Y-83921408D01*
X110098432Y-83910279D01*
X110089997Y-83899554D01*
X110081068Y-83889252D01*
X110071662Y-83879391D01*
X110061798Y-83869988D01*
X110051493Y-83861061D01*
X110040766Y-83852628D01*
X110029635Y-83844708D01*
X110018117Y-83837319D01*
X110006231Y-83830477D01*
X109993994Y-83824202D01*
X109981425Y-83818511D01*
X109968541Y-83813422D01*
X109955361Y-83808954D01*
X109941902Y-83805123D01*
X109928183Y-83801949D01*
X109914222Y-83799449D01*
X109900035Y-83797641D01*
X109885643Y-83796543D01*
X109871061Y-83796173D01*
X109856485Y-83796543D01*
X109842097Y-83797641D01*
X109827916Y-83799449D01*
X109813959Y-83801949D01*
X109800245Y-83805123D01*
X109786791Y-83808954D01*
X109773616Y-83813422D01*
X109760737Y-83818511D01*
X109748172Y-83824202D01*
X109735940Y-83830477D01*
X109724058Y-83837319D01*
X109712545Y-83844708D01*
X109701417Y-83852628D01*
X109690695Y-83861061D01*
X109680394Y-83869988D01*
X109670534Y-83879391D01*
X109661132Y-83889252D01*
X109652206Y-83899554D01*
X109643774Y-83910279D01*
X109635855Y-83921408D01*
X109628466Y-83932923D01*
X109621625Y-83944808D01*
X109615350Y-83957042D01*
X109609660Y-83969609D01*
X109604571Y-83982491D01*
X109600103Y-83995670D01*
X109596273Y-84009127D01*
X109593099Y-84022845D01*
X109590598Y-84036806D01*
X109588790Y-84050991D01*
X109587692Y-84065384D01*
X109587322Y-84079965D01*
X109587537Y-84091055D01*
X109588174Y-84102038D01*
X109589226Y-84112904D01*
X109590686Y-84123647D01*
X109592545Y-84134258D01*
X109594795Y-84144730D01*
X109597429Y-84155055D01*
X109600438Y-84165226D01*
X109603815Y-84175233D01*
X109607552Y-84185071D01*
X109611641Y-84194730D01*
X109616073Y-84204203D01*
X109620842Y-84213483D01*
X109625938Y-84222562D01*
X109631355Y-84231431D01*
X109637084Y-84240084D01*
X109643117Y-84248512D01*
X109649447Y-84256707D01*
X109656065Y-84264662D01*
X109662964Y-84272370D01*
X109670135Y-84279822D01*
X109677571Y-84287010D01*
X109685264Y-84293927D01*
X109693206Y-84300565D01*
X109701389Y-84306916D01*
X109709805Y-84312973D01*
X109718446Y-84318728D01*
X109727304Y-84324173D01*
X109736372Y-84329299D01*
X109745641Y-84334101D01*
X109755104Y-84338569D01*
X109764752Y-84342696D01*
X109764752Y-84527851D01*
X109505037Y-86780831D01*
X109427197Y-87112036D01*
X109126895Y-87611305D01*
X109126895Y-88352826D01*
X109000000Y-88600000D01*
X107858847Y-88600000D01*
X107819907Y-88537483D01*
X107778682Y-88465941D01*
X107739846Y-88392871D01*
X107703437Y-88318325D01*
X107728557Y-88299480D01*
X107752670Y-88279428D01*
X107775732Y-88258215D01*
X107797699Y-88235885D01*
X107818527Y-88212481D01*
X107838171Y-88188051D01*
X107856586Y-88162637D01*
X107873730Y-88136285D01*
X107889557Y-88109039D01*
X107904023Y-88080944D01*
X107917084Y-88052045D01*
X107928696Y-88022387D01*
X107938814Y-87992014D01*
X107947395Y-87960972D01*
X107954393Y-87929304D01*
X107959766Y-87897055D01*
X108774682Y-87897055D01*
X108779135Y-87896942D01*
X108783528Y-87896608D01*
X108787858Y-87896057D01*
X108792119Y-87895295D01*
X108796305Y-87894328D01*
X108800411Y-87893161D01*
X108804431Y-87891799D01*
X108808360Y-87890249D01*
X108812192Y-87888514D01*
X108815923Y-87886602D01*
X108819546Y-87884517D01*
X108823056Y-87882265D01*
X108826448Y-87879851D01*
X108829717Y-87877281D01*
X108832856Y-87874561D01*
X108835861Y-87871695D01*
X108838725Y-87868689D01*
X108841445Y-87865548D01*
X108844013Y-87862279D01*
X108846425Y-87858887D01*
X108848676Y-87855376D01*
X108850759Y-87851753D01*
X108852669Y-87848023D01*
X108854402Y-87844191D01*
X108855951Y-87840263D01*
X108857311Y-87836245D01*
X108858477Y-87832141D01*
X108859443Y-87827958D01*
X108860204Y-87823700D01*
X108860754Y-87819374D01*
X108861088Y-87814984D01*
X108861201Y-87810536D01*
X108861088Y-87806084D01*
X108860754Y-87801690D01*
X108860204Y-87797360D01*
X108859443Y-87793099D01*
X108858477Y-87788914D01*
X108857311Y-87784808D01*
X108855951Y-87780788D01*
X108854402Y-87776859D01*
X108852669Y-87773026D01*
X108850759Y-87769296D01*
X108848676Y-87765673D01*
X108846425Y-87762162D01*
X108844013Y-87758770D01*
X108841445Y-87755502D01*
X108838725Y-87752363D01*
X108835861Y-87749358D01*
X108832856Y-87746493D01*
X108829717Y-87743774D01*
X108826448Y-87741205D01*
X108823056Y-87738793D01*
X108819546Y-87736543D01*
X108815923Y-87734460D01*
X108812192Y-87732549D01*
X108808360Y-87730816D01*
X108804431Y-87729267D01*
X108800411Y-87727907D01*
X108796305Y-87726741D01*
X108792119Y-87725775D01*
X108787858Y-87725014D01*
X108783528Y-87724464D01*
X108779135Y-87724130D01*
X108774682Y-87724017D01*
X107959766Y-87724017D01*
X107955164Y-87695828D01*
X107949316Y-87668071D01*
X107942253Y-87640778D01*
X107934003Y-87613979D01*
X107924597Y-87587705D01*
X107914065Y-87561984D01*
X107902436Y-87536848D01*
X107889741Y-87512328D01*
X107876010Y-87488452D01*
X107861272Y-87465252D01*
X107845558Y-87442758D01*
X107828897Y-87421000D01*
X107811319Y-87400008D01*
X107792854Y-87379813D01*
X107773533Y-87360444D01*
X107753384Y-87341933D01*
X107732439Y-87324309D01*
X107710726Y-87307603D01*
X107688277Y-87291844D01*
X107665120Y-87277064D01*
X107641286Y-87263292D01*
X107616804Y-87250559D01*
X107591705Y-87238895D01*
X107566019Y-87228331D01*
X107539775Y-87218895D01*
X107513003Y-87210620D01*
X107485734Y-87203535D01*
X107457997Y-87197670D01*
X107429822Y-87193056D01*
X107401239Y-87189722D01*
X107372278Y-87187700D01*
X107342969Y-87187019D01*
X107310937Y-87187832D01*
X107279320Y-87190244D01*
X107248156Y-87194217D01*
X107217487Y-87199710D01*
X107187350Y-87206684D01*
X107157787Y-87215099D01*
X107128835Y-87224917D01*
X107100535Y-87236097D01*
X107072926Y-87248600D01*
X107046048Y-87262387D01*
X107019939Y-87277418D01*
X106994641Y-87293654D01*
X106970191Y-87311054D01*
X106946630Y-87329581D01*
X106923997Y-87349193D01*
X106902332Y-87369853D01*
X106881674Y-87391519D01*
X106862062Y-87414154D01*
X106843537Y-87437716D01*
X106826137Y-87462168D01*
X106809902Y-87487468D01*
X106794871Y-87513579D01*
X106781085Y-87540460D01*
X106768582Y-87568071D01*
X106757402Y-87596374D01*
X106747585Y-87625329D01*
X106739169Y-87654896D01*
X106732195Y-87685036D01*
X106726703Y-87715710D01*
X106722730Y-87746877D01*
X106720318Y-87778499D01*
X106719505Y-87810536D01*
X106276814Y-87810536D01*
X106271804Y-87775690D01*
X106256641Y-87627671D01*
X106247454Y-87477956D01*
X106244366Y-87326666D01*
X106249100Y-87139407D01*
X106263152Y-86954608D01*
X106286293Y-86772495D01*
X106292109Y-86739926D01*
X106503235Y-86739926D01*
X106503348Y-86744374D01*
X106503682Y-86748764D01*
X106504233Y-86753090D01*
X106504995Y-86757348D01*
X106505962Y-86761531D01*
X106507129Y-86765635D01*
X106508491Y-86769654D01*
X106510041Y-86773581D01*
X106511775Y-86777413D01*
X106513688Y-86781143D01*
X106515773Y-86784766D01*
X106518025Y-86788277D01*
X106520438Y-86791669D01*
X106523008Y-86794939D01*
X106525729Y-86798079D01*
X106528595Y-86801085D01*
X106531601Y-86803951D01*
X106534741Y-86806672D01*
X106538011Y-86809242D01*
X106541403Y-86811655D01*
X106544914Y-86813907D01*
X106548537Y-86815992D01*
X106552267Y-86817904D01*
X106556099Y-86819639D01*
X106560027Y-86821189D01*
X106564045Y-86822551D01*
X106568149Y-86823718D01*
X106572332Y-86824685D01*
X106576590Y-86825447D01*
X106580916Y-86825998D01*
X106585306Y-86826332D01*
X106589754Y-86826445D01*
X108925971Y-86826445D01*
X108930419Y-86826332D01*
X108934809Y-86825998D01*
X108939135Y-86825447D01*
X108943393Y-86824685D01*
X108947576Y-86823718D01*
X108951680Y-86822551D01*
X108955699Y-86821189D01*
X108959626Y-86819639D01*
X108963458Y-86817904D01*
X108967188Y-86815992D01*
X108970811Y-86813907D01*
X108974322Y-86811655D01*
X108977715Y-86809242D01*
X108980984Y-86806672D01*
X108984124Y-86803951D01*
X108987130Y-86801085D01*
X108989996Y-86798079D01*
X108992717Y-86794939D01*
X108995287Y-86791669D01*
X108997700Y-86788277D01*
X108999952Y-86784766D01*
X109002037Y-86781143D01*
X109003950Y-86777413D01*
X109005684Y-86773581D01*
X109007234Y-86769654D01*
X109008596Y-86765635D01*
X109009763Y-86761531D01*
X109010730Y-86757348D01*
X109011492Y-86753090D01*
X109012043Y-86748764D01*
X109012378Y-86744374D01*
X109012490Y-86739926D01*
X109012490Y-85980360D01*
X109012378Y-85975913D01*
X109012043Y-85971524D01*
X109011492Y-85967198D01*
X109010730Y-85962941D01*
X109009763Y-85958759D01*
X109008596Y-85954657D01*
X109007234Y-85950640D01*
X109005684Y-85946714D01*
X109003950Y-85942884D01*
X109002037Y-85939156D01*
X108999952Y-85935535D01*
X108997700Y-85932027D01*
X108995287Y-85928636D01*
X108992717Y-85925370D01*
X108989996Y-85922232D01*
X108987130Y-85919229D01*
X108984124Y-85916365D01*
X108980984Y-85913647D01*
X108977715Y-85911079D01*
X108974322Y-85908668D01*
X108970811Y-85906418D01*
X108967188Y-85904335D01*
X108963458Y-85902425D01*
X108959626Y-85900693D01*
X108955699Y-85899144D01*
X108951680Y-85897784D01*
X108947576Y-85896618D01*
X108943393Y-85895652D01*
X108939135Y-85894892D01*
X108934809Y-85894341D01*
X108930419Y-85894007D01*
X108925971Y-85893895D01*
X108921524Y-85894007D01*
X108917134Y-85894341D01*
X108912808Y-85894892D01*
X108908550Y-85895652D01*
X108904366Y-85896618D01*
X108900263Y-85897784D01*
X108896244Y-85899144D01*
X108892316Y-85900693D01*
X108888485Y-85902425D01*
X108884755Y-85904335D01*
X108881131Y-85906418D01*
X108877621Y-85908668D01*
X108874228Y-85911079D01*
X108870959Y-85913647D01*
X108867819Y-85916365D01*
X108864813Y-85919229D01*
X108861947Y-85922232D01*
X108859226Y-85925370D01*
X108856656Y-85928636D01*
X108854242Y-85932027D01*
X108851990Y-85935535D01*
X108849906Y-85939156D01*
X108847993Y-85942884D01*
X108846259Y-85946714D01*
X108844708Y-85950640D01*
X108843347Y-85954657D01*
X108842180Y-85958759D01*
X108841213Y-85962941D01*
X108840451Y-85967198D01*
X108839900Y-85971524D01*
X108839565Y-85975913D01*
X108839453Y-85980360D01*
X108839453Y-86653408D01*
X106589754Y-86653408D01*
X106585306Y-86653520D01*
X106580916Y-86653854D01*
X106576590Y-86654404D01*
X106572332Y-86655165D01*
X106568149Y-86656131D01*
X106564045Y-86657297D01*
X106560027Y-86658657D01*
X106556099Y-86660206D01*
X106552267Y-86661939D01*
X106548537Y-86663850D01*
X106544914Y-86665933D01*
X106541403Y-86668183D01*
X106538011Y-86670596D01*
X106534741Y-86673164D01*
X106531601Y-86675883D01*
X106528595Y-86678748D01*
X106525729Y-86681753D01*
X106523008Y-86684892D01*
X106520438Y-86688160D01*
X106518025Y-86691553D01*
X106515773Y-86695063D01*
X106513688Y-86698686D01*
X106511775Y-86702417D01*
X106510041Y-86706249D01*
X106508491Y-86710178D01*
X106507129Y-86714198D01*
X106505962Y-86718304D01*
X106504995Y-86722490D01*
X106504233Y-86726750D01*
X106503682Y-86731080D01*
X106503348Y-86735474D01*
X106503235Y-86739926D01*
X106292109Y-86739926D01*
X106318293Y-86593298D01*
X106358925Y-86417246D01*
X106407959Y-86244567D01*
X106428925Y-86182604D01*
X107560944Y-86182604D01*
X107560956Y-86186795D01*
X107561172Y-86190968D01*
X107561588Y-86195116D01*
X107562201Y-86199233D01*
X107563010Y-86203309D01*
X107564013Y-86207339D01*
X107565206Y-86211315D01*
X107566587Y-86215230D01*
X107568153Y-86219076D01*
X107569904Y-86222846D01*
X107571835Y-86226532D01*
X107573944Y-86230128D01*
X107576230Y-86233626D01*
X107578690Y-86237019D01*
X107581320Y-86240299D01*
X107584120Y-86243459D01*
X107587086Y-86246493D01*
X107590216Y-86249391D01*
X107593507Y-86252148D01*
X107596958Y-86254756D01*
X107600565Y-86257208D01*
X107604326Y-86259496D01*
X107608240Y-86261613D01*
X107610610Y-86262764D01*
X107612996Y-86263838D01*
X107615396Y-86264835D01*
X107617811Y-86265755D01*
X107620237Y-86266599D01*
X107622674Y-86267367D01*
X107625120Y-86268059D01*
X107627575Y-86268677D01*
X107630036Y-86269220D01*
X107632503Y-86269690D01*
X107634974Y-86270086D01*
X107637448Y-86270408D01*
X107639923Y-86270659D01*
X107642399Y-86270837D01*
X107644873Y-86270943D01*
X107647346Y-86270979D01*
X107650298Y-86270928D01*
X107653242Y-86270777D01*
X107656173Y-86270526D01*
X107659091Y-86270177D01*
X107661991Y-86269729D01*
X107664871Y-86269184D01*
X107667729Y-86268543D01*
X107670563Y-86267806D01*
X107673369Y-86266975D01*
X107676145Y-86266050D01*
X107678889Y-86265032D01*
X107681598Y-86263922D01*
X107684270Y-86262720D01*
X107686901Y-86261428D01*
X107689490Y-86260047D01*
X107692034Y-86258577D01*
X107694529Y-86257018D01*
X107696975Y-86255373D01*
X107699368Y-86253642D01*
X107701705Y-86251825D01*
X107703984Y-86249924D01*
X107706203Y-86247939D01*
X107708359Y-86245871D01*
X107710449Y-86243721D01*
X107712470Y-86241490D01*
X107714421Y-86239179D01*
X107716299Y-86236788D01*
X107718101Y-86234318D01*
X107719824Y-86231771D01*
X107721467Y-86229147D01*
X107723025Y-86226447D01*
X107724498Y-86223671D01*
X107772162Y-86134632D01*
X107823425Y-86047956D01*
X107878184Y-85963733D01*
X107936332Y-85882056D01*
X107997766Y-85803017D01*
X108062379Y-85726706D01*
X108130068Y-85653217D01*
X108200728Y-85582639D01*
X108274253Y-85515065D01*
X108350538Y-85450587D01*
X108429480Y-85389296D01*
X108510972Y-85331283D01*
X108594911Y-85276641D01*
X108681190Y-85225461D01*
X108769706Y-85177834D01*
X108860354Y-85133853D01*
X108871096Y-85146106D01*
X108882450Y-85157782D01*
X108894392Y-85168853D01*
X108906899Y-85179288D01*
X108919946Y-85189057D01*
X108933508Y-85198133D01*
X108947563Y-85206484D01*
X108962086Y-85214081D01*
X108977053Y-85220895D01*
X108992440Y-85226897D01*
X109008223Y-85232056D01*
X109024377Y-85236343D01*
X109040880Y-85239729D01*
X109057706Y-85242184D01*
X109074833Y-85243679D01*
X109092235Y-85244184D01*
X109107807Y-85243789D01*
X109123178Y-85242617D01*
X109138328Y-85240686D01*
X109153238Y-85238016D01*
X109167889Y-85234627D01*
X109182261Y-85230537D01*
X109196337Y-85225766D01*
X109210095Y-85220332D01*
X109223517Y-85214255D01*
X109236585Y-85207555D01*
X109249277Y-85200249D01*
X109261577Y-85192358D01*
X109273463Y-85183901D01*
X109284918Y-85174897D01*
X109295921Y-85165365D01*
X109306454Y-85155324D01*
X109316498Y-85144793D01*
X109326033Y-85133792D01*
X109335039Y-85122340D01*
X109343499Y-85110456D01*
X109351392Y-85098159D01*
X109358699Y-85085468D01*
X109365402Y-85072403D01*
X109371481Y-85058982D01*
X109376916Y-85045226D01*
X109381689Y-85031152D01*
X109385781Y-85016781D01*
X109389171Y-85002131D01*
X109391842Y-84987222D01*
X109393773Y-84972073D01*
X109394946Y-84956702D01*
X109395341Y-84941130D01*
X109394946Y-84925558D01*
X109393773Y-84910188D01*
X109391842Y-84895038D01*
X109389171Y-84880129D01*
X109385781Y-84865480D01*
X109381689Y-84851108D01*
X109376916Y-84837035D01*
X109371481Y-84823278D01*
X109365402Y-84809858D01*
X109358699Y-84796792D01*
X109351392Y-84784102D01*
X109343499Y-84771805D01*
X109335039Y-84759920D01*
X109326033Y-84748468D01*
X109316498Y-84737467D01*
X109306454Y-84726937D01*
X109295921Y-84716896D01*
X109284918Y-84707364D01*
X109273463Y-84698359D01*
X109261577Y-84689902D01*
X109249277Y-84682011D01*
X109236585Y-84674706D01*
X109223517Y-84668005D01*
X109210095Y-84661929D01*
X109196337Y-84656495D01*
X109182261Y-84651724D01*
X109167889Y-84647634D01*
X109153238Y-84644244D01*
X109138328Y-84641575D01*
X109123178Y-84639644D01*
X109107807Y-84638472D01*
X109092235Y-84638076D01*
X109092234Y-84638077D01*
X109076667Y-84638472D01*
X109061301Y-84639644D01*
X109046155Y-84641575D01*
X109031249Y-84644244D01*
X109016601Y-84647634D01*
X109002232Y-84651724D01*
X108988160Y-84656495D01*
X108974405Y-84661929D01*
X108960985Y-84668006D01*
X108947920Y-84674706D01*
X108935230Y-84682012D01*
X108922932Y-84689902D01*
X108911048Y-84698360D01*
X108899595Y-84707364D01*
X108888593Y-84716896D01*
X108878061Y-84726937D01*
X108868019Y-84737468D01*
X108858485Y-84748469D01*
X108849479Y-84759921D01*
X108841020Y-84771805D01*
X108833128Y-84784102D01*
X108825821Y-84796793D01*
X108819119Y-84809858D01*
X108813040Y-84823278D01*
X108807605Y-84837035D01*
X108802832Y-84851109D01*
X108798741Y-84865480D01*
X108795351Y-84880130D01*
X108792680Y-84895039D01*
X108790749Y-84910188D01*
X108789576Y-84925558D01*
X108789181Y-84941131D01*
X108789205Y-84943277D01*
X108789274Y-84945411D01*
X108789531Y-84949648D01*
X108789918Y-84953851D01*
X108790398Y-84958031D01*
X108792567Y-84974733D01*
X108695013Y-85021839D01*
X108599751Y-85072884D01*
X108506895Y-85127766D01*
X108416558Y-85186388D01*
X108328855Y-85248648D01*
X108243898Y-85314449D01*
X108161801Y-85383691D01*
X108082678Y-85456274D01*
X108006641Y-85532099D01*
X107933805Y-85611067D01*
X107864283Y-85693077D01*
X107798188Y-85778032D01*
X107735634Y-85865831D01*
X107676734Y-85956376D01*
X107621602Y-86049565D01*
X107570352Y-86145302D01*
X107568431Y-86149322D01*
X107566734Y-86153390D01*
X107565260Y-86157499D01*
X107564006Y-86161642D01*
X107562968Y-86165811D01*
X107562146Y-86169999D01*
X107561536Y-86174199D01*
X107561136Y-86178403D01*
X107560944Y-86182604D01*
X106428925Y-86182604D01*
X106465168Y-86075489D01*
X106530321Y-85910242D01*
X106560599Y-85843268D01*
X106972394Y-85843268D01*
X106972557Y-85847441D01*
X106972919Y-85851592D01*
X106973480Y-85855714D01*
X106974237Y-85859798D01*
X106975188Y-85863838D01*
X106976329Y-85867827D01*
X106977660Y-85871756D01*
X106979177Y-85875619D01*
X106980879Y-85879408D01*
X106982763Y-85883116D01*
X106984827Y-85886735D01*
X106987068Y-85890259D01*
X106989485Y-85893680D01*
X106992075Y-85896989D01*
X106994835Y-85900182D01*
X106997764Y-85903248D01*
X107000859Y-85906182D01*
X107004119Y-85908977D01*
X107007539Y-85911624D01*
X107011120Y-85914116D01*
X107014857Y-85916446D01*
X107018749Y-85918607D01*
X107021161Y-85919825D01*
X107023593Y-85920961D01*
X107026045Y-85922015D01*
X107028513Y-85922988D01*
X107030996Y-85923880D01*
X107033493Y-85924691D01*
X107036002Y-85925423D01*
X107038520Y-85926075D01*
X107041046Y-85926648D01*
X107043579Y-85927143D01*
X107046116Y-85927561D01*
X107048656Y-85927901D01*
X107051197Y-85928165D01*
X107053737Y-85928353D01*
X107056274Y-85928465D01*
X107058807Y-85928502D01*
X107061726Y-85928453D01*
X107064635Y-85928306D01*
X107067534Y-85928062D01*
X107070419Y-85927722D01*
X107073287Y-85927285D01*
X107076137Y-85926755D01*
X107078966Y-85926130D01*
X107081771Y-85925412D01*
X107084550Y-85924601D01*
X107087300Y-85923698D01*
X107090019Y-85922705D01*
X107092704Y-85921621D01*
X107095353Y-85920447D01*
X107097964Y-85919185D01*
X107100533Y-85917835D01*
X107103058Y-85916397D01*
X107105538Y-85914874D01*
X107107968Y-85913264D01*
X107110348Y-85911569D01*
X107112673Y-85909790D01*
X107114943Y-85907928D01*
X107117154Y-85905983D01*
X107119303Y-85903955D01*
X107121389Y-85901847D01*
X107123409Y-85899658D01*
X107125360Y-85897390D01*
X107127239Y-85895042D01*
X107129046Y-85892617D01*
X107130775Y-85890114D01*
X107132427Y-85887534D01*
X107133997Y-85884878D01*
X107135483Y-85882147D01*
X107159570Y-85837099D01*
X107184399Y-85792468D01*
X107209965Y-85748264D01*
X107236261Y-85704494D01*
X107263281Y-85661170D01*
X107291018Y-85618299D01*
X107348618Y-85533956D01*
X107409011Y-85451537D01*
X107472147Y-85371116D01*
X107504727Y-85331678D01*
X107537974Y-85292767D01*
X107571881Y-85254392D01*
X107606441Y-85216562D01*
X107609386Y-85213226D01*
X107612129Y-85209782D01*
X107614670Y-85206237D01*
X107617009Y-85202599D01*
X107619147Y-85198877D01*
X107621084Y-85195076D01*
X107622820Y-85191206D01*
X107624356Y-85187275D01*
X107625692Y-85183288D01*
X107626828Y-85179255D01*
X107627765Y-85175184D01*
X107628502Y-85171080D01*
X107629041Y-85166954D01*
X107629381Y-85162811D01*
X107629523Y-85158661D01*
X107629467Y-85154510D01*
X107629213Y-85150366D01*
X107628762Y-85146238D01*
X107628114Y-85142132D01*
X107627269Y-85138056D01*
X107626227Y-85134019D01*
X107624990Y-85130027D01*
X107623556Y-85126089D01*
X107621927Y-85122212D01*
X107620103Y-85118404D01*
X107618084Y-85114672D01*
X107615870Y-85111025D01*
X107613461Y-85107470D01*
X107610859Y-85104015D01*
X107608063Y-85100667D01*
X107605073Y-85097434D01*
X107601890Y-85094324D01*
X107598550Y-85091384D01*
X107595102Y-85088646D01*
X107591555Y-85086109D01*
X107587915Y-85083774D01*
X107584191Y-85081639D01*
X107580390Y-85079705D01*
X107576520Y-85077972D01*
X107572589Y-85076438D01*
X107568603Y-85075104D01*
X107564572Y-85073970D01*
X107560502Y-85073034D01*
X107556400Y-85072297D01*
X107552276Y-85071759D01*
X107548136Y-85071419D01*
X107543988Y-85071277D01*
X107539839Y-85071332D01*
X107535698Y-85071584D01*
X107531572Y-85072033D01*
X107527468Y-85072679D01*
X107523395Y-85073521D01*
X107519359Y-85074559D01*
X107515369Y-85075793D01*
X107511432Y-85077222D01*
X107507556Y-85078846D01*
X107503749Y-85080665D01*
X107500017Y-85082678D01*
X107496369Y-85084885D01*
X107492813Y-85087286D01*
X107489355Y-85089881D01*
X107486004Y-85092668D01*
X107482768Y-85095649D01*
X107479654Y-85098822D01*
X107407349Y-85179315D01*
X107337832Y-85262074D01*
X107271157Y-85347022D01*
X107207377Y-85434082D01*
X107146546Y-85523179D01*
X107088719Y-85614236D01*
X107033949Y-85707177D01*
X106982289Y-85801925D01*
X106980323Y-85805917D01*
X106978580Y-85809960D01*
X106977057Y-85814047D01*
X106975754Y-85818171D01*
X106974666Y-85822324D01*
X106973793Y-85826498D01*
X106973131Y-85830687D01*
X106972679Y-85834883D01*
X106972434Y-85839079D01*
X106972394Y-85843268D01*
X106560599Y-85843268D01*
X106603192Y-85749053D01*
X106683551Y-85592152D01*
X106771169Y-85439767D01*
X106865819Y-85292127D01*
X106967270Y-85149460D01*
X107075296Y-85011996D01*
X107189666Y-84879962D01*
X107284411Y-84780587D01*
X107875249Y-84780587D01*
X107875361Y-84784745D01*
X107875673Y-84788901D01*
X107876187Y-84793047D01*
X107876902Y-84797175D01*
X107877821Y-84801278D01*
X107878944Y-84805348D01*
X107880272Y-84809378D01*
X107881807Y-84813360D01*
X107883549Y-84817285D01*
X107885500Y-84821148D01*
X107887660Y-84824940D01*
X107890031Y-84828653D01*
X107892614Y-84832281D01*
X107895902Y-84836392D01*
X107899386Y-84840251D01*
X107903055Y-84843855D01*
X107906896Y-84847204D01*
X107910896Y-84850295D01*
X107915042Y-84853127D01*
X107919321Y-84855697D01*
X107923722Y-84858005D01*
X107928232Y-84860048D01*
X107932837Y-84861824D01*
X107937526Y-84863331D01*
X107942285Y-84864569D01*
X107947103Y-84865535D01*
X107951965Y-84866227D01*
X107956861Y-84866643D01*
X107961776Y-84866782D01*
X107965162Y-84866717D01*
X107968549Y-84866519D01*
X107971934Y-84866187D01*
X107975312Y-84865723D01*
X107978679Y-84865123D01*
X107982029Y-84864388D01*
X107985359Y-84863517D01*
X107988665Y-84862509D01*
X107991941Y-84861364D01*
X107995184Y-84860080D01*
X107998388Y-84858657D01*
X108001551Y-84857094D01*
X108004666Y-84855390D01*
X108007731Y-84853544D01*
X108010739Y-84851557D01*
X108013688Y-84849426D01*
X108046360Y-84825207D01*
X108079427Y-84801379D01*
X108112858Y-84777960D01*
X108146621Y-84754970D01*
X108180683Y-84732425D01*
X108215015Y-84710346D01*
X108249583Y-84688750D01*
X108284356Y-84667657D01*
X108288120Y-84665282D01*
X108291719Y-84662747D01*
X108295154Y-84660059D01*
X108298420Y-84657224D01*
X108301518Y-84654252D01*
X108304444Y-84651149D01*
X108307197Y-84647923D01*
X108309775Y-84644581D01*
X108312177Y-84641131D01*
X108314399Y-84637580D01*
X108316441Y-84633936D01*
X108318301Y-84630205D01*
X108319977Y-84626397D01*
X108321466Y-84622517D01*
X108322767Y-84618574D01*
X108323878Y-84614575D01*
X108324798Y-84610527D01*
X108325524Y-84606439D01*
X108326054Y-84602316D01*
X108326387Y-84598168D01*
X108326521Y-84594001D01*
X108326454Y-84589823D01*
X108326183Y-84585641D01*
X108325708Y-84581463D01*
X108325026Y-84577296D01*
X108324136Y-84573148D01*
X108323035Y-84569026D01*
X108321721Y-84564938D01*
X108320194Y-84560891D01*
X108318450Y-84556892D01*
X108316488Y-84552950D01*
X108314307Y-84549071D01*
X108311932Y-84545302D01*
X108309398Y-84541698D01*
X108306710Y-84538260D01*
X108303877Y-84534989D01*
X108300905Y-84531888D01*
X108297804Y-84528959D01*
X108294579Y-84526203D01*
X108291238Y-84523623D01*
X108287789Y-84521219D01*
X108284239Y-84518995D01*
X108280596Y-84516952D01*
X108276867Y-84515091D01*
X108273059Y-84513416D01*
X108269180Y-84511927D01*
X108265237Y-84510626D01*
X108261238Y-84509516D01*
X108257191Y-84508598D01*
X108253102Y-84507874D01*
X108248978Y-84507346D01*
X108244829Y-84507015D01*
X108240660Y-84506885D01*
X108236480Y-84506956D01*
X108232295Y-84507231D01*
X108228113Y-84507711D01*
X108223943Y-84508399D01*
X108219790Y-84509296D01*
X108215662Y-84510403D01*
X108211568Y-84511724D01*
X108207514Y-84513259D01*
X108203508Y-84515011D01*
X108199557Y-84516982D01*
X108195668Y-84519173D01*
X108158955Y-84541436D01*
X108122457Y-84564240D01*
X108086206Y-84587561D01*
X108050233Y-84611380D01*
X108014571Y-84635675D01*
X107979250Y-84660426D01*
X107944302Y-84685610D01*
X107909759Y-84711207D01*
X107906267Y-84713970D01*
X107902955Y-84716874D01*
X107899825Y-84719912D01*
X107896877Y-84723077D01*
X107894112Y-84726361D01*
X107891532Y-84729757D01*
X107889137Y-84733256D01*
X107886929Y-84736852D01*
X107884908Y-84740537D01*
X107883076Y-84744302D01*
X107881434Y-84748141D01*
X107879982Y-84752046D01*
X107878723Y-84756009D01*
X107877656Y-84760023D01*
X107876782Y-84764080D01*
X107876104Y-84768172D01*
X107875622Y-84772293D01*
X107875337Y-84776433D01*
X107875249Y-84780587D01*
X107284411Y-84780587D01*
X107310153Y-84753587D01*
X107436528Y-84633100D01*
X107568562Y-84518729D01*
X107706027Y-84410704D01*
X107848694Y-84309252D01*
X107996334Y-84214603D01*
X108148718Y-84126984D01*
X108305619Y-84046625D01*
X108466808Y-83973755D01*
X108632055Y-83908601D01*
X108801133Y-83851392D01*
X108973812Y-83802358D01*
X109149865Y-83761726D01*
X109329062Y-83729726D01*
X109511174Y-83706585D01*
X109695974Y-83692533D01*
X109883232Y-83687799D01*
X109883233Y-83687799D01*
X110070487Y-83692533D01*
G37*
G36*
X109098930Y-84811188D02*
G01*
X109105529Y-84811692D01*
X109112033Y-84812521D01*
X109118434Y-84813667D01*
X109124723Y-84815122D01*
X109130892Y-84816878D01*
X109136933Y-84818927D01*
X109142838Y-84821260D01*
X109148599Y-84823869D01*
X109154206Y-84826746D01*
X109159653Y-84829882D01*
X109164931Y-84833270D01*
X109170031Y-84836902D01*
X109174946Y-84840768D01*
X109179667Y-84844860D01*
X109184186Y-84849172D01*
X109188495Y-84853693D01*
X109192585Y-84858417D01*
X109196449Y-84863334D01*
X109200078Y-84868436D01*
X109203463Y-84873716D01*
X109206598Y-84879165D01*
X109209473Y-84884775D01*
X109212080Y-84890538D01*
X109214411Y-84896444D01*
X109216458Y-84902487D01*
X109218213Y-84908658D01*
X109219667Y-84914948D01*
X109220812Y-84921350D01*
X109221640Y-84927855D01*
X109222143Y-84934454D01*
X109222313Y-84941141D01*
X109222143Y-84947823D01*
X109221640Y-84954418D01*
X109220812Y-84960918D01*
X109219667Y-84967316D01*
X109218213Y-84973603D01*
X109216458Y-84979770D01*
X109214411Y-84985810D01*
X109212080Y-84991714D01*
X109209473Y-84997473D01*
X109206598Y-85003081D01*
X109203463Y-85008527D01*
X109200078Y-85013805D01*
X109196449Y-85018906D01*
X109192585Y-85023822D01*
X109188495Y-85028544D01*
X109184186Y-85033064D01*
X109179667Y-85037374D01*
X109174946Y-85041466D01*
X109170031Y-85045331D01*
X109164931Y-85048961D01*
X109159653Y-85052349D01*
X109154206Y-85055485D01*
X109148599Y-85058361D01*
X109142838Y-85060970D01*
X109136933Y-85063303D01*
X109130892Y-85065351D01*
X109124723Y-85067107D01*
X109118434Y-85068562D01*
X109112033Y-85069708D01*
X109105529Y-85070537D01*
X109098930Y-85071040D01*
X109092243Y-85071210D01*
X109085557Y-85071040D01*
X109078958Y-85070537D01*
X109072454Y-85069708D01*
X109066053Y-85068562D01*
X109059764Y-85067107D01*
X109053595Y-85065351D01*
X109047553Y-85063303D01*
X109041648Y-85060970D01*
X109035888Y-85058361D01*
X109030280Y-85055485D01*
X109024833Y-85052349D01*
X109019556Y-85048961D01*
X109014455Y-85045331D01*
X109009541Y-85041466D01*
X109004820Y-85037374D01*
X109000301Y-85033064D01*
X108995992Y-85028544D01*
X108991902Y-85023822D01*
X108988038Y-85018906D01*
X108984409Y-85013805D01*
X108981023Y-85008527D01*
X108977889Y-85003081D01*
X108975014Y-84997473D01*
X108972407Y-84991714D01*
X108970076Y-84985810D01*
X108968029Y-84979770D01*
X108966274Y-84973603D01*
X108964820Y-84967316D01*
X108963675Y-84960918D01*
X108962846Y-84954418D01*
X108962343Y-84947823D01*
X108962174Y-84941141D01*
X108962343Y-84934454D01*
X108962846Y-84927855D01*
X108963675Y-84921350D01*
X108964820Y-84914948D01*
X108966274Y-84908658D01*
X108968029Y-84902487D01*
X108970076Y-84896444D01*
X108972407Y-84890538D01*
X108975014Y-84884775D01*
X108977889Y-84879165D01*
X108981023Y-84873716D01*
X108984409Y-84868436D01*
X108988038Y-84863334D01*
X108991902Y-84858417D01*
X108995992Y-84853693D01*
X109000301Y-84849172D01*
X109004820Y-84844860D01*
X109009541Y-84840768D01*
X109014455Y-84836902D01*
X109019556Y-84833270D01*
X109024833Y-84829882D01*
X109030280Y-84826746D01*
X109035888Y-84823869D01*
X109041648Y-84821260D01*
X109047553Y-84818927D01*
X109053595Y-84816878D01*
X109059764Y-84815122D01*
X109066053Y-84813667D01*
X109072454Y-84812521D01*
X109078958Y-84811692D01*
X109085557Y-84811188D01*
X109092243Y-84811019D01*
X109098930Y-84811188D01*
G37*
G36*
X109885359Y-87769855D02*
G01*
X109899670Y-87770944D01*
X109913772Y-87772735D01*
X109927649Y-87775213D01*
X109941282Y-87778360D01*
X109954653Y-87782157D01*
X109967746Y-87786587D01*
X109980542Y-87791632D01*
X109993024Y-87797275D01*
X110005174Y-87803497D01*
X110016974Y-87810282D01*
X110028407Y-87817611D01*
X110039455Y-87825468D01*
X110050099Y-87833833D01*
X110060324Y-87842689D01*
X110070110Y-87852019D01*
X110079440Y-87861805D01*
X110088296Y-87872029D01*
X110096661Y-87882674D01*
X110104517Y-87893722D01*
X110111846Y-87905154D01*
X110118631Y-87916954D01*
X110124854Y-87929104D01*
X110130497Y-87941586D01*
X110135542Y-87954383D01*
X110139972Y-87967475D01*
X110143769Y-87980847D01*
X110146915Y-87994480D01*
X110149393Y-88008357D01*
X110151185Y-88022459D01*
X110152273Y-88036769D01*
X110152640Y-88051270D01*
X110152273Y-88065771D01*
X110151185Y-88080081D01*
X110149393Y-88094184D01*
X110146915Y-88108060D01*
X110143769Y-88121693D01*
X110139972Y-88135065D01*
X110135542Y-88148158D01*
X110130497Y-88160954D01*
X110124854Y-88173436D01*
X110118631Y-88185586D01*
X110111846Y-88197386D01*
X110104517Y-88208819D01*
X110096661Y-88219866D01*
X110088296Y-88230511D01*
X110079440Y-88240735D01*
X110070110Y-88250521D01*
X110060324Y-88259851D01*
X110050099Y-88268708D01*
X110039455Y-88277073D01*
X110028407Y-88284929D01*
X110016974Y-88292258D01*
X110005174Y-88299043D01*
X109993024Y-88305265D01*
X109980542Y-88310908D01*
X109967746Y-88315953D01*
X109954653Y-88320383D01*
X109941282Y-88324180D01*
X109927649Y-88327327D01*
X109913772Y-88329804D01*
X109899670Y-88331596D01*
X109885359Y-88332684D01*
X109870859Y-88333051D01*
X109856358Y-88332684D01*
X109842047Y-88331596D01*
X109827945Y-88329804D01*
X109814069Y-88327327D01*
X109800436Y-88324180D01*
X109787064Y-88320383D01*
X109773971Y-88315953D01*
X109761175Y-88310908D01*
X109748693Y-88305265D01*
X109736543Y-88299043D01*
X109724743Y-88292258D01*
X109713310Y-88284929D01*
X109702263Y-88277073D01*
X109691618Y-88268708D01*
X109681394Y-88259851D01*
X109671608Y-88250521D01*
X109662277Y-88240735D01*
X109653421Y-88230511D01*
X109645056Y-88219866D01*
X109637200Y-88208819D01*
X109629871Y-88197386D01*
X109623086Y-88185586D01*
X109616863Y-88173436D01*
X109611221Y-88160954D01*
X109606175Y-88148158D01*
X109601745Y-88135065D01*
X109597948Y-88121693D01*
X109594802Y-88108060D01*
X109592324Y-88094184D01*
X109590532Y-88080081D01*
X109589444Y-88065771D01*
X109589077Y-88051270D01*
X109589444Y-88036769D01*
X109590532Y-88022459D01*
X109592324Y-88008357D01*
X109594802Y-87994480D01*
X109597948Y-87980847D01*
X109601745Y-87967475D01*
X109606175Y-87954383D01*
X109611221Y-87941586D01*
X109616863Y-87929104D01*
X109623086Y-87916954D01*
X109629871Y-87905154D01*
X109637200Y-87893722D01*
X109645056Y-87882674D01*
X109653421Y-87872029D01*
X109662277Y-87861805D01*
X109671608Y-87852019D01*
X109681394Y-87842689D01*
X109691618Y-87833833D01*
X109702263Y-87825468D01*
X109713310Y-87817611D01*
X109724743Y-87810282D01*
X109736543Y-87803497D01*
X109748693Y-87797275D01*
X109761175Y-87791632D01*
X109773971Y-87786587D01*
X109787064Y-87782157D01*
X109800436Y-87778360D01*
X109814069Y-87775213D01*
X109827945Y-87772735D01*
X109842047Y-87770944D01*
X109856358Y-87769855D01*
X109870859Y-87769489D01*
X109885359Y-87769855D01*
G37*
D11*
X112305252Y-101343925D02*
X112312597Y-101344798D01*
X112326979Y-101348123D01*
X112341225Y-101353390D01*
X112355667Y-101360402D01*
X112370632Y-101368959D01*
X112386409Y-101378905D01*
X112403105Y-101390248D01*
X112420789Y-101403039D01*
X112439526Y-101417326D01*
X112459383Y-101433161D01*
X112480426Y-101450593D01*
X112502722Y-101469671D01*
X112526337Y-101490446D01*
X112577792Y-101537285D01*
X112635321Y-101591508D01*
X112699456Y-101653514D01*
X112770729Y-101723701D01*
X112934039Y-101887645D01*
X113115647Y-102073682D01*
X113303177Y-102269590D01*
X113484255Y-102463142D01*
X113568861Y-102555595D01*
X113649337Y-102645144D01*
X113726264Y-102732527D01*
X113800219Y-102818487D01*
X113871783Y-102903764D01*
X113941535Y-102989097D01*
X114010053Y-103075228D01*
X114077917Y-103162897D01*
X114145576Y-103252650D01*
X114212969Y-103344243D01*
X114279906Y-103437241D01*
X114346198Y-103531205D01*
X114476087Y-103720293D01*
X114601116Y-103908016D01*
X114719857Y-104091319D01*
X114831233Y-104268929D01*
X114883850Y-104355338D01*
X114934256Y-104440010D01*
X114982327Y-104522839D01*
X115027939Y-104603723D01*
X115070978Y-104682521D01*
X115111359Y-104758947D01*
X115149007Y-104832677D01*
X115183845Y-104903388D01*
X115215799Y-104970759D01*
X115244791Y-105034466D01*
X115270746Y-105094187D01*
X115293589Y-105149599D01*
X115313290Y-105200487D01*
X115330020Y-105247077D01*
X115343998Y-105289700D01*
X115355443Y-105328688D01*
X115364572Y-105364372D01*
X115371604Y-105397086D01*
X115376758Y-105427162D01*
X115380251Y-105454931D01*
X115381434Y-105468047D01*
X115382246Y-105480668D01*
X115382676Y-105492791D01*
X115382715Y-105504412D01*
X115382351Y-105515531D01*
X115381573Y-105526145D01*
X115380371Y-105536250D01*
X115378733Y-105545845D01*
X115376649Y-105554928D01*
X115374109Y-105563496D01*
X115371101Y-105571547D01*
X115367614Y-105579077D01*
X115363638Y-105586086D01*
X115359163Y-105592570D01*
X115354176Y-105598528D01*
X115348667Y-105603956D01*
X115345708Y-105606466D01*
X115342570Y-105608816D01*
X115339207Y-105610979D01*
X115335573Y-105612927D01*
X115331623Y-105614633D01*
X115327310Y-105616070D01*
X115322588Y-105617210D01*
X115317411Y-105618026D01*
X115311734Y-105618492D01*
X115305510Y-105618578D01*
X115298693Y-105618259D01*
X115291238Y-105617507D01*
X115283098Y-105616295D01*
X115274228Y-105614595D01*
X115264581Y-105612380D01*
X115254112Y-105609623D01*
X115242774Y-105606296D01*
X115230522Y-105602373D01*
X115217310Y-105597826D01*
X115203091Y-105592627D01*
X115187820Y-105586750D01*
X115171451Y-105580167D01*
X115153937Y-105572850D01*
X115135233Y-105564773D01*
X115115293Y-105555909D01*
X115094070Y-105546229D01*
X115071520Y-105535707D01*
X115047595Y-105524315D01*
X115022250Y-105512027D01*
X114995439Y-105498814D01*
X114967116Y-105484650D01*
X114937235Y-105469507D01*
X114802613Y-105399403D01*
X114647805Y-105316269D01*
X114299534Y-105123170D01*
X113936229Y-104914734D01*
X113762629Y-104812427D01*
X113601698Y-104715482D01*
X113457251Y-104625972D01*
X113326444Y-104541985D01*
X113204766Y-104460618D01*
X113087711Y-104378967D01*
X112970770Y-104294126D01*
X112849433Y-104203192D01*
X112575541Y-103991424D01*
X112243439Y-103730152D01*
X111884386Y-103444738D01*
X111543102Y-103170258D01*
X111264305Y-102941787D01*
X111160858Y-102854631D01*
X111081052Y-102785299D01*
X111021728Y-102731342D01*
X110979724Y-102690312D01*
X110964230Y-102673879D01*
X110951882Y-102659759D01*
X110942283Y-102647646D01*
X110935039Y-102637235D01*
X110929755Y-102628219D01*
X110926036Y-102620291D01*
X110921713Y-102606479D01*
X110920380Y-102600037D01*
X110919397Y-102593774D01*
X110918734Y-102587702D01*
X110918362Y-102581829D01*
X110918250Y-102576164D01*
X110918369Y-102570718D01*
X110918690Y-102565500D01*
X110919183Y-102560519D01*
X110919818Y-102555784D01*
X110920566Y-102551306D01*
X110922282Y-102543155D01*
X110924093Y-102536143D01*
X110925762Y-102530345D01*
X110926527Y-102527875D01*
X110926972Y-102526664D01*
X110927512Y-102525418D01*
X110928186Y-102524099D01*
X110929033Y-102522667D01*
X110930094Y-102521084D01*
X110931406Y-102519312D01*
X110933011Y-102517312D01*
X110934947Y-102515046D01*
X110937254Y-102512474D01*
X110939970Y-102509559D01*
X110943137Y-102506262D01*
X110946793Y-102502545D01*
X110950977Y-102498368D01*
X110955729Y-102493693D01*
X110961088Y-102488482D01*
X110967095Y-102482697D01*
X110973788Y-102476298D01*
X110981206Y-102469247D01*
X110998378Y-102453035D01*
X111018927Y-102433753D01*
X111043168Y-102411092D01*
X111071416Y-102384745D01*
X111141198Y-102319755D01*
X111141197Y-102319757D01*
X111141197Y-102319758D01*
X111141197Y-102319760D01*
X111141197Y-102319762D01*
X111141197Y-102319763D01*
X111141196Y-102319765D01*
X111141196Y-102319768D01*
X111141195Y-102319771D01*
X111141194Y-102319774D01*
X111141194Y-102319775D01*
X111141194Y-102319777D01*
X111141194Y-102319778D01*
X111141194Y-102319780D01*
X111566799Y-101925660D01*
X111804735Y-101709200D01*
X111913576Y-101612098D01*
X112009415Y-101528501D01*
X112051145Y-101493066D01*
X112088782Y-101461951D01*
X112122656Y-101434957D01*
X112153096Y-101411887D01*
X112180433Y-101392543D01*
X112204996Y-101376725D01*
X112227115Y-101364237D01*
X112247120Y-101354880D01*
X112265341Y-101348455D01*
X112273886Y-101346281D01*
X112282108Y-101344766D01*
X112290049Y-101343884D01*
X112297750Y-101343612D01*
X112305252Y-101343925D01*
G36*
X112305252Y-101343925D02*
G01*
X112312597Y-101344798D01*
X112326979Y-101348123D01*
X112341225Y-101353390D01*
X112355667Y-101360402D01*
X112370632Y-101368959D01*
X112386409Y-101378905D01*
X112403105Y-101390248D01*
X112420789Y-101403039D01*
X112439526Y-101417326D01*
X112459383Y-101433161D01*
X112480426Y-101450593D01*
X112502722Y-101469671D01*
X112526337Y-101490446D01*
X112577792Y-101537285D01*
X112635321Y-101591508D01*
X112699456Y-101653514D01*
X112770729Y-101723701D01*
X112934039Y-101887645D01*
X113115647Y-102073682D01*
X113303177Y-102269590D01*
X113484255Y-102463142D01*
X113568861Y-102555595D01*
X113649337Y-102645144D01*
X113726264Y-102732527D01*
X113800219Y-102818487D01*
X113871783Y-102903764D01*
X113941535Y-102989097D01*
X114010053Y-103075228D01*
X114077917Y-103162897D01*
X114145576Y-103252650D01*
X114212969Y-103344243D01*
X114279906Y-103437241D01*
X114346198Y-103531205D01*
X114476087Y-103720293D01*
X114601116Y-103908016D01*
X114719857Y-104091319D01*
X114831233Y-104268929D01*
X114883850Y-104355338D01*
X114934256Y-104440010D01*
X114982327Y-104522839D01*
X115027939Y-104603723D01*
X115070978Y-104682521D01*
X115111359Y-104758947D01*
X115149007Y-104832677D01*
X115183845Y-104903388D01*
X115215799Y-104970759D01*
X115244791Y-105034466D01*
X115270746Y-105094187D01*
X115293589Y-105149599D01*
X115313290Y-105200487D01*
X115330020Y-105247077D01*
X115343998Y-105289700D01*
X115355443Y-105328688D01*
X115364572Y-105364372D01*
X115371604Y-105397086D01*
X115376758Y-105427162D01*
X115380251Y-105454931D01*
X115381434Y-105468047D01*
X115382246Y-105480668D01*
X115382676Y-105492791D01*
X115382715Y-105504412D01*
X115382351Y-105515531D01*
X115381573Y-105526145D01*
X115380371Y-105536250D01*
X115378733Y-105545845D01*
X115376649Y-105554928D01*
X115374109Y-105563496D01*
X115371101Y-105571547D01*
X115367614Y-105579077D01*
X115363638Y-105586086D01*
X115359163Y-105592570D01*
X115354176Y-105598528D01*
X115348667Y-105603956D01*
X115345708Y-105606466D01*
X115342570Y-105608816D01*
X115339207Y-105610979D01*
X115335573Y-105612927D01*
X115331623Y-105614633D01*
X115327310Y-105616070D01*
X115322588Y-105617210D01*
X115317411Y-105618026D01*
X115311734Y-105618492D01*
X115305510Y-105618578D01*
X115298693Y-105618259D01*
X115291238Y-105617507D01*
X115283098Y-105616295D01*
X115274228Y-105614595D01*
X115264581Y-105612380D01*
X115254112Y-105609623D01*
X115242774Y-105606296D01*
X115230522Y-105602373D01*
X115217310Y-105597826D01*
X115203091Y-105592627D01*
X115187820Y-105586750D01*
X115171451Y-105580167D01*
X115153937Y-105572850D01*
X115135233Y-105564773D01*
X115115293Y-105555909D01*
X115094070Y-105546229D01*
X115071520Y-105535707D01*
X115047595Y-105524315D01*
X115022250Y-105512027D01*
X114995439Y-105498814D01*
X114967116Y-105484650D01*
X114937235Y-105469507D01*
X114802613Y-105399403D01*
X114647805Y-105316269D01*
X114299534Y-105123170D01*
X113936229Y-104914734D01*
X113762629Y-104812427D01*
X113601698Y-104715482D01*
X113457251Y-104625972D01*
X113326444Y-104541985D01*
X113204766Y-104460618D01*
X113087711Y-104378967D01*
X112970770Y-104294126D01*
X112849433Y-104203192D01*
X112575541Y-103991424D01*
X112243439Y-103730152D01*
X111884386Y-103444738D01*
X111543102Y-103170258D01*
X111264305Y-102941787D01*
X111160858Y-102854631D01*
X111081052Y-102785299D01*
X111021728Y-102731342D01*
X110979724Y-102690312D01*
X110964230Y-102673879D01*
X110951882Y-102659759D01*
X110942283Y-102647646D01*
X110935039Y-102637235D01*
X110929755Y-102628219D01*
X110926036Y-102620291D01*
X110921713Y-102606479D01*
X110920380Y-102600037D01*
X110919397Y-102593774D01*
X110918734Y-102587702D01*
X110918362Y-102581829D01*
X110918250Y-102576164D01*
X110918369Y-102570718D01*
X110918690Y-102565500D01*
X110919183Y-102560519D01*
X110919818Y-102555784D01*
X110920566Y-102551306D01*
X110922282Y-102543155D01*
X110924093Y-102536143D01*
X110925762Y-102530345D01*
X110926527Y-102527875D01*
X110926972Y-102526664D01*
X110927512Y-102525418D01*
X110928186Y-102524099D01*
X110929033Y-102522667D01*
X110930094Y-102521084D01*
X110931406Y-102519312D01*
X110933011Y-102517312D01*
X110934947Y-102515046D01*
X110937254Y-102512474D01*
X110939970Y-102509559D01*
X110943137Y-102506262D01*
X110946793Y-102502545D01*
X110950977Y-102498368D01*
X110955729Y-102493693D01*
X110961088Y-102488482D01*
X110967095Y-102482697D01*
X110973788Y-102476298D01*
X110981206Y-102469247D01*
X110998378Y-102453035D01*
X111018927Y-102433753D01*
X111043168Y-102411092D01*
X111071416Y-102384745D01*
X111141198Y-102319755D01*
X111141197Y-102319757D01*
X111141197Y-102319758D01*
X111141197Y-102319760D01*
X111141197Y-102319762D01*
X111141197Y-102319763D01*
X111141196Y-102319765D01*
X111141196Y-102319768D01*
X111141195Y-102319771D01*
X111141194Y-102319774D01*
X111141194Y-102319775D01*
X111141194Y-102319777D01*
X111141194Y-102319778D01*
X111141194Y-102319780D01*
X111566799Y-101925660D01*
X111804735Y-101709200D01*
X111913576Y-101612098D01*
X112009415Y-101528501D01*
X112051145Y-101493066D01*
X112088782Y-101461951D01*
X112122656Y-101434957D01*
X112153096Y-101411887D01*
X112180433Y-101392543D01*
X112204996Y-101376725D01*
X112227115Y-101364237D01*
X112247120Y-101354880D01*
X112265341Y-101348455D01*
X112273886Y-101346281D01*
X112282108Y-101344766D01*
X112290049Y-101343884D01*
X112297750Y-101343612D01*
X112305252Y-101343925D01*
G37*
X88749252Y-102281286D02*
X88762026Y-102282409D01*
X88775040Y-102284616D01*
X88788357Y-102287896D01*
X88802042Y-102292240D01*
X88816159Y-102297637D01*
X88830772Y-102304077D01*
X88845945Y-102311548D01*
X88861742Y-102320041D01*
X88895464Y-102340052D01*
X88932451Y-102364025D01*
X88973216Y-102391878D01*
X89066708Y-102458439D01*
X89172935Y-102536826D01*
X89287476Y-102623680D01*
X89405907Y-102715639D01*
X89523807Y-102809344D01*
X89636753Y-102901435D01*
X89740322Y-102988553D01*
X89830092Y-103067336D01*
X89868508Y-103102704D01*
X89902344Y-103135622D01*
X89917538Y-103151312D01*
X89931577Y-103166567D01*
X89944460Y-103181447D01*
X89956184Y-103196011D01*
X89966744Y-103210320D01*
X89976139Y-103224431D01*
X89984366Y-103238405D01*
X89991420Y-103252300D01*
X89997301Y-103266177D01*
X90002004Y-103280094D01*
X90005526Y-103294110D01*
X90007865Y-103308286D01*
X90009017Y-103322679D01*
X90008981Y-103337351D01*
X90007752Y-103352359D01*
X90005327Y-103367764D01*
X90001705Y-103383624D01*
X89996881Y-103399999D01*
X89990853Y-103416948D01*
X89983617Y-103434531D01*
X89975172Y-103452807D01*
X89965514Y-103471834D01*
X89954639Y-103491674D01*
X89942546Y-103512384D01*
X89914690Y-103556654D01*
X89881922Y-103605119D01*
X89802159Y-103715241D01*
X89706071Y-103840093D01*
X89597075Y-103975726D01*
X89478589Y-104118192D01*
X89354029Y-104263544D01*
X89226811Y-104407832D01*
X89100352Y-104547109D01*
X88978069Y-104677427D01*
X88862289Y-104795974D01*
X88750990Y-104904479D01*
X88641058Y-105005809D01*
X88529379Y-105102831D01*
X88412841Y-105198410D01*
X88288329Y-105295413D01*
X88152732Y-105396705D01*
X88002935Y-105505155D01*
X87659711Y-105746382D01*
X87290826Y-105998996D01*
X86939860Y-106234299D01*
X86650395Y-106423589D01*
X86540922Y-106492958D01*
X86454626Y-106545735D01*
X86388413Y-106584010D01*
X86339189Y-106609869D01*
X86319980Y-106618796D01*
X86303859Y-106625403D01*
X86290438Y-106629949D01*
X86279330Y-106632697D01*
X86270150Y-106633908D01*
X86262509Y-106633842D01*
X86256021Y-106632761D01*
X86250301Y-106630926D01*
X86247614Y-106629801D01*
X86245021Y-106628560D01*
X86242519Y-106627209D01*
X86240107Y-106625755D01*
X86237783Y-106624206D01*
X86235544Y-106622567D01*
X86233390Y-106620846D01*
X86231318Y-106619050D01*
X86229327Y-106617185D01*
X86227415Y-106615258D01*
X86225580Y-106613276D01*
X86223821Y-106611246D01*
X86220520Y-106607067D01*
X86217500Y-106602778D01*
X86214745Y-106598432D01*
X86212242Y-106594083D01*
X86209976Y-106589787D01*
X86207933Y-106585597D01*
X86206099Y-106581569D01*
X86204459Y-106577756D01*
X86201707Y-106570997D01*
X86201122Y-106569514D01*
X86200597Y-106568056D01*
X86200156Y-106566549D01*
X86199973Y-106565756D01*
X86199820Y-106564924D01*
X86199699Y-106564044D01*
X86199613Y-106563109D01*
X86199564Y-106562108D01*
X86199556Y-106561032D01*
X86199591Y-106559874D01*
X86199672Y-106558624D01*
X86199802Y-106557272D01*
X86199984Y-106555811D01*
X86200221Y-106554232D01*
X86200515Y-106552524D01*
X86200869Y-106550681D01*
X86201286Y-106548692D01*
X86202320Y-106544242D01*
X86203641Y-106539104D01*
X86205270Y-106533207D01*
X86207230Y-106526479D01*
X86209544Y-106518849D01*
X86212233Y-106510247D01*
X86215322Y-106500601D01*
X86218831Y-106489839D01*
X86222785Y-106477891D01*
X86227204Y-106464686D01*
X86232112Y-106450152D01*
X86237532Y-106434218D01*
X86249996Y-106397866D01*
X86264775Y-106355060D01*
X86282050Y-106305232D01*
X86324812Y-106182229D01*
X86443666Y-105842626D01*
X86595322Y-105421322D01*
X86678515Y-105198161D01*
X86763986Y-104976328D01*
X86849761Y-104763074D01*
X86933865Y-104565652D01*
X86974748Y-104474911D01*
X87014922Y-104389441D01*
X87054589Y-104308745D01*
X87093949Y-104232326D01*
X87133205Y-104159683D01*
X87172557Y-104090320D01*
X87212209Y-104023737D01*
X87252362Y-103959438D01*
X87334976Y-103835692D01*
X87422012Y-103715098D01*
X87515086Y-103593668D01*
X87615810Y-103467416D01*
X87840358Y-103194705D01*
X88077052Y-102916073D01*
X88300990Y-102660830D01*
X88400393Y-102551137D01*
X88487268Y-102458282D01*
X88525185Y-102419222D01*
X88559705Y-102385205D01*
X88591338Y-102356147D01*
X88606234Y-102343451D01*
X88620600Y-102331964D01*
X88634501Y-102321676D01*
X88648000Y-102312575D01*
X88661163Y-102304652D01*
X88674054Y-102297895D01*
X88686735Y-102292296D01*
X88699272Y-102287843D01*
X88711728Y-102284526D01*
X88724167Y-102282334D01*
X88736654Y-102281258D01*
X88749252Y-102281286D01*
G36*
X88749252Y-102281286D02*
G01*
X88762026Y-102282409D01*
X88775040Y-102284616D01*
X88788357Y-102287896D01*
X88802042Y-102292240D01*
X88816159Y-102297637D01*
X88830772Y-102304077D01*
X88845945Y-102311548D01*
X88861742Y-102320041D01*
X88895464Y-102340052D01*
X88932451Y-102364025D01*
X88973216Y-102391878D01*
X89066708Y-102458439D01*
X89172935Y-102536826D01*
X89287476Y-102623680D01*
X89405907Y-102715639D01*
X89523807Y-102809344D01*
X89636753Y-102901435D01*
X89740322Y-102988553D01*
X89830092Y-103067336D01*
X89868508Y-103102704D01*
X89902344Y-103135622D01*
X89917538Y-103151312D01*
X89931577Y-103166567D01*
X89944460Y-103181447D01*
X89956184Y-103196011D01*
X89966744Y-103210320D01*
X89976139Y-103224431D01*
X89984366Y-103238405D01*
X89991420Y-103252300D01*
X89997301Y-103266177D01*
X90002004Y-103280094D01*
X90005526Y-103294110D01*
X90007865Y-103308286D01*
X90009017Y-103322679D01*
X90008981Y-103337351D01*
X90007752Y-103352359D01*
X90005327Y-103367764D01*
X90001705Y-103383624D01*
X89996881Y-103399999D01*
X89990853Y-103416948D01*
X89983617Y-103434531D01*
X89975172Y-103452807D01*
X89965514Y-103471834D01*
X89954639Y-103491674D01*
X89942546Y-103512384D01*
X89914690Y-103556654D01*
X89881922Y-103605119D01*
X89802159Y-103715241D01*
X89706071Y-103840093D01*
X89597075Y-103975726D01*
X89478589Y-104118192D01*
X89354029Y-104263544D01*
X89226811Y-104407832D01*
X89100352Y-104547109D01*
X88978069Y-104677427D01*
X88862289Y-104795974D01*
X88750990Y-104904479D01*
X88641058Y-105005809D01*
X88529379Y-105102831D01*
X88412841Y-105198410D01*
X88288329Y-105295413D01*
X88152732Y-105396705D01*
X88002935Y-105505155D01*
X87659711Y-105746382D01*
X87290826Y-105998996D01*
X86939860Y-106234299D01*
X86650395Y-106423589D01*
X86540922Y-106492958D01*
X86454626Y-106545735D01*
X86388413Y-106584010D01*
X86339189Y-106609869D01*
X86319980Y-106618796D01*
X86303859Y-106625403D01*
X86290438Y-106629949D01*
X86279330Y-106632697D01*
X86270150Y-106633908D01*
X86262509Y-106633842D01*
X86256021Y-106632761D01*
X86250301Y-106630926D01*
X86247614Y-106629801D01*
X86245021Y-106628560D01*
X86242519Y-106627209D01*
X86240107Y-106625755D01*
X86237783Y-106624206D01*
X86235544Y-106622567D01*
X86233390Y-106620846D01*
X86231318Y-106619050D01*
X86229327Y-106617185D01*
X86227415Y-106615258D01*
X86225580Y-106613276D01*
X86223821Y-106611246D01*
X86220520Y-106607067D01*
X86217500Y-106602778D01*
X86214745Y-106598432D01*
X86212242Y-106594083D01*
X86209976Y-106589787D01*
X86207933Y-106585597D01*
X86206099Y-106581569D01*
X86204459Y-106577756D01*
X86201707Y-106570997D01*
X86201122Y-106569514D01*
X86200597Y-106568056D01*
X86200156Y-106566549D01*
X86199973Y-106565756D01*
X86199820Y-106564924D01*
X86199699Y-106564044D01*
X86199613Y-106563109D01*
X86199564Y-106562108D01*
X86199556Y-106561032D01*
X86199591Y-106559874D01*
X86199672Y-106558624D01*
X86199802Y-106557272D01*
X86199984Y-106555811D01*
X86200221Y-106554232D01*
X86200515Y-106552524D01*
X86200869Y-106550681D01*
X86201286Y-106548692D01*
X86202320Y-106544242D01*
X86203641Y-106539104D01*
X86205270Y-106533207D01*
X86207230Y-106526479D01*
X86209544Y-106518849D01*
X86212233Y-106510247D01*
X86215322Y-106500601D01*
X86218831Y-106489839D01*
X86222785Y-106477891D01*
X86227204Y-106464686D01*
X86232112Y-106450152D01*
X86237532Y-106434218D01*
X86249996Y-106397866D01*
X86264775Y-106355060D01*
X86282050Y-106305232D01*
X86324812Y-106182229D01*
X86443666Y-105842626D01*
X86595322Y-105421322D01*
X86678515Y-105198161D01*
X86763986Y-104976328D01*
X86849761Y-104763074D01*
X86933865Y-104565652D01*
X86974748Y-104474911D01*
X87014922Y-104389441D01*
X87054589Y-104308745D01*
X87093949Y-104232326D01*
X87133205Y-104159683D01*
X87172557Y-104090320D01*
X87212209Y-104023737D01*
X87252362Y-103959438D01*
X87334976Y-103835692D01*
X87422012Y-103715098D01*
X87515086Y-103593668D01*
X87615810Y-103467416D01*
X87840358Y-103194705D01*
X88077052Y-102916073D01*
X88300990Y-102660830D01*
X88400393Y-102551137D01*
X88487268Y-102458282D01*
X88525185Y-102419222D01*
X88559705Y-102385205D01*
X88591338Y-102356147D01*
X88606234Y-102343451D01*
X88620600Y-102331964D01*
X88634501Y-102321676D01*
X88648000Y-102312575D01*
X88661163Y-102304652D01*
X88674054Y-102297895D01*
X88686735Y-102292296D01*
X88699272Y-102287843D01*
X88711728Y-102284526D01*
X88724167Y-102282334D01*
X88736654Y-102281258D01*
X88749252Y-102281286D01*
G37*
X110100690Y-72352355D02*
X110117010Y-72352504D01*
X110167687Y-72353099D01*
X110167691Y-72353107D01*
X110247490Y-72354449D01*
X110296243Y-72355868D01*
X110349089Y-72358087D01*
X110404674Y-72361331D01*
X110461642Y-72365824D01*
X110518637Y-72371791D01*
X110574303Y-72379458D01*
X110601255Y-72383995D01*
X110627609Y-72389011D01*
X110653439Y-72394504D01*
X110678820Y-72400470D01*
X110703825Y-72406906D01*
X110728528Y-72413808D01*
X110777323Y-72428997D01*
X110825796Y-72446012D01*
X110874538Y-72464825D01*
X110924139Y-72485410D01*
X110975191Y-72507741D01*
X111028275Y-72531865D01*
X111083948Y-72558137D01*
X111142763Y-72586986D01*
X111205269Y-72618842D01*
X111272017Y-72654134D01*
X111343556Y-72693292D01*
X111420437Y-72736746D01*
X111503210Y-72784924D01*
X111592115Y-72838062D01*
X111686133Y-72895616D01*
X111783935Y-72956847D01*
X111884194Y-73021017D01*
X111985580Y-73087388D01*
X112086764Y-73155223D01*
X112186419Y-73223783D01*
X112283215Y-73292330D01*
X112376120Y-73360318D01*
X112465279Y-73427970D01*
X112551135Y-73495701D01*
X112634132Y-73563930D01*
X112714713Y-73633071D01*
X112793321Y-73703541D01*
X112870398Y-73775756D01*
X112946389Y-73850133D01*
X113021600Y-73926955D01*
X113095790Y-74005978D01*
X113168585Y-74086826D01*
X113239607Y-74169123D01*
X113308482Y-74252494D01*
X113374833Y-74336563D01*
X113438285Y-74420955D01*
X113498463Y-74505293D01*
X113555027Y-74589227D01*
X113607793Y-74672502D01*
X113656612Y-74754891D01*
X113701338Y-74836165D01*
X113741822Y-74916097D01*
X113777918Y-74994459D01*
X113809476Y-75071023D01*
X113823508Y-75108559D01*
X113836350Y-75145560D01*
X113847994Y-75181994D01*
X113858464Y-75217816D01*
X113867798Y-75252976D01*
X113876028Y-75287427D01*
X113883192Y-75321119D01*
X113889323Y-75354004D01*
X113894458Y-75386033D01*
X113898632Y-75417158D01*
X113901879Y-75447331D01*
X113904235Y-75476501D01*
X113905735Y-75504621D01*
X113906415Y-75531643D01*
X113906310Y-75557516D01*
X113905454Y-75582194D01*
X113903884Y-75605626D01*
X113901635Y-75627766D01*
X113898738Y-75648586D01*
X113895226Y-75668152D01*
X113891128Y-75686554D01*
X113886471Y-75703881D01*
X113881284Y-75720221D01*
X113875596Y-75735663D01*
X113869435Y-75750296D01*
X113862830Y-75764210D01*
X113855809Y-75777493D01*
X113848400Y-75790234D01*
X113840633Y-75802522D01*
X113832535Y-75814445D01*
X113815460Y-75837556D01*
X113797406Y-75860277D01*
X113778530Y-75883134D01*
X113758714Y-75905896D01*
X113748395Y-75917112D01*
X113737771Y-75928148D01*
X113726818Y-75938952D01*
X113715513Y-75949473D01*
X113703832Y-75959658D01*
X113691751Y-75969456D01*
X113679248Y-75978814D01*
X113666298Y-75987681D01*
X113652878Y-75996004D01*
X113638965Y-76003731D01*
X113624536Y-76010812D01*
X113609566Y-76017192D01*
X113594033Y-76022834D01*
X113577922Y-76027747D01*
X113561216Y-76031955D01*
X113543902Y-76035483D01*
X113525964Y-76038352D01*
X113507386Y-76040588D01*
X113488154Y-76042212D01*
X113468253Y-76043250D01*
X113447667Y-76043723D01*
X113426382Y-76043656D01*
X113404381Y-76043073D01*
X113381651Y-76041996D01*
X113358176Y-76040449D01*
X113333941Y-76038456D01*
X113283129Y-76033224D01*
X113229113Y-76026413D01*
X113171849Y-76017816D01*
X113111310Y-76007152D01*
X113047469Y-75994138D01*
X112980299Y-75978494D01*
X112909773Y-75959937D01*
X112835864Y-75938186D01*
X112758545Y-75912959D01*
X112677814Y-75883993D01*
X112593769Y-75851108D01*
X112506530Y-75814143D01*
X112416218Y-75772936D01*
X112322953Y-75727327D01*
X112226855Y-75677154D01*
X112128045Y-75622256D01*
X112026644Y-75562472D01*
X111922773Y-75497654D01*
X111816555Y-75427710D01*
X111708108Y-75352558D01*
X111597555Y-75272117D01*
X111485014Y-75186308D01*
X111370608Y-75095049D01*
X111254456Y-74998259D01*
X111136679Y-74895858D01*
X111017602Y-74788086D01*
X110898351Y-74676462D01*
X110780255Y-74562825D01*
X110664641Y-74449014D01*
X110446179Y-74228225D01*
X110253594Y-74028804D01*
X110170043Y-73941115D01*
X110095245Y-73860755D01*
X110028822Y-73786033D01*
X109998634Y-73750257D01*
X109970399Y-73715257D01*
X109944070Y-73680820D01*
X109919600Y-73646736D01*
X109896942Y-73612792D01*
X109876049Y-73578778D01*
X109856875Y-73544482D01*
X109839371Y-73509692D01*
X109823491Y-73474198D01*
X109809189Y-73437787D01*
X109796414Y-73400314D01*
X109785104Y-73361887D01*
X109775198Y-73322682D01*
X109766631Y-73282873D01*
X109759339Y-73242635D01*
X109753258Y-73202142D01*
X109748325Y-73161569D01*
X109744476Y-73121089D01*
X109741647Y-73080878D01*
X109739774Y-73041110D01*
X109738643Y-72963600D01*
X109740572Y-72889956D01*
X109745051Y-72821574D01*
X109748093Y-72789755D01*
X109751614Y-72759551D01*
X109755580Y-72730915D01*
X109759961Y-72703797D01*
X109764724Y-72678148D01*
X109769837Y-72653921D01*
X109775269Y-72631066D01*
X109780988Y-72609535D01*
X109786962Y-72589279D01*
X109793158Y-72570250D01*
X109806094Y-72535676D01*
X109819541Y-72505424D01*
X109833243Y-72479105D01*
X109840116Y-72467300D01*
X109846997Y-72456345D01*
X109853890Y-72446202D01*
X109860804Y-72436833D01*
X109867744Y-72428203D01*
X109874718Y-72420275D01*
X109881733Y-72413010D01*
X109888794Y-72406373D01*
X109895909Y-72400327D01*
X109903084Y-72394834D01*
X109910327Y-72389858D01*
X109917644Y-72385362D01*
X109925041Y-72381308D01*
X109932525Y-72377661D01*
X109940104Y-72374382D01*
X109947783Y-72371436D01*
X109955562Y-72368788D01*
X109963407Y-72366419D01*
X109971280Y-72364312D01*
X109979139Y-72362450D01*
X109986944Y-72360817D01*
X109994655Y-72359395D01*
X110009634Y-72357119D01*
X110023753Y-72355486D01*
X110036691Y-72354361D01*
X110057736Y-72353099D01*
X110065469Y-72352752D01*
X110072342Y-72352504D01*
X110079645Y-72352355D01*
X110088664Y-72352306D01*
X110100690Y-72352355D01*
G36*
X110100690Y-72352355D02*
G01*
X110117010Y-72352504D01*
X110167687Y-72353099D01*
X110167691Y-72353107D01*
X110247490Y-72354449D01*
X110296243Y-72355868D01*
X110349089Y-72358087D01*
X110404674Y-72361331D01*
X110461642Y-72365824D01*
X110518637Y-72371791D01*
X110574303Y-72379458D01*
X110601255Y-72383995D01*
X110627609Y-72389011D01*
X110653439Y-72394504D01*
X110678820Y-72400470D01*
X110703825Y-72406906D01*
X110728528Y-72413808D01*
X110777323Y-72428997D01*
X110825796Y-72446012D01*
X110874538Y-72464825D01*
X110924139Y-72485410D01*
X110975191Y-72507741D01*
X111028275Y-72531865D01*
X111083948Y-72558137D01*
X111142763Y-72586986D01*
X111205269Y-72618842D01*
X111272017Y-72654134D01*
X111343556Y-72693292D01*
X111420437Y-72736746D01*
X111503210Y-72784924D01*
X111592115Y-72838062D01*
X111686133Y-72895616D01*
X111783935Y-72956847D01*
X111884194Y-73021017D01*
X111985580Y-73087388D01*
X112086764Y-73155223D01*
X112186419Y-73223783D01*
X112283215Y-73292330D01*
X112376120Y-73360318D01*
X112465279Y-73427970D01*
X112551135Y-73495701D01*
X112634132Y-73563930D01*
X112714713Y-73633071D01*
X112793321Y-73703541D01*
X112870398Y-73775756D01*
X112946389Y-73850133D01*
X113021600Y-73926955D01*
X113095790Y-74005978D01*
X113168585Y-74086826D01*
X113239607Y-74169123D01*
X113308482Y-74252494D01*
X113374833Y-74336563D01*
X113438285Y-74420955D01*
X113498463Y-74505293D01*
X113555027Y-74589227D01*
X113607793Y-74672502D01*
X113656612Y-74754891D01*
X113701338Y-74836165D01*
X113741822Y-74916097D01*
X113777918Y-74994459D01*
X113809476Y-75071023D01*
X113823508Y-75108559D01*
X113836350Y-75145560D01*
X113847994Y-75181994D01*
X113858464Y-75217816D01*
X113867798Y-75252976D01*
X113876028Y-75287427D01*
X113883192Y-75321119D01*
X113889323Y-75354004D01*
X113894458Y-75386033D01*
X113898632Y-75417158D01*
X113901879Y-75447331D01*
X113904235Y-75476501D01*
X113905735Y-75504621D01*
X113906415Y-75531643D01*
X113906310Y-75557516D01*
X113905454Y-75582194D01*
X113903884Y-75605626D01*
X113901635Y-75627766D01*
X113898738Y-75648586D01*
X113895226Y-75668152D01*
X113891128Y-75686554D01*
X113886471Y-75703881D01*
X113881284Y-75720221D01*
X113875596Y-75735663D01*
X113869435Y-75750296D01*
X113862830Y-75764210D01*
X113855809Y-75777493D01*
X113848400Y-75790234D01*
X113840633Y-75802522D01*
X113832535Y-75814445D01*
X113815460Y-75837556D01*
X113797406Y-75860277D01*
X113778530Y-75883134D01*
X113758714Y-75905896D01*
X113748395Y-75917112D01*
X113737771Y-75928148D01*
X113726818Y-75938952D01*
X113715513Y-75949473D01*
X113703832Y-75959658D01*
X113691751Y-75969456D01*
X113679248Y-75978814D01*
X113666298Y-75987681D01*
X113652878Y-75996004D01*
X113638965Y-76003731D01*
X113624536Y-76010812D01*
X113609566Y-76017192D01*
X113594033Y-76022834D01*
X113577922Y-76027747D01*
X113561216Y-76031955D01*
X113543902Y-76035483D01*
X113525964Y-76038352D01*
X113507386Y-76040588D01*
X113488154Y-76042212D01*
X113468253Y-76043250D01*
X113447667Y-76043723D01*
X113426382Y-76043656D01*
X113404381Y-76043073D01*
X113381651Y-76041996D01*
X113358176Y-76040449D01*
X113333941Y-76038456D01*
X113283129Y-76033224D01*
X113229113Y-76026413D01*
X113171849Y-76017816D01*
X113111310Y-76007152D01*
X113047469Y-75994138D01*
X112980299Y-75978494D01*
X112909773Y-75959937D01*
X112835864Y-75938186D01*
X112758545Y-75912959D01*
X112677814Y-75883993D01*
X112593769Y-75851108D01*
X112506530Y-75814143D01*
X112416218Y-75772936D01*
X112322953Y-75727327D01*
X112226855Y-75677154D01*
X112128045Y-75622256D01*
X112026644Y-75562472D01*
X111922773Y-75497654D01*
X111816555Y-75427710D01*
X111708108Y-75352558D01*
X111597555Y-75272117D01*
X111485014Y-75186308D01*
X111370608Y-75095049D01*
X111254456Y-74998259D01*
X111136679Y-74895858D01*
X111017602Y-74788086D01*
X110898351Y-74676462D01*
X110780255Y-74562825D01*
X110664641Y-74449014D01*
X110446179Y-74228225D01*
X110253594Y-74028804D01*
X110170043Y-73941115D01*
X110095245Y-73860755D01*
X110028822Y-73786033D01*
X109998634Y-73750257D01*
X109970399Y-73715257D01*
X109944070Y-73680820D01*
X109919600Y-73646736D01*
X109896942Y-73612792D01*
X109876049Y-73578778D01*
X109856875Y-73544482D01*
X109839371Y-73509692D01*
X109823491Y-73474198D01*
X109809189Y-73437787D01*
X109796414Y-73400314D01*
X109785104Y-73361887D01*
X109775198Y-73322682D01*
X109766631Y-73282873D01*
X109759339Y-73242635D01*
X109753258Y-73202142D01*
X109748325Y-73161569D01*
X109744476Y-73121089D01*
X109741647Y-73080878D01*
X109739774Y-73041110D01*
X109738643Y-72963600D01*
X109740572Y-72889956D01*
X109745051Y-72821574D01*
X109748093Y-72789755D01*
X109751614Y-72759551D01*
X109755580Y-72730915D01*
X109759961Y-72703797D01*
X109764724Y-72678148D01*
X109769837Y-72653921D01*
X109775269Y-72631066D01*
X109780988Y-72609535D01*
X109786962Y-72589279D01*
X109793158Y-72570250D01*
X109806094Y-72535676D01*
X109819541Y-72505424D01*
X109833243Y-72479105D01*
X109840116Y-72467300D01*
X109846997Y-72456345D01*
X109853890Y-72446202D01*
X109860804Y-72436833D01*
X109867744Y-72428203D01*
X109874718Y-72420275D01*
X109881733Y-72413010D01*
X109888794Y-72406373D01*
X109895909Y-72400327D01*
X109903084Y-72394834D01*
X109910327Y-72389858D01*
X109917644Y-72385362D01*
X109925041Y-72381308D01*
X109932525Y-72377661D01*
X109940104Y-72374382D01*
X109947783Y-72371436D01*
X109955562Y-72368788D01*
X109963407Y-72366419D01*
X109971280Y-72364312D01*
X109979139Y-72362450D01*
X109986944Y-72360817D01*
X109994655Y-72359395D01*
X110009634Y-72357119D01*
X110023753Y-72355486D01*
X110036691Y-72354361D01*
X110057736Y-72353099D01*
X110065469Y-72352752D01*
X110072342Y-72352504D01*
X110079645Y-72352355D01*
X110088664Y-72352306D01*
X110100690Y-72352355D01*
G37*
X88888774Y-76268025D02*
X88907385Y-76271926D01*
X88919250Y-76277386D01*
X88934143Y-76286565D01*
X88976981Y-76320210D01*
X89043831Y-76381130D01*
X89142627Y-76477592D01*
X89281301Y-76617865D01*
X89467785Y-76810218D01*
X89710013Y-77062917D01*
X91137436Y-78572518D01*
X91908917Y-79398083D01*
X92545967Y-80089004D01*
X92669496Y-80225288D01*
X92777314Y-80345939D01*
X92870224Y-80452265D01*
X92911338Y-80500464D01*
X92949024Y-80545572D01*
X92983384Y-80587752D01*
X93014516Y-80627168D01*
X93042521Y-80663982D01*
X93067500Y-80698359D01*
X93089551Y-80730461D01*
X93108775Y-80760453D01*
X93125272Y-80788497D01*
X93139143Y-80814757D01*
X93150487Y-80839395D01*
X93159404Y-80862577D01*
X93165994Y-80884465D01*
X93170357Y-80905221D01*
X93172594Y-80925011D01*
X93172804Y-80943997D01*
X93171088Y-80962342D01*
X93167545Y-80980210D01*
X93162276Y-80997764D01*
X93155380Y-81015168D01*
X93146958Y-81032586D01*
X93137110Y-81050179D01*
X93125935Y-81068112D01*
X93113534Y-81086549D01*
X93085453Y-81125585D01*
X93018493Y-81214414D01*
X92940205Y-81314771D01*
X92854079Y-81422296D01*
X92763604Y-81532626D01*
X92672270Y-81641398D01*
X92583566Y-81744252D01*
X92500982Y-81836824D01*
X92428008Y-81914752D01*
X92395934Y-81946821D01*
X92365882Y-81973343D01*
X92336599Y-81993523D01*
X92321853Y-82000986D01*
X92306830Y-82006565D01*
X92291372Y-82010161D01*
X92275324Y-82011675D01*
X92258527Y-82011006D01*
X92240825Y-82008056D01*
X92222063Y-82002726D01*
X92202082Y-81994914D01*
X92180727Y-81984524D01*
X92157841Y-81971454D01*
X92106848Y-81936880D01*
X92047851Y-81890396D01*
X91979595Y-81831209D01*
X91900828Y-81758521D01*
X91810296Y-81671538D01*
X91706746Y-81569466D01*
X91455579Y-81316868D01*
X89967870Y-79799235D01*
X88494765Y-78288476D01*
X88494761Y-78288476D01*
X88252014Y-78039274D01*
X88069426Y-77851640D01*
X87997949Y-77778038D01*
X87938221Y-77716381D01*
X87889143Y-77665518D01*
X87849619Y-77624301D01*
X87833097Y-77606950D01*
X87818552Y-77591580D01*
X87805846Y-77578046D01*
X87794843Y-77566206D01*
X87785406Y-77555915D01*
X87777396Y-77547030D01*
X87770678Y-77539407D01*
X87765114Y-77532902D01*
X87760567Y-77527373D01*
X87756899Y-77522674D01*
X87753974Y-77518663D01*
X87751654Y-77515195D01*
X87749803Y-77512128D01*
X87748282Y-77509317D01*
X87746955Y-77506619D01*
X87745685Y-77503890D01*
X87739976Y-77491410D01*
X87733478Y-77476635D01*
X87726687Y-77460061D01*
X87720094Y-77442185D01*
X87717027Y-77432914D01*
X87714195Y-77423503D01*
X87711660Y-77414016D01*
X87709484Y-77404513D01*
X87707727Y-77395057D01*
X87706453Y-77385709D01*
X87705723Y-77376533D01*
X87705598Y-77367590D01*
X87706178Y-77358896D01*
X87707607Y-77350274D01*
X87710063Y-77341501D01*
X87713723Y-77332353D01*
X87718766Y-77322608D01*
X87725369Y-77312043D01*
X87733710Y-77300434D01*
X87743967Y-77287558D01*
X87756319Y-77273192D01*
X87770942Y-77257113D01*
X87807714Y-77218924D01*
X87855708Y-77171205D01*
X87916347Y-77112171D01*
X88074766Y-76959853D01*
X88261963Y-76781873D01*
X88450449Y-76604966D01*
X88612737Y-76455868D01*
X88646101Y-76425974D01*
X88676322Y-76399314D01*
X88703614Y-76375715D01*
X88728189Y-76355002D01*
X88750261Y-76337000D01*
X88770042Y-76321535D01*
X88787746Y-76308432D01*
X88795886Y-76302712D01*
X88803587Y-76297517D01*
X88810874Y-76292825D01*
X88817776Y-76288615D01*
X88824318Y-76284865D01*
X88830527Y-76281553D01*
X88836430Y-76278657D01*
X88842053Y-76276155D01*
X88847424Y-76274025D01*
X88852568Y-76272247D01*
X88857513Y-76270797D01*
X88862285Y-76269654D01*
X88866910Y-76268797D01*
X88871416Y-76268203D01*
X88875828Y-76267850D01*
X88880174Y-76267718D01*
X88888774Y-76268025D01*
G36*
X88888774Y-76268025D02*
G01*
X88907385Y-76271926D01*
X88919250Y-76277386D01*
X88934143Y-76286565D01*
X88976981Y-76320210D01*
X89043831Y-76381130D01*
X89142627Y-76477592D01*
X89281301Y-76617865D01*
X89467785Y-76810218D01*
X89710013Y-77062917D01*
X91137436Y-78572518D01*
X91908917Y-79398083D01*
X92545967Y-80089004D01*
X92669496Y-80225288D01*
X92777314Y-80345939D01*
X92870224Y-80452265D01*
X92911338Y-80500464D01*
X92949024Y-80545572D01*
X92983384Y-80587752D01*
X93014516Y-80627168D01*
X93042521Y-80663982D01*
X93067500Y-80698359D01*
X93089551Y-80730461D01*
X93108775Y-80760453D01*
X93125272Y-80788497D01*
X93139143Y-80814757D01*
X93150487Y-80839395D01*
X93159404Y-80862577D01*
X93165994Y-80884465D01*
X93170357Y-80905221D01*
X93172594Y-80925011D01*
X93172804Y-80943997D01*
X93171088Y-80962342D01*
X93167545Y-80980210D01*
X93162276Y-80997764D01*
X93155380Y-81015168D01*
X93146958Y-81032586D01*
X93137110Y-81050179D01*
X93125935Y-81068112D01*
X93113534Y-81086549D01*
X93085453Y-81125585D01*
X93018493Y-81214414D01*
X92940205Y-81314771D01*
X92854079Y-81422296D01*
X92763604Y-81532626D01*
X92672270Y-81641398D01*
X92583566Y-81744252D01*
X92500982Y-81836824D01*
X92428008Y-81914752D01*
X92395934Y-81946821D01*
X92365882Y-81973343D01*
X92336599Y-81993523D01*
X92321853Y-82000986D01*
X92306830Y-82006565D01*
X92291372Y-82010161D01*
X92275324Y-82011675D01*
X92258527Y-82011006D01*
X92240825Y-82008056D01*
X92222063Y-82002726D01*
X92202082Y-81994914D01*
X92180727Y-81984524D01*
X92157841Y-81971454D01*
X92106848Y-81936880D01*
X92047851Y-81890396D01*
X91979595Y-81831209D01*
X91900828Y-81758521D01*
X91810296Y-81671538D01*
X91706746Y-81569466D01*
X91455579Y-81316868D01*
X89967870Y-79799235D01*
X88494765Y-78288476D01*
X88494761Y-78288476D01*
X88252014Y-78039274D01*
X88069426Y-77851640D01*
X87997949Y-77778038D01*
X87938221Y-77716381D01*
X87889143Y-77665518D01*
X87849619Y-77624301D01*
X87833097Y-77606950D01*
X87818552Y-77591580D01*
X87805846Y-77578046D01*
X87794843Y-77566206D01*
X87785406Y-77555915D01*
X87777396Y-77547030D01*
X87770678Y-77539407D01*
X87765114Y-77532902D01*
X87760567Y-77527373D01*
X87756899Y-77522674D01*
X87753974Y-77518663D01*
X87751654Y-77515195D01*
X87749803Y-77512128D01*
X87748282Y-77509317D01*
X87746955Y-77506619D01*
X87745685Y-77503890D01*
X87739976Y-77491410D01*
X87733478Y-77476635D01*
X87726687Y-77460061D01*
X87720094Y-77442185D01*
X87717027Y-77432914D01*
X87714195Y-77423503D01*
X87711660Y-77414016D01*
X87709484Y-77404513D01*
X87707727Y-77395057D01*
X87706453Y-77385709D01*
X87705723Y-77376533D01*
X87705598Y-77367590D01*
X87706178Y-77358896D01*
X87707607Y-77350274D01*
X87710063Y-77341501D01*
X87713723Y-77332353D01*
X87718766Y-77322608D01*
X87725369Y-77312043D01*
X87733710Y-77300434D01*
X87743967Y-77287558D01*
X87756319Y-77273192D01*
X87770942Y-77257113D01*
X87807714Y-77218924D01*
X87855708Y-77171205D01*
X87916347Y-77112171D01*
X88074766Y-76959853D01*
X88261963Y-76781873D01*
X88450449Y-76604966D01*
X88612737Y-76455868D01*
X88646101Y-76425974D01*
X88676322Y-76399314D01*
X88703614Y-76375715D01*
X88728189Y-76355002D01*
X88750261Y-76337000D01*
X88770042Y-76321535D01*
X88787746Y-76308432D01*
X88795886Y-76302712D01*
X88803587Y-76297517D01*
X88810874Y-76292825D01*
X88817776Y-76288615D01*
X88824318Y-76284865D01*
X88830527Y-76281553D01*
X88836430Y-76278657D01*
X88842053Y-76276155D01*
X88847424Y-76274025D01*
X88852568Y-76272247D01*
X88857513Y-76270797D01*
X88862285Y-76269654D01*
X88866910Y-76268797D01*
X88871416Y-76268203D01*
X88875828Y-76267850D01*
X88880174Y-76267718D01*
X88888774Y-76268025D01*
G37*
X110105410Y-75180172D02*
X110112725Y-75180681D01*
X110119907Y-75181608D01*
X110133938Y-75184654D01*
X110147641Y-75189184D01*
X110161153Y-75195076D01*
X110174612Y-75202205D01*
X110188158Y-75210447D01*
X110201926Y-75219678D01*
X110230687Y-75240612D01*
X110295085Y-75289887D01*
X110367254Y-75347026D01*
X110444766Y-75410017D01*
X110525190Y-75476847D01*
X110606097Y-75545503D01*
X110685059Y-75613970D01*
X110759646Y-75680237D01*
X110827429Y-75742289D01*
X110858073Y-75771157D01*
X110886485Y-75798524D01*
X110912743Y-75824443D01*
X110936923Y-75848972D01*
X110959104Y-75872166D01*
X110979362Y-75894079D01*
X110997774Y-75914767D01*
X111014418Y-75934286D01*
X111029371Y-75952690D01*
X111042709Y-75970036D01*
X111054510Y-75986379D01*
X111064851Y-76001774D01*
X111073809Y-76016276D01*
X111081462Y-76029941D01*
X111087886Y-76042824D01*
X111093159Y-76054980D01*
X111097206Y-76066649D01*
X111099335Y-76078799D01*
X111098702Y-76092583D01*
X111094464Y-76109154D01*
X111085777Y-76129665D01*
X111071796Y-76155268D01*
X111051678Y-76187115D01*
X111024578Y-76226360D01*
X110946060Y-76331653D01*
X110829488Y-76480368D01*
X110455181Y-76944945D01*
X107905571Y-80076404D01*
X107692132Y-80337309D01*
X107604224Y-80443095D01*
X107527228Y-80533585D01*
X107492441Y-80573362D01*
X107459924Y-80609638D01*
X107429524Y-80642520D01*
X107401090Y-80672116D01*
X107374467Y-80698533D01*
X107349503Y-80721879D01*
X107326047Y-80742261D01*
X107303944Y-80759788D01*
X107283043Y-80774566D01*
X107263190Y-80786704D01*
X107244233Y-80796308D01*
X107226020Y-80803487D01*
X107217145Y-80806201D01*
X107208397Y-80808348D01*
X107199760Y-80809943D01*
X107191213Y-80810999D01*
X107182737Y-80811529D01*
X107174313Y-80811546D01*
X107157547Y-80810099D01*
X107140760Y-80806764D01*
X107123800Y-80801649D01*
X107106515Y-80794861D01*
X107088752Y-80786509D01*
X107070358Y-80776699D01*
X107051181Y-80765540D01*
X107009865Y-80739602D01*
X106913590Y-80675779D01*
X106802536Y-80599486D01*
X106556441Y-80425333D01*
X106110743Y-80101620D01*
X106110728Y-80101616D01*
X106037355Y-80047905D01*
X106007665Y-80026126D01*
X105982204Y-80007389D01*
X105960644Y-79991437D01*
X105951224Y-79984425D01*
X105942658Y-79978013D01*
X105934903Y-79972169D01*
X105927918Y-79966862D01*
X105921664Y-79962057D01*
X105916098Y-79957725D01*
X105911181Y-79953832D01*
X105906871Y-79950347D01*
X105903127Y-79947237D01*
X105899909Y-79944470D01*
X105897175Y-79942015D01*
X105895978Y-79940894D01*
X105894885Y-79939839D01*
X105893894Y-79938846D01*
X105892998Y-79937910D01*
X105892193Y-79937028D01*
X105891473Y-79936196D01*
X105890833Y-79935410D01*
X105890268Y-79934665D01*
X105889773Y-79933958D01*
X105889344Y-79933284D01*
X105888974Y-79932641D01*
X105888658Y-79932023D01*
X105888393Y-79931427D01*
X105888171Y-79930848D01*
X105887990Y-79930283D01*
X105887842Y-79929727D01*
X105887629Y-79928629D01*
X105887491Y-79927522D01*
X105887389Y-79926372D01*
X105886935Y-79921068D01*
X105886536Y-79914649D01*
X105886351Y-79907184D01*
X105886542Y-79898738D01*
X105886828Y-79894169D01*
X105887268Y-79889380D01*
X105887883Y-79884380D01*
X105888691Y-79879176D01*
X105889714Y-79873778D01*
X105890971Y-79868194D01*
X105892482Y-79862432D01*
X105894268Y-79856501D01*
X105899987Y-79842690D01*
X105914456Y-79819456D01*
X105945247Y-79778022D01*
X105999929Y-79709608D01*
X106211251Y-79456729D01*
X106608984Y-78990593D01*
X107962244Y-77423583D01*
X108703839Y-76575380D01*
X109325821Y-75876317D01*
X109448810Y-75741213D01*
X109557788Y-75623452D01*
X109607369Y-75570766D01*
X109653861Y-75522044D01*
X109697402Y-75477163D01*
X109738131Y-75435997D01*
X109776186Y-75398424D01*
X109811704Y-75364319D01*
X109844824Y-75333558D01*
X109875683Y-75306018D01*
X109904419Y-75281574D01*
X109931171Y-75260103D01*
X109956077Y-75241480D01*
X109979274Y-75225582D01*
X110000901Y-75212284D01*
X110021095Y-75201464D01*
X110039995Y-75192996D01*
X110049003Y-75189605D01*
X110057739Y-75186756D01*
X110066220Y-75184434D01*
X110074463Y-75182622D01*
X110082487Y-75181305D01*
X110090308Y-75180468D01*
X110097943Y-75180096D01*
X110105410Y-75180172D01*
G36*
X110105410Y-75180172D02*
G01*
X110112725Y-75180681D01*
X110119907Y-75181608D01*
X110133938Y-75184654D01*
X110147641Y-75189184D01*
X110161153Y-75195076D01*
X110174612Y-75202205D01*
X110188158Y-75210447D01*
X110201926Y-75219678D01*
X110230687Y-75240612D01*
X110295085Y-75289887D01*
X110367254Y-75347026D01*
X110444766Y-75410017D01*
X110525190Y-75476847D01*
X110606097Y-75545503D01*
X110685059Y-75613970D01*
X110759646Y-75680237D01*
X110827429Y-75742289D01*
X110858073Y-75771157D01*
X110886485Y-75798524D01*
X110912743Y-75824443D01*
X110936923Y-75848972D01*
X110959104Y-75872166D01*
X110979362Y-75894079D01*
X110997774Y-75914767D01*
X111014418Y-75934286D01*
X111029371Y-75952690D01*
X111042709Y-75970036D01*
X111054510Y-75986379D01*
X111064851Y-76001774D01*
X111073809Y-76016276D01*
X111081462Y-76029941D01*
X111087886Y-76042824D01*
X111093159Y-76054980D01*
X111097206Y-76066649D01*
X111099335Y-76078799D01*
X111098702Y-76092583D01*
X111094464Y-76109154D01*
X111085777Y-76129665D01*
X111071796Y-76155268D01*
X111051678Y-76187115D01*
X111024578Y-76226360D01*
X110946060Y-76331653D01*
X110829488Y-76480368D01*
X110455181Y-76944945D01*
X107905571Y-80076404D01*
X107692132Y-80337309D01*
X107604224Y-80443095D01*
X107527228Y-80533585D01*
X107492441Y-80573362D01*
X107459924Y-80609638D01*
X107429524Y-80642520D01*
X107401090Y-80672116D01*
X107374467Y-80698533D01*
X107349503Y-80721879D01*
X107326047Y-80742261D01*
X107303944Y-80759788D01*
X107283043Y-80774566D01*
X107263190Y-80786704D01*
X107244233Y-80796308D01*
X107226020Y-80803487D01*
X107217145Y-80806201D01*
X107208397Y-80808348D01*
X107199760Y-80809943D01*
X107191213Y-80810999D01*
X107182737Y-80811529D01*
X107174313Y-80811546D01*
X107157547Y-80810099D01*
X107140760Y-80806764D01*
X107123800Y-80801649D01*
X107106515Y-80794861D01*
X107088752Y-80786509D01*
X107070358Y-80776699D01*
X107051181Y-80765540D01*
X107009865Y-80739602D01*
X106913590Y-80675779D01*
X106802536Y-80599486D01*
X106556441Y-80425333D01*
X106110743Y-80101620D01*
X106110728Y-80101616D01*
X106037355Y-80047905D01*
X106007665Y-80026126D01*
X105982204Y-80007389D01*
X105960644Y-79991437D01*
X105951224Y-79984425D01*
X105942658Y-79978013D01*
X105934903Y-79972169D01*
X105927918Y-79966862D01*
X105921664Y-79962057D01*
X105916098Y-79957725D01*
X105911181Y-79953832D01*
X105906871Y-79950347D01*
X105903127Y-79947237D01*
X105899909Y-79944470D01*
X105897175Y-79942015D01*
X105895978Y-79940894D01*
X105894885Y-79939839D01*
X105893894Y-79938846D01*
X105892998Y-79937910D01*
X105892193Y-79937028D01*
X105891473Y-79936196D01*
X105890833Y-79935410D01*
X105890268Y-79934665D01*
X105889773Y-79933958D01*
X105889344Y-79933284D01*
X105888974Y-79932641D01*
X105888658Y-79932023D01*
X105888393Y-79931427D01*
X105888171Y-79930848D01*
X105887990Y-79930283D01*
X105887842Y-79929727D01*
X105887629Y-79928629D01*
X105887491Y-79927522D01*
X105887389Y-79926372D01*
X105886935Y-79921068D01*
X105886536Y-79914649D01*
X105886351Y-79907184D01*
X105886542Y-79898738D01*
X105886828Y-79894169D01*
X105887268Y-79889380D01*
X105887883Y-79884380D01*
X105888691Y-79879176D01*
X105889714Y-79873778D01*
X105890971Y-79868194D01*
X105892482Y-79862432D01*
X105894268Y-79856501D01*
X105899987Y-79842690D01*
X105914456Y-79819456D01*
X105945247Y-79778022D01*
X105999929Y-79709608D01*
X106211251Y-79456729D01*
X106608984Y-78990593D01*
X107962244Y-77423583D01*
X108703839Y-76575380D01*
X109325821Y-75876317D01*
X109448810Y-75741213D01*
X109557788Y-75623452D01*
X109607369Y-75570766D01*
X109653861Y-75522044D01*
X109697402Y-75477163D01*
X109738131Y-75435997D01*
X109776186Y-75398424D01*
X109811704Y-75364319D01*
X109844824Y-75333558D01*
X109875683Y-75306018D01*
X109904419Y-75281574D01*
X109931171Y-75260103D01*
X109956077Y-75241480D01*
X109979274Y-75225582D01*
X110000901Y-75212284D01*
X110021095Y-75201464D01*
X110039995Y-75192996D01*
X110049003Y-75189605D01*
X110057739Y-75186756D01*
X110066220Y-75184434D01*
X110074463Y-75182622D01*
X110082487Y-75181305D01*
X110090308Y-75180468D01*
X110097943Y-75180096D01*
X110105410Y-75180172D01*
G37*
X88500000Y-73500000D02*
X88519383Y-73500893D01*
X88538290Y-73502375D01*
X88556766Y-73504433D01*
X88574861Y-73507057D01*
X88592620Y-73510235D01*
X88610090Y-73513954D01*
X88627319Y-73518203D01*
X88644353Y-73522971D01*
X88661240Y-73528245D01*
X88678027Y-73534014D01*
X88694745Y-73540271D01*
X88711375Y-73547023D01*
X88727880Y-73554282D01*
X88744226Y-73562059D01*
X88760377Y-73570366D01*
X88776298Y-73579215D01*
X88791955Y-73588618D01*
X88807310Y-73598586D01*
X88822331Y-73609131D01*
X88836980Y-73620265D01*
X88851223Y-73632000D01*
X88865026Y-73644348D01*
X88878351Y-73657320D01*
X88891165Y-73670927D01*
X88903432Y-73685183D01*
X88915117Y-73700098D01*
X88926189Y-73715679D01*
X88936634Y-73731917D01*
X88946441Y-73748801D01*
X88955600Y-73766314D01*
X88964102Y-73784446D01*
X88971936Y-73803181D01*
X88979092Y-73822507D01*
X88985560Y-73842410D01*
X88991330Y-73862877D01*
X88996392Y-73883894D01*
X89000736Y-73905449D01*
X89004352Y-73927527D01*
X89007229Y-73950115D01*
X89009358Y-73973200D01*
X89010729Y-73996768D01*
X89011332Y-74020806D01*
X89011140Y-74045311D01*
X89010159Y-74070326D01*
X89008372Y-74095905D01*
X89005765Y-74122101D01*
X89002321Y-74148969D01*
X88998025Y-74176561D01*
X88992862Y-74204931D01*
X88986816Y-74234134D01*
X88979872Y-74264222D01*
X88972014Y-74295250D01*
X88963227Y-74327272D01*
X88953495Y-74360340D01*
X88942803Y-74394510D01*
X88931135Y-74429833D01*
X88904810Y-74504159D01*
X88874394Y-74583596D01*
X88839737Y-74667824D01*
X88800677Y-74756374D01*
X88757054Y-74848776D01*
X88708707Y-74944561D01*
X88655473Y-75043258D01*
X88597193Y-75144398D01*
X88533704Y-75247512D01*
X88464846Y-75352165D01*
X88390458Y-75458065D01*
X88310380Y-75564958D01*
X88224450Y-75672590D01*
X88132506Y-75780705D01*
X88084229Y-75834864D01*
X88034388Y-75889048D01*
X87982963Y-75943226D01*
X87929934Y-75997365D01*
X87875281Y-76051434D01*
X87818983Y-76105401D01*
X87701507Y-76212860D01*
X87578005Y-76319285D01*
X87449107Y-76424179D01*
X87315445Y-76527046D01*
X87177649Y-76627389D01*
X87036349Y-76724713D01*
X86892177Y-76818521D01*
X86745762Y-76908316D01*
X86597948Y-76993538D01*
X86450431Y-77073377D01*
X86305115Y-77146961D01*
X86163907Y-77213417D01*
X86028713Y-77271873D01*
X85901437Y-77321457D01*
X85783987Y-77361296D01*
X85729541Y-77377288D01*
X85678267Y-77390517D01*
X85630341Y-77400929D01*
X85585699Y-77408693D01*
X85544214Y-77414030D01*
X85505762Y-77417164D01*
X85470215Y-77418319D01*
X85437448Y-77417717D01*
X85407336Y-77415582D01*
X85379753Y-77412136D01*
X85354572Y-77407602D01*
X85331667Y-77402205D01*
X85310914Y-77396166D01*
X85292186Y-77389710D01*
X85260302Y-77376435D01*
X85235008Y-77364166D01*
X85215310Y-77354223D01*
X85207266Y-77349974D01*
X85200270Y-77346037D01*
X85194207Y-77342280D01*
X85188962Y-77338575D01*
X85186609Y-77336701D01*
X85184417Y-77334793D01*
X85182372Y-77332832D01*
X85180458Y-77330804D01*
X85178662Y-77328692D01*
X85176969Y-77326480D01*
X85175365Y-77324152D01*
X85173835Y-77321691D01*
X85170938Y-77316308D01*
X85168164Y-77310203D01*
X85165397Y-77303244D01*
X85162520Y-77295305D01*
X85155977Y-77275965D01*
X85155980Y-77275961D01*
X85117035Y-77158702D01*
X85095738Y-77093790D01*
X85078091Y-77038863D01*
X85074670Y-77027871D01*
X85071717Y-77017927D01*
X85069244Y-77008793D01*
X85067263Y-77000227D01*
X85065785Y-76991991D01*
X85064822Y-76983844D01*
X85064386Y-76975545D01*
X85064488Y-76966856D01*
X85065141Y-76957536D01*
X85066356Y-76947345D01*
X85068145Y-76936043D01*
X85070519Y-76923390D01*
X85073491Y-76909147D01*
X85077072Y-76893072D01*
X85086107Y-76854471D01*
X85112325Y-76748377D01*
X85130139Y-76682043D01*
X85151536Y-76607924D01*
X85176853Y-76526825D01*
X85206425Y-76439552D01*
X85222911Y-76393852D01*
X85240587Y-76346910D01*
X85259495Y-76298827D01*
X85279676Y-76249704D01*
X85324073Y-76148598D01*
X85374350Y-76043694D01*
X85431122Y-75934953D01*
X85495008Y-75822332D01*
X85529812Y-75764555D01*
X85566626Y-75705793D01*
X85605527Y-75646040D01*
X85646593Y-75585293D01*
X85689901Y-75523546D01*
X85735527Y-75460794D01*
X85783549Y-75397031D01*
X85834045Y-75332253D01*
X85942411Y-75199915D01*
X86059488Y-75065162D01*
X86183787Y-74929659D01*
X86313816Y-74795068D01*
X86448087Y-74663055D01*
X86585110Y-74535283D01*
X86723395Y-74413417D01*
X86861453Y-74299120D01*
X86929943Y-74245290D01*
X86997893Y-74193734D01*
X87131728Y-74097300D01*
X87262073Y-74009538D01*
X87388042Y-73930164D01*
X87508749Y-73858898D01*
X87623309Y-73795457D01*
X87730836Y-73739558D01*
X87830445Y-73690921D01*
X87921512Y-73649222D01*
X88004472Y-73613966D01*
X88080022Y-73584616D01*
X88148861Y-73560635D01*
X88211686Y-73541486D01*
X88269197Y-73526632D01*
X88322091Y-73515537D01*
X88371065Y-73507663D01*
X88394294Y-73504777D01*
X88416764Y-73502551D01*
X88438523Y-73500971D01*
X88459617Y-73500028D01*
X88480094Y-73499708D01*
X88500000Y-73500000D01*
G36*
X88500000Y-73500000D02*
G01*
X88519383Y-73500893D01*
X88538290Y-73502375D01*
X88556766Y-73504433D01*
X88574861Y-73507057D01*
X88592620Y-73510235D01*
X88610090Y-73513954D01*
X88627319Y-73518203D01*
X88644353Y-73522971D01*
X88661240Y-73528245D01*
X88678027Y-73534014D01*
X88694745Y-73540271D01*
X88711375Y-73547023D01*
X88727880Y-73554282D01*
X88744226Y-73562059D01*
X88760377Y-73570366D01*
X88776298Y-73579215D01*
X88791955Y-73588618D01*
X88807310Y-73598586D01*
X88822331Y-73609131D01*
X88836980Y-73620265D01*
X88851223Y-73632000D01*
X88865026Y-73644348D01*
X88878351Y-73657320D01*
X88891165Y-73670927D01*
X88903432Y-73685183D01*
X88915117Y-73700098D01*
X88926189Y-73715679D01*
X88936634Y-73731917D01*
X88946441Y-73748801D01*
X88955600Y-73766314D01*
X88964102Y-73784446D01*
X88971936Y-73803181D01*
X88979092Y-73822507D01*
X88985560Y-73842410D01*
X88991330Y-73862877D01*
X88996392Y-73883894D01*
X89000736Y-73905449D01*
X89004352Y-73927527D01*
X89007229Y-73950115D01*
X89009358Y-73973200D01*
X89010729Y-73996768D01*
X89011332Y-74020806D01*
X89011140Y-74045311D01*
X89010159Y-74070326D01*
X89008372Y-74095905D01*
X89005765Y-74122101D01*
X89002321Y-74148969D01*
X88998025Y-74176561D01*
X88992862Y-74204931D01*
X88986816Y-74234134D01*
X88979872Y-74264222D01*
X88972014Y-74295250D01*
X88963227Y-74327272D01*
X88953495Y-74360340D01*
X88942803Y-74394510D01*
X88931135Y-74429833D01*
X88904810Y-74504159D01*
X88874394Y-74583596D01*
X88839737Y-74667824D01*
X88800677Y-74756374D01*
X88757054Y-74848776D01*
X88708707Y-74944561D01*
X88655473Y-75043258D01*
X88597193Y-75144398D01*
X88533704Y-75247512D01*
X88464846Y-75352165D01*
X88390458Y-75458065D01*
X88310380Y-75564958D01*
X88224450Y-75672590D01*
X88132506Y-75780705D01*
X88084229Y-75834864D01*
X88034388Y-75889048D01*
X87982963Y-75943226D01*
X87929934Y-75997365D01*
X87875281Y-76051434D01*
X87818983Y-76105401D01*
X87701507Y-76212860D01*
X87578005Y-76319285D01*
X87449107Y-76424179D01*
X87315445Y-76527046D01*
X87177649Y-76627389D01*
X87036349Y-76724713D01*
X86892177Y-76818521D01*
X86745762Y-76908316D01*
X86597948Y-76993538D01*
X86450431Y-77073377D01*
X86305115Y-77146961D01*
X86163907Y-77213417D01*
X86028713Y-77271873D01*
X85901437Y-77321457D01*
X85783987Y-77361296D01*
X85729541Y-77377288D01*
X85678267Y-77390517D01*
X85630341Y-77400929D01*
X85585699Y-77408693D01*
X85544214Y-77414030D01*
X85505762Y-77417164D01*
X85470215Y-77418319D01*
X85437448Y-77417717D01*
X85407336Y-77415582D01*
X85379753Y-77412136D01*
X85354572Y-77407602D01*
X85331667Y-77402205D01*
X85310914Y-77396166D01*
X85292186Y-77389710D01*
X85260302Y-77376435D01*
X85235008Y-77364166D01*
X85215310Y-77354223D01*
X85207266Y-77349974D01*
X85200270Y-77346037D01*
X85194207Y-77342280D01*
X85188962Y-77338575D01*
X85186609Y-77336701D01*
X85184417Y-77334793D01*
X85182372Y-77332832D01*
X85180458Y-77330804D01*
X85178662Y-77328692D01*
X85176969Y-77326480D01*
X85175365Y-77324152D01*
X85173835Y-77321691D01*
X85170938Y-77316308D01*
X85168164Y-77310203D01*
X85165397Y-77303244D01*
X85162520Y-77295305D01*
X85155977Y-77275965D01*
X85155980Y-77275961D01*
X85117035Y-77158702D01*
X85095738Y-77093790D01*
X85078091Y-77038863D01*
X85074670Y-77027871D01*
X85071717Y-77017927D01*
X85069244Y-77008793D01*
X85067263Y-77000227D01*
X85065785Y-76991991D01*
X85064822Y-76983844D01*
X85064386Y-76975545D01*
X85064488Y-76966856D01*
X85065141Y-76957536D01*
X85066356Y-76947345D01*
X85068145Y-76936043D01*
X85070519Y-76923390D01*
X85073491Y-76909147D01*
X85077072Y-76893072D01*
X85086107Y-76854471D01*
X85112325Y-76748377D01*
X85130139Y-76682043D01*
X85151536Y-76607924D01*
X85176853Y-76526825D01*
X85206425Y-76439552D01*
X85222911Y-76393852D01*
X85240587Y-76346910D01*
X85259495Y-76298827D01*
X85279676Y-76249704D01*
X85324073Y-76148598D01*
X85374350Y-76043694D01*
X85431122Y-75934953D01*
X85495008Y-75822332D01*
X85529812Y-75764555D01*
X85566626Y-75705793D01*
X85605527Y-75646040D01*
X85646593Y-75585293D01*
X85689901Y-75523546D01*
X85735527Y-75460794D01*
X85783549Y-75397031D01*
X85834045Y-75332253D01*
X85942411Y-75199915D01*
X86059488Y-75065162D01*
X86183787Y-74929659D01*
X86313816Y-74795068D01*
X86448087Y-74663055D01*
X86585110Y-74535283D01*
X86723395Y-74413417D01*
X86861453Y-74299120D01*
X86929943Y-74245290D01*
X86997893Y-74193734D01*
X87131728Y-74097300D01*
X87262073Y-74009538D01*
X87388042Y-73930164D01*
X87508749Y-73858898D01*
X87623309Y-73795457D01*
X87730836Y-73739558D01*
X87830445Y-73690921D01*
X87921512Y-73649222D01*
X88004472Y-73613966D01*
X88080022Y-73584616D01*
X88148861Y-73560635D01*
X88211686Y-73541486D01*
X88269197Y-73526632D01*
X88322091Y-73515537D01*
X88371065Y-73507663D01*
X88394294Y-73504777D01*
X88416764Y-73502551D01*
X88438523Y-73500971D01*
X88459617Y-73500028D01*
X88480094Y-73499708D01*
X88500000Y-73500000D01*
G37*
D12*
X104021241Y-87339857D02*
X104116479Y-87244619D01*
X104116479Y-87244619D02*
X104306955Y-87149380D01*
X104306955Y-87149380D02*
X104497431Y-87149380D01*
X104497431Y-87149380D02*
X104687907Y-87244619D01*
X104687907Y-87244619D02*
X104783146Y-87339857D01*
X104783146Y-87339857D02*
X104878384Y-87530333D01*
X104878384Y-87530333D02*
X104878384Y-87720809D01*
X104878384Y-87720809D02*
X104783146Y-87911285D01*
X104783146Y-87911285D02*
X104687907Y-88006523D01*
X104687907Y-88006523D02*
X104497431Y-88101761D01*
X104497431Y-88101761D02*
X104306955Y-88101761D01*
X104306955Y-88101761D02*
X104116479Y-88006523D01*
X104116479Y-88006523D02*
X104021241Y-87911285D01*
X104021241Y-87149380D02*
X104021241Y-87911285D01*
X104021241Y-87911285D02*
X103926003Y-88006523D01*
X103926003Y-88006523D02*
X103830765Y-88006523D01*
X103830765Y-88006523D02*
X103640288Y-87911285D01*
X103640288Y-87911285D02*
X103545050Y-87720809D01*
X103545050Y-87720809D02*
X103545050Y-87244619D01*
X103545050Y-87244619D02*
X103735527Y-86958904D01*
X103735527Y-86958904D02*
X104021241Y-86768428D01*
X104021241Y-86768428D02*
X104402193Y-86673190D01*
X104402193Y-86673190D02*
X104783146Y-86768428D01*
X104783146Y-86768428D02*
X105068860Y-86958904D01*
X105068860Y-86958904D02*
X105259336Y-87244619D01*
X105259336Y-87244619D02*
X105354574Y-87625571D01*
X105354574Y-87625571D02*
X105259336Y-88006523D01*
X105259336Y-88006523D02*
X105068860Y-88292238D01*
X105068860Y-88292238D02*
X104783146Y-88482714D01*
X104783146Y-88482714D02*
X104402193Y-88577952D01*
X104402193Y-88577952D02*
X104021241Y-88482714D01*
X104021241Y-88482714D02*
X103735527Y-88292238D01*
X102687907Y-88292238D02*
X102687907Y-86292238D01*
X102687907Y-87054142D02*
X102497431Y-86958904D01*
X102497431Y-86958904D02*
X102116478Y-86958904D01*
X102116478Y-86958904D02*
X101926002Y-87054142D01*
X101926002Y-87054142D02*
X101830764Y-87149380D01*
X101830764Y-87149380D02*
X101735526Y-87339857D01*
X101735526Y-87339857D02*
X101735526Y-87911285D01*
X101735526Y-87911285D02*
X101830764Y-88101761D01*
X101830764Y-88101761D02*
X101926002Y-88197000D01*
X101926002Y-88197000D02*
X102116478Y-88292238D01*
X102116478Y-88292238D02*
X102497431Y-88292238D01*
X102497431Y-88292238D02*
X102687907Y-88197000D01*
X100592669Y-88292238D02*
X100783145Y-88197000D01*
X100783145Y-88197000D02*
X100878383Y-88101761D01*
X100878383Y-88101761D02*
X100973621Y-87911285D01*
X100973621Y-87911285D02*
X100973621Y-87339857D01*
X100973621Y-87339857D02*
X100878383Y-87149380D01*
X100878383Y-87149380D02*
X100783145Y-87054142D01*
X100783145Y-87054142D02*
X100592669Y-86958904D01*
X100592669Y-86958904D02*
X100306954Y-86958904D01*
X100306954Y-86958904D02*
X100116478Y-87054142D01*
X100116478Y-87054142D02*
X100021240Y-87149380D01*
X100021240Y-87149380D02*
X99926002Y-87339857D01*
X99926002Y-87339857D02*
X99926002Y-87911285D01*
X99926002Y-87911285D02*
X100021240Y-88101761D01*
X100021240Y-88101761D02*
X100116478Y-88197000D01*
X100116478Y-88197000D02*
X100306954Y-88292238D01*
X100306954Y-88292238D02*
X100592669Y-88292238D01*
X99068859Y-88292238D02*
X99068859Y-86958904D01*
X99068859Y-87339857D02*
X98973621Y-87149380D01*
X98973621Y-87149380D02*
X98878383Y-87054142D01*
X98878383Y-87054142D02*
X98687907Y-86958904D01*
X98687907Y-86958904D02*
X98497430Y-86958904D01*
X97830764Y-88292238D02*
X97830764Y-86958904D01*
X97830764Y-86292238D02*
X97926002Y-86387476D01*
X97926002Y-86387476D02*
X97830764Y-86482714D01*
X97830764Y-86482714D02*
X97735526Y-86387476D01*
X97735526Y-86387476D02*
X97830764Y-86292238D01*
X97830764Y-86292238D02*
X97830764Y-86482714D01*
X96973621Y-88197000D02*
X96783145Y-88292238D01*
X96783145Y-88292238D02*
X96402193Y-88292238D01*
X96402193Y-88292238D02*
X96211716Y-88197000D01*
X96211716Y-88197000D02*
X96116478Y-88006523D01*
X96116478Y-88006523D02*
X96116478Y-87911285D01*
X96116478Y-87911285D02*
X96211716Y-87720809D01*
X96211716Y-87720809D02*
X96402193Y-87625571D01*
X96402193Y-87625571D02*
X96687907Y-87625571D01*
X96687907Y-87625571D02*
X96878383Y-87530333D01*
X96878383Y-87530333D02*
X96973621Y-87339857D01*
X96973621Y-87339857D02*
X96973621Y-87244619D01*
X96973621Y-87244619D02*
X96878383Y-87054142D01*
X96878383Y-87054142D02*
X96687907Y-86958904D01*
X96687907Y-86958904D02*
X96402193Y-86958904D01*
X96402193Y-86958904D02*
X96211716Y-87054142D01*
X95259335Y-86958904D02*
X95259335Y-88292238D01*
X95259335Y-87149380D02*
X95164097Y-87054142D01*
X95164097Y-87054142D02*
X94973621Y-86958904D01*
X94973621Y-86958904D02*
X94687906Y-86958904D01*
X94687906Y-86958904D02*
X94497430Y-87054142D01*
X94497430Y-87054142D02*
X94402192Y-87244619D01*
X94402192Y-87244619D02*
X94402192Y-88292238D01*
X93164097Y-88292238D02*
X93354573Y-88197000D01*
X93354573Y-88197000D02*
X93449811Y-88101761D01*
X93449811Y-88101761D02*
X93545049Y-87911285D01*
X93545049Y-87911285D02*
X93545049Y-87339857D01*
X93545049Y-87339857D02*
X93449811Y-87149380D01*
X93449811Y-87149380D02*
X93354573Y-87054142D01*
X93354573Y-87054142D02*
X93164097Y-86958904D01*
X93164097Y-86958904D02*
X92878382Y-86958904D01*
X92878382Y-86958904D02*
X92687906Y-87054142D01*
X92687906Y-87054142D02*
X92592668Y-87149380D01*
X92592668Y-87149380D02*
X92497430Y-87339857D01*
X92497430Y-87339857D02*
X92497430Y-87911285D01*
X92497430Y-87911285D02*
X92592668Y-88101761D01*
X92592668Y-88101761D02*
X92687906Y-88197000D01*
X92687906Y-88197000D02*
X92878382Y-88292238D01*
X92878382Y-88292238D02*
X93164097Y-88292238D01*
X91926001Y-86958904D02*
X91164097Y-86958904D01*
X91640287Y-86292238D02*
X91640287Y-88006523D01*
X91640287Y-88006523D02*
X91545049Y-88197000D01*
X91545049Y-88197000D02*
X91354573Y-88292238D01*
X91354573Y-88292238D02*
X91164097Y-88292238D01*
X89735525Y-88197000D02*
X89926001Y-88292238D01*
X89926001Y-88292238D02*
X90306954Y-88292238D01*
X90306954Y-88292238D02*
X90497430Y-88197000D01*
X90497430Y-88197000D02*
X90592668Y-88006523D01*
X90592668Y-88006523D02*
X90592668Y-87244619D01*
X90592668Y-87244619D02*
X90497430Y-87054142D01*
X90497430Y-87054142D02*
X90306954Y-86958904D01*
X90306954Y-86958904D02*
X89926001Y-86958904D01*
X89926001Y-86958904D02*
X89735525Y-87054142D01*
X89735525Y-87054142D02*
X89640287Y-87244619D01*
X89640287Y-87244619D02*
X89640287Y-87435095D01*
X89640287Y-87435095D02*
X90592668Y-87625571D01*
X88878382Y-88197000D02*
X88687906Y-88292238D01*
X88687906Y-88292238D02*
X88306954Y-88292238D01*
X88306954Y-88292238D02*
X88116477Y-88197000D01*
X88116477Y-88197000D02*
X88021239Y-88006523D01*
X88021239Y-88006523D02*
X88021239Y-87911285D01*
X88021239Y-87911285D02*
X88116477Y-87720809D01*
X88116477Y-87720809D02*
X88306954Y-87625571D01*
X88306954Y-87625571D02*
X88592668Y-87625571D01*
X88592668Y-87625571D02*
X88783144Y-87530333D01*
X88783144Y-87530333D02*
X88878382Y-87339857D01*
X88878382Y-87339857D02*
X88878382Y-87244619D01*
X88878382Y-87244619D02*
X88783144Y-87054142D01*
X88783144Y-87054142D02*
X88592668Y-86958904D01*
X88592668Y-86958904D02*
X88306954Y-86958904D01*
X88306954Y-86958904D02*
X88116477Y-87054142D01*
D13*
%TO.C,J1*%
X97760000Y-93400000D03*
X97760000Y-101000000D03*
X100300000Y-93400000D03*
X100300000Y-101000000D03*
X102840000Y-93400000D03*
X102840000Y-101000000D03*
%TD*%
D14*
%TO.C,R4*%
X93345235Y-77845235D03*
X92054765Y-76554765D03*
%TD*%
D15*
%TO.C,D5*%
X108250000Y-80250000D03*
X106500000Y-80250000D03*
%TD*%
D16*
%TO.C,R6*%
X92562500Y-82300000D03*
X90737500Y-82300000D03*
%TD*%
D17*
%TO.C,D4*%
X86381282Y-76118718D03*
X87618718Y-74881282D03*
%TD*%
D18*
%TO.C,R3*%
X105454765Y-77445235D03*
X106745235Y-76154765D03*
%TD*%
D19*
%TO.C,D1*%
X113243718Y-103618718D03*
X112006282Y-102381282D03*
%TD*%
D20*
%TO.C,R2*%
X90450000Y-99087500D03*
X90450000Y-100912500D03*
%TD*%
D21*
%TO.C,R5*%
X106437500Y-81950000D03*
X108262500Y-81950000D03*
%TD*%
D19*
%TO.C,D3*%
X112500000Y-74750000D03*
X111262564Y-73512564D03*
%TD*%
D17*
%TO.C,D2*%
X87631282Y-104618718D03*
X88868718Y-103381282D03*
%TD*%
D22*
%TO.C,D6*%
X90750000Y-80500000D03*
X92500000Y-80500000D03*
%TD*%
D20*
%TO.C,R1*%
X110000000Y-99087500D03*
X110000000Y-100912500D03*
%TD*%
M02*
