%TF.GenerationSoftware,KiCad,Pcbnew,9.0.6*%
%TF.CreationDate,2025-12-03T22:20:56+01:00*%
%TF.ProjectId,knit_yarn_SAO,6b6e6974-5f79-4617-926e-5f53414f2e6b,rev?*%
%TF.SameCoordinates,Original*%
%TF.FileFunction,Copper,L2,Bot*%
%TF.FilePolarity,Positive*%
%FSLAX46Y46*%
G04 Gerber Fmt 4.6, Leading zero omitted, Abs format (unit mm)*
G04 Created by KiCad (PCBNEW 9.0.6) date 2025-12-03 22:20:56*
%MOMM*%
%LPD*%
G01*
G04 APERTURE LIST*
G04 Aperture macros list*
%AMRoundRect*
0 Rectangle with rounded corners*
0 $1 Rounding radius*
0 $2 $3 $4 $5 $6 $7 $8 $9 X,Y pos of 4 corners*
0 Add a 4 corners polygon primitive as box body*
4,1,4,$2,$3,$4,$5,$6,$7,$8,$9,$2,$3,0*
0 Add four circle primitives for the rounded corners*
1,1,$1+$1,$2,$3*
1,1,$1+$1,$4,$5*
1,1,$1+$1,$6,$7*
1,1,$1+$1,$8,$9*
0 Add four rect primitives between the rounded corners*
20,1,$1+$1,$2,$3,$4,$5,0*
20,1,$1+$1,$4,$5,$6,$7,0*
20,1,$1+$1,$6,$7,$8,$9,0*
20,1,$1+$1,$8,$9,$2,$3,0*%
G04 Aperture macros list end*
%TA.AperFunction,SMDPad,CuDef*%
%ADD10RoundRect,0.250000X-0.260000X2.250000X-0.260000X-2.250000X0.260000X-2.250000X0.260000X2.250000X0*%
%TD*%
%TA.AperFunction,SMDPad,CuDef*%
%ADD11RoundRect,0.237500X0.344715X-0.008839X-0.008839X0.344715X-0.344715X0.008839X0.008839X-0.344715X0*%
%TD*%
%TA.AperFunction,SMDPad,CuDef*%
%ADD12RoundRect,0.237500X0.287500X0.237500X-0.287500X0.237500X-0.287500X-0.237500X0.287500X-0.237500X0*%
%TD*%
%TA.AperFunction,SMDPad,CuDef*%
%ADD13RoundRect,0.237500X0.250000X0.237500X-0.250000X0.237500X-0.250000X-0.237500X0.250000X-0.237500X0*%
%TD*%
%TA.AperFunction,SMDPad,CuDef*%
%ADD14RoundRect,0.237500X-0.035355X-0.371231X0.371231X0.035355X0.035355X0.371231X-0.371231X-0.035355X0*%
%TD*%
%TA.AperFunction,SMDPad,CuDef*%
%ADD15RoundRect,0.237500X-0.008839X-0.344715X0.344715X0.008839X0.008839X0.344715X-0.344715X-0.008839X0*%
%TD*%
%TA.AperFunction,SMDPad,CuDef*%
%ADD16RoundRect,0.237500X0.371231X-0.035355X-0.035355X0.371231X-0.371231X0.035355X0.035355X-0.371231X0*%
%TD*%
%TA.AperFunction,SMDPad,CuDef*%
%ADD17RoundRect,0.237500X-0.237500X0.250000X-0.237500X-0.250000X0.237500X-0.250000X0.237500X0.250000X0*%
%TD*%
%TA.AperFunction,SMDPad,CuDef*%
%ADD18RoundRect,0.237500X-0.250000X-0.237500X0.250000X-0.237500X0.250000X0.237500X-0.250000X0.237500X0*%
%TD*%
%TA.AperFunction,SMDPad,CuDef*%
%ADD19RoundRect,0.237500X-0.287500X-0.237500X0.287500X-0.237500X0.287500X0.237500X-0.287500X0.237500X0*%
%TD*%
%TA.AperFunction,Conductor*%
%ADD20C,0.200000*%
%TD*%
G04 APERTURE END LIST*
D10*
%TO.P,J1,1,Pin_1*%
%TO.N,+3V0*%
X97760000Y-93400000D03*
%TO.P,J1,2,Pin_2*%
%TO.N,GND*%
X97760000Y-101000000D03*
%TO.P,J1,3,Pin_3*%
%TO.N,unconnected-(J1-Pin_3-Pad3)*%
X100300000Y-93400000D03*
%TO.P,J1,4,Pin_4*%
%TO.N,unconnected-(J1-Pin_4-Pad4)*%
X100300000Y-101000000D03*
%TO.P,J1,5,Pin_5*%
%TO.N,unconnected-(J1-Pin_5-Pad5)*%
X102840000Y-93400000D03*
%TO.P,J1,6,Pin_6*%
%TO.N,unconnected-(J1-Pin_6-Pad6)*%
X102840000Y-101000000D03*
%TD*%
D11*
%TO.P,R4,1*%
%TO.N,+3V0*%
X93345235Y-77845235D03*
%TO.P,R4,2*%
%TO.N,Net-(D4-A)*%
X92054765Y-76554765D03*
%TD*%
D12*
%TO.P,D5,1,K*%
%TO.N,GND*%
X108250000Y-80250000D03*
%TO.P,D5,2,A*%
%TO.N,Net-(D5-A)*%
X106500000Y-80250000D03*
%TD*%
D13*
%TO.P,R6,1*%
%TO.N,+3V0*%
X92562500Y-82300000D03*
%TO.P,R6,2*%
%TO.N,Net-(D6-A)*%
X90737500Y-82300000D03*
%TD*%
D14*
%TO.P,D4,1,K*%
%TO.N,GND*%
X86381282Y-76118718D03*
%TO.P,D4,2,A*%
%TO.N,Net-(D4-A)*%
X87618718Y-74881282D03*
%TD*%
D15*
%TO.P,R3,1*%
%TO.N,+3V0*%
X105454765Y-77445235D03*
%TO.P,R3,2*%
%TO.N,Net-(D3-A)*%
X106745235Y-76154765D03*
%TD*%
D16*
%TO.P,D1,1,K*%
%TO.N,GND*%
X113243718Y-103618718D03*
%TO.P,D1,2,A*%
%TO.N,Net-(D1-A)*%
X112006282Y-102381282D03*
%TD*%
D17*
%TO.P,R2,1*%
%TO.N,+3V0*%
X90450000Y-99087500D03*
%TO.P,R2,2*%
%TO.N,Net-(D2-A)*%
X90450000Y-100912500D03*
%TD*%
D18*
%TO.P,R5,1*%
%TO.N,+3V0*%
X106437500Y-81950000D03*
%TO.P,R5,2*%
%TO.N,Net-(D5-A)*%
X108262500Y-81950000D03*
%TD*%
D16*
%TO.P,D3,1,K*%
%TO.N,GND*%
X112500000Y-74750000D03*
%TO.P,D3,2,A*%
%TO.N,Net-(D3-A)*%
X111262564Y-73512564D03*
%TD*%
D14*
%TO.P,D2,1,K*%
%TO.N,GND*%
X87631282Y-104618718D03*
%TO.P,D2,2,A*%
%TO.N,Net-(D2-A)*%
X88868718Y-103381282D03*
%TD*%
D19*
%TO.P,D6,1,K*%
%TO.N,GND*%
X90750000Y-80500000D03*
%TO.P,D6,2,A*%
%TO.N,Net-(D6-A)*%
X92500000Y-80500000D03*
%TD*%
D17*
%TO.P,R1,1*%
%TO.N,+3V0*%
X110000000Y-99087500D03*
%TO.P,R1,2*%
%TO.N,Net-(D1-A)*%
X110000000Y-100912500D03*
%TD*%
D20*
%TO.N,GND*%
X90694134Y-103000000D02*
X91850000Y-103000000D01*
X89075416Y-104618718D02*
X90694134Y-103000000D01*
X87631282Y-104618718D02*
X89075416Y-104618718D01*
X110490270Y-102300000D02*
X109800000Y-102300000D01*
X111808988Y-103618718D02*
X110490270Y-102300000D01*
X113243718Y-103618718D02*
X111808988Y-103618718D01*
%TO.N,+3V0*%
X92562500Y-82300000D02*
X92562500Y-83087500D01*
X86000000Y-85850000D02*
X86000000Y-94637500D01*
X92562500Y-83087500D02*
X92100000Y-83550000D01*
X92100000Y-83550000D02*
X88300000Y-83550000D01*
X88300000Y-83550000D02*
X86000000Y-85850000D01*
X86000000Y-94637500D02*
X90450000Y-99087500D01*
X105454765Y-77445235D02*
X104709530Y-76700000D01*
X94490470Y-76700000D02*
X93345235Y-77845235D01*
X104709530Y-76700000D02*
X94490470Y-76700000D01*
X96150000Y-103800000D02*
X96150000Y-95150000D01*
X92212500Y-99087500D02*
X96150000Y-95150000D01*
X90450000Y-99087500D02*
X92212500Y-99087500D01*
X110000000Y-99087500D02*
X105212500Y-99087500D01*
X105212500Y-99087500D02*
X104450000Y-99850000D01*
X96150000Y-95010000D02*
X97760000Y-93400000D01*
X104450000Y-99850000D02*
X104450000Y-104100000D01*
X104450000Y-104100000D02*
X104200000Y-104350000D01*
X104200000Y-104350000D02*
X96700000Y-104350000D01*
X96700000Y-104350000D02*
X96150000Y-103800000D01*
X96150000Y-95150000D02*
X96150000Y-95010000D01*
%TO.N,Net-(D2-A)*%
X88868718Y-103381282D02*
X88868718Y-102493782D01*
X88868718Y-102493782D02*
X90450000Y-100912500D01*
%TO.N,Net-(D1-A)*%
X112006282Y-102381282D02*
X110537500Y-100912500D01*
X110537500Y-100912500D02*
X110000000Y-100912500D01*
%TO.N,+3V0*%
X92562500Y-82300000D02*
X93400000Y-82300000D01*
X93400000Y-82300000D02*
X94100000Y-81600000D01*
X94100000Y-81600000D02*
X94100000Y-78600000D01*
X94100000Y-78600000D02*
X93345235Y-77845235D01*
%TO.N,Net-(D6-A)*%
X90737500Y-82300000D02*
X90737500Y-81962500D01*
X90737500Y-81962500D02*
X91200000Y-81500000D01*
X91200000Y-81500000D02*
X92250000Y-81500000D01*
X92250000Y-81500000D02*
X92250000Y-81450000D01*
X92250000Y-81450000D02*
X92500000Y-81200000D01*
X92500000Y-81200000D02*
X92500000Y-80500000D01*
%TO.N,+3V0*%
X106437500Y-81950000D02*
X105000000Y-81950000D01*
X105000000Y-81950000D02*
X104750000Y-81700000D01*
X104750000Y-81700000D02*
X104750000Y-78150000D01*
X104750000Y-78150000D02*
X105454765Y-77445235D01*
%TO.N,Net-(D5-A)*%
X108262500Y-81950000D02*
X108262500Y-81862500D01*
X108262500Y-81862500D02*
X107450000Y-81050000D01*
X107450000Y-81050000D02*
X106750000Y-81050000D01*
X106750000Y-81050000D02*
X106500000Y-80800000D01*
X106500000Y-80800000D02*
X106500000Y-80250000D01*
%TO.N,GND*%
X112500000Y-74750000D02*
X112500000Y-75500000D01*
X112500000Y-75500000D02*
X112200000Y-75800000D01*
X112200000Y-75800000D02*
X111811977Y-75800000D01*
X111811977Y-75800000D02*
X110850000Y-76761977D01*
X110850000Y-76761977D02*
X110850000Y-77650000D01*
X110850000Y-77650000D02*
X108250000Y-80250000D01*
%TO.N,Net-(D3-A)*%
X111028647Y-73512564D02*
X109491211Y-75050000D01*
X109491211Y-75050000D02*
X109451125Y-75095270D01*
X111262564Y-73512564D02*
X111028647Y-73512564D01*
X109451125Y-75095270D02*
X109451125Y-75119084D01*
X109451125Y-75119084D02*
X108415444Y-76154765D01*
X108415444Y-76154765D02*
X106745235Y-76154765D01*
%TO.N,GND*%
X87150000Y-76887436D02*
X87150000Y-77500000D01*
X86381282Y-76118718D02*
X87150000Y-76887436D01*
X87150000Y-77500000D02*
X87157915Y-77500000D01*
X90157915Y-80500000D02*
X90750000Y-80500000D01*
X87157915Y-77500000D02*
X90157915Y-80500000D01*
%TO.N,Net-(D4-A)*%
X88281282Y-74881282D02*
X88750000Y-75350000D01*
X87618718Y-74881282D02*
X88281282Y-74881282D01*
X88750000Y-75560316D02*
X89744449Y-76554765D01*
X88750000Y-75350000D02*
X88750000Y-75560316D01*
X89744449Y-76554765D02*
X92054765Y-76554765D01*
%TO.N,GND*%
X88450000Y-100600000D02*
X88700000Y-100350000D01*
X87631282Y-104618718D02*
X87631282Y-102849739D01*
X87631282Y-102849739D02*
X88450000Y-102031021D01*
X88450000Y-101750000D02*
X88450000Y-100600000D01*
X88450000Y-102031021D02*
X88450000Y-101750000D01*
X113150000Y-102000000D02*
X111200000Y-100050000D01*
X113243718Y-103618718D02*
X113243718Y-102093718D01*
X111200000Y-100050000D02*
X111150000Y-100050000D01*
X113243718Y-102093718D02*
X113150000Y-102000000D01*
%TD*%
%TA.AperFunction,Conductor*%
%TO.N,GND*%
G36*
X95468834Y-96782914D02*
G01*
X95524767Y-96824786D01*
X95549184Y-96890250D01*
X95549500Y-96899096D01*
X95549500Y-103713330D01*
X95549499Y-103713348D01*
X95549499Y-103879054D01*
X95549498Y-103879054D01*
X95590423Y-104031787D01*
X95590424Y-104031788D01*
X95615061Y-104074460D01*
X95615063Y-104074463D01*
X95615064Y-104074464D01*
X95669479Y-104168714D01*
X95669481Y-104168717D01*
X95788349Y-104287585D01*
X95788355Y-104287590D01*
X96215139Y-104714374D01*
X96215149Y-104714385D01*
X96219479Y-104718715D01*
X96219480Y-104718716D01*
X96331284Y-104830520D01*
X96331286Y-104830521D01*
X96331290Y-104830524D01*
X96420378Y-104881958D01*
X96468216Y-104909577D01*
X96580019Y-104939534D01*
X96620942Y-104950500D01*
X96620943Y-104950500D01*
X104113331Y-104950500D01*
X104113347Y-104950501D01*
X104120943Y-104950501D01*
X104279054Y-104950501D01*
X104279057Y-104950501D01*
X104431785Y-104909577D01*
X104489380Y-104876324D01*
X104568716Y-104830520D01*
X104680520Y-104718716D01*
X104680520Y-104718714D01*
X104690723Y-104708512D01*
X104690727Y-104708506D01*
X104808506Y-104590728D01*
X104808511Y-104590724D01*
X104818714Y-104580520D01*
X104818716Y-104580520D01*
X104930520Y-104468716D01*
X105009577Y-104331784D01*
X105040663Y-104215770D01*
X105050500Y-104179058D01*
X105050500Y-104020943D01*
X105050500Y-100150097D01*
X105070185Y-100083058D01*
X105086819Y-100062416D01*
X105424916Y-99724319D01*
X105486239Y-99690834D01*
X105512597Y-99688000D01*
X109042389Y-99688000D01*
X109109428Y-99707685D01*
X109135940Y-99730611D01*
X109142600Y-99738267D01*
X109179660Y-99798350D01*
X109296674Y-99915364D01*
X109299499Y-99918611D01*
X109312353Y-99946610D01*
X109327114Y-99973642D01*
X109326797Y-99978071D01*
X109328651Y-99982109D01*
X109324326Y-100012613D01*
X109322130Y-100043334D01*
X109319361Y-100047641D01*
X109318845Y-100051287D01*
X109311692Y-100059574D01*
X109293629Y-100087681D01*
X109179661Y-100201648D01*
X109089093Y-100348481D01*
X109089091Y-100348486D01*
X109075808Y-100388572D01*
X109034826Y-100512247D01*
X109034826Y-100512248D01*
X109034825Y-100512248D01*
X109024500Y-100613315D01*
X109024500Y-101211669D01*
X109024501Y-101211687D01*
X109034825Y-101312752D01*
X109056045Y-101376788D01*
X109085340Y-101465194D01*
X109089092Y-101476515D01*
X109089093Y-101476518D01*
X109109767Y-101510035D01*
X109179660Y-101623350D01*
X109301650Y-101745340D01*
X109448484Y-101835908D01*
X109612247Y-101890174D01*
X109713323Y-101900500D01*
X110286676Y-101900499D01*
X110286684Y-101900498D01*
X110286687Y-101900498D01*
X110342030Y-101894844D01*
X110387753Y-101890174D01*
X110524099Y-101844992D01*
X110539664Y-101844457D01*
X110554256Y-101839015D01*
X110573866Y-101843281D01*
X110593926Y-101842591D01*
X110608251Y-101850761D01*
X110622529Y-101853867D01*
X110650783Y-101875018D01*
X110700061Y-101924296D01*
X110733546Y-101985619D01*
X110728562Y-102055311D01*
X110694761Y-102104656D01*
X110221065Y-102525719D01*
X110157881Y-102555545D01*
X110143664Y-102556940D01*
X110132246Y-102557398D01*
X110119348Y-102558653D01*
X110119317Y-102558339D01*
X110110272Y-102559224D01*
X110110328Y-102559792D01*
X110100919Y-102560719D01*
X110094753Y-102561887D01*
X110088198Y-102562845D01*
X110083301Y-102563035D01*
X110080078Y-102564033D01*
X110070827Y-102565386D01*
X110066994Y-102565969D01*
X110065367Y-102566440D01*
X110044207Y-102570607D01*
X110041209Y-102570930D01*
X110038030Y-102571701D01*
X110034808Y-102572747D01*
X110034391Y-102572775D01*
X110027565Y-102575099D01*
X110026674Y-102575389D01*
X110026100Y-102575405D01*
X110009507Y-102579636D01*
X110001645Y-102580995D01*
X110001639Y-102580996D01*
X110001638Y-102580997D01*
X110001636Y-102580997D01*
X109998800Y-102581881D01*
X109984753Y-102587053D01*
X109977039Y-102589211D01*
X109975964Y-102589367D01*
X109974994Y-102589783D01*
X109967050Y-102592006D01*
X109966588Y-102592000D01*
X109960680Y-102594224D01*
X109955551Y-102596572D01*
X109950317Y-102598587D01*
X109949482Y-102598736D01*
X109947381Y-102599718D01*
X109943329Y-102601279D01*
X109941982Y-102601389D01*
X109933248Y-102604673D01*
X109930967Y-102605333D01*
X109929267Y-102606076D01*
X109926142Y-102607801D01*
X109922276Y-102609740D01*
X109906676Y-102616274D01*
X109899694Y-102618652D01*
X109896261Y-102620350D01*
X109887153Y-102625554D01*
X109882737Y-102627678D01*
X109870711Y-102632337D01*
X109866207Y-102635628D01*
X109855958Y-102640559D01*
X109855092Y-102640701D01*
X109847275Y-102644636D01*
X109843774Y-102646140D01*
X109836792Y-102650293D01*
X109836494Y-102649792D01*
X109824460Y-102657206D01*
X109818372Y-102660053D01*
X109811518Y-102664431D01*
X109811382Y-102664219D01*
X109807222Y-102667159D01*
X109803653Y-102669258D01*
X109794315Y-102673944D01*
X109791636Y-102676325D01*
X109787705Y-102678637D01*
X109787268Y-102678779D01*
X109785295Y-102680054D01*
X109781917Y-102682042D01*
X109781355Y-102682183D01*
X109777318Y-102684617D01*
X109771209Y-102687868D01*
X109767381Y-102690601D01*
X109755881Y-102697891D01*
X109748786Y-102701859D01*
X109746487Y-102703574D01*
X109739688Y-102708299D01*
X109737287Y-102709851D01*
X109726799Y-102715969D01*
X109724967Y-102717816D01*
X109717174Y-102722855D01*
X109716679Y-102723001D01*
X109714003Y-102724838D01*
X109704755Y-102730428D01*
X109698690Y-102734940D01*
X109697011Y-102736100D01*
X109692124Y-102739308D01*
X109683198Y-102744871D01*
X109681532Y-102746242D01*
X109670154Y-102754559D01*
X109651132Y-102766868D01*
X109647300Y-102769129D01*
X109646574Y-102769650D01*
X109641708Y-102772967D01*
X109639769Y-102774221D01*
X109634961Y-102777981D01*
X109618683Y-102789661D01*
X109615586Y-102791813D01*
X109594062Y-102806286D01*
X109583123Y-102814844D01*
X109545208Y-102841060D01*
X109543395Y-102842702D01*
X109532467Y-102851522D01*
X109431635Y-102923871D01*
X109424182Y-102929218D01*
X109422945Y-102929693D01*
X109370792Y-102967525D01*
X109370504Y-102967733D01*
X109370474Y-102967755D01*
X109314356Y-103008022D01*
X109309922Y-103011684D01*
X109095534Y-103167211D01*
X109094895Y-103167672D01*
X108946534Y-103273867D01*
X108945657Y-103274489D01*
X108792560Y-103382080D01*
X108791380Y-103382899D01*
X108709937Y-103438681D01*
X108636776Y-103488790D01*
X108635133Y-103489895D01*
X108481711Y-103591415D01*
X108479636Y-103592759D01*
X108328489Y-103688497D01*
X108326294Y-103689856D01*
X108175900Y-103780786D01*
X108173724Y-103782071D01*
X108022384Y-103869411D01*
X108020322Y-103870574D01*
X107910300Y-103931246D01*
X107866658Y-103955312D01*
X107864684Y-103956377D01*
X107707291Y-104039494D01*
X107705493Y-104040425D01*
X107543111Y-104122813D01*
X107541526Y-104123603D01*
X107372645Y-104206277D01*
X107371295Y-104206928D01*
X107195104Y-104290556D01*
X107193949Y-104291097D01*
X107009793Y-104376197D01*
X107008632Y-104376726D01*
X106816850Y-104462967D01*
X106815642Y-104463503D01*
X106615854Y-104550795D01*
X106614602Y-104551333D01*
X106406512Y-104639543D01*
X106405228Y-104640079D01*
X106188249Y-104729198D01*
X106186939Y-104729727D01*
X105960891Y-104819574D01*
X105959564Y-104820093D01*
X105723944Y-104910624D01*
X105722602Y-104911131D01*
X105476924Y-105002278D01*
X105475573Y-105002770D01*
X105220167Y-105094171D01*
X105218792Y-105094654D01*
X104954904Y-105185608D01*
X104953478Y-105186090D01*
X104683294Y-105275558D01*
X104681790Y-105276045D01*
X104406892Y-105363201D01*
X104405387Y-105363667D01*
X104128015Y-105447479D01*
X104126304Y-105447983D01*
X103848328Y-105527548D01*
X103846413Y-105528079D01*
X103569997Y-105602426D01*
X103567868Y-105602979D01*
X103294745Y-105671269D01*
X103292365Y-105671839D01*
X103023893Y-105733363D01*
X103021306Y-105733927D01*
X102755798Y-105788833D01*
X102753059Y-105789367D01*
X102488447Y-105837905D01*
X102485613Y-105838391D01*
X102219629Y-105880831D01*
X102216761Y-105881254D01*
X101947182Y-105917828D01*
X101944341Y-105918180D01*
X101669064Y-105949072D01*
X101666309Y-105949350D01*
X101382883Y-105974764D01*
X101380264Y-105974971D01*
X101086827Y-105995025D01*
X101084387Y-105995168D01*
X100779543Y-106009974D01*
X100777288Y-106010063D01*
X100462860Y-106019602D01*
X100460736Y-106019648D01*
X100139631Y-106023885D01*
X100137585Y-106023895D01*
X99812619Y-106022821D01*
X99810604Y-106022798D01*
X99484378Y-106016418D01*
X99482350Y-106016362D01*
X99157716Y-106004697D01*
X99155630Y-106004604D01*
X98835375Y-105987692D01*
X98833183Y-105987557D01*
X98519986Y-105965449D01*
X98517635Y-105965261D01*
X98213541Y-105937974D01*
X98211023Y-105937722D01*
X97915374Y-105905100D01*
X97912719Y-105904778D01*
X97623814Y-105866576D01*
X97621051Y-105866179D01*
X97337476Y-105822166D01*
X97334649Y-105821694D01*
X97054694Y-105771592D01*
X97051845Y-105771047D01*
X96773986Y-105714581D01*
X96771157Y-105713972D01*
X96493773Y-105650830D01*
X96491013Y-105650168D01*
X96212431Y-105580008D01*
X96209821Y-105579320D01*
X96030842Y-105530030D01*
X95928815Y-105501932D01*
X95926368Y-105501231D01*
X95643487Y-105417042D01*
X95641217Y-105416343D01*
X95357613Y-105325989D01*
X95355490Y-105325291D01*
X95072555Y-105229500D01*
X95070551Y-105228803D01*
X94789345Y-105128202D01*
X94787437Y-105127502D01*
X94509296Y-105022826D01*
X94507463Y-105022119D01*
X94298649Y-104939734D01*
X94233657Y-104914092D01*
X94231895Y-104913381D01*
X94226441Y-104911131D01*
X94031048Y-104830521D01*
X93963464Y-104802639D01*
X93961739Y-104801912D01*
X93699689Y-104689144D01*
X93698097Y-104688446D01*
X93443689Y-104574714D01*
X93442234Y-104574052D01*
X93197054Y-104460631D01*
X93195761Y-104460024D01*
X92962784Y-104348848D01*
X92960983Y-104347971D01*
X92600473Y-104168716D01*
X92529368Y-104133361D01*
X92527189Y-104132250D01*
X92158447Y-103939699D01*
X92156886Y-103938870D01*
X92046216Y-103879057D01*
X92001600Y-103854943D01*
X92000611Y-103854403D01*
X91979420Y-103842689D01*
X91862969Y-103778315D01*
X91861466Y-103777470D01*
X91812516Y-103749500D01*
X91778066Y-103729815D01*
X91631405Y-103646012D01*
X91629438Y-103644864D01*
X91457189Y-103542199D01*
X91455755Y-103541331D01*
X91340963Y-103470791D01*
X91329325Y-103462688D01*
X91327684Y-103461400D01*
X91327679Y-103461397D01*
X91327678Y-103461396D01*
X91292211Y-103440394D01*
X91281327Y-103432103D01*
X91280916Y-103432661D01*
X91274375Y-103427830D01*
X91261804Y-103420877D01*
X91250308Y-103412667D01*
X91249974Y-103413151D01*
X91243289Y-103408535D01*
X91243287Y-103408534D01*
X91243286Y-103408533D01*
X91228851Y-103401137D01*
X91215096Y-103392079D01*
X91215055Y-103392145D01*
X91208175Y-103387828D01*
X91203492Y-103385684D01*
X91193250Y-103380995D01*
X91181700Y-103374953D01*
X91176965Y-103372149D01*
X91167578Y-103365952D01*
X91167302Y-103365801D01*
X91158043Y-103362205D01*
X91150158Y-103358824D01*
X91146484Y-103357096D01*
X91141009Y-103354068D01*
X91138972Y-103353562D01*
X91131502Y-103350048D01*
X91130133Y-103348835D01*
X91118849Y-103343172D01*
X91118809Y-103343147D01*
X91118800Y-103343143D01*
X91118654Y-103343099D01*
X91118003Y-103342900D01*
X91110873Y-103340696D01*
X91109471Y-103339978D01*
X91106441Y-103339326D01*
X91101213Y-103337711D01*
X91098966Y-103336221D01*
X91086212Y-103331987D01*
X91069694Y-103324425D01*
X91069117Y-103324195D01*
X91069103Y-103324238D01*
X91061420Y-103321598D01*
X91055184Y-103320334D01*
X91034944Y-103314400D01*
X91030374Y-103312625D01*
X91030359Y-103312622D01*
X91029349Y-103312512D01*
X91011299Y-103309176D01*
X91005633Y-103307687D01*
X90995274Y-103303892D01*
X90989061Y-103303334D01*
X90980633Y-103301121D01*
X90979510Y-103300936D01*
X90966050Y-103300499D01*
X90945445Y-103298093D01*
X90939199Y-103296827D01*
X90935526Y-103296024D01*
X90922938Y-103293072D01*
X90921536Y-103292954D01*
X90919376Y-103292738D01*
X90916848Y-103292690D01*
X90914053Y-103292498D01*
X90848520Y-103268266D01*
X90806492Y-103212450D01*
X90804723Y-103203978D01*
X90799999Y-103200000D01*
X90800000Y-103200000D01*
X90472097Y-102923871D01*
X89932553Y-102469517D01*
X89893953Y-102411277D01*
X89892968Y-102341415D01*
X89924742Y-102286991D01*
X90274916Y-101936818D01*
X90336239Y-101903333D01*
X90362597Y-101900499D01*
X90736670Y-101900499D01*
X90736676Y-101900499D01*
X90837753Y-101890174D01*
X91001516Y-101835908D01*
X91148350Y-101745340D01*
X91270340Y-101623350D01*
X91360908Y-101476516D01*
X91415174Y-101312753D01*
X91425500Y-101211677D01*
X91425499Y-100613324D01*
X91420792Y-100567249D01*
X91415174Y-100512247D01*
X91360908Y-100348484D01*
X91270340Y-100201650D01*
X91156371Y-100087681D01*
X91154121Y-100083561D01*
X91150178Y-100081016D01*
X91137533Y-100053183D01*
X91122886Y-100026358D01*
X91123220Y-100021677D01*
X91121279Y-100017403D01*
X91125689Y-99987152D01*
X91127870Y-99956666D01*
X91130870Y-99951620D01*
X91131360Y-99948264D01*
X91141726Y-99933365D01*
X91150501Y-99918611D01*
X91153325Y-99915364D01*
X91270340Y-99798350D01*
X91307399Y-99738267D01*
X91314060Y-99730611D01*
X91335285Y-99717029D01*
X91354020Y-99700179D01*
X91365808Y-99697500D01*
X91372913Y-99692954D01*
X91385700Y-99692979D01*
X91407611Y-99688000D01*
X92125831Y-99688000D01*
X92125847Y-99688001D01*
X92133443Y-99688001D01*
X92291554Y-99688001D01*
X92291557Y-99688001D01*
X92444285Y-99647077D01*
X92503962Y-99612622D01*
X92581216Y-99568020D01*
X92693020Y-99456216D01*
X92693020Y-99456214D01*
X92703224Y-99446011D01*
X92703227Y-99446006D01*
X95337821Y-96811413D01*
X95399142Y-96777930D01*
X95468834Y-96782914D01*
G37*
%TD.AperFunction*%
%TA.AperFunction,Conductor*%
G36*
X110856679Y-77124329D02*
G01*
X110881876Y-77124194D01*
X110890593Y-77129730D01*
X110900794Y-77131355D01*
X110919587Y-77148144D01*
X110940856Y-77161652D01*
X110946581Y-77172260D01*
X110952899Y-77177904D01*
X110967073Y-77210227D01*
X110969232Y-77218014D01*
X110973198Y-77239564D01*
X110973557Y-77243400D01*
X110974569Y-77247834D01*
X110974579Y-77247885D01*
X110976436Y-77253413D01*
X110981410Y-77273809D01*
X110982332Y-77279736D01*
X110982335Y-77279744D01*
X110982346Y-77279769D01*
X110984367Y-77284622D01*
X110984918Y-77286028D01*
X110989394Y-77302461D01*
X110991623Y-77309959D01*
X110992496Y-77313362D01*
X110994605Y-77319237D01*
X110998831Y-77329239D01*
X111001292Y-77336561D01*
X111001580Y-77337982D01*
X111002164Y-77339156D01*
X111004885Y-77347251D01*
X111004887Y-77347315D01*
X111007457Y-77353369D01*
X111009407Y-77357197D01*
X111011953Y-77363055D01*
X111012238Y-77364229D01*
X111013339Y-77366244D01*
X111015562Y-77371360D01*
X111015771Y-77373033D01*
X111018324Y-77378878D01*
X111020867Y-77384075D01*
X111023360Y-77388579D01*
X111023439Y-77388859D01*
X111024625Y-77390862D01*
X111025495Y-77392434D01*
X111025716Y-77393423D01*
X111032451Y-77407220D01*
X111033651Y-77410279D01*
X111037526Y-77417295D01*
X111046067Y-77431948D01*
X111048857Y-77438196D01*
X111053108Y-77445118D01*
X111053019Y-77445172D01*
X111058652Y-77453594D01*
X111059375Y-77454926D01*
X111059398Y-77454986D01*
X111059440Y-77455045D01*
X111063032Y-77461658D01*
X111063096Y-77461956D01*
X111063209Y-77462169D01*
X111063148Y-77462200D01*
X111063191Y-77462400D01*
X111067765Y-77469193D01*
X111069221Y-77471062D01*
X111072527Y-77475897D01*
X111072836Y-77476848D01*
X111078985Y-77486433D01*
X111080037Y-77488360D01*
X111084834Y-77494926D01*
X111084454Y-77495203D01*
X111093300Y-77506886D01*
X111095804Y-77511116D01*
X111100823Y-77517512D01*
X111100782Y-77517543D01*
X111103671Y-77520837D01*
X111106569Y-77524701D01*
X111111573Y-77532585D01*
X111114496Y-77535273D01*
X111121358Y-77544423D01*
X111121931Y-77545957D01*
X111124944Y-77549461D01*
X111127296Y-77552948D01*
X111132349Y-77558657D01*
X111140502Y-77568915D01*
X111143032Y-77572469D01*
X111143035Y-77572473D01*
X111146916Y-77576642D01*
X111150694Y-77580892D01*
X111153211Y-77583858D01*
X111158723Y-77591245D01*
X111161016Y-77593054D01*
X111167377Y-77600549D01*
X111167623Y-77601104D01*
X111170698Y-77604634D01*
X111174540Y-77609572D01*
X111176521Y-77611526D01*
X111185913Y-77621902D01*
X111190435Y-77627503D01*
X111191595Y-77628607D01*
X111197606Y-77634739D01*
X111199524Y-77636836D01*
X111206542Y-77645247D01*
X111208264Y-77646460D01*
X111209510Y-77647753D01*
X111214412Y-77653113D01*
X111214646Y-77653592D01*
X111216967Y-77655995D01*
X111222890Y-77662889D01*
X111225431Y-77665163D01*
X111235246Y-77674992D01*
X111236613Y-77676523D01*
X111242494Y-77683628D01*
X111242540Y-77683688D01*
X111244467Y-77685616D01*
X111249256Y-77690685D01*
X111254428Y-77696479D01*
X111254430Y-77696480D01*
X111254431Y-77696481D01*
X111257338Y-77698986D01*
X111264107Y-77705272D01*
X111266037Y-77707203D01*
X111269047Y-77710323D01*
X111278807Y-77720807D01*
X111290291Y-77733143D01*
X111291880Y-77734455D01*
X111302245Y-77744058D01*
X111309286Y-77751369D01*
X111329174Y-77772023D01*
X111335949Y-77777994D01*
X111364900Y-77806159D01*
X111366051Y-77807294D01*
X111409590Y-77850867D01*
X111409592Y-77850868D01*
X111411021Y-77852298D01*
X111417710Y-77858046D01*
X111455912Y-77894707D01*
X111456434Y-77895211D01*
X111485479Y-77923468D01*
X111504883Y-77942346D01*
X111510584Y-77947175D01*
X111586330Y-78019867D01*
X111660583Y-78091126D01*
X111771263Y-78197880D01*
X111771663Y-78198269D01*
X111884441Y-78308475D01*
X111885250Y-78309273D01*
X111998051Y-78421706D01*
X111999228Y-78422895D01*
X112026179Y-78450493D01*
X112107561Y-78533830D01*
X112110000Y-78536327D01*
X112111427Y-78537813D01*
X112219336Y-78652049D01*
X112220704Y-78653521D01*
X112326445Y-78769161D01*
X112327674Y-78770525D01*
X112431653Y-78887674D01*
X112432745Y-78888921D01*
X112535188Y-79007495D01*
X112536145Y-79008616D01*
X112637287Y-79128537D01*
X112638114Y-79129528D01*
X112737274Y-79249612D01*
X112738255Y-79250815D01*
X112936120Y-79496637D01*
X112937158Y-79497945D01*
X112989456Y-79564752D01*
X113130882Y-79745416D01*
X113131805Y-79746611D01*
X113226618Y-79870815D01*
X113227338Y-79871768D01*
X113322875Y-79999452D01*
X113323648Y-80000496D01*
X113420020Y-80132150D01*
X113420823Y-80133259D01*
X113504315Y-80250000D01*
X113518621Y-80270002D01*
X113519337Y-80271014D01*
X113619393Y-80414319D01*
X113620152Y-80415421D01*
X113722692Y-80565906D01*
X113723464Y-80567052D01*
X113787896Y-80663912D01*
X113814986Y-80704638D01*
X113829184Y-80725981D01*
X113829911Y-80727087D01*
X113937758Y-80893029D01*
X113938457Y-80894116D01*
X113941877Y-80899500D01*
X114044549Y-81061141D01*
X114047562Y-81065883D01*
X114048252Y-81066983D01*
X114157215Y-81242564D01*
X114157913Y-81243702D01*
X114265631Y-81421521D01*
X114266353Y-81422728D01*
X114371779Y-81601304D01*
X114372541Y-81602613D01*
X114474394Y-81780051D01*
X114475213Y-81781501D01*
X114572415Y-81956231D01*
X114573297Y-81957843D01*
X114665140Y-82128856D01*
X114666035Y-82130554D01*
X114752810Y-82298309D01*
X114753696Y-82300056D01*
X114835739Y-82464998D01*
X114836609Y-82466782D01*
X114914447Y-82629761D01*
X114915290Y-82631564D01*
X114989206Y-82792940D01*
X114990015Y-82794744D01*
X115060436Y-82955200D01*
X115061202Y-82956984D01*
X115128468Y-83117016D01*
X115129186Y-83118762D01*
X115193776Y-83279222D01*
X115194439Y-83280902D01*
X115256608Y-83442086D01*
X115257207Y-83443673D01*
X115317331Y-83606141D01*
X115317867Y-83607616D01*
X115376282Y-83771822D01*
X115376707Y-83773040D01*
X115426641Y-83918716D01*
X115433170Y-83937763D01*
X115433761Y-83939532D01*
X115544907Y-84280421D01*
X115545507Y-84282312D01*
X115653511Y-84632476D01*
X115653955Y-84633947D01*
X115760051Y-84993698D01*
X115760541Y-84995407D01*
X115861589Y-85357078D01*
X115862182Y-85359276D01*
X115955161Y-85717293D01*
X115955673Y-85719335D01*
X115997201Y-85891182D01*
X115997581Y-85892804D01*
X116036037Y-86061858D01*
X116036438Y-86063683D01*
X116071302Y-86228378D01*
X116071683Y-86230251D01*
X116103315Y-86391942D01*
X116103661Y-86393782D01*
X116132519Y-86554103D01*
X116132824Y-86555870D01*
X116159292Y-86716178D01*
X116159552Y-86717826D01*
X116184018Y-86879510D01*
X116184235Y-86881003D01*
X116206892Y-87044127D01*
X116207137Y-87045997D01*
X116249634Y-87390313D01*
X116249858Y-87392248D01*
X116288954Y-87755931D01*
X116289142Y-87757814D01*
X116323804Y-88134222D01*
X116323979Y-88136320D01*
X116352522Y-88516927D01*
X116352643Y-88518714D01*
X116363885Y-88704601D01*
X116363959Y-88705950D01*
X116373082Y-88890065D01*
X116373147Y-88891552D01*
X116379921Y-89072069D01*
X116379969Y-89073616D01*
X116384427Y-89251685D01*
X116384456Y-89253239D01*
X116386673Y-89430712D01*
X116386683Y-89432239D01*
X116386715Y-89610805D01*
X116386707Y-89612263D01*
X116384606Y-89793668D01*
X116384582Y-89795032D01*
X116380423Y-89979197D01*
X116380370Y-89980992D01*
X116365833Y-90372988D01*
X116365736Y-90375103D01*
X116342901Y-90796475D01*
X116342786Y-90798336D01*
X116327773Y-91015012D01*
X116327661Y-91016503D01*
X116309593Y-91238435D01*
X116309445Y-91240117D01*
X116288069Y-91464811D01*
X116287874Y-91466698D01*
X116262900Y-91692504D01*
X116262649Y-91694615D01*
X116233712Y-91920702D01*
X116233389Y-91923047D01*
X116200204Y-92148008D01*
X116199809Y-92150503D01*
X116162028Y-92374183D01*
X116161580Y-92376682D01*
X116119185Y-92599760D01*
X116118708Y-92602139D01*
X116071933Y-92824460D01*
X116071436Y-92826720D01*
X116020448Y-93048445D01*
X116019935Y-93050587D01*
X115964985Y-93271500D01*
X115964463Y-93273526D01*
X115905725Y-93493732D01*
X115905198Y-93495646D01*
X115842930Y-93714931D01*
X115842403Y-93716734D01*
X115776817Y-93935063D01*
X115776302Y-93936736D01*
X115707644Y-94154106D01*
X115707166Y-94155585D01*
X115636744Y-94369176D01*
X115636117Y-94371029D01*
X115490859Y-94789301D01*
X115490154Y-94791279D01*
X115397227Y-95044913D01*
X115390499Y-95063281D01*
X115348490Y-95177940D01*
X115347946Y-95179395D01*
X115217320Y-95522557D01*
X115216861Y-95523743D01*
X115103176Y-95813429D01*
X115102627Y-95814805D01*
X115051874Y-95939723D01*
X115051341Y-95941015D01*
X115002474Y-96057506D01*
X115001808Y-96059063D01*
X114954031Y-96168733D01*
X114953248Y-96170492D01*
X114905413Y-96275800D01*
X114904546Y-96277667D01*
X114855242Y-96381591D01*
X114854340Y-96383453D01*
X114802239Y-96488701D01*
X114801366Y-96490431D01*
X114745277Y-96599417D01*
X114744496Y-96600909D01*
X114684288Y-96714095D01*
X114683608Y-96715356D01*
X114619616Y-96832375D01*
X114619027Y-96833440D01*
X114552103Y-96953016D01*
X114551384Y-96954284D01*
X114406945Y-97205386D01*
X114406287Y-97206516D01*
X114253223Y-97465796D01*
X114252724Y-97466634D01*
X114093516Y-97731536D01*
X114092931Y-97732499D01*
X113930030Y-97998050D01*
X113929274Y-97999267D01*
X113763928Y-98261949D01*
X113762966Y-98263453D01*
X113596336Y-98519908D01*
X113595197Y-98521630D01*
X113428062Y-98769721D01*
X113427017Y-98771247D01*
X113262281Y-99008077D01*
X113261382Y-99009352D01*
X113103015Y-99231023D01*
X113102246Y-99232088D01*
X112954545Y-99434266D01*
X112953886Y-99435159D01*
X112820804Y-99613943D01*
X112820214Y-99614730D01*
X112704408Y-99767757D01*
X112703707Y-99768674D01*
X112542269Y-99977923D01*
X112533571Y-99988024D01*
X112529079Y-99992705D01*
X112519543Y-100005679D01*
X112509696Y-100016294D01*
X112510074Y-100016633D01*
X112504652Y-100022677D01*
X112493432Y-100039069D01*
X112476573Y-100058868D01*
X112467856Y-100073126D01*
X112460216Y-100084219D01*
X112458218Y-100086807D01*
X112451738Y-100094376D01*
X112451154Y-100095181D01*
X112448490Y-100100095D01*
X112439305Y-100113333D01*
X112439430Y-100113416D01*
X112434943Y-100120183D01*
X112431809Y-100126596D01*
X112420761Y-100144165D01*
X112418396Y-100148135D01*
X112414939Y-100156167D01*
X112408521Y-100168982D01*
X112405672Y-100173931D01*
X112401918Y-100179258D01*
X112400697Y-100182576D01*
X112398661Y-100186116D01*
X112395061Y-100194228D01*
X112394698Y-100194066D01*
X112389244Y-100206263D01*
X112389338Y-100206306D01*
X112386005Y-100213703D01*
X112386003Y-100213708D01*
X112386001Y-100213712D01*
X112385878Y-100213987D01*
X112384622Y-100217895D01*
X112384281Y-100218527D01*
X112383872Y-100220232D01*
X112382438Y-100224699D01*
X112380921Y-100226933D01*
X112375788Y-100241221D01*
X112372823Y-100247287D01*
X112371402Y-100251083D01*
X112370779Y-100253776D01*
X112367150Y-100266371D01*
X112365663Y-100270662D01*
X112363173Y-100276451D01*
X112362819Y-100278875D01*
X112359831Y-100287505D01*
X112359744Y-100287627D01*
X112357126Y-100296419D01*
X112355436Y-100302896D01*
X112352647Y-100315291D01*
X112351477Y-100322536D01*
X112349793Y-100329737D01*
X112348441Y-100333460D01*
X112348153Y-100336755D01*
X112346206Y-100345089D01*
X112345733Y-100347998D01*
X112343794Y-100365741D01*
X112342764Y-100371174D01*
X112341215Y-100376642D01*
X112341172Y-100379579D01*
X112340221Y-100384601D01*
X112340024Y-100386633D01*
X112340091Y-100388572D01*
X112337590Y-100417948D01*
X112337142Y-100420109D01*
X112336831Y-100424341D01*
X112336714Y-100428600D01*
X112336977Y-100431132D01*
X112336520Y-100460529D01*
X112336218Y-100462755D01*
X112336200Y-100467904D01*
X112336381Y-100471994D01*
X112336605Y-100473260D01*
X112338208Y-100503283D01*
X112338177Y-100503725D01*
X112338332Y-100506199D01*
X112339252Y-100512558D01*
X112339206Y-100515753D01*
X112340396Y-100520467D01*
X112341318Y-100526839D01*
X112340793Y-100530512D01*
X112341277Y-100534518D01*
X112341604Y-100534478D01*
X112343076Y-100546261D01*
X112344486Y-100553458D01*
X112345090Y-100558019D01*
X112345155Y-100559133D01*
X112345294Y-100559553D01*
X112345890Y-100564049D01*
X112345560Y-100566173D01*
X112345622Y-100567236D01*
X112345393Y-100567249D01*
X112341054Y-100595242D01*
X112337996Y-100626646D01*
X112335674Y-100629943D01*
X112335186Y-100633094D01*
X112326765Y-100642598D01*
X112305346Y-100673024D01*
X111779628Y-101140329D01*
X111716445Y-101170155D01*
X111647166Y-101161087D01*
X111609566Y-101135331D01*
X111025090Y-100550855D01*
X111025088Y-100550852D01*
X110975394Y-100501158D01*
X110945369Y-100452481D01*
X110910908Y-100348484D01*
X110820340Y-100201650D01*
X110706371Y-100087681D01*
X110672886Y-100026358D01*
X110677870Y-99956666D01*
X110706371Y-99912319D01*
X110749496Y-99869194D01*
X110820340Y-99798350D01*
X110910908Y-99651516D01*
X110965174Y-99487753D01*
X110975500Y-99386677D01*
X110975499Y-98788324D01*
X110968395Y-98718784D01*
X110965174Y-98687247D01*
X110936289Y-98600079D01*
X110910908Y-98523484D01*
X110820340Y-98376650D01*
X110698350Y-98254660D01*
X110551516Y-98164092D01*
X110387753Y-98109826D01*
X110387751Y-98109825D01*
X110286678Y-98099500D01*
X109713330Y-98099500D01*
X109713312Y-98099501D01*
X109612247Y-98109825D01*
X109448484Y-98164092D01*
X109448481Y-98164093D01*
X109301648Y-98254661D01*
X109179659Y-98376650D01*
X109147928Y-98428096D01*
X109095980Y-98474821D01*
X109042389Y-98487000D01*
X105299169Y-98487000D01*
X105299153Y-98486999D01*
X105291557Y-98486999D01*
X105133443Y-98486999D01*
X105053510Y-98508417D01*
X104980716Y-98527922D01*
X104939479Y-98551731D01*
X104939478Y-98551730D01*
X104843787Y-98606977D01*
X104843782Y-98606981D01*
X104062180Y-99388584D01*
X104000857Y-99422069D01*
X103931165Y-99417085D01*
X103875232Y-99375213D01*
X103850815Y-99309749D01*
X103850499Y-99300903D01*
X103850499Y-98699998D01*
X103850498Y-98699981D01*
X103839999Y-98597203D01*
X103839998Y-98597200D01*
X103817042Y-98527923D01*
X103784814Y-98430666D01*
X103692712Y-98281344D01*
X103568656Y-98157288D01*
X103419334Y-98065186D01*
X103252797Y-98010001D01*
X103252795Y-98010000D01*
X103150010Y-97999500D01*
X102529998Y-97999500D01*
X102529980Y-97999501D01*
X102427203Y-98010000D01*
X102427200Y-98010001D01*
X102260668Y-98065185D01*
X102260663Y-98065187D01*
X102111342Y-98157289D01*
X101987289Y-98281342D01*
X101895187Y-98430663D01*
X101895185Y-98430668D01*
X101873804Y-98495193D01*
X101840001Y-98597203D01*
X101840001Y-98597204D01*
X101840000Y-98597204D01*
X101829500Y-98699983D01*
X101829500Y-103300001D01*
X101829501Y-103300018D01*
X101840000Y-103402796D01*
X101840001Y-103402799D01*
X101895186Y-103569334D01*
X101896941Y-103573097D01*
X101897370Y-103575924D01*
X101897458Y-103576189D01*
X101897412Y-103576203D01*
X101907432Y-103642175D01*
X101878911Y-103705958D01*
X101820433Y-103744197D01*
X101784558Y-103749500D01*
X101355442Y-103749500D01*
X101288403Y-103729815D01*
X101242648Y-103677011D01*
X101232704Y-103607853D01*
X101243059Y-103573097D01*
X101244809Y-103569340D01*
X101244814Y-103569334D01*
X101299999Y-103402797D01*
X101310500Y-103300009D01*
X101310499Y-98699992D01*
X101299999Y-98597203D01*
X101244814Y-98430666D01*
X101152712Y-98281344D01*
X101028656Y-98157288D01*
X100879334Y-98065186D01*
X100712797Y-98010001D01*
X100712795Y-98010000D01*
X100610010Y-97999500D01*
X99989998Y-97999500D01*
X99989980Y-97999501D01*
X99887203Y-98010000D01*
X99887200Y-98010001D01*
X99720668Y-98065185D01*
X99720663Y-98065187D01*
X99571342Y-98157289D01*
X99447289Y-98281342D01*
X99355187Y-98430663D01*
X99355185Y-98430668D01*
X99333804Y-98495193D01*
X99300001Y-98597203D01*
X99300001Y-98597204D01*
X99300000Y-98597204D01*
X99289500Y-98699983D01*
X99289500Y-103300001D01*
X99289501Y-103300018D01*
X99300000Y-103402796D01*
X99300001Y-103402799D01*
X99355186Y-103569334D01*
X99356941Y-103573097D01*
X99357370Y-103575924D01*
X99357458Y-103576189D01*
X99357412Y-103576203D01*
X99367432Y-103642175D01*
X99338911Y-103705958D01*
X99280433Y-103744197D01*
X99244558Y-103749500D01*
X98814887Y-103749500D01*
X98747848Y-103729815D01*
X98702093Y-103677011D01*
X98692149Y-103607853D01*
X98702504Y-103573096D01*
X98704358Y-103569118D01*
X98759505Y-103402697D01*
X98759506Y-103402690D01*
X98769999Y-103299986D01*
X98770000Y-103299973D01*
X98770000Y-101250000D01*
X97884000Y-101250000D01*
X97816961Y-101230315D01*
X97771206Y-101177511D01*
X97760000Y-101126000D01*
X97760000Y-101000000D01*
X97634000Y-101000000D01*
X97566961Y-100980315D01*
X97521206Y-100927511D01*
X97510000Y-100876000D01*
X97510000Y-100750000D01*
X98010000Y-100750000D01*
X98769999Y-100750000D01*
X98769999Y-98700028D01*
X98769998Y-98700013D01*
X98759505Y-98597302D01*
X98704358Y-98430880D01*
X98704356Y-98430875D01*
X98612315Y-98281654D01*
X98488345Y-98157684D01*
X98339124Y-98065643D01*
X98339119Y-98065641D01*
X98172697Y-98010494D01*
X98172690Y-98010493D01*
X98069986Y-98000000D01*
X98010000Y-98000000D01*
X98010000Y-100750000D01*
X97510000Y-100750000D01*
X97510000Y-98000000D01*
X97509999Y-97999999D01*
X97450028Y-98000000D01*
X97450011Y-98000001D01*
X97347302Y-98010494D01*
X97180880Y-98065641D01*
X97180875Y-98065643D01*
X97031654Y-98157684D01*
X96962181Y-98227158D01*
X96900858Y-98260643D01*
X96831166Y-98255659D01*
X96775233Y-98213787D01*
X96750816Y-98148323D01*
X96750500Y-98139477D01*
X96750500Y-96261230D01*
X96770185Y-96194191D01*
X96822989Y-96148436D01*
X96892147Y-96138492D01*
X96955703Y-96167517D01*
X96962181Y-96173549D01*
X97031344Y-96242712D01*
X97180666Y-96334814D01*
X97347203Y-96389999D01*
X97449991Y-96400500D01*
X98070008Y-96400499D01*
X98070016Y-96400498D01*
X98070019Y-96400498D01*
X98161715Y-96391131D01*
X98172797Y-96389999D01*
X98339334Y-96334814D01*
X98488656Y-96242712D01*
X98612712Y-96118656D01*
X98704814Y-95969334D01*
X98759999Y-95802797D01*
X98770500Y-95700009D01*
X98770499Y-91099992D01*
X98770498Y-91099983D01*
X99289500Y-91099983D01*
X99289500Y-95700001D01*
X99289501Y-95700018D01*
X99300000Y-95802796D01*
X99300001Y-95802799D01*
X99354128Y-95966142D01*
X99355186Y-95969334D01*
X99447288Y-96118656D01*
X99571344Y-96242712D01*
X99720666Y-96334814D01*
X99887203Y-96389999D01*
X99989991Y-96400500D01*
X100610008Y-96400499D01*
X100610016Y-96400498D01*
X100610019Y-96400498D01*
X100701715Y-96391131D01*
X100712797Y-96389999D01*
X100879334Y-96334814D01*
X101028656Y-96242712D01*
X101152712Y-96118656D01*
X101244814Y-95969334D01*
X101299999Y-95802797D01*
X101310500Y-95700009D01*
X101310499Y-91099992D01*
X101310498Y-91099983D01*
X101829500Y-91099983D01*
X101829500Y-95700001D01*
X101829501Y-95700018D01*
X101840000Y-95802796D01*
X101840001Y-95802799D01*
X101894128Y-95966142D01*
X101895186Y-95969334D01*
X101987288Y-96118656D01*
X102111344Y-96242712D01*
X102260666Y-96334814D01*
X102427203Y-96389999D01*
X102529991Y-96400500D01*
X103150008Y-96400499D01*
X103150016Y-96400498D01*
X103150019Y-96400498D01*
X103241715Y-96391131D01*
X103252797Y-96389999D01*
X103419334Y-96334814D01*
X103568656Y-96242712D01*
X103692712Y-96118656D01*
X103784814Y-95969334D01*
X103839999Y-95802797D01*
X103850500Y-95700009D01*
X103850499Y-91099992D01*
X103839999Y-90997203D01*
X103784814Y-90830666D01*
X103692712Y-90681344D01*
X103568656Y-90557288D01*
X103475888Y-90500069D01*
X103419336Y-90465187D01*
X103419331Y-90465185D01*
X103417862Y-90464698D01*
X103252797Y-90410001D01*
X103252795Y-90410000D01*
X103150010Y-90399500D01*
X102529998Y-90399500D01*
X102529980Y-90399501D01*
X102427203Y-90410000D01*
X102427200Y-90410001D01*
X102260668Y-90465185D01*
X102260663Y-90465187D01*
X102111342Y-90557289D01*
X101987289Y-90681342D01*
X101895187Y-90830663D01*
X101895186Y-90830666D01*
X101840001Y-90997203D01*
X101840001Y-90997204D01*
X101840000Y-90997204D01*
X101829500Y-91099983D01*
X101310498Y-91099983D01*
X101304384Y-91040134D01*
X101299999Y-90997203D01*
X101299998Y-90997200D01*
X101244814Y-90830666D01*
X101152712Y-90681344D01*
X101028656Y-90557288D01*
X100935888Y-90500069D01*
X100879336Y-90465187D01*
X100879331Y-90465185D01*
X100877862Y-90464698D01*
X100712797Y-90410001D01*
X100712795Y-90410000D01*
X100610010Y-90399500D01*
X99989998Y-90399500D01*
X99989980Y-90399501D01*
X99887203Y-90410000D01*
X99887200Y-90410001D01*
X99720668Y-90465185D01*
X99720663Y-90465187D01*
X99571342Y-90557289D01*
X99447289Y-90681342D01*
X99355187Y-90830663D01*
X99355186Y-90830666D01*
X99300001Y-90997203D01*
X99300001Y-90997204D01*
X99300000Y-90997204D01*
X99289500Y-91099983D01*
X98770498Y-91099983D01*
X98764384Y-91040134D01*
X98759999Y-90997203D01*
X98759998Y-90997200D01*
X98704814Y-90830666D01*
X98612712Y-90681344D01*
X98488656Y-90557288D01*
X98395888Y-90500069D01*
X98339336Y-90465187D01*
X98339331Y-90465185D01*
X98337862Y-90464698D01*
X98172797Y-90410001D01*
X98172795Y-90410000D01*
X98070010Y-90399500D01*
X97449998Y-90399500D01*
X97449980Y-90399501D01*
X97347203Y-90410000D01*
X97347200Y-90410001D01*
X97180668Y-90465185D01*
X97180663Y-90465187D01*
X97031342Y-90557289D01*
X96907289Y-90681342D01*
X96815187Y-90830663D01*
X96815186Y-90830666D01*
X96760001Y-90997203D01*
X96760001Y-90997204D01*
X96760000Y-90997204D01*
X96749500Y-91099983D01*
X96749500Y-93509902D01*
X96729815Y-93576941D01*
X96713181Y-93597583D01*
X95669482Y-94641281D01*
X95669480Y-94641283D01*
X95656538Y-94663700D01*
X95656536Y-94663704D01*
X95653201Y-94669481D01*
X95590423Y-94778215D01*
X95566482Y-94867557D01*
X95562611Y-94876322D01*
X95549822Y-94891456D01*
X95536867Y-94913896D01*
X92000084Y-98450681D01*
X91938761Y-98484166D01*
X91912403Y-98487000D01*
X91407611Y-98487000D01*
X91340572Y-98467315D01*
X91302072Y-98428096D01*
X91270340Y-98376650D01*
X91148351Y-98254661D01*
X91148350Y-98254660D01*
X91001516Y-98164092D01*
X90837753Y-98109826D01*
X90837751Y-98109825D01*
X90736684Y-98099500D01*
X90736677Y-98099500D01*
X90362597Y-98099500D01*
X90295558Y-98079815D01*
X90274916Y-98063181D01*
X86636819Y-94425084D01*
X86603334Y-94363761D01*
X86600500Y-94337403D01*
X86600500Y-86150097D01*
X86620185Y-86083058D01*
X86636819Y-86062416D01*
X88512416Y-84186819D01*
X88573739Y-84153334D01*
X88600097Y-84150500D01*
X92013331Y-84150500D01*
X92013347Y-84150501D01*
X92020943Y-84150501D01*
X92179054Y-84150501D01*
X92179057Y-84150501D01*
X92331785Y-84109577D01*
X92423060Y-84056879D01*
X92468716Y-84030520D01*
X92580520Y-83918716D01*
X92580521Y-83918714D01*
X93043020Y-83456216D01*
X93122077Y-83319284D01*
X93143237Y-83240311D01*
X93179600Y-83180653D01*
X93197905Y-83166873D01*
X93273350Y-83120340D01*
X93395340Y-82998350D01*
X93425208Y-82949926D01*
X93442958Y-82933960D01*
X93457467Y-82914992D01*
X93471554Y-82908238D01*
X93477153Y-82903203D01*
X93488618Y-82898399D01*
X93493548Y-82896617D01*
X93631785Y-82859577D01*
X93681904Y-82830639D01*
X93768716Y-82780520D01*
X93880520Y-82668716D01*
X93880520Y-82668714D01*
X93890728Y-82658507D01*
X93890730Y-82658504D01*
X94458506Y-82090728D01*
X94458511Y-82090724D01*
X94468714Y-82080520D01*
X94468716Y-82080520D01*
X94580520Y-81968716D01*
X94659577Y-81831784D01*
X94700500Y-81679057D01*
X94700500Y-78689059D01*
X94700501Y-78689046D01*
X94700501Y-78520945D01*
X94700501Y-78520943D01*
X94659577Y-78368215D01*
X94659576Y-78368214D01*
X94659576Y-78368212D01*
X94659575Y-78368211D01*
X94622386Y-78303798D01*
X94580522Y-78231287D01*
X94580521Y-78231286D01*
X94580520Y-78231284D01*
X94468716Y-78119480D01*
X94468715Y-78119479D01*
X94464385Y-78115149D01*
X94464374Y-78115139D01*
X94450373Y-78101138D01*
X94416888Y-78039815D01*
X94417397Y-77984859D01*
X94427949Y-77940339D01*
X94427950Y-77940330D01*
X94427950Y-77767814D01*
X94423760Y-77750136D01*
X94414009Y-77708994D01*
X94417701Y-77639225D01*
X94446981Y-77592722D01*
X94702887Y-77336816D01*
X94764209Y-77303334D01*
X94790567Y-77300500D01*
X104248050Y-77300500D01*
X104252309Y-77301750D01*
X104256648Y-77300798D01*
X104285539Y-77311508D01*
X104315089Y-77320185D01*
X104317996Y-77323540D01*
X104322161Y-77325084D01*
X104340676Y-77349713D01*
X104360844Y-77372989D01*
X104362226Y-77378381D01*
X104364145Y-77380934D01*
X104367210Y-77397826D01*
X104371716Y-77415406D01*
X104372050Y-77419948D01*
X104372050Y-77540334D01*
X104384884Y-77594488D01*
X104385611Y-77604362D01*
X104380254Y-77629227D01*
X104378909Y-77654632D01*
X104372633Y-77664597D01*
X104370896Y-77672665D01*
X104361811Y-77681786D01*
X104349627Y-77701137D01*
X104269478Y-77781286D01*
X104239316Y-77833530D01*
X104222341Y-77862933D01*
X104219361Y-77868094D01*
X104219359Y-77868096D01*
X104190425Y-77918209D01*
X104190424Y-77918210D01*
X104182005Y-77949632D01*
X104149499Y-78070943D01*
X104149499Y-78070945D01*
X104149499Y-78239046D01*
X104149500Y-78239059D01*
X104149500Y-81613330D01*
X104149499Y-81613348D01*
X104149499Y-81779054D01*
X104149498Y-81779054D01*
X104190423Y-81931785D01*
X104205467Y-81957843D01*
X104213336Y-81971471D01*
X104245580Y-82027319D01*
X104269479Y-82068714D01*
X104269481Y-82068717D01*
X104388349Y-82187585D01*
X104388355Y-82187590D01*
X104515139Y-82314374D01*
X104515149Y-82314385D01*
X104519479Y-82318715D01*
X104519480Y-82318716D01*
X104631284Y-82430520D01*
X104631286Y-82430521D01*
X104631290Y-82430524D01*
X104754254Y-82501516D01*
X104768216Y-82509577D01*
X104851098Y-82531785D01*
X104920942Y-82550500D01*
X104920943Y-82550500D01*
X105475099Y-82550500D01*
X105542138Y-82570185D01*
X105580638Y-82609404D01*
X105588197Y-82621660D01*
X105604660Y-82648350D01*
X105726650Y-82770340D01*
X105873484Y-82860908D01*
X106037247Y-82915174D01*
X106138323Y-82925500D01*
X106736676Y-82925499D01*
X106736684Y-82925498D01*
X106736687Y-82925498D01*
X106792030Y-82919844D01*
X106837753Y-82915174D01*
X107001516Y-82860908D01*
X107148350Y-82770340D01*
X107262319Y-82656371D01*
X107323642Y-82622886D01*
X107393334Y-82627870D01*
X107437681Y-82656371D01*
X107551650Y-82770340D01*
X107698484Y-82860908D01*
X107862247Y-82915174D01*
X107963323Y-82925500D01*
X108561676Y-82925499D01*
X108561684Y-82925498D01*
X108561687Y-82925498D01*
X108617030Y-82919844D01*
X108662753Y-82915174D01*
X108826516Y-82860908D01*
X108973350Y-82770340D01*
X109095340Y-82648350D01*
X109185908Y-82501516D01*
X109240174Y-82337753D01*
X109250500Y-82236677D01*
X109250499Y-81663324D01*
X109246169Y-81620939D01*
X109240174Y-81562247D01*
X109229904Y-81531255D01*
X109185908Y-81398484D01*
X109095340Y-81251650D01*
X109043517Y-81199827D01*
X109010032Y-81138504D01*
X109015016Y-81068812D01*
X109043517Y-81024464D01*
X109119948Y-80948033D01*
X109210448Y-80801311D01*
X109210453Y-80801300D01*
X109264680Y-80637652D01*
X109274999Y-80536654D01*
X109275000Y-80536641D01*
X109275000Y-80500000D01*
X108374000Y-80500000D01*
X108306961Y-80480315D01*
X108261206Y-80427511D01*
X108250000Y-80376000D01*
X108250000Y-80124000D01*
X108268163Y-80062142D01*
X108281033Y-80047127D01*
X108322489Y-80011206D01*
X108374000Y-80000000D01*
X109274999Y-80000000D01*
X109274999Y-79963360D01*
X109274998Y-79963345D01*
X109264680Y-79862347D01*
X109210453Y-79698699D01*
X109210448Y-79698688D01*
X109119947Y-79551965D01*
X109119944Y-79551961D01*
X108998038Y-79430055D01*
X108992371Y-79425574D01*
X108993216Y-79424504D01*
X108951700Y-79378341D01*
X108940481Y-79309377D01*
X108968328Y-79245297D01*
X108969162Y-79244310D01*
X110753437Y-77162655D01*
X110762091Y-77157028D01*
X110767806Y-77148426D01*
X110790882Y-77138306D01*
X110812008Y-77124569D01*
X110822335Y-77124513D01*
X110831794Y-77120366D01*
X110856679Y-77124329D01*
G37*
%TD.AperFunction*%
%TA.AperFunction,Conductor*%
G36*
X87304285Y-77307061D02*
G01*
X87306552Y-77309380D01*
X89746136Y-79870943D01*
X89778116Y-79933064D01*
X89774049Y-79995463D01*
X89735319Y-80112345D01*
X89735319Y-80112346D01*
X89725000Y-80213345D01*
X89725000Y-80250000D01*
X90107143Y-80250000D01*
X90583333Y-80750000D01*
X89725001Y-80750000D01*
X89725001Y-80786654D01*
X89735319Y-80887652D01*
X89789546Y-81051300D01*
X89789551Y-81051311D01*
X89880052Y-81198034D01*
X89880055Y-81198038D01*
X90006482Y-81324465D01*
X90039967Y-81385788D01*
X90034983Y-81455480D01*
X90006483Y-81499827D01*
X89904659Y-81601651D01*
X89814093Y-81748481D01*
X89814091Y-81748486D01*
X89803400Y-81780749D01*
X89759826Y-81912247D01*
X89759826Y-81912248D01*
X89759825Y-81912248D01*
X89749500Y-82013315D01*
X89749500Y-82586669D01*
X89749501Y-82586687D01*
X89759825Y-82687752D01*
X89767526Y-82710990D01*
X89792547Y-82786498D01*
X89794949Y-82856323D01*
X89759218Y-82916366D01*
X89696698Y-82947559D01*
X89674841Y-82949500D01*
X88220942Y-82949500D01*
X88068214Y-82990423D01*
X88051247Y-83000220D01*
X88051244Y-83000221D01*
X87931290Y-83069475D01*
X87931282Y-83069481D01*
X85519479Y-85481284D01*
X85497864Y-85518723D01*
X85488728Y-85534549D01*
X85440423Y-85618215D01*
X85399499Y-85770943D01*
X85399499Y-85770945D01*
X85399499Y-85939046D01*
X85399500Y-85939059D01*
X85399500Y-94550830D01*
X85399499Y-94550848D01*
X85399499Y-94716554D01*
X85399498Y-94716554D01*
X85399499Y-94716557D01*
X85440423Y-94869285D01*
X85446324Y-94879506D01*
X85446325Y-94879509D01*
X85446326Y-94879509D01*
X85519477Y-95006212D01*
X85519481Y-95006217D01*
X85638349Y-95125085D01*
X85638355Y-95125090D01*
X89438181Y-98924916D01*
X89471666Y-98986239D01*
X89474500Y-99012597D01*
X89474500Y-99386669D01*
X89474501Y-99386687D01*
X89484825Y-99487752D01*
X89517208Y-99585475D01*
X89537458Y-99646586D01*
X89539092Y-99651515D01*
X89539093Y-99651518D01*
X89564651Y-99692954D01*
X89616917Y-99777691D01*
X89629661Y-99798351D01*
X89743629Y-99912319D01*
X89777114Y-99973642D01*
X89772130Y-100043334D01*
X89743629Y-100087681D01*
X89629661Y-100201648D01*
X89539093Y-100348481D01*
X89539091Y-100348486D01*
X89525808Y-100388572D01*
X89484826Y-100512247D01*
X89484826Y-100512248D01*
X89484825Y-100512248D01*
X89474500Y-100613315D01*
X89474500Y-100987401D01*
X89454815Y-101054440D01*
X89438181Y-101075082D01*
X88946558Y-101566704D01*
X88925931Y-101583329D01*
X88478319Y-101871080D01*
X88464021Y-101875280D01*
X88451888Y-101883931D01*
X88431176Y-101884929D01*
X88411282Y-101890774D01*
X88396982Y-101886577D01*
X88382099Y-101887295D01*
X88364136Y-101876938D01*
X88344240Y-101871099D01*
X88334479Y-101859838D01*
X88321571Y-101852395D01*
X88312058Y-101833970D01*
X88298478Y-101818301D01*
X88295816Y-101802508D01*
X88289519Y-101790310D01*
X88287820Y-101755057D01*
X88287876Y-101754467D01*
X88290496Y-101740706D01*
X88291478Y-101734240D01*
X88291478Y-101734238D01*
X88291479Y-101734235D01*
X88291674Y-101724384D01*
X88293674Y-101704527D01*
X88294538Y-101699798D01*
X88298648Y-101684261D01*
X88298625Y-101677458D01*
X88299973Y-101670090D01*
X88299996Y-101669719D01*
X88299114Y-101657237D01*
X88299294Y-101637490D01*
X88299694Y-101632998D01*
X88302449Y-101616113D01*
X88301786Y-101609518D01*
X88302438Y-101602203D01*
X88302430Y-101601978D01*
X88300428Y-101590077D01*
X88299015Y-101560817D01*
X88299768Y-101550095D01*
X88299745Y-101549724D01*
X88298175Y-101540754D01*
X88298150Y-101533027D01*
X88294414Y-101519269D01*
X88293433Y-101513659D01*
X88293841Y-101510035D01*
X88291587Y-101493968D01*
X88291504Y-101487804D01*
X88291454Y-101487629D01*
X88290240Y-101482993D01*
X88288251Y-101474748D01*
X88287292Y-101465194D01*
X88283584Y-101455400D01*
X88281763Y-101447850D01*
X88281971Y-101443589D01*
X88280666Y-101437885D01*
X88280578Y-101437905D01*
X88278813Y-101429972D01*
X88277137Y-101425377D01*
X88274499Y-101417295D01*
X88272954Y-101411950D01*
X88270723Y-101400450D01*
X88268045Y-101394957D01*
X88265073Y-101384667D01*
X88265073Y-101384513D01*
X88262824Y-101376788D01*
X88258769Y-101367568D01*
X88252951Y-101351374D01*
X88249764Y-101340093D01*
X88249761Y-101340089D01*
X88248128Y-101336293D01*
X88244715Y-101329212D01*
X88244429Y-101327849D01*
X88236961Y-101313122D01*
X88236432Y-101312023D01*
X88236348Y-101311519D01*
X88231650Y-101300697D01*
X88225750Y-101284521D01*
X88225747Y-101284517D01*
X88225746Y-101284513D01*
X88225022Y-101283124D01*
X88220942Y-101276668D01*
X88220555Y-101275984D01*
X88214416Y-101265148D01*
X88208812Y-101253974D01*
X88199857Y-101233609D01*
X88199553Y-101233230D01*
X88190802Y-101220839D01*
X88190062Y-101219642D01*
X88184920Y-101210479D01*
X88184729Y-101210102D01*
X88183405Y-101206936D01*
X88183402Y-101206938D01*
X88178457Y-101196806D01*
X88174815Y-101190549D01*
X88172881Y-101186734D01*
X88172876Y-101186729D01*
X88168290Y-101180025D01*
X88168344Y-101179987D01*
X88160568Y-101169364D01*
X88156497Y-101162460D01*
X88155842Y-101160657D01*
X88153246Y-101156947D01*
X88150801Y-101152799D01*
X88150735Y-101152537D01*
X88149725Y-101150937D01*
X88145280Y-101143089D01*
X88145273Y-101143082D01*
X88140383Y-101136598D01*
X88140653Y-101136394D01*
X88134876Y-101129269D01*
X88131043Y-101123486D01*
X88130657Y-101122488D01*
X88127673Y-101118402D01*
X88126118Y-101116056D01*
X88126026Y-101115759D01*
X88124002Y-101112750D01*
X88117276Y-101101867D01*
X88117273Y-101101864D01*
X88117272Y-101101862D01*
X88113094Y-101096742D01*
X88104205Y-101083845D01*
X88099042Y-101077103D01*
X88094122Y-101070202D01*
X88088863Y-101062260D01*
X88088857Y-101062255D01*
X88083706Y-101056331D01*
X88075673Y-101046047D01*
X88059964Y-101023589D01*
X88059956Y-101023582D01*
X88058703Y-101022213D01*
X88051100Y-101013062D01*
X88046463Y-101006904D01*
X88046058Y-101005972D01*
X88040687Y-100999231D01*
X88039657Y-100997863D01*
X88039627Y-100997783D01*
X88038582Y-100996414D01*
X88030437Y-100985261D01*
X88028883Y-100983632D01*
X88021651Y-100975341D01*
X88008702Y-100959090D01*
X88007355Y-100957366D01*
X87970882Y-100909735D01*
X87970877Y-100909731D01*
X87970123Y-100908975D01*
X87961694Y-100899622D01*
X87943376Y-100877096D01*
X87942602Y-100876135D01*
X87903488Y-100827046D01*
X87903486Y-100827044D01*
X87901799Y-100824927D01*
X87895974Y-100818608D01*
X87871368Y-100788542D01*
X87871120Y-100788238D01*
X87826547Y-100733422D01*
X87824144Y-100730841D01*
X87510181Y-100347217D01*
X87509570Y-100346464D01*
X87462181Y-100287627D01*
X87292259Y-100076657D01*
X87291566Y-100075787D01*
X87057268Y-99778318D01*
X87056316Y-99777092D01*
X86811427Y-99456781D01*
X86810130Y-99455052D01*
X86561137Y-99116906D01*
X86559538Y-99114684D01*
X86400367Y-98888217D01*
X86311314Y-98761513D01*
X86309996Y-98759598D01*
X86198413Y-98594088D01*
X86190415Y-98582224D01*
X86189402Y-98580697D01*
X86149714Y-98519908D01*
X86073033Y-98402459D01*
X86071513Y-98400068D01*
X85844622Y-98033344D01*
X85842540Y-98029848D01*
X85831438Y-98010494D01*
X85629545Y-97658534D01*
X85627566Y-97654945D01*
X85426386Y-97275308D01*
X85424520Y-97271639D01*
X85234606Y-96882368D01*
X85232876Y-96878669D01*
X85152130Y-96698323D01*
X85053598Y-96478249D01*
X85052037Y-96474608D01*
X85021678Y-96400499D01*
X84882895Y-96061716D01*
X84881493Y-96058136D01*
X84881258Y-96057506D01*
X84721947Y-95631313D01*
X84720717Y-95627864D01*
X84687076Y-95528990D01*
X84570315Y-95185813D01*
X84569241Y-95182504D01*
X84427670Y-94724561D01*
X84426752Y-94721449D01*
X84343561Y-94425084D01*
X84294515Y-94250363D01*
X84293729Y-94247423D01*
X84231007Y-94000761D01*
X84171542Y-93766909D01*
X84170883Y-93764180D01*
X84059489Y-93278179D01*
X84058902Y-93275478D01*
X83958976Y-92787819D01*
X83958452Y-92785100D01*
X83870651Y-92299659D01*
X83870178Y-92296855D01*
X83795098Y-91817298D01*
X83794682Y-91814401D01*
X83732951Y-91344779D01*
X83732587Y-91341704D01*
X83684460Y-90884496D01*
X83684164Y-90881276D01*
X83677468Y-90796475D01*
X83649034Y-90436408D01*
X83648825Y-90433235D01*
X83625882Y-89999898D01*
X83625757Y-89996762D01*
X83614228Y-89574526D01*
X83614183Y-89571511D01*
X83613298Y-89159748D01*
X83613329Y-89156727D01*
X83613522Y-89148108D01*
X83622325Y-88754907D01*
X83622420Y-88752129D01*
X83640548Y-88359723D01*
X83640711Y-88356908D01*
X83661793Y-88051976D01*
X83667219Y-87973501D01*
X83667429Y-87970879D01*
X83701630Y-87596344D01*
X83701909Y-87593625D01*
X83730959Y-87338003D01*
X83743488Y-87227743D01*
X83743831Y-87225003D01*
X83751654Y-87167615D01*
X83792576Y-86867402D01*
X83792978Y-86864681D01*
X83795365Y-86849694D01*
X83848719Y-86514705D01*
X83849170Y-86512074D01*
X83911673Y-86169479D01*
X83912200Y-86166762D01*
X83929423Y-86083058D01*
X83981327Y-85830802D01*
X83981910Y-85828123D01*
X83992040Y-85783914D01*
X84057449Y-85498444D01*
X84058084Y-85495811D01*
X84061752Y-85481284D01*
X84139880Y-85171838D01*
X84140527Y-85169389D01*
X84228428Y-84850746D01*
X84229146Y-84848254D01*
X84323146Y-84534738D01*
X84323965Y-84532118D01*
X84424188Y-84223211D01*
X84425048Y-84220658D01*
X84531719Y-83915556D01*
X84532667Y-83912941D01*
X84585113Y-83773176D01*
X84645973Y-83610985D01*
X84646929Y-83608524D01*
X84767048Y-83309122D01*
X84768037Y-83306735D01*
X84895105Y-83009393D01*
X84896155Y-83007009D01*
X85030451Y-82710921D01*
X85031502Y-82708667D01*
X85172999Y-82413563D01*
X85174038Y-82411449D01*
X85321727Y-82118575D01*
X85322795Y-82116508D01*
X85475175Y-81827966D01*
X85476182Y-81826101D01*
X85631819Y-81543839D01*
X85632791Y-81542113D01*
X85790155Y-81268223D01*
X85791133Y-81266555D01*
X85948620Y-81003217D01*
X85949675Y-81001486D01*
X86105786Y-80750675D01*
X86106923Y-80748886D01*
X86260018Y-80512765D01*
X86261297Y-80510836D01*
X86410196Y-80290627D01*
X86411515Y-80288715D01*
X86501416Y-80160983D01*
X86555326Y-80084387D01*
X86556483Y-80082773D01*
X86694032Y-79894527D01*
X86695148Y-79893027D01*
X86825157Y-79721214D01*
X86826292Y-79719740D01*
X86947444Y-79564752D01*
X86948569Y-79563334D01*
X86956080Y-79554009D01*
X87058650Y-79426667D01*
X87060112Y-79424887D01*
X87077192Y-79404481D01*
X87250973Y-79196848D01*
X87251937Y-79195711D01*
X87260177Y-79186105D01*
X87343732Y-79088702D01*
X87353062Y-79078955D01*
X87357059Y-79075209D01*
X87357064Y-79075206D01*
X87379057Y-79048392D01*
X87379926Y-79047346D01*
X87388546Y-79037093D01*
X87392897Y-79033812D01*
X87413487Y-79007426D01*
X87414922Y-79005721D01*
X87414986Y-79005678D01*
X87415689Y-79004819D01*
X87417634Y-79002551D01*
X87423815Y-78996536D01*
X87423700Y-78996428D01*
X87429284Y-78990522D01*
X87429289Y-78990519D01*
X87447819Y-78964919D01*
X87452379Y-78959005D01*
X87454900Y-78955930D01*
X87465594Y-78944730D01*
X87466772Y-78943349D01*
X87466780Y-78943343D01*
X87480023Y-78922934D01*
X87486270Y-78914168D01*
X87497603Y-78899648D01*
X87497603Y-78899647D01*
X87500130Y-78896410D01*
X87503518Y-78892512D01*
X87505437Y-78889923D01*
X87505436Y-78889923D01*
X87505439Y-78889921D01*
X87512792Y-78876671D01*
X87516070Y-78871114D01*
X87518281Y-78867579D01*
X87526863Y-78855726D01*
X87528687Y-78850947D01*
X87535095Y-78840706D01*
X87538519Y-78837665D01*
X87540154Y-78834822D01*
X87540091Y-78834784D01*
X87541539Y-78832413D01*
X87543760Y-78828552D01*
X87543803Y-78828497D01*
X87544331Y-78827845D01*
X87545995Y-78824092D01*
X87547038Y-78821807D01*
X87550657Y-78814085D01*
X87555528Y-78806581D01*
X87558572Y-78797198D01*
X87561851Y-78790204D01*
X87564964Y-78786681D01*
X87571741Y-78772884D01*
X87574569Y-78768745D01*
X87574572Y-78768735D01*
X87574729Y-78768427D01*
X87577918Y-78760375D01*
X87580172Y-78755282D01*
X87583154Y-78749913D01*
X87583935Y-78746783D01*
X87588260Y-78737018D01*
X87588403Y-78736848D01*
X87591365Y-78730013D01*
X87591369Y-78730007D01*
X87595529Y-78715430D01*
X87601398Y-78699232D01*
X87602070Y-78697717D01*
X87605236Y-78691114D01*
X87606410Y-78688843D01*
X87606411Y-78688834D01*
X87606607Y-78688293D01*
X87607889Y-78685098D01*
X87608321Y-78683634D01*
X87608321Y-78683632D01*
X87608322Y-78683631D01*
X87609050Y-78678989D01*
X87613548Y-78660125D01*
X87615429Y-78654297D01*
X87619124Y-78645820D01*
X87619958Y-78640268D01*
X87622088Y-78633671D01*
X87622274Y-78632781D01*
X87622276Y-78632777D01*
X87622276Y-78632772D01*
X87622765Y-78630441D01*
X87625660Y-78612773D01*
X87627104Y-78607096D01*
X87629125Y-78601452D01*
X87629402Y-78598066D01*
X87630594Y-78593385D01*
X87630832Y-78591781D01*
X87630832Y-78591779D01*
X87630833Y-78591776D01*
X87630854Y-78590443D01*
X87635555Y-78558592D01*
X87635641Y-78558287D01*
X87636102Y-78556665D01*
X87636102Y-78556661D01*
X87636235Y-78555757D01*
X87636362Y-78551611D01*
X87637012Y-78548636D01*
X87636674Y-78541439D01*
X87636821Y-78536646D01*
X87637983Y-78533091D01*
X87639517Y-78514455D01*
X87640008Y-78512165D01*
X87640007Y-78512157D01*
X87640360Y-78507772D01*
X87640428Y-78504064D01*
X87640427Y-78504057D01*
X87640428Y-78504053D01*
X87640217Y-78502193D01*
X87639648Y-78480919D01*
X87639974Y-78475409D01*
X87640954Y-78468856D01*
X87640564Y-78465442D01*
X87640903Y-78459732D01*
X87640451Y-78450497D01*
X87640519Y-78450493D01*
X87639838Y-78435398D01*
X87639579Y-78435409D01*
X87639189Y-78425973D01*
X87639142Y-78425650D01*
X87638169Y-78417453D01*
X87638231Y-78413313D01*
X87637185Y-78409168D01*
X87636243Y-78401223D01*
X87636999Y-78396746D01*
X87636903Y-78395839D01*
X87636033Y-78395923D01*
X87634882Y-78383904D01*
X87632960Y-78370124D01*
X87632044Y-78365138D01*
X87629076Y-78352776D01*
X87627874Y-78345263D01*
X87627671Y-78339621D01*
X87626210Y-78334863D01*
X87624994Y-78327262D01*
X87624681Y-78326007D01*
X87624679Y-78326003D01*
X87624679Y-78325999D01*
X87623847Y-78323886D01*
X87617051Y-78299680D01*
X87614549Y-78285290D01*
X87614546Y-78285283D01*
X87614230Y-78284274D01*
X87611869Y-78277247D01*
X87611606Y-78274949D01*
X87608205Y-78266338D01*
X87607177Y-78263277D01*
X87607130Y-78262067D01*
X87603884Y-78251618D01*
X87602810Y-78246953D01*
X87602807Y-78246949D01*
X87602089Y-78245024D01*
X87596279Y-78231843D01*
X87592882Y-78222308D01*
X87591696Y-78215761D01*
X87587029Y-78205876D01*
X87584970Y-78200096D01*
X87584919Y-78199212D01*
X87583240Y-78194875D01*
X87581022Y-78187650D01*
X87580055Y-78185535D01*
X87574728Y-78175675D01*
X87569658Y-78164653D01*
X87568468Y-78159704D01*
X87561400Y-78146701D01*
X87559675Y-78142949D01*
X87559560Y-78142164D01*
X87556997Y-78136678D01*
X87552282Y-78124738D01*
X87552280Y-78124735D01*
X87549077Y-78118969D01*
X87547808Y-78117006D01*
X87542996Y-78108407D01*
X87542168Y-78105606D01*
X87533545Y-78091519D01*
X87532363Y-78089406D01*
X87532223Y-78088794D01*
X87528443Y-78081795D01*
X87521713Y-78067541D01*
X87521710Y-78067536D01*
X87521709Y-78067534D01*
X87521706Y-78067531D01*
X87518811Y-78063034D01*
X87513353Y-78053484D01*
X87503839Y-78039502D01*
X87497409Y-78028959D01*
X87492467Y-78019867D01*
X87489170Y-78013800D01*
X87489168Y-78013798D01*
X87489166Y-78013794D01*
X87487717Y-78011800D01*
X87486812Y-78010540D01*
X87481456Y-78002977D01*
X87480611Y-78000874D01*
X87469322Y-77985841D01*
X87468314Y-77984417D01*
X87468170Y-77983999D01*
X87463750Y-77977491D01*
X87454509Y-77962393D01*
X87454507Y-77962391D01*
X87454505Y-77962387D01*
X87454501Y-77962383D01*
X87453725Y-77961424D01*
X87445528Y-77949938D01*
X87445276Y-77949633D01*
X87445276Y-77949632D01*
X87434257Y-77936291D01*
X87427347Y-77927085D01*
X87417543Y-77912676D01*
X87416752Y-77911790D01*
X87414617Y-77909333D01*
X87408138Y-77901674D01*
X87406763Y-77899004D01*
X87393922Y-77884870D01*
X87392515Y-77883206D01*
X87392324Y-77882776D01*
X87388027Y-77877576D01*
X87378090Y-77864342D01*
X87376710Y-77862933D01*
X87367002Y-77851757D01*
X87364887Y-77849006D01*
X87353599Y-77837741D01*
X87349098Y-77833006D01*
X87347299Y-77831011D01*
X87335928Y-77817244D01*
X87333020Y-77815174D01*
X87325822Y-77807190D01*
X87325621Y-77806771D01*
X87323658Y-77804724D01*
X87319397Y-77799739D01*
X87314996Y-77795780D01*
X87308645Y-77790066D01*
X87299805Y-77781269D01*
X87290845Y-77771406D01*
X87285722Y-77767070D01*
X87276095Y-77756738D01*
X87275569Y-77757242D01*
X87269954Y-77751369D01*
X87260243Y-77743565D01*
X87257026Y-77740889D01*
X87253565Y-77737910D01*
X87242575Y-77726942D01*
X87237275Y-77723889D01*
X87228409Y-77716258D01*
X87224787Y-77710664D01*
X87222746Y-77708943D01*
X87222070Y-77709674D01*
X87216107Y-77704150D01*
X87208074Y-77698460D01*
X87196814Y-77689457D01*
X87190826Y-77684070D01*
X87184131Y-77679473D01*
X87184437Y-77679027D01*
X87163714Y-77663562D01*
X87163665Y-77663624D01*
X87162111Y-77662366D01*
X87158329Y-77659544D01*
X87157349Y-77658512D01*
X87151739Y-77655077D01*
X87150388Y-77654238D01*
X87144368Y-77650444D01*
X87135213Y-77643087D01*
X87126821Y-77639387D01*
X87119087Y-77634514D01*
X87114578Y-77629403D01*
X87107924Y-77624988D01*
X87107608Y-77625427D01*
X87101022Y-77620669D01*
X87101019Y-77620667D01*
X87095986Y-77617952D01*
X87087779Y-77613106D01*
X87085454Y-77611610D01*
X87075289Y-77604410D01*
X87072875Y-77603516D01*
X87067633Y-77600143D01*
X87052317Y-77592637D01*
X87038846Y-77584081D01*
X87038752Y-77584237D01*
X87031800Y-77580022D01*
X87030203Y-77579320D01*
X87021556Y-77575110D01*
X87018399Y-77573419D01*
X87010577Y-77568628D01*
X87008075Y-77567887D01*
X86999957Y-77563538D01*
X86978164Y-77542088D01*
X86954857Y-77522286D01*
X86953494Y-77517808D01*
X86950161Y-77514527D01*
X86943424Y-77484702D01*
X86934523Y-77455440D01*
X86935797Y-77450937D01*
X86934767Y-77446374D01*
X86945225Y-77417636D01*
X86953556Y-77388213D01*
X86957061Y-77385115D01*
X86958662Y-77380718D01*
X86982999Y-77362194D01*
X87005913Y-77341948D01*
X87014170Y-77338471D01*
X87014261Y-77338403D01*
X87014351Y-77338395D01*
X87014949Y-77338143D01*
X87173221Y-77278791D01*
X87242903Y-77273684D01*
X87304285Y-77307061D01*
G37*
%TD.AperFunction*%
%TD*%
%TA.AperFunction,NonConductor*%
G36*
X107316750Y-75001627D02*
G01*
X107323633Y-75004773D01*
X107412127Y-75048527D01*
X107450528Y-75067514D01*
X107451976Y-75068242D01*
X107893169Y-75293608D01*
X107894028Y-75294050D01*
X107904777Y-75299646D01*
X107908177Y-75302598D01*
X107942926Y-75319510D01*
X107944405Y-75320280D01*
X107968420Y-75343365D01*
X107993068Y-75365805D01*
X107993518Y-75367492D01*
X107994776Y-75368701D01*
X108002497Y-75401099D01*
X108011102Y-75433307D01*
X108010569Y-75434969D01*
X108010974Y-75436667D01*
X107999944Y-75468121D01*
X107989778Y-75499843D01*
X107988431Y-75500952D01*
X107987854Y-75502601D01*
X107961576Y-75523093D01*
X107935868Y-75544289D01*
X107933874Y-75544697D01*
X107932758Y-75545568D01*
X107927089Y-75546086D01*
X107887139Y-75554265D01*
X107593339Y-75554265D01*
X107526300Y-75534580D01*
X107505658Y-75517946D01*
X107241148Y-75253437D01*
X107241142Y-75253432D01*
X107241141Y-75253431D01*
X107241127Y-75253418D01*
X107190373Y-75212072D01*
X107150830Y-75154470D01*
X107148706Y-75084632D01*
X107184677Y-75024733D01*
X107247321Y-74993790D01*
X107316750Y-75001627D01*
G37*
%TD.AperFunction*%
%TA.AperFunction,NonConductor*%
G36*
X99929219Y-73270456D02*
G01*
X99931687Y-73270510D01*
X100354374Y-73284237D01*
X100356688Y-73284336D01*
X100789649Y-73306967D01*
X100791840Y-73307102D01*
X101230099Y-73338308D01*
X101232363Y-73338491D01*
X101670922Y-73377909D01*
X101673122Y-73378128D01*
X102107078Y-73425383D01*
X102109365Y-73425654D01*
X102533554Y-73480307D01*
X102536105Y-73480663D01*
X102945608Y-73542274D01*
X102948403Y-73542728D01*
X103338076Y-73610777D01*
X103341230Y-73611370D01*
X103708119Y-73685442D01*
X103711277Y-73686125D01*
X104041521Y-73762131D01*
X104056763Y-73765639D01*
X104059976Y-73766423D01*
X104386022Y-73850696D01*
X104389073Y-73851527D01*
X104692326Y-73938403D01*
X104697475Y-73939878D01*
X104700438Y-73940767D01*
X104992999Y-74032537D01*
X104995638Y-74033399D01*
X105274247Y-74127992D01*
X105276614Y-74128824D01*
X105543166Y-74225673D01*
X105545125Y-74226405D01*
X105768870Y-74312422D01*
X105801044Y-74324791D01*
X105802853Y-74325503D01*
X105881119Y-74357009D01*
X106042732Y-74422067D01*
X106048968Y-74424577D01*
X106050548Y-74425226D01*
X106286263Y-74524060D01*
X106287719Y-74524682D01*
X106512043Y-74622300D01*
X106513442Y-74622919D01*
X106670766Y-74693739D01*
X106724441Y-74717901D01*
X106726328Y-74718769D01*
X107043712Y-74868104D01*
X107095991Y-74914456D01*
X107114911Y-74981716D01*
X107094465Y-75048527D01*
X107041143Y-75093677D01*
X106971876Y-75102833D01*
X106962323Y-75100962D01*
X106894872Y-75084976D01*
X106840334Y-75072050D01*
X106667814Y-75072050D01*
X106556716Y-75098381D01*
X106499944Y-75111836D01*
X106345770Y-75189265D01*
X106267013Y-75253422D01*
X106266995Y-75253438D01*
X105843911Y-75676524D01*
X105843892Y-75676545D01*
X105779737Y-75755298D01*
X105779733Y-75755304D01*
X105702306Y-75909474D01*
X105702306Y-75909475D01*
X105662551Y-76077216D01*
X105662520Y-76077346D01*
X105662520Y-76238520D01*
X105661197Y-76243023D01*
X105662186Y-76247612D01*
X105651446Y-76276232D01*
X105642835Y-76305559D01*
X105639288Y-76308631D01*
X105637639Y-76313028D01*
X105613125Y-76331302D01*
X105590031Y-76351314D01*
X105584342Y-76352759D01*
X105581622Y-76354788D01*
X105563750Y-76357994D01*
X105547120Y-76362221D01*
X105542819Y-76362520D01*
X105377344Y-76362520D01*
X105308657Y-76378798D01*
X105298529Y-76379503D01*
X105273915Y-76374097D01*
X105248752Y-76372765D01*
X105238525Y-76366325D01*
X105230285Y-76364516D01*
X105221258Y-76355453D01*
X105202248Y-76343483D01*
X105197120Y-76338355D01*
X105197118Y-76338352D01*
X105078247Y-76219481D01*
X105078246Y-76219480D01*
X104983966Y-76165048D01*
X104983965Y-76165047D01*
X104941313Y-76140422D01*
X104877192Y-76123241D01*
X104788587Y-76099499D01*
X104630473Y-76099499D01*
X104622877Y-76099499D01*
X104622861Y-76099500D01*
X94577139Y-76099500D01*
X94577123Y-76099499D01*
X94569527Y-76099499D01*
X94411413Y-76099499D01*
X94343640Y-76117659D01*
X94258686Y-76140422D01*
X94216032Y-76165049D01*
X94216031Y-76165048D01*
X94121757Y-76219477D01*
X94121752Y-76219481D01*
X94009948Y-76331286D01*
X93597750Y-76743483D01*
X93536427Y-76776968D01*
X93501469Y-76779503D01*
X93491342Y-76778799D01*
X93422656Y-76762520D01*
X93257181Y-76762520D01*
X93252880Y-76762221D01*
X93223993Y-76751512D01*
X93194441Y-76742835D01*
X93191533Y-76739479D01*
X93187367Y-76737935D01*
X93168851Y-76713302D01*
X93148686Y-76690031D01*
X93147597Y-76685028D01*
X93145385Y-76682085D01*
X93144582Y-76671167D01*
X93137480Y-76638520D01*
X93137480Y-76477346D01*
X93134097Y-76463072D01*
X93097694Y-76309475D01*
X93020268Y-76155306D01*
X93020265Y-76155302D01*
X93020264Y-76155300D01*
X92956107Y-76076543D01*
X92956106Y-76076542D01*
X92956098Y-76076532D01*
X92532998Y-75653434D01*
X92532990Y-75653427D01*
X92532984Y-75653422D01*
X92454231Y-75589267D01*
X92454225Y-75589263D01*
X92454224Y-75589262D01*
X92300055Y-75511836D01*
X92132186Y-75472050D01*
X92002513Y-75472050D01*
X92000967Y-75471596D01*
X91999411Y-75472011D01*
X91967553Y-75461784D01*
X91935474Y-75452365D01*
X91934420Y-75451148D01*
X91932885Y-75450656D01*
X91911598Y-75424811D01*
X91889719Y-75399561D01*
X91889490Y-75397968D01*
X91888465Y-75396724D01*
X91884533Y-75363496D01*
X91879775Y-75330403D01*
X91880444Y-75328937D01*
X91880255Y-75327338D01*
X91894899Y-75297284D01*
X91908800Y-75266847D01*
X91910383Y-75265509D01*
X91910861Y-75264529D01*
X91938099Y-75242093D01*
X91971542Y-75221765D01*
X91974097Y-75220258D01*
X92201634Y-75089869D01*
X92204340Y-75088364D01*
X92412604Y-74975995D01*
X92446694Y-74957602D01*
X92449457Y-74956155D01*
X92706963Y-74825548D01*
X92709652Y-74824227D01*
X92982495Y-74694385D01*
X92985254Y-74693115D01*
X93273471Y-74564708D01*
X93276222Y-74563523D01*
X93580287Y-74437031D01*
X93583034Y-74435929D01*
X93903034Y-74312000D01*
X93905781Y-74310974D01*
X94241895Y-74190104D01*
X94244470Y-74189210D01*
X94594849Y-74072201D01*
X94597375Y-74071388D01*
X94959219Y-73959254D01*
X94961608Y-73958542D01*
X95332015Y-73852301D01*
X95334519Y-73851612D01*
X95338020Y-73850687D01*
X95710721Y-73752214D01*
X95713196Y-73751588D01*
X96092513Y-73659944D01*
X96094976Y-73659377D01*
X96474541Y-73576425D01*
X96477237Y-73575868D01*
X96854139Y-73502523D01*
X96856992Y-73502004D01*
X97229437Y-73438926D01*
X97232519Y-73438445D01*
X97602205Y-73385566D01*
X97605440Y-73385148D01*
X97975039Y-73342233D01*
X97978205Y-73341907D01*
X98350481Y-73308744D01*
X98353607Y-73308507D01*
X98731050Y-73284946D01*
X98734145Y-73284793D01*
X99119356Y-73270703D01*
X99122281Y-73270632D01*
X99517860Y-73265904D01*
X99520718Y-73265904D01*
X99929219Y-73270456D01*
G37*
%TD.AperFunction*%
%TA.AperFunction,NonConductor*%
G36*
X107756240Y-76774950D02*
G01*
X107801995Y-76827754D01*
X107811939Y-76896912D01*
X107784460Y-76958648D01*
X105569759Y-79616289D01*
X105511720Y-79655188D01*
X105441863Y-79656534D01*
X105382368Y-79619898D01*
X105352125Y-79556914D01*
X105350500Y-79536906D01*
X105350500Y-78651950D01*
X105370185Y-78584911D01*
X105422989Y-78539156D01*
X105474500Y-78527950D01*
X105532183Y-78527950D01*
X105532186Y-78527950D01*
X105700055Y-78488164D01*
X105854224Y-78410738D01*
X105932998Y-78346568D01*
X106356096Y-77923468D01*
X106420268Y-77844694D01*
X106497694Y-77690525D01*
X106537480Y-77522656D01*
X106537480Y-77361480D01*
X106557165Y-77294441D01*
X106609969Y-77248686D01*
X106661480Y-77237480D01*
X106822653Y-77237480D01*
X106822656Y-77237480D01*
X106990525Y-77197694D01*
X107144694Y-77120268D01*
X107223468Y-77056098D01*
X107487981Y-76791583D01*
X107514908Y-76776880D01*
X107540727Y-76760288D01*
X107546927Y-76759396D01*
X107549304Y-76758099D01*
X107575662Y-76755265D01*
X107689201Y-76755265D01*
X107756240Y-76774950D01*
G37*
%TD.AperFunction*%
%TA.AperFunction,NonConductor*%
G36*
X91291377Y-77174950D02*
G01*
X91312019Y-77191584D01*
X91444754Y-77324318D01*
X91576532Y-77456096D01*
X91576540Y-77456102D01*
X91576545Y-77456107D01*
X91655298Y-77520262D01*
X91655301Y-77520264D01*
X91655306Y-77520268D01*
X91809475Y-77597694D01*
X91977344Y-77637480D01*
X91977347Y-77637480D01*
X92138520Y-77637480D01*
X92205559Y-77657165D01*
X92251314Y-77709969D01*
X92262520Y-77761480D01*
X92262520Y-77922656D01*
X92302306Y-78090525D01*
X92376895Y-78239046D01*
X92379735Y-78244699D01*
X92443892Y-78323456D01*
X92443902Y-78323468D01*
X92867002Y-78746566D01*
X92867010Y-78746572D01*
X92867015Y-78746577D01*
X92945768Y-78810732D01*
X92945771Y-78810734D01*
X92945776Y-78810738D01*
X93099945Y-78888164D01*
X93267814Y-78927950D01*
X93267817Y-78927950D01*
X93375500Y-78927950D01*
X93442539Y-78947635D01*
X93488294Y-79000439D01*
X93499500Y-79051950D01*
X93499500Y-79631448D01*
X93479815Y-79698487D01*
X93427011Y-79744242D01*
X93357853Y-79754186D01*
X93294297Y-79725161D01*
X93287819Y-79719129D01*
X93248351Y-79679661D01*
X93248350Y-79679660D01*
X93101516Y-79589092D01*
X92937753Y-79534826D01*
X92937751Y-79534825D01*
X92836684Y-79524500D01*
X92642336Y-79524500D01*
X92575297Y-79504815D01*
X92552318Y-79485780D01*
X90542727Y-77364545D01*
X90510911Y-77302340D01*
X90517776Y-77232808D01*
X90561144Y-77178026D01*
X90627244Y-77155387D01*
X90632745Y-77155265D01*
X91224338Y-77155265D01*
X91291377Y-77174950D01*
G37*
%TD.AperFunction*%
%TA.AperFunction,NonConductor*%
G36*
X105555703Y-80839284D02*
G01*
X105580037Y-80867899D01*
X105599529Y-80899500D01*
X105629659Y-80948349D01*
X105681128Y-80999818D01*
X105683161Y-81003542D01*
X105686743Y-81005818D01*
X105699762Y-81033943D01*
X105714613Y-81061141D01*
X105714310Y-81065372D01*
X105716093Y-81069224D01*
X105711839Y-81099917D01*
X105709629Y-81130833D01*
X105706919Y-81135425D01*
X105706503Y-81138433D01*
X105697189Y-81151920D01*
X105687574Y-81168221D01*
X105684472Y-81171837D01*
X105604660Y-81251650D01*
X105575544Y-81298854D01*
X105569226Y-81306222D01*
X105547740Y-81320185D01*
X105528690Y-81337321D01*
X105517442Y-81339877D01*
X105510642Y-81344297D01*
X105497702Y-81344363D01*
X105475099Y-81349500D01*
X105474500Y-81349500D01*
X105457701Y-81344567D01*
X105440773Y-81344654D01*
X105425977Y-81335252D01*
X105407461Y-81329815D01*
X105395256Y-81315729D01*
X105381803Y-81307181D01*
X105374869Y-81292202D01*
X105361706Y-81277011D01*
X105356269Y-81252019D01*
X105352453Y-81243775D01*
X105353240Y-81238095D01*
X105350500Y-81225500D01*
X105350500Y-80932997D01*
X105370185Y-80865958D01*
X105422989Y-80820203D01*
X105492147Y-80810259D01*
X105555703Y-80839284D01*
G37*
%TD.AperFunction*%
M02*
