%TF.GenerationSoftware,KiCad,Pcbnew,9.0.1*%
%TF.CreationDate,2025-05-12T23:40:56+02:00*%
%TF.ProjectId,knit_yarn,6b6e6974-5f79-4617-926e-2e6b69636164,rev?*%
%TF.SameCoordinates,Original*%
%TF.FileFunction,Legend,Bot*%
%TF.FilePolarity,Positive*%
%FSLAX46Y46*%
G04 Gerber Fmt 4.6, Leading zero omitted, Abs format (unit mm)*
G04 Created by KiCad (PCBNEW 9.0.1) date 2025-05-12 23:40:56*
%MOMM*%
%LPD*%
G01*
G04 APERTURE LIST*
%ADD10C,0.100000*%
%ADD11C,0.120000*%
G04 APERTURE END LIST*
D10*
X86824800Y-86006265D02*
X86872419Y-86149122D01*
X86872419Y-86149122D02*
X86872419Y-86387217D01*
X86872419Y-86387217D02*
X86824800Y-86482455D01*
X86824800Y-86482455D02*
X86777180Y-86530074D01*
X86777180Y-86530074D02*
X86681942Y-86577693D01*
X86681942Y-86577693D02*
X86586704Y-86577693D01*
X86586704Y-86577693D02*
X86491466Y-86530074D01*
X86491466Y-86530074D02*
X86443847Y-86482455D01*
X86443847Y-86482455D02*
X86396228Y-86387217D01*
X86396228Y-86387217D02*
X86348609Y-86196741D01*
X86348609Y-86196741D02*
X86300990Y-86101503D01*
X86300990Y-86101503D02*
X86253371Y-86053884D01*
X86253371Y-86053884D02*
X86158133Y-86006265D01*
X86158133Y-86006265D02*
X86062895Y-86006265D01*
X86062895Y-86006265D02*
X85967657Y-86053884D01*
X85967657Y-86053884D02*
X85920038Y-86101503D01*
X85920038Y-86101503D02*
X85872419Y-86196741D01*
X85872419Y-86196741D02*
X85872419Y-86434836D01*
X85872419Y-86434836D02*
X85920038Y-86577693D01*
X86205752Y-86863408D02*
X86205752Y-87244360D01*
X85872419Y-87006265D02*
X86729561Y-87006265D01*
X86729561Y-87006265D02*
X86824800Y-87053884D01*
X86824800Y-87053884D02*
X86872419Y-87149122D01*
X86872419Y-87149122D02*
X86872419Y-87244360D01*
X86872419Y-87720551D02*
X86824800Y-87625313D01*
X86824800Y-87625313D02*
X86777180Y-87577694D01*
X86777180Y-87577694D02*
X86681942Y-87530075D01*
X86681942Y-87530075D02*
X86396228Y-87530075D01*
X86396228Y-87530075D02*
X86300990Y-87577694D01*
X86300990Y-87577694D02*
X86253371Y-87625313D01*
X86253371Y-87625313D02*
X86205752Y-87720551D01*
X86205752Y-87720551D02*
X86205752Y-87863408D01*
X86205752Y-87863408D02*
X86253371Y-87958646D01*
X86253371Y-87958646D02*
X86300990Y-88006265D01*
X86300990Y-88006265D02*
X86396228Y-88053884D01*
X86396228Y-88053884D02*
X86681942Y-88053884D01*
X86681942Y-88053884D02*
X86777180Y-88006265D01*
X86777180Y-88006265D02*
X86824800Y-87958646D01*
X86824800Y-87958646D02*
X86872419Y-87863408D01*
X86872419Y-87863408D02*
X86872419Y-87720551D01*
X86824800Y-88911027D02*
X86872419Y-88815789D01*
X86872419Y-88815789D02*
X86872419Y-88625313D01*
X86872419Y-88625313D02*
X86824800Y-88530075D01*
X86824800Y-88530075D02*
X86777180Y-88482456D01*
X86777180Y-88482456D02*
X86681942Y-88434837D01*
X86681942Y-88434837D02*
X86396228Y-88434837D01*
X86396228Y-88434837D02*
X86300990Y-88482456D01*
X86300990Y-88482456D02*
X86253371Y-88530075D01*
X86253371Y-88530075D02*
X86205752Y-88625313D01*
X86205752Y-88625313D02*
X86205752Y-88815789D01*
X86205752Y-88815789D02*
X86253371Y-88911027D01*
X86872419Y-89339599D02*
X85872419Y-89339599D01*
X86491466Y-89434837D02*
X86872419Y-89720551D01*
X86205752Y-89720551D02*
X86586704Y-89339599D01*
X86872419Y-90149123D02*
X85872419Y-90149123D01*
X86872419Y-90577694D02*
X86348609Y-90577694D01*
X86348609Y-90577694D02*
X86253371Y-90530075D01*
X86253371Y-90530075D02*
X86205752Y-90434837D01*
X86205752Y-90434837D02*
X86205752Y-90291980D01*
X86205752Y-90291980D02*
X86253371Y-90196742D01*
X86253371Y-90196742D02*
X86300990Y-90149123D01*
X86872419Y-91196742D02*
X86824800Y-91101504D01*
X86824800Y-91101504D02*
X86777180Y-91053885D01*
X86777180Y-91053885D02*
X86681942Y-91006266D01*
X86681942Y-91006266D02*
X86396228Y-91006266D01*
X86396228Y-91006266D02*
X86300990Y-91053885D01*
X86300990Y-91053885D02*
X86253371Y-91101504D01*
X86253371Y-91101504D02*
X86205752Y-91196742D01*
X86205752Y-91196742D02*
X86205752Y-91339599D01*
X86205752Y-91339599D02*
X86253371Y-91434837D01*
X86253371Y-91434837D02*
X86300990Y-91482456D01*
X86300990Y-91482456D02*
X86396228Y-91530075D01*
X86396228Y-91530075D02*
X86681942Y-91530075D01*
X86681942Y-91530075D02*
X86777180Y-91482456D01*
X86777180Y-91482456D02*
X86824800Y-91434837D01*
X86824800Y-91434837D02*
X86872419Y-91339599D01*
X86872419Y-91339599D02*
X86872419Y-91196742D01*
X86872419Y-92101504D02*
X86824800Y-92006266D01*
X86824800Y-92006266D02*
X86729561Y-91958647D01*
X86729561Y-91958647D02*
X85872419Y-91958647D01*
X86872419Y-92482457D02*
X86205752Y-92482457D01*
X86300990Y-92482457D02*
X86253371Y-92530076D01*
X86253371Y-92530076D02*
X86205752Y-92625314D01*
X86205752Y-92625314D02*
X86205752Y-92768171D01*
X86205752Y-92768171D02*
X86253371Y-92863409D01*
X86253371Y-92863409D02*
X86348609Y-92911028D01*
X86348609Y-92911028D02*
X86872419Y-92911028D01*
X86348609Y-92911028D02*
X86253371Y-92958647D01*
X86253371Y-92958647D02*
X86205752Y-93053885D01*
X86205752Y-93053885D02*
X86205752Y-93196742D01*
X86205752Y-93196742D02*
X86253371Y-93291981D01*
X86253371Y-93291981D02*
X86348609Y-93339600D01*
X86348609Y-93339600D02*
X86872419Y-93339600D01*
X86824800Y-93863409D02*
X86872419Y-93863409D01*
X86872419Y-93863409D02*
X86967657Y-93815790D01*
X86967657Y-93815790D02*
X87015276Y-93768171D01*
X86824800Y-95006266D02*
X86872419Y-95149123D01*
X86872419Y-95149123D02*
X86872419Y-95387218D01*
X86872419Y-95387218D02*
X86824800Y-95482456D01*
X86824800Y-95482456D02*
X86777180Y-95530075D01*
X86777180Y-95530075D02*
X86681942Y-95577694D01*
X86681942Y-95577694D02*
X86586704Y-95577694D01*
X86586704Y-95577694D02*
X86491466Y-95530075D01*
X86491466Y-95530075D02*
X86443847Y-95482456D01*
X86443847Y-95482456D02*
X86396228Y-95387218D01*
X86396228Y-95387218D02*
X86348609Y-95196742D01*
X86348609Y-95196742D02*
X86300990Y-95101504D01*
X86300990Y-95101504D02*
X86253371Y-95053885D01*
X86253371Y-95053885D02*
X86158133Y-95006266D01*
X86158133Y-95006266D02*
X86062895Y-95006266D01*
X86062895Y-95006266D02*
X85967657Y-95053885D01*
X85967657Y-95053885D02*
X85920038Y-95101504D01*
X85920038Y-95101504D02*
X85872419Y-95196742D01*
X85872419Y-95196742D02*
X85872419Y-95434837D01*
X85872419Y-95434837D02*
X85920038Y-95577694D01*
X85872419Y-95911028D02*
X86872419Y-96149123D01*
X86872419Y-96149123D02*
X86158133Y-96339599D01*
X86158133Y-96339599D02*
X86872419Y-96530075D01*
X86872419Y-96530075D02*
X85872419Y-96768171D01*
X86348609Y-97149123D02*
X86348609Y-97482456D01*
X86872419Y-97625313D02*
X86872419Y-97149123D01*
X86872419Y-97149123D02*
X85872419Y-97149123D01*
X85872419Y-97149123D02*
X85872419Y-97625313D01*
X113048769Y-87838816D02*
X113048769Y-87771473D01*
X113048769Y-87771473D02*
X113015098Y-87670457D01*
X113015098Y-87670457D02*
X112846739Y-87502098D01*
X112846739Y-87502098D02*
X112745724Y-87468427D01*
X112745724Y-87468427D02*
X112678380Y-87468427D01*
X112678380Y-87468427D02*
X112577365Y-87502098D01*
X112577365Y-87502098D02*
X112510021Y-87569442D01*
X112510021Y-87569442D02*
X112442678Y-87704129D01*
X112442678Y-87704129D02*
X112442678Y-88512251D01*
X112442678Y-88512251D02*
X112004945Y-88074518D01*
X112274319Y-86929679D02*
X112206975Y-86862335D01*
X112206975Y-86862335D02*
X112105960Y-86828663D01*
X112105960Y-86828663D02*
X112038617Y-86828663D01*
X112038617Y-86828663D02*
X111937601Y-86862335D01*
X111937601Y-86862335D02*
X111769243Y-86963350D01*
X111769243Y-86963350D02*
X111600884Y-87131709D01*
X111600884Y-87131709D02*
X111499869Y-87300068D01*
X111499869Y-87300068D02*
X111466197Y-87401083D01*
X111466197Y-87401083D02*
X111466197Y-87468427D01*
X111466197Y-87468427D02*
X111499869Y-87569442D01*
X111499869Y-87569442D02*
X111567212Y-87636785D01*
X111567212Y-87636785D02*
X111668227Y-87670457D01*
X111668227Y-87670457D02*
X111735571Y-87670457D01*
X111735571Y-87670457D02*
X111836586Y-87636785D01*
X111836586Y-87636785D02*
X112004945Y-87535770D01*
X112004945Y-87535770D02*
X112173304Y-87367411D01*
X112173304Y-87367411D02*
X112274319Y-87199053D01*
X112274319Y-87199053D02*
X112307991Y-87098037D01*
X112307991Y-87098037D02*
X112307991Y-87030694D01*
X112307991Y-87030694D02*
X112274319Y-86929679D01*
X111701899Y-86491946D02*
X111701899Y-86424602D01*
X111701899Y-86424602D02*
X111668227Y-86323587D01*
X111668227Y-86323587D02*
X111499869Y-86155228D01*
X111499869Y-86155228D02*
X111398853Y-86121557D01*
X111398853Y-86121557D02*
X111331510Y-86121557D01*
X111331510Y-86121557D02*
X111230495Y-86155228D01*
X111230495Y-86155228D02*
X111163151Y-86222572D01*
X111163151Y-86222572D02*
X111095808Y-86357259D01*
X111095808Y-86357259D02*
X111095808Y-87165381D01*
X111095808Y-87165381D02*
X110658075Y-86727648D01*
X110725418Y-85380778D02*
X111062136Y-85717496D01*
X111062136Y-85717496D02*
X110759090Y-86087885D01*
X110759090Y-86087885D02*
X110759090Y-86020541D01*
X110759090Y-86020541D02*
X110725418Y-85919526D01*
X110725418Y-85919526D02*
X110557060Y-85751167D01*
X110557060Y-85751167D02*
X110456044Y-85717496D01*
X110456044Y-85717496D02*
X110388701Y-85717496D01*
X110388701Y-85717496D02*
X110287686Y-85751167D01*
X110287686Y-85751167D02*
X110119327Y-85919526D01*
X110119327Y-85919526D02*
X110085655Y-86020541D01*
X110085655Y-86020541D02*
X110085655Y-86087885D01*
X110085655Y-86087885D02*
X110119327Y-86188900D01*
X110119327Y-86188900D02*
X110287686Y-86357259D01*
X110287686Y-86357259D02*
X110388701Y-86390931D01*
X110388701Y-86390931D02*
X110456044Y-86390931D01*
X109917296Y-84505312D02*
X109614250Y-86020541D01*
X109513235Y-84168595D02*
X109445892Y-84101251D01*
X109445892Y-84101251D02*
X109344877Y-84067580D01*
X109344877Y-84067580D02*
X109277533Y-84067580D01*
X109277533Y-84067580D02*
X109176518Y-84101251D01*
X109176518Y-84101251D02*
X109008159Y-84202267D01*
X109008159Y-84202267D02*
X108839800Y-84370626D01*
X108839800Y-84370626D02*
X108738785Y-84538984D01*
X108738785Y-84538984D02*
X108705113Y-84640000D01*
X108705113Y-84640000D02*
X108705113Y-84707343D01*
X108705113Y-84707343D02*
X108738785Y-84808358D01*
X108738785Y-84808358D02*
X108806128Y-84875702D01*
X108806128Y-84875702D02*
X108907144Y-84909374D01*
X108907144Y-84909374D02*
X108974487Y-84909374D01*
X108974487Y-84909374D02*
X109075503Y-84875702D01*
X109075503Y-84875702D02*
X109243861Y-84774687D01*
X109243861Y-84774687D02*
X109412220Y-84606328D01*
X109412220Y-84606328D02*
X109513235Y-84437969D01*
X109513235Y-84437969D02*
X109546907Y-84336954D01*
X109546907Y-84336954D02*
X109546907Y-84269610D01*
X109546907Y-84269610D02*
X109513235Y-84168595D01*
X108637770Y-83293129D02*
X108974487Y-83629847D01*
X108974487Y-83629847D02*
X108671441Y-84000236D01*
X108671441Y-84000236D02*
X108671441Y-83932893D01*
X108671441Y-83932893D02*
X108637770Y-83831877D01*
X108637770Y-83831877D02*
X108469411Y-83663519D01*
X108469411Y-83663519D02*
X108368396Y-83629847D01*
X108368396Y-83629847D02*
X108301052Y-83629847D01*
X108301052Y-83629847D02*
X108200037Y-83663519D01*
X108200037Y-83663519D02*
X108031678Y-83831877D01*
X108031678Y-83831877D02*
X107998006Y-83932893D01*
X107998006Y-83932893D02*
X107998006Y-84000236D01*
X107998006Y-84000236D02*
X108031678Y-84101251D01*
X108031678Y-84101251D02*
X108200037Y-84269610D01*
X108200037Y-84269610D02*
X108301052Y-84303282D01*
X108301052Y-84303282D02*
X108368396Y-84303282D01*
X107829648Y-82417664D02*
X107526602Y-83932893D01*
X106482778Y-82552351D02*
X106886839Y-82956412D01*
X106684808Y-82754381D02*
X107391915Y-82047275D01*
X107391915Y-82047275D02*
X107358243Y-82215633D01*
X107358243Y-82215633D02*
X107358243Y-82350320D01*
X107358243Y-82350320D02*
X107391915Y-82451336D01*
X106853167Y-81643214D02*
X106853167Y-81575870D01*
X106853167Y-81575870D02*
X106819495Y-81474855D01*
X106819495Y-81474855D02*
X106651136Y-81306496D01*
X106651136Y-81306496D02*
X106550121Y-81272824D01*
X106550121Y-81272824D02*
X106482778Y-81272824D01*
X106482778Y-81272824D02*
X106381762Y-81306496D01*
X106381762Y-81306496D02*
X106314419Y-81373840D01*
X106314419Y-81373840D02*
X106247075Y-81508527D01*
X106247075Y-81508527D02*
X106247075Y-82316649D01*
X106247075Y-82316649D02*
X105809343Y-81878916D01*
X103077068Y-80381228D02*
X103124687Y-80333609D01*
X103124687Y-80333609D02*
X103219925Y-80285990D01*
X103219925Y-80285990D02*
X103315163Y-80285990D01*
X103315163Y-80285990D02*
X103410401Y-80333609D01*
X103410401Y-80333609D02*
X103458020Y-80381228D01*
X103458020Y-80381228D02*
X103505639Y-80476466D01*
X103505639Y-80476466D02*
X103505639Y-80571704D01*
X103505639Y-80571704D02*
X103458020Y-80666942D01*
X103458020Y-80666942D02*
X103410401Y-80714561D01*
X103410401Y-80714561D02*
X103315163Y-80762180D01*
X103315163Y-80762180D02*
X103219925Y-80762180D01*
X103219925Y-80762180D02*
X103124687Y-80714561D01*
X103124687Y-80714561D02*
X103077068Y-80666942D01*
X103077068Y-80285990D02*
X103077068Y-80666942D01*
X103077068Y-80666942D02*
X103029449Y-80714561D01*
X103029449Y-80714561D02*
X102981830Y-80714561D01*
X102981830Y-80714561D02*
X102886591Y-80666942D01*
X102886591Y-80666942D02*
X102838972Y-80571704D01*
X102838972Y-80571704D02*
X102838972Y-80333609D01*
X102838972Y-80333609D02*
X102934211Y-80190752D01*
X102934211Y-80190752D02*
X103077068Y-80095514D01*
X103077068Y-80095514D02*
X103267544Y-80047895D01*
X103267544Y-80047895D02*
X103458020Y-80095514D01*
X103458020Y-80095514D02*
X103600877Y-80190752D01*
X103600877Y-80190752D02*
X103696115Y-80333609D01*
X103696115Y-80333609D02*
X103743734Y-80524085D01*
X103743734Y-80524085D02*
X103696115Y-80714561D01*
X103696115Y-80714561D02*
X103600877Y-80857419D01*
X103600877Y-80857419D02*
X103458020Y-80952657D01*
X103458020Y-80952657D02*
X103267544Y-81000276D01*
X103267544Y-81000276D02*
X103077068Y-80952657D01*
X103077068Y-80952657D02*
X102934211Y-80857419D01*
X102410401Y-80857419D02*
X102410401Y-79857419D01*
X102410401Y-80238371D02*
X102315163Y-80190752D01*
X102315163Y-80190752D02*
X102124687Y-80190752D01*
X102124687Y-80190752D02*
X102029449Y-80238371D01*
X102029449Y-80238371D02*
X101981830Y-80285990D01*
X101981830Y-80285990D02*
X101934211Y-80381228D01*
X101934211Y-80381228D02*
X101934211Y-80666942D01*
X101934211Y-80666942D02*
X101981830Y-80762180D01*
X101981830Y-80762180D02*
X102029449Y-80809800D01*
X102029449Y-80809800D02*
X102124687Y-80857419D01*
X102124687Y-80857419D02*
X102315163Y-80857419D01*
X102315163Y-80857419D02*
X102410401Y-80809800D01*
X101362782Y-80857419D02*
X101458020Y-80809800D01*
X101458020Y-80809800D02*
X101505639Y-80762180D01*
X101505639Y-80762180D02*
X101553258Y-80666942D01*
X101553258Y-80666942D02*
X101553258Y-80381228D01*
X101553258Y-80381228D02*
X101505639Y-80285990D01*
X101505639Y-80285990D02*
X101458020Y-80238371D01*
X101458020Y-80238371D02*
X101362782Y-80190752D01*
X101362782Y-80190752D02*
X101219925Y-80190752D01*
X101219925Y-80190752D02*
X101124687Y-80238371D01*
X101124687Y-80238371D02*
X101077068Y-80285990D01*
X101077068Y-80285990D02*
X101029449Y-80381228D01*
X101029449Y-80381228D02*
X101029449Y-80666942D01*
X101029449Y-80666942D02*
X101077068Y-80762180D01*
X101077068Y-80762180D02*
X101124687Y-80809800D01*
X101124687Y-80809800D02*
X101219925Y-80857419D01*
X101219925Y-80857419D02*
X101362782Y-80857419D01*
X100600877Y-80857419D02*
X100600877Y-80190752D01*
X100600877Y-80381228D02*
X100553258Y-80285990D01*
X100553258Y-80285990D02*
X100505639Y-80238371D01*
X100505639Y-80238371D02*
X100410401Y-80190752D01*
X100410401Y-80190752D02*
X100315163Y-80190752D01*
X99981829Y-80857419D02*
X99981829Y-80190752D01*
X99981829Y-79857419D02*
X100029448Y-79905038D01*
X100029448Y-79905038D02*
X99981829Y-79952657D01*
X99981829Y-79952657D02*
X99934210Y-79905038D01*
X99934210Y-79905038D02*
X99981829Y-79857419D01*
X99981829Y-79857419D02*
X99981829Y-79952657D01*
X99553258Y-80809800D02*
X99458020Y-80857419D01*
X99458020Y-80857419D02*
X99267544Y-80857419D01*
X99267544Y-80857419D02*
X99172306Y-80809800D01*
X99172306Y-80809800D02*
X99124687Y-80714561D01*
X99124687Y-80714561D02*
X99124687Y-80666942D01*
X99124687Y-80666942D02*
X99172306Y-80571704D01*
X99172306Y-80571704D02*
X99267544Y-80524085D01*
X99267544Y-80524085D02*
X99410401Y-80524085D01*
X99410401Y-80524085D02*
X99505639Y-80476466D01*
X99505639Y-80476466D02*
X99553258Y-80381228D01*
X99553258Y-80381228D02*
X99553258Y-80333609D01*
X99553258Y-80333609D02*
X99505639Y-80238371D01*
X99505639Y-80238371D02*
X99410401Y-80190752D01*
X99410401Y-80190752D02*
X99267544Y-80190752D01*
X99267544Y-80190752D02*
X99172306Y-80238371D01*
X98696115Y-80190752D02*
X98696115Y-80857419D01*
X98696115Y-80285990D02*
X98648496Y-80238371D01*
X98648496Y-80238371D02*
X98553258Y-80190752D01*
X98553258Y-80190752D02*
X98410401Y-80190752D01*
X98410401Y-80190752D02*
X98315163Y-80238371D01*
X98315163Y-80238371D02*
X98267544Y-80333609D01*
X98267544Y-80333609D02*
X98267544Y-80857419D01*
X97648496Y-80857419D02*
X97743734Y-80809800D01*
X97743734Y-80809800D02*
X97791353Y-80762180D01*
X97791353Y-80762180D02*
X97838972Y-80666942D01*
X97838972Y-80666942D02*
X97838972Y-80381228D01*
X97838972Y-80381228D02*
X97791353Y-80285990D01*
X97791353Y-80285990D02*
X97743734Y-80238371D01*
X97743734Y-80238371D02*
X97648496Y-80190752D01*
X97648496Y-80190752D02*
X97505639Y-80190752D01*
X97505639Y-80190752D02*
X97410401Y-80238371D01*
X97410401Y-80238371D02*
X97362782Y-80285990D01*
X97362782Y-80285990D02*
X97315163Y-80381228D01*
X97315163Y-80381228D02*
X97315163Y-80666942D01*
X97315163Y-80666942D02*
X97362782Y-80762180D01*
X97362782Y-80762180D02*
X97410401Y-80809800D01*
X97410401Y-80809800D02*
X97505639Y-80857419D01*
X97505639Y-80857419D02*
X97648496Y-80857419D01*
X97029448Y-80190752D02*
X96648496Y-80190752D01*
X96886591Y-79857419D02*
X96886591Y-80714561D01*
X96886591Y-80714561D02*
X96838972Y-80809800D01*
X96838972Y-80809800D02*
X96743734Y-80857419D01*
X96743734Y-80857419D02*
X96648496Y-80857419D01*
X95934210Y-80809800D02*
X96029448Y-80857419D01*
X96029448Y-80857419D02*
X96219924Y-80857419D01*
X96219924Y-80857419D02*
X96315162Y-80809800D01*
X96315162Y-80809800D02*
X96362781Y-80714561D01*
X96362781Y-80714561D02*
X96362781Y-80333609D01*
X96362781Y-80333609D02*
X96315162Y-80238371D01*
X96315162Y-80238371D02*
X96219924Y-80190752D01*
X96219924Y-80190752D02*
X96029448Y-80190752D01*
X96029448Y-80190752D02*
X95934210Y-80238371D01*
X95934210Y-80238371D02*
X95886591Y-80333609D01*
X95886591Y-80333609D02*
X95886591Y-80428847D01*
X95886591Y-80428847D02*
X96362781Y-80524085D01*
X95505638Y-80809800D02*
X95410400Y-80857419D01*
X95410400Y-80857419D02*
X95219924Y-80857419D01*
X95219924Y-80857419D02*
X95124686Y-80809800D01*
X95124686Y-80809800D02*
X95077067Y-80714561D01*
X95077067Y-80714561D02*
X95077067Y-80666942D01*
X95077067Y-80666942D02*
X95124686Y-80571704D01*
X95124686Y-80571704D02*
X95219924Y-80524085D01*
X95219924Y-80524085D02*
X95362781Y-80524085D01*
X95362781Y-80524085D02*
X95458019Y-80476466D01*
X95458019Y-80476466D02*
X95505638Y-80381228D01*
X95505638Y-80381228D02*
X95505638Y-80333609D01*
X95505638Y-80333609D02*
X95458019Y-80238371D01*
X95458019Y-80238371D02*
X95362781Y-80190752D01*
X95362781Y-80190752D02*
X95219924Y-80190752D01*
X95219924Y-80190752D02*
X95124686Y-80238371D01*
D11*
%TO.C,R6*%
X89522500Y-81754724D02*
X89522500Y-81245276D01*
X88477500Y-81754724D02*
X88477500Y-81245276D01*
%TO.C,R5*%
X110522500Y-81504724D02*
X110522500Y-80995276D01*
X109477500Y-81504724D02*
X109477500Y-80995276D01*
%TO.C,D6*%
X93285000Y-79765000D02*
X93285000Y-81235000D01*
X93285000Y-81235000D02*
X90825000Y-81235000D01*
X90825000Y-79765000D02*
X93285000Y-79765000D01*
%TO.C,D5*%
X105715000Y-80985000D02*
X105715000Y-79515000D01*
X105715000Y-79515000D02*
X108175000Y-79515000D01*
X108175000Y-80985000D02*
X105715000Y-80985000D01*
%TO.C,D4*%
X85914591Y-75545962D02*
X87654074Y-73806479D01*
X88693521Y-74845926D02*
X86954038Y-76585409D01*
X87654074Y-73806479D02*
X88693521Y-74845926D01*
%TO.C,BT1*%
X110957454Y-96850000D02*
G75*
G02*
X110957454Y-90650000I-11499999J3100000D01*
G01*
X109957455Y-93250000D02*
X109957455Y-94250000D01*
X110457455Y-93750000D02*
X109457455Y-93750000D01*
%TO.C,R4*%
X85522500Y-86754724D02*
X85522500Y-86245276D01*
X84477500Y-86754724D02*
X84477500Y-86245276D01*
%TO.C,R3*%
X115022500Y-85004724D02*
X115022500Y-84495276D01*
X113977500Y-85004724D02*
X113977500Y-84495276D01*
%TO.C,R2*%
X84477500Y-89745276D02*
X84477500Y-90254724D01*
X85522500Y-89745276D02*
X85522500Y-90254724D01*
%TO.C,R1*%
X113977500Y-87995277D02*
X113977500Y-88504724D01*
X115022500Y-87995276D02*
X115022500Y-88504723D01*
%TO.C,D3*%
X110187761Y-73477208D02*
X111227208Y-72437761D01*
X111227208Y-72437761D02*
X112966691Y-74177244D01*
X111927244Y-75216691D02*
X110187761Y-73477208D01*
%TO.C,D2*%
X87595926Y-105693521D02*
X86556479Y-104654074D01*
X86556479Y-104654074D02*
X88295962Y-102914591D01*
X89335409Y-103954038D02*
X87595926Y-105693521D01*
%TO.C,D1*%
X114318521Y-103654074D02*
X113279074Y-104693521D01*
X113279074Y-104693521D02*
X111539591Y-102954038D01*
X112579038Y-101914591D02*
X114318521Y-103654074D01*
%TD*%
M02*
