%TF.GenerationSoftware,KiCad,Pcbnew,9.0.1*%
%TF.CreationDate,2025-05-12T23:40:56+02:00*%
%TF.ProjectId,knit_yarn,6b6e6974-5f79-4617-926e-2e6b69636164,rev?*%
%TF.SameCoordinates,Original*%
%TF.FileFunction,Soldermask,Top*%
%TF.FilePolarity,Negative*%
%FSLAX46Y46*%
G04 Gerber Fmt 4.6, Leading zero omitted, Abs format (unit mm)*
G04 Created by KiCad (PCBNEW 9.0.1) date 2025-05-12 23:40:56*
%MOMM*%
%LPD*%
G01*
G04 APERTURE LIST*
%ADD10C,0.100000*%
%ADD11C,2.000000*%
%ADD12R,2.000000X2.000000*%
G04 APERTURE END LIST*
D10*
X110184992Y-71453746D02*
X110184971Y-71453742D01*
X110229854Y-71455618D01*
X110275267Y-71458871D01*
X110321325Y-71463487D01*
X110368143Y-71469448D01*
X110415836Y-71476741D01*
X110464518Y-71485348D01*
X110514304Y-71495256D01*
X110565310Y-71506447D01*
X110671034Y-71532533D01*
X110780579Y-71562983D01*
X110892424Y-71597066D01*
X111005050Y-71634050D01*
X111116936Y-71673203D01*
X111226562Y-71713792D01*
X111332409Y-71755086D01*
X111432957Y-71796352D01*
X111527048Y-71836975D01*
X111614965Y-71876898D01*
X111697354Y-71916223D01*
X111774858Y-71955052D01*
X111848125Y-71993486D01*
X111917797Y-72031629D01*
X111984521Y-72069581D01*
X112048941Y-72107444D01*
X112111816Y-72145476D01*
X112174388Y-72184578D01*
X112238024Y-72225824D01*
X112304089Y-72270285D01*
X112373949Y-72319035D01*
X112448971Y-72373145D01*
X112530521Y-72433687D01*
X112619965Y-72501736D01*
X112822942Y-72660757D01*
X112932213Y-72748544D01*
X113043398Y-72839401D01*
X113154041Y-72931489D01*
X113261685Y-73022973D01*
X113363876Y-73112017D01*
X113458157Y-73196784D01*
X113542744Y-73276014D01*
X113618519Y-73350733D01*
X113653583Y-73386897D01*
X113687023Y-73422528D01*
X113719029Y-73457824D01*
X113749796Y-73492984D01*
X113779516Y-73528205D01*
X113808380Y-73563686D01*
X113836583Y-73599625D01*
X113864316Y-73636221D01*
X113919143Y-73712173D01*
X113974404Y-73793129D01*
X114031214Y-73880186D01*
X114089006Y-73972478D01*
X114146797Y-74068656D01*
X114203600Y-74167366D01*
X114258432Y-74267260D01*
X114310307Y-74366984D01*
X114358242Y-74465190D01*
X114401251Y-74560524D01*
X114420627Y-74606732D01*
X114438576Y-74651943D01*
X114455157Y-74696215D01*
X114470429Y-74739607D01*
X114484452Y-74782177D01*
X114497286Y-74823981D01*
X114508991Y-74865079D01*
X114519625Y-74905527D01*
X114529249Y-74945384D01*
X114537922Y-74984708D01*
X114552655Y-75061985D01*
X114564300Y-75137822D01*
X114573334Y-75212681D01*
X114580125Y-75286909D01*
X114584635Y-75360402D01*
X114586719Y-75432946D01*
X114586235Y-75504325D01*
X114583041Y-75574324D01*
X114580382Y-75608739D01*
X114576992Y-75642728D01*
X114572854Y-75676264D01*
X114567948Y-75709321D01*
X114562257Y-75741871D01*
X114555763Y-75773887D01*
X114548458Y-75805350D01*
X114540357Y-75836267D01*
X114531486Y-75866659D01*
X114521867Y-75896546D01*
X114511525Y-75925947D01*
X114500483Y-75954882D01*
X114488765Y-75983371D01*
X114476395Y-76011434D01*
X114463397Y-76039089D01*
X114449794Y-76066358D01*
X114435610Y-76093260D01*
X114420869Y-76119815D01*
X114405595Y-76146042D01*
X114389811Y-76171961D01*
X114356810Y-76222955D01*
X114339631Y-76248058D01*
X114321985Y-76272865D01*
X114303845Y-76297327D01*
X114285181Y-76321399D01*
X114265966Y-76345031D01*
X114246171Y-76368177D01*
X114225767Y-76390790D01*
X114204727Y-76412822D01*
X114183021Y-76434225D01*
X114160621Y-76454953D01*
X114137499Y-76474957D01*
X114113627Y-76494191D01*
X114088975Y-76512606D01*
X114063516Y-76530156D01*
X114037221Y-76546793D01*
X114010061Y-76562469D01*
X113982020Y-76577153D01*
X113953126Y-76590868D01*
X113923423Y-76603650D01*
X113892953Y-76615536D01*
X113861759Y-76626562D01*
X113829883Y-76636765D01*
X113797367Y-76646180D01*
X113764255Y-76654844D01*
X113730588Y-76662793D01*
X113696409Y-76670064D01*
X113626685Y-76682717D01*
X113555423Y-76693091D01*
X113482962Y-76701479D01*
X113409643Y-76708133D01*
X113335857Y-76713149D01*
X113262022Y-76716579D01*
X113188558Y-76718478D01*
X113115881Y-76718898D01*
X113044412Y-76717893D01*
X112974569Y-76715517D01*
X112906769Y-76711822D01*
X112841358Y-76706844D01*
X112778356Y-76700503D01*
X112717700Y-76692678D01*
X112659326Y-76683249D01*
X112603169Y-76672095D01*
X112575902Y-76665833D01*
X112549166Y-76659094D01*
X112522953Y-76651864D01*
X112497254Y-76644127D01*
X112472062Y-76635869D01*
X112447369Y-76627073D01*
X112423174Y-76617748D01*
X112399493Y-76607981D01*
X112376340Y-76597873D01*
X112353729Y-76587527D01*
X112310195Y-76566526D01*
X112269008Y-76545794D01*
X112230285Y-76526146D01*
X112194144Y-76508398D01*
X112177078Y-76500491D01*
X112160702Y-76493365D01*
X112145029Y-76487121D01*
X112130076Y-76481862D01*
X112115838Y-76477673D01*
X112102240Y-76474573D01*
X112089186Y-76472570D01*
X112082832Y-76471983D01*
X112076578Y-76471673D01*
X112070412Y-76471641D01*
X112064321Y-76471889D01*
X112058293Y-76472417D01*
X112052316Y-76473227D01*
X112046378Y-76474319D01*
X112040468Y-76475694D01*
X112034572Y-76477354D01*
X112028679Y-76479299D01*
X112022777Y-76481531D01*
X112016854Y-76484050D01*
X112004895Y-76489955D01*
X111992706Y-76497023D01*
X111980190Y-76505260D01*
X111967250Y-76514676D01*
X111953790Y-76525279D01*
X111939712Y-76537075D01*
X111924921Y-76550075D01*
X111893065Y-76579553D01*
X111858709Y-76612958D01*
X111822587Y-76649377D01*
X111785435Y-76687893D01*
X111747987Y-76727592D01*
X111710978Y-76767558D01*
X111641216Y-76844635D01*
X111609827Y-76880094D01*
X111581183Y-76913273D01*
X111555386Y-76944390D01*
X111543589Y-76959243D01*
X111532542Y-76973662D01*
X111522259Y-76987675D01*
X111512752Y-77001308D01*
X111504036Y-77014589D01*
X111496122Y-77027545D01*
X111489024Y-77040203D01*
X111482754Y-77052591D01*
X111477326Y-77064734D01*
X111472752Y-77076662D01*
X111469076Y-77088426D01*
X111466452Y-77100193D01*
X111465063Y-77112161D01*
X111465094Y-77124529D01*
X111466729Y-77137495D01*
X111470152Y-77151258D01*
X111475548Y-77166016D01*
X111483101Y-77181968D01*
X111492995Y-77199312D01*
X111505415Y-77218247D01*
X111520544Y-77238972D01*
X111538567Y-77261684D01*
X111559668Y-77286583D01*
X111584032Y-77313867D01*
X111611843Y-77343735D01*
X111643284Y-77376385D01*
X111717176Y-77450344D01*
X111804066Y-77534905D01*
X112007790Y-77730500D01*
X112236355Y-77952514D01*
X112354295Y-78070097D01*
X112471657Y-78190289D01*
X112586576Y-78311958D01*
X112698835Y-78434752D01*
X112808646Y-78558509D01*
X112916223Y-78683069D01*
X113021779Y-78808268D01*
X113125527Y-78933947D01*
X113328453Y-79186098D01*
X113527137Y-79439852D01*
X113626071Y-79569394D01*
X113725452Y-79702147D01*
X113825818Y-79839188D01*
X113927709Y-79981594D01*
X114031664Y-80130441D01*
X114138222Y-80286806D01*
X114247663Y-80451343D01*
X114359191Y-80622980D01*
X114471733Y-80800205D01*
X114584215Y-80981506D01*
X114695564Y-81165369D01*
X114804705Y-81350282D01*
X114910565Y-81534733D01*
X115012070Y-81717210D01*
X115108378Y-81896540D01*
X115199596Y-82072892D01*
X115286072Y-82246766D01*
X115368157Y-82418661D01*
X115446200Y-82589078D01*
X115520550Y-82758516D01*
X115591559Y-82927474D01*
X115659575Y-83096454D01*
X115724939Y-83265903D01*
X115787951Y-83436116D01*
X115848903Y-83607364D01*
X115908084Y-83779919D01*
X116022302Y-84130030D01*
X116132933Y-84488616D01*
X116241389Y-84856397D01*
X116345214Y-85228077D01*
X116394311Y-85413236D01*
X116440956Y-85596799D01*
X116484716Y-85777910D01*
X116525160Y-85955710D01*
X116561986Y-86129691D01*
X116595435Y-86300732D01*
X116625894Y-86470060D01*
X116653750Y-86638900D01*
X116679387Y-86808480D01*
X116703192Y-86980026D01*
X116746851Y-87333920D01*
X116786960Y-87707186D01*
X116822519Y-88093689D01*
X116851767Y-88484134D01*
X116872942Y-88869226D01*
X116880010Y-89057301D01*
X116884683Y-89243202D01*
X116887021Y-89428427D01*
X116887081Y-89614471D01*
X116884923Y-89802832D01*
X116880605Y-89995007D01*
X116865721Y-90396782D01*
X116842313Y-90828211D01*
X116826683Y-91053442D01*
X116807932Y-91283447D01*
X116785681Y-91517050D01*
X116759553Y-91753074D01*
X116729170Y-91990343D01*
X116694155Y-92227678D01*
X116654236Y-92464096D01*
X116609554Y-92699357D01*
X116560349Y-92933402D01*
X116506863Y-93166175D01*
X116449335Y-93397617D01*
X116388006Y-93627670D01*
X116323115Y-93856277D01*
X116254904Y-94083380D01*
X116183747Y-94308637D01*
X116110528Y-94530659D01*
X116036246Y-94747814D01*
X115961900Y-94958468D01*
X115817018Y-95353747D01*
X115683882Y-95703436D01*
X115567691Y-95999638D01*
X115514232Y-96131339D01*
X115462380Y-96255087D01*
X115411021Y-96373118D01*
X115359041Y-96487667D01*
X115305327Y-96600969D01*
X115248766Y-96715260D01*
X115188482Y-96832369D01*
X115124565Y-96952475D01*
X114987125Y-97200706D01*
X114839040Y-97458007D01*
X114682903Y-97722433D01*
X114521038Y-97991737D01*
X114354747Y-98262765D01*
X114185103Y-98532215D01*
X114013182Y-98796785D01*
X113926760Y-98926184D01*
X113840547Y-99053012D01*
X113670840Y-99296928D01*
X113508231Y-99524479D01*
X113356892Y-99731613D01*
X113220617Y-99914728D01*
X113101723Y-100071933D01*
X113002150Y-100201734D01*
X112923842Y-100302637D01*
X112893332Y-100342155D01*
X112880441Y-100359695D01*
X112869221Y-100376091D01*
X112859745Y-100391594D01*
X112855684Y-100399089D01*
X112852085Y-100406454D01*
X112848959Y-100413722D01*
X112846314Y-100420923D01*
X112844159Y-100428090D01*
X112842504Y-100435253D01*
X112841357Y-100442443D01*
X112840727Y-100449693D01*
X112840623Y-100457033D01*
X112841055Y-100464495D01*
X112842032Y-100472110D01*
X112843561Y-100479910D01*
X112845654Y-100487927D01*
X112848317Y-100496190D01*
X112851562Y-100504732D01*
X112855396Y-100513585D01*
X112859828Y-100522779D01*
X112864869Y-100532346D01*
X112870526Y-100542318D01*
X112876808Y-100552725D01*
X112891287Y-100574972D01*
X112927817Y-100625550D01*
X112973421Y-100683492D01*
X113026750Y-100747691D01*
X113086454Y-100817039D01*
X113219596Y-100966753D01*
X113362059Y-101123775D01*
X113650496Y-101441857D01*
X113800742Y-101609380D01*
X113959439Y-101788334D01*
X114128421Y-101981455D01*
X114303345Y-102185036D01*
X114478269Y-102393742D01*
X114563874Y-102498349D01*
X114647251Y-102602238D01*
X114727814Y-102704910D01*
X114805568Y-102806499D01*
X114880661Y-102907284D01*
X114953241Y-103007544D01*
X115023455Y-103107557D01*
X115091451Y-103207603D01*
X115157376Y-103307961D01*
X115221377Y-103408909D01*
X115283545Y-103510597D01*
X115343777Y-103612656D01*
X115401931Y-103714586D01*
X115457862Y-103815884D01*
X115511427Y-103916049D01*
X115562482Y-104014578D01*
X115610885Y-104110970D01*
X115656492Y-104204723D01*
X115699214Y-104295471D01*
X115739238Y-104383420D01*
X115776839Y-104468927D01*
X115812293Y-104552352D01*
X115845874Y-104634052D01*
X115877857Y-104714385D01*
X115938128Y-104872383D01*
X115966863Y-104950677D01*
X115994523Y-105028527D01*
X116020826Y-105105786D01*
X116045489Y-105182305D01*
X116068231Y-105257937D01*
X116088767Y-105332534D01*
X116106816Y-105405948D01*
X116122095Y-105478031D01*
X116128619Y-105513523D01*
X116134402Y-105548595D01*
X116139468Y-105583203D01*
X116143839Y-105617301D01*
X116150591Y-105683782D01*
X116154842Y-105747671D01*
X116156776Y-105808603D01*
X116156577Y-105866211D01*
X116154430Y-105920129D01*
X116150519Y-105969990D01*
X116147955Y-105993305D01*
X116144975Y-106015581D01*
X116141554Y-106036877D01*
X116137663Y-106057253D01*
X116133277Y-106076772D01*
X116128367Y-106095492D01*
X116122908Y-106113476D01*
X116116872Y-106130782D01*
X116110231Y-106147473D01*
X116102960Y-106163607D01*
X116095032Y-106179247D01*
X116086419Y-106194453D01*
X116077094Y-106209285D01*
X116067031Y-106223804D01*
X116056202Y-106238070D01*
X116044581Y-106252144D01*
X116032148Y-106266074D01*
X116018908Y-106279843D01*
X116004876Y-106293415D01*
X115990064Y-106306752D01*
X115974484Y-106319817D01*
X115958151Y-106332574D01*
X115941077Y-106344986D01*
X115923275Y-106357016D01*
X115904759Y-106368627D01*
X115885540Y-106379782D01*
X115865633Y-106390445D01*
X115845051Y-106400578D01*
X115823806Y-106410144D01*
X115801912Y-106419108D01*
X115779382Y-106427431D01*
X115756228Y-106435078D01*
X115732471Y-106442018D01*
X115708161Y-106448254D01*
X115683350Y-106453800D01*
X115658091Y-106458666D01*
X115632436Y-106462867D01*
X115606438Y-106466413D01*
X115580150Y-106469318D01*
X115553624Y-106471595D01*
X115526914Y-106473255D01*
X115500071Y-106474311D01*
X115446201Y-106474663D01*
X115392434Y-106472749D01*
X115339194Y-106468670D01*
X115286439Y-106462264D01*
X115232211Y-106452378D01*
X115203779Y-106445696D01*
X115174061Y-106437624D01*
X115142748Y-106427988D01*
X115109537Y-106416616D01*
X115074120Y-106403334D01*
X115036190Y-106387968D01*
X114995443Y-106370347D01*
X114951571Y-106350295D01*
X114853229Y-106302209D01*
X114738714Y-106242325D01*
X114606376Y-106169738D01*
X114457849Y-106085510D01*
X114122117Y-105888386D01*
X113751293Y-105663463D01*
X113365154Y-105423256D01*
X112980471Y-105178108D01*
X112602128Y-104929622D01*
X112415940Y-104803939D01*
X112232065Y-104677194D01*
X112050745Y-104549311D01*
X111872223Y-104420216D01*
X111696977Y-104290123D01*
X111526401Y-104160388D01*
X111362110Y-104032649D01*
X111205718Y-103908545D01*
X111058838Y-103789715D01*
X110923085Y-103677797D01*
X110800073Y-103574430D01*
X110691416Y-103481255D01*
X110642910Y-103438949D01*
X110598191Y-103399496D01*
X110519267Y-103328739D01*
X110452949Y-103268159D01*
X110397542Y-103216930D01*
X110351352Y-103174227D01*
X110312683Y-103139227D01*
X110295640Y-103124357D01*
X110279842Y-103111103D01*
X110265077Y-103099362D01*
X110251133Y-103089031D01*
X110237783Y-103080050D01*
X110224717Y-103072540D01*
X110211599Y-103066668D01*
X110198096Y-103062599D01*
X110183872Y-103060500D01*
X110168594Y-103060539D01*
X110151926Y-103062881D01*
X110133536Y-103067694D01*
X110113087Y-103075144D01*
X110090246Y-103085397D01*
X110064679Y-103098620D01*
X110036050Y-103114980D01*
X110004026Y-103134644D01*
X109968272Y-103157777D01*
X109928453Y-103184547D01*
X109884236Y-103215120D01*
X109387775Y-103573587D01*
X109077215Y-103793860D01*
X108915350Y-103904740D01*
X108752522Y-104012489D01*
X108590679Y-104115003D01*
X108429296Y-104212582D01*
X108267234Y-104306116D01*
X108103354Y-104396494D01*
X107936516Y-104484605D01*
X107765582Y-104571338D01*
X107589411Y-104657581D01*
X107406866Y-104744225D01*
X107019193Y-104920917D01*
X106598705Y-105101841D01*
X106375258Y-105193616D01*
X106142532Y-105286117D01*
X105900167Y-105379236D01*
X105647804Y-105472862D01*
X105385446Y-105566760D01*
X105114533Y-105660153D01*
X104836866Y-105752126D01*
X104554245Y-105841762D01*
X104268469Y-105928145D01*
X103981339Y-106010358D01*
X103694655Y-106087486D01*
X103410216Y-106158611D01*
X103129198Y-106223007D01*
X102850306Y-106280671D01*
X102571631Y-106331778D01*
X102291266Y-106376500D01*
X102007303Y-106415013D01*
X101717834Y-106447488D01*
X101420952Y-106474102D01*
X101114748Y-106495026D01*
X100798051Y-106510407D01*
X100472645Y-106520280D01*
X100141055Y-106524657D01*
X99805807Y-106523551D01*
X99469425Y-106516974D01*
X99134435Y-106504937D01*
X98803362Y-106487453D01*
X98478730Y-106464535D01*
X98162419Y-106436136D01*
X97853703Y-106402028D01*
X97551200Y-106361962D01*
X97253528Y-106315688D01*
X96959306Y-106262957D01*
X96667153Y-106203519D01*
X96375688Y-106137125D01*
X96083528Y-106063526D01*
X95789721Y-105982618D01*
X95494970Y-105894912D01*
X95200378Y-105801080D01*
X94907050Y-105701796D01*
X94616086Y-105597730D01*
X94328592Y-105489556D01*
X94045670Y-105377946D01*
X93768423Y-105263573D01*
X93498034Y-105147220D01*
X93235961Y-105030072D01*
X92983720Y-104913396D01*
X92742827Y-104798460D01*
X92514798Y-104686531D01*
X92301149Y-104578876D01*
X91923058Y-104381458D01*
X91761194Y-104293989D01*
X91617136Y-104214391D01*
X91489794Y-104142439D01*
X91378080Y-104077908D01*
X91280907Y-104020574D01*
X91197186Y-103970211D01*
X91065746Y-103889500D01*
X91015752Y-103858720D01*
X90994059Y-103845658D01*
X90974297Y-103834134D01*
X90956261Y-103824134D01*
X90939749Y-103815647D01*
X90932000Y-103811968D01*
X90924556Y-103808663D01*
X90917391Y-103805730D01*
X90910479Y-103803169D01*
X90903795Y-103800977D01*
X90897313Y-103799153D01*
X90891009Y-103797696D01*
X90884856Y-103796604D01*
X90878829Y-103795876D01*
X90872903Y-103795511D01*
X90867051Y-103795506D01*
X90861250Y-103795861D01*
X90855472Y-103796574D01*
X90849693Y-103797643D01*
X90843888Y-103799068D01*
X90838030Y-103800846D01*
X90832094Y-103802976D01*
X90826055Y-103805458D01*
X90819887Y-103808288D01*
X90813565Y-103811466D01*
X90800392Y-103818851D01*
X90786494Y-103827569D01*
X90771863Y-103837580D01*
X90756490Y-103848843D01*
X90723480Y-103874961D01*
X90687389Y-103905595D01*
X90648144Y-103940419D01*
X90605671Y-103979104D01*
X90510741Y-104066750D01*
X90403219Y-104165798D01*
X90288668Y-104272910D01*
X90230892Y-104328387D01*
X90173921Y-104384556D01*
X90118608Y-104440978D01*
X90065808Y-104497211D01*
X90016084Y-104552926D01*
X89968822Y-104608231D01*
X89878004Y-104718484D01*
X89832611Y-104773871D01*
X89786004Y-104829723D01*
X89737262Y-104886259D01*
X89685469Y-104943699D01*
X89629843Y-105002225D01*
X89570128Y-105061932D01*
X89506193Y-105122903D01*
X89437904Y-105185221D01*
X89365131Y-105248967D01*
X89287740Y-105314226D01*
X89205600Y-105381078D01*
X89118578Y-105449608D01*
X88927427Y-105593687D01*
X88703494Y-105755229D01*
X88434017Y-105944570D01*
X88106237Y-106172047D01*
X87716255Y-106441092D01*
X87295735Y-106727403D01*
X86885272Y-106999715D01*
X86696495Y-107120850D01*
X86525455Y-107226761D01*
X86448011Y-107272904D01*
X86375957Y-107314489D01*
X86308988Y-107351744D01*
X86246798Y-107384898D01*
X86189082Y-107414179D01*
X86135536Y-107439817D01*
X86085853Y-107462040D01*
X86039728Y-107481078D01*
X85996856Y-107497157D01*
X85956932Y-107510509D01*
X85919650Y-107521360D01*
X85884705Y-107529940D01*
X85851793Y-107536478D01*
X85820606Y-107541202D01*
X85790841Y-107544341D01*
X85762192Y-107546123D01*
X85734402Y-107546748D01*
X85707402Y-107546288D01*
X85681169Y-107544794D01*
X85655680Y-107542315D01*
X85630912Y-107538900D01*
X85606841Y-107534598D01*
X85583445Y-107529458D01*
X85560700Y-107523530D01*
X85538583Y-107516862D01*
X85517072Y-107509505D01*
X85496143Y-107501506D01*
X85475773Y-107492916D01*
X85455940Y-107483783D01*
X85436619Y-107474157D01*
X85417788Y-107464086D01*
X85399424Y-107453621D01*
X85381511Y-107442803D01*
X85364051Y-107431646D01*
X85347044Y-107420155D01*
X85330490Y-107408338D01*
X85314391Y-107396199D01*
X85298745Y-107383746D01*
X85283555Y-107370985D01*
X85268819Y-107357922D01*
X85254540Y-107344563D01*
X85240718Y-107330915D01*
X85227352Y-107316983D01*
X85214444Y-107302775D01*
X85201994Y-107288296D01*
X85190002Y-107273553D01*
X85178469Y-107258551D01*
X85167397Y-107243298D01*
X85156786Y-107227790D01*
X85146639Y-107212003D01*
X85136952Y-107195908D01*
X85127722Y-107179473D01*
X85118948Y-107162667D01*
X85110625Y-107145461D01*
X85102751Y-107127823D01*
X85095324Y-107109723D01*
X85088340Y-107091130D01*
X85081798Y-107072013D01*
X85075693Y-107052343D01*
X85070023Y-107032088D01*
X85064786Y-107011218D01*
X85059979Y-106989702D01*
X85055598Y-106967510D01*
X85051641Y-106944611D01*
X85048100Y-106921007D01*
X85044950Y-106896834D01*
X85039729Y-106847411D01*
X85035783Y-106797614D01*
X85032919Y-106748714D01*
X85030941Y-106701984D01*
X85029656Y-106658694D01*
X85028385Y-106587524D01*
X85028446Y-106560840D01*
X85031016Y-106534596D01*
X85038496Y-106501974D01*
X85053285Y-106456159D01*
X85077784Y-106390332D01*
X85114393Y-106297677D01*
X85233540Y-106004616D01*
X85424504Y-105542495D01*
X85544773Y-105261071D01*
X85679335Y-104957034D01*
X85826514Y-104638604D01*
X85984636Y-104314004D01*
X86152027Y-103991454D01*
X86327014Y-103679176D01*
X86416783Y-103529313D01*
X86507540Y-103384221D01*
X86598799Y-103244042D01*
X86690073Y-103108919D01*
X86780877Y-102978994D01*
X86870725Y-102854409D01*
X87045604Y-102621827D01*
X87210824Y-102412313D01*
X87362493Y-102227002D01*
X87609625Y-101933546D01*
X87656911Y-101876880D01*
X87697705Y-101826015D01*
X87731823Y-101779849D01*
X87746320Y-101758183D01*
X87759079Y-101737277D01*
X87770075Y-101716995D01*
X87779287Y-101697197D01*
X87786691Y-101677746D01*
X87792264Y-101658505D01*
X87795982Y-101639334D01*
X87797823Y-101620097D01*
X87797763Y-101600655D01*
X87795780Y-101580871D01*
X87791849Y-101560606D01*
X87785949Y-101539722D01*
X87778055Y-101518082D01*
X87768145Y-101495548D01*
X87756196Y-101471981D01*
X87742184Y-101447245D01*
X87707880Y-101393709D01*
X87665048Y-101333837D01*
X87613502Y-101266526D01*
X87553059Y-101190673D01*
X87483532Y-101105173D01*
X87121262Y-100662520D01*
X86900285Y-100388161D01*
X86661165Y-100084568D01*
X86410216Y-99756331D01*
X86153752Y-99408041D01*
X85898087Y-99044288D01*
X85649536Y-98669662D01*
X85413275Y-98287780D01*
X85189942Y-97898407D01*
X84979039Y-97500360D01*
X84780069Y-97092455D01*
X84592534Y-96673511D01*
X84415935Y-96242342D01*
X84249776Y-95797766D01*
X84093558Y-95338600D01*
X83946984Y-94864450D01*
X83810477Y-94378078D01*
X83684624Y-93883032D01*
X83570012Y-93382861D01*
X83467230Y-92881113D01*
X83376864Y-92381337D01*
X83299502Y-91887079D01*
X83235732Y-91401890D01*
X83185923Y-90928665D01*
X83149529Y-90467636D01*
X83125757Y-90018353D01*
X83123304Y-89928372D01*
X83896103Y-89928372D01*
X83899500Y-90297285D01*
X83908702Y-90656240D01*
X83923634Y-91001810D01*
X83944219Y-91330568D01*
X83970300Y-91640022D01*
X84001437Y-91931491D01*
X84037136Y-92207263D01*
X84076900Y-92469623D01*
X84120232Y-92720860D01*
X84166637Y-92963260D01*
X84215619Y-93199111D01*
X84266680Y-93430698D01*
X84374666Y-93888661D01*
X84432817Y-94117370D01*
X84494695Y-94347302D01*
X84561014Y-94579511D01*
X84632491Y-94815053D01*
X84709842Y-95054981D01*
X84793780Y-95300350D01*
X84884812Y-95551787D01*
X84982654Y-95808181D01*
X85086833Y-96067983D01*
X85196876Y-96329639D01*
X85312311Y-96591600D01*
X85432663Y-96852313D01*
X85557461Y-97110227D01*
X85686232Y-97363791D01*
X85818622Y-97611772D01*
X85954772Y-97854250D01*
X86094948Y-98091641D01*
X86239414Y-98324364D01*
X86388436Y-98552835D01*
X86542278Y-98777472D01*
X86701207Y-98998690D01*
X86865488Y-99216907D01*
X87034732Y-99431972D01*
X87205932Y-99641526D01*
X87375425Y-99842675D01*
X87539545Y-100032521D01*
X87694630Y-100208169D01*
X87837015Y-100366721D01*
X88069030Y-100620956D01*
X88153384Y-100712607D01*
X88222680Y-100786201D01*
X88285546Y-100849496D01*
X88350611Y-100910246D01*
X88426503Y-100976209D01*
X88521849Y-101055140D01*
X88805419Y-101282930D01*
X89252353Y-101637535D01*
X89841548Y-102090205D01*
X90177252Y-102338642D01*
X90533830Y-102593990D01*
X90906386Y-102850379D01*
X91290022Y-103101942D01*
X91680525Y-103343763D01*
X92076354Y-103574694D01*
X92476624Y-103794509D01*
X92880449Y-104002980D01*
X93286945Y-104199882D01*
X93695225Y-104384986D01*
X94104405Y-104558066D01*
X94513598Y-104718895D01*
X94922152Y-104867329D01*
X95330347Y-105003534D01*
X95738697Y-105127758D01*
X96147714Y-105240246D01*
X96557913Y-105341244D01*
X96969806Y-105430998D01*
X97383908Y-105509754D01*
X97800731Y-105577759D01*
X98220421Y-105635197D01*
X98641733Y-105682037D01*
X99063087Y-105718194D01*
X99482905Y-105743589D01*
X99899610Y-105758138D01*
X100311622Y-105761759D01*
X100717364Y-105754370D01*
X101115257Y-105735889D01*
X101503774Y-105706469D01*
X101881613Y-105667175D01*
X102247538Y-105619294D01*
X102600310Y-105564113D01*
X102938694Y-105502919D01*
X103261452Y-105436997D01*
X103567347Y-105367637D01*
X103855141Y-105296123D01*
X104124662Y-105223260D01*
X104380017Y-105147878D01*
X104626393Y-105068312D01*
X104868978Y-104982894D01*
X105112959Y-104889960D01*
X105363522Y-104787843D01*
X105625856Y-104674877D01*
X105905146Y-104549396D01*
X106205037Y-104410181D01*
X106522968Y-104257764D01*
X106854823Y-104093109D01*
X107196485Y-103917180D01*
X107543839Y-103730943D01*
X107892768Y-103535362D01*
X108239155Y-103331402D01*
X108578884Y-103120028D01*
X108908542Y-102902137D01*
X109227497Y-102678422D01*
X109535811Y-102449535D01*
X109833542Y-102216129D01*
X110120749Y-101978857D01*
X110397493Y-101738372D01*
X110663832Y-101495327D01*
X110919827Y-101250376D01*
X111165466Y-101004356D01*
X111400485Y-100758845D01*
X111624558Y-100515604D01*
X111837359Y-100276398D01*
X112038563Y-100042991D01*
X112227844Y-99817145D01*
X112404878Y-99600624D01*
X112569338Y-99395191D01*
X112721345Y-99201773D01*
X112862752Y-99017937D01*
X112995841Y-98840417D01*
X113122891Y-98665948D01*
X113246182Y-98491264D01*
X113367995Y-98313099D01*
X113490610Y-98128188D01*
X113616306Y-97933266D01*
X113746652Y-97726060D01*
X113880393Y-97508358D01*
X114015574Y-97282979D01*
X114150241Y-97052741D01*
X114282438Y-96820463D01*
X114410211Y-96588963D01*
X114531604Y-96361061D01*
X114644663Y-96139576D01*
X114747900Y-95926846D01*
X114841741Y-95723262D01*
X114927097Y-95528710D01*
X115004882Y-95343078D01*
X115076010Y-95166250D01*
X115141394Y-94998115D01*
X115258581Y-94687468D01*
X115363189Y-94406659D01*
X115459663Y-94136621D01*
X115506049Y-93998517D01*
X115551842Y-93854557D01*
X115597520Y-93701890D01*
X115643564Y-93537668D01*
X115690258Y-93359951D01*
X115737122Y-93170420D01*
X115783491Y-92971652D01*
X115828699Y-92766226D01*
X115872082Y-92556719D01*
X115912975Y-92345710D01*
X115950712Y-92135777D01*
X115984629Y-91929497D01*
X116014214Y-91728831D01*
X116039612Y-91533291D01*
X116061144Y-91341774D01*
X116079133Y-91153183D01*
X116093900Y-90966417D01*
X116105767Y-90780378D01*
X116115056Y-90593964D01*
X116122088Y-90406076D01*
X116130138Y-90022473D01*
X116129801Y-89625939D01*
X116126288Y-89422031D01*
X116120441Y-89213942D01*
X116112181Y-89001355D01*
X116101427Y-88783953D01*
X116088117Y-88561756D01*
X116072199Y-88336180D01*
X116053611Y-88108997D01*
X116032293Y-87881977D01*
X116008183Y-87656889D01*
X115981220Y-87435505D01*
X115951342Y-87219596D01*
X115918490Y-87010931D01*
X115882690Y-86810835D01*
X115844261Y-86618787D01*
X115803579Y-86433787D01*
X115761019Y-86254835D01*
X115716955Y-86080930D01*
X115671763Y-85911072D01*
X115579493Y-85579494D01*
X115485818Y-85251963D01*
X115386944Y-84919859D01*
X115277761Y-84574441D01*
X115217708Y-84394007D01*
X115153162Y-84206967D01*
X115083256Y-84012141D01*
X115006236Y-83808028D01*
X114920134Y-83593053D01*
X114822980Y-83365641D01*
X114712807Y-83124216D01*
X114587646Y-82867203D01*
X114445528Y-82593025D01*
X114284483Y-82300107D01*
X114103472Y-81988032D01*
X113905188Y-81660967D01*
X113693270Y-81324212D01*
X113471352Y-80983068D01*
X113243073Y-80642837D01*
X113012067Y-80308819D01*
X112781972Y-79986316D01*
X112556423Y-79680629D01*
X112338719Y-79396211D01*
X112130798Y-79134095D01*
X111934261Y-78894455D01*
X111750702Y-78677460D01*
X111581721Y-78483285D01*
X111428914Y-78312099D01*
X111178213Y-78039386D01*
X111082851Y-77937725D01*
X111042277Y-77894874D01*
X111006034Y-77856900D01*
X110973818Y-77823470D01*
X110945322Y-77794251D01*
X110920242Y-77768913D01*
X110898272Y-77747121D01*
X110879108Y-77728544D01*
X110862444Y-77712850D01*
X110847975Y-77699705D01*
X110835396Y-77688778D01*
X110824401Y-77679736D01*
X110814687Y-77672247D01*
X110805946Y-77665978D01*
X110797875Y-77660597D01*
X110790098Y-77655962D01*
X110781977Y-77652698D01*
X110772809Y-77651628D01*
X110761891Y-77653572D01*
X110748522Y-77659351D01*
X110731998Y-77669787D01*
X110711618Y-77685701D01*
X110686678Y-77707915D01*
X110656477Y-77737249D01*
X110620312Y-77774525D01*
X110527279Y-77876188D01*
X110401960Y-78019473D01*
X110238735Y-78210951D01*
X109797901Y-78738199D01*
X109268886Y-79377439D01*
X108290016Y-80563263D01*
X108200897Y-80670935D01*
X108121677Y-80766930D01*
X107990374Y-80926364D01*
X107937014Y-80991042D01*
X107890998Y-81046518D01*
X107851686Y-81093413D01*
X107818439Y-81132346D01*
X107803891Y-81149019D01*
X107790620Y-81163934D01*
X107778546Y-81177168D01*
X107767589Y-81188798D01*
X107757669Y-81198902D01*
X107748707Y-81207557D01*
X107740623Y-81214841D01*
X107733336Y-81220830D01*
X107726768Y-81225602D01*
X107720838Y-81229235D01*
X107715466Y-81231806D01*
X107712964Y-81232717D01*
X107710572Y-81233392D01*
X107708280Y-81233840D01*
X107706078Y-81234071D01*
X107703955Y-81234095D01*
X107701902Y-81233920D01*
X107697965Y-81233017D01*
X107694187Y-81231439D01*
X107465941Y-81111404D01*
X107239144Y-80984437D01*
X107015625Y-80852416D01*
X106797208Y-80717221D01*
X106585721Y-80580730D01*
X106382989Y-80444824D01*
X106190840Y-80311380D01*
X106011099Y-80182279D01*
X105845593Y-80059399D01*
X105696148Y-79944619D01*
X105564591Y-79839820D01*
X105452747Y-79746878D01*
X105362444Y-79667675D01*
X105295508Y-79604089D01*
X105253765Y-79557999D01*
X105242911Y-79542102D01*
X105239041Y-79531284D01*
X105238745Y-79514506D01*
X105239094Y-79496983D01*
X105240114Y-79478727D01*
X105241832Y-79459748D01*
X105244277Y-79440059D01*
X105247474Y-79419670D01*
X105251452Y-79398595D01*
X105256238Y-79376843D01*
X105261859Y-79354427D01*
X105268343Y-79331359D01*
X105275717Y-79307649D01*
X105284008Y-79283309D01*
X105293243Y-79258351D01*
X105303451Y-79232787D01*
X105314658Y-79206627D01*
X105326891Y-79179884D01*
X105354547Y-79124684D01*
X105386553Y-79067218D01*
X105423001Y-79007510D01*
X105463988Y-78945578D01*
X105509605Y-78881445D01*
X105559949Y-78815130D01*
X105615112Y-78746655D01*
X105675190Y-78676039D01*
X105740499Y-78602881D01*
X105812286Y-78525065D01*
X105981235Y-78345269D01*
X106193919Y-78116272D01*
X106320375Y-77976954D01*
X106462221Y-77817694D01*
X106788976Y-77441232D01*
X107141067Y-77026919D01*
X107476455Y-76626880D01*
X107753100Y-76293239D01*
X107857535Y-76165886D01*
X107901079Y-76112155D01*
X107939258Y-76064442D01*
X107972387Y-76022288D01*
X108000778Y-75985233D01*
X108024746Y-75952818D01*
X108044603Y-75924583D01*
X108053089Y-75911889D01*
X108060664Y-75900068D01*
X108067369Y-75889063D01*
X108073242Y-75878815D01*
X108078323Y-75869267D01*
X108082651Y-75860363D01*
X108086265Y-75852044D01*
X108089204Y-75844253D01*
X108091508Y-75836933D01*
X108093215Y-75830026D01*
X108094365Y-75823475D01*
X108094997Y-75817222D01*
X108095151Y-75811210D01*
X108094865Y-75805381D01*
X108094178Y-75799679D01*
X108093130Y-75794045D01*
X108090055Y-75782823D01*
X108085687Y-75771611D01*
X108080025Y-75760378D01*
X108073066Y-75749092D01*
X108064807Y-75737723D01*
X108055246Y-75726238D01*
X108044380Y-75714607D01*
X108032206Y-75702799D01*
X108018723Y-75690782D01*
X108003928Y-75678525D01*
X107987818Y-75665997D01*
X107970390Y-75653166D01*
X107951643Y-75640001D01*
X107931573Y-75626471D01*
X107887457Y-75598191D01*
X107838032Y-75568128D01*
X107783242Y-75536294D01*
X107723004Y-75502747D01*
X107657232Y-75467546D01*
X107585841Y-75430750D01*
X107508746Y-75392419D01*
X107425861Y-75352612D01*
X107337103Y-75311387D01*
X107141745Y-75224657D01*
X106922251Y-75131161D01*
X106408995Y-74918133D01*
X106113055Y-74796448D01*
X105783807Y-74666384D01*
X105604288Y-74599025D01*
X105413557Y-74530549D01*
X105210652Y-74461282D01*
X104994612Y-74391551D01*
X104765061Y-74321686D01*
X104523969Y-74252097D01*
X104017386Y-74115503D01*
X103495313Y-73985287D01*
X102978197Y-73864968D01*
X102727026Y-73809611D01*
X102479576Y-73757959D01*
X102233215Y-73710348D01*
X101985311Y-73667110D01*
X101733231Y-73628579D01*
X101474342Y-73595091D01*
X101206012Y-73566978D01*
X100925610Y-73544574D01*
X100631495Y-73528058D01*
X100326175Y-73517168D01*
X100013227Y-73511583D01*
X99696226Y-73510984D01*
X99696182Y-73510980D01*
X99378686Y-73515034D01*
X99064224Y-73523285D01*
X98756328Y-73535330D01*
X98458532Y-73550771D01*
X98173524Y-73569361D01*
X97900551Y-73591393D01*
X97637982Y-73617289D01*
X97384182Y-73647470D01*
X97137520Y-73682359D01*
X96896363Y-73722377D01*
X96659077Y-73767946D01*
X96424031Y-73819489D01*
X96189728Y-73877340D01*
X95955160Y-73941446D01*
X95719427Y-74011645D01*
X95481632Y-74087776D01*
X95240875Y-74169677D01*
X94996258Y-74257188D01*
X94746882Y-74350146D01*
X94491849Y-74448391D01*
X93964972Y-74659679D01*
X93696504Y-74771740D01*
X93427249Y-74887371D01*
X93159132Y-75006039D01*
X92894080Y-75127212D01*
X92634017Y-75250360D01*
X92380867Y-75374949D01*
X92136575Y-75500241D01*
X91903134Y-75624719D01*
X91682546Y-75746679D01*
X91476812Y-75864420D01*
X91287935Y-75976239D01*
X91117916Y-76080432D01*
X90968757Y-76175298D01*
X90842460Y-76259133D01*
X90788416Y-76296447D01*
X90740259Y-76330771D01*
X90697653Y-76362308D01*
X90660260Y-76391260D01*
X90643414Y-76404829D01*
X90627745Y-76417828D01*
X90613211Y-76430281D01*
X90599770Y-76442214D01*
X90587381Y-76453652D01*
X90576000Y-76464621D01*
X90565586Y-76475145D01*
X90556097Y-76485250D01*
X90547491Y-76494962D01*
X90539725Y-76504304D01*
X90532758Y-76513303D01*
X90526547Y-76521984D01*
X90521051Y-76530372D01*
X90516227Y-76538493D01*
X90512034Y-76546371D01*
X90508428Y-76554032D01*
X90505369Y-76561501D01*
X90502814Y-76568803D01*
X90500720Y-76575964D01*
X90499047Y-76583009D01*
X90497752Y-76589963D01*
X90496792Y-76596852D01*
X90495711Y-76610532D01*
X90495632Y-76624342D01*
X90497058Y-76638916D01*
X90500657Y-76654977D01*
X90507098Y-76673243D01*
X90517051Y-76694435D01*
X90531185Y-76719275D01*
X90550169Y-76748482D01*
X90574672Y-76782777D01*
X90605364Y-76822881D01*
X90642913Y-76869513D01*
X90741259Y-76985248D01*
X90875064Y-77135745D01*
X91049682Y-77326768D01*
X92082109Y-78427871D01*
X92642591Y-79027366D01*
X93108471Y-79537485D01*
X93199595Y-79640687D01*
X93279605Y-79733328D01*
X93349117Y-79816157D01*
X93380129Y-79854126D01*
X93408748Y-79889924D01*
X93435051Y-79923643D01*
X93459115Y-79955377D01*
X93481017Y-79985221D01*
X93500835Y-80013267D01*
X93518646Y-80039610D01*
X93534526Y-80064344D01*
X93548553Y-80087561D01*
X93560804Y-80109355D01*
X93571356Y-80129821D01*
X93580286Y-80149052D01*
X93587672Y-80167141D01*
X93593590Y-80184182D01*
X93598117Y-80200270D01*
X93601332Y-80215497D01*
X93603310Y-80229957D01*
X93604129Y-80243744D01*
X93603866Y-80256952D01*
X93602598Y-80269674D01*
X93600403Y-80282004D01*
X93597357Y-80294036D01*
X93593537Y-80305863D01*
X93589022Y-80317580D01*
X93583887Y-80329279D01*
X93578210Y-80341054D01*
X93487276Y-80471176D01*
X93286013Y-80736305D01*
X92697483Y-81488743D01*
X92102573Y-82232676D01*
X91893337Y-82487175D01*
X91791239Y-82602414D01*
X91773211Y-82616516D01*
X91754982Y-82627909D01*
X91735664Y-82635789D01*
X91714369Y-82639347D01*
X91690209Y-82637779D01*
X91662298Y-82630278D01*
X91629745Y-82616037D01*
X91591665Y-82594251D01*
X91547169Y-82564112D01*
X91495369Y-82524814D01*
X91435377Y-82475552D01*
X91366306Y-82415518D01*
X91287267Y-82343907D01*
X91197374Y-82259912D01*
X90981469Y-82051544D01*
X88480847Y-79529734D01*
X88423016Y-79472810D01*
X88368511Y-79419505D01*
X88317223Y-79369709D01*
X88269044Y-79323310D01*
X88223866Y-79280198D01*
X88181581Y-79240262D01*
X88142081Y-79203393D01*
X88105258Y-79169479D01*
X88071004Y-79138409D01*
X88039210Y-79110073D01*
X88009768Y-79084361D01*
X87982571Y-79061162D01*
X87957510Y-79040366D01*
X87934476Y-79021861D01*
X87913363Y-79005537D01*
X87894062Y-78991283D01*
X87876464Y-78978990D01*
X87860462Y-78968546D01*
X87845947Y-78959840D01*
X87832812Y-78952763D01*
X87820948Y-78947204D01*
X87815459Y-78944958D01*
X87810247Y-78943051D01*
X87805299Y-78941468D01*
X87800601Y-78940195D01*
X87796140Y-78939218D01*
X87791902Y-78938525D01*
X87787873Y-78938099D01*
X87784041Y-78937929D01*
X87780392Y-78938000D01*
X87776912Y-78938299D01*
X87773587Y-78938811D01*
X87770404Y-78939522D01*
X87764412Y-78941489D01*
X87758825Y-78944089D01*
X87753537Y-78947211D01*
X87748439Y-78950745D01*
X87743422Y-78954579D01*
X87722926Y-78972136D01*
X87700629Y-78994167D01*
X87675183Y-79022089D01*
X87645240Y-79057325D01*
X87609451Y-79101292D01*
X87566466Y-79155410D01*
X87453515Y-79299778D01*
X87299304Y-79498378D01*
X87111410Y-79745417D01*
X87008334Y-79884208D01*
X86901040Y-80031636D01*
X86790929Y-80186544D01*
X86679403Y-80347775D01*
X86567653Y-80514359D01*
X86455994Y-80686077D01*
X86344510Y-80862901D01*
X86233285Y-81044803D01*
X86122402Y-81231754D01*
X86011943Y-81423726D01*
X85901993Y-81620692D01*
X85792635Y-81822621D01*
X85683980Y-82029469D01*
X85576267Y-82241118D01*
X85469762Y-82457437D01*
X85364736Y-82678292D01*
X85261456Y-82903550D01*
X85160190Y-83133081D01*
X85061208Y-83366749D01*
X84964778Y-83604424D01*
X84871148Y-83846135D01*
X84780519Y-84092589D01*
X84693093Y-84344674D01*
X84609072Y-84603275D01*
X84528658Y-84869279D01*
X84452052Y-85143573D01*
X84379456Y-85427042D01*
X84311072Y-85720574D01*
X84247116Y-86024826D01*
X84187817Y-86339550D01*
X84133394Y-86664281D01*
X84084067Y-86998551D01*
X84040054Y-87341895D01*
X84001576Y-87693845D01*
X83968852Y-88053936D01*
X83942102Y-88421701D01*
X83921512Y-88796167D01*
X83907033Y-89174386D01*
X83898589Y-89552930D01*
X83896103Y-89928372D01*
X83123304Y-89928372D01*
X83113818Y-89580364D01*
X83112919Y-89153219D01*
X83122269Y-88736466D01*
X83141077Y-88329655D01*
X83168552Y-87932333D01*
X83204005Y-87544053D01*
X83247141Y-87164379D01*
X83297767Y-86792874D01*
X83355686Y-86429100D01*
X83420702Y-86072621D01*
X83492619Y-85723000D01*
X83571243Y-85379800D01*
X83656378Y-85042583D01*
X83747872Y-84710886D01*
X83845807Y-84384168D01*
X83950336Y-84061887D01*
X84061612Y-83743499D01*
X84179789Y-83428463D01*
X84305019Y-83116236D01*
X84437456Y-82806275D01*
X84577252Y-82498036D01*
X84724290Y-82191399D01*
X84877398Y-81887845D01*
X85035142Y-81589237D01*
X85196093Y-81297441D01*
X85358818Y-81014319D01*
X85521885Y-80741736D01*
X85683864Y-80481556D01*
X85843322Y-80235642D01*
X85998862Y-80005616D01*
X86149181Y-79792052D01*
X86292995Y-79595245D01*
X86429024Y-79415493D01*
X86555983Y-79253090D01*
X86672590Y-79108333D01*
X86777563Y-78981516D01*
X86869618Y-78872935D01*
X86947734Y-78782296D01*
X87011938Y-78706974D01*
X87038917Y-78674058D01*
X87062530Y-78643770D01*
X87082814Y-78615712D01*
X87091721Y-78602394D01*
X87099809Y-78589483D01*
X87107084Y-78576930D01*
X87113550Y-78564684D01*
X87119212Y-78552695D01*
X87124075Y-78540914D01*
X87128144Y-78529290D01*
X87131423Y-78517773D01*
X87133916Y-78506314D01*
X87135630Y-78494862D01*
X87136567Y-78483368D01*
X87136733Y-78471780D01*
X87136133Y-78460051D01*
X87134772Y-78448128D01*
X87132653Y-78435963D01*
X87129782Y-78423505D01*
X87126163Y-78410705D01*
X87121801Y-78397511D01*
X87110885Y-78369869D01*
X87097166Y-78340806D01*
X87080798Y-78310679D01*
X87061935Y-78279847D01*
X87040731Y-78248668D01*
X87017340Y-78217499D01*
X86991917Y-78186698D01*
X86964614Y-78156624D01*
X86935586Y-78127634D01*
X86904987Y-78100087D01*
X86872970Y-78074340D01*
X86839691Y-78050750D01*
X86805302Y-78029677D01*
X86787740Y-78020196D01*
X86769958Y-78011478D01*
X86751976Y-78003568D01*
X86733813Y-77996511D01*
X86715488Y-77990351D01*
X86697021Y-77985134D01*
X86659700Y-77977593D01*
X86621835Y-77973694D01*
X86583377Y-77973136D01*
X86544276Y-77975616D01*
X86504484Y-77980833D01*
X86463951Y-77988484D01*
X86422630Y-77998266D01*
X86380470Y-78009879D01*
X86007141Y-78132411D01*
X85955265Y-78146935D01*
X85902254Y-78160469D01*
X85848247Y-78172908D01*
X85793386Y-78184147D01*
X85737813Y-78194081D01*
X85681668Y-78202605D01*
X85625092Y-78209614D01*
X85568228Y-78215003D01*
X85511216Y-78218667D01*
X85454197Y-78220501D01*
X85397313Y-78220400D01*
X85340704Y-78218258D01*
X85284513Y-78213971D01*
X85228880Y-78207434D01*
X85173947Y-78198541D01*
X85119854Y-78187189D01*
X85066731Y-78173301D01*
X85014648Y-78156927D01*
X84963660Y-78138147D01*
X84913825Y-78117043D01*
X84865196Y-78093694D01*
X84817830Y-78068182D01*
X84771782Y-78040586D01*
X84727108Y-78010988D01*
X84683863Y-77979467D01*
X84642104Y-77946104D01*
X84601884Y-77910981D01*
X84563261Y-77874177D01*
X84526289Y-77835773D01*
X84491025Y-77795849D01*
X84457523Y-77754486D01*
X84425840Y-77711765D01*
X84396023Y-77667754D01*
X84368083Y-77622473D01*
X84342018Y-77575937D01*
X84317829Y-77528156D01*
X84295515Y-77479144D01*
X84275075Y-77428912D01*
X84256510Y-77377473D01*
X84239817Y-77324839D01*
X84224998Y-77271021D01*
X84212051Y-77216033D01*
X84200976Y-77159887D01*
X84191772Y-77102594D01*
X84184439Y-77044167D01*
X84178977Y-76984618D01*
X84175384Y-76923960D01*
X84173661Y-76862205D01*
X84173828Y-76799351D01*
X84175992Y-76735336D01*
X84180285Y-76670080D01*
X84186835Y-76603501D01*
X84195774Y-76535520D01*
X84207230Y-76466056D01*
X84221334Y-76395027D01*
X84238217Y-76322354D01*
X84258007Y-76247956D01*
X84280835Y-76171752D01*
X84306832Y-76093662D01*
X84336126Y-76013605D01*
X84368849Y-75931501D01*
X84405129Y-75847268D01*
X84445098Y-75760827D01*
X84488885Y-75672097D01*
X84536567Y-75581061D01*
X84588016Y-75487954D01*
X84643052Y-75393070D01*
X84701496Y-75296707D01*
X84827894Y-75100726D01*
X84965778Y-74902377D01*
X85113717Y-74704028D01*
X85270279Y-74508047D01*
X85351347Y-74411684D01*
X85434033Y-74316802D01*
X85518160Y-74223695D01*
X85603548Y-74132660D01*
X85690019Y-74043952D01*
X85777405Y-73957654D01*
X85865541Y-73873801D01*
X85954260Y-73792431D01*
X86043396Y-73713578D01*
X86132784Y-73637279D01*
X86222257Y-73563569D01*
X86311649Y-73492486D01*
X86400795Y-73424063D01*
X86489529Y-73358339D01*
X86665095Y-73235125D01*
X86837020Y-73123133D01*
X87003977Y-73022650D01*
X87085206Y-72976795D01*
X87164881Y-72933815D01*
X87243025Y-72893636D01*
X87319665Y-72856187D01*
X87394824Y-72821394D01*
X87468529Y-72789185D01*
X87540803Y-72759487D01*
X87611672Y-72732228D01*
X87681161Y-72707334D01*
X87749296Y-72684734D01*
X87816099Y-72664354D01*
X87881598Y-72646122D01*
X87945817Y-72629965D01*
X88008780Y-72615811D01*
X88070514Y-72603586D01*
X88131042Y-72593219D01*
X88190386Y-72584638D01*
X88248546Y-72577789D01*
X88305515Y-72572622D01*
X88361286Y-72569085D01*
X88415853Y-72567130D01*
X88469208Y-72566705D01*
X88521344Y-72567760D01*
X88572256Y-72570246D01*
X88621935Y-72574111D01*
X88670375Y-72579307D01*
X88717569Y-72585782D01*
X88763510Y-72593486D01*
X88808192Y-72602370D01*
X88851607Y-72612383D01*
X88893749Y-72623474D01*
X88934610Y-72635594D01*
X88974197Y-72648705D01*
X89012547Y-72662800D01*
X89049703Y-72677870D01*
X89085709Y-72693910D01*
X89120607Y-72710913D01*
X89154440Y-72728873D01*
X89187251Y-72747781D01*
X89219082Y-72767633D01*
X89249978Y-72788422D01*
X89279979Y-72810140D01*
X89309130Y-72832782D01*
X89337473Y-72856339D01*
X89365051Y-72880807D01*
X89391907Y-72906179D01*
X89418083Y-72932447D01*
X89443623Y-72959605D01*
X89468557Y-72987641D01*
X89492872Y-73016536D01*
X89516544Y-73046273D01*
X89539548Y-73076835D01*
X89561860Y-73108205D01*
X89583457Y-73140365D01*
X89604313Y-73173299D01*
X89624405Y-73206989D01*
X89643709Y-73241419D01*
X89662199Y-73276570D01*
X89679853Y-73312427D01*
X89696645Y-73348972D01*
X89712551Y-73386188D01*
X89727548Y-73424058D01*
X89741611Y-73462564D01*
X89754715Y-73501691D01*
X89766844Y-73541399D01*
X89778016Y-73581585D01*
X89788262Y-73622131D01*
X89797614Y-73662919D01*
X89813756Y-73744754D01*
X89826691Y-73826149D01*
X89836670Y-73906164D01*
X89843940Y-73983859D01*
X89848750Y-74058293D01*
X89851350Y-74128526D01*
X89851962Y-74193920D01*
X89850671Y-74254987D01*
X89847519Y-74312512D01*
X89842551Y-74367280D01*
X89835807Y-74420077D01*
X89827332Y-74471689D01*
X89817168Y-74522899D01*
X89805358Y-74574493D01*
X89791961Y-74627070D01*
X89777076Y-74680439D01*
X89760805Y-74734204D01*
X89743248Y-74787971D01*
X89724510Y-74841344D01*
X89704690Y-74893927D01*
X89683891Y-74945324D01*
X89662214Y-74995139D01*
X89639853Y-75043056D01*
X89617428Y-75089051D01*
X89595682Y-75133174D01*
X89575361Y-75175474D01*
X89557209Y-75215999D01*
X89549178Y-75235612D01*
X89541969Y-75254799D01*
X89535674Y-75273568D01*
X89530386Y-75291923D01*
X89526199Y-75309871D01*
X89523205Y-75327419D01*
X89522181Y-75336045D01*
X89521471Y-75344574D01*
X89521068Y-75353011D01*
X89520965Y-75361355D01*
X89521629Y-75377779D01*
X89523409Y-75393865D01*
X89526250Y-75409632D01*
X89530095Y-75425096D01*
X89534889Y-75440278D01*
X89540576Y-75455194D01*
X89547101Y-75469865D01*
X89554409Y-75484307D01*
X89562443Y-75498539D01*
X89571149Y-75512580D01*
X89580470Y-75526448D01*
X89590351Y-75540161D01*
X89600737Y-75553738D01*
X89611571Y-75567197D01*
X89622805Y-75580557D01*
X89634409Y-75593831D01*
X89658630Y-75620171D01*
X89684034Y-75646315D01*
X89710424Y-75672360D01*
X89737604Y-75698406D01*
X89765374Y-75724549D01*
X89821894Y-75777521D01*
X89850644Y-75804093D01*
X89865675Y-75816723D01*
X89881487Y-75828488D01*
X89898339Y-75839069D01*
X89916487Y-75848146D01*
X89936189Y-75855398D01*
X89946704Y-75858240D01*
X89957705Y-75860506D01*
X89969222Y-75862156D01*
X89981290Y-75863150D01*
X89993940Y-75863448D01*
X90007203Y-75863009D01*
X90021113Y-75861795D01*
X90035702Y-75859765D01*
X90051002Y-75856878D01*
X90067045Y-75853096D01*
X90083863Y-75848377D01*
X90101488Y-75842682D01*
X90119954Y-75835971D01*
X90139291Y-75828205D01*
X90180710Y-75809343D01*
X90226004Y-75785777D01*
X91491560Y-74927431D01*
X91718123Y-74789739D01*
X91959475Y-74651487D01*
X92215812Y-74513254D01*
X92487332Y-74375623D01*
X92774229Y-74239175D01*
X93076700Y-74104492D01*
X93394942Y-73972154D01*
X93729149Y-73842743D01*
X94079076Y-73716900D01*
X94442632Y-73595476D01*
X94817245Y-73479362D01*
X95200344Y-73369453D01*
X95589357Y-73266641D01*
X95981714Y-73171819D01*
X96374844Y-73085881D01*
X96766174Y-73009719D01*
X97153943Y-72944041D01*
X97539659Y-72888858D01*
X97925650Y-72844024D01*
X98314242Y-72809392D01*
X98707764Y-72784814D01*
X99108541Y-72770145D01*
X99518902Y-72765237D01*
X99941174Y-72769944D01*
X100376517Y-72784092D01*
X100821447Y-72807376D01*
X101271323Y-72839443D01*
X101721503Y-72879945D01*
X102167345Y-72928530D01*
X102604209Y-72984847D01*
X103027452Y-73048546D01*
X103432432Y-73119277D01*
X103815548Y-73196616D01*
X104177310Y-73279854D01*
X104519251Y-73368206D01*
X104842902Y-73460890D01*
X105149796Y-73557123D01*
X105441464Y-73656122D01*
X105719437Y-73757103D01*
X105985249Y-73859283D01*
X106240071Y-73961857D01*
X106483661Y-74063981D01*
X106715425Y-74164821D01*
X106934771Y-74263539D01*
X107141106Y-74359300D01*
X107333834Y-74451267D01*
X107676102Y-74620477D01*
X108186498Y-74881228D01*
X108281925Y-74927684D01*
X108366169Y-74965861D01*
X108404360Y-74981722D01*
X108440071Y-74995365D01*
X108473408Y-75006741D01*
X108504475Y-75015802D01*
X108519191Y-75019451D01*
X108533390Y-75022517D01*
X108547097Y-75025006D01*
X108560337Y-75026923D01*
X108573136Y-75028276D01*
X108585520Y-75029069D01*
X108597513Y-75029309D01*
X108609142Y-75029002D01*
X108620431Y-75028154D01*
X108631407Y-75026771D01*
X108642094Y-75024859D01*
X108652519Y-75022424D01*
X108662706Y-75019472D01*
X108672681Y-75016010D01*
X108682470Y-75012042D01*
X108692098Y-75007575D01*
X108701590Y-75002616D01*
X108710972Y-74997169D01*
X108720270Y-74991242D01*
X108729508Y-74984840D01*
X108738713Y-74977969D01*
X108747909Y-74970636D01*
X108766379Y-74954605D01*
X108785122Y-74936795D01*
X108804341Y-74917254D01*
X108824240Y-74896032D01*
X108845022Y-74873175D01*
X108889488Y-74822955D01*
X108936568Y-74767950D01*
X108984535Y-74709688D01*
X109031665Y-74649700D01*
X109076232Y-74589515D01*
X109097015Y-74559827D01*
X109116511Y-74530663D01*
X109134503Y-74502214D01*
X109150776Y-74474672D01*
X109165114Y-74448228D01*
X109177302Y-74423073D01*
X109187174Y-74399327D01*
X109191249Y-74387938D01*
X109194760Y-74376838D01*
X109197719Y-74365998D01*
X109200133Y-74355393D01*
X109202012Y-74344994D01*
X109203365Y-74334776D01*
X109204202Y-74324711D01*
X109204531Y-74314772D01*
X109204361Y-74304933D01*
X109203702Y-74295167D01*
X109202563Y-74285446D01*
X109200953Y-74275745D01*
X109196356Y-74256292D01*
X109189985Y-74236592D01*
X109181913Y-74216431D01*
X109172213Y-74195594D01*
X109160958Y-74173865D01*
X109148222Y-74151031D01*
X109134077Y-74126875D01*
X109101855Y-74073740D01*
X109024923Y-73945210D01*
X108982968Y-73870535D01*
X108940609Y-73789648D01*
X108899284Y-73703092D01*
X108879460Y-73657859D01*
X108860435Y-73611414D01*
X108842389Y-73563823D01*
X108825502Y-73515157D01*
X108809954Y-73465482D01*
X108795925Y-73414866D01*
X108783560Y-73363385D01*
X108772862Y-73311134D01*
X108763810Y-73258213D01*
X108756379Y-73204720D01*
X108750546Y-73150755D01*
X108746287Y-73096419D01*
X108743578Y-73041809D01*
X108742396Y-72987026D01*
X108742718Y-72932169D01*
X108744519Y-72877338D01*
X108747776Y-72822631D01*
X108752466Y-72768149D01*
X108758564Y-72713991D01*
X108766048Y-72660256D01*
X108774893Y-72607044D01*
X108785076Y-72554454D01*
X108796579Y-72502577D01*
X108809415Y-72451470D01*
X108823610Y-72401184D01*
X108839192Y-72351768D01*
X108856185Y-72303273D01*
X108874616Y-72255748D01*
X108894511Y-72209245D01*
X108915895Y-72163813D01*
X108938795Y-72119502D01*
X108963236Y-72076362D01*
X108989245Y-72034444D01*
X109016848Y-71993798D01*
X109046069Y-71954474D01*
X109076937Y-71916523D01*
X109109475Y-71879993D01*
X109143711Y-71844936D01*
X109179645Y-71811394D01*
X109217169Y-71779374D01*
X109256143Y-71748873D01*
X109296428Y-71719889D01*
X109337886Y-71692419D01*
X109380377Y-71666460D01*
X109423762Y-71642009D01*
X109467902Y-71619065D01*
X109512659Y-71597624D01*
X109557892Y-71577683D01*
X109603464Y-71559240D01*
X109649234Y-71542293D01*
X109695064Y-71526838D01*
X109740816Y-71512873D01*
X109786349Y-71500395D01*
X109831524Y-71489402D01*
X109876244Y-71479889D01*
X109920578Y-71471851D01*
X109964643Y-71465272D01*
X110008555Y-71460138D01*
X110052430Y-71456433D01*
X110096383Y-71454143D01*
X110140532Y-71453252D01*
X110184992Y-71453746D01*
G36*
X110184992Y-71453746D02*
G01*
X110184971Y-71453742D01*
X110229854Y-71455618D01*
X110275267Y-71458871D01*
X110321325Y-71463487D01*
X110368143Y-71469448D01*
X110415836Y-71476741D01*
X110464518Y-71485348D01*
X110514304Y-71495256D01*
X110565310Y-71506447D01*
X110671034Y-71532533D01*
X110780579Y-71562983D01*
X110892424Y-71597066D01*
X111005050Y-71634050D01*
X111116936Y-71673203D01*
X111226562Y-71713792D01*
X111332409Y-71755086D01*
X111432957Y-71796352D01*
X111527048Y-71836975D01*
X111614965Y-71876898D01*
X111697354Y-71916223D01*
X111774858Y-71955052D01*
X111848125Y-71993486D01*
X111917797Y-72031629D01*
X111984521Y-72069581D01*
X112048941Y-72107444D01*
X112111816Y-72145476D01*
X112174388Y-72184578D01*
X112238024Y-72225824D01*
X112304089Y-72270285D01*
X112373949Y-72319035D01*
X112448971Y-72373145D01*
X112530521Y-72433687D01*
X112619965Y-72501736D01*
X112822942Y-72660757D01*
X112932213Y-72748544D01*
X113043398Y-72839401D01*
X113154041Y-72931489D01*
X113261685Y-73022973D01*
X113363876Y-73112017D01*
X113458157Y-73196784D01*
X113542744Y-73276014D01*
X113618519Y-73350733D01*
X113653583Y-73386897D01*
X113687023Y-73422528D01*
X113719029Y-73457824D01*
X113749796Y-73492984D01*
X113779516Y-73528205D01*
X113808380Y-73563686D01*
X113836583Y-73599625D01*
X113864316Y-73636221D01*
X113919143Y-73712173D01*
X113974404Y-73793129D01*
X114031214Y-73880186D01*
X114089006Y-73972478D01*
X114146797Y-74068656D01*
X114203600Y-74167366D01*
X114258432Y-74267260D01*
X114310307Y-74366984D01*
X114358242Y-74465190D01*
X114401251Y-74560524D01*
X114420627Y-74606732D01*
X114438576Y-74651943D01*
X114455157Y-74696215D01*
X114470429Y-74739607D01*
X114484452Y-74782177D01*
X114497286Y-74823981D01*
X114508991Y-74865079D01*
X114519625Y-74905527D01*
X114529249Y-74945384D01*
X114537922Y-74984708D01*
X114552655Y-75061985D01*
X114564300Y-75137822D01*
X114573334Y-75212681D01*
X114580125Y-75286909D01*
X114584635Y-75360402D01*
X114586719Y-75432946D01*
X114586235Y-75504325D01*
X114583041Y-75574324D01*
X114580382Y-75608739D01*
X114576992Y-75642728D01*
X114572854Y-75676264D01*
X114567948Y-75709321D01*
X114562257Y-75741871D01*
X114555763Y-75773887D01*
X114548458Y-75805350D01*
X114540357Y-75836267D01*
X114531486Y-75866659D01*
X114521867Y-75896546D01*
X114511525Y-75925947D01*
X114500483Y-75954882D01*
X114488765Y-75983371D01*
X114476395Y-76011434D01*
X114463397Y-76039089D01*
X114449794Y-76066358D01*
X114435610Y-76093260D01*
X114420869Y-76119815D01*
X114405595Y-76146042D01*
X114389811Y-76171961D01*
X114356810Y-76222955D01*
X114339631Y-76248058D01*
X114321985Y-76272865D01*
X114303845Y-76297327D01*
X114285181Y-76321399D01*
X114265966Y-76345031D01*
X114246171Y-76368177D01*
X114225767Y-76390790D01*
X114204727Y-76412822D01*
X114183021Y-76434225D01*
X114160621Y-76454953D01*
X114137499Y-76474957D01*
X114113627Y-76494191D01*
X114088975Y-76512606D01*
X114063516Y-76530156D01*
X114037221Y-76546793D01*
X114010061Y-76562469D01*
X113982020Y-76577153D01*
X113953126Y-76590868D01*
X113923423Y-76603650D01*
X113892953Y-76615536D01*
X113861759Y-76626562D01*
X113829883Y-76636765D01*
X113797367Y-76646180D01*
X113764255Y-76654844D01*
X113730588Y-76662793D01*
X113696409Y-76670064D01*
X113626685Y-76682717D01*
X113555423Y-76693091D01*
X113482962Y-76701479D01*
X113409643Y-76708133D01*
X113335857Y-76713149D01*
X113262022Y-76716579D01*
X113188558Y-76718478D01*
X113115881Y-76718898D01*
X113044412Y-76717893D01*
X112974569Y-76715517D01*
X112906769Y-76711822D01*
X112841358Y-76706844D01*
X112778356Y-76700503D01*
X112717700Y-76692678D01*
X112659326Y-76683249D01*
X112603169Y-76672095D01*
X112575902Y-76665833D01*
X112549166Y-76659094D01*
X112522953Y-76651864D01*
X112497254Y-76644127D01*
X112472062Y-76635869D01*
X112447369Y-76627073D01*
X112423174Y-76617748D01*
X112399493Y-76607981D01*
X112376340Y-76597873D01*
X112353729Y-76587527D01*
X112310195Y-76566526D01*
X112269008Y-76545794D01*
X112230285Y-76526146D01*
X112194144Y-76508398D01*
X112177078Y-76500491D01*
X112160702Y-76493365D01*
X112145029Y-76487121D01*
X112130076Y-76481862D01*
X112115838Y-76477673D01*
X112102240Y-76474573D01*
X112089186Y-76472570D01*
X112082832Y-76471983D01*
X112076578Y-76471673D01*
X112070412Y-76471641D01*
X112064321Y-76471889D01*
X112058293Y-76472417D01*
X112052316Y-76473227D01*
X112046378Y-76474319D01*
X112040468Y-76475694D01*
X112034572Y-76477354D01*
X112028679Y-76479299D01*
X112022777Y-76481531D01*
X112016854Y-76484050D01*
X112004895Y-76489955D01*
X111992706Y-76497023D01*
X111980190Y-76505260D01*
X111967250Y-76514676D01*
X111953790Y-76525279D01*
X111939712Y-76537075D01*
X111924921Y-76550075D01*
X111893065Y-76579553D01*
X111858709Y-76612958D01*
X111822587Y-76649377D01*
X111785435Y-76687893D01*
X111747987Y-76727592D01*
X111710978Y-76767558D01*
X111641216Y-76844635D01*
X111609827Y-76880094D01*
X111581183Y-76913273D01*
X111555386Y-76944390D01*
X111543589Y-76959243D01*
X111532542Y-76973662D01*
X111522259Y-76987675D01*
X111512752Y-77001308D01*
X111504036Y-77014589D01*
X111496122Y-77027545D01*
X111489024Y-77040203D01*
X111482754Y-77052591D01*
X111477326Y-77064734D01*
X111472752Y-77076662D01*
X111469076Y-77088426D01*
X111466452Y-77100193D01*
X111465063Y-77112161D01*
X111465094Y-77124529D01*
X111466729Y-77137495D01*
X111470152Y-77151258D01*
X111475548Y-77166016D01*
X111483101Y-77181968D01*
X111492995Y-77199312D01*
X111505415Y-77218247D01*
X111520544Y-77238972D01*
X111538567Y-77261684D01*
X111559668Y-77286583D01*
X111584032Y-77313867D01*
X111611843Y-77343735D01*
X111643284Y-77376385D01*
X111717176Y-77450344D01*
X111804066Y-77534905D01*
X112007790Y-77730500D01*
X112236355Y-77952514D01*
X112354295Y-78070097D01*
X112471657Y-78190289D01*
X112586576Y-78311958D01*
X112698835Y-78434752D01*
X112808646Y-78558509D01*
X112916223Y-78683069D01*
X113021779Y-78808268D01*
X113125527Y-78933947D01*
X113328453Y-79186098D01*
X113527137Y-79439852D01*
X113626071Y-79569394D01*
X113725452Y-79702147D01*
X113825818Y-79839188D01*
X113927709Y-79981594D01*
X114031664Y-80130441D01*
X114138222Y-80286806D01*
X114247663Y-80451343D01*
X114359191Y-80622980D01*
X114471733Y-80800205D01*
X114584215Y-80981506D01*
X114695564Y-81165369D01*
X114804705Y-81350282D01*
X114910565Y-81534733D01*
X115012070Y-81717210D01*
X115108378Y-81896540D01*
X115199596Y-82072892D01*
X115286072Y-82246766D01*
X115368157Y-82418661D01*
X115446200Y-82589078D01*
X115520550Y-82758516D01*
X115591559Y-82927474D01*
X115659575Y-83096454D01*
X115724939Y-83265903D01*
X115787951Y-83436116D01*
X115848903Y-83607364D01*
X115908084Y-83779919D01*
X116022302Y-84130030D01*
X116132933Y-84488616D01*
X116241389Y-84856397D01*
X116345214Y-85228077D01*
X116394311Y-85413236D01*
X116440956Y-85596799D01*
X116484716Y-85777910D01*
X116525160Y-85955710D01*
X116561986Y-86129691D01*
X116595435Y-86300732D01*
X116625894Y-86470060D01*
X116653750Y-86638900D01*
X116679387Y-86808480D01*
X116703192Y-86980026D01*
X116746851Y-87333920D01*
X116786960Y-87707186D01*
X116822519Y-88093689D01*
X116851767Y-88484134D01*
X116872942Y-88869226D01*
X116880010Y-89057301D01*
X116884683Y-89243202D01*
X116887021Y-89428427D01*
X116887081Y-89614471D01*
X116884923Y-89802832D01*
X116880605Y-89995007D01*
X116865721Y-90396782D01*
X116842313Y-90828211D01*
X116826683Y-91053442D01*
X116807932Y-91283447D01*
X116785681Y-91517050D01*
X116759553Y-91753074D01*
X116729170Y-91990343D01*
X116694155Y-92227678D01*
X116654236Y-92464096D01*
X116609554Y-92699357D01*
X116560349Y-92933402D01*
X116506863Y-93166175D01*
X116449335Y-93397617D01*
X116388006Y-93627670D01*
X116323115Y-93856277D01*
X116254904Y-94083380D01*
X116183747Y-94308637D01*
X116110528Y-94530659D01*
X116036246Y-94747814D01*
X115961900Y-94958468D01*
X115817018Y-95353747D01*
X115683882Y-95703436D01*
X115567691Y-95999638D01*
X115514232Y-96131339D01*
X115462380Y-96255087D01*
X115411021Y-96373118D01*
X115359041Y-96487667D01*
X115305327Y-96600969D01*
X115248766Y-96715260D01*
X115188482Y-96832369D01*
X115124565Y-96952475D01*
X114987125Y-97200706D01*
X114839040Y-97458007D01*
X114682903Y-97722433D01*
X114521038Y-97991737D01*
X114354747Y-98262765D01*
X114185103Y-98532215D01*
X114013182Y-98796785D01*
X113926760Y-98926184D01*
X113840547Y-99053012D01*
X113670840Y-99296928D01*
X113508231Y-99524479D01*
X113356892Y-99731613D01*
X113220617Y-99914728D01*
X113101723Y-100071933D01*
X113002150Y-100201734D01*
X112923842Y-100302637D01*
X112893332Y-100342155D01*
X112880441Y-100359695D01*
X112869221Y-100376091D01*
X112859745Y-100391594D01*
X112855684Y-100399089D01*
X112852085Y-100406454D01*
X112848959Y-100413722D01*
X112846314Y-100420923D01*
X112844159Y-100428090D01*
X112842504Y-100435253D01*
X112841357Y-100442443D01*
X112840727Y-100449693D01*
X112840623Y-100457033D01*
X112841055Y-100464495D01*
X112842032Y-100472110D01*
X112843561Y-100479910D01*
X112845654Y-100487927D01*
X112848317Y-100496190D01*
X112851562Y-100504732D01*
X112855396Y-100513585D01*
X112859828Y-100522779D01*
X112864869Y-100532346D01*
X112870526Y-100542318D01*
X112876808Y-100552725D01*
X112891287Y-100574972D01*
X112927817Y-100625550D01*
X112973421Y-100683492D01*
X113026750Y-100747691D01*
X113086454Y-100817039D01*
X113219596Y-100966753D01*
X113362059Y-101123775D01*
X113650496Y-101441857D01*
X113800742Y-101609380D01*
X113959439Y-101788334D01*
X114128421Y-101981455D01*
X114303345Y-102185036D01*
X114478269Y-102393742D01*
X114563874Y-102498349D01*
X114647251Y-102602238D01*
X114727814Y-102704910D01*
X114805568Y-102806499D01*
X114880661Y-102907284D01*
X114953241Y-103007544D01*
X115023455Y-103107557D01*
X115091451Y-103207603D01*
X115157376Y-103307961D01*
X115221377Y-103408909D01*
X115283545Y-103510597D01*
X115343777Y-103612656D01*
X115401931Y-103714586D01*
X115457862Y-103815884D01*
X115511427Y-103916049D01*
X115562482Y-104014578D01*
X115610885Y-104110970D01*
X115656492Y-104204723D01*
X115699214Y-104295471D01*
X115739238Y-104383420D01*
X115776839Y-104468927D01*
X115812293Y-104552352D01*
X115845874Y-104634052D01*
X115877857Y-104714385D01*
X115938128Y-104872383D01*
X115966863Y-104950677D01*
X115994523Y-105028527D01*
X116020826Y-105105786D01*
X116045489Y-105182305D01*
X116068231Y-105257937D01*
X116088767Y-105332534D01*
X116106816Y-105405948D01*
X116122095Y-105478031D01*
X116128619Y-105513523D01*
X116134402Y-105548595D01*
X116139468Y-105583203D01*
X116143839Y-105617301D01*
X116150591Y-105683782D01*
X116154842Y-105747671D01*
X116156776Y-105808603D01*
X116156577Y-105866211D01*
X116154430Y-105920129D01*
X116150519Y-105969990D01*
X116147955Y-105993305D01*
X116144975Y-106015581D01*
X116141554Y-106036877D01*
X116137663Y-106057253D01*
X116133277Y-106076772D01*
X116128367Y-106095492D01*
X116122908Y-106113476D01*
X116116872Y-106130782D01*
X116110231Y-106147473D01*
X116102960Y-106163607D01*
X116095032Y-106179247D01*
X116086419Y-106194453D01*
X116077094Y-106209285D01*
X116067031Y-106223804D01*
X116056202Y-106238070D01*
X116044581Y-106252144D01*
X116032148Y-106266074D01*
X116018908Y-106279843D01*
X116004876Y-106293415D01*
X115990064Y-106306752D01*
X115974484Y-106319817D01*
X115958151Y-106332574D01*
X115941077Y-106344986D01*
X115923275Y-106357016D01*
X115904759Y-106368627D01*
X115885540Y-106379782D01*
X115865633Y-106390445D01*
X115845051Y-106400578D01*
X115823806Y-106410144D01*
X115801912Y-106419108D01*
X115779382Y-106427431D01*
X115756228Y-106435078D01*
X115732471Y-106442018D01*
X115708161Y-106448254D01*
X115683350Y-106453800D01*
X115658091Y-106458666D01*
X115632436Y-106462867D01*
X115606438Y-106466413D01*
X115580150Y-106469318D01*
X115553624Y-106471595D01*
X115526914Y-106473255D01*
X115500071Y-106474311D01*
X115446201Y-106474663D01*
X115392434Y-106472749D01*
X115339194Y-106468670D01*
X115286439Y-106462264D01*
X115232211Y-106452378D01*
X115203779Y-106445696D01*
X115174061Y-106437624D01*
X115142748Y-106427988D01*
X115109537Y-106416616D01*
X115074120Y-106403334D01*
X115036190Y-106387968D01*
X114995443Y-106370347D01*
X114951571Y-106350295D01*
X114853229Y-106302209D01*
X114738714Y-106242325D01*
X114606376Y-106169738D01*
X114457849Y-106085510D01*
X114122117Y-105888386D01*
X113751293Y-105663463D01*
X113365154Y-105423256D01*
X112980471Y-105178108D01*
X112602128Y-104929622D01*
X112415940Y-104803939D01*
X112232065Y-104677194D01*
X112050745Y-104549311D01*
X111872223Y-104420216D01*
X111696977Y-104290123D01*
X111526401Y-104160388D01*
X111362110Y-104032649D01*
X111205718Y-103908545D01*
X111058838Y-103789715D01*
X110923085Y-103677797D01*
X110800073Y-103574430D01*
X110691416Y-103481255D01*
X110642910Y-103438949D01*
X110598191Y-103399496D01*
X110519267Y-103328739D01*
X110452949Y-103268159D01*
X110397542Y-103216930D01*
X110351352Y-103174227D01*
X110312683Y-103139227D01*
X110295640Y-103124357D01*
X110279842Y-103111103D01*
X110265077Y-103099362D01*
X110251133Y-103089031D01*
X110237783Y-103080050D01*
X110224717Y-103072540D01*
X110211599Y-103066668D01*
X110198096Y-103062599D01*
X110183872Y-103060500D01*
X110168594Y-103060539D01*
X110151926Y-103062881D01*
X110133536Y-103067694D01*
X110113087Y-103075144D01*
X110090246Y-103085397D01*
X110064679Y-103098620D01*
X110036050Y-103114980D01*
X110004026Y-103134644D01*
X109968272Y-103157777D01*
X109928453Y-103184547D01*
X109884236Y-103215120D01*
X109387775Y-103573587D01*
X109077215Y-103793860D01*
X108915350Y-103904740D01*
X108752522Y-104012489D01*
X108590679Y-104115003D01*
X108429296Y-104212582D01*
X108267234Y-104306116D01*
X108103354Y-104396494D01*
X107936516Y-104484605D01*
X107765582Y-104571338D01*
X107589411Y-104657581D01*
X107406866Y-104744225D01*
X107019193Y-104920917D01*
X106598705Y-105101841D01*
X106375258Y-105193616D01*
X106142532Y-105286117D01*
X105900167Y-105379236D01*
X105647804Y-105472862D01*
X105385446Y-105566760D01*
X105114533Y-105660153D01*
X104836866Y-105752126D01*
X104554245Y-105841762D01*
X104268469Y-105928145D01*
X103981339Y-106010358D01*
X103694655Y-106087486D01*
X103410216Y-106158611D01*
X103129198Y-106223007D01*
X102850306Y-106280671D01*
X102571631Y-106331778D01*
X102291266Y-106376500D01*
X102007303Y-106415013D01*
X101717834Y-106447488D01*
X101420952Y-106474102D01*
X101114748Y-106495026D01*
X100798051Y-106510407D01*
X100472645Y-106520280D01*
X100141055Y-106524657D01*
X99805807Y-106523551D01*
X99469425Y-106516974D01*
X99134435Y-106504937D01*
X98803362Y-106487453D01*
X98478730Y-106464535D01*
X98162419Y-106436136D01*
X97853703Y-106402028D01*
X97551200Y-106361962D01*
X97253528Y-106315688D01*
X96959306Y-106262957D01*
X96667153Y-106203519D01*
X96375688Y-106137125D01*
X96083528Y-106063526D01*
X95789721Y-105982618D01*
X95494970Y-105894912D01*
X95200378Y-105801080D01*
X94907050Y-105701796D01*
X94616086Y-105597730D01*
X94328592Y-105489556D01*
X94045670Y-105377946D01*
X93768423Y-105263573D01*
X93498034Y-105147220D01*
X93235961Y-105030072D01*
X92983720Y-104913396D01*
X92742827Y-104798460D01*
X92514798Y-104686531D01*
X92301149Y-104578876D01*
X91923058Y-104381458D01*
X91761194Y-104293989D01*
X91617136Y-104214391D01*
X91489794Y-104142439D01*
X91378080Y-104077908D01*
X91280907Y-104020574D01*
X91197186Y-103970211D01*
X91065746Y-103889500D01*
X91015752Y-103858720D01*
X90994059Y-103845658D01*
X90974297Y-103834134D01*
X90956261Y-103824134D01*
X90939749Y-103815647D01*
X90932000Y-103811968D01*
X90924556Y-103808663D01*
X90917391Y-103805730D01*
X90910479Y-103803169D01*
X90903795Y-103800977D01*
X90897313Y-103799153D01*
X90891009Y-103797696D01*
X90884856Y-103796604D01*
X90878829Y-103795876D01*
X90872903Y-103795511D01*
X90867051Y-103795506D01*
X90861250Y-103795861D01*
X90855472Y-103796574D01*
X90849693Y-103797643D01*
X90843888Y-103799068D01*
X90838030Y-103800846D01*
X90832094Y-103802976D01*
X90826055Y-103805458D01*
X90819887Y-103808288D01*
X90813565Y-103811466D01*
X90800392Y-103818851D01*
X90786494Y-103827569D01*
X90771863Y-103837580D01*
X90756490Y-103848843D01*
X90723480Y-103874961D01*
X90687389Y-103905595D01*
X90648144Y-103940419D01*
X90605671Y-103979104D01*
X90510741Y-104066750D01*
X90403219Y-104165798D01*
X90288668Y-104272910D01*
X90230892Y-104328387D01*
X90173921Y-104384556D01*
X90118608Y-104440978D01*
X90065808Y-104497211D01*
X90016084Y-104552926D01*
X89968822Y-104608231D01*
X89878004Y-104718484D01*
X89832611Y-104773871D01*
X89786004Y-104829723D01*
X89737262Y-104886259D01*
X89685469Y-104943699D01*
X89629843Y-105002225D01*
X89570128Y-105061932D01*
X89506193Y-105122903D01*
X89437904Y-105185221D01*
X89365131Y-105248967D01*
X89287740Y-105314226D01*
X89205600Y-105381078D01*
X89118578Y-105449608D01*
X88927427Y-105593687D01*
X88703494Y-105755229D01*
X88434017Y-105944570D01*
X88106237Y-106172047D01*
X87716255Y-106441092D01*
X87295735Y-106727403D01*
X86885272Y-106999715D01*
X86696495Y-107120850D01*
X86525455Y-107226761D01*
X86448011Y-107272904D01*
X86375957Y-107314489D01*
X86308988Y-107351744D01*
X86246798Y-107384898D01*
X86189082Y-107414179D01*
X86135536Y-107439817D01*
X86085853Y-107462040D01*
X86039728Y-107481078D01*
X85996856Y-107497157D01*
X85956932Y-107510509D01*
X85919650Y-107521360D01*
X85884705Y-107529940D01*
X85851793Y-107536478D01*
X85820606Y-107541202D01*
X85790841Y-107544341D01*
X85762192Y-107546123D01*
X85734402Y-107546748D01*
X85707402Y-107546288D01*
X85681169Y-107544794D01*
X85655680Y-107542315D01*
X85630912Y-107538900D01*
X85606841Y-107534598D01*
X85583445Y-107529458D01*
X85560700Y-107523530D01*
X85538583Y-107516862D01*
X85517072Y-107509505D01*
X85496143Y-107501506D01*
X85475773Y-107492916D01*
X85455940Y-107483783D01*
X85436619Y-107474157D01*
X85417788Y-107464086D01*
X85399424Y-107453621D01*
X85381511Y-107442803D01*
X85364051Y-107431646D01*
X85347044Y-107420155D01*
X85330490Y-107408338D01*
X85314391Y-107396199D01*
X85298745Y-107383746D01*
X85283555Y-107370985D01*
X85268819Y-107357922D01*
X85254540Y-107344563D01*
X85240718Y-107330915D01*
X85227352Y-107316983D01*
X85214444Y-107302775D01*
X85201994Y-107288296D01*
X85190002Y-107273553D01*
X85178469Y-107258551D01*
X85167397Y-107243298D01*
X85156786Y-107227790D01*
X85146639Y-107212003D01*
X85136952Y-107195908D01*
X85127722Y-107179473D01*
X85118948Y-107162667D01*
X85110625Y-107145461D01*
X85102751Y-107127823D01*
X85095324Y-107109723D01*
X85088340Y-107091130D01*
X85081798Y-107072013D01*
X85075693Y-107052343D01*
X85070023Y-107032088D01*
X85064786Y-107011218D01*
X85059979Y-106989702D01*
X85055598Y-106967510D01*
X85051641Y-106944611D01*
X85048100Y-106921007D01*
X85044950Y-106896834D01*
X85039729Y-106847411D01*
X85035783Y-106797614D01*
X85032919Y-106748714D01*
X85030941Y-106701984D01*
X85029656Y-106658694D01*
X85028385Y-106587524D01*
X85028446Y-106560840D01*
X85031016Y-106534596D01*
X85038496Y-106501974D01*
X85053285Y-106456159D01*
X85077784Y-106390332D01*
X85114393Y-106297677D01*
X85233540Y-106004616D01*
X85424504Y-105542495D01*
X85544773Y-105261071D01*
X85679335Y-104957034D01*
X85826514Y-104638604D01*
X85984636Y-104314004D01*
X86152027Y-103991454D01*
X86327014Y-103679176D01*
X86416783Y-103529313D01*
X86507540Y-103384221D01*
X86598799Y-103244042D01*
X86690073Y-103108919D01*
X86780877Y-102978994D01*
X86870725Y-102854409D01*
X87045604Y-102621827D01*
X87210824Y-102412313D01*
X87362493Y-102227002D01*
X87609625Y-101933546D01*
X87656911Y-101876880D01*
X87697705Y-101826015D01*
X87731823Y-101779849D01*
X87746320Y-101758183D01*
X87759079Y-101737277D01*
X87770075Y-101716995D01*
X87779287Y-101697197D01*
X87786691Y-101677746D01*
X87792264Y-101658505D01*
X87795982Y-101639334D01*
X87797823Y-101620097D01*
X87797763Y-101600655D01*
X87795780Y-101580871D01*
X87791849Y-101560606D01*
X87785949Y-101539722D01*
X87778055Y-101518082D01*
X87768145Y-101495548D01*
X87756196Y-101471981D01*
X87742184Y-101447245D01*
X87707880Y-101393709D01*
X87665048Y-101333837D01*
X87613502Y-101266526D01*
X87553059Y-101190673D01*
X87483532Y-101105173D01*
X87121262Y-100662520D01*
X86900285Y-100388161D01*
X86661165Y-100084568D01*
X86410216Y-99756331D01*
X86153752Y-99408041D01*
X85898087Y-99044288D01*
X85649536Y-98669662D01*
X85413275Y-98287780D01*
X85189942Y-97898407D01*
X84979039Y-97500360D01*
X84780069Y-97092455D01*
X84592534Y-96673511D01*
X84415935Y-96242342D01*
X84249776Y-95797766D01*
X84093558Y-95338600D01*
X83946984Y-94864450D01*
X83810477Y-94378078D01*
X83684624Y-93883032D01*
X83570012Y-93382861D01*
X83467230Y-92881113D01*
X83376864Y-92381337D01*
X83299502Y-91887079D01*
X83235732Y-91401890D01*
X83185923Y-90928665D01*
X83149529Y-90467636D01*
X83125757Y-90018353D01*
X83123304Y-89928372D01*
X83896103Y-89928372D01*
X83899500Y-90297285D01*
X83908702Y-90656240D01*
X83923634Y-91001810D01*
X83944219Y-91330568D01*
X83970300Y-91640022D01*
X84001437Y-91931491D01*
X84037136Y-92207263D01*
X84076900Y-92469623D01*
X84120232Y-92720860D01*
X84166637Y-92963260D01*
X84215619Y-93199111D01*
X84266680Y-93430698D01*
X84374666Y-93888661D01*
X84432817Y-94117370D01*
X84494695Y-94347302D01*
X84561014Y-94579511D01*
X84632491Y-94815053D01*
X84709842Y-95054981D01*
X84793780Y-95300350D01*
X84884812Y-95551787D01*
X84982654Y-95808181D01*
X85086833Y-96067983D01*
X85196876Y-96329639D01*
X85312311Y-96591600D01*
X85432663Y-96852313D01*
X85557461Y-97110227D01*
X85686232Y-97363791D01*
X85818622Y-97611772D01*
X85954772Y-97854250D01*
X86094948Y-98091641D01*
X86239414Y-98324364D01*
X86388436Y-98552835D01*
X86542278Y-98777472D01*
X86701207Y-98998690D01*
X86865488Y-99216907D01*
X87034732Y-99431972D01*
X87205932Y-99641526D01*
X87375425Y-99842675D01*
X87539545Y-100032521D01*
X87694630Y-100208169D01*
X87837015Y-100366721D01*
X88069030Y-100620956D01*
X88153384Y-100712607D01*
X88222680Y-100786201D01*
X88285546Y-100849496D01*
X88350611Y-100910246D01*
X88426503Y-100976209D01*
X88521849Y-101055140D01*
X88805419Y-101282930D01*
X89252353Y-101637535D01*
X89841548Y-102090205D01*
X90177252Y-102338642D01*
X90533830Y-102593990D01*
X90906386Y-102850379D01*
X91290022Y-103101942D01*
X91680525Y-103343763D01*
X92076354Y-103574694D01*
X92476624Y-103794509D01*
X92880449Y-104002980D01*
X93286945Y-104199882D01*
X93695225Y-104384986D01*
X94104405Y-104558066D01*
X94513598Y-104718895D01*
X94922152Y-104867329D01*
X95330347Y-105003534D01*
X95738697Y-105127758D01*
X96147714Y-105240246D01*
X96557913Y-105341244D01*
X96969806Y-105430998D01*
X97383908Y-105509754D01*
X97800731Y-105577759D01*
X98220421Y-105635197D01*
X98641733Y-105682037D01*
X99063087Y-105718194D01*
X99482905Y-105743589D01*
X99899610Y-105758138D01*
X100311622Y-105761759D01*
X100717364Y-105754370D01*
X101115257Y-105735889D01*
X101503774Y-105706469D01*
X101881613Y-105667175D01*
X102247538Y-105619294D01*
X102600310Y-105564113D01*
X102938694Y-105502919D01*
X103261452Y-105436997D01*
X103567347Y-105367637D01*
X103855141Y-105296123D01*
X104124662Y-105223260D01*
X104380017Y-105147878D01*
X104626393Y-105068312D01*
X104868978Y-104982894D01*
X105112959Y-104889960D01*
X105363522Y-104787843D01*
X105625856Y-104674877D01*
X105905146Y-104549396D01*
X106205037Y-104410181D01*
X106522968Y-104257764D01*
X106854823Y-104093109D01*
X107196485Y-103917180D01*
X107543839Y-103730943D01*
X107892768Y-103535362D01*
X108239155Y-103331402D01*
X108578884Y-103120028D01*
X108908542Y-102902137D01*
X109227497Y-102678422D01*
X109535811Y-102449535D01*
X109833542Y-102216129D01*
X110120749Y-101978857D01*
X110397493Y-101738372D01*
X110663832Y-101495327D01*
X110919827Y-101250376D01*
X111165466Y-101004356D01*
X111400485Y-100758845D01*
X111624558Y-100515604D01*
X111837359Y-100276398D01*
X112038563Y-100042991D01*
X112227844Y-99817145D01*
X112404878Y-99600624D01*
X112569338Y-99395191D01*
X112721345Y-99201773D01*
X112862752Y-99017937D01*
X112995841Y-98840417D01*
X113122891Y-98665948D01*
X113246182Y-98491264D01*
X113367995Y-98313099D01*
X113490610Y-98128188D01*
X113616306Y-97933266D01*
X113746652Y-97726060D01*
X113880393Y-97508358D01*
X114015574Y-97282979D01*
X114150241Y-97052741D01*
X114282438Y-96820463D01*
X114410211Y-96588963D01*
X114531604Y-96361061D01*
X114644663Y-96139576D01*
X114747900Y-95926846D01*
X114841741Y-95723262D01*
X114927097Y-95528710D01*
X115004882Y-95343078D01*
X115076010Y-95166250D01*
X115141394Y-94998115D01*
X115258581Y-94687468D01*
X115363189Y-94406659D01*
X115459663Y-94136621D01*
X115506049Y-93998517D01*
X115551842Y-93854557D01*
X115597520Y-93701890D01*
X115643564Y-93537668D01*
X115690258Y-93359951D01*
X115737122Y-93170420D01*
X115783491Y-92971652D01*
X115828699Y-92766226D01*
X115872082Y-92556719D01*
X115912975Y-92345710D01*
X115950712Y-92135777D01*
X115984629Y-91929497D01*
X116014214Y-91728831D01*
X116039612Y-91533291D01*
X116061144Y-91341774D01*
X116079133Y-91153183D01*
X116093900Y-90966417D01*
X116105767Y-90780378D01*
X116115056Y-90593964D01*
X116122088Y-90406076D01*
X116130138Y-90022473D01*
X116129801Y-89625939D01*
X116126288Y-89422031D01*
X116120441Y-89213942D01*
X116112181Y-89001355D01*
X116101427Y-88783953D01*
X116088117Y-88561756D01*
X116072199Y-88336180D01*
X116053611Y-88108997D01*
X116032293Y-87881977D01*
X116008183Y-87656889D01*
X115981220Y-87435505D01*
X115951342Y-87219596D01*
X115918490Y-87010931D01*
X115882690Y-86810835D01*
X115844261Y-86618787D01*
X115803579Y-86433787D01*
X115761019Y-86254835D01*
X115716955Y-86080930D01*
X115671763Y-85911072D01*
X115579493Y-85579494D01*
X115485818Y-85251963D01*
X115386944Y-84919859D01*
X115277761Y-84574441D01*
X115217708Y-84394007D01*
X115153162Y-84206967D01*
X115083256Y-84012141D01*
X115006236Y-83808028D01*
X114920134Y-83593053D01*
X114822980Y-83365641D01*
X114712807Y-83124216D01*
X114587646Y-82867203D01*
X114445528Y-82593025D01*
X114284483Y-82300107D01*
X114103472Y-81988032D01*
X113905188Y-81660967D01*
X113693270Y-81324212D01*
X113471352Y-80983068D01*
X113243073Y-80642837D01*
X113012067Y-80308819D01*
X112781972Y-79986316D01*
X112556423Y-79680629D01*
X112338719Y-79396211D01*
X112130798Y-79134095D01*
X111934261Y-78894455D01*
X111750702Y-78677460D01*
X111581721Y-78483285D01*
X111428914Y-78312099D01*
X111178213Y-78039386D01*
X111082851Y-77937725D01*
X111042277Y-77894874D01*
X111006034Y-77856900D01*
X110973818Y-77823470D01*
X110945322Y-77794251D01*
X110920242Y-77768913D01*
X110898272Y-77747121D01*
X110879108Y-77728544D01*
X110862444Y-77712850D01*
X110847975Y-77699705D01*
X110835396Y-77688778D01*
X110824401Y-77679736D01*
X110814687Y-77672247D01*
X110805946Y-77665978D01*
X110797875Y-77660597D01*
X110790098Y-77655962D01*
X110781977Y-77652698D01*
X110772809Y-77651628D01*
X110761891Y-77653572D01*
X110748522Y-77659351D01*
X110731998Y-77669787D01*
X110711618Y-77685701D01*
X110686678Y-77707915D01*
X110656477Y-77737249D01*
X110620312Y-77774525D01*
X110527279Y-77876188D01*
X110401960Y-78019473D01*
X110238735Y-78210951D01*
X109797901Y-78738199D01*
X109268886Y-79377439D01*
X108290016Y-80563263D01*
X108200897Y-80670935D01*
X108121677Y-80766930D01*
X107990374Y-80926364D01*
X107937014Y-80991042D01*
X107890998Y-81046518D01*
X107851686Y-81093413D01*
X107818439Y-81132346D01*
X107803891Y-81149019D01*
X107790620Y-81163934D01*
X107778546Y-81177168D01*
X107767589Y-81188798D01*
X107757669Y-81198902D01*
X107748707Y-81207557D01*
X107740623Y-81214841D01*
X107733336Y-81220830D01*
X107726768Y-81225602D01*
X107720838Y-81229235D01*
X107715466Y-81231806D01*
X107712964Y-81232717D01*
X107710572Y-81233392D01*
X107708280Y-81233840D01*
X107706078Y-81234071D01*
X107703955Y-81234095D01*
X107701902Y-81233920D01*
X107697965Y-81233017D01*
X107694187Y-81231439D01*
X107465941Y-81111404D01*
X107239144Y-80984437D01*
X107015625Y-80852416D01*
X106797208Y-80717221D01*
X106585721Y-80580730D01*
X106382989Y-80444824D01*
X106190840Y-80311380D01*
X106011099Y-80182279D01*
X105845593Y-80059399D01*
X105696148Y-79944619D01*
X105564591Y-79839820D01*
X105452747Y-79746878D01*
X105362444Y-79667675D01*
X105295508Y-79604089D01*
X105253765Y-79557999D01*
X105242911Y-79542102D01*
X105239041Y-79531284D01*
X105238745Y-79514506D01*
X105239094Y-79496983D01*
X105240114Y-79478727D01*
X105241832Y-79459748D01*
X105244277Y-79440059D01*
X105247474Y-79419670D01*
X105251452Y-79398595D01*
X105256238Y-79376843D01*
X105261859Y-79354427D01*
X105268343Y-79331359D01*
X105275717Y-79307649D01*
X105284008Y-79283309D01*
X105293243Y-79258351D01*
X105303451Y-79232787D01*
X105314658Y-79206627D01*
X105326891Y-79179884D01*
X105354547Y-79124684D01*
X105386553Y-79067218D01*
X105423001Y-79007510D01*
X105463988Y-78945578D01*
X105509605Y-78881445D01*
X105559949Y-78815130D01*
X105615112Y-78746655D01*
X105675190Y-78676039D01*
X105740499Y-78602881D01*
X105812286Y-78525065D01*
X105981235Y-78345269D01*
X106193919Y-78116272D01*
X106320375Y-77976954D01*
X106462221Y-77817694D01*
X106788976Y-77441232D01*
X107141067Y-77026919D01*
X107476455Y-76626880D01*
X107753100Y-76293239D01*
X107857535Y-76165886D01*
X107901079Y-76112155D01*
X107939258Y-76064442D01*
X107972387Y-76022288D01*
X108000778Y-75985233D01*
X108024746Y-75952818D01*
X108044603Y-75924583D01*
X108053089Y-75911889D01*
X108060664Y-75900068D01*
X108067369Y-75889063D01*
X108073242Y-75878815D01*
X108078323Y-75869267D01*
X108082651Y-75860363D01*
X108086265Y-75852044D01*
X108089204Y-75844253D01*
X108091508Y-75836933D01*
X108093215Y-75830026D01*
X108094365Y-75823475D01*
X108094997Y-75817222D01*
X108095151Y-75811210D01*
X108094865Y-75805381D01*
X108094178Y-75799679D01*
X108093130Y-75794045D01*
X108090055Y-75782823D01*
X108085687Y-75771611D01*
X108080025Y-75760378D01*
X108073066Y-75749092D01*
X108064807Y-75737723D01*
X108055246Y-75726238D01*
X108044380Y-75714607D01*
X108032206Y-75702799D01*
X108018723Y-75690782D01*
X108003928Y-75678525D01*
X107987818Y-75665997D01*
X107970390Y-75653166D01*
X107951643Y-75640001D01*
X107931573Y-75626471D01*
X107887457Y-75598191D01*
X107838032Y-75568128D01*
X107783242Y-75536294D01*
X107723004Y-75502747D01*
X107657232Y-75467546D01*
X107585841Y-75430750D01*
X107508746Y-75392419D01*
X107425861Y-75352612D01*
X107337103Y-75311387D01*
X107141745Y-75224657D01*
X106922251Y-75131161D01*
X106408995Y-74918133D01*
X106113055Y-74796448D01*
X105783807Y-74666384D01*
X105604288Y-74599025D01*
X105413557Y-74530549D01*
X105210652Y-74461282D01*
X104994612Y-74391551D01*
X104765061Y-74321686D01*
X104523969Y-74252097D01*
X104017386Y-74115503D01*
X103495313Y-73985287D01*
X102978197Y-73864968D01*
X102727026Y-73809611D01*
X102479576Y-73757959D01*
X102233215Y-73710348D01*
X101985311Y-73667110D01*
X101733231Y-73628579D01*
X101474342Y-73595091D01*
X101206012Y-73566978D01*
X100925610Y-73544574D01*
X100631495Y-73528058D01*
X100326175Y-73517168D01*
X100013227Y-73511583D01*
X99696226Y-73510984D01*
X99696182Y-73510980D01*
X99378686Y-73515034D01*
X99064224Y-73523285D01*
X98756328Y-73535330D01*
X98458532Y-73550771D01*
X98173524Y-73569361D01*
X97900551Y-73591393D01*
X97637982Y-73617289D01*
X97384182Y-73647470D01*
X97137520Y-73682359D01*
X96896363Y-73722377D01*
X96659077Y-73767946D01*
X96424031Y-73819489D01*
X96189728Y-73877340D01*
X95955160Y-73941446D01*
X95719427Y-74011645D01*
X95481632Y-74087776D01*
X95240875Y-74169677D01*
X94996258Y-74257188D01*
X94746882Y-74350146D01*
X94491849Y-74448391D01*
X93964972Y-74659679D01*
X93696504Y-74771740D01*
X93427249Y-74887371D01*
X93159132Y-75006039D01*
X92894080Y-75127212D01*
X92634017Y-75250360D01*
X92380867Y-75374949D01*
X92136575Y-75500241D01*
X91903134Y-75624719D01*
X91682546Y-75746679D01*
X91476812Y-75864420D01*
X91287935Y-75976239D01*
X91117916Y-76080432D01*
X90968757Y-76175298D01*
X90842460Y-76259133D01*
X90788416Y-76296447D01*
X90740259Y-76330771D01*
X90697653Y-76362308D01*
X90660260Y-76391260D01*
X90643414Y-76404829D01*
X90627745Y-76417828D01*
X90613211Y-76430281D01*
X90599770Y-76442214D01*
X90587381Y-76453652D01*
X90576000Y-76464621D01*
X90565586Y-76475145D01*
X90556097Y-76485250D01*
X90547491Y-76494962D01*
X90539725Y-76504304D01*
X90532758Y-76513303D01*
X90526547Y-76521984D01*
X90521051Y-76530372D01*
X90516227Y-76538493D01*
X90512034Y-76546371D01*
X90508428Y-76554032D01*
X90505369Y-76561501D01*
X90502814Y-76568803D01*
X90500720Y-76575964D01*
X90499047Y-76583009D01*
X90497752Y-76589963D01*
X90496792Y-76596852D01*
X90495711Y-76610532D01*
X90495632Y-76624342D01*
X90497058Y-76638916D01*
X90500657Y-76654977D01*
X90507098Y-76673243D01*
X90517051Y-76694435D01*
X90531185Y-76719275D01*
X90550169Y-76748482D01*
X90574672Y-76782777D01*
X90605364Y-76822881D01*
X90642913Y-76869513D01*
X90741259Y-76985248D01*
X90875064Y-77135745D01*
X91049682Y-77326768D01*
X92082109Y-78427871D01*
X92642591Y-79027366D01*
X93108471Y-79537485D01*
X93199595Y-79640687D01*
X93279605Y-79733328D01*
X93349117Y-79816157D01*
X93380129Y-79854126D01*
X93408748Y-79889924D01*
X93435051Y-79923643D01*
X93459115Y-79955377D01*
X93481017Y-79985221D01*
X93500835Y-80013267D01*
X93518646Y-80039610D01*
X93534526Y-80064344D01*
X93548553Y-80087561D01*
X93560804Y-80109355D01*
X93571356Y-80129821D01*
X93580286Y-80149052D01*
X93587672Y-80167141D01*
X93593590Y-80184182D01*
X93598117Y-80200270D01*
X93601332Y-80215497D01*
X93603310Y-80229957D01*
X93604129Y-80243744D01*
X93603866Y-80256952D01*
X93602598Y-80269674D01*
X93600403Y-80282004D01*
X93597357Y-80294036D01*
X93593537Y-80305863D01*
X93589022Y-80317580D01*
X93583887Y-80329279D01*
X93578210Y-80341054D01*
X93487276Y-80471176D01*
X93286013Y-80736305D01*
X92697483Y-81488743D01*
X92102573Y-82232676D01*
X91893337Y-82487175D01*
X91791239Y-82602414D01*
X91773211Y-82616516D01*
X91754982Y-82627909D01*
X91735664Y-82635789D01*
X91714369Y-82639347D01*
X91690209Y-82637779D01*
X91662298Y-82630278D01*
X91629745Y-82616037D01*
X91591665Y-82594251D01*
X91547169Y-82564112D01*
X91495369Y-82524814D01*
X91435377Y-82475552D01*
X91366306Y-82415518D01*
X91287267Y-82343907D01*
X91197374Y-82259912D01*
X90981469Y-82051544D01*
X88480847Y-79529734D01*
X88423016Y-79472810D01*
X88368511Y-79419505D01*
X88317223Y-79369709D01*
X88269044Y-79323310D01*
X88223866Y-79280198D01*
X88181581Y-79240262D01*
X88142081Y-79203393D01*
X88105258Y-79169479D01*
X88071004Y-79138409D01*
X88039210Y-79110073D01*
X88009768Y-79084361D01*
X87982571Y-79061162D01*
X87957510Y-79040366D01*
X87934476Y-79021861D01*
X87913363Y-79005537D01*
X87894062Y-78991283D01*
X87876464Y-78978990D01*
X87860462Y-78968546D01*
X87845947Y-78959840D01*
X87832812Y-78952763D01*
X87820948Y-78947204D01*
X87815459Y-78944958D01*
X87810247Y-78943051D01*
X87805299Y-78941468D01*
X87800601Y-78940195D01*
X87796140Y-78939218D01*
X87791902Y-78938525D01*
X87787873Y-78938099D01*
X87784041Y-78937929D01*
X87780392Y-78938000D01*
X87776912Y-78938299D01*
X87773587Y-78938811D01*
X87770404Y-78939522D01*
X87764412Y-78941489D01*
X87758825Y-78944089D01*
X87753537Y-78947211D01*
X87748439Y-78950745D01*
X87743422Y-78954579D01*
X87722926Y-78972136D01*
X87700629Y-78994167D01*
X87675183Y-79022089D01*
X87645240Y-79057325D01*
X87609451Y-79101292D01*
X87566466Y-79155410D01*
X87453515Y-79299778D01*
X87299304Y-79498378D01*
X87111410Y-79745417D01*
X87008334Y-79884208D01*
X86901040Y-80031636D01*
X86790929Y-80186544D01*
X86679403Y-80347775D01*
X86567653Y-80514359D01*
X86455994Y-80686077D01*
X86344510Y-80862901D01*
X86233285Y-81044803D01*
X86122402Y-81231754D01*
X86011943Y-81423726D01*
X85901993Y-81620692D01*
X85792635Y-81822621D01*
X85683980Y-82029469D01*
X85576267Y-82241118D01*
X85469762Y-82457437D01*
X85364736Y-82678292D01*
X85261456Y-82903550D01*
X85160190Y-83133081D01*
X85061208Y-83366749D01*
X84964778Y-83604424D01*
X84871148Y-83846135D01*
X84780519Y-84092589D01*
X84693093Y-84344674D01*
X84609072Y-84603275D01*
X84528658Y-84869279D01*
X84452052Y-85143573D01*
X84379456Y-85427042D01*
X84311072Y-85720574D01*
X84247116Y-86024826D01*
X84187817Y-86339550D01*
X84133394Y-86664281D01*
X84084067Y-86998551D01*
X84040054Y-87341895D01*
X84001576Y-87693845D01*
X83968852Y-88053936D01*
X83942102Y-88421701D01*
X83921512Y-88796167D01*
X83907033Y-89174386D01*
X83898589Y-89552930D01*
X83896103Y-89928372D01*
X83123304Y-89928372D01*
X83113818Y-89580364D01*
X83112919Y-89153219D01*
X83122269Y-88736466D01*
X83141077Y-88329655D01*
X83168552Y-87932333D01*
X83204005Y-87544053D01*
X83247141Y-87164379D01*
X83297767Y-86792874D01*
X83355686Y-86429100D01*
X83420702Y-86072621D01*
X83492619Y-85723000D01*
X83571243Y-85379800D01*
X83656378Y-85042583D01*
X83747872Y-84710886D01*
X83845807Y-84384168D01*
X83950336Y-84061887D01*
X84061612Y-83743499D01*
X84179789Y-83428463D01*
X84305019Y-83116236D01*
X84437456Y-82806275D01*
X84577252Y-82498036D01*
X84724290Y-82191399D01*
X84877398Y-81887845D01*
X85035142Y-81589237D01*
X85196093Y-81297441D01*
X85358818Y-81014319D01*
X85521885Y-80741736D01*
X85683864Y-80481556D01*
X85843322Y-80235642D01*
X85998862Y-80005616D01*
X86149181Y-79792052D01*
X86292995Y-79595245D01*
X86429024Y-79415493D01*
X86555983Y-79253090D01*
X86672590Y-79108333D01*
X86777563Y-78981516D01*
X86869618Y-78872935D01*
X86947734Y-78782296D01*
X87011938Y-78706974D01*
X87038917Y-78674058D01*
X87062530Y-78643770D01*
X87082814Y-78615712D01*
X87091721Y-78602394D01*
X87099809Y-78589483D01*
X87107084Y-78576930D01*
X87113550Y-78564684D01*
X87119212Y-78552695D01*
X87124075Y-78540914D01*
X87128144Y-78529290D01*
X87131423Y-78517773D01*
X87133916Y-78506314D01*
X87135630Y-78494862D01*
X87136567Y-78483368D01*
X87136733Y-78471780D01*
X87136133Y-78460051D01*
X87134772Y-78448128D01*
X87132653Y-78435963D01*
X87129782Y-78423505D01*
X87126163Y-78410705D01*
X87121801Y-78397511D01*
X87110885Y-78369869D01*
X87097166Y-78340806D01*
X87080798Y-78310679D01*
X87061935Y-78279847D01*
X87040731Y-78248668D01*
X87017340Y-78217499D01*
X86991917Y-78186698D01*
X86964614Y-78156624D01*
X86935586Y-78127634D01*
X86904987Y-78100087D01*
X86872970Y-78074340D01*
X86839691Y-78050750D01*
X86805302Y-78029677D01*
X86787740Y-78020196D01*
X86769958Y-78011478D01*
X86751976Y-78003568D01*
X86733813Y-77996511D01*
X86715488Y-77990351D01*
X86697021Y-77985134D01*
X86659700Y-77977593D01*
X86621835Y-77973694D01*
X86583377Y-77973136D01*
X86544276Y-77975616D01*
X86504484Y-77980833D01*
X86463951Y-77988484D01*
X86422630Y-77998266D01*
X86380470Y-78009879D01*
X86007141Y-78132411D01*
X85955265Y-78146935D01*
X85902254Y-78160469D01*
X85848247Y-78172908D01*
X85793386Y-78184147D01*
X85737813Y-78194081D01*
X85681668Y-78202605D01*
X85625092Y-78209614D01*
X85568228Y-78215003D01*
X85511216Y-78218667D01*
X85454197Y-78220501D01*
X85397313Y-78220400D01*
X85340704Y-78218258D01*
X85284513Y-78213971D01*
X85228880Y-78207434D01*
X85173947Y-78198541D01*
X85119854Y-78187189D01*
X85066731Y-78173301D01*
X85014648Y-78156927D01*
X84963660Y-78138147D01*
X84913825Y-78117043D01*
X84865196Y-78093694D01*
X84817830Y-78068182D01*
X84771782Y-78040586D01*
X84727108Y-78010988D01*
X84683863Y-77979467D01*
X84642104Y-77946104D01*
X84601884Y-77910981D01*
X84563261Y-77874177D01*
X84526289Y-77835773D01*
X84491025Y-77795849D01*
X84457523Y-77754486D01*
X84425840Y-77711765D01*
X84396023Y-77667754D01*
X84368083Y-77622473D01*
X84342018Y-77575937D01*
X84317829Y-77528156D01*
X84295515Y-77479144D01*
X84275075Y-77428912D01*
X84256510Y-77377473D01*
X84239817Y-77324839D01*
X84224998Y-77271021D01*
X84212051Y-77216033D01*
X84200976Y-77159887D01*
X84191772Y-77102594D01*
X84184439Y-77044167D01*
X84178977Y-76984618D01*
X84175384Y-76923960D01*
X84173661Y-76862205D01*
X84173828Y-76799351D01*
X84175992Y-76735336D01*
X84180285Y-76670080D01*
X84186835Y-76603501D01*
X84195774Y-76535520D01*
X84207230Y-76466056D01*
X84221334Y-76395027D01*
X84238217Y-76322354D01*
X84258007Y-76247956D01*
X84280835Y-76171752D01*
X84306832Y-76093662D01*
X84336126Y-76013605D01*
X84368849Y-75931501D01*
X84405129Y-75847268D01*
X84445098Y-75760827D01*
X84488885Y-75672097D01*
X84536567Y-75581061D01*
X84588016Y-75487954D01*
X84643052Y-75393070D01*
X84701496Y-75296707D01*
X84827894Y-75100726D01*
X84965778Y-74902377D01*
X85113717Y-74704028D01*
X85270279Y-74508047D01*
X85351347Y-74411684D01*
X85434033Y-74316802D01*
X85518160Y-74223695D01*
X85603548Y-74132660D01*
X85690019Y-74043952D01*
X85777405Y-73957654D01*
X85865541Y-73873801D01*
X85954260Y-73792431D01*
X86043396Y-73713578D01*
X86132784Y-73637279D01*
X86222257Y-73563569D01*
X86311649Y-73492486D01*
X86400795Y-73424063D01*
X86489529Y-73358339D01*
X86665095Y-73235125D01*
X86837020Y-73123133D01*
X87003977Y-73022650D01*
X87085206Y-72976795D01*
X87164881Y-72933815D01*
X87243025Y-72893636D01*
X87319665Y-72856187D01*
X87394824Y-72821394D01*
X87468529Y-72789185D01*
X87540803Y-72759487D01*
X87611672Y-72732228D01*
X87681161Y-72707334D01*
X87749296Y-72684734D01*
X87816099Y-72664354D01*
X87881598Y-72646122D01*
X87945817Y-72629965D01*
X88008780Y-72615811D01*
X88070514Y-72603586D01*
X88131042Y-72593219D01*
X88190386Y-72584638D01*
X88248546Y-72577789D01*
X88305515Y-72572622D01*
X88361286Y-72569085D01*
X88415853Y-72567130D01*
X88469208Y-72566705D01*
X88521344Y-72567760D01*
X88572256Y-72570246D01*
X88621935Y-72574111D01*
X88670375Y-72579307D01*
X88717569Y-72585782D01*
X88763510Y-72593486D01*
X88808192Y-72602370D01*
X88851607Y-72612383D01*
X88893749Y-72623474D01*
X88934610Y-72635594D01*
X88974197Y-72648705D01*
X89012547Y-72662800D01*
X89049703Y-72677870D01*
X89085709Y-72693910D01*
X89120607Y-72710913D01*
X89154440Y-72728873D01*
X89187251Y-72747781D01*
X89219082Y-72767633D01*
X89249978Y-72788422D01*
X89279979Y-72810140D01*
X89309130Y-72832782D01*
X89337473Y-72856339D01*
X89365051Y-72880807D01*
X89391907Y-72906179D01*
X89418083Y-72932447D01*
X89443623Y-72959605D01*
X89468557Y-72987641D01*
X89492872Y-73016536D01*
X89516544Y-73046273D01*
X89539548Y-73076835D01*
X89561860Y-73108205D01*
X89583457Y-73140365D01*
X89604313Y-73173299D01*
X89624405Y-73206989D01*
X89643709Y-73241419D01*
X89662199Y-73276570D01*
X89679853Y-73312427D01*
X89696645Y-73348972D01*
X89712551Y-73386188D01*
X89727548Y-73424058D01*
X89741611Y-73462564D01*
X89754715Y-73501691D01*
X89766844Y-73541399D01*
X89778016Y-73581585D01*
X89788262Y-73622131D01*
X89797614Y-73662919D01*
X89813756Y-73744754D01*
X89826691Y-73826149D01*
X89836670Y-73906164D01*
X89843940Y-73983859D01*
X89848750Y-74058293D01*
X89851350Y-74128526D01*
X89851962Y-74193920D01*
X89850671Y-74254987D01*
X89847519Y-74312512D01*
X89842551Y-74367280D01*
X89835807Y-74420077D01*
X89827332Y-74471689D01*
X89817168Y-74522899D01*
X89805358Y-74574493D01*
X89791961Y-74627070D01*
X89777076Y-74680439D01*
X89760805Y-74734204D01*
X89743248Y-74787971D01*
X89724510Y-74841344D01*
X89704690Y-74893927D01*
X89683891Y-74945324D01*
X89662214Y-74995139D01*
X89639853Y-75043056D01*
X89617428Y-75089051D01*
X89595682Y-75133174D01*
X89575361Y-75175474D01*
X89557209Y-75215999D01*
X89549178Y-75235612D01*
X89541969Y-75254799D01*
X89535674Y-75273568D01*
X89530386Y-75291923D01*
X89526199Y-75309871D01*
X89523205Y-75327419D01*
X89522181Y-75336045D01*
X89521471Y-75344574D01*
X89521068Y-75353011D01*
X89520965Y-75361355D01*
X89521629Y-75377779D01*
X89523409Y-75393865D01*
X89526250Y-75409632D01*
X89530095Y-75425096D01*
X89534889Y-75440278D01*
X89540576Y-75455194D01*
X89547101Y-75469865D01*
X89554409Y-75484307D01*
X89562443Y-75498539D01*
X89571149Y-75512580D01*
X89580470Y-75526448D01*
X89590351Y-75540161D01*
X89600737Y-75553738D01*
X89611571Y-75567197D01*
X89622805Y-75580557D01*
X89634409Y-75593831D01*
X89658630Y-75620171D01*
X89684034Y-75646315D01*
X89710424Y-75672360D01*
X89737604Y-75698406D01*
X89765374Y-75724549D01*
X89821894Y-75777521D01*
X89850644Y-75804093D01*
X89865675Y-75816723D01*
X89881487Y-75828488D01*
X89898339Y-75839069D01*
X89916487Y-75848146D01*
X89936189Y-75855398D01*
X89946704Y-75858240D01*
X89957705Y-75860506D01*
X89969222Y-75862156D01*
X89981290Y-75863150D01*
X89993940Y-75863448D01*
X90007203Y-75863009D01*
X90021113Y-75861795D01*
X90035702Y-75859765D01*
X90051002Y-75856878D01*
X90067045Y-75853096D01*
X90083863Y-75848377D01*
X90101488Y-75842682D01*
X90119954Y-75835971D01*
X90139291Y-75828205D01*
X90180710Y-75809343D01*
X90226004Y-75785777D01*
X91491560Y-74927431D01*
X91718123Y-74789739D01*
X91959475Y-74651487D01*
X92215812Y-74513254D01*
X92487332Y-74375623D01*
X92774229Y-74239175D01*
X93076700Y-74104492D01*
X93394942Y-73972154D01*
X93729149Y-73842743D01*
X94079076Y-73716900D01*
X94442632Y-73595476D01*
X94817245Y-73479362D01*
X95200344Y-73369453D01*
X95589357Y-73266641D01*
X95981714Y-73171819D01*
X96374844Y-73085881D01*
X96766174Y-73009719D01*
X97153943Y-72944041D01*
X97539659Y-72888858D01*
X97925650Y-72844024D01*
X98314242Y-72809392D01*
X98707764Y-72784814D01*
X99108541Y-72770145D01*
X99518902Y-72765237D01*
X99941174Y-72769944D01*
X100376517Y-72784092D01*
X100821447Y-72807376D01*
X101271323Y-72839443D01*
X101721503Y-72879945D01*
X102167345Y-72928530D01*
X102604209Y-72984847D01*
X103027452Y-73048546D01*
X103432432Y-73119277D01*
X103815548Y-73196616D01*
X104177310Y-73279854D01*
X104519251Y-73368206D01*
X104842902Y-73460890D01*
X105149796Y-73557123D01*
X105441464Y-73656122D01*
X105719437Y-73757103D01*
X105985249Y-73859283D01*
X106240071Y-73961857D01*
X106483661Y-74063981D01*
X106715425Y-74164821D01*
X106934771Y-74263539D01*
X107141106Y-74359300D01*
X107333834Y-74451267D01*
X107676102Y-74620477D01*
X108186498Y-74881228D01*
X108281925Y-74927684D01*
X108366169Y-74965861D01*
X108404360Y-74981722D01*
X108440071Y-74995365D01*
X108473408Y-75006741D01*
X108504475Y-75015802D01*
X108519191Y-75019451D01*
X108533390Y-75022517D01*
X108547097Y-75025006D01*
X108560337Y-75026923D01*
X108573136Y-75028276D01*
X108585520Y-75029069D01*
X108597513Y-75029309D01*
X108609142Y-75029002D01*
X108620431Y-75028154D01*
X108631407Y-75026771D01*
X108642094Y-75024859D01*
X108652519Y-75022424D01*
X108662706Y-75019472D01*
X108672681Y-75016010D01*
X108682470Y-75012042D01*
X108692098Y-75007575D01*
X108701590Y-75002616D01*
X108710972Y-74997169D01*
X108720270Y-74991242D01*
X108729508Y-74984840D01*
X108738713Y-74977969D01*
X108747909Y-74970636D01*
X108766379Y-74954605D01*
X108785122Y-74936795D01*
X108804341Y-74917254D01*
X108824240Y-74896032D01*
X108845022Y-74873175D01*
X108889488Y-74822955D01*
X108936568Y-74767950D01*
X108984535Y-74709688D01*
X109031665Y-74649700D01*
X109076232Y-74589515D01*
X109097015Y-74559827D01*
X109116511Y-74530663D01*
X109134503Y-74502214D01*
X109150776Y-74474672D01*
X109165114Y-74448228D01*
X109177302Y-74423073D01*
X109187174Y-74399327D01*
X109191249Y-74387938D01*
X109194760Y-74376838D01*
X109197719Y-74365998D01*
X109200133Y-74355393D01*
X109202012Y-74344994D01*
X109203365Y-74334776D01*
X109204202Y-74324711D01*
X109204531Y-74314772D01*
X109204361Y-74304933D01*
X109203702Y-74295167D01*
X109202563Y-74285446D01*
X109200953Y-74275745D01*
X109196356Y-74256292D01*
X109189985Y-74236592D01*
X109181913Y-74216431D01*
X109172213Y-74195594D01*
X109160958Y-74173865D01*
X109148222Y-74151031D01*
X109134077Y-74126875D01*
X109101855Y-74073740D01*
X109024923Y-73945210D01*
X108982968Y-73870535D01*
X108940609Y-73789648D01*
X108899284Y-73703092D01*
X108879460Y-73657859D01*
X108860435Y-73611414D01*
X108842389Y-73563823D01*
X108825502Y-73515157D01*
X108809954Y-73465482D01*
X108795925Y-73414866D01*
X108783560Y-73363385D01*
X108772862Y-73311134D01*
X108763810Y-73258213D01*
X108756379Y-73204720D01*
X108750546Y-73150755D01*
X108746287Y-73096419D01*
X108743578Y-73041809D01*
X108742396Y-72987026D01*
X108742718Y-72932169D01*
X108744519Y-72877338D01*
X108747776Y-72822631D01*
X108752466Y-72768149D01*
X108758564Y-72713991D01*
X108766048Y-72660256D01*
X108774893Y-72607044D01*
X108785076Y-72554454D01*
X108796579Y-72502577D01*
X108809415Y-72451470D01*
X108823610Y-72401184D01*
X108839192Y-72351768D01*
X108856185Y-72303273D01*
X108874616Y-72255748D01*
X108894511Y-72209245D01*
X108915895Y-72163813D01*
X108938795Y-72119502D01*
X108963236Y-72076362D01*
X108989245Y-72034444D01*
X109016848Y-71993798D01*
X109046069Y-71954474D01*
X109076937Y-71916523D01*
X109109475Y-71879993D01*
X109143711Y-71844936D01*
X109179645Y-71811394D01*
X109217169Y-71779374D01*
X109256143Y-71748873D01*
X109296428Y-71719889D01*
X109337886Y-71692419D01*
X109380377Y-71666460D01*
X109423762Y-71642009D01*
X109467902Y-71619065D01*
X109512659Y-71597624D01*
X109557892Y-71577683D01*
X109603464Y-71559240D01*
X109649234Y-71542293D01*
X109695064Y-71526838D01*
X109740816Y-71512873D01*
X109786349Y-71500395D01*
X109831524Y-71489402D01*
X109876244Y-71479889D01*
X109920578Y-71471851D01*
X109964643Y-71465272D01*
X110008555Y-71460138D01*
X110052430Y-71456433D01*
X110096383Y-71454143D01*
X110140532Y-71453252D01*
X110184992Y-71453746D01*
G37*
D11*
%TO.C,BT1*%
X91057455Y-93750000D03*
D12*
X111857455Y-93750000D03*
%TD*%
M02*
